<svg width="60" height="36" viewBox="0 0 60 36" fill="none" xmlns="http://www.w3.org/2000/svg">
<path d="M16.9975 21.5959C16.5479 21.5959 16.133 21.5325 15.753 21.4059C15.3794 21.2792 15.0057 21.0702 14.632 20.7789L15.126 19.7149C15.4744 19.9555 15.8037 20.1392 16.114 20.2659C16.4307 20.3862 16.7252 20.4464 16.9975 20.4464C17.3649 20.4464 17.6467 20.3767 17.843 20.2374C18.0457 20.098 18.147 19.9049 18.147 19.6579C18.147 19.4805 18.0837 19.3317 17.957 19.2114C17.8304 19.0847 17.6467 18.996 17.406 18.9454L16.532 18.7744C15.924 18.6667 15.487 18.4735 15.221 18.1949C14.955 17.9099 14.822 17.5584 14.822 17.1404C14.822 16.754 14.9044 16.4057 15.069 16.0954C15.2337 15.7787 15.4902 15.5285 15.8385 15.3449C16.1869 15.1549 16.6334 15.0599 17.178 15.0599C17.5454 15.0599 17.9095 15.1074 18.2705 15.2024C18.6379 15.2974 19.002 15.4779 19.363 15.7439L18.869 16.8079C18.565 16.6305 18.2737 16.488 17.995 16.3804C17.7227 16.2664 17.463 16.2094 17.216 16.2094C16.8804 16.2094 16.6302 16.2759 16.4655 16.4089C16.3072 16.5355 16.228 16.7065 16.228 16.9219C16.228 17.0992 16.2914 17.2385 16.418 17.3399C16.5447 17.4349 16.7284 17.5077 16.969 17.5584L17.843 17.7294C18.4447 17.837 18.8785 18.0524 19.1445 18.3754C19.4169 18.6984 19.553 19.0689 19.553 19.4869C19.553 20.1329 19.3345 20.6459 18.8975 21.0259C18.4605 21.4059 17.8272 21.5959 16.9975 21.5959ZM23.3226 21.5959C22.4423 21.5959 21.7583 21.3774 21.2706 20.9404C20.7829 20.497 20.5391 19.8099 20.5391 18.8789V15.1549H21.9261V18.8789C21.9261 19.2145 21.9768 19.4932 22.0781 19.7149C22.1858 19.9365 22.3441 20.1044 22.5531 20.2184C22.7621 20.3324 23.0186 20.3894 23.3226 20.3894C23.6329 20.3894 23.8894 20.3324 24.0921 20.2184C24.3011 20.1044 24.4563 19.9365 24.5576 19.7149C24.6653 19.4932 24.7191 19.2145 24.7191 18.8789V15.1549H26.1061V18.8789C26.1061 19.8099 25.8623 20.497 25.3746 20.9404C24.8869 21.3774 24.2029 21.5959 23.3226 21.5959ZM27.3765 21.5009V15.1549H30.103C30.92 15.1549 31.528 15.3354 31.927 15.6964C32.326 16.051 32.5255 16.564 32.5255 17.2354C32.5255 17.9067 32.326 18.4197 31.927 18.7744C31.528 19.129 30.92 19.3064 30.103 19.3064H28.7635V21.5009H27.3765ZM28.7635 18.1949H29.875C30.2803 18.1949 30.5907 18.122 30.806 17.9764C31.0213 17.8307 31.129 17.5837 31.129 17.2354C31.129 16.887 31.0213 16.64 30.806 16.4944C30.597 16.3424 30.2867 16.2664 29.875 16.2664H28.7635V18.1949ZM33.5181 21.5009V15.1549H38.1351V16.3234H34.9051V17.6819H37.8501V18.7839H34.9051V20.3324H38.1351V21.5009H33.5181ZM39.2144 21.5009V15.1549H41.9409C42.7262 15.1549 43.3247 15.3195 43.7364 15.6489C44.1544 15.9782 44.3634 16.4722 44.3634 17.1309C44.3634 17.6565 44.2335 18.0714 43.9739 18.3754C43.7142 18.673 43.3405 18.8789 42.8529 18.9929L44.6864 21.5009H43.0619L41.4089 19.0974H40.6014V21.5009H39.2144ZM40.6014 18.0049H41.7129C42.1499 18.0049 42.4665 17.9384 42.6629 17.8054C42.8655 17.666 42.9669 17.4444 42.9669 17.1404C42.9669 16.83 42.8687 16.6084 42.6724 16.4754C42.476 16.336 42.1562 16.2664 41.7129 16.2664H40.6014V18.0049Z" fill="#EBF479"/>
<path d="M1.23252 35V25.648H5.88052C6.64585 25.648 7.28985 25.732 7.81252 25.9C8.33518 26.068 8.72718 26.3247 8.98852 26.67C9.24985 27.0153 9.38052 27.4773 9.38052 28.056C9.38052 28.56 9.26385 28.994 9.03052 29.358C8.80652 29.722 8.42385 29.9973 7.88252 30.184C8.49852 30.352 8.94652 30.6273 9.22652 31.01C9.51585 31.3833 9.66052 31.864 9.66052 32.452C9.66052 33.32 9.35718 33.964 8.75052 34.384C8.14385 34.7947 7.18718 35 5.88052 35H1.23252ZM3.64052 33.11H5.61452C6.01585 33.11 6.33318 33.0773 6.56652 33.012C6.80918 32.9373 6.97718 32.8253 7.07052 32.676C7.17318 32.5267 7.22452 32.3307 7.22452 32.088C7.22452 31.836 7.17318 31.6353 7.07052 31.486C6.97718 31.3367 6.80918 31.2293 6.56652 31.164C6.33318 31.0893 6.01585 31.052 5.61452 31.052H3.64052V33.11ZM3.64052 29.316H5.61452C6.13718 29.316 6.48718 29.246 6.66452 29.106C6.85118 28.9567 6.94452 28.728 6.94452 28.42C6.94452 28.1213 6.85118 27.902 6.66452 27.762C6.48718 27.6127 6.13718 27.538 5.61452 27.538H3.64052V29.316ZM12.4932 35V25.648H16.6512C17.8366 25.648 18.7419 25.9 19.3672 26.404C19.9926 26.8987 20.3052 27.636 20.3052 28.616C20.3052 29.3813 20.1186 29.9927 19.7452 30.45C19.3812 30.898 18.8586 31.2153 18.1772 31.402L20.7812 35H17.9812L15.6852 31.598H14.9012V35H12.4932ZM14.9012 29.722H16.2732C16.8426 29.722 17.2486 29.6333 17.4912 29.456C17.7432 29.2787 17.8692 29.0033 17.8692 28.63C17.8692 28.2567 17.7479 27.9813 17.5052 27.804C17.2719 27.6267 16.8612 27.538 16.2732 27.538H14.9012V29.722ZM23.1387 35V25.648H25.5467V35H23.1387ZM28.7802 35V25.648H32.2662C33.9462 25.648 35.2249 26.04 36.1022 26.824C36.9889 27.608 37.4322 28.7747 37.4322 30.324C37.4322 31.8733 36.9889 33.04 36.1022 33.824C35.2249 34.608 33.9462 35 32.2662 35H28.7802ZM31.1882 32.984H32.2522C33.2602 32.984 33.9696 32.7647 34.3802 32.326C34.7909 31.8873 34.9962 31.22 34.9962 30.324C34.9962 29.4373 34.7909 28.7747 34.3802 28.336C33.9696 27.888 33.2602 27.664 32.2522 27.664H31.1882V32.984ZM44.8657 35.14C43.8484 35.14 42.9617 34.9347 42.2057 34.524C41.4497 34.104 40.8664 33.5347 40.4557 32.816C40.045 32.088 39.8397 31.2573 39.8397 30.324C39.8397 29.3907 40.045 28.5647 40.4557 27.846C40.8757 27.118 41.4637 26.5487 42.2197 26.138C42.9757 25.718 43.8577 25.508 44.8657 25.508C45.4817 25.508 46.0837 25.5873 46.6717 25.746C47.269 25.9047 47.8384 26.1613 48.3797 26.516L47.5677 28.322C47.0917 28.0607 46.625 27.874 46.1677 27.762C45.7197 27.65 45.2857 27.594 44.8657 27.594C44.3524 27.594 43.8997 27.7107 43.5077 27.944C43.1157 28.168 42.8124 28.4853 42.5977 28.896C42.383 29.2973 42.2757 29.7733 42.2757 30.324C42.2757 30.8653 42.383 31.3413 42.5977 31.752C42.8124 32.1627 43.1157 32.4847 43.5077 32.718C43.8997 32.942 44.3524 33.054 44.8657 33.054C45.239 33.054 45.5704 32.998 45.8597 32.886C46.1584 32.774 46.4197 32.606 46.6437 32.382V31.374H44.7257V29.526H49.0517V33.166C48.6224 33.782 48.053 34.2673 47.3437 34.622C46.6344 34.9673 45.8084 35.14 44.8657 35.14ZM52.0263 35V25.648H58.9983V27.664H54.4343V29.26H58.5783V31.108H54.4343V32.984H58.9983V35H52.0263Z" fill="white"/>
<path fill-rule="evenodd" clip-rule="evenodd" d="M57.6871 22C55.6606 12.3775 44.0365 5 30 5C15.9635 5 4.3393 12.3775 2.31287 22H8.27267C9.93812 12.932 19.0317 6 30 6C40.9683 6 50.0618 12.932 51.7273 22H57.6871Z" fill="#EBF479"/>
<path d="M30.4689 0.826482C30.3963 0.630264 30.2092 0.5 30 0.5C29.7908 0.5 29.6037 0.630264 29.5311 0.826482L28.2604 4.26041L24.8265 5.53107C24.6303 5.60368 24.5 5.79078 24.5 6C24.5 6.20922 24.6303 6.39632 24.8265 6.46893L28.2604 7.73959L29.5311 11.1735C29.6037 11.3697 29.7908 11.5 30 11.5C30.2092 11.5 30.3963 11.3697 30.4689 11.1735L31.7396 7.73959L35.1735 6.46893C35.3697 6.39632 35.5 6.20922 35.5 6C35.5 5.79078 35.3697 5.60368 35.1735 5.53107L31.7396 4.26041L30.4689 0.826482Z" fill="#EBF479" stroke="#16181D" stroke-linejoin="round"/>
</svg>
