<svg width="71" height="24" viewBox="0 0 71 24" fill="none" xmlns="http://www.w3.org/2000/svg">
<rect x="1" y="1" width="69" height="22" rx="6" stroke="#EBF479"/>
<path d="M11.3498 16.9898C10.6311 16.9898 9.9871 16.8311 9.41777 16.5138C8.85777 16.1964 8.41443 15.7531 8.08777 15.1838C7.7611 14.6144 7.59777 13.9518 7.59777 13.1958C7.59777 12.4398 7.7611 11.7818 8.08777 11.2218C8.41443 10.6524 8.85777 10.2091 9.41777 9.89176C9.9871 9.57443 10.6311 9.41576 11.3498 9.41576C11.9751 9.41576 12.5398 9.55576 13.0438 9.83576C13.5478 10.1158 13.9491 10.5358 14.2478 11.0958C14.5558 11.6558 14.7098 12.3558 14.7098 13.1958C14.7098 14.0358 14.5604 14.7358 14.2618 15.2958C13.9724 15.8558 13.5758 16.2804 13.0718 16.5698C12.5678 16.8498 11.9938 16.9898 11.3498 16.9898ZM11.4618 15.8138C11.9284 15.8138 12.3484 15.7064 12.7218 15.4918C13.1044 15.2771 13.4031 14.9738 13.6178 14.5818C13.8418 14.1804 13.9538 13.7184 13.9538 13.1958C13.9538 12.6638 13.8418 12.2064 13.6178 11.8238C13.4031 11.4318 13.1044 11.1284 12.7218 10.9138C12.3484 10.6991 11.9284 10.5918 11.4618 10.5918C10.9858 10.5918 10.5611 10.6991 10.1878 10.9138C9.81443 11.1284 9.51577 11.4318 9.29177 11.8238C9.06777 12.2064 8.95577 12.6638 8.95577 13.1958C8.95577 13.7184 9.06777 14.1804 9.29177 14.5818C9.51577 14.9738 9.81443 15.2771 10.1878 15.4918C10.5611 15.7064 10.9858 15.8138 11.4618 15.8138ZM13.9958 16.9058V14.9038L14.0798 13.1818L13.9398 11.4598V6.51776H15.2838V16.9058H13.9958ZM17.2947 10.3398L17.9947 7.49776L18.1767 8.30976C17.9061 8.30976 17.6774 8.22576 17.4907 8.05776C17.3134 7.88976 17.2247 7.66576 17.2247 7.38576C17.2247 7.09643 17.3134 6.86776 17.4907 6.69976C17.6774 6.52243 17.9014 6.43376 18.1627 6.43376C18.4334 6.43376 18.6527 6.52709 18.8207 6.71376C18.9887 6.89109 19.0727 7.11509 19.0727 7.38576C19.0727 7.46976 19.0681 7.55843 19.0587 7.65176C19.0494 7.73576 19.0261 7.83376 18.9887 7.94576C18.9607 8.05776 18.9141 8.20243 18.8487 8.37976L18.1767 10.3398H17.2947ZM19.2458 16.9058L23.6838 7.10576H25.0698L29.5218 16.9058H28.0518L24.0898 7.88976H24.6498L20.6878 16.9058H19.2458ZM21.1358 14.4558L21.5138 13.3358H27.0298L27.4358 14.4558H21.1358ZM32.3509 16.9058L29.1029 9.48576H30.5029L33.3869 16.2058H32.7149L35.6549 9.48576H36.9709L33.7229 16.9058H32.3509ZM38.2252 16.9058V9.48576H39.5692V16.9058H38.2252ZM38.8972 8.05776C38.6358 8.05776 38.4165 7.97376 38.2392 7.80576C38.0712 7.63776 37.9872 7.43243 37.9872 7.18976C37.9872 6.93776 38.0712 6.72776 38.2392 6.55976C38.4165 6.39176 38.6358 6.30776 38.8972 6.30776C39.1585 6.30776 39.3732 6.39176 39.5412 6.55976C39.7185 6.71843 39.8072 6.91909 39.8072 7.16176C39.8072 7.41376 39.7232 7.62843 39.5552 7.80576C39.3872 7.97376 39.1678 8.05776 38.8972 8.05776ZM46.0973 9.41576C46.704 9.41576 47.236 9.53243 47.6933 9.76576C48.16 9.99909 48.524 10.3538 48.7853 10.8298C49.0467 11.3058 49.1773 11.9078 49.1773 12.6358V16.9058H47.8333V12.7898C47.8333 12.0711 47.656 11.5298 47.3013 11.1658C46.956 10.8018 46.466 10.6198 45.8313 10.6198C45.3553 10.6198 44.94 10.7131 44.5853 10.8998C44.2307 11.0864 43.9553 11.3618 43.7593 11.7258C43.5727 12.0898 43.4793 12.5424 43.4793 13.0838V16.9058H42.1353V9.48576H43.4233V11.4878L43.2133 10.9558C43.456 10.4704 43.8293 10.0924 44.3333 9.82176C44.8373 9.55109 45.4253 9.41576 46.0973 9.41576ZM54.8986 16.9898C54.1426 16.9898 53.466 16.8264 52.8686 16.4998C52.2806 16.1731 51.8186 15.7251 51.4826 15.1558C51.1466 14.5864 50.9786 13.9331 50.9786 13.1958C50.9786 12.4584 51.1466 11.8051 51.4826 11.2358C51.8186 10.6664 52.2806 10.2231 52.8686 9.90576C53.466 9.57909 54.1426 9.41576 54.8986 9.41576C55.5706 9.41576 56.168 9.55109 56.6906 9.82176C57.2226 10.0831 57.6333 10.4751 57.9226 10.9978L56.9006 11.6558C56.658 11.2918 56.3593 11.0258 56.0046 10.8578C55.6593 10.6804 55.286 10.5918 54.8846 10.5918C54.3993 10.5918 53.9653 10.6991 53.5826 10.9138C53.2 11.1284 52.8966 11.4318 52.6726 11.8238C52.4486 12.2064 52.3366 12.6638 52.3366 13.1958C52.3366 13.7278 52.4486 14.1898 52.6726 14.5818C52.8966 14.9738 53.2 15.2771 53.5826 15.4918C53.9653 15.7064 54.3993 15.8138 54.8846 15.8138C55.286 15.8138 55.6593 15.7298 56.0046 15.5618C56.3593 15.3844 56.658 15.1138 56.9006 14.7498L57.9226 15.3938C57.6333 15.9071 57.2226 16.3038 56.6906 16.5838C56.168 16.8544 55.5706 16.9898 54.8986 16.9898ZM59.567 16.9058V9.48576H60.911V16.9058H59.567ZM60.239 8.05776C59.9776 8.05776 59.7583 7.97376 59.581 7.80576C59.413 7.63776 59.329 7.43243 59.329 7.18976C59.329 6.93776 59.413 6.72776 59.581 6.55976C59.7583 6.39176 59.9776 6.30776 60.239 6.30776C60.5003 6.30776 60.715 6.39176 60.883 6.55976C61.0603 6.71843 61.149 6.91909 61.149 7.16176C61.149 7.41376 61.065 7.62843 60.897 7.80576C60.729 7.97376 60.5096 8.05776 60.239 8.05776Z" fill="#EBF479"/>
</svg>
