<svg width="811" height="154" viewBox="0 0 811 154" fill="none" xmlns="http://www.w3.org/2000/svg">
<path d="M68.1044 51.173L87.4139 19.3489L72.6574 19.0276L79.4923 7.76297L125.993 8.77564L119.158 20.0403L104.402 19.7189L85.0924 51.543L68.1044 51.173ZM151.914 18.2588C154.938 18.3247 157.349 18.9177 159.149 20.038C160.974 21.1172 161.91 22.78 161.957 25.0263C162.052 27.2736 161.029 30.1619 158.888 33.691L147.235 52.8963L130.967 52.542L141.163 35.7374C142.433 33.6445 142.898 32.1578 142.557 31.2772C142.241 30.3556 141.339 29.8786 139.851 29.8462C138.747 29.8221 137.579 30.0254 136.345 30.4559C135.184 30.8464 134.017 31.5278 132.844 32.5002C131.718 33.4736 130.645 34.8015 129.624 36.484L120.026 52.3037L103.757 51.9494L131.47 6.27544L147.739 6.62971L134.48 28.4818L132.311 25.5656C135.39 23.0548 138.611 21.1915 141.975 19.9758C145.386 18.7611 148.699 18.1888 151.914 18.2588ZM176.368 54.1544C171.57 54.0499 167.831 53.1993 165.153 51.6025C162.523 50.0068 161.021 47.8744 160.648 45.2052C160.298 42.4949 161.132 39.4778 163.149 36.1538C165.216 32.7478 168.006 29.7525 171.519 27.1679C175.08 24.5844 178.988 22.5906 183.244 21.1864C187.547 19.7833 191.811 19.1277 196.034 19.2196C199.921 19.3043 203.097 20.0387 205.564 21.423C208.078 22.8083 209.535 24.815 209.934 27.4432C210.381 30.0724 209.446 33.2952 207.131 37.1116C206.832 37.6041 206.472 38.1575 206.05 38.7721C205.654 39.3455 205.282 39.878 204.935 40.3694L174.63 39.7094L178.702 32.9999L200.368 33.4717L193.167 35.1236C193.963 33.8104 194.348 32.6961 194.32 31.7808C194.365 30.8254 194.056 30.0911 193.396 29.5778C192.759 29.0234 191.77 28.7316 190.426 28.7023C189.082 28.673 187.745 28.9142 186.413 29.4257C185.155 29.8972 183.975 30.5992 182.874 31.5315C181.799 32.4229 180.863 33.5251 180.066 34.8383L178.796 36.9312C177.924 38.3674 177.513 39.6059 177.563 40.6464C177.612 41.687 178.099 42.4876 179.023 43.0482C179.972 43.5678 181.334 43.847 183.11 43.8856C184.933 43.9254 186.545 43.7526 187.946 43.3673C189.395 42.983 191.016 42.3947 192.81 41.6021L196.859 49.1122C193.869 50.835 190.672 52.1375 187.268 53.0196C183.937 53.8618 180.303 54.2401 176.368 54.1544ZM224.116 54.5705L250.26 11.4818L264.225 11.786L273.94 38.5666L267.461 38.4255L283.372 12.2029L299.928 12.5635L273.784 55.6522L259.819 55.348L250.104 28.5674L256.582 28.7085L240.672 54.9311L224.116 54.5705ZM302.831 56.9084C298.032 56.8039 294.293 55.9533 291.615 54.3565C288.986 52.7608 287.484 50.6284 287.11 47.9592C286.761 45.2489 287.595 42.2318 289.611 38.9078C291.678 35.5018 294.468 32.5065 297.981 29.9219C301.542 27.3384 305.45 25.3446 309.706 23.9404C314.01 22.5373 318.273 21.8817 322.496 21.9737C326.383 22.0583 329.56 22.7928 332.026 24.177C334.541 25.5623 335.997 27.569 336.396 30.1972C336.843 32.8264 335.909 36.0492 333.593 39.8656C333.294 40.3581 332.934 40.9116 332.513 41.5261C332.116 42.0995 331.744 42.632 331.397 43.1234L301.093 42.4634L305.164 35.7539L326.831 36.2257L319.629 37.8776C320.426 36.5644 320.81 35.4501 320.782 34.5348C320.827 33.5795 320.519 32.8451 319.858 32.3318C319.222 31.7774 318.232 31.4856 316.888 31.4563C315.544 31.427 314.207 31.6682 312.875 32.1797C311.617 32.6512 310.437 33.3532 309.337 34.2855C308.261 35.1769 307.325 36.2791 306.528 37.5923L305.258 39.6852C304.387 41.1215 303.976 42.3599 304.025 43.4004C304.074 44.441 304.561 45.2416 305.485 45.8022C306.434 46.3218 307.796 46.601 309.572 46.6397C311.395 46.6794 313.007 46.5066 314.408 46.1213C315.857 45.737 317.478 45.1487 319.272 44.3561L323.321 51.8662C320.331 53.589 317.134 54.8915 313.73 55.7737C310.399 56.6158 306.766 56.9941 302.831 56.9084ZM323.192 56.7281L354.387 36.3269L349.1 44.3197L344.054 23.0668L362.409 23.4665L364.359 34.7977L357.331 35.0813L373.926 23.7174L390.986 24.0889L360.956 43.8918L365.625 36.1974L370.916 57.7674L352.273 57.3614L350.483 45.2853L356.836 46.2345L340.828 57.1122L323.192 56.7281ZM392.464 58.8604C387.041 58.7423 383.491 57.5423 381.812 55.2605C380.158 52.9376 380.738 49.4576 383.552 44.8205L400.657 16.6282L416.926 16.9824L399.894 45.0516C399.272 46.0775 399.098 46.8846 399.374 47.4727C399.697 48.0618 400.338 48.3668 401.298 48.3877C402.69 48.418 404.1 48.1369 405.529 47.5443L403.553 57.2932C401.932 57.8816 400.146 58.3 398.196 58.5486C396.294 58.7983 394.384 58.9022 392.464 58.8604ZM383.382 36.0852L389.544 25.9285L419.273 26.576L413.111 36.7326L383.382 36.0852ZM413.5 45.9716L419.849 35.5072L441.444 35.9775L435.095 46.4419L413.5 45.9716ZM460.324 60.7124C456.245 60.6236 452.802 60.0081 449.994 58.8659C447.259 57.6837 445.23 56.0595 443.907 53.9933C442.632 51.9281 442.132 49.5057 442.409 46.7259C442.685 43.9461 443.832 40.8942 445.849 37.5703C447.866 34.2463 450.404 31.2247 453.464 28.5055C456.524 25.7864 459.936 23.4491 463.699 21.4937C467.463 19.5383 471.396 18.0647 475.498 17.073C479.674 16.0413 483.849 15.5709 488.024 15.6618C493.015 15.7705 497.018 16.5853 500.034 18.1062C503.097 19.6282 505.091 21.7506 506.016 24.4734L490.179 32.4235C489.542 30.8297 488.524 29.6225 487.126 28.802C485.8 27.9416 484.009 27.4868 481.754 27.4377C479.882 27.3969 478.029 27.606 476.195 28.065C474.409 28.5251 472.701 29.2155 471.073 30.1364C469.444 31.0572 467.944 32.168 466.571 33.4686C465.198 34.7693 464.002 36.2608 462.981 37.9433C462.01 39.5438 461.401 41.0274 461.155 42.3941C460.935 43.7199 461.066 44.8661 461.549 45.833C462.032 46.7998 462.831 47.5656 463.947 48.1305C465.136 48.6553 466.642 48.9376 468.466 48.9773C470.385 49.0191 472.419 48.7931 474.566 48.2994C476.738 47.7646 479.267 46.8425 482.152 45.5332L485.603 55.7121C481.461 57.4098 477.137 58.6877 472.629 59.5459C468.121 60.404 464.02 60.7929 460.324 60.7124ZM471.967 53.5441L481.902 37.1704L496.659 37.4918L485.603 55.7121L471.967 53.5441ZM510.977 61.4413C506.178 61.3368 502.439 60.4861 499.761 58.8894C497.132 57.2937 495.63 55.1612 495.256 52.492C494.907 49.7818 495.74 46.7647 497.757 43.4407C499.824 40.0346 502.614 37.0393 506.127 34.4548C509.688 31.8713 513.596 29.8774 517.852 28.4733C522.156 27.0701 526.419 26.4146 530.642 26.5065C534.529 26.5912 537.706 27.3256 540.172 28.7099C542.687 30.0951 544.143 32.1019 544.542 34.73C544.989 37.3593 544.055 40.5821 541.739 44.3985C541.44 44.8909 541.08 45.4444 540.658 46.0589C540.262 46.6324 539.89 47.1648 539.543 47.6562L509.239 46.9963L513.31 40.2867L534.977 40.7586L527.775 42.4105C528.572 41.0973 528.956 39.983 528.928 39.0677C528.973 38.1123 528.665 37.378 528.004 36.8646C527.368 36.3102 526.378 36.0184 525.034 35.9892C523.69 35.9599 522.353 36.201 521.021 36.7126C519.763 37.1841 518.583 37.8861 517.483 38.8184C516.407 39.7097 515.471 40.812 514.674 42.1251L513.404 44.218C512.533 45.6543 512.122 46.8927 512.171 47.9333C512.22 48.9738 512.707 49.7744 513.631 50.3351C514.58 50.8547 515.942 51.1338 517.718 51.1725C519.541 51.2122 521.153 51.0394 522.554 50.6542C524.003 50.2699 525.624 49.6815 527.418 48.889L531.467 56.3991C528.477 58.1218 525.28 59.4243 521.876 60.3065C518.545 61.1487 514.912 61.527 510.977 61.4413ZM584.796 27.6859C587.819 27.7517 590.231 28.3447 592.031 29.465C593.856 30.5442 594.792 32.207 594.839 34.4533C594.934 36.7006 593.911 39.5889 591.77 43.118L580.117 62.3233L563.849 61.969L574.045 45.1644C575.315 43.0715 575.779 41.5848 575.438 40.7042C575.122 39.7826 574.221 39.3056 572.733 39.2732C571.629 39.2492 570.46 39.4524 569.227 39.8829C568.066 40.2734 566.899 40.9548 565.725 41.9272C564.6 42.9006 563.527 44.2285 562.506 45.911L552.907 61.7307L536.639 61.3764L557.069 27.7057L572.545 28.0428L566.57 37.8916L565.192 34.9926C568.272 32.4818 571.493 30.6185 574.856 29.4028C578.268 28.1882 581.581 27.6158 584.796 27.6859ZM609.267 62.9581L635.411 19.8694L660.245 20.4102C665.86 20.5325 670.267 21.5224 673.467 23.38C676.693 25.1966 678.534 27.7314 678.991 30.9845C679.448 34.2377 678.333 38.0802 675.643 42.5122C672.929 46.9852 669.389 50.8166 665.023 54.0062C660.681 57.1548 655.839 59.5649 650.498 61.2365C645.181 62.867 639.715 63.6212 634.101 63.4989L609.267 62.9581ZM633.127 52.0019L640.253 52.1571C642.652 52.2093 644.976 51.8649 647.225 51.1239C649.522 50.3839 651.635 49.2657 653.564 47.7693C655.518 46.2318 657.167 44.3551 658.511 42.1391C659.831 39.9642 660.448 38.1065 660.361 36.5662C660.275 35.0259 659.556 33.8461 658.206 33.0266C656.903 32.2083 655.052 31.773 652.653 31.7207L645.527 31.5655L633.127 52.0019ZM689.598 65.3312C684.799 65.2267 681.061 64.376 678.383 62.7793C675.753 61.1836 674.251 59.0511 673.877 56.3819C673.528 53.6717 674.362 50.6546 676.379 47.3306C678.446 43.9245 681.236 40.9292 684.749 38.3447C688.31 35.7612 692.218 33.7673 696.474 32.3632C700.777 30.96 705.041 30.3045 709.264 30.3964C713.151 30.4811 716.327 31.2155 718.794 32.5998C721.308 33.9851 722.765 35.9918 723.164 38.6199C723.611 41.2492 722.676 44.472 720.361 48.2884C720.062 48.7808 719.702 49.3343 719.28 49.9488C718.884 50.5223 718.512 51.0547 718.165 51.5461L687.86 50.8862L691.931 44.1767L713.598 44.6485L706.397 46.3004C707.193 44.9872 707.578 43.8729 707.55 42.9576C707.594 42.0022 707.286 41.2679 706.625 40.7545C705.989 40.2002 704.999 39.9083 703.656 39.8791C702.312 39.8498 700.974 40.0909 699.643 40.6025C698.384 41.074 697.205 41.776 696.104 42.7083C695.029 43.5996 694.092 44.7019 693.296 46.0151L692.026 48.1079C691.154 49.5442 690.743 50.7826 690.793 51.8232C690.842 52.8637 691.329 53.6643 692.253 54.225C693.202 54.7446 694.564 55.0238 696.339 55.0624C698.163 55.1021 699.775 54.9293 701.176 54.5441C702.625 54.1598 704.246 53.5714 706.039 52.7789L710.089 60.289C707.099 62.0117 703.902 63.3142 700.498 64.1964C697.166 65.0386 693.533 65.4169 689.598 65.3312ZM746.615 40.877L768.786 41.3598L762.138 52.3166L739.967 51.8338L746.615 40.877ZM732.753 65.6473L715.765 65.2773L741.909 22.1886L782.867 23.0806L776.219 34.0374L752.249 33.5154L732.753 65.6473ZM761.586 66.2752L782.016 32.6045L798.284 32.9587L777.854 66.6295L761.586 66.2752ZM791.793 30.0732C788.818 30.0084 786.853 29.2795 785.899 27.8867C784.945 26.4938 785.079 24.7919 786.299 22.7811C787.519 20.7703 789.427 19.1071 792.025 17.7916C794.622 16.476 797.408 15.8507 800.383 15.9155C803.359 15.9803 805.348 16.6681 806.352 17.9789C807.356 19.2897 807.247 20.9505 806.027 22.9613C804.733 25.0952 802.774 26.8404 800.152 28.197C797.555 29.5126 794.768 30.138 791.793 30.0732ZM36.9744 127.721C32.9434 127.633 29.524 127.019 26.7162 125.876C23.9813 124.694 21.9522 123.07 20.6288 121.004C19.3535 118.939 18.8541 116.516 19.1307 113.736C19.4073 110.957 20.554 107.905 22.5709 104.581C24.5877 101.257 27.1261 98.2351 30.186 95.516C33.2459 92.7968 36.6336 90.459 40.3491 88.5025C44.1126 86.5471 48.0216 85.073 52.0762 84.0803C56.2036 83.0475 60.2829 82.5751 64.3139 82.6628C69.2568 82.7705 73.1756 83.6042 76.0703 85.1641C79.013 86.7251 80.8855 88.928 81.6877 91.7728L65.9948 99.7261C65.4783 98.0932 64.5696 96.8261 63.269 95.9246C62.0412 94.9831 60.2995 94.4878 58.0441 94.4387C56.2685 94.4 54.5115 94.6112 52.773 95.0723C51.0346 95.5334 49.3511 96.2244 47.7227 97.1453C46.1423 98.0672 44.6533 99.1989 43.2557 100.541C41.8831 101.841 40.6988 103.312 39.7028 104.954C38.7068 106.595 38.0859 108.099 37.8401 109.466C37.6192 110.792 37.7263 111.938 38.1613 112.903C38.6444 113.87 39.4564 114.616 40.5972 115.139C41.7381 115.663 43.1963 115.944 44.9719 115.983C47.2274 116.032 49.5043 115.645 51.8028 114.822C54.1742 113.959 56.5892 112.743 59.0479 111.175L64.806 119.596C60.6423 122.291 56.1803 124.356 51.4199 125.791C46.7324 127.185 41.9173 127.829 36.9744 127.721ZM83.9509 128.37C79.4879 128.273 75.9771 127.448 73.4183 125.895C70.9324 124.303 69.5024 122.172 69.1284 119.503C68.7545 116.834 69.6008 113.796 71.6674 110.39C73.7341 106.984 76.548 103.989 80.1091 101.406C83.6702 98.822 87.6025 96.8287 91.9061 95.4256C96.2576 94.0235 100.665 93.3711 105.128 93.4683C109.591 93.5655 113.102 94.3903 115.66 95.9429C118.219 97.4955 119.662 99.6058 119.988 102.274C120.362 104.943 119.515 107.981 117.449 111.387C115.382 114.793 112.568 117.788 109.007 120.371C105.494 122.956 101.549 124.97 97.1726 126.413C92.8211 127.815 88.4138 128.467 83.9509 128.37ZM90.5243 117.536C91.724 117.562 92.9532 117.34 94.2117 116.868C95.4703 116.397 96.6863 115.675 97.8598 114.702C99.0581 113.689 100.093 112.464 100.965 111.028C101.861 109.551 102.307 108.334 102.304 107.377C102.326 106.38 102.006 105.625 101.345 105.111C100.684 104.598 99.7541 104.328 98.5544 104.302C97.3547 104.276 96.1255 104.499 94.8669 104.97C93.6084 105.442 92.3924 106.164 91.2189 107.136C90.0704 108.067 89.0479 109.272 88.1515 110.749C87.2801 112.185 86.821 113.423 86.7744 114.461C86.7527 115.458 87.0723 116.214 87.7333 116.727C88.3943 117.241 89.3246 117.51 90.5243 117.536ZM160.464 94.6733C163.487 94.7392 165.898 95.3322 167.699 96.4525C169.523 97.5317 170.459 99.1944 170.507 101.441C170.602 103.688 169.579 106.576 167.437 110.106L155.784 129.311L139.516 128.956L149.712 112.152C150.982 110.059 151.447 108.572 151.106 107.692C150.79 106.77 149.888 106.293 148.4 106.261C147.297 106.237 146.128 106.44 144.894 106.87C143.734 107.261 142.566 107.942 141.393 108.915C140.268 109.888 139.194 111.216 138.173 112.898L128.575 128.718L112.307 128.364L132.737 94.6932L148.213 95.0302L142.237 104.879L140.86 101.98C143.939 99.4693 147.161 97.606 150.524 96.3903C153.935 95.1756 157.248 94.6033 160.464 94.6733ZM177.88 130.416C174.521 130.342 171.397 129.963 168.507 129.276C165.617 128.589 163.463 127.732 162.045 126.703L172.073 117.628C173.372 118.613 175.083 119.399 177.207 119.985C179.379 120.573 181.64 120.893 183.992 120.944C185.959 120.987 187.366 120.872 188.212 120.599C189.106 120.328 189.703 119.946 190.002 119.453C190.301 118.961 190.104 118.603 189.413 118.38C188.747 118.116 187.779 117.908 186.51 117.756C185.241 117.603 183.84 117.427 182.308 117.228C180.849 116.988 179.416 116.666 178.008 116.261C176.601 115.856 175.449 115.269 174.554 114.502C173.658 113.734 173.176 112.725 173.107 111.476C173.063 110.186 173.627 108.577 174.797 106.648C176.092 104.514 178.006 102.602 180.539 100.911C183.121 99.2207 186.21 97.8951 189.808 96.934C193.479 95.9328 197.521 95.4804 201.936 95.5765C204.816 95.6392 207.558 95.9276 210.164 96.4417C212.769 96.9558 214.817 97.7073 216.308 98.6961L206.28 107.771C204.837 106.783 203.232 106.103 201.463 105.732C199.768 105.321 198.08 105.097 196.401 105.061C194.337 105.016 192.822 105.149 191.855 105.461C190.936 105.773 190.352 106.135 190.103 106.545C189.804 107.038 189.988 107.416 190.654 107.68C191.321 107.944 192.288 108.152 193.557 108.304C194.826 108.457 196.19 108.653 197.649 108.892C199.181 109.092 200.615 109.414 201.949 109.859C203.357 110.264 204.508 110.85 205.404 111.618C206.299 112.386 206.769 113.415 206.813 114.705C206.882 115.954 206.331 117.543 205.161 119.472C203.941 121.482 202.052 123.354 199.493 125.086C196.96 126.777 193.858 128.123 190.187 129.124C186.541 130.085 182.439 130.515 177.88 130.416ZM219.589 131.324C216.47 131.256 213.962 130.661 212.066 129.539C210.243 128.376 209.309 126.63 209.264 124.301C209.243 121.93 210.341 118.919 212.557 115.267L223.837 96.6771L240.105 97.0314L230.282 113.22C228.838 115.601 228.285 117.272 228.624 118.236C228.963 119.2 229.925 119.699 231.508 119.733C232.468 119.754 233.48 119.569 234.545 119.176C235.683 118.743 236.815 118.04 237.94 117.067C239.09 116.053 240.164 114.725 241.159 113.083L250.758 97.2634L267.026 97.6177L246.596 131.288L231.12 130.951L237.021 121.226L238.51 123.94C235.525 126.536 232.351 128.442 228.988 129.658C225.697 130.833 222.565 131.389 219.589 131.324ZM326.731 98.2942C329.706 98.359 332.046 98.9505 333.75 100.069C335.527 101.147 336.415 102.809 336.414 105.054C336.461 107.3 335.414 110.188 333.273 113.717L321.62 132.922L305.352 132.568L315.548 115.763C316.818 113.67 317.307 112.184 317.014 111.305C316.746 110.384 315.964 109.91 314.668 109.882C313.708 109.861 312.72 110.047 311.703 110.441C310.686 110.834 309.664 111.477 308.636 112.37C307.682 113.222 306.744 114.407 305.822 115.926L295.85 132.361L279.582 132.007L289.778 115.202C291.048 113.109 291.561 111.624 291.316 110.745C291.096 109.826 290.29 109.351 288.898 109.32C287.938 109.299 286.95 109.486 285.933 109.879C284.916 110.273 283.894 110.916 282.867 111.808C281.912 112.661 280.974 113.846 280.052 115.365L270.08 131.8L253.812 131.446L274.242 97.7748L289.718 98.1118L283.855 107.776L282.331 104.999C285.362 102.487 288.499 100.642 291.741 99.4656C295.009 98.2478 298.178 97.6724 301.249 97.7393C304.704 97.8145 307.279 98.6606 308.972 100.277C310.738 101.854 311.068 104.315 309.963 107.659L305.407 106.873C308.54 104.114 311.947 101.985 315.629 100.485C319.383 98.945 323.084 98.2148 326.731 98.2942ZM350.746 134.18C345.947 134.076 342.208 133.225 339.53 131.628C336.901 130.033 335.399 127.9 335.025 125.231C334.676 122.521 335.509 119.504 337.526 116.18C339.593 112.774 342.383 109.778 345.896 107.194C349.457 104.61 353.365 102.616 357.621 101.212C361.924 99.809 366.188 99.1535 370.411 99.2454C374.298 99.3301 377.475 100.065 379.941 101.449C382.455 102.834 383.912 104.841 384.311 107.469C384.758 110.098 383.824 113.321 381.508 117.137C381.209 117.63 380.849 118.183 380.427 118.798C380.031 119.371 379.659 119.904 379.312 120.395L349.008 119.735L353.079 113.026L374.746 113.497L367.544 115.149C368.341 113.836 368.725 112.722 368.697 111.807C368.742 110.851 368.434 110.117 367.773 109.604C367.137 109.049 366.147 108.757 364.803 108.728C363.459 108.699 362.122 108.94 360.79 109.451C359.532 109.923 358.352 110.625 357.252 111.557C356.176 112.449 355.24 113.551 354.443 114.864L353.173 116.957C352.302 118.393 351.891 119.632 351.94 120.672C351.989 121.713 352.476 122.513 353.4 123.074C354.349 123.594 355.711 123.873 357.487 123.911C359.31 123.951 360.922 123.778 362.323 123.393C363.772 123.009 365.393 122.42 367.187 121.628L371.236 129.138C368.246 130.861 365.049 132.163 361.645 133.045C358.314 133.888 354.681 134.266 350.746 134.18ZM376.408 134.115L396.838 100.445L412.314 100.782L406.152 110.938L405.388 107.99C408.181 105.39 411.296 103.462 414.732 102.206C418.168 100.951 421.734 100.363 425.429 100.444L417.959 112.755C417.289 112.657 416.678 112.581 416.127 112.528C415.625 112.475 415.085 112.443 414.509 112.43C412.062 112.377 409.71 112.887 407.454 113.96C405.271 114.994 403.37 116.844 401.752 119.512L392.676 134.47L376.408 134.115ZM425.85 135.192L474.021 92.5831L490.721 92.9468L486.604 136.515L469.04 136.133L474.733 99.5839L481.356 99.7281L443.126 135.568L425.85 135.192ZM443.508 127.968L454.176 117.597L477.355 118.102L475.324 128.661L443.508 127.968ZM514.711 137.751C511.304 137.677 508.846 136.999 507.338 135.719C505.902 134.399 505.428 132.455 505.916 129.888C506.429 127.28 507.893 123.985 510.309 120.005C512.774 115.942 515.258 112.649 517.762 110.126C520.338 107.562 523.103 105.689 526.058 104.506C529.012 103.323 532.289 102.771 535.888 102.849C539.343 102.924 542.075 103.711 544.083 105.21C546.116 106.668 547.199 108.729 547.333 111.393C547.492 114.016 546.476 117.133 544.285 120.745C542.094 124.356 539.337 127.456 536.016 130.045C532.72 132.592 529.209 134.532 525.483 135.865C521.757 137.198 518.167 137.826 514.711 137.751ZM481.565 148.505L509.241 102.892L524.717 103.229L521.954 107.785L514.556 120.097L507.806 132.424L497.834 148.859L481.565 148.505ZM517.398 126.833C518.597 126.859 519.827 126.636 521.085 126.164C522.344 125.693 523.56 124.971 524.733 123.999C525.907 123.026 526.929 121.822 527.801 120.386C528.697 118.908 529.156 117.671 529.178 116.674C529.199 115.676 528.88 114.921 528.219 114.407C527.558 113.894 526.627 113.624 525.428 113.598C524.228 113.572 522.999 113.795 521.74 114.266C520.482 114.738 519.266 115.46 518.092 116.432C516.919 117.404 515.884 118.629 514.988 120.107C514.116 121.543 513.67 122.76 513.648 123.757C513.626 124.755 513.946 125.51 514.607 126.023C515.268 126.537 516.198 126.806 517.398 126.833ZM565.113 138.849C561.706 138.774 559.248 138.097 557.74 136.817C556.304 135.497 555.831 133.553 556.319 130.986C556.832 128.377 558.296 125.083 560.711 121.102C563.176 117.04 565.66 113.747 568.164 111.223C570.74 108.66 573.506 106.787 576.46 105.604C579.414 104.421 582.691 103.868 586.29 103.947C589.746 104.022 592.477 104.809 594.485 106.308C596.518 107.766 597.601 109.827 597.735 112.491C597.894 115.114 596.878 118.231 594.687 121.842C592.496 125.453 589.739 128.553 586.418 131.142C583.122 133.69 579.611 135.63 575.885 136.963C572.159 138.295 568.569 138.924 565.113 138.849ZM531.967 149.603L559.643 103.99L575.119 104.327L572.356 108.882L564.958 121.195L558.208 133.522L548.236 149.957L531.967 149.603ZM567.8 127.93C569 127.956 570.229 127.734 571.487 127.262C572.746 126.79 573.962 126.069 575.135 125.096C576.309 124.124 577.331 122.92 578.203 121.483C579.099 120.006 579.558 118.769 579.58 117.771C579.602 116.774 579.282 116.018 578.621 115.505C577.96 114.992 577.03 114.722 575.83 114.696C574.63 114.67 573.401 114.892 572.142 115.364C570.884 115.835 569.668 116.557 568.494 117.53C567.321 118.502 566.286 119.727 565.39 121.204C564.518 122.641 564.072 123.857 564.05 124.855C564.028 125.852 564.348 126.608 565.009 127.121C565.67 127.634 566.6 127.904 567.8 127.93Z" fill="white"/>
</svg>
