<svg width="48" height="59" viewBox="0 0 48 59" fill="none" xmlns="http://www.w3.org/2000/svg">
<g filter="url(#filter0_di_4_313)">
<path d="M11.953 27.3219L27.9321 12.2983C29.1845 11.1207 31.1482 12.5173 30.4468 14.0868L25.9529 24.144C25.5168 25.1201 26.1599 26.2376 27.223 26.3509L34.7043 27.1479C36.0643 27.2927 36.6049 28.9839 35.581 29.8908L16.1714 47.0828C14.8535 48.2501 12.9054 46.7025 13.7445 45.1547L20.2897 33.0808C20.82 32.1027 20.1955 30.8982 19.0906 30.7679L12.8466 30.0313C11.5186 29.8746 10.9787 28.2379 11.953 27.3219Z" fill="#12AAFF"/>
<path d="M27.5896 11.934L11.6105 26.9576C10.3267 28.1646 11.0381 30.3214 12.788 30.5279L19.032 31.2644C19.7859 31.3534 20.2119 32.1751 19.8502 32.8425L13.3049 44.9165C12.1992 46.956 14.7663 48.9953 16.5029 47.4571L35.9126 30.2651C37.2617 29.0701 36.5493 26.8416 34.7573 26.6507L27.276 25.8537C26.5507 25.7764 26.1118 25.0139 26.4094 24.348L30.9033 14.2908C31.8275 12.2226 29.24 10.3823 27.5896 11.934Z" stroke="url(#paint0_linear_4_313)"/>
</g>
<defs>
<filter id="filter0_di_4_313" x="0.454102" y="0.852295" width="46.6606" height="57.6479" filterUnits="userSpaceOnUse" color-interpolation-filters="sRGB">
<feFlood flood-opacity="0" result="BackgroundImageFix"/>
<feColorMatrix in="SourceAlpha" type="matrix" values="0 0 0 0 0 0 0 0 0 0 0 0 0 0 0 0 0 0 127 0" result="hardAlpha"/>
<feOffset/>
<feGaussianBlur stdDeviation="5"/>
<feComposite in2="hardAlpha" operator="out"/>
<feColorMatrix type="matrix" values="0 0 0 0 0.0705882 0 0 0 0 0.666667 0 0 0 0 1 0 0 0 0.8 0"/>
<feBlend mode="normal" in2="BackgroundImageFix" result="effect1_dropShadow_4_313"/>
<feBlend mode="normal" in="SourceGraphic" in2="effect1_dropShadow_4_313" result="shape"/>
<feColorMatrix in="SourceAlpha" type="matrix" values="0 0 0 0 0 0 0 0 0 0 0 0 0 0 0 0 0 0 127 0" result="hardAlpha"/>
<feOffset dy="9"/>
<feGaussianBlur stdDeviation="3.8"/>
<feComposite in2="hardAlpha" operator="arithmetic" k2="-1" k3="1"/>
<feColorMatrix type="matrix" values="0 0 0 0 1 0 0 0 0 1 0 0 0 0 1 0 0 0 0.25 0"/>
<feBlend mode="normal" in2="shape" result="effect2_innerShadow_4_313"/>
</filter>
<linearGradient id="paint0_linear_4_313" x1="18.7301" y1="14.558" x2="26.736" y2="44.4363" gradientUnits="userSpaceOnUse">
<stop stop-color="#134370"/>
<stop offset="1" stop-color="#406384"/>
</linearGradient>
</defs>
</svg>
