<svg width="293" height="309" viewBox="0 0 293 309" fill="none" xmlns="http://www.w3.org/2000/svg">
<g id="Group 48097670">
<g id="Group 48097669">
<g id="Vector 4464">
<path d="M220.383 153.04C204.579 157.528 197.531 154.831 180.704 149.633C179.176 149.161 178.287 147.576 178.954 146.122C181.722 140.085 188.671 131.235 191.885 133.03C198.137 136.522 204.439 139.159 215.452 139.036C217.079 139.018 218.407 137.608 219.092 136.132C220.158 133.835 222.182 131.424 223.513 129.754C225.412 127.371 228.01 128.821 226.788 131.009C225.565 133.197 225.534 137.553 227.862 136.202C230.383 134.74 233.693 130.848 236.402 130.065C239.112 129.282 238.755 131.953 236.856 134.337C235.336 136.244 231.395 139.707 230.536 140.567C231.746 140.094 236.379 137.63 237.854 136.617C239.698 135.35 240.619 134.717 241.429 136.317C242.077 137.598 239.455 140.19 238.063 141.326C239.562 141.015 241.849 141.259 239.005 144.723C236.268 148.057 225.086 152.563 221.211 152.902C220.933 152.926 220.651 152.964 220.383 153.04Z" fill="#F4E079"/>
<path d="M238.063 141.326C239.562 141.015 241.849 141.259 239.005 144.723C236.268 148.057 225.086 152.563 221.211 152.902C220.933 152.926 220.651 152.964 220.383 153.04C204.579 157.528 197.531 154.831 180.704 149.633C179.176 149.161 178.287 147.576 178.954 146.122C181.722 140.085 188.671 131.235 191.885 133.03C198.137 136.522 204.439 139.159 215.452 139.036C217.079 139.018 218.407 137.608 219.092 136.132C220.158 133.835 222.182 131.424 223.513 129.754C225.412 127.371 228.01 128.821 226.788 131.009C225.565 133.197 225.534 137.553 227.862 136.202C230.383 134.74 233.693 130.848 236.402 130.065C239.112 129.282 238.755 131.953 236.856 134.337C235.336 136.244 231.395 139.707 230.536 140.567C231.746 140.094 236.379 137.63 237.854 136.617C239.698 135.35 240.619 134.717 241.429 136.317C242.077 137.598 239.455 140.19 238.063 141.326ZM238.063 141.326C237.367 141.894 232.588 144.01 232.588 144.01" stroke="black" stroke-linecap="round" stroke-linejoin="round"/>
</g>
<g id="Vector 4465">
<path d="M126.642 108.963C120.316 92.4952 117.153 85.6489 120.597 69.5224C120.644 69.301 120.668 69.0724 120.666 68.8461C120.621 64.0677 120.758 54.6163 121.667 52.4699C122.597 50.2717 124.62 48.4501 125.515 47.8141C126.593 43.7348 129.772 43.2655 129.425 46.2288C129.079 49.1921 131.086 59.76 133.534 60.4068C135.982 61.0536 135.789 60.13 138.416 56.8964C141.042 53.6627 143.094 57.2597 141.284 62.455C140.169 65.656 137.842 68.196 136.116 69.652C135.321 70.3226 134.785 71.292 134.825 72.3312C135.273 84.1226 138.408 90.4656 142.457 96.6932C144.464 99.779 136.1 107.306 130.262 110.474C128.856 111.236 127.215 110.456 126.642 108.963Z" fill="#F4E079"/>
<path d="M125.515 47.8141C126.593 43.7348 129.772 43.2655 129.425 46.2288C129.079 49.1921 131.086 59.76 133.534 60.4068C135.982 61.0536 135.789 60.13 138.416 56.8964C141.042 53.6627 143.094 57.2597 141.284 62.455C140.169 65.656 137.842 68.196 136.116 69.652C135.321 70.3225 134.785 71.292 134.825 72.3312C135.273 84.1226 138.408 90.4656 142.457 96.6932C144.464 99.779 136.1 107.306 130.262 110.474C128.856 111.236 127.215 110.456 126.642 108.963C120.316 92.4952 117.153 85.6489 120.597 69.5224C120.644 69.301 120.668 69.0724 120.666 68.8461C120.621 64.0677 120.758 54.6163 121.667 52.4699C122.597 50.2717 124.62 48.4501 125.515 47.8141ZM125.515 47.8141C124.653 51.0775 123.931 55.8325 123.678 57.802L125.515 47.8141Z" stroke="black" stroke-linecap="round" stroke-linejoin="round"/>
</g>
<path id="Vector 4459" d="M201.767 89.8571L183.046 166.602C182.999 166.796 182.975 166.995 182.975 167.195L182.975 202.818C182.975 205.823 179.438 207.431 177.174 205.455L132.684 166.628C132.296 166.289 131.812 166.079 131.3 166.025L96.458 162.391C94.6753 162.205 93.3212 160.702 93.3212 158.909L93.3212 127.585C93.3212 126.132 94.2197 124.829 95.5787 124.313L197.125 85.7556C199.759 84.7553 202.435 87.1194 201.767 89.8571Z" fill="#907900" stroke="black"/>
<path id="Vector 4470" d="M202.149 86.5441L203.133 86.6351L204.728 112.414C204.749 112.752 204.721 113.091 204.644 113.422L182.963 206.755L181.976 206.642L181.976 167.205C181.976 166.918 182.011 166.631 182.081 166.352L202.149 86.5441Z" fill="#FFE86F" stroke="black"/>
<path id="Vector 4461" d="M200.564 89.8755L181.865 162.985C181.324 165.1 178.778 165.947 177.078 164.579L144.483 138.343C144.086 138.023 143.614 137.81 143.112 137.724L99.8647 130.269C96.8729 129.753 96.4523 125.629 99.2783 124.52L196.561 86.3395C198.838 85.4459 201.17 87.5059 200.564 89.8755Z" fill="#EBF479"/>
<g id="Vector 4460">
<path d="M87.0718 167.933C94.0835 166.964 101.139 146.973 104.834 140.909C105.145 140.398 105.641 140.031 106.211 139.848C123.26 134.36 133.106 154.208 131.501 158.123C130.195 161.309 114.165 175.301 108.051 181.707C96.7682 191.122 79.0047 191.629 62.6413 213.049C46.2779 234.468 42.8326 214.739 45.856 208.019C48.8794 201.299 49.9945 199.393 50.5987 192.967C51.0684 187.971 58.2761 186.458 60.3378 188.398C67.4075 179.504 82.2868 168.594 87.0718 167.933Z" fill="#F4E079"/>
<path d="M60.3378 188.398C67.4075 179.504 82.2868 168.594 87.0718 167.933C94.0835 166.964 101.139 146.973 104.834 140.909C105.145 140.398 105.641 140.031 106.211 139.848C123.26 134.36 133.106 154.208 131.501 158.123C130.195 161.309 114.165 175.301 108.051 181.707C96.7682 191.122 79.0047 191.629 62.6413 213.049C46.2779 234.468 42.8326 214.739 45.856 208.019C48.8794 201.299 49.9945 199.393 50.5987 192.967C51.0684 187.971 58.2761 186.458 60.3378 188.398ZM60.3378 188.398C61.3687 189.367 62.6818 190.862 62.6818 190.862" stroke="black"/>
</g>
<g id="Vector 4467">
<path d="M122.497 193.523C126.49 187.682 132.228 168.633 135.293 162.327C135.555 161.789 136.004 161.365 136.548 161.115C152.776 153.663 162.98 171.726 161.843 175.802C160.917 179.119 146.445 198.195 141.119 205.271C131.922 217.491 129.195 225.334 115.442 248.516C101.689 271.698 95.8727 254.462 98.0917 247.436C100.311 240.409 99.0285 235.712 101.574 229.979C103.61 225.393 107.723 225.081 109.526 225.498C114.616 214.032 118.315 199.641 122.497 193.523Z" fill="#F4E079"/>
<path d="M109.526 225.498C114.616 214.032 118.315 199.641 122.497 193.523C126.49 187.682 132.228 168.633 135.293 162.327C135.555 161.789 136.004 161.365 136.548 161.115C152.776 153.663 162.98 171.726 161.843 175.802C160.917 179.119 146.445 198.195 141.119 205.271C131.922 217.491 129.195 225.334 115.442 248.516C101.689 271.698 95.8727 254.462 98.0917 247.436C100.311 240.409 99.0285 235.712 101.574 229.979C103.61 225.393 107.723 225.081 109.526 225.498ZM109.526 225.498C109.946 225.529 111.099 225.954 112.345 227.402" stroke="black"/>
</g>
<path id="Vector 4468" d="M135.148 163.355L130.816 175.16C130.816 175.16 138.007 165.863 147.061 169.457C154.795 172.527 155.067 182.427 151.836 190.268L160.242 178.316C161.261 176.866 161.819 175.103 161.355 173.393C160.422 169.949 157.922 165.078 152.433 161.817C146.15 158.083 140.059 159.784 136.823 161.396C136.025 161.794 135.455 162.519 135.148 163.355Z" fill="black" fill-opacity="0.56"/>
<path id="Vector 4469" d="M104.498 141.649L98.9224 153.709C102.76 148.251 109.023 143.521 116.905 148.085C125.538 153.084 119.754 167.408 118.286 171.404L129.696 160.233C130.786 159.166 131.553 157.753 131.3 156.248C130.744 152.93 128.4 148.032 123.168 143.355C117.809 138.565 110.558 138.82 106.742 139.707C105.724 139.944 104.937 140.7 104.498 141.649Z" fill="black" fill-opacity="0.56"/>
</g>
</g>
</svg>
