<svg fill="none" height="788" viewBox="0 0 788 788" width="788" xmlns="http://www.w3.org/2000/svg" xmlns:xlink="http://www.w3.org/1999/xlink"><radialGradient id="a" cx="0" cy="0" gradientTransform="matrix(0 829.934 -584.19 0 394.465 114.949)" gradientUnits="userSpaceOnUse" r="1"><stop offset=".03125" stop-color="#3a3a3a"/><stop offset="1" stop-color="#1c1c1c"/></radialGradient><linearGradient id="b" gradientUnits="userSpaceOnUse" x1="393.62" x2="393.62" y1="-7.42697" y2="794.679"><stop offset="0" stop-color="#fff"/><stop offset="1" stop-color="#111"/></linearGradient><path d="m393.612 7.11909h.015c213.458 0 386.499 173.04191 386.499 386.49891v.015c0 213.458-173.041 386.5-386.499 386.5h-.015c-213.458 0-386.49926-173.042-386.49926-386.5v-.015c0-213.457 173.04126-386.49891 386.49926-386.49891z" fill="#111" stroke="#111" stroke-width="14.2382"/><path d="m393.627 0h-.015c-217.389 0-393.61834766 176.229-393.61834766 393.618v.015c0 217.39 176.22934766 393.619 393.61834766 393.619h.015c217.389 0 393.618-176.229 393.618-393.619v-.015c0-217.389-176.229-393.618-393.618-393.618z" fill="url(#a)" fill-opacity=".7"/><path d="m393.612 7.2092h.015c213.408 0 386.409 173.0018 386.409 386.4088v.015c0 213.408-173.001 386.409-386.409 386.409h-.015c-213.408 0-386.40915-173.001-386.40915-386.409v-.015c0-213.407 173.00115-386.4088 386.40915-386.4088z" stroke="url(#b)" stroke-width="14.4184"/><path clip-rule="evenodd" d="m307.489 210.558h-8.388l-5.438 6.387-140.392 164.9-10.022 11.771 10.022 11.772 140.392 164.901 5.437 6.387h8.389 252.755 18.158v-18.158-104.832h-36.317v86.673h-194.887l116.642-134.864 10.274-11.879-10.274-11.878-116.642-134.864h194.887v86.673h36.317v-104.831-18.158h-18.158zm.107 46.043-116.652 137.016 116.652 137.015 118.503-137.015z" fill="#fff" fill-rule="evenodd"/></svg>