<svg width="1038" height="1038" viewBox="0 0 1038 1038" fill="none" xmlns="http://www.w3.org/2000/svg">
<path d="M1024.1 575.571L985.351 424.514C984.241 420.073 980.662 416.617 976.219 415.505L826.521 378.604C825.41 378.359 824.176 378.235 823.064 378.235C819.487 377.866 815.784 378.976 813.069 381.691L560.444 634.316L527.001 503.745C525.889 499.302 522.31 495.847 517.868 494.737L389.272 463.02L641.773 210.518C643.255 209.037 644.119 207.187 644.736 205.334C645.846 202.867 646.217 200.029 645.476 197.313L606.725 46.2571C605.613 41.8142 602.034 38.3587 597.593 37.248L447.893 0.347908C444.931 -0.392563 441.968 0.101084 439.377 1.3352H439.254C438.513 1.70544 437.896 2.1991 437.156 2.69273C436.539 3.18638 435.675 3.43321 435.181 4.05028L4.22765 434.758C4.22765 434.758 3.4872 435.992 2.99357 436.609C0.278502 439.819 -0.708801 444.014 0.525317 448.087L42.362 594.083C43.596 598.279 46.8048 601.487 50.8774 602.599L191.073 642.829L231.306 782.904C232.54 787.099 235.748 790.307 239.82 791.419L380.511 831.773L420.865 972.464C422.101 976.66 425.309 979.868 429.381 980.98L575.994 1023.06C577.106 1023.43 578.34 1023.56 579.449 1023.56C579.697 1023.56 579.945 1023.43 580.314 1023.43C580.314 1023.43 580.438 1023.43 580.561 1023.43C583.769 1023.43 586.979 1022.2 589.446 1019.73L1020.52 588.652C1022 587.171 1022.87 585.32 1023.49 583.47C1024.6 581.001 1024.97 578.162 1024.23 575.447L1024.1 575.571ZM830.839 743.04L799.37 620.247L869.097 550.641L988.93 585.073L830.963 743.164L830.839 743.04ZM586.362 987.519L554.891 864.726L681.018 738.599L800.851 773.031L586.362 987.519ZM683.609 700.71L653.497 595.81L761.73 622.467L683.609 700.588V700.71ZM778.883 640.731L806.528 748.472L701.257 718.234L778.883 640.61V640.731ZM782.462 601.858L659.791 571.623L817.389 414.024L851.449 532.871L782.462 601.858ZM629.309 601.98L663.37 720.827L537.86 846.337L415.19 816.102L629.309 601.98ZM963.014 437.721L994.484 560.514L875.515 526.33L841.453 407.73L963.014 437.721ZM396.678 797.835L365.206 675.041L410.623 629.625L530.456 664.057L396.678 797.835ZM413.214 591.738L383.102 486.838L491.333 513.495L413.214 591.614V591.738ZM536.133 639.622L430.862 609.386L508.488 531.759L536.133 639.498V639.622ZM393.099 611.977L348.299 656.777L225.629 626.541L359.036 493.132L393.099 611.977ZM251.915 222.366L285.977 341.213L159.356 467.833L36.6849 437.597L251.915 222.366ZM438.884 35.3968L472.947 154.243L405.069 222.12L282.398 191.883L438.884 35.3968ZM453.446 363.302L421.977 240.63L490.593 172.014L610.426 206.322L453.446 363.302ZM306.216 321.095L276.104 216.195L384.335 242.852L306.216 320.972V321.095ZM401.49 261.117L429.135 368.855L323.988 338.62L401.614 260.993L401.49 261.117ZM303.749 358.859L423.582 393.168L207.981 608.769L176.51 486.097L303.749 358.859ZM584.51 59.3389L615.979 182.134L497.01 147.949L462.95 29.3496L584.51 59.3389ZM30.5144 461.908L138.747 488.565L60.6268 566.686L30.5144 461.784V461.908ZM78.2748 584.456L155.901 506.829L183.545 614.57L78.3981 584.334L78.2748 584.456ZM253.396 769.451L219.335 650.852L340.895 680.842L372.365 803.636L253.396 769.451ZM409.018 840.413L517.251 867.069L439.132 945.189L409.018 840.289V840.413ZM456.778 962.961L534.404 885.334L562.049 993.073L456.778 962.837V962.961Z" fill="url(#paint0_linear_9939_345)"/>
<defs>
<linearGradient id="paint0_linear_9939_345" x1="70.9934" y1="672.448" x2="958.202" y2="349.481" gradientUnits="userSpaceOnUse">
<stop stop-color="#29BCFA"/>
<stop offset="0.43" stop-color="#6464E4"/>
<stop offset="1" stop-color="#B45AFA"/>
</linearGradient>
</defs>
</svg>
