<svg width="104" height="104" viewBox="0 0 104 104" fill="none" xmlns="http://www.w3.org/2000/svg">
<rect width="104" height="104" fill="#2F3E24"/>
<path fill-rule="evenodd" clip-rule="evenodd" d="M30.3334 26C29.1367 26 28.1667 26.9701 28.1667 28.1667V75.8333C28.1667 77.03 29.1367 78 30.3334 78H47.6667V68.1739C45.0762 66.6754 43.3333 63.8746 43.3333 60.6667C43.3333 55.8802 47.2135 52 52 52C56.7865 52 60.6667 55.8802 60.6667 60.6667C60.6667 63.8745 58.9238 66.6754 56.3334 68.1739V78H73.6667C74.8633 78 75.8334 77.0299 75.8334 75.8333V28.1667C75.8334 26.97 74.8633 26 73.6667 26H62.8334C61.6367 26 60.6667 26.9701 60.6667 28.1667V39C60.6667 40.1966 59.6966 41.1667 58.5 41.1667H45.5C44.3034 41.1667 43.3334 40.1966 43.3334 39V28.1667C43.3334 26.97 42.3633 26 41.1667 26H30.3334Z" fill="#CCE20A"/>
</svg>
