<svg width="1500" height="1500" viewBox="0 0 1500 1500" fill="none" xmlns="http://www.w3.org/2000/svg">
<path d="M903.45 239.478L744.914 329.164C687.609 361.582 682.511 442.188 735.275 481.566L897.143 602.372C930.112 626.978 926.937 677.341 891.138 697.612L745.072 780.323C687.733 812.791 682.718 893.489 735.597 932.805L889.708 1047.39C905.698 1059.28 915.123 1078.03 915.123 1097.95V1102.67C915.123 1117.17 930.786 1126.28 943.389 1119.09L1102.76 1028.27C1160.09 995.591 1164.79 914.72 1111.63 875.624L949.873 756.673C916.665 732.252 919.576 681.744 955.369 661.299L1103.05 576.943C1160.29 544.245 1164.98 463.478 1111.89 424.384L957.309 310.534C941.184 298.658 931.665 279.825 931.665 259.8V255.931C931.665 241.452 916.053 232.349 903.45 239.478Z" fill="url(#paint0_linear_145_429)"/>
<path d="M903.45 239.478L744.914 329.164C687.609 361.582 682.511 442.188 735.275 481.566L897.143 602.372C930.112 626.978 926.937 677.341 891.138 697.612L745.072 780.323C687.733 812.791 682.718 893.489 735.597 932.805L889.708 1047.39C905.698 1059.28 915.123 1078.03 915.123 1097.95V1102.67C915.123 1117.17 930.786 1126.28 943.389 1119.09L1102.76 1028.27C1160.09 995.591 1164.79 914.72 1111.63 875.624L949.873 756.673C916.665 732.252 919.576 681.744 955.369 661.299L1103.05 576.943C1160.29 544.245 1164.98 463.478 1111.89 424.384L957.309 310.534C941.184 298.658 931.665 279.825 931.665 259.8V255.931C931.665 241.452 916.053 232.349 903.45 239.478Z" fill="url(#paint1_radial_145_429)"/>
<path d="M555.816 381.878L397.28 471.564C339.975 503.982 334.877 584.587 387.641 623.966L549.509 744.772C582.478 769.377 579.303 819.74 543.504 840.011L397.438 922.722C340.099 955.191 335.084 1035.89 387.963 1075.2L542.074 1189.79C558.064 1201.68 567.489 1220.43 567.489 1240.35V1245.07C567.489 1259.57 583.152 1268.67 595.755 1261.49L755.123 1170.67C812.457 1137.99 817.157 1057.12 763.993 1018.02L602.239 899.072C569.031 874.652 571.942 824.144 607.735 803.698L755.415 719.343C812.66 686.644 817.343 605.877 764.261 566.783L609.675 452.934C593.55 441.058 584.031 422.225 584.031 402.2V398.33C584.031 383.852 568.419 374.748 555.816 381.878Z" fill="url(#paint2_linear_145_429)"/>
<path d="M555.816 381.878L397.28 471.564C339.975 503.982 334.877 584.587 387.641 623.966L549.509 744.772C582.478 769.377 579.303 819.74 543.504 840.011L397.438 922.722C340.099 955.191 335.084 1035.89 387.963 1075.2L542.074 1189.79C558.064 1201.68 567.489 1220.43 567.489 1240.35V1245.07C567.489 1259.57 583.152 1268.67 595.755 1261.49L755.123 1170.67C812.457 1137.99 817.157 1057.12 763.993 1018.02L602.239 899.072C569.031 874.652 571.942 824.144 607.735 803.698L755.415 719.343C812.66 686.644 817.343 605.877 764.261 566.783L609.675 452.934C593.55 441.058 584.031 422.225 584.031 402.2V398.33C584.031 383.852 568.419 374.748 555.816 381.878Z" fill="url(#paint3_radial_145_429)"/>
<defs>
<linearGradient id="paint0_linear_145_429" x1="750" y1="237" x2="750" y2="1264" gradientUnits="userSpaceOnUse">
<stop stop-color="#D8F0F0"/>
<stop offset="1" stop-color="#C5E4E4"/>
</linearGradient>
<radialGradient id="paint1_radial_145_429" cx="0" cy="0" r="1" gradientUnits="userSpaceOnUse" gradientTransform="translate(733.111 166.154) scale(525.916 1146.15)">
<stop stop-color="#197A7B"/>
<stop offset="0.760417" stop-color="#075A5A"/>
</radialGradient>
<linearGradient id="paint2_linear_145_429" x1="750" y1="237" x2="750" y2="1264" gradientUnits="userSpaceOnUse">
<stop stop-color="#D8F0F0"/>
<stop offset="1" stop-color="#C5E4E4"/>
</linearGradient>
<radialGradient id="paint3_radial_145_429" cx="0" cy="0" r="1" gradientUnits="userSpaceOnUse" gradientTransform="translate(733.111 166.154) scale(525.916 1146.15)">
<stop stop-color="#197A7B"/>
<stop offset="0.760417" stop-color="#075A5A"/>
</radialGradient>
</defs>
</svg>
