<svg width="8710" height="7567" viewBox="0 0 8710 7567" fill="none" xmlns="http://www.w3.org/2000/svg">
<g clip-path="url(#clip0_5_444)">
<path d="M8606.49 3678.46C8606.49 3678.46 8604.65 3679.83 8603.91 3680.29C8454.3 3781.9 8286.86 3877.56 8124.02 3955.36C8046.84 3991.98 7936.25 4069.79 7854.4 4070.24C7669.14 4071.16 8076.72 3675.26 7928.83 3579.14C7872.65 3542.53 7803.04 3645.51 7768.85 3692.19C7620.17 3895.41 7571.24 4215.79 7347.85 4285.82C7122.62 4356.3 7011.66 4494.07 6826.85 4664.33C6748.49 4736.18 6665.2 4793.85 6581.93 4849.23C6443.39 4941.69 6318.66 5099.59 6197.42 5241.02C6134.39 5314.71 6287.37 5324.32 6309.77 5314.71C6363.76 5292.74 6414.02 5247.43 6461.01 5199.83C6509.12 5150.85 6564.07 5110.58 6609.33 5055.19C6724.35 4914.68 6860.86 4838.25 6991.34 4746.71C7116.68 4658.38 7228.67 4555.4 7362.09 4492.24C7558.73 4398.87 7743.4 4269.8 7943.22 4185.12C8151.86 4097.25 8366.49 4026.76 8560.82 3884.42C8607.28 3850.55 8656.83 3802.95 8663.92 3732.47C8666.43 3706.38 8659.52 3674.8 8640.97 3667.93C8629.69 3663.82 8617.92 3670.22 8606.87 3677.55L8606.49 3678.46Z" fill="#111712"/>
<path d="M2896.55 5147.65C2809.64 5113.78 2719.43 5111.03 2633.72 5068.47C2532.77 5018.12 2487.78 4933.91 2409.89 4851.07C2171.51 4597.5 2237.2 5074.88 2388.78 5196.62C2475.61 5266.19 2579.03 5294.11 2679.88 5323.86C2817.49 5364.14 2947.92 5424.55 3051.61 5548.13C3088.7 5592.52 3104.85 5674.45 3151.61 5705.12C3196.19 5733.95 3212.46 5689.1 3211.52 5618.16C3208.21 5384.73 3066 5213.56 2896.55 5147.65Z" fill="#111712"/>
<path d="M6074.23 4157.21C5935.54 4291.31 5810.1 4418.55 5694.74 4586.06C5630.23 4631.83 5425.76 5090.44 5425.76 5090.44C5359.23 5239.64 5327.26 5401.21 5247.3 5543.09C5167.34 5684.98 5067.57 5804.43 4954.21 5900.09C4884.79 5958.68 4807.01 6013.14 4769.31 6106.51C4763.28 6121.61 4758.66 6140.38 4766.53 6154.11C4776.55 6171.05 4797.81 6165.55 4813.62 6157.77C4961.79 6083.63 5075.52 5958.68 5184.71 5816.33C5338.09 5617.24 5497.39 5412.19 5590.41 5160.46C5709.51 4838.71 5952.88 4630.91 6152.84 4388.34C6286.77 4225.86 6434.28 4087.64 6576.1 3936.14C6768.66 3730.64 6957.63 3520.1 7143.73 3304.98C7418.09 3044.1 7271.8 2996.04 7271.8 2996.04C7209.57 2887.11 7041.7 3135.18 7041.7 3135.18C7009.12 3198.8 6750.05 3464.26 6750.05 3464.26C6596.45 3621.71 6445.36 3783.73 6282.81 3926.53C6206.71 3993.81 6148.94 4084.89 6074.61 4156.29L6074.23 4157.21Z" fill="#111712"/>
<path d="M3590.4 6031.45C3624.35 6004.44 3660.38 5956.85 3648.59 5906.5C3639.58 5866.68 3605.44 5849.75 3575.16 5846.08C3521.17 5839.22 3467.98 5856.15 3415.11 5876.29C3378.03 5890.48 3341.3 5906.04 3303.9 5916.11C3080.26 5976.98 2858.31 5842.88 2653.86 5711.52C2453.76 5582.91 2253.66 5454.76 2053.2 5326.15C1921.62 5241.47 1792.3 5121.56 1711.31 4964.11C1600.36 4748.08 1696.54 4565.01 1656.62 4337.08C1613.62 4092.67 1415.25 4295.43 1401.47 4463.4C1399.3 4491.32 1398.92 4521.98 1386.57 4544.87C1359.27 4595.22 1301.48 4570.96 1262.79 4538.46C869.675 4211.21 644.191 3596.99 254.836 3261.5C223.383 3234.5 190.086 3208.87 152.867 3204.75C115.649 3200.63 74.0752 3223.52 58.8736 3270.66C43.301 3318.26 58.7011 3372.72 76.4017 3418.49C149.362 3604.32 263.348 3752.61 377.784 3894.03C638.315 4216.71 909.642 4523.36 1180.97 4829.55C1190.34 4840.08 1058.48 4866.17 1047.52 4865.71C994.576 4862.96 943.683 4841.91 890.291 4845.57C781.314 4852.9 712.82 4983.79 851.847 5028.19C953.028 5060.23 1053.47 5092.73 1158.91 5076.25C1258.85 5060.69 1348.55 5016.75 1446.13 5074.42C1507.43 5110.58 1639.08 5189.76 1691.36 5246.51C1886.76 5458.42 2119.42 5642.87 2354.37 5759.58C2557.74 5860.27 2748.88 6004.44 2956.48 6087.29C3164.46 6169.67 3401.06 6183.86 3590.02 6032.36L3590.4 6031.45Z" fill="#111712"/>
<path d="M6665.26 5582C6547.97 5523.41 6413.28 5482.68 6283.47 5490.46C6141.6 5498.7 6044.42 5586.12 5920.77 5656.6C5803.01 5723.42 5685.97 5792.08 5557.09 5812.67C5551.97 5813.59 5546.11 5814.05 5541.78 5809.93C5533.83 5802.6 5537.69 5786.58 5542.21 5775.14C5627.33 5570.55 5775.48 5410.82 5904.23 5252.92C6124.26 4982.88 6364.69 4747.17 6597.64 4496.81C6873.55 4199.31 7174.79 3921.95 7474.31 3665.65C7893.86 3306.36 8278.77 2882.08 8620.88 2403.33C8624.23 2398.3 8627.95 2393.27 8631.29 2388.69C8655.09 2355.28 8679.48 2303.56 8656.9 2268.77C8650.09 2258.25 8640.29 2252.3 8630.11 2248.63C8627.2 2247.72 8623.92 2246.8 8621.01 2245.89C8514.25 2222.09 8427.55 2347.5 8353.2 2449.56C8229.04 2620.74 8079 2756.21 7933.29 2896.73C7639.29 3180.04 7358.14 3487.15 7051.63 3747.57C6899.85 3876.64 6741.81 3980.54 6600.04 4127C6451.24 4280.78 6313.57 4451.04 6174.82 4619.47C6057.59 4761.36 5926.28 4889.97 5815.89 5040.09C5697.32 5201.66 5613.74 5400.29 5512.85 5579.71C5476.61 5643.79 5292.1 5966.46 5462.94 5949.98C5675.49 5929.38 5912.27 5870.34 6088.94 5707.86C6170.25 5633.26 6248.85 5630.05 6344.86 5637.38C6456.56 5646.07 6566.28 5696.88 6656.56 5782.47C6674.25 5799.4 6691.93 5817.71 6713.04 5824.57C6832.03 5863.93 6726.27 5612.66 6664.9 5582H6665.26Z" fill="#111712"/>
<path d="M2444.42 6013.14C2427.45 5996.67 2410.82 5982.48 2396.34 5971.49C2213.54 5833.27 1953.33 5778.81 1724.72 5738.99C1120.57 5634.18 685.711 5050.16 140.771 4767.77C-73.4328 4657.01 96.6838 5022.24 170.735 5090.9C473.81 5371.46 889.951 5668.5 1250.99 5813.13C1487.31 5907.87 1753.4 5871.72 1993.04 5964.63C2136.68 6020.01 2261.23 6140.84 2419.34 6179.29C2622.25 6228.26 2530.35 6095.99 2444.05 6013.14H2444.42Z" fill="#111712"/>
<path d="M8402.03 4429.99C8321.84 4473.47 8249.46 4505.51 8166.15 4534.8C7925.03 4619.93 7680.96 4678.06 7439.15 4759.99C7288.34 4811.25 7145.76 4905.07 7011.04 5014C6944.61 5067.55 6879.94 5125.68 6816.7 5187.01C6777.87 5224.54 6681.31 5290.91 6684.24 5378.78C6686.13 5432.33 6703.83 5477.64 6742.21 5476.73C6785.34 5475.81 6827.59 5398.46 6858.37 5362.31C7087.51 5094.1 7376 4990.2 7657.77 4897.29C7798.66 4850.61 7938.5 4800.72 8077.65 4746.71C8194.41 4701.4 8311.82 4662.5 8428.91 4619.02C8468.92 4604.37 8684.55 4541.67 8609.31 4421.75C8558.07 4340.28 8458.31 4399.78 8402.4 4429.99H8402.03Z" fill="#111712"/>
<path d="M3544.21 5514.72C3569.76 5545.84 3592.61 5588.86 3625.2 5613.12C3634.61 5619.99 3644.77 5625.48 3656.06 5628.68C3727.44 5647.91 3733.36 5582.91 3705.68 5517.01C3625.83 5327.06 3448.17 5186.55 3328.74 5035.52C3244.2 4928.42 3149.04 4823.6 3073.78 4705.52C2831.14 4324.72 2276.42 4005.71 2276.42 4005.71C1953.1 3855.13 1541.99 3358.99 1541.99 3358.99C1327.27 2995.59 1254.18 3173.17 1254.18 3173.17C1168.86 3217.57 1216.64 3341.6 1216.64 3341.6C1332.01 3731.55 1927.79 4156.75 1927.79 4156.75C2216.4 4278.04 2505.01 4458.83 2716.4 4737.1C2806.63 4856.1 2905.07 4961.37 3008.32 5062.52C3062.83 5116.07 3129.32 5204.86 3194.68 5237.82C3280.74 5281.3 3362.62 5337.13 3437.42 5404.87C3474.63 5438.74 3511.08 5475.36 3544.19 5515.63L3544.21 5514.72Z" fill="#111712"/>
<path d="M5184.43 3899.07C5182.47 4057.43 5173.88 4219 5104.93 4357.22C5078.33 4410.31 4833.41 5036.43 4906.11 5096.39C4925.64 5112.41 4955.2 5085.4 4983.95 5065.27C5053.99 5016.29 5223.24 4510.54 5254.37 4416.72C5296.11 4291.77 5300.02 4154 5319.92 4022.65C5363.66 3737.05 5578.26 3580.52 5645.57 3310.02C5740.17 2931.05 5672.32 2628.06 5596.81 2264.66C5561.98 2098.06 5583.03 1904 5614.33 1737.4C5637.43 1612.9 5688.27 1314.95 5506.23 1350.65C5422.35 1367.12 5387.62 1486.12 5375.52 1578.12C5326.23 1957.09 5385.35 2315.92 5475.13 2676.58C5533.32 3110.47 5338.84 3411.63 5338.84 3411.63C5187.3 3668.39 5184.44 3898.61 5184.43 3899.07Z" fill="#111712"/>
<path d="M3816.47 5187.47C3765.24 5076.25 3698.16 4975.56 3639.21 4867.54C3572.05 4744.42 3508.58 4618.1 3444.38 4492.23C3345.64 4263.39 3214.09 4058.34 3070.62 3871.61C3000.5 3780.53 2921.47 3700.89 2846.54 3615.3C2777.01 3535.66 2716.75 3445.04 2646.47 3366.32C2580.88 3293.08 2511.95 3223.97 2441.9 3156.69C2413.01 3129.23 2378.51 3083 2344.38 3065.61C2133.41 2959.43 2208.48 3180.95 2208.48 3180.95C2254.51 3446.87 2639.36 3791.97 2639.36 3791.97C2918.98 4048.73 3189.23 4500.47 3189.23 4500.47C3261.63 4673.02 3374.1 4824.98 3473.47 4973.27C3558.49 5100.51 3659.4 5213.1 3729.61 5355.44C3773.45 5444.69 3819 5571.93 3781.52 5676.74C3767.13 5717.47 3734.93 5750.88 3723.81 5792.99C3688.17 5926.64 3816.22 5795.28 3837.61 5750.43C3926.12 5566.89 3896.16 5361.39 3816.11 5187.01L3816.47 5187.47Z" fill="#111712"/>
<path d="M3757.14 4669.36C3693.27 4457.45 3691.41 4225.4 3634.15 4010.75C3504.29 3523.3 3183.25 3188.28 2910.41 2827.62C2808.31 2692.6 2721.09 2536.98 2616.75 2406.54C2535.43 2305.39 2439.27 2222.09 2343.05 2143.83C2193.66 2022.08 2037.18 1911.78 1877.29 1811.54C1875.84 1810.63 1874.04 1808.8 1872.58 1808.34C1809.11 1799.64 1236.84 1188.17 1236.84 1188.17C1056.24 931.402 949.141 993.191 949.141 993.191C799.251 1117.22 960.745 1206.02 960.745 1206.02C1117.07 1298.93 1235.69 1427.08 1331.4 1605.58C1435.33 1798.73 1577.92 1938.78 1728.26 2072.43C1876.07 2203.78 2047.57 2281.13 2205.9 2389.61C2456.97 2561.7 2574.34 2878.88 2797.24 3083.92C3056.98 3322.84 3316.95 3632.24 3409.21 4029.05C3469.21 4287.19 3559.01 4529.77 3672.38 4756.78C3779.35 4970.07 3921.58 5168.25 3972.18 5418.6C4002.81 5570.56 3981.57 5750.43 3887.08 5856.15C3865.97 5879.5 3839.58 5915.65 3856.77 5943.12C3862.5 5952.73 3872.31 5956.85 3881.79 5959.13C3928.41 5970.58 3977.37 5941.74 4009.71 5897.35C4042.05 5852.95 4059.94 5795.28 4072.35 5737.61C4086.32 5671.71 4093.38 5603.51 4093.86 5535.31C4094.78 5373.29 4058.06 5211.27 3987.02 5076.71C3914.2 4938.94 3804.51 4827.27 3757.15 4668.9L3757.14 4669.36Z" fill="#111712"/>
<path d="M1830.69 210.081C2011.77 398.649 2144.96 648.548 2275.26 894.786C2355.59 1046.74 2429.25 1205.1 2516.97 1350.19C2603.61 1493.45 2714.47 1599.63 2814.48 1725.49C2904.78 1839.46 2969.8 1987.75 3020.57 2136.5C3109.79 2396.01 3230.32 2634.93 3310.34 2899.93C3374.55 3113.21 3457.44 3323.29 3559.25 3510.49C3674.54 3642.3 3776.37 3797.92 3836.92 3982.83C3905.91 4194.28 3899.38 4425.87 3924.36 4649.68C3942.12 4808.96 4000.73 4884.93 4075.67 4999.81C4109.73 5051.99 4168.53 5230.95 4187.83 5295.02C4209.58 5367.34 4197.56 5423.18 4203.99 5493.66C4205.59 5512.43 4216.69 5530.74 4231.3 5530.74C4245.55 5530.74 4256.73 5513.8 4264.23 5497.78C4308.15 5403.96 4309.99 5285.41 4286.8 5181.52C4269.84 5105.08 4210.03 4919.72 4178.32 4854.73C4162.65 4822.23 4146.24 4789.73 4130.95 4756.32C4086.85 4658.83 4056.03 4551.28 4038.04 4440.52C4032.62 4406.19 4028.3 4371.86 4023.61 4337.54C4011.94 4247.37 4003.96 4154.46 3987.16 4065.67C3967.63 3961.31 3942.24 3858.33 3908.38 3760.39C3854.78 3604.32 3765.56 3492.18 3677.56 3369.52C3585.98 3241.37 3551.55 3072.02 3497.96 2915.03C3417.94 2679.78 3294.72 2451.39 3241.91 2202.41C3145.6 1749.29 2860.16 1431.66 2642.77 1076.95C2451.53 764.802 2274.01 437.095 2058.67 152.869C2003.69 79.1811 1938.12 4.11982 1857.78 0.000604272C1820.9 -1.83016 1778.26 18.7659 1767.1 64.0773C1753.24 121.289 1794.98 172.55 1830.7 209.623L1830.69 210.081Z" fill="#111712"/>
<path d="M4751.24 4885.39C4804.01 4755.86 4886.49 4646.02 4928 4510.54C4992.37 4300 4951.49 4061.55 4922.71 3848.72C4893.59 3633.6 4855.34 3418.95 4811.92 3207.95C4768.85 2998.79 4771.58 2807.93 4843.86 2607.92C4997.11 2184.1 5132.37 1737.85 5153.19 1268.26C5194.8 772.123 4981.52 851.761 4981.52 851.761C4797.62 860.457 4867.96 1462.78 4867.95 1463.24C4849.66 1729.61 4808.72 1995.53 4719.07 2240.85C4664.99 2388.69 4615.61 2539.27 4576.78 2694.42C4472.58 3110.92 4642.27 3686.7 4642.27 3686.7C4699.43 3821.26 4729.69 3973.67 4752.68 4122.88C4774.33 4262.47 4796.02 4399.32 4764.3 4540.29C4734.52 4672.56 4680.3 4802.09 4637.43 4928.87C4591.91 5063.89 4713.96 5209.43 4629 5313.33C4560.36 5397.09 4473.75 5457.04 4411.58 5549.04C4364.31 5619.07 4189.82 5958.22 4160.28 6041.97C4152.7 6063.94 4146.12 6093.69 4161.29 6107.88C4171.04 6117.03 4184.59 6114.29 4195.98 6109.25C4306.18 6063.03 4485.75 5638.29 4564.54 5531.19C4617.69 5458.88 4691.67 5415.85 4746.62 5345.37C4840.93 5224.54 4689.45 5035.51 4750.88 4885.39H4751.24Z" fill="#111712"/>
<path d="M4152.7 2477.48C4218.76 2629.89 4323.33 3183.24 4145.54 3288.05C4104.48 3181.87 4168.85 3059.21 4119.67 2958.97C4105.41 2930.14 4076.04 2912.29 4049.25 2921.9C4013.28 2934.71 3996.56 2985.97 3989.42 3031.74C3967.18 3175 4012.04 3298.58 4048.42 3429.48C4119.4 3686.24 4053.86 3932.02 4052.07 4194.28C4051.9 4207.55 4051.73 4221.28 4053.03 4234.56C4063.76 4370.49 4146.32 4519.24 4232.7 4595.67C4341.84 4692.25 4445.22 4871.2 4416.36 5046.5C4410.02 5086.32 4403.32 5126.14 4396.97 5165.96C4390.64 5204.86 4381.23 5345.37 4445.93 5313.33C4490.79 5290.91 4503.03 5217.22 4515.37 5165.5C4531.17 5099.13 4512.58 4949.01 4516.72 4879.9C4527.85 4690.42 4431.15 4592.01 4351.54 4470.27C4298.11 4388.8 4210.28 4223.57 4270.08 4116.01C4315.68 4034.09 4396.49 4058.34 4462.88 4038.21C4494.79 4028.59 4574.82 3969.09 4567.43 3916.46C4547.57 3779.61 4390.05 3870.69 4320.38 3861.08C4281.36 3855.59 4247.76 3824.92 4245.49 3772.29C4244.36 3745.74 4250.53 3719.2 4257.06 3693.56C4306.65 3496.3 4390.85 3307.27 4417.15 3102.23C4451.96 2829.44 4402.75 2555.75 4287.96 2324.61C4199.56 2146.11 4065.64 2014.76 3966.51 1847.24C3847.34 1645.4 3793.2 1444.47 3726.66 1212.88C3691.64 1090.22 3651.64 1045.37 3558.67 1029.35C3281.2 981.747 3667.25 1729.61 3717.73 1813.83C3853.05 2038.56 4043.3 2224.38 4153.05 2477.94L4152.7 2477.48Z" fill="#111712"/>
<path d="M5545.76 4489.49C5647.69 4373.69 5750.7 4258.35 5843.27 4130.66C5903.86 4047.36 5948.59 3947.12 6014.59 3869.77C6090.24 3780.52 6191.75 3756.72 6277.76 3686.24C6369.3 3611.64 6401.11 3492.64 6442.07 3372.26C6498.57 3207.04 6600.37 3130.15 6698.34 3008.4C6745.48 2949.82 6671.37 2944.32 6635.88 2947.98C6631.13 2948.44 6627.1 2948.9 6624.17 2949.82C6564.07 2963.55 6507.59 3010.23 6465.26 3064.24C6385.81 3165.85 6294.59 3625.82 6147.52 3581.89C6141.12 3361.28 6174.02 3125.57 6276.08 2939.75C6374.77 2760.33 6530.09 2639.96 6633.49 2464.21C6663.36 2413.4 6689.35 2350.24 6675.85 2290.28C6654.01 2195.54 6543.86 2179.06 6476.69 2233.07C6409.52 2287.08 6372.17 2381.82 6328.02 2465.12C6232.61 2644.54 6091.96 2789.62 6030.27 2990.55C5960.96 3216.65 5976.69 3450.07 5873.18 3664.73C5770.41 3878.01 5617.08 4043.7 5496.61 4240.05C5350.04 4479.42 5237.8 4749 5115.11 5007.14C5034.44 5177.4 4962.44 5354.98 4866.93 5513.34C4818.8 5593.44 4764.89 5668.5 4702.71 5732.12C4644.61 5791.16 4581.49 5842.88 4547.88 5930.3C4544.86 5938.54 4541.82 5947.23 4543.17 5956.39C4545.51 5973.78 4561.49 5981.56 4575.35 5983.85C4739.08 6010.39 4860.96 5817.25 4940.7 5663.92C5142.11 5275.34 5265.22 4807.12 5546.14 4489.03L5545.76 4489.49Z" fill="#111712"/>
</g>
<defs>
<clipPath id="clip0_5_444">
<rect width="8615.89" height="7567.13" fill="white" transform="matrix(1 0 -0.0124288 0.999923 94.0508 0)"/>
</clipPath>
</defs>
</svg>
