<svg width="26" height="26" viewBox="0 0 26 26" fill="none" xmlns="http://www.w3.org/2000/svg">
<circle cx="13" cy="13" r="12.5" fill="white" stroke="#FF596E"/>
<path d="M9.39551 11.1628L13.1153 9.47796V4.875L9.39551 11.1628Z" fill="#FF596E"/>
<path d="M13.1152 9.47787V13.1465L16.8351 11.1627L13.1152 9.47787Z" fill="#FF596E"/>
<path d="M13.1157 9.47787V13.1465L9.39648 11.1627L13.1157 9.47787Z" fill="#800010"/>
<path d="M16.8351 11.1628L13.1152 9.47796V4.875L16.8351 11.1628Z" fill="#800010"/>
<path d="M13.1146 14.5626V18.4721L9.32324 12.5403L13.1146 14.5626Z" fill="#FF596E"/>
<path d="M13.1152 14.5626V18.4721L16.9072 12.5403L13.1152 14.5626Z" fill="#800010"/>
<path d="M17.5322 13.4356L18.3917 15.7889L20.2728 12.7212L17.5322 13.4356Z" fill="#800010"/>
<path d="M18.3916 15.7889L20.2727 15.2449V12.7212L18.3916 15.7889Z" fill="#FF596E"/>
<path d="M20.2731 15.245L17.5325 19.713L15.4512 20.5833L18.392 15.789L20.2731 15.245Z" fill="#800010"/>
<path d="M5.95801 15.245L8.69855 19.713L10.7799 20.5833L7.83905 15.789L5.95801 15.245Z" fill="#FF596E"/>
<path d="M13.1149 20.5833L8.69837 13.4357L7.83887 15.7889L10.7797 20.5833H13.1149Z" fill="#800010"/>
<path d="M8.69855 13.4356L7.83905 15.7889L5.95801 12.7212L8.69855 13.4356Z" fill="#FF596E"/>
<path d="M7.83905 15.7889L5.95801 15.2449V12.7212L7.83905 15.7889Z" fill="#800010"/>
<path d="M13.1152 20.5833L17.5324 13.4357L18.3919 15.7889L15.4511 20.5833H13.1152Z" fill="#FF596E"/>
</svg>
