<svg width="26" height="26" viewBox="0 0 26 26" fill="none" xmlns="http://www.w3.org/2000/svg">
<mask id="mask0_540_5961" style="mask-type:luminance" maskUnits="userSpaceOnUse" x="0" y="0" width="26" height="26">
<path d="M26 0H0V26H26V0Z" fill="white"/>
</mask>
<g mask="url(#mask0_540_5961)">
<path d="M13 26C20.1797 26 26 20.1797 26 13C26 5.82032 20.1797 0 13 0C5.82032 0 0 5.82032 0 13C0 20.1797 5.82032 26 13 26Z" fill="url(#paint0_radial_540_5961)"/>
<mask id="mask1_540_5961" style="mask-type:alpha" maskUnits="userSpaceOnUse" x="0" y="0" width="26" height="26">
<path d="M13 26C20.1797 26 26 20.1797 26 13C26 5.82032 20.1797 0 13 0C5.82032 0 0 5.82032 0 13C0 20.1797 5.82032 26 13 26Z" fill="url(#paint1_radial_540_5961)"/>
</mask>
<g mask="url(#mask1_540_5961)">
<path opacity="0.2" d="M-0.433594 7.15038C-0.433594 6.86321 -0.200782 6.63038 0.0864062 6.63038H7.19307C7.48024 6.63038 7.71307 6.86321 7.71307 7.15038V19.2404C7.71307 19.5275 7.48024 19.7604 7.19307 19.7604H0.0864062C-0.200782 19.7604 -0.433594 19.5275 -0.433594 19.2404V7.15038Z" fill="url(#paint2_linear_540_5961)"/>
<path opacity="0.2" d="M15.6865 17.6371C15.6865 17.3499 15.9194 17.1171 16.2065 17.1171H25.4799C25.767 17.1171 25.9999 17.3499 25.9999 17.6371V22.1437C25.9999 22.4309 25.767 22.6637 25.4799 22.6637H16.2065C15.9194 22.6637 15.6865 22.4309 15.6865 22.1437V17.6371Z" fill="#E74310"/>
<path opacity="0.2" d="M21.7099 19.0235C21.9971 19.0235 22.2299 19.2564 22.2299 19.5435V28.2969C22.2299 28.584 21.9971 28.8169 21.7099 28.8169H18.2866C17.9994 28.8169 17.7666 28.584 17.7666 28.2969V19.5435C17.7666 19.2564 17.9994 19.0235 18.2866 19.0235H21.7099Z" fill="#DF3600"/>
<path opacity="0.1" d="M10.529 8.45015C10.8162 8.45015 11.049 8.68298 11.049 8.97015V15.9468C11.049 16.234 10.8162 16.4668 10.529 16.4668H6.67234C6.38517 16.4668 6.15234 16.234 6.15234 15.9468V8.97015C6.15234 8.68298 6.38517 8.45015 6.67234 8.45015H10.529Z" fill="url(#paint3_linear_540_5961)"/>
<path opacity="0.1" d="M2.46973 10.5302C2.46973 10.2431 2.70254 10.0102 2.98973 10.0102H9.31639C9.60356 10.0102 9.83639 10.2431 9.83639 10.5302V17.1602C9.83639 17.4474 9.60356 17.6802 9.31639 17.6802H2.98973C2.70254 17.6802 2.46973 17.4474 2.46973 17.1602V10.5302Z" fill="url(#paint4_linear_540_5961)"/>
<path opacity="0.2" d="M25.9989 3.5538C26.2861 3.5538 26.5189 3.78662 26.5189 4.0738V12.8271C26.5189 13.1143 26.2861 13.3471 25.9989 13.3471H17.9389C17.6518 13.3471 17.4189 13.1143 17.4189 12.8271V4.0738C17.4189 3.78662 17.6518 3.5538 17.9389 3.5538H25.9989Z" fill="#FF9776"/>
<path opacity="0.2" d="M21.1028 -2.25307C21.39 -2.25307 21.6228 -2.02025 21.6228 -1.73307V7.88694C21.6228 8.1741 21.39 8.40693 21.1028 8.40693H16.5962C16.309 8.40693 16.0762 8.1741 16.0762 7.88694V-1.73307C16.0762 -2.02025 16.309 -2.25307 16.5962 -2.25307H21.1028Z" fill="#FFCA8C"/>
<path opacity="0.2" d="M23.4432 -0.519653C23.7304 -0.519653 23.9632 -0.286841 23.9632 0.000347197V10.7037C23.9632 10.9909 23.7304 11.2237 23.4432 11.2237H13.6499C13.3627 11.2237 13.1299 10.9909 13.1299 10.7037V0.000347078C13.1299 -0.286841 13.3627 -0.519653 13.6499 -0.519653H23.4432Z" fill="url(#paint5_linear_540_5961)"/>
<path opacity="0.1" d="M9.1865 -3.55303C9.47367 -3.55303 9.7065 -3.32022 9.7065 -3.03303V4.1603C9.7065 4.44747 9.47367 4.6803 9.1865 4.6803H5.76316C5.47599 4.6803 5.24316 4.44747 5.24316 4.1603V-3.03303C5.24316 -3.32022 5.47599 -3.55303 5.76316 -3.55303H9.1865Z" fill="#DF3600"/>
<path opacity="0.1" d="M9.57668 18.7635C9.86385 18.7635 10.0967 18.9963 10.0967 19.2835V25.4802C10.0967 25.7673 9.86385 26.0002 9.57668 26.0002H0.86668C0.579492 26.0002 0.34668 25.7673 0.34668 25.4802L0.34668 19.2835C0.34668 18.9963 0.579492 18.7635 0.86668 18.7635H9.57668Z" fill="#DF3600"/>
<path opacity="0.1" d="M17.2464 15.297C17.5336 15.297 17.7664 15.5298 17.7664 15.817V25.4803C17.7664 25.7675 17.5336 26.0003 17.2464 26.0003H7.27977C6.9926 26.0003 6.75977 25.7675 6.75977 25.4803V15.817C6.75977 15.5298 6.9926 15.297 7.27977 15.297H17.2464Z" fill="#FFD494"/>
<path opacity="0.2" d="M13.9532 0.000185467C14.2404 0.00018548 14.4732 0.232997 14.4732 0.520185V3.03352C14.4732 3.32071 14.2404 3.55352 13.9532 3.55352H3.5532C3.26602 3.55352 3.0332 3.32071 3.0332 3.03352V0.520185C3.0332 0.232997 3.26602 0.000185 3.5532 0.000185013L13.9532 0.000185467Z" fill="#FFD494"/>
<path opacity="0.1" d="M5.75218 25.7471L25.2266 6.27271L24.5587 5.6048L5.08428 25.0792L5.75218 25.7471Z" fill="#DF3600"/>
<path opacity="0.1" d="M4.29124 24.3296L23.7656 4.85521L22.896 3.98562L3.42166 23.46L4.29124 24.3296Z" fill="#DF3600"/>
<path opacity="0.1" d="M3.46898 23.4209L22.9434 3.94656L22.0738 3.07697L2.59939 22.5514L3.46898 23.4209Z" fill="#F45C2C"/>
<path opacity="0.2" d="M2.6887 22.4678L22.1631 2.99337L21.4474 2.27768L1.97302 21.7521L2.6887 22.4678Z" fill="#F45C2C"/>
<path opacity="0.1" d="M1.97191 21.7503L21.4463 2.27589L20.7306 1.5602L1.25622 21.0346L1.97191 21.7503Z" fill="#FFBC6E"/>
<path opacity="0.1" d="M1.49534 20.7971L20.9697 1.3227L20.254 0.607016L0.779656 20.0814L1.49534 20.7971Z" fill="#DF3600"/>
<path opacity="0.09" d="M-0.801044 15.077L14.5547 -0.278778L13.839 -0.994467L-1.51673 14.3613L-0.801044 15.077Z" fill="#FFD5A4"/>
<path opacity="0.08" d="M-1.62526 14.2082L13.7305 -1.1475L13.0148 -1.86319L-2.34095 13.4925L-1.62526 14.2082Z" fill="#FFD5A4"/>
<path opacity="0.05" d="M-2.36159 13.2119L12.9941 -2.14385L12.2785 -2.85954L-3.07728 12.4962L-2.36159 13.2119Z" fill="#FFD5A4"/>
<path opacity="0.2" d="M0.412303 17.1639L18.2471 -0.67083L17.5314 -1.38652L-0.303385 16.4482L0.412303 17.1639Z" fill="#FFD5A4"/>
<path opacity="0.2" d="M0.888866 18.2909L18.7236 0.456146L18.0079 -0.259542L0.173177 17.5752L0.888866 18.2909Z" fill="#FFD5A4"/>
<path opacity="0.1" d="M0.108576 15.8571L15.9375 0.0281487L15.2218 -0.68754L-0.607112 15.1414L0.108576 15.8571Z" fill="#FFD5A4"/>
<path opacity="0.1" d="M5.72289 25.7616L25.1973 6.28724L23.7694 4.8594L4.29505 24.3338L5.72289 25.7616Z" fill="#DF3600"/>
<path opacity="0.1" d="M5.72289 25.7616L25.1973 6.28724L23.7622 4.85213L4.28778 24.3265L5.72289 25.7616Z" fill="#DF3600"/>
</g>
<path d="M12.9812 15.8052L8.03516 12.8793L12.9812 4.67441L17.9228 12.8793L12.9812 15.8052Z" fill="white"/>
<path d="M12.9812 20.7867L8.03516 13.8205L12.9812 16.742L17.9272 13.8205L12.9812 20.7867Z" fill="white"/>
</g>
<defs>
<radialGradient id="paint0_radial_540_5961" cx="0" cy="0" r="1" gradientUnits="userSpaceOnUse" gradientTransform="translate(8.49333 6.21833) rotate(54.1675) scale(21.5402)">
<stop stop-color="#FFD794"/>
<stop offset="1" stop-color="#ED5A37"/>
</radialGradient>
<radialGradient id="paint1_radial_540_5961" cx="0" cy="0" r="1" gradientUnits="userSpaceOnUse" gradientTransform="translate(8.49333 6.21833) rotate(54.1675) scale(21.5402)">
<stop stop-color="#FFD794"/>
<stop offset="1" stop-color="#ED5A37"/>
</radialGradient>
<linearGradient id="paint2_linear_540_5961" x1="3.63974" y1="6.63038" x2="3.63974" y2="19.7604" gradientUnits="userSpaceOnUse">
<stop stop-color="#FFE090"/>
<stop offset="1" stop-color="#FFE090" stop-opacity="0"/>
</linearGradient>
<linearGradient id="paint3_linear_540_5961" x1="8.57901" y1="8.45015" x2="8.57901" y2="15.8602" gradientUnits="userSpaceOnUse">
<stop stop-color="#DF3600"/>
<stop offset="1" stop-color="#DF3600" stop-opacity="0"/>
</linearGradient>
<linearGradient id="paint4_linear_540_5961" x1="2.46973" y1="13.8792" x2="9.27891" y2="13.8792" gradientUnits="userSpaceOnUse">
<stop stop-color="#DF3600"/>
<stop offset="1" stop-color="#DF3600" stop-opacity="0"/>
</linearGradient>
<linearGradient id="paint5_linear_540_5961" x1="18.5465" y1="-0.519653" x2="18.5465" y2="11.2237" gradientUnits="userSpaceOnUse">
<stop stop-color="#DF3600"/>
<stop offset="1" stop-color="#DF3600" stop-opacity="0"/>
</linearGradient>
</defs>
</svg>
