<svg width="31" height="31" viewBox="0 0 31 31" fill="none" xmlns="http://www.w3.org/2000/svg">
<circle cx="15.2859" cy="15.2857" r="14.8571" fill="white"/>
<path d="M15.6211 8.00798V15.7305L22.551 11.8692L15.6211 8.00798Z" fill="#CCEDFF"/>
<path d="M23.8503 13.1563L15.6211 17.8756V28.2834L23.8503 13.1563Z" fill="#CCEDFF"/>
<path d="M15.5869 8.00798V15.7305L8.65704 11.8692L15.5869 8.00798Z" fill="#66C8FF"/>
<path d="M7.35768 13.1563L15.5869 17.8756V28.2834L7.35768 13.1563Z" fill="#66C8FF"/>
<path d="M15.6211 1.57143V8.00686L22.551 11.8681L15.6211 1.57143Z" fill="#66C8FF"/>
<path d="M23.8503 24.3099C26.9688 20.1913 25.1497 15.1573 23.8503 13.1552L15.6211 28.2823C18.6475 28.3617 21.7513 27.0823 23.8503 24.3099Z" fill="#66C8FF"/>
<path d="M8.69121 11.8681L15.6211 1.57143V8.00686L8.69121 11.8681Z" fill="#00A3FF"/>
<path d="M7.82498 13.1552C6.09251 16.5874 4.79315 20.8777 8.69121 25.168C10.4902 27.148 13.0273 28.2143 15.6211 28.2823L7.82498 13.1552Z" fill="#00A3FF"/>
</svg>
