<svg width="15" height="19" viewBox="0 0 15 19" fill="none" xmlns="http://www.w3.org/2000/svg">
<path fill-rule="evenodd" clip-rule="evenodd" d="M7.22671 1.67515L10.1079 0.0450455C10.337 -0.0845382 10.6207 0.0809265 10.6207 0.344083V0.414408C10.6207 0.778382 10.7937 1.12068 11.0867 1.33654L13.8962 3.40583C14.8609 4.11639 14.7758 5.5844 13.7354 6.17869L11.0515 7.71196C10.401 8.08356 10.3481 9.00158 10.9516 9.44542L13.8913 11.6075C14.8575 12.318 14.7721 13.7879 13.7301 14.3818L10.8338 16.0327C10.6047 16.1632 10.3201 15.9978 10.3201 15.7341V15.6484C10.3201 15.2863 10.1488 14.9455 9.85817 14.7294L7.0574 12.6468C6.09636 11.9322 6.1875 10.4654 7.2296 9.87526L9.88416 8.37195C10.5348 8.00353 10.5925 7.08812 9.99331 6.64092L7.05153 4.44517C6.09258 3.72943 6.18526 2.26437 7.22671 1.67515ZM0.90848 4.26357L3.7897 2.63346C4.01874 2.50387 4.30246 2.66934 4.30246 2.9325V3.00282C4.30246 3.3668 4.47547 3.7091 4.76853 3.92495L7.57797 5.99424C8.54266 6.70482 8.45754 8.1728 7.41721 8.76714L4.73327 10.3004C4.08276 10.672 4.02987 11.59 4.63339 12.0338L7.57307 14.1959C8.5393 14.9064 8.45385 16.3763 7.41189 16.9703L4.51554 18.6211C4.2865 18.7516 4.00183 18.5862 4.00183 18.3226V18.2368C4.00183 17.8747 3.83055 17.5339 3.53995 17.3178L0.739147 15.2352C-0.221869 14.5206 -0.130739 13.0538 0.91134 12.4637L3.56594 10.9604C4.21654 10.5919 4.27424 9.67652 3.67506 9.22932L0.733285 7.03359C-0.225635 6.31787 -0.132976 4.85278 0.90848 4.26357Z" fill="url(#paint0_linear_522_1880)"/>
<defs>
<linearGradient id="paint0_linear_522_1880" x1="13.1238" y1="2.13048" x2="4.12676" y2="18.1436" gradientUnits="userSpaceOnUse">
<stop stop-color="white"/>
<stop offset="1" stop-color="#A4A4A4"/>
</linearGradient>
</defs>
</svg>
