<svg width="34" height="34" viewBox="0 0 34 34" fill="none" xmlns="http://www.w3.org/2000/svg">
<circle cx="17" cy="17" r="17" fill="#026EF4"/>
<circle opacity="0.5" cx="17" cy="17" r="14.5" stroke="white"/>
<path d="M17.293 10.632V17.3892L23.3566 14.0106L17.293 10.632Z" fill="#CCEDFF"/>
<path d="M24.4935 15.1368L17.293 19.2662V28.373L24.4935 15.1368Z" fill="#CCEDFF"/>
<path d="M17.2627 10.632V17.3892L11.1991 14.0106L17.2627 10.632Z" fill="#66C8FF"/>
<path d="M10.0621 15.1368L17.2627 19.2662V28.373L10.0621 15.1368Z" fill="#66C8FF"/>
<path d="M17.293 5V10.631L23.3566 14.0096L17.293 5Z" fill="#66C8FF"/>
<path d="M24.4935 24.8962C27.2222 21.2924 25.6305 16.8877 24.4935 15.1358L17.293 28.372C19.9411 28.4415 22.6569 27.322 24.4935 24.8962Z" fill="#66C8FF"/>
<path d="M11.2292 14.0096L17.2928 5V10.631L11.2292 14.0096Z" fill="#00A3FF"/>
<path d="M10.4712 15.1358C8.95533 18.139 7.8184 21.893 11.2292 25.647C12.8033 27.3795 15.0232 28.3125 17.2928 28.372L10.4712 15.1358Z" fill="#00A3FF"/>
</svg>
