<svg width="35" height="35" viewBox="0 0 35 35" fill="none" xmlns="http://www.w3.org/2000/svg">
<path d="M34.8718 17.4872C34.8718 7.85759 27.0655 0.0512695 17.4359 0.0512695C7.80632 0.0512695 0 7.85759 0 17.4872C0 27.1167 7.80632 34.9231 17.4359 34.9231C27.0655 34.9231 34.8718 27.1167 34.8718 17.4872Z" fill="#6BF9D8"/>
<path fill-rule="evenodd" clip-rule="evenodd" d="M7.577 9.22657L9.27623 7.52734L16.0667 14.3179C15.6547 14.4935 15.2686 14.7493 14.9324 15.0855C14.6721 15.3459 14.4598 15.6362 14.2958 15.9453L7.577 9.22657ZM14.1678 19.0561L7.47656 25.7474L9.17578 27.4466L15.799 20.8234C15.4873 20.6589 15.1947 20.4454 14.9324 20.1832C14.5982 19.849 14.3433 19.4655 14.1678 19.0561ZM19.1703 20.8199L25.702 27.3516L27.4012 25.6523L20.7977 19.0488C20.6222 19.461 20.3662 19.8471 20.03 20.1832C19.7697 20.4436 19.4793 20.6558 19.1703 20.8199ZM20.6702 15.9521L27.3008 9.32157L25.6015 7.62236L18.903 14.321C19.3123 14.4965 19.6959 14.7513 20.03 15.0855C20.2923 15.3478 20.5057 15.6404 20.6702 15.9521Z" fill="#2D2E33"/>
</svg>
