<svg width="1566" height="491" viewBox="0 0 1566 491" fill="none" xmlns="http://www.w3.org/2000/svg">
<path fill-rule="evenodd" clip-rule="evenodd" d="M376.5 348H216.5L165 383H335.5L376.5 348ZM692 348H532L506.5 383H337L285 425.5H472.5L507 383H677L692 348ZM69.1537 426H284L228.946 473H0L69.1537 426ZM660 426H471.967L432.5 473.5H640.872L660 426ZM677.5 383H847.5V425.5H660L677.5 383ZM1004.5 348H848V383H1019L1036 425.5H1223.5L1189 383H1019L1004.5 348ZM1163.5 348H1323.5L1360.5 383H1190L1163.5 348ZM1414.85 426H1224L1262.05 473H1471L1414.85 426ZM847.5 426H1035.53L1054.5 473.5H847.5V426ZM1361 383H1489L1565.5 425.5H1414L1361 383Z" fill="url(#paint0_radial_23658_22657)"/>
<mask id="path-2-outside-1_23658_22657" maskUnits="userSpaceOnUse" x="1105" y="151" width="116" height="212" fill="black">
<rect fill="white" x="1105" y="151" width="116" height="212"/>
<path fill-rule="evenodd" clip-rule="evenodd" d="M1194 184.5C1194 196.314 1187.5 206.609 1177.87 212H1194C1196.76 212 1199 214.239 1199 217C1199 219.761 1196.76 222 1194 222H1181.93C1181.34 231.08 1177.81 299.137 1203 308V318C1207 318.833 1215 322.3 1215 329.5C1215 336.7 1212 339.167 1210.5 339.5C1213.33 340.333 1219 343.6 1219 350C1219 356.4 1217 359.667 1216 360.5H1114C1111.67 359.5 1107 355.8 1107 349C1107 342.2 1114 339.833 1117.5 339.5C1116 339.5 1113 337.3 1113 328.5C1113 319.7 1121.67 317.833 1126 318V308C1146.1 291.45 1147.79 244.428 1146.08 222H1131C1128.24 222 1126 219.761 1126 217C1126 214.239 1128.24 212 1131 212H1147.13C1137.5 206.609 1131 196.314 1131 184.5C1131 167.103 1145.1 153 1162.5 153C1179.9 153 1194 167.103 1194 184.5Z"/>
</mask>
<path fill-rule="evenodd" clip-rule="evenodd" d="M1194 184.5C1194 196.314 1187.5 206.609 1177.87 212H1194C1196.76 212 1199 214.239 1199 217C1199 219.761 1196.76 222 1194 222H1181.93C1181.34 231.08 1177.81 299.137 1203 308V318C1207 318.833 1215 322.3 1215 329.5C1215 336.7 1212 339.167 1210.5 339.5C1213.33 340.333 1219 343.6 1219 350C1219 356.4 1217 359.667 1216 360.5H1114C1111.67 359.5 1107 355.8 1107 349C1107 342.2 1114 339.833 1117.5 339.5C1116 339.5 1113 337.3 1113 328.5C1113 319.7 1121.67 317.833 1126 318V308C1146.1 291.45 1147.79 244.428 1146.08 222H1131C1128.24 222 1126 219.761 1126 217C1126 214.239 1128.24 212 1131 212H1147.13C1137.5 206.609 1131 196.314 1131 184.5C1131 167.103 1145.1 153 1162.5 153C1179.9 153 1194 167.103 1194 184.5Z" fill="black"/>
<path d="M1177.87 212L1176.9 210.255L1170.21 214H1177.87V212ZM1181.93 222V220H1180.06L1179.94 221.871L1181.93 222ZM1203 308H1205V306.584L1203.66 306.113L1203 308ZM1203 318H1201V319.626L1202.59 319.958L1203 318ZM1210.5 339.5L1210.07 337.548L1209.94 341.419L1210.5 339.5ZM1216 360.5V362.5H1216.72L1217.28 362.036L1216 360.5ZM1114 360.5L1113.21 362.338L1113.59 362.5H1114V360.5ZM1117.5 339.5L1117.69 341.491L1117.5 337.5V339.5ZM1126 318L1125.92 319.999L1128 320.078V318H1126ZM1126 308L1124.73 306.456L1124 307.056V308H1126ZM1146.08 222L1148.07 221.848L1147.93 220H1146.08V222ZM1147.13 212V214H1154.79L1148.1 210.255L1147.13 212ZM1178.85 213.745C1189.08 208.014 1196 197.067 1196 184.5H1192C1192 195.561 1185.91 205.204 1176.9 210.255L1178.85 213.745ZM1194 210H1177.87V214H1194V210ZM1201 217C1201 213.134 1197.87 210 1194 210V214C1195.66 214 1197 215.343 1197 217H1201ZM1194 224C1197.87 224 1201 220.866 1201 217H1197C1197 218.657 1195.66 220 1194 220V224ZM1181.93 224H1194V220H1181.93V224ZM1179.94 221.871C1179.64 226.446 1178.6 245.872 1180.81 265.307C1181.92 275.016 1183.85 284.847 1187.15 292.862C1190.43 300.83 1195.24 307.39 1202.34 309.887L1203.66 306.113C1198.16 304.179 1193.97 298.907 1190.85 291.338C1187.75 283.816 1185.87 274.403 1184.79 264.855C1182.61 245.777 1183.64 226.634 1183.93 222.129L1179.94 221.871ZM1201 308V318H1205V308H1201ZM1202.59 319.958C1204.37 320.329 1207.09 321.305 1209.3 322.964C1211.5 324.606 1213 326.743 1213 329.5H1217C1217 325.057 1214.5 321.861 1211.7 319.761C1208.91 317.678 1205.63 316.504 1203.41 316.042L1202.59 319.958ZM1213 329.5C1213 336.259 1210.24 337.509 1210.07 337.548L1210.93 341.452C1213.76 340.825 1217 337.141 1217 329.5H1213ZM1209.94 341.419C1211.08 341.756 1212.91 342.632 1214.42 344.097C1215.89 345.528 1217 347.454 1217 350H1221C1221 346.146 1219.28 343.239 1217.21 341.228C1215.17 339.252 1212.75 338.077 1211.06 337.581L1209.94 341.419ZM1217 350C1217 352.992 1216.53 355.175 1216 356.655C1215.44 358.192 1214.85 358.857 1214.72 358.964L1217.28 362.036C1218.15 361.31 1219.06 359.925 1219.75 358.02C1220.47 356.058 1221 353.408 1221 350H1217ZM1216 358.5H1114V362.5H1216V358.5ZM1114.79 358.662C1112.97 357.882 1109 354.784 1109 349H1105C1105 356.816 1110.37 361.118 1113.21 362.338L1114.79 358.662ZM1109 349C1109 346.416 1110.28 344.687 1112.06 343.48C1113.91 342.229 1116.19 341.634 1117.69 341.491L1117.31 337.509C1115.31 337.699 1112.34 338.455 1109.82 340.17C1107.22 341.93 1105 344.784 1105 349H1109ZM1117.5 337.5C1117.71 337.5 1117.14 337.574 1116.43 336.312C1115.72 335.072 1115 332.706 1115 328.5H1111C1111 333.094 1111.78 336.228 1112.95 338.288C1114.11 340.326 1115.79 341.5 1117.5 341.5V337.5ZM1115 328.5C1115 324.914 1116.69 322.865 1118.87 321.624C1121.16 320.315 1124.01 319.925 1125.92 319.999L1126.08 316.001C1123.65 315.908 1120.01 316.369 1116.88 318.151C1113.64 320.002 1111 323.286 1111 328.5H1115ZM1128 318V308H1124V318H1128ZM1127.27 309.544C1137.92 300.77 1143.46 284.219 1146.19 267.527C1148.94 250.709 1148.94 233.183 1148.07 221.848L1144.09 222.152C1144.93 233.245 1144.93 250.444 1142.24 266.881C1139.53 283.445 1134.17 298.68 1124.73 306.456L1127.27 309.544ZM1131 224H1146.08V220H1131V224ZM1124 217C1124 220.866 1127.13 224 1131 224V220C1129.34 220 1128 218.657 1128 217H1124ZM1131 210C1127.13 210 1124 213.134 1124 217H1128C1128 215.343 1129.34 214 1131 214V210ZM1147.13 210H1131V214H1147.13V210ZM1129 184.5C1129 197.067 1135.92 208.014 1146.15 213.745L1148.1 210.255C1139.09 205.204 1133 195.561 1133 184.5H1129ZM1162.5 151C1144 151 1129 165.998 1129 184.5H1133C1133 168.208 1146.21 155 1162.5 155V151ZM1196 184.5C1196 165.998 1181 151 1162.5 151V155C1178.79 155 1192 168.208 1192 184.5H1196Z" fill="url(#paint1_linear_23658_22657)" mask="url(#path-2-outside-1_23658_22657)"/>
<mask id="path-4-outside-2_23658_22657" maskUnits="userSpaceOnUse" x="464" y="151" width="116" height="212" fill="black">
<rect fill="white" x="464" y="151" width="116" height="212"/>
<path fill-rule="evenodd" clip-rule="evenodd" d="M491 184.5C491 196.314 497.504 206.609 507.126 212H491C488.239 212 486 214.239 486 217C486 219.761 488.239 222 491 222H503.069C503.656 231.08 507.191 299.137 482 308V318C478 318.833 470 322.3 470 329.5C470 336.7 473 339.167 474.5 339.5C471.667 340.333 466 343.6 466 350C466 356.4 468 359.667 469 360.5H571C573.333 359.5 578 355.8 578 349C578 342.2 571 339.833 567.5 339.5C569 339.5 572 337.3 572 328.5C572 319.7 563.333 317.833 559 318V308C538.904 291.45 537.214 244.428 538.92 222H554C556.761 222 559 219.761 559 217C559 214.239 556.761 212 554 212H537.874C547.496 206.609 554 196.314 554 184.5C554 167.103 539.897 153 522.5 153C505.103 153 491 167.103 491 184.5Z"/>
</mask>
<path fill-rule="evenodd" clip-rule="evenodd" d="M491 184.5C491 196.314 497.504 206.609 507.126 212H491C488.239 212 486 214.239 486 217C486 219.761 488.239 222 491 222H503.069C503.656 231.08 507.191 299.137 482 308V318C478 318.833 470 322.3 470 329.5C470 336.7 473 339.167 474.5 339.5C471.667 340.333 466 343.6 466 350C466 356.4 468 359.667 469 360.5H571C573.333 359.5 578 355.8 578 349C578 342.2 571 339.833 567.5 339.5C569 339.5 572 337.3 572 328.5C572 319.7 563.333 317.833 559 318V308C538.904 291.45 537.214 244.428 538.92 222H554C556.761 222 559 219.761 559 217C559 214.239 556.761 212 554 212H537.874C547.496 206.609 554 196.314 554 184.5C554 167.103 539.897 153 522.5 153C505.103 153 491 167.103 491 184.5Z" fill="black"/>
<path d="M507.126 212L508.104 210.255L514.788 214H507.126V212ZM503.069 222V220H504.944L505.065 221.871L503.069 222ZM482 308H480V306.584L481.336 306.113L482 308ZM482 318H484V319.626L482.408 319.958L482 318ZM474.5 339.5L474.934 337.548L475.064 341.419L474.5 339.5ZM469 360.5V362.5H468.276L467.72 362.036L469 360.5ZM571 360.5L571.788 362.338L571.411 362.5H571V360.5ZM567.5 339.5L567.31 341.491L567.5 337.5V339.5ZM559 318L559.077 319.999L557 320.078V318H559ZM559 308L560.271 306.456L561 307.056V308H559ZM538.92 222L536.926 221.848L537.067 220H538.92V222ZM537.874 212V214H530.212L536.896 210.255L537.874 212ZM506.149 213.745C495.92 208.014 489 197.067 489 184.5H493C493 195.561 499.087 205.204 508.104 210.255L506.149 213.745ZM491 210H507.126V214H491V210ZM484 217C484 213.134 487.134 210 491 210V214C489.343 214 488 215.343 488 217H484ZM491 224C487.134 224 484 220.866 484 217H488C488 218.657 489.343 220 491 220V224ZM503.069 224H491V220H503.069V224ZM505.065 221.871C505.361 226.446 506.4 245.872 504.188 265.307C503.083 275.016 501.155 284.847 497.851 292.862C494.567 300.83 489.76 307.39 482.664 309.887L481.336 306.113C486.835 304.179 491.033 298.907 494.153 291.338C497.253 283.816 499.127 274.403 500.214 264.855C502.385 245.777 501.364 226.634 501.073 222.129L505.065 221.871ZM484 308V318H480V308H484ZM482.408 319.958C480.626 320.329 477.914 321.305 475.698 322.964C473.504 324.606 472 326.743 472 329.5H468C468 325.057 470.496 321.861 473.302 319.761C476.086 317.678 479.374 316.504 481.592 316.042L482.408 319.958ZM472 329.5C472 336.259 474.759 337.509 474.934 337.548L474.066 341.452C471.241 340.825 468 337.141 468 329.5H472ZM475.064 341.419C473.917 341.756 472.089 342.632 470.581 344.097C469.108 345.528 468 347.454 468 350H464C464 346.146 465.725 343.239 467.794 341.228C469.828 339.252 472.25 338.077 473.936 337.581L475.064 341.419ZM468 350C468 352.992 468.468 355.175 469.005 356.655C469.563 358.192 470.152 358.857 470.28 358.964L467.72 362.036C466.848 361.31 465.937 359.925 465.245 358.02C464.532 356.058 464 353.408 464 350H468ZM469 358.5H571V362.5H469V358.5ZM570.212 358.662C572.032 357.882 576 354.784 576 349H580C580 356.816 574.635 361.118 571.788 362.338L570.212 358.662ZM576 349C576 346.416 574.719 344.687 572.94 343.48C571.094 342.229 568.813 341.634 567.31 341.491L567.69 337.509C569.687 337.699 572.656 338.455 575.185 340.17C577.781 341.93 580 344.784 580 349H576ZM567.5 337.5C567.294 337.5 567.857 337.574 568.574 336.312C569.278 335.072 570 332.706 570 328.5H574C574 333.094 573.222 336.228 572.051 338.288C570.893 340.326 569.206 341.5 567.5 341.5V337.5ZM570 328.5C570 324.914 568.306 322.865 566.134 321.624C563.839 320.315 560.987 319.925 559.077 319.999L558.923 316.001C561.346 315.908 564.995 316.369 568.116 318.151C571.36 320.002 574 323.286 574 328.5H570ZM557 318V308H561V318H557ZM557.729 309.544C547.075 300.77 541.542 284.219 538.81 267.527C536.058 250.709 536.064 233.183 536.926 221.848L540.915 222.152C540.07 233.245 540.068 250.444 542.758 266.881C545.469 283.445 550.829 298.68 560.271 306.456L557.729 309.544ZM554 224H538.92V220H554V224ZM561 217C561 220.866 557.866 224 554 224V220C555.657 220 557 218.657 557 217H561ZM554 210C557.866 210 561 213.134 561 217H557C557 215.343 555.657 214 554 214V210ZM537.874 210H554V214H537.874V210ZM556 184.5C556 197.067 549.08 208.014 538.851 213.745L536.896 210.255C545.913 205.204 552 195.561 552 184.5H556ZM522.5 151C541.002 151 556 165.998 556 184.5H552C552 168.208 538.792 155 522.5 155V151ZM489 184.5C489 165.998 503.998 151 522.5 151V155C506.208 155 493 168.208 493 184.5H489Z" fill="url(#paint2_linear_23658_22657)" mask="url(#path-4-outside-2_23658_22657)"/>
<path d="M396.261 208.336L395.298 208.065L396.261 208.336L408.624 164.543C408.984 163.267 408.025 162 406.699 162H393.552C392.685 162 391.917 162.558 391.649 163.383L386.655 178.776H374.773V164C374.773 162.895 373.878 162 372.773 162H354.134C353.029 162 352.134 162.895 352.134 164V178.776L338.477 178.776L334.34 163.478C334.105 162.606 333.313 162 332.41 162H319.721C318.416 162 317.46 163.231 317.784 164.496L329.292 209.423C329.519 210.308 330.316 210.926 331.23 210.926H335.577V215.727H326.38C326.07 215.727 325.764 215.799 325.486 215.938L319.99 218.685C318.442 219.459 318.54 221.699 320.149 222.334L327.442 225.217L330.472 231.879C330.731 232.447 331.24 232.863 331.85 233.001L332.071 232.026L331.85 233.001L335.701 233.876C337.023 241.983 338.327 255.302 338.045 269.642C337.764 284.004 335.893 299.297 330.921 311.394H327.144C326.04 311.394 325.144 312.289 325.144 313.394V320.235H321.701C320.596 320.235 319.701 321.13 319.701 322.235V329.756H317.044C316.251 329.756 315.533 330.224 315.214 330.95L316.129 331.353L315.214 330.95L307.277 348.96C307.034 349.511 307.052 350.142 307.326 350.677L312.048 359.911C312.39 360.579 313.077 361 313.828 361H412.386C413.15 361 413.847 360.565 414.183 359.879L418.676 350.693C418.956 350.121 418.946 349.45 418.651 348.886L409.187 330.828C408.842 330.169 408.16 329.756 407.416 329.756H404.031V322.235C404.031 321.13 403.135 320.235 402.031 320.235H400.402V313.394C400.402 312.289 399.507 311.394 398.402 311.394H393.62C390.774 298.835 386.227 266.912 389.424 232.916H392.198C392.965 232.916 393.663 232.478 393.998 231.789L397.08 225.435H401.39C401.756 225.435 402.115 225.335 402.428 225.145L406.909 222.425C408.288 221.589 408.16 219.548 406.688 218.89L400.005 215.901C399.748 215.787 399.47 215.727 399.189 215.727H390.876V209.793H394.336C395.231 209.793 396.018 209.198 396.261 208.336ZM389.424 232.916C389.423 232.916 389.423 232.916 389.422 232.916V232.916H389.423C389.423 232.916 389.423 232.916 389.424 232.916C389.424 232.915 389.424 232.915 389.424 232.915C389.424 232.915 389.424 232.915 389.424 232.916Z" fill="#212121" stroke="url(#paint3_linear_23658_22657)" stroke-width="2"/>
<path d="M399.499 313H326.499V321.5H321V331H316.5L308 351L313.5 362H414.5L420 350L415.5 341H369C365.5 337.5 367 332.667 369 331H405V324.5H326.499L331.499 321.5H399.499V313Z" fill="black"/>
<path d="M330.5 210L319 163.5C324.6 182.7 338.333 202.5 344.5 210H389.5V216.5H336.5V210H330.5Z" fill="black" stroke="black"/>
<mask id="path-9-outside-3_23658_22657" maskUnits="userSpaceOnUse" x="909.188" y="82" width="72" height="89" fill="black">
<rect fill="white" x="909.188" y="82" width="72" height="89"/>
<path fill-rule="evenodd" clip-rule="evenodd" d="M950.601 101.243C953.09 99.5432 954.724 96.6832 954.724 93.4417C954.724 88.2272 950.496 84 945.282 84C940.067 84 935.84 88.2272 935.84 93.4417C935.84 96.6405 937.431 99.4678 939.865 101.176C923.626 103.658 911.188 117.686 911.188 134.618C911.188 153.303 926.335 168.451 945.02 168.451C963.706 168.451 978.853 153.303 978.853 134.618C978.853 117.834 966.631 103.904 950.601 101.243Z"/>
</mask>
<path fill-rule="evenodd" clip-rule="evenodd" d="M950.601 101.243C953.09 99.5432 954.724 96.6832 954.724 93.4417C954.724 88.2272 950.496 84 945.282 84C940.067 84 935.84 88.2272 935.84 93.4417C935.84 96.6405 937.431 99.4678 939.865 101.176C923.626 103.658 911.188 117.686 911.188 134.618C911.188 153.303 926.335 168.451 945.02 168.451C963.706 168.451 978.853 153.303 978.853 134.618C978.853 117.834 966.631 103.904 950.601 101.243Z" fill="#212121"/>
<path d="M950.601 101.243L949.473 99.592L945.361 102.401L950.274 103.216L950.601 101.243ZM939.865 101.176L940.167 103.153L945.091 102.4L941.013 99.5385L939.865 101.176ZM952.724 93.4417C952.724 95.9948 951.44 98.2486 949.473 99.592L951.729 102.895C954.74 100.838 956.724 97.3717 956.724 93.4417H952.724ZM945.282 86C949.392 86 952.724 89.3318 952.724 93.4417H956.724C956.724 87.1226 951.601 82 945.282 82V86ZM937.84 93.4417C937.84 89.3318 941.172 86 945.282 86V82C938.963 82 933.84 87.1226 933.84 93.4417H937.84ZM941.013 99.5385C939.09 98.189 937.84 95.9613 937.84 93.4417H933.84C933.84 97.3198 935.771 100.747 938.716 102.813L941.013 99.5385ZM913.188 134.618C913.188 118.688 924.89 105.488 940.167 103.153L939.562 99.1986C922.362 101.828 909.188 116.683 909.188 134.618H913.188ZM945.02 166.451C927.44 166.451 913.188 152.199 913.188 134.618H909.188C909.188 154.408 925.23 170.451 945.02 170.451V166.451ZM976.853 134.618C976.853 152.199 962.601 166.451 945.02 166.451V170.451C964.81 170.451 980.853 154.408 980.853 134.618H976.853ZM950.274 103.216C965.354 105.72 976.853 118.828 976.853 134.618H980.853C980.853 116.84 967.908 102.089 950.929 99.2704L950.274 103.216Z" fill="url(#paint4_linear_23658_22657)" mask="url(#path-9-outside-3_23658_22657)"/>
<path d="M945.02 168.451C963.706 168.451 978.853 153.299 978.853 134.609C929.966 141.745 928.06 116.432 933.218 102.883C920.352 107.674 911.188 120.071 911.188 134.609C911.188 153.299 926.335 168.451 945.02 168.451Z" fill="black" stroke="black"/>
<path d="M945.285 102.883C950.5 102.883 954.727 98.6409 954.727 93.4076C941.084 95.4056 940.552 88.318 941.992 84.5244C938.401 85.8658 935.844 89.3369 935.844 93.4076C935.844 98.6409 940.071 102.883 945.285 102.883Z" fill="black" stroke="black"/>
<mask id="path-13-outside-4_23658_22657" maskUnits="userSpaceOnUse" x="878.639" y="122.611" width="154.685" height="275.794" fill="black">
<rect fill="white" x="878.639" y="122.611" width="154.685" height="275.794"/>
<path d="M980.446 194.378C980.279 194.291 980.139 194.158 980.044 193.995L976.605 188.102C976.439 187.82 976.147 187.636 975.82 187.61L966.473 186.865C965.922 186.822 965.511 186.34 965.555 185.789L965.872 181.807C965.916 181.257 966.398 180.846 966.948 180.89L969.029 181.056C969.58 181.099 970.061 180.685 970.11 180.135C971.877 160.184 978.691 143.642 983.759 134.461C984.308 133.467 982.928 132.19 982.014 132.864L970.904 141.052C970.432 141.4 969.763 141.269 969.457 140.769L962.912 130.059C962.601 129.551 961.918 129.425 961.446 129.79L946.686 141.221C946.323 141.502 945.816 141.5 945.455 141.216L930.833 129.706C930.408 129.372 929.795 129.435 929.448 129.849L920.167 140.925C919.81 141.351 919.173 141.404 918.75 141.042L907.177 131.136C906.296 130.382 904.885 131.586 905.449 132.6C915.264 150.27 920.094 171.423 920.754 180.439C920.791 180.942 921.184 181.347 921.686 181.387L923.885 181.562C924.435 181.606 924.846 182.088 924.802 182.638L924.442 187.164C924.398 187.714 923.916 188.125 923.366 188.081L916.775 187.556C916.426 187.529 916.089 187.685 915.884 187.968L911.148 194.532C911.045 194.675 910.906 194.788 910.746 194.86L896.508 201.239C896.174 201.388 895.949 201.708 895.92 202.072L895.913 202.162C895.88 202.571 896.1 202.958 896.468 203.139L909.466 209.525C909.682 209.631 909.853 209.812 909.946 210.034L912.795 216.793C912.934 217.123 913.24 217.354 913.596 217.397L918.819 218.032C919.238 218.083 919.581 218.393 919.672 218.805C928.842 260.096 920.436 303.136 914.843 320.331C914.701 320.768 914.283 321.029 913.825 320.993L911.684 320.823C911.464 320.805 911.244 320.861 911.059 320.981L908.01 322.963C907.75 323.132 907.583 323.412 907.558 323.722L907.133 329.066C907.112 329.33 906.986 329.575 906.784 329.747L903.603 332.46C903.401 332.632 903.276 332.877 903.254 333.142L902.718 339.881C902.674 340.431 902.192 340.842 901.642 340.798L898.383 340.539C897.996 340.508 897.627 340.704 897.435 341.041L888.327 357.031C888.254 357.158 888.21 357.3 888.199 357.447L887.806 362.381C887.791 362.562 887.826 362.743 887.907 362.905L890.532 368.191C890.878 368.887 890.332 369.694 889.557 369.632L888.619 369.558C888.271 369.53 887.933 369.686 887.729 369.969L882.999 376.524C882.892 376.673 882.827 376.848 882.813 377.03L882.185 384.918C882.139 385.496 882.592 385.992 883.172 385.997L1007.21 387.236C1007.54 387.239 1007.86 387.073 1008.04 386.795L1011.4 381.826C1011.63 381.492 1011.63 381.055 1011.41 380.718L1004.49 370.149C1004.32 369.89 1004.04 369.724 1003.73 369.7L1001.73 369.541C1001 369.482 1000.58 368.675 1000.95 368.038L1004.62 361.773C1004.79 361.488 1004.8 361.139 1004.66 360.841L995.076 340.539C994.923 340.215 994.608 339.998 994.251 339.97L989.034 339.554C988.484 339.51 988.073 339.029 988.117 338.478L988.473 334.003C988.498 333.686 988.372 333.376 988.132 333.168L984.037 329.616C983.797 329.408 983.67 329.098 983.695 328.782L984.055 324.265C984.076 324.001 983.991 323.739 983.819 323.537L981.356 320.649C981.184 320.447 980.939 320.322 980.674 320.301L977.587 320.055C977.231 320.027 976.92 319.817 976.769 319.494C963.718 291.514 968.31 241.595 972.38 219.257C972.462 218.806 972.838 218.489 973.295 218.461L977.422 218.203C977.918 218.172 978.316 217.78 978.356 217.284L978.742 212.429C978.769 212.099 978.957 211.803 979.246 211.639L994.078 203.219C994.767 202.827 994.749 201.828 994.046 201.462L980.446 194.378Z"/>
</mask>
<path d="M980.446 194.378C980.279 194.291 980.139 194.158 980.044 193.995L976.605 188.102C976.439 187.82 976.147 187.636 975.82 187.61L966.473 186.865C965.922 186.822 965.511 186.34 965.555 185.789L965.872 181.807C965.916 181.257 966.398 180.846 966.948 180.89L969.029 181.056C969.58 181.099 970.061 180.685 970.11 180.135C971.877 160.184 978.691 143.642 983.759 134.461C984.308 133.467 982.928 132.19 982.014 132.864L970.904 141.052C970.432 141.4 969.763 141.269 969.457 140.769L962.912 130.059C962.601 129.551 961.918 129.425 961.446 129.79L946.686 141.221C946.323 141.502 945.816 141.5 945.455 141.216L930.833 129.706C930.408 129.372 929.795 129.435 929.448 129.849L920.167 140.925C919.81 141.351 919.173 141.404 918.75 141.042L907.177 131.136C906.296 130.382 904.885 131.586 905.449 132.6C915.264 150.27 920.094 171.423 920.754 180.439C920.791 180.942 921.184 181.347 921.686 181.387L923.885 181.562C924.435 181.606 924.846 182.088 924.802 182.638L924.442 187.164C924.398 187.714 923.916 188.125 923.366 188.081L916.775 187.556C916.426 187.529 916.089 187.685 915.884 187.968L911.148 194.532C911.045 194.675 910.906 194.788 910.746 194.86L896.508 201.239C896.174 201.388 895.949 201.708 895.92 202.072L895.913 202.162C895.88 202.571 896.1 202.958 896.468 203.139L909.466 209.525C909.682 209.631 909.853 209.812 909.946 210.034L912.795 216.793C912.934 217.123 913.24 217.354 913.596 217.397L918.819 218.032C919.238 218.083 919.581 218.393 919.672 218.805C928.842 260.096 920.436 303.136 914.843 320.331C914.701 320.768 914.283 321.029 913.825 320.993L911.684 320.823C911.464 320.805 911.244 320.861 911.059 320.981L908.01 322.963C907.75 323.132 907.583 323.412 907.558 323.722L907.133 329.066C907.112 329.33 906.986 329.575 906.784 329.747L903.603 332.46C903.401 332.632 903.276 332.877 903.254 333.142L902.718 339.881C902.674 340.431 902.192 340.842 901.642 340.798L898.383 340.539C897.996 340.508 897.627 340.704 897.435 341.041L888.327 357.031C888.254 357.158 888.21 357.3 888.199 357.447L887.806 362.381C887.791 362.562 887.826 362.743 887.907 362.905L890.532 368.191C890.878 368.887 890.332 369.694 889.557 369.632L888.619 369.558C888.271 369.53 887.933 369.686 887.729 369.969L882.999 376.524C882.892 376.673 882.827 376.848 882.813 377.03L882.185 384.918C882.139 385.496 882.592 385.992 883.172 385.997L1007.21 387.236C1007.54 387.239 1007.86 387.073 1008.04 386.795L1011.4 381.826C1011.63 381.492 1011.63 381.055 1011.41 380.718L1004.49 370.149C1004.32 369.89 1004.04 369.724 1003.73 369.7L1001.73 369.541C1001 369.482 1000.58 368.675 1000.95 368.038L1004.62 361.773C1004.79 361.488 1004.8 361.139 1004.66 360.841L995.076 340.539C994.923 340.215 994.608 339.998 994.251 339.97L989.034 339.554C988.484 339.51 988.073 339.029 988.117 338.478L988.473 334.003C988.498 333.686 988.372 333.376 988.132 333.168L984.037 329.616C983.797 329.408 983.67 329.098 983.695 328.782L984.055 324.265C984.076 324.001 983.991 323.739 983.819 323.537L981.356 320.649C981.184 320.447 980.939 320.322 980.674 320.301L977.587 320.055C977.231 320.027 976.92 319.817 976.769 319.494C963.718 291.514 968.31 241.595 972.38 219.257C972.462 218.806 972.838 218.489 973.295 218.461L977.422 218.203C977.918 218.172 978.316 217.78 978.356 217.284L978.742 212.429C978.769 212.099 978.957 211.803 979.246 211.639L994.078 203.219C994.767 202.827 994.749 201.828 994.046 201.462L980.446 194.378Z" fill="#212121"/>
<path d="M918.75 141.042L917.45 142.562L918.75 141.042ZM920.167 140.925L918.634 139.64L920.167 140.925ZM930.833 129.706L929.595 131.278L930.833 129.706ZM929.448 129.849L930.98 131.134L929.448 129.849ZM946.686 141.221L945.462 139.64L946.686 141.221ZM945.455 141.216L944.218 142.788L945.455 141.216ZM962.912 130.059L961.206 131.102L962.912 130.059ZM961.446 129.79L962.671 131.371L961.446 129.79ZM965.555 185.789L963.561 185.631L965.555 185.789ZM965.872 181.807L967.866 181.966L965.872 181.807ZM982.014 132.864L983.2 134.474L982.014 132.864ZM983.759 134.461L982.008 133.495L983.759 134.461ZM970.904 141.052L969.717 139.442L970.904 141.052ZM969.457 140.769L967.751 141.812L969.457 140.769ZM905.449 132.6L903.7 133.572L905.449 132.6ZM907.177 131.136L905.876 132.656L907.177 131.136ZM921.686 181.387L921.527 183.381L921.686 181.387ZM920.754 180.439L922.749 180.293L920.754 180.439ZM924.802 182.638L922.809 182.479L924.802 182.638ZM923.885 181.562L924.044 179.568L923.885 181.562ZM923.366 188.081L923.207 190.075L923.366 188.081ZM924.442 187.164L926.436 187.322L924.442 187.164ZM915.884 187.968L917.506 189.138L915.884 187.968ZM916.775 187.556L916.616 189.55L916.775 187.556ZM910.746 194.86L911.563 196.685L910.746 194.86ZM911.148 194.532L912.769 195.703L911.148 194.532ZM896.508 201.239L895.69 199.414L896.508 201.239ZM896.468 203.139L895.586 204.934L896.468 203.139ZM909.946 210.034L911.789 209.257L909.946 210.034ZM909.466 209.525L908.584 211.32L909.466 209.525ZM913.596 217.397L913.837 215.412L913.596 217.397ZM919.672 218.805L921.625 218.371L919.672 218.805ZM918.819 218.032L919.061 216.047L918.819 218.032ZM913.825 320.993L913.666 322.987L913.825 320.993ZM914.843 320.331L912.941 319.712L914.843 320.331ZM911.059 320.981L912.149 322.658L911.059 320.981ZM911.684 320.823L911.842 318.829L911.684 320.823ZM908.01 322.963L909.1 324.64L908.01 322.963ZM906.784 329.747L905.487 328.225L906.784 329.747ZM903.603 332.46L904.9 333.982L903.603 332.46ZM897.435 341.041L899.172 342.031L897.435 341.041ZM888.327 357.031L890.064 358.021L888.327 357.031ZM887.907 362.905L889.698 362.016L887.907 362.905ZM890.532 368.191L892.323 367.301L890.532 368.191ZM887.729 369.969L889.351 371.14L887.729 369.969ZM882.999 376.524L881.377 375.354L882.999 376.524ZM883.172 385.997L883.152 387.997L883.172 385.997ZM1008.04 386.795L1009.7 387.914L1008.04 386.795ZM1007.21 387.236L1007.19 389.235L1007.21 387.236ZM1011.41 380.718L1013.08 379.622L1011.41 380.718ZM1011.4 381.826L1013.06 382.945L1011.4 381.826ZM1004.49 370.149L1002.81 371.245L1004.49 370.149ZM1000.95 368.038L999.223 367.027L1000.95 368.038ZM1004.66 360.841L1002.85 361.695L1004.66 360.841ZM1004.62 361.773L1002.89 360.762L1004.62 361.773ZM995.076 340.539L996.884 339.685L995.076 340.539ZM988.132 333.168L989.442 331.657L988.132 333.168ZM984.037 329.616L982.726 331.127L984.037 329.616ZM983.819 323.537L985.341 322.24L983.819 323.537ZM981.356 320.649L979.834 321.946L981.356 320.649ZM976.769 319.494L978.582 318.648L976.769 319.494ZM973.295 218.461L973.171 216.465L973.295 218.461ZM978.356 217.284L980.35 217.443L978.356 217.284ZM977.422 218.203L977.297 216.207L977.422 218.203ZM979.246 211.639L980.233 213.378L979.246 211.639ZM978.742 212.429L980.736 212.588L978.742 212.429ZM994.046 201.462L994.97 199.688L994.046 201.462ZM994.078 203.219L993.09 201.479L994.078 203.219ZM980.044 193.995L981.772 192.987L980.044 193.995ZM980.446 194.378L979.522 196.152L980.446 194.378ZM976.605 188.102L978.332 187.094L976.605 188.102ZM974.877 189.111L978.317 195.003L981.772 192.987L978.332 187.094L974.877 189.111ZM979.522 196.152L993.122 203.236L994.97 199.688L981.37 192.604L979.522 196.152ZM993.09 201.479L978.258 209.9L980.233 213.378L995.065 204.958L993.09 201.479ZM976.749 212.271L976.362 217.125L980.35 217.443L980.736 212.588L976.749 212.271ZM977.297 216.207L973.171 216.465L973.42 220.457L977.546 220.199L977.297 216.207ZM970.412 218.898C968.359 230.169 966.18 248.353 966.154 267.257C966.129 286.102 968.24 305.94 974.957 320.339L978.582 318.648C972.247 305.068 970.129 285.956 970.154 267.262C970.179 248.627 972.331 230.682 974.348 219.615L970.412 218.898ZM977.428 322.048L980.516 322.294L980.833 318.307L977.745 318.061L977.428 322.048ZM979.834 321.946L982.297 324.835L985.341 322.24L982.878 319.351L979.834 321.946ZM982.061 324.107L981.701 328.623L985.689 328.94L986.048 324.424L982.061 324.107ZM982.726 331.127L986.821 334.679L989.442 331.657L985.347 328.105L982.726 331.127ZM986.48 333.844L986.123 338.319L990.111 338.637L990.467 334.161L986.48 333.844ZM988.876 341.548L994.092 341.963L994.41 337.976L989.193 337.561L988.876 341.548ZM993.267 341.393L1002.85 361.695L1006.47 359.987L996.884 339.685L993.267 341.393ZM1002.89 360.762L999.223 367.027L1002.67 369.05L1006.35 362.785L1002.89 360.762ZM1001.57 371.535L1003.57 371.693L1003.89 367.706L1001.89 367.547L1001.57 371.535ZM1002.81 371.245L1009.74 381.814L1013.08 379.622L1006.16 369.053L1002.81 371.245ZM1009.74 380.706L1006.39 385.676L1009.7 387.914L1013.06 382.945L1009.74 380.706ZM1007.23 385.236L883.192 383.998L883.152 387.997L1007.19 389.235L1007.23 385.236ZM884.179 385.077L884.806 377.189L880.819 376.871L880.191 384.759L884.179 385.077ZM884.62 377.695L889.351 371.14L886.107 368.799L881.377 375.354L884.62 377.695ZM888.46 371.551L889.398 371.626L889.716 367.639L888.778 367.564L888.46 371.551ZM892.323 367.301L889.698 362.016L886.116 363.795L888.741 369.08L892.323 367.301ZM889.8 362.54L890.192 357.605L886.205 357.288L885.812 362.222L889.8 362.54ZM890.064 358.021L899.172 342.031L895.697 340.051L886.589 356.041L890.064 358.021ZM898.224 342.533L901.483 342.792L901.801 338.805L898.542 338.545L898.224 342.533ZM904.712 340.04L905.248 333.3L901.261 332.983L900.724 339.722L904.712 340.04ZM904.9 333.982L908.082 331.269L905.487 328.225L902.305 330.938L904.9 333.982ZM909.126 329.224L909.552 323.88L905.564 323.563L905.139 328.907L909.126 329.224ZM909.1 324.64L912.149 322.658L909.97 319.304L906.92 321.286L909.1 324.64ZM911.525 322.816L913.666 322.987L913.984 318.999L911.842 318.829L911.525 322.816ZM916.745 320.95C922.409 303.538 930.896 260.119 921.625 218.371L917.72 219.239C926.788 260.073 918.464 302.735 912.941 319.712L916.745 320.95ZM919.061 216.047L913.837 215.412L913.354 219.382L918.578 220.018L919.061 216.047ZM914.638 216.016L911.789 209.257L908.103 210.811L910.952 217.569L914.638 216.016ZM910.348 207.73L897.35 201.344L895.586 204.934L908.584 211.32L910.348 207.73ZM897.906 202.321L897.913 202.231L893.926 201.914L893.919 202.004L897.906 202.321ZM897.325 203.064L911.563 196.685L909.928 193.035L895.69 199.414L897.325 203.064ZM912.769 195.703L917.506 189.138L914.263 186.798L909.526 193.362L912.769 195.703ZM916.616 189.55L923.207 190.075L923.525 186.087L916.933 185.563L916.616 189.55ZM926.436 187.322L926.796 182.797L922.809 182.479L922.448 187.005L926.436 187.322ZM924.044 179.568L921.845 179.393L921.527 183.381L923.726 183.556L924.044 179.568ZM922.749 180.293C922.069 171.004 917.162 149.567 907.197 131.629L903.7 133.572C913.367 150.973 918.12 171.842 918.76 180.585L922.749 180.293ZM972.09 142.662L983.2 134.474L980.827 131.254L969.717 139.442L972.09 142.662ZM982.008 133.495C976.835 142.866 969.914 159.675 968.118 179.959L972.102 180.312C973.84 160.693 980.547 144.419 985.51 135.428L982.008 133.495ZM969.188 179.062L967.107 178.896L966.789 182.884L968.87 183.049L969.188 179.062ZM963.878 181.649L963.561 185.631L967.549 185.948L967.866 181.966L963.878 181.649ZM966.314 188.859L975.662 189.603L975.979 185.616L966.631 184.872L966.314 188.859ZM961.206 131.102L967.751 141.812L971.164 139.726L964.619 129.016L961.206 131.102ZM960.222 128.209L945.462 139.64L947.911 142.802L962.671 131.371L960.222 128.209ZM946.692 139.645L932.07 128.134L929.595 131.278L944.218 142.788L946.692 139.645ZM905.876 132.656L917.45 142.562L920.051 139.523L908.477 129.617L905.876 132.656ZM921.7 142.209L930.98 131.134L927.915 128.565L918.634 139.64L921.7 142.209ZM917.45 142.562C918.718 143.647 920.628 143.488 921.7 142.209L918.634 139.64C918.991 139.214 919.628 139.161 920.051 139.523L917.45 142.562ZM932.07 128.134C930.796 127.132 928.956 127.322 927.915 128.565L930.98 131.134C930.633 131.548 930.02 131.612 929.595 131.278L932.07 128.134ZM945.462 139.64C945.824 139.359 946.332 139.361 946.692 139.645L944.218 142.788C945.3 143.639 946.822 143.645 947.911 142.802L945.462 139.64ZM964.619 129.016C963.686 127.491 961.635 127.114 960.222 128.209L962.671 131.371C962.2 131.736 961.516 131.611 961.206 131.102L964.619 129.016ZM963.561 185.631C963.43 187.282 964.662 188.728 966.314 188.859L966.631 184.872C967.182 184.916 967.593 185.397 967.549 185.948L963.561 185.631ZM967.107 178.896C965.455 178.765 964.01 179.997 963.878 181.649L967.866 181.966C967.822 182.517 967.34 182.927 966.789 182.884L967.107 178.896ZM968.118 179.959C968.164 179.436 968.624 179.017 969.188 179.062L968.87 183.049C970.535 183.182 971.958 181.935 972.102 180.312L968.118 179.959ZM983.2 134.474C982.955 134.655 982.657 134.701 982.429 134.664C982.235 134.632 982.128 134.552 982.081 134.509C982.033 134.465 981.957 134.377 981.914 134.213C981.863 134.023 981.867 133.75 982.008 133.495L985.51 135.428C986.382 133.848 985.595 132.306 984.789 131.565C983.982 130.823 982.332 130.145 980.827 131.254L983.2 134.474ZM969.717 139.442C970.189 139.094 970.858 139.225 971.164 139.726L967.751 141.812C968.668 143.313 970.674 143.706 972.09 142.662L969.717 139.442ZM907.197 131.629C907.33 131.868 907.346 132.146 907.286 132.366C907.234 132.556 907.139 132.667 907.067 132.729C906.995 132.79 906.858 132.876 906.638 132.896C906.381 132.92 906.091 132.839 905.876 132.656L908.477 129.617C907.056 128.4 905.355 128.934 904.475 129.682C903.6 130.426 902.817 131.981 903.7 133.572L907.197 131.629ZM921.845 179.393C922.352 179.434 922.716 179.837 922.749 180.293L918.76 180.585C918.867 182.047 920.016 183.26 921.527 183.381L921.845 179.393ZM926.796 182.797C926.928 181.145 925.695 179.7 924.044 179.568L923.726 183.556C923.176 183.512 922.765 183.03 922.809 182.479L926.796 182.797ZM923.207 190.075C924.859 190.206 926.304 188.974 926.436 187.322L922.448 187.005C922.492 186.454 922.974 186.044 923.525 186.087L923.207 190.075ZM917.506 189.138C917.302 189.422 916.964 189.578 916.616 189.55L916.933 185.563C915.888 185.48 914.876 185.948 914.263 186.798L917.506 189.138ZM911.563 196.685C912.045 196.469 912.461 196.13 912.769 195.703L909.526 193.362C909.629 193.219 909.767 193.106 909.928 193.035L911.563 196.685ZM897.913 202.231C897.884 202.595 897.659 202.915 897.325 203.064L895.69 199.414C894.689 199.862 894.013 200.821 893.926 201.914L897.913 202.231ZM897.35 201.344C897.718 201.525 897.939 201.912 897.906 202.321L893.919 202.004C893.821 203.23 894.482 204.392 895.586 204.934L897.35 201.344ZM911.789 209.257C911.509 208.591 910.997 208.049 910.348 207.73L908.584 211.32C908.368 211.214 908.197 211.033 908.103 210.811L911.789 209.257ZM913.837 215.412C914.193 215.455 914.499 215.685 914.638 216.016L910.952 217.569C911.37 218.561 912.286 219.252 913.354 219.382L913.837 215.412ZM921.625 218.371C921.349 217.129 920.318 216.2 919.061 216.047L918.578 220.018C918.158 219.967 917.813 219.657 917.72 219.239L921.625 218.371ZM913.666 322.987C914.988 323.092 916.299 322.32 916.745 320.95L912.941 319.712C913.103 319.215 913.577 318.967 913.984 318.999L913.666 322.987ZM912.149 322.658C911.964 322.778 911.745 322.834 911.525 322.816L911.842 318.829C911.183 318.776 910.524 318.943 909.97 319.304L912.149 322.658ZM909.552 323.88C909.527 324.19 909.36 324.47 909.1 324.64L906.92 321.286C906.139 321.793 905.638 322.635 905.564 323.563L909.552 323.88ZM908.082 331.269C908.687 330.753 909.063 330.017 909.126 329.224L905.139 328.907C905.16 328.642 905.285 328.397 905.487 328.225L908.082 331.269ZM905.248 333.3C905.227 333.565 905.102 333.81 904.9 333.982L902.305 330.938C901.7 331.454 901.324 332.19 901.261 332.983L905.248 333.3ZM901.483 342.792C903.135 342.924 904.58 341.691 904.712 340.04L900.724 339.722C900.768 339.172 901.25 338.761 901.801 338.805L901.483 342.792ZM899.172 342.031C898.98 342.368 898.611 342.563 898.224 342.533L898.542 338.545C897.382 338.453 896.273 339.04 895.697 340.051L899.172 342.031ZM890.192 357.605C890.181 357.751 890.137 357.893 890.064 358.021L886.589 356.041C886.371 356.423 886.24 356.849 886.205 357.288L890.192 357.605ZM889.698 362.016C889.779 362.178 889.814 362.359 889.8 362.54L885.812 362.222C885.769 362.764 885.874 363.308 886.116 363.795L889.698 362.016ZM889.398 371.626C891.723 371.811 893.361 369.389 892.323 367.301L888.741 369.08C888.395 368.384 888.941 367.577 889.716 367.639L889.398 371.626ZM889.351 371.14C889.146 371.423 888.809 371.579 888.46 371.551L888.778 367.564C887.733 367.481 886.72 367.949 886.107 368.799L889.351 371.14ZM884.806 377.189C884.792 377.371 884.728 377.546 884.62 377.695L881.377 375.354C881.056 375.799 880.863 376.324 880.819 376.871L884.806 377.189ZM883.192 383.998C883.771 384.003 884.225 384.499 884.179 385.077L880.191 384.759C880.053 386.493 881.413 387.98 883.152 387.997L883.192 383.998ZM1006.39 385.676C1006.58 385.398 1006.89 385.232 1007.23 385.236L1007.19 389.235C1008.19 389.245 1009.14 388.749 1009.7 387.914L1006.39 385.676ZM1009.74 381.814C1009.51 381.477 1009.52 381.04 1009.74 380.706L1013.06 382.945C1013.73 381.943 1013.74 380.633 1013.08 379.622L1009.74 381.814ZM1003.57 371.693C1003.26 371.669 1002.98 371.503 1002.81 371.245L1006.16 369.053C1005.65 368.277 1004.81 367.78 1003.89 367.706L1003.57 371.693ZM999.223 367.027C998.104 368.937 999.367 371.359 1001.57 371.535L1001.89 367.547C1002.63 367.606 1003.05 368.413 1002.67 369.05L999.223 367.027ZM1002.85 361.695C1002.71 361.396 1002.73 361.047 1002.89 360.762L1006.35 362.785C1006.85 361.93 1006.89 360.883 1006.47 359.987L1002.85 361.695ZM994.092 341.963C993.735 341.935 993.42 341.717 993.267 341.393L996.884 339.685C996.425 338.713 995.481 338.061 994.41 337.976L994.092 341.963ZM986.123 338.319C985.992 339.971 987.224 341.417 988.876 341.548L989.193 337.561C989.744 337.604 990.154 338.086 990.111 338.637L986.123 338.319ZM986.821 334.679C986.581 334.471 986.454 334.161 986.48 333.844L990.467 334.161C990.543 333.211 990.162 332.282 989.442 331.657L986.821 334.679ZM981.701 328.623C981.626 329.573 982.006 330.503 982.726 331.127L985.347 328.105C985.587 328.314 985.714 328.623 985.689 328.94L981.701 328.623ZM982.297 324.835C982.125 324.633 982.04 324.371 982.061 324.107L986.048 324.424C986.111 323.631 985.857 322.845 985.341 322.24L982.297 324.835ZM980.516 322.294C980.251 322.273 980.006 322.148 979.834 321.946L982.878 319.351C982.362 318.746 981.626 318.37 980.833 318.307L980.516 322.294ZM974.957 320.339C975.422 321.337 976.38 321.965 977.428 322.048L977.745 318.061C978.083 318.088 978.418 318.297 978.582 318.648L974.957 320.339ZM973.171 216.465C971.848 216.547 970.668 217.493 970.412 218.898L974.348 219.615C974.256 220.119 973.829 220.431 973.42 220.457L973.171 216.465ZM976.362 217.125C976.402 216.629 976.8 216.238 977.297 216.207L977.546 220.199C979.036 220.106 980.231 218.931 980.35 217.443L976.362 217.125ZM978.258 209.9C977.393 210.391 976.828 211.279 976.749 212.271L980.736 212.588C980.71 212.919 980.521 213.215 980.233 213.378L978.258 209.9ZM993.122 203.236C992.419 202.87 992.401 201.871 993.09 201.479L995.065 204.958C997.132 203.784 997.078 200.787 994.97 199.688L993.122 203.236ZM978.317 195.003C978.602 195.492 979.02 195.89 979.522 196.152L981.37 192.604C981.537 192.691 981.677 192.824 981.772 192.987L978.317 195.003ZM978.332 187.094C977.837 186.246 976.958 185.694 975.979 185.616L975.662 189.603C975.335 189.577 975.042 189.393 974.877 189.111L978.332 187.094Z" fill="url(#paint5_linear_23658_22657)" mask="url(#path-13-outside-4_23658_22657)"/>
<path d="M991.947 202.278L895.962 201.479L895.853 202.837L909.796 209.687L913.015 217.324L919.513 218.115C929.065 260.207 919.407 301.726 913.789 318.5L909.339 319L905.592 323.228L905.095 329.476L901.282 332.726L900.634 340.875L895.744 340.486L886.211 357.222L885.779 362.655L889.313 369.77L886.053 369.51L880.83 376.749L880.087 387.238L1007.74 389.5L1013.28 382.786L1002.78 368L1003.78 368L1006.78 361.315L927.545 359.965C924.64 359.916 922.756 356.885 923.996 354.258L927.363 347.128C929.318 342.988 933.457 340.322 938.035 340.253L990.281 339.472L990.281 337.028L931.947 337.197C927.881 337.209 924.14 334.976 922.22 331.392L921.056 329.221L985.652 329.283L985.781 327.653L918.534 326.56C916.719 325.322 916.5 321.204 916.5 321.204L982.332 321.798L981.082 320.331C981.082 320.331 936.585 321.163 935.139 306.833C933.802 293.574 934.861 262.254 938.276 243.391C939.731 235.352 945.114 226.167 970.984 227.406C970.984 227.406 972.246 219.935 972.513 218.507L932.367 216.832C930.703 216.762 929.499 215.219 929.836 213.589C930.235 211.657 931.968 210.294 933.939 210.362L978.779 211.899L992.432 204.147C993.322 203.642 992.969 202.286 991.947 202.278Z" fill="black"/>
<path d="M916.209 187.509L910.985 194.748L983.608 195.882L981.771 194.916L931.507 193.384C928.273 193.286 925.433 191.209 924.358 188.158L916.209 187.509Z" fill="black"/>
<path d="M924.718 187.097L976.066 187.631L965.473 186.787L965.948 180.811L970.023 181.136L970.325 177.333C961.318 177.162 941.343 175.354 933.501 169.481C923.697 162.14 920.532 143.011 918.003 140.913C914.178 137.738 907.496 131.277 905.939 132.52C918.88 151.264 920.286 171.801 920.532 181.297L925.15 181.664L924.718 187.097Z" fill="black" stroke="black"/>
<ellipse opacity="0.5" cx="536.5" cy="449.5" rx="164.5" ry="12.5" fill="black"/>
<mask id="path-18-outside-5_23658_22657" maskUnits="userSpaceOnUse" x="345" y="291" width="384" height="158" fill="black">
<rect fill="white" x="345" y="291" width="384" height="158"/>
<path fill-rule="evenodd" clip-rule="evenodd" d="M589.83 353.735L582.443 348.597L574.414 329.648L561.568 348.597H554.182L553.218 355.341C526.883 358.124 466.249 359.066 434.39 340.568V335.75L430.536 331.896H424.113L419.617 325.794H412.552V317.766L388.465 303.956L378.509 308.773V303.956L365.663 294L358.276 298.175L347.999 445.907H358.919L367.911 440.447V436.593L375.94 441.411H382.363L402.917 431.776V425.995H412.552L416.727 421.82H424.113L427.325 417.645V413.791C447.558 408.76 500.163 402.487 548.722 417.645L549.043 425.353L557.714 429.849L564.459 446.87H566.064L575.378 429.849L584.37 424.389V414.755H592.078V419.572C603.104 420.964 630.488 427.922 651.813 444.622C657.895 439.131 668.738 425.507 672.914 408.01H678.469L693.884 404.156L686.819 423.747L707.052 425.674L704.161 405.441L724.394 411.543L726 391.953L705.446 394.522L712.19 374.61L690.994 373.326L693.884 393.237L679.754 387.135H674.346C672.697 366.034 664.023 351.564 659.52 346.67C651.063 351.701 626.698 361.764 596.895 361.764V366.581H589.83V353.735Z"/>
</mask>
<path fill-rule="evenodd" clip-rule="evenodd" d="M589.83 353.735L582.443 348.597L574.414 329.648L561.568 348.597H554.182L553.218 355.341C526.883 358.124 466.249 359.066 434.39 340.568V335.75L430.536 331.896H424.113L419.617 325.794H412.552V317.766L388.465 303.956L378.509 308.773V303.956L365.663 294L358.276 298.175L347.999 445.907H358.919L367.911 440.447V436.593L375.94 441.411H382.363L402.917 431.776V425.995H412.552L416.727 421.82H424.113L427.325 417.645V413.791C447.558 408.76 500.163 402.487 548.722 417.645L549.043 425.353L557.714 429.849L564.459 446.87H566.064L575.378 429.849L584.37 424.389V414.755H592.078V419.572C603.104 420.964 630.488 427.922 651.813 444.622C657.895 439.131 668.738 425.507 672.914 408.01H678.469L693.884 404.156L686.819 423.747L707.052 425.674L704.161 405.441L724.394 411.543L726 391.953L705.446 394.522L712.19 374.61L690.994 373.326L693.884 393.237L679.754 387.135H674.346C672.697 366.034 664.023 351.564 659.52 346.67C651.063 351.701 626.698 361.764 596.895 361.764V366.581H589.83V353.735Z" fill="#909090"/>
<path d="M582.443 348.597L581.301 350.238L580.827 349.909L580.602 349.377L582.443 348.597ZM589.83 353.735L590.972 352.093L591.83 352.69V353.735H589.83ZM574.414 329.648L572.759 328.526L574.822 325.483L576.256 328.868L574.414 329.648ZM561.568 348.597L563.224 349.719L562.629 350.597H561.568V348.597ZM554.182 348.597L552.202 348.314L552.447 346.597H554.182V348.597ZM553.218 355.341L555.198 355.624L554.978 357.166L553.428 357.33L553.218 355.341ZM434.39 340.568L433.386 342.297L432.39 341.719V340.568H434.39ZM434.39 335.75L435.805 334.336L436.39 334.922V335.75H434.39ZM430.536 331.896V329.896H431.365L431.951 330.482L430.536 331.896ZM424.113 331.896V333.896H423.103L422.503 333.083L424.113 331.896ZM419.617 325.794V323.794H420.628L421.227 324.608L419.617 325.794ZM412.552 325.794V327.794H410.552V325.794H412.552ZM412.552 317.766L413.547 316.03L414.552 316.607V317.766H412.552ZM388.465 303.956L387.594 302.156L388.544 301.696L389.46 302.221L388.465 303.956ZM378.509 308.773L379.38 310.573L376.509 311.963V308.773H378.509ZM378.509 303.956L379.734 302.375L380.509 302.976V303.956H378.509ZM365.663 294L364.679 292.259L365.837 291.604L366.888 292.419L365.663 294ZM358.276 298.175L356.281 298.036L356.356 296.963L357.292 296.434L358.276 298.175ZM347.999 445.907V447.907H345.855L346.004 445.768L347.999 445.907ZM358.919 445.907L359.957 447.616L359.478 447.907H358.919V445.907ZM367.911 440.447H369.911V441.573L368.949 442.157L367.911 440.447ZM367.911 436.593H365.911V433.061L368.94 434.878L367.911 436.593ZM375.94 441.411V443.411H375.386L374.911 443.126L375.94 441.411ZM382.363 441.411L383.212 443.222L382.809 443.411H382.363V441.411ZM402.917 431.776H404.917V433.047L403.766 433.587L402.917 431.776ZM402.917 425.995H400.917V423.995H402.917V425.995ZM412.552 425.995L413.966 427.409L413.38 427.995H412.552V425.995ZM416.727 421.82L415.313 420.406L415.898 419.82H416.727V421.82ZM424.113 421.82L425.699 423.04L425.098 423.82H424.113V421.82ZM427.325 417.645H429.325V418.325L428.91 418.864L427.325 417.645ZM427.325 413.791H425.325V412.228L426.842 411.85L427.325 413.791ZM548.722 417.645L549.318 415.736L550.662 416.155L550.72 417.562L548.722 417.645ZM549.043 425.353L548.122 427.128L547.093 426.595L547.045 425.436L549.043 425.353ZM557.714 429.849L558.635 428.073L559.298 428.417L559.574 429.112L557.714 429.849ZM564.459 446.87V448.87H563.1L562.599 447.607L564.459 446.87ZM566.064 446.87L567.819 447.83L567.25 448.87H566.064V446.87ZM575.378 429.849L573.623 428.889L573.881 428.418L574.34 428.139L575.378 429.849ZM584.37 424.389H586.37V425.515L585.408 426.099L584.37 424.389ZM584.37 414.755H582.37V412.755H584.37V414.755ZM592.078 414.755V412.755H594.078V414.755H592.078ZM592.078 419.572L591.828 421.556L590.078 421.335V419.572H592.078ZM651.813 444.622L653.153 446.107L651.904 447.234L650.58 446.197L651.813 444.622ZM672.914 408.01L670.968 407.546L671.335 406.01H672.914V408.01ZM678.469 408.01L678.954 409.951L678.715 410.01H678.469V408.01ZM693.884 404.156L693.399 402.216L697.038 401.306L695.766 404.835L693.884 404.156ZM686.819 423.747L686.629 425.738L684.063 425.494L684.938 423.068L686.819 423.747ZM707.052 425.674L709.032 425.391L709.391 427.906L706.862 427.665L707.052 425.674ZM704.161 405.441L702.181 405.724L701.738 402.621L704.739 403.526L704.161 405.441ZM724.394 411.543L726.388 411.706L726.185 414.172L723.817 413.458L724.394 411.543ZM726 391.953L725.752 389.968L728.194 389.663L727.993 392.116L726 391.953ZM705.446 394.522L705.694 396.506L702.528 396.902L703.552 393.88L705.446 394.522ZM712.19 374.61L712.311 372.614L714.924 372.772L714.085 375.252L712.19 374.61ZM690.994 373.326L689.015 373.613L688.662 371.18L691.115 371.329L690.994 373.326ZM693.884 393.237L695.864 392.95L696.378 396.492L693.092 395.073L693.884 393.237ZM679.754 387.135V385.135H680.167L680.546 385.299L679.754 387.135ZM674.346 387.135V389.135H672.496L672.352 387.291L674.346 387.135ZM659.52 346.67L658.498 344.951L659.893 344.121L660.992 345.315L659.52 346.67ZM596.895 361.764H594.895V359.764H596.895V361.764ZM596.895 366.581H598.895V368.581H596.895V366.581ZM589.83 366.581V368.581H587.83V366.581H589.83ZM583.585 346.955L590.972 352.093L588.688 355.377L581.301 350.238L583.585 346.955ZM576.256 328.868L584.285 347.816L580.602 349.377L572.573 330.429L576.256 328.868ZM559.913 347.474L572.759 328.526L576.07 330.771L563.224 349.719L559.913 347.474ZM554.182 346.597H561.568V350.597H554.182V346.597ZM551.238 355.058L552.202 348.314L556.161 348.879L555.198 355.624L551.238 355.058ZM435.395 338.838C450.92 347.853 473.669 352.218 496.029 353.941C518.328 355.659 539.947 354.732 553.008 353.352L553.428 357.33C540.154 358.733 518.289 359.668 495.722 357.929C473.217 356.195 449.719 351.781 433.386 342.297L435.395 338.838ZM436.39 335.75V340.568H432.39V335.75H436.39ZM431.951 330.482L435.805 334.336L432.976 337.164L429.122 333.311L431.951 330.482ZM424.113 329.896H430.536V333.896H424.113V329.896ZM421.227 324.608L425.724 330.71L422.503 333.083L418.007 326.981L421.227 324.608ZM412.552 323.794H419.617V327.794H412.552V323.794ZM414.552 317.766V325.794H410.552V317.766H414.552ZM389.46 302.221L413.547 316.03L411.557 319.501L387.47 305.691L389.46 302.221ZM377.638 306.973L387.594 302.156L389.336 305.756L379.38 310.573L377.638 306.973ZM380.509 303.956V308.773H376.509V303.956H380.509ZM366.888 292.419L379.734 302.375L377.284 305.537L364.438 295.581L366.888 292.419ZM357.292 296.434L364.679 292.259L366.647 295.741L359.26 299.916L357.292 296.434ZM346.004 445.768L356.281 298.036L360.272 298.314L349.995 446.046L346.004 445.768ZM358.919 447.907H347.999V443.907H358.919V447.907ZM368.949 442.157L359.957 447.616L357.881 444.197L366.873 438.738L368.949 442.157ZM369.911 436.593V440.447H365.911V436.593H369.911ZM374.911 443.126L366.882 438.308L368.94 434.878L376.969 439.696L374.911 443.126ZM382.363 443.411H375.94V439.411H382.363V443.411ZM403.766 433.587L383.212 443.222L381.514 439.6L402.068 429.965L403.766 433.587ZM404.917 425.995V431.776H400.917V425.995H404.917ZM412.552 427.995H402.917V423.995H412.552V427.995ZM418.141 423.234L413.966 427.409L411.138 424.581L415.313 420.406L418.141 423.234ZM424.113 423.82H416.727V419.82H424.113V423.82ZM428.91 418.864L425.699 423.04L422.528 420.601L425.74 416.426L428.91 418.864ZM429.325 413.791V417.645H425.325V413.791H429.325ZM548.126 419.554C500.023 404.538 447.81 410.758 427.808 415.732L426.842 411.85C447.305 406.762 500.304 400.435 549.318 415.736L548.126 419.554ZM547.045 425.436L546.724 417.728L550.72 417.562L551.041 425.27L547.045 425.436ZM556.794 431.625L548.122 427.128L549.964 423.577L558.635 428.073L556.794 431.625ZM562.599 447.607L555.855 430.586L559.574 429.112L566.318 446.134L562.599 447.607ZM566.064 448.87H564.459V444.87H566.064V448.87ZM577.132 430.809L567.819 447.83L564.31 445.91L573.623 428.889L577.132 430.809ZM585.408 426.099L576.416 431.559L574.34 428.139L583.332 422.68L585.408 426.099ZM586.37 414.755V424.389H582.37V414.755H586.37ZM592.078 416.755H584.37V412.755H592.078V416.755ZM590.078 419.572V414.755H594.078V419.572H590.078ZM650.58 446.197C629.626 429.787 602.622 422.919 591.828 421.556L592.328 417.588C603.587 419.009 631.351 426.057 653.046 443.048L650.58 446.197ZM674.859 408.475C670.57 426.444 659.468 440.405 653.153 446.107L650.473 443.138C656.322 437.857 666.906 424.569 670.968 407.546L674.859 408.475ZM672.914 406.01H678.469V410.01H672.914V406.01ZM677.984 406.07L693.399 402.216L694.369 406.097L678.954 409.951L677.984 406.07ZM695.766 404.835L688.7 424.426L684.938 423.068L692.003 403.478L695.766 404.835ZM687.009 421.756L707.241 423.683L706.862 427.665L686.629 425.738L687.009 421.756ZM705.072 425.957L702.181 405.724L706.141 405.158L709.032 425.391L705.072 425.957ZM704.739 403.526L724.972 409.628L723.817 413.458L703.584 407.356L704.739 403.526ZM722.401 411.38L724.007 391.789L727.993 392.116L726.388 411.706L722.401 411.38ZM726.248 393.937L705.694 396.506L705.198 392.537L725.752 389.968L726.248 393.937ZM703.552 393.88L710.296 373.969L714.085 375.252L707.34 395.163L703.552 393.88ZM712.069 376.606L690.873 375.322L691.115 371.329L712.311 372.614L712.069 376.606ZM692.973 373.038L695.864 392.95L691.905 393.525L689.015 373.613L692.973 373.038ZM693.092 395.073L678.961 388.971L680.546 385.299L694.677 391.401L693.092 395.073ZM679.754 389.135H674.346V385.135H679.754V389.135ZM660.992 345.315C665.811 350.553 674.657 365.451 676.34 386.979L672.352 387.291C670.736 366.618 662.235 352.574 658.048 348.024L660.992 345.315ZM596.895 359.764C626.303 359.764 650.318 349.817 658.498 344.951L660.543 348.388C651.808 353.585 627.094 363.764 596.895 363.764V359.764ZM594.895 366.581V361.764H598.895V366.581H594.895ZM589.83 364.581H596.895V368.581H589.83V364.581ZM591.83 353.735V366.581H587.83V353.735H591.83Z" fill="url(#paint6_linear_23658_22657)" mask="url(#path-18-outside-5_23658_22657)"/>
<path d="M679.109 386.493H674.613L673.329 408.974H679.109V386.493Z" fill="black" stroke="black"/>
<path d="M574.419 329.648L566.069 446.87H564.463L557.719 429.849L549.048 425.353L548.727 417.645C500.168 402.487 447.563 408.76 427.33 413.791V417.645L424.118 421.82H416.732L412.557 425.995H402.922V431.776L382.368 441.411H375.945L367.916 436.593V440.447L358.923 445.907H348.004L358.281 298.175L365.668 294L378.514 303.956V308.773L388.47 303.956L382.752 396.049C382.572 398.948 385.443 401.066 388.16 400.038L399.142 395.882C403.422 394.263 406.408 390.351 406.842 385.797L412.557 325.794H415.446L409.888 393.075C409.554 397.128 411.482 401.035 414.903 403.234L418.337 405.441L424.118 331.896H426.044L421.227 408.653C422.512 410.901 427.33 411.543 427.33 411.543L432.789 334.145L434.395 335.75C434.395 335.75 429.256 387.951 445.956 390.989C461.409 393.801 498.305 395.485 520.786 393.237C530.367 392.279 541.661 386.814 542.624 356.304C542.624 356.304 551.52 355.521 553.223 355.341L551.437 402.664C551.363 404.624 553.063 406.184 555.01 405.94C557.317 405.652 559.08 403.743 559.185 401.421L561.572 348.597L574.419 329.648Z" fill="black"/>
<path d="M584.375 424.389L575.383 429.849L580.842 344.421L581.805 346.67L578.903 405.866C578.717 409.675 580.891 413.206 584.375 414.755V424.389Z" fill="black"/>
<path d="M574.419 329.648L566.069 446.87H564.463L557.719 429.849L549.048 425.353L548.727 417.645C500.168 402.487 447.563 408.76 427.33 413.791V417.645L424.118 421.82H416.732L412.557 425.995H402.922V431.776L382.368 441.411H375.945L367.916 436.593V440.447L358.923 445.907H348.004L358.281 298.175L365.668 294L378.514 303.956V308.773L388.47 303.956L382.752 396.049C382.572 398.948 385.443 401.066 388.16 400.038L399.142 395.882C403.422 394.263 406.408 390.351 406.842 385.797L412.557 325.794H415.446L409.888 393.075C409.554 397.128 411.482 401.035 414.903 403.234L418.337 405.441L424.118 331.896H426.044L421.227 408.653C422.512 410.901 427.33 411.543 427.33 411.543L432.789 334.145L434.395 335.75C434.395 335.75 429.256 387.951 445.956 390.989C461.409 393.801 498.305 395.485 520.786 393.237C530.367 392.279 541.661 386.814 542.624 356.304C542.624 356.304 551.52 355.521 553.223 355.341L551.437 402.664C551.363 404.624 553.063 406.184 555.01 405.94C557.317 405.652 559.08 403.743 559.185 401.421L561.572 348.597L574.419 329.648Z" stroke="black"/>
<path d="M584.375 424.389L575.383 429.849L580.842 344.421L581.805 346.67L578.903 405.866C578.717 409.675 580.891 413.206 584.375 414.755V424.389Z" stroke="black"/>
<path d="M585.655 414.433L589.83 354.056V366.581H596.896V361.764H601.392C600.75 372.362 600.336 388.237 606.502 398C620.329 419.893 652.456 425.353 654.383 432.418C655.924 438.071 653.098 442.909 651.492 444.622C630.681 427.665 603.212 421.071 592.078 419.893V414.433H585.655Z" fill="black"/>
<path d="M408 221H320C320.8 221.8 325.667 223.667 328 224.5L331.5 232L337 233.5C342.5 275 336 301 332 311H392C378.333 310.333 349.7 307.4 344.5 301C338 293 344.5 264 351 250.5C356.2 239.7 379 237 388 239L388.5 232H341C337.4 230.8 337.833 226.5 338.5 224.5H402.5L408 221Z" fill="black" stroke="black"/>
<path d="M646.157 46.1175L647.491 45.4323L646.157 46.1175C650.514 54.6016 658.092 69.319 662.734 78.1877L664.063 77.4922L662.734 78.1877C662.769 78.2555 662.788 78.3292 662.788 78.4148V195.681C662.788 197.614 664.355 199.181 666.288 199.181H703.803C705.087 199.181 706.269 198.478 706.88 197.349L747.631 122.16C747.719 121.999 747.888 121.898 748.071 121.898H780.207C780.58 121.898 780.821 122.291 780.654 122.624L684.631 312.934C684.141 313.905 684.13 315.048 684.601 316.027L712.293 373.627C712.453 373.959 712.211 374.343 711.843 374.343H705.823C704.894 374.343 704.004 374.712 703.348 375.369L699.21 379.507C698.553 380.163 698.185 381.053 698.185 381.981V392.713C698.185 392.846 698.132 392.973 698.038 393.067L689.771 401.334C689.114 401.991 688.746 402.881 688.746 403.809V417.499C688.746 417.775 688.522 417.999 688.246 417.999H677.865C676.584 417.999 675.404 418.7 674.791 419.826L650.235 464.94C649.956 465.454 649.809 466.029 649.809 466.614V474.125C649.809 475.054 650.178 475.944 650.835 476.6L662.642 488.407C663.298 489.064 664.188 489.432 665.117 489.432H901.796C902.725 489.432 903.615 489.064 904.271 488.407L916.078 476.6C916.735 475.944 917.104 475.054 917.104 474.125V466.603C917.104 466.03 916.963 465.466 916.694 464.96L892.715 419.856C892.107 418.713 890.919 417.999 889.624 417.999H878.667C878.391 417.999 878.167 417.775 878.167 417.499V403.809C878.167 402.881 877.799 401.991 877.142 401.334L868.875 393.067C868.781 392.973 868.728 392.846 868.728 392.713V380.212C868.728 379.283 868.36 378.393 867.703 377.737L865.335 375.369C864.679 374.712 863.789 374.343 862.86 374.343H852.883C852.504 374.343 852.263 373.939 852.443 373.606L880.879 320.947C881.071 320.591 881.585 320.599 881.766 320.961L907.81 373.049C908.403 374.235 909.615 374.984 910.94 374.984H917.143C919.076 374.984 920.643 373.417 920.643 371.484V135.897C920.643 135.715 920.63 135.534 920.599 135.343L920.599 135.343C918.481 122.362 912.392 101.517 900.965 80.8211C889.538 60.1258 872.708 39.467 849.048 27.0396C825.692 14.7721 812.268 8.38246 802.994 5.06815C793.619 1.71758 788.45 1.49999 781.687 1.5H690.462C689.565 1.5 688.679 1.84265 688.02 2.50628C682.474 8.08551 671.355 22.3668 665.65 40.6436C665.576 40.881 665.365 41.026 665.149 41.026H649.273C646.664 41.026 644.957 43.7808 646.157 46.1175Z" fill="#212121" stroke="url(#paint7_linear_23658_22657)" stroke-width="3"/>
<path d="M738.369 120.398H747.471L705.585 198.271H664.289V188.832H691.535C696.455 188.832 700.876 185.829 702.69 181.255L722.567 131.132C725.136 124.653 731.4 120.398 738.369 120.398Z" fill="black"/>
<path d="M774.022 29.5474H671.962L666.062 41.9361C694.97 40.9529 757.032 39.5764 774.022 41.9361C795.26 44.8859 817.678 48.4255 845.995 75.5629C868.649 97.2727 878.442 143.013 879.622 161.104C869.199 192.765 846.467 261.631 838.916 283.812C831.364 305.994 811.778 312.326 802.929 312.72H686.71L686.004 314.557L713.848 373.484H850.714L879.68 320.4C880.452 318.985 882.494 319.018 883.221 320.456L910.004 373.484H917.004C918.108 373.484 919.004 372.588 919.004 371.484V285.557C891.277 253.7 900.283 184.554 881.981 117.449C864.283 52.5551 807.059 31.9071 774.022 29.5474Z" fill="black"/>
<path d="M666 42.0002L775 42.0002C794 41.3335 843.5 57.0002 868.5 112.5" stroke="url(#paint8_linear_23658_22657)" stroke-width="2" stroke-linejoin="round"/>
<rect x="694.375" y="86.7715" width="9.43908" height="23.5977" rx="4.71954" fill="black" stroke="black"/>
<path d="M692 107V84" stroke="url(#paint9_linear_23658_22657)" stroke-width="4" stroke-linecap="round" stroke-linejoin="round"/>
<path d="M838.913 388.232C845.048 386.344 846.582 378.006 846.582 374.073H861.501L867.146 380.057V393.541L876.001 404.16V420.089L890.501 420.089L919 466.694V476L902.501 491H663.5L648.5 476V466.694H836.553L814.576 428.951C811.377 423.457 805.518 420.058 799.161 420.009L690.501 419.162V412.673C731.01 412.476 816.001 412.673 823.501 412.673C832.481 412.673 836.16 400.424 836.553 393.541L700.001 393.541V388.232L838.913 388.232Z" fill="black"/>
<path d="M700 381H802" stroke="url(#paint10_linear_23658_22657)" stroke-width="2" stroke-linecap="round" stroke-linejoin="round"/>
<path d="M691 402H793" stroke="url(#paint11_linear_23658_22657)" stroke-width="2" stroke-linecap="round" stroke-linejoin="round"/>
<path d="M673 425H798" stroke="url(#paint12_linear_23658_22657)" stroke-width="2" stroke-linecap="round" stroke-linejoin="round"/>
<defs>
<radialGradient id="paint0_radial_23658_22657" cx="0" cy="0" r="1" gradientUnits="userSpaceOnUse" gradientTransform="translate(783 474) scale(803.5 149.911)">
<stop stop-color="#636363"/>
<stop offset="1"/>
</radialGradient>
<linearGradient id="paint1_linear_23658_22657" x1="1098" y1="153" x2="1229" y2="233" gradientUnits="userSpaceOnUse">
<stop stop-color="#484848"/>
<stop offset="1"/>
</linearGradient>
<linearGradient id="paint2_linear_23658_22657" x1="587" y1="153" x2="456" y2="233" gradientUnits="userSpaceOnUse">
<stop stop-color="#484848"/>
<stop offset="1"/>
</linearGradient>
<linearGradient id="paint3_linear_23658_22657" x1="485.5" y1="245" x2="359.281" y2="289.461" gradientUnits="userSpaceOnUse">
<stop stop-color="#A8A8A8"/>
<stop offset="1"/>
</linearGradient>
<linearGradient id="paint4_linear_23658_22657" x1="979.283" y1="105" x2="945.283" y2="105.506" gradientUnits="userSpaceOnUse">
<stop stop-color="#A8A8A8"/>
<stop offset="1" stop-color="#1D1D1D"/>
</linearGradient>
<linearGradient id="paint5_linear_23658_22657" x1="1062.78" y1="236.5" x2="964.278" y2="259.988" gradientUnits="userSpaceOnUse">
<stop stop-color="#A8A8A8"/>
<stop offset="1" stop-color="#1D1D1D"/>
</linearGradient>
<linearGradient id="paint6_linear_23658_22657" x1="702.269" y1="354.175" x2="698.702" y2="425.674" gradientUnits="userSpaceOnUse">
<stop stop-color="#C7C7C7"/>
<stop offset="1" stop-color="#1D1D1D"/>
</linearGradient>
<linearGradient id="paint7_linear_23658_22657" x1="681.5" y1="10.5" x2="767" y2="335.5" gradientUnits="userSpaceOnUse">
<stop stop-color="#F3F3F3"/>
<stop offset="1" stop-color="#1D1D1D"/>
</linearGradient>
<linearGradient id="paint8_linear_23658_22657" x1="600.56" y1="2.89116" x2="607.578" y2="122.106" gradientUnits="userSpaceOnUse">
<stop stop-color="#A8A8A8"/>
<stop offset="1" stop-color="#1D1D1D"/>
</linearGradient>
<linearGradient id="paint9_linear_23658_22657" x1="692" y1="107" x2="692" y2="83.4363" gradientUnits="userSpaceOnUse">
<stop stop-color="#7A7A7A"/>
<stop offset="1" stop-color="#212121"/>
</linearGradient>
<linearGradient id="paint10_linear_23658_22657" x1="700" y1="381" x2="804.5" y2="381" gradientUnits="userSpaceOnUse">
<stop stop-color="#545454"/>
<stop offset="1" stop-color="#1D1D1D"/>
</linearGradient>
<linearGradient id="paint11_linear_23658_22657" x1="691" y1="402" x2="795.5" y2="402" gradientUnits="userSpaceOnUse">
<stop stop-color="#4B4B4B"/>
<stop offset="1" stop-color="#1D1D1D"/>
</linearGradient>
<linearGradient id="paint12_linear_23658_22657" x1="673" y1="425" x2="801.064" y2="425" gradientUnits="userSpaceOnUse">
<stop stop-color="#424242"/>
<stop offset="1" stop-color="#1D1D1D"/>
</linearGradient>
</defs>
</svg>
