<svg width="132" height="40" viewBox="0 0 132 40" fill="none" xmlns="http://www.w3.org/2000/svg">
<path fill-rule="evenodd" clip-rule="evenodd" d="M12.8281 8.09548L16.5949 4.10254L20.3618 8.09548L16.5949 12.0884L12.8281 8.09548ZM0 8.3113L4.01262 12.3774C7.56094 15.973 11.5728 19.0148 15.9278 21.4118L15.9295 21.4127L15.9311 21.4136C16.4804 21.7171 17.047 22.0152 17.6294 22.3068C21.1007 24.0478 24.7414 25.3712 28.4835 26.2547V13.2551H33.2308V28.3729H31.0035L30.4686 31.795C25.322 30.8885 20.3186 29.2287 15.6014 26.8633C14.9662 26.5449 14.3459 26.2187 13.7408 25.8843C10.5624 24.135 7.55149 22.0708 4.74726 19.7218V28.3729H0V8.3113Z" fill="#B8F2FA"/>
<path d="M50.5691 11.126H53.9231L61.5931 23.164H61.3591V11.126H64.4271V28H61.3071L53.1431 15.234H53.6371V28H50.5691V11.126ZM77.8378 28V11.126H80.9058V28H77.8378ZM97.4077 11.126V25.322H104.35V28H94.3397V11.126H97.4077ZM115.741 28V11.126H126.583V13.778H118.809V18.224H126.115V20.876H118.809V25.322H126.583V28H115.741Z" fill="#B8F2FA"/>
</svg>
