<svg width="885" height="120" viewBox="0 0 885 120" fill="none" xmlns="http://www.w3.org/2000/svg">
<mask id="mask0_23648_11215" style="mask-type:alpha" maskUnits="userSpaceOnUse" x="0" y="0" width="885" height="120">
<rect width="885" height="120" rx="20" fill="#7A78FF"/>
</mask>
<g mask="url(#mask0_23648_11215)">
<path d="M528.785 7.39757C530.374 12.3049 528.127 15.0338 517.057 20.855C528.321 15.512 532.288 15.3015 534.962 20.0872C532.883 14.7955 537.17 11.3151 547.402 6.46151C536.96 10.8728 532.491 12.961 528.785 7.39757Z" fill="white"/>
<path d="M539.151 33.1582C539.345 38.3127 536.441 40.3275 524.204 42.9174C536.497 40.8405 540.372 41.7171 541.642 47.0496C541.082 41.3921 546.153 39.209 557.321 37.3223C546.072 38.7264 541.203 39.5199 539.151 33.1582Z" fill="white"/>
<path d="M291.695 49.9363C291.745 55.5744 293.401 55.6095 317.133 56.6652C293.401 55.6095 291.721 56.6787 291.695 61.6524C291.169 56.667 289.794 56.3616 263.548 56.6336C289.806 55.8094 291.192 55.5627 291.695 49.9363Z" fill="white"/>
<path d="M183.124 49.9363C183.174 55.5744 184.831 55.6095 208.562 56.6652C184.831 55.6095 183.151 56.6787 183.124 61.6524C182.599 56.667 181.224 56.3616 154.978 56.6336C181.236 55.8094 182.622 55.5627 183.124 49.9363Z" fill="white"/>
<path d="M588.915 49.9363C588.865 55.5744 587.208 55.6095 563.477 56.6652C587.208 55.6095 588.888 56.6787 588.915 61.6524C589.44 56.667 590.815 56.3616 617.061 56.6336C590.803 55.8094 589.417 55.5627 588.915 49.9363Z" fill="white"/>
<path d="M697.485 49.9363C697.435 55.5744 695.779 55.6095 672.047 56.6652C695.779 55.6095 697.459 56.6787 697.485 61.6524C698.011 56.667 699.385 56.3616 725.631 56.6336C699.374 55.8094 697.987 55.5627 697.485 49.9363Z" fill="white"/>
<path d="M347.301 7.39757C345.712 12.3049 347.959 15.0338 359.029 20.855C347.764 15.512 343.797 15.3015 341.124 20.0872C343.202 14.7955 338.916 11.3151 328.684 6.46151C339.126 10.8728 343.595 12.961 347.301 7.39757Z" fill="white"/>
<path d="M336.935 33.1582C336.741 38.3127 339.645 40.3275 351.882 42.9174C339.589 40.8405 335.714 41.7171 334.444 47.0496C335.004 41.3921 329.933 39.209 318.765 37.3223C330.014 38.7264 334.883 39.5199 336.935 33.1582Z" fill="white"/>
<path d="M528.785 113.427C530.374 108.52 528.127 105.791 517.057 99.9697C528.321 105.313 532.288 105.523 534.962 100.737C532.883 106.029 537.17 109.51 547.402 114.363C536.96 109.952 532.491 107.864 528.785 113.427Z" fill="white"/>
<path d="M539.151 87.6665C539.345 82.512 536.441 80.4972 524.204 77.9073C536.497 79.9843 540.372 79.1076 541.642 73.7751C541.082 79.4326 546.153 81.6157 557.321 83.5024C546.072 82.0983 541.203 81.3048 539.151 87.6665Z" fill="white"/>
<path d="M620.229 117.347C620.423 112.193 617.519 110.178 605.282 107.588C617.575 109.665 621.45 108.788 622.72 103.456C622.16 109.113 627.232 111.296 638.399 113.183C627.15 111.779 622.281 110.985 620.229 117.347Z" fill="white"/>
<path d="M255.544 117.347C255.351 112.193 258.255 110.178 270.491 107.588C258.198 109.665 254.323 108.788 253.053 103.456C253.613 109.113 248.542 111.296 237.375 113.183C248.623 111.779 253.492 110.985 255.544 117.347Z" fill="white"/>
<path d="M620.229 0.47365C620.423 5.62813 617.519 7.64298 605.282 10.2329C617.575 8.15588 621.45 9.03253 622.72 14.3651C622.16 8.70751 627.232 6.52447 638.399 4.63775C627.15 6.04179 622.281 6.83535 620.229 0.47365Z" fill="white"/>
<path d="M255.537 0.47365C255.343 5.62813 258.247 7.64298 270.484 10.2329C258.19 8.15588 254.316 9.03253 253.045 14.3651C253.605 8.70751 248.534 6.52447 237.367 4.63775C248.616 6.04179 253.484 6.83535 255.537 0.47365Z" fill="white"/>
<path d="M347.301 113.427C345.712 108.52 347.959 105.791 359.029 99.9697C347.764 105.313 343.797 105.523 341.124 100.737C343.202 106.029 338.916 109.51 328.684 114.363C339.126 109.952 343.595 107.864 347.301 113.427Z" fill="white"/>
<path d="M336.935 87.6665C336.741 82.512 339.645 80.4972 351.882 77.9073C339.589 79.9843 335.714 79.1076 334.444 73.7751C335.004 79.4326 329.933 81.6157 318.765 83.5024C330.014 82.0983 334.883 81.3048 336.935 87.6665Z" fill="white"/>
</g>
</svg>
