<svg width="892" height="212" viewBox="0 0 892 212" fill="none" xmlns="http://www.w3.org/2000/svg">
<path d="M39.6639 164.126L28.3238 146.451L30.8488 144.831L40.7795 160.31L50.3492 154.17L51.7586 156.367L39.6639 164.126Z" fill="white"/>
<path d="M71.8681 144.313L63.9333 130.534L66.4291 129.097L74.3638 142.875L71.8681 144.313ZM63.6541 127.164C63.1689 127.443 62.6717 127.522 62.1628 127.399C61.6712 127.267 61.2956 126.975 61.0361 126.525C60.7666 126.057 60.698 125.577 60.8303 125.086C60.98 124.584 61.2975 124.193 61.7827 123.914C62.268 123.634 62.7565 123.561 63.2481 123.693C63.7471 123.798 64.1263 124.076 64.3858 124.527C64.6553 124.995 64.7289 125.483 64.6065 125.992C64.4742 126.484 64.1568 126.874 63.6541 127.164Z" fill="white"/>
<path d="M100.62 110.447C101.778 109.857 102.907 109.562 104.008 109.563C105.126 109.555 106.166 109.878 107.128 110.533C108.09 111.187 108.924 112.21 109.632 113.6L113.785 121.753L111.219 123.06L107.216 115.201C106.517 113.829 105.652 112.968 104.621 112.618C103.607 112.258 102.495 112.387 101.283 113.005C100.374 113.468 99.6716 114.05 99.1759 114.751C98.6803 115.452 98.4223 116.246 98.402 117.132C98.3996 118.008 98.6616 118.963 99.1881 119.997L102.905 127.295L100.339 128.602L93.1226 114.434L95.582 113.181L97.529 117.004L96.6106 116.192C96.602 115.03 96.9472 113.945 97.6464 112.938C98.3455 111.931 99.3366 111.1 100.62 110.447Z" fill="white"/>
<path d="M149.698 105.424C148.134 106.091 146.617 106.357 145.147 106.223C143.695 106.082 142.398 105.591 141.257 104.751C140.135 103.904 139.264 102.753 138.644 101.3C138.024 99.8464 137.788 98.4253 137.934 97.0363C138.1 95.6395 138.601 94.393 139.438 93.2967C140.285 92.1742 141.408 91.3148 142.806 90.7185C144.223 90.1144 145.607 89.8936 146.96 90.0562C148.312 90.2187 149.535 90.7409 150.628 91.6225C151.732 92.478 152.606 93.66 153.249 95.1685C153.296 95.2789 153.342 95.4116 153.387 95.5666C153.449 95.7138 153.499 95.8557 153.535 95.9923L141.09 101.3L140.278 99.3961L151.344 94.6767L150.55 95.798C150.168 94.8519 149.618 94.0972 148.899 93.534C148.181 92.9707 147.377 92.6397 146.486 92.541C145.607 92.416 144.698 92.5536 143.76 92.9537C142.84 93.346 142.112 93.9068 141.574 94.6359C141.03 95.3466 140.716 96.1654 140.633 97.0923C140.542 98.0008 140.7 98.9333 141.108 99.8899L141.297 100.331C141.712 101.306 142.306 102.086 143.077 102.671C143.859 103.229 144.744 103.547 145.734 103.625C146.724 103.702 147.743 103.518 148.792 103.071C149.657 102.702 150.376 102.221 150.949 101.629C151.541 101.028 151.978 100.32 152.261 99.5038L154.453 100.591C154.12 101.646 153.544 102.588 152.723 103.416C151.92 104.237 150.912 104.906 149.698 105.424Z" fill="white"/>
<path d="M197.575 86.695L196.461 83.525L196.111 82.9804L194.211 77.5744C193.807 76.4234 193.156 75.6559 192.257 75.272C191.372 74.8625 190.259 74.8931 188.919 75.3639C188.032 75.6755 187.217 76.1315 186.474 76.7318C185.725 77.3132 185.144 77.9519 184.731 78.6481L182.883 77.0081C183.438 76.1135 184.197 75.3169 185.159 74.6182C186.134 73.894 187.216 73.323 188.405 72.9053C190.462 72.1826 192.222 72.1256 193.687 72.7345C195.152 73.3434 196.245 74.6761 196.968 76.7329L200.151 85.7899L197.575 86.695ZM192.71 88.5954C191.597 88.9866 190.549 89.1427 189.568 89.0637C188.605 88.978 187.781 88.6846 187.096 88.1833C186.404 87.6631 185.909 86.9785 185.611 86.1294C185.326 85.3181 185.256 84.5159 185.401 83.7228C185.566 82.9232 186.012 82.1727 186.741 81.4715C187.488 80.7636 188.608 80.1478 190.098 79.6239L194.853 77.9531L195.539 79.906L190.898 81.5371C189.539 82.0145 188.703 82.5625 188.391 83.1811C188.078 83.7997 188.035 84.4298 188.26 85.0714C188.519 85.8072 189.02 86.2988 189.764 86.5462C190.502 86.7746 191.389 86.7065 192.427 86.3418C193.446 85.9838 194.253 85.4457 194.849 84.7276C195.463 84.0029 195.788 83.1469 195.823 82.1596L197.017 83.8386C196.97 84.8515 196.586 85.7812 195.866 86.6278C195.14 87.4555 194.088 88.1114 192.71 88.5954Z" fill="white"/>
<path d="M280.46 65.6877L276.075 45.1505L279.009 44.5242L282.849 62.5089L293.968 60.135L294.513 62.6875L280.46 65.6877Z" fill="white"/>
<path d="M317.567 58.4875L314.998 42.7965L317.84 42.3311L320.409 58.0221L317.567 58.4875ZM315.924 39.544C315.372 39.6345 314.879 39.5328 314.446 39.239C314.032 38.9419 313.784 38.5368 313.699 38.0236C313.612 37.4907 313.717 37.0175 314.014 36.6041C314.331 36.1874 314.766 35.9338 315.318 35.8433C315.871 35.7528 316.354 35.8561 316.768 36.1532C317.198 36.4273 317.454 36.821 317.539 37.3341C317.626 37.867 317.522 38.3501 317.229 38.7833C316.932 39.1967 316.497 39.4503 315.924 39.544Z" fill="white"/>
<path d="M354.257 53.4869C352.727 53.6597 351.317 53.4766 350.029 52.9378C348.76 52.3968 347.709 51.5593 346.877 50.4256C346.044 49.2918 345.537 47.9201 345.356 46.3103C345.174 44.7005 345.363 43.2602 345.924 41.9892C346.483 40.6984 347.32 39.6478 348.437 38.8374C349.573 38.0248 350.906 37.5321 352.436 37.3593C353.807 37.2045 355.063 37.3646 356.204 37.8396C357.344 38.3147 358.29 39.1136 359.04 40.2365C359.811 41.3571 360.297 42.8117 360.499 44.6004C360.701 46.389 360.542 47.9165 360.02 49.183C359.519 50.4473 358.767 51.448 357.763 52.1853C356.757 52.9026 355.589 53.3365 354.257 53.4869ZM354.213 50.9559C355.206 50.8437 356.075 50.5141 356.818 49.9673C357.581 49.4182 358.144 48.7005 358.507 47.8142C358.888 46.9057 359.015 45.8951 358.89 44.7821C358.762 43.6493 358.413 42.7024 357.844 41.9415C357.293 41.1584 356.584 40.5843 355.718 40.2192C354.871 39.8519 353.951 39.7243 352.957 39.8365C351.944 39.951 351.065 40.2816 350.322 40.8285C349.579 41.3753 349.015 42.093 348.633 42.9816C348.248 43.8502 348.119 44.851 348.247 45.9838C348.373 47.0967 348.722 48.0535 349.296 48.8543C349.867 49.6351 350.576 50.2092 351.423 50.5765C352.269 50.9438 353.199 51.0703 354.213 50.9559ZM360.405 58.4685L359.277 48.482L359.161 44.7816L358.568 41.1351L358.087 36.8722L360.83 36.5626L363.267 58.1454L360.405 58.4685Z" fill="white"/>
<path d="M405.976 49.3875C404.617 49.4451 403.408 49.2462 402.348 48.7907C401.307 48.3343 400.476 47.6089 399.853 46.6143C399.25 45.599 398.915 44.312 398.849 42.7534L398.461 33.6116L401.339 33.4897L401.712 42.3017C401.778 43.8603 402.197 45.0136 402.97 45.7616C403.762 46.5087 404.838 46.8535 406.197 46.7959C407.196 46.7535 408.056 46.5169 408.779 46.0859C409.5 45.6349 410.044 45.0113 410.411 44.2151C410.777 43.3989 410.936 42.4313 410.889 41.3123L410.54 33.0996L413.418 32.9777L414.091 48.8634L411.364 48.979L411.182 44.6929L411.68 45.8128C411.205 46.8939 410.461 47.7462 409.446 48.3697C408.432 48.9932 407.275 49.3325 405.976 49.3875Z" fill="white"/>
<path d="M440.462 48.5054L440.586 32.6058L443.466 32.6283L443.342 48.5278L440.462 48.5054ZM442.05 29.5572C441.49 29.5528 441.022 29.3691 440.644 29.0062C440.287 28.6434 440.111 28.202 440.115 27.682C440.119 27.142 440.302 26.6934 440.665 26.3363C441.048 25.9792 441.519 25.8029 442.079 25.8073C442.639 25.8116 443.098 25.9952 443.455 26.358C443.833 26.701 444.019 27.1324 444.015 27.6524C444.011 28.1924 443.827 28.651 443.464 29.0282C443.102 29.3854 442.63 29.5617 442.05 29.5572Z" fill="white"/>
<path d="M481.515 49.9714C479.977 49.8797 478.62 49.4581 477.443 48.7066C476.285 47.9563 475.394 46.9514 474.768 45.6919C474.142 44.4323 473.877 42.994 473.973 41.3769C474.07 39.7597 474.503 38.3731 475.273 37.2169C476.045 36.0408 477.05 35.1491 478.288 34.5418C479.547 33.9357 480.944 33.6785 482.482 33.7703C483.819 33.8501 485.009 34.2217 486.052 34.8849C487.094 35.5482 487.899 36.4979 488.466 37.7339C489.053 38.971 489.293 40.488 489.186 42.2848C489.079 44.0816 488.67 45.5599 487.96 46.7197C487.269 47.8806 486.367 48.7383 485.252 49.2929C484.138 49.8275 482.892 50.0537 481.515 49.9714ZM481.904 47.4702C482.903 47.5298 483.815 47.3538 484.641 46.9423C485.487 46.532 486.164 45.9213 486.673 45.1102C487.204 44.2803 487.502 43.3063 487.569 42.1883C487.637 41.0504 487.456 40.0578 487.026 39.2107C486.616 38.3447 486.016 37.6578 485.225 37.1497C484.454 36.6429 483.569 36.3597 482.571 36.3001C481.553 36.2393 480.631 36.4147 479.805 36.8262C478.979 37.2377 478.301 37.8485 477.772 38.6584C477.244 39.4483 476.946 40.4123 476.878 41.5502C476.811 42.6683 476.992 43.6708 477.42 44.5579C477.849 45.425 478.449 46.1119 479.22 46.6188C479.991 47.1256 480.886 47.4094 481.904 47.4702ZM487.185 50.1296L487.441 45.8472L487.84 42.1745L487.761 38.4731L488.392 27.902L491.267 28.0735L489.94 50.294L487.185 50.1296Z" fill="white"/>
<path d="M577.258 62.739L581.538 42.1798L584.475 42.7913L580.727 60.7953L591.859 63.1126L591.327 65.6678L577.258 62.739Z" fill="white"/>
<path d="M625.178 74.2687C623.539 73.8182 622.185 73.0832 621.117 72.0637C620.068 71.0495 619.359 69.8588 618.988 68.4916C618.636 67.1297 618.67 65.687 619.088 64.1635C619.507 62.64 620.206 61.3802 621.185 60.384C622.183 59.3931 623.351 58.7289 624.688 58.3912C626.05 58.0395 627.464 58.0651 628.929 58.4679C630.414 58.876 631.636 59.5643 632.593 60.5327C633.551 61.5011 634.184 62.6705 634.491 64.0411C634.824 65.3977 634.773 66.8667 634.338 68.448C634.306 68.5637 634.259 68.6961 634.198 68.8451C634.155 68.9993 634.106 69.1413 634.05 69.271L621.003 65.6855L621.552 63.6895L633.152 66.8775L631.833 67.2617C632.122 66.2835 632.161 65.3504 631.949 64.4624C631.737 63.5744 631.313 62.8149 630.677 62.1839C630.066 61.539 629.269 61.0813 628.286 60.811C627.321 60.546 626.402 60.5319 625.528 60.7688C624.659 60.9863 623.904 61.4322 623.263 62.1062C622.626 62.761 622.17 63.5898 621.895 64.5927L621.768 65.0555C621.487 66.0776 621.466 67.0572 621.707 67.9944C621.971 68.9176 622.467 69.7176 623.194 70.3943C623.92 71.0711 624.833 71.5605 625.933 71.8626C626.839 72.1117 627.701 72.1827 628.519 72.0756C629.356 71.9737 630.138 71.6911 630.867 71.2277L631.908 73.4425C630.991 74.0617 629.953 74.4403 628.795 74.5783C627.657 74.7217 626.451 74.6185 625.178 74.2687Z" fill="white"/>
<path d="M671.259 94.6802C669.881 94.197 668.61 93.5288 667.447 92.6757C666.296 91.8481 665.441 90.9334 664.881 89.9316L666.918 88.2935C667.404 89.1423 668.098 89.9154 668.998 90.6125C669.891 91.3286 670.894 91.8819 672.008 92.2725C673.782 92.8947 675.23 92.9363 676.351 92.3972C677.473 91.8581 678.332 90.7392 678.928 89.0407L680.04 85.8701L681.365 82.9969L682.276 79.9465L683.716 75.8417L686.292 76.7453L681.744 89.7109C680.818 92.353 679.475 94.0652 677.717 94.8474C675.959 95.6296 673.806 95.5739 671.259 94.6802ZM673.123 88.2765C671.67 87.7667 670.474 87.008 669.534 86.0003C668.621 84.9803 668.016 83.8038 667.72 82.4709C667.444 81.1446 667.557 79.7643 668.06 78.3299C668.57 76.8767 669.344 75.7281 670.382 74.8841C671.445 74.0278 672.649 73.4963 673.993 73.2895C675.356 73.0894 676.764 73.2442 678.217 73.7539C679.501 74.2041 680.578 74.8787 681.45 75.7779C682.328 76.6582 682.89 77.7454 683.135 79.0396C683.399 80.3404 683.244 81.8118 682.668 83.4537C682.098 85.0768 681.304 86.3136 680.285 87.1643C679.285 88.0216 678.161 88.5385 676.912 88.7151C675.669 88.8728 674.407 88.7266 673.123 88.2765ZM674.269 86.0077C675.269 86.3586 676.229 86.4621 677.148 86.3183C678.068 86.1746 678.874 85.8108 679.566 85.227C680.277 84.6498 680.801 83.88 681.139 82.9175C681.477 81.955 681.548 81.0263 681.353 80.1314C681.177 79.2431 680.772 78.4651 680.137 77.7973C679.509 77.1107 678.695 76.592 677.695 76.2411C676.694 75.8903 675.725 75.7834 674.787 75.9206C673.874 76.0455 673.062 76.3965 672.351 76.9737C671.659 77.5575 671.144 78.3306 670.806 79.2931C670.469 80.2556 670.388 81.181 670.564 82.0693C670.758 82.9642 671.17 83.755 671.798 84.4416C672.445 85.1348 673.269 85.6569 674.269 86.0077Z" fill="white"/>
<path d="M720.523 107.639C718.963 106.965 717.724 106.049 716.808 104.891C715.911 103.741 715.373 102.463 715.196 101.058C715.037 99.6604 715.27 98.2364 715.897 96.7858C716.523 95.3353 717.39 94.1847 718.498 93.3342C719.624 92.4917 720.873 91.9961 722.244 91.8475C723.642 91.6884 725.038 91.9102 726.434 92.5127C727.848 93.1232 728.961 93.9745 729.775 95.0665C730.589 96.1586 731.053 97.4046 731.167 98.8047C731.308 100.194 731.053 101.642 730.403 103.148C730.356 103.258 730.291 103.382 730.209 103.521C730.146 103.668 730.077 103.802 730.003 103.922L717.582 98.5591L718.402 96.6587L729.447 101.427L728.087 101.625C728.51 100.696 728.678 99.7775 728.591 98.8686C728.504 97.9597 728.19 97.1487 727.648 96.4355C727.133 95.712 726.407 95.148 725.471 94.7437C724.553 94.3473 723.644 94.2056 722.746 94.3187C721.855 94.4135 721.046 94.7501 720.317 95.3285C719.595 95.8885 719.029 96.6459 718.616 97.6007L718.426 98.0414C718.006 99.0146 717.85 99.9819 717.957 100.943C718.091 101.894 718.471 102.755 719.097 103.527C719.722 104.298 720.558 104.909 721.605 105.361C722.468 105.734 723.312 105.924 724.136 105.931C724.979 105.947 725.794 105.776 726.58 105.418L727.303 107.756C726.309 108.242 725.229 108.472 724.063 108.448C722.915 108.432 721.735 108.162 720.523 107.639Z" fill="white"/>
<path d="M773.589 114.812C774.745 115.407 775.644 116.151 776.286 117.045C776.946 117.947 777.292 118.98 777.322 120.143C777.353 121.306 777.011 122.581 776.297 123.968L772.107 132.102L769.547 130.784L773.586 122.943C774.291 121.574 774.484 120.368 774.166 119.327C773.865 118.295 773.11 117.467 771.901 116.844C770.994 116.377 770.112 116.148 769.253 116.155C768.394 116.163 767.599 116.417 766.869 116.918C766.156 117.428 765.534 118.199 765.003 119.23L761.252 126.511L758.692 125.192L765.973 111.057L768.427 112.321L766.462 116.135L766.584 114.916C767.523 114.229 768.605 113.875 769.831 113.854C771.056 113.833 772.309 114.152 773.589 114.812Z" fill="white"/>
<path d="M809.908 153.833C808.593 153.03 807.592 152.021 806.905 150.805C806.235 149.6 805.919 148.294 805.957 146.888C805.995 145.482 806.436 144.087 807.28 142.704C808.124 141.322 809.158 140.3 810.38 139.641C811.614 138.964 812.919 138.648 814.298 138.693C815.694 138.748 817.049 139.177 818.363 139.979C819.507 140.677 820.383 141.564 820.993 142.639C821.602 143.713 821.867 144.93 821.788 146.287C821.726 147.655 821.227 149.108 820.289 150.644C819.351 152.181 818.296 153.294 817.125 153.985C815.971 154.686 814.771 155.02 813.526 154.987C812.292 154.936 811.086 154.552 809.908 153.833ZM811.425 151.807C812.279 152.328 813.167 152.6 814.089 152.624C815.029 152.659 815.914 152.438 816.744 151.96C817.602 151.476 818.323 150.756 818.906 149.8C819.5 148.827 819.806 147.866 819.823 146.916C819.868 145.959 819.661 145.071 819.2 144.251C818.757 143.441 818.109 142.776 817.255 142.255C816.384 141.724 815.488 141.446 814.565 141.422C813.643 141.398 812.758 141.619 811.911 142.086C811.074 142.536 810.358 143.247 809.764 144.22C809.181 145.176 808.87 146.147 808.832 147.131C808.804 148.098 809.011 148.986 809.455 149.795C809.898 150.605 810.555 151.275 811.425 151.807ZM814.841 156.633L817.076 152.971L819.152 149.915L820.819 146.609L826.336 137.57L828.794 139.07L817.197 158.071L814.841 156.633Z" fill="white"/>
<path d="M847.732 178.513C846.652 177.755 845.724 176.884 844.948 175.9C844.189 174.928 843.68 174.034 843.422 173.217L845.714 172.04C846.007 172.807 846.47 173.609 847.105 174.445C847.74 175.282 848.483 175.998 849.334 176.596C850.431 177.365 851.326 177.761 852.019 177.783C852.729 177.817 853.279 177.555 853.669 176.999C853.956 176.589 854.033 176.167 853.899 175.731C853.765 175.295 853.493 174.847 853.082 174.388C852.688 173.94 852.225 173.469 851.693 172.973C851.172 172.462 850.663 171.933 850.166 171.389C849.68 170.828 849.277 170.252 848.959 169.662C848.651 169.056 848.505 168.428 848.521 167.779C848.548 167.114 848.825 166.405 849.354 165.652C849.905 164.866 850.609 164.333 851.464 164.054C852.32 163.775 853.258 163.761 854.278 164.013C855.327 164.26 856.408 164.774 857.521 165.555C858.372 166.152 859.157 166.862 859.875 167.684C860.622 168.5 861.141 169.292 861.433 170.059L859.117 171.219C858.803 170.413 858.379 169.712 857.844 169.117C857.309 168.521 856.722 168 856.083 167.552C855.052 166.828 854.162 166.46 853.413 166.448C852.676 166.419 852.123 166.667 851.756 167.19C851.446 167.632 851.352 168.08 851.474 168.532C851.624 168.979 851.891 169.435 852.274 169.899C852.673 170.375 853.133 170.869 853.653 171.38C854.185 171.876 854.694 172.404 855.18 172.965C855.678 173.509 856.078 174.071 856.38 174.65C856.699 175.24 856.851 175.859 856.835 176.508C856.836 177.169 856.578 177.867 856.061 178.604C855.51 179.39 854.804 179.908 853.943 180.16C853.083 180.411 852.12 180.407 851.056 180.149C850.002 179.874 848.895 179.329 847.732 178.513Z" fill="white"/>
</svg>
