<svg width="510" height="430" viewBox="0 0 510 430" fill="none" xmlns="http://www.w3.org/2000/svg">
<mask id="mask0_23658_18435" style="mask-type:alpha" maskUnits="userSpaceOnUse" x="4" y="3" width="502" height="428">
<rect x="4.5" y="3.5" width="501" height="427" rx="12.5" fill="#1F2229" stroke="#333648"/>
</mask>
<g mask="url(#mask0_23658_18435)">
<g opacity="0.5">
<path d="M246.133 19.5577C250.547 19.8654 252.313 23.8385 252.895 37.9648C252.895 23.8719 255.431 19.5577 259.376 19.5577C255.403 18.9825 252.895 12.8022 252.895 0.000171661C252.342 12.8022 250.547 18.9825 246.133 19.5577Z" fill="white"/>
<path d="M362.236 59.7155C366.605 64.3556 365.28 65.6799 346.74 85.1035C365.28 65.6799 367.488 65.2385 371.4 69.2765C367.929 64.797 368.812 63.4725 390.443 43.1658C368.371 63.031 367.046 63.9141 362.236 59.7155Z" fill="white"/>
<path d="M277.03 59.5959C282.419 61.8212 283.124 65.7539 280.03 79.5497C283.678 65.9369 286.401 62.3667 292.48 63.5691C286.401 61.4838 286.543 55.2444 289.856 42.8786C286.008 55.1012 284.534 60.4789 277.03 59.5959Z" fill="white"/>
<path d="M355.322 113.486C357.118 119.034 354.579 122.118 342.065 128.698C354.798 122.659 359.282 122.421 362.304 127.83C359.955 121.849 364.8 117.915 376.366 112.428C364.562 117.415 359.51 119.775 355.322 113.486Z" fill="white"/>
<path d="M306.796 69.5322C311.376 73.1397 310.985 77.1159 304.255 89.5496C311.468 77.4426 315.06 74.748 320.582 77.5587C315.3 73.8984 317.134 67.9329 323.686 56.9349C316.658 67.6497 313.777 72.4234 306.796 69.5322Z" fill="white"/>
<path d="M367.036 142.606C367.255 148.432 363.972 150.71 350.14 153.637C364.036 151.289 368.416 152.28 369.852 158.308C369.219 151.913 374.951 149.445 387.574 147.313C374.859 148.9 369.355 149.797 367.036 142.606Z" fill="white"/>
<path d="M259.367 19.5577C254.953 19.8654 253.187 23.8385 252.605 37.9648C252.605 23.8719 250.069 19.5577 246.124 19.5577C250.097 18.9825 252.605 12.8022 252.605 0.000171661C253.158 12.8022 254.953 18.9825 259.367 19.5577Z" fill="white"/>
<path d="M143.257 59.7155C138.887 64.3556 140.212 65.6799 158.753 85.1035C140.212 65.6799 138.005 65.2385 134.093 69.2765C137.563 64.797 136.68 63.4725 115.049 43.1658C137.122 63.031 138.446 63.9141 143.257 59.7155Z" fill="white"/>
<path d="M87.3236 161.571C87.3801 167.944 89.2526 167.984 116.078 169.177C89.2526 167.984 87.3536 169.192 87.3236 174.814C86.7295 169.179 85.1755 168.834 55.5079 169.141C85.1888 168.21 86.756 167.931 87.3236 161.571Z" fill="white"/>
<path d="M423.286 161.571C423.229 167.944 421.357 167.984 394.531 169.177C421.357 167.984 423.256 169.192 423.286 174.814C423.88 169.179 425.434 168.834 455.101 169.141C425.421 168.21 423.853 167.931 423.286 161.571Z" fill="white"/>
<path d="M228.47 59.5959C223.081 61.8212 222.376 65.7539 225.47 79.5497C221.822 65.9369 219.099 62.3667 213.02 63.5691C219.099 61.4838 218.957 55.2444 215.644 42.8786C219.492 55.1012 220.966 60.4789 228.47 59.5959Z" fill="white"/>
<path d="M150.178 113.486C148.382 119.034 150.921 122.118 163.435 128.698C150.702 122.659 146.218 122.421 143.196 127.83C145.545 121.849 140.7 117.915 129.134 112.428C140.938 117.415 145.99 119.775 150.178 113.486Z" fill="white"/>
<path d="M198.696 69.5322C194.116 73.1397 194.507 77.1159 201.238 89.5496C194.024 77.4426 190.432 74.748 184.91 77.5587C190.192 73.8984 188.358 67.9329 181.806 56.9349C188.834 67.6497 191.716 72.4234 198.696 69.5322Z" fill="white"/>
<path d="M138.457 142.606C138.237 148.432 141.52 150.71 155.352 153.637C141.456 151.289 137.076 152.28 135.64 158.308C136.274 151.913 130.541 149.445 117.918 147.313C130.633 148.9 136.137 149.797 138.457 142.606Z" fill="white"/>
<path d="M246.133 327.267C250.547 326.96 252.313 322.987 252.895 308.86C252.895 322.953 255.431 327.267 259.376 327.267C255.403 327.843 252.895 334.023 252.895 346.825C252.342 334.023 250.547 327.843 246.133 327.267Z" fill="white"/>
<path d="M362.236 287.11C366.605 282.47 365.28 281.146 346.74 261.722C365.28 281.146 367.488 281.587 371.4 277.549C367.929 282.029 368.812 283.353 390.443 303.66C368.371 283.795 367.046 282.912 362.236 287.11Z" fill="white"/>
<path d="M277.03 287.229C282.419 285.004 283.124 281.071 280.03 267.276C283.678 280.888 286.401 284.459 292.48 283.256C286.401 285.341 286.543 291.581 289.856 303.947C286.008 291.724 284.534 286.346 277.03 287.229Z" fill="white"/>
<path d="M355.322 233.339C357.118 227.792 354.579 224.707 342.065 218.127C354.798 224.167 359.282 224.405 362.304 218.995C359.955 224.977 364.8 228.911 376.366 234.397C364.562 229.411 359.51 227.05 355.322 233.339Z" fill="white"/>
<path d="M306.796 277.293C311.376 273.686 310.985 269.709 304.255 257.276C311.468 269.383 315.06 272.077 320.582 269.266C315.3 272.927 317.134 278.892 323.686 289.89C316.658 279.176 313.777 274.402 306.796 277.293Z" fill="white"/>
<path d="M367.036 204.22C367.255 198.393 363.972 196.116 350.14 193.188C364.036 195.536 368.416 194.545 369.852 188.517C369.219 194.912 374.951 197.38 387.574 199.513C374.859 197.926 369.355 197.029 367.036 204.22Z" fill="white"/>
<path d="M458.684 237.77C458.903 231.943 455.62 229.666 441.788 226.738C455.684 229.086 460.064 228.095 461.5 222.068C460.867 228.463 466.599 230.93 479.223 233.063C466.507 231.476 461.004 230.579 458.684 237.77Z" fill="white"/>
<path d="M46.4566 237.77C46.2375 231.943 49.5202 229.666 63.3521 226.738C49.4561 229.086 45.0763 228.095 43.6403 222.068C44.2735 228.463 38.5411 230.93 25.918 233.063C38.6333 231.476 44.1369 230.579 46.4566 237.77Z" fill="white"/>
<path d="M458.684 105.66C458.903 111.486 455.62 113.764 441.788 116.691C455.684 114.344 460.064 115.334 461.5 121.362C460.867 114.967 466.599 112.499 479.223 110.367C466.507 111.954 461.004 112.851 458.684 105.66Z" fill="white"/>
<path d="M46.4488 105.66C46.2297 111.486 49.5124 113.764 63.3443 116.691C49.4483 114.344 45.0685 115.334 43.6325 121.362C44.2657 114.967 38.5333 112.499 25.9102 110.367C38.6255 111.954 44.1291 112.851 46.4488 105.66Z" fill="white"/>
<path d="M259.367 327.267C254.953 326.96 253.187 322.987 252.605 308.86C252.605 322.953 250.069 327.267 246.124 327.267C250.097 327.843 252.605 334.023 252.605 346.825C253.158 334.023 254.953 327.843 259.367 327.267Z" fill="white"/>
<path d="M143.257 287.11C138.887 282.47 140.212 281.146 158.753 261.722C140.212 281.146 138.005 281.587 134.093 277.549C137.563 282.029 136.68 283.353 115.049 303.66C137.122 283.795 138.446 282.912 143.257 287.11Z" fill="white"/>
<path d="M228.47 287.229C223.081 285.004 222.376 281.071 225.47 267.276C221.822 280.888 219.099 284.459 213.02 283.256C219.099 285.341 218.957 291.581 215.644 303.947C219.492 291.724 220.966 286.346 228.47 287.229Z" fill="white"/>
<path d="M150.178 233.339C148.382 227.792 150.921 224.707 163.435 218.127C150.702 224.167 146.218 224.405 143.196 218.995C145.545 224.977 140.7 228.911 129.134 234.397C140.938 229.411 145.99 227.05 150.178 233.339Z" fill="white"/>
<path d="M198.696 277.293C194.116 273.686 194.507 269.709 201.238 257.276C194.024 269.383 190.432 272.077 184.91 269.266C190.192 272.927 188.358 278.892 181.806 289.89C188.834 279.176 191.716 274.402 198.696 277.293Z" fill="white"/>
<path d="M138.457 204.22C138.237 198.393 141.52 196.116 155.352 193.188C141.456 195.536 137.076 194.545 135.64 188.517C136.274 194.912 130.541 197.38 117.918 199.513C130.633 197.926 136.137 197.029 138.457 204.22Z" fill="white"/>
</g>
</g>
</svg>
