<svg width="24" height="29" viewBox="0 0 24 29" fill="none" xmlns="http://www.w3.org/2000/svg">
<path fill-rule="evenodd" clip-rule="evenodd" d="M19.1126 4.81463C20.4202 5.73026 20.738 7.5326 19.8224 8.84025L9.50036 23.5817C8.58473 24.8893 6.7824 25.2071 5.47474 24.2915C4.16708 23.3759 3.84928 21.5735 4.76491 20.2659L15.0869 5.52445C16.0026 4.2168 17.8049 3.899 19.1126 4.81463L19.1126 4.81463ZM22.8254 10.9429C24.9023 7.9768 24.1814 3.8886 21.2153 1.81168L21.2153 1.81168C18.2491 -0.265238 14.1609 0.455625 12.084 3.42177L1.76196 18.1632C-0.314957 21.1293 0.405904 25.2175 3.37205 27.2944C6.3382 29.3714 10.4264 28.6505 12.5033 25.6844L22.8254 10.9429Z" fill="white"/>
</svg>
