<svg width="36" height="31" viewBox="0 0 36 31" fill="none" xmlns="http://www.w3.org/2000/svg">
<path d="M1 8.19459C1.12174 7.09895 1.87651 4.90769 3.92169 4.90769C6.47817 4.90769 6.47817 4.90769 7.39119 4.35987C8.30422 3.81205 9.39986 2.53381 11.4085 2.53381C13.4172 2.53381 14.9687 2.96425 16.3389 1.986C18.3475 0.551862 21.9996 0.734299 23.4605 2.19514C24.9213 3.65599 25.2865 3.26425 28.9387 3.44686C31.8603 3.59294 32.469 7.15984 32.4082 8.92503V17.6901C32.956 19.3335 33.7594 21.3787 34.0516 22.2552C34.4168 23.3509 35.5072 27.6015 31.4951 29.1943C28.2082 30.4991 25.8344 29.3769 22.5475 29.1943C19.2606 29.0116 18.3475 29.5595 15.9737 28.6464C14.0746 27.916 13.8493 25.7856 13.9741 24.8117C13.5522 24.927 13.0652 24.9943 12.5042 24.9943C9.58246 24.9943 8.66943 22.6204 8.66943 21.5248V19.8814C8.66943 20.977 7.90249 23.1683 4.83472 23.1683C1.76694 23.1683 1 20.4901 1 19.1509V8.19459Z" fill="#3D405A"/>
<path d="M24.3735 21.89C24.3735 21.89 25.1039 25.3595 28.2082 25.3595C31.5682 25.3595 32.4082 22.9248 32.4082 21.89V17.6901M24.3735 21.89V10.3859M24.3735 21.89C24.3735 21.89 24.3735 26.4817 20.7214 26.4817C17.0693 26.4817 16.5215 22.2552 16.5215 22.2552M16.5215 22.2552V9.83806M16.5215 22.2552C16.5215 22.2552 15.9737 24.2655 13.9741 24.8117M8.66943 19.8814V21.5248C8.66943 22.6204 9.58246 24.9943 12.5042 24.9943C13.0652 24.9943 13.5522 24.927 13.9741 24.8117M8.66943 19.8814V11.4815M8.66943 19.8814C8.66943 20.977 7.90249 23.1683 4.83472 23.1683C1.76694 23.1683 1 20.4901 1 19.1509V8.19459C1.12174 7.09895 1.87651 4.90769 3.92169 4.90769C6.47817 4.90769 6.47817 4.90769 7.39119 4.35987C8.30422 3.81205 9.39986 2.53381 11.4085 2.53381C13.4172 2.53381 14.9687 2.96425 16.3389 1.986C18.3475 0.551862 21.9996 0.734299 23.4605 2.19514C24.9213 3.65599 25.2865 3.26425 28.9387 3.44686C31.8603 3.59294 32.469 7.15984 32.4082 8.92503V17.6901M32.4082 17.6901C32.956 19.3335 33.7594 21.3787 34.0516 22.2552C34.4168 23.3509 35.5072 27.6016 31.4951 29.1943C28.2082 30.4991 25.8344 29.3769 22.5475 29.1943C19.2606 29.0116 18.3475 29.5595 15.9737 28.6464C14.0746 27.916 13.8493 25.7856 13.9741 24.8117" stroke="#6E7295" stroke-width="1.5" stroke-linecap="round"/>
</svg>
