<svg width="34" height="14" viewBox="0 0 34 14" fill="none" xmlns="http://www.w3.org/2000/svg">
<rect width="34" height="14" rx="4" fill="#EBF479"/>
<path d="M3.58308 11V2.6H4.86708L10.1351 9.068H9.49908V2.6H11.0471V11H9.76308L4.49508 4.532H5.13108V11H3.58308ZM16.1659 11.084C15.4539 11.084 14.8299 10.944 14.2939 10.664C13.7659 10.376 13.3539 9.984 13.0579 9.488C12.7699 8.992 12.6259 8.428 12.6259 7.796C12.6259 7.156 12.7659 6.592 13.0459 6.104C13.3339 5.608 13.7259 5.22 14.2219 4.94C14.7259 4.66 15.2979 4.52 15.9379 4.52C16.5619 4.52 17.1179 4.656 17.6059 4.928C18.0939 5.2 18.4779 5.584 18.7579 6.08C19.0379 6.576 19.1779 7.16 19.1779 7.832C19.1779 7.896 19.1739 7.968 19.1659 8.048C19.1659 8.128 19.1619 8.204 19.1539 8.276H13.8139V7.28H18.3619L17.7739 7.592C17.7819 7.224 17.7059 6.9 17.5459 6.62C17.3859 6.34 17.1659 6.12 16.8859 5.96C16.6139 5.8 16.2979 5.72 15.9379 5.72C15.5699 5.72 15.2459 5.8 14.9659 5.96C14.6939 6.12 14.4779 6.344 14.3179 6.632C14.1659 6.912 14.0899 7.244 14.0899 7.628V7.868C14.0899 8.252 14.1779 8.592 14.3539 8.888C14.5299 9.184 14.7779 9.412 15.0979 9.572C15.4179 9.732 15.7859 9.812 16.2019 9.812C16.5619 9.812 16.8859 9.756 17.1739 9.644C17.4619 9.532 17.7179 9.356 17.9419 9.116L18.7459 10.04C18.4579 10.376 18.0939 10.636 17.6539 10.82C17.2219 10.996 16.7259 11.084 16.1659 11.084ZM21.9176 11L19.5656 4.592H20.9816L22.9976 10.244H22.3256L24.4376 4.592H25.6976L27.7496 10.244H27.0896L29.1656 4.592H30.4976L28.1336 11H26.6936L24.8216 5.996H25.2656L23.3576 11H21.9176Z" fill="black"/>
</svg>
