<svg width="26" height="26" viewBox="0 0 26 26" fill="none" xmlns="http://www.w3.org/2000/svg">
<path d="M12.5951 0.5587C12.7948 0.283226 13.2052 0.283226 13.4049 0.5587L14.7571 2.42465C14.9104 2.63632 15.201 2.69411 15.4237 2.55725L17.387 1.3508C17.6769 1.17269 18.0561 1.32978 18.1351 1.66067L18.6703 3.90205C18.731 4.1563 18.9773 4.32088 19.2355 4.27967L21.511 3.91639C21.847 3.86275 22.1372 4.15301 22.0836 4.48896L21.7203 6.76453C21.6791 7.02266 21.8437 7.26897 22.098 7.32968L24.3393 7.86487C24.6702 7.94388 24.8273 8.32312 24.6492 8.61297L23.4427 10.5763C23.3059 10.799 23.3637 11.0896 23.5753 11.2429L25.4413 12.5951C25.7168 12.7948 25.7168 13.2052 25.4413 13.4049L23.5753 14.7571C23.3637 14.9104 23.3059 15.201 23.4427 15.4237L24.6492 17.387C24.8273 17.6769 24.6702 18.0561 24.3393 18.1351L22.098 18.6703C21.8437 18.731 21.6791 18.9773 21.7203 19.2355L22.0836 21.511C22.1372 21.847 21.847 22.1372 21.511 22.0836L19.2355 21.7203C18.9773 21.6791 18.731 21.8437 18.6703 22.098L18.1351 24.3393C18.0561 24.6702 17.6769 24.8273 17.387 24.6492L15.4237 23.4427C15.201 23.3059 14.9104 23.3637 14.7571 23.5753L13.4049 25.4413C13.2052 25.7168 12.7948 25.7168 12.5951 25.4413L11.2429 23.5753C11.0896 23.3637 10.799 23.3059 10.5763 23.4427L8.61297 24.6492C8.32312 24.8273 7.94388 24.6702 7.86487 24.3393L7.32968 22.098C7.26897 21.8437 7.02266 21.6791 6.76453 21.7203L4.48896 22.0836C4.15301 22.1372 3.86275 21.847 3.91639 21.511L4.27967 19.2355C4.32088 18.9773 4.1563 18.731 3.90205 18.6703L1.66067 18.1351C1.32978 18.0561 1.17269 17.6769 1.3508 17.387L2.55725 15.4237C2.69411 15.201 2.63632 14.9104 2.42465 14.7571L0.5587 13.4049C0.283226 13.2052 0.283226 12.7948 0.5587 12.5951L2.42465 11.2429C2.63632 11.0896 2.69411 10.799 2.55725 10.5763L1.3508 8.61297C1.17269 8.32312 1.32978 7.94388 1.66067 7.86487L3.90205 7.32968C4.1563 7.26897 4.32088 7.02266 4.27967 6.76453L3.91639 4.48896C3.86275 4.15301 4.15301 3.86275 4.48896 3.91639L6.76453 4.27967C7.02266 4.32088 7.26897 4.1563 7.32968 3.90205L7.86487 1.66067C7.94388 1.32978 8.32312 1.17269 8.61297 1.3508L10.5763 2.55725C10.799 2.69411 11.0896 2.63632 11.2429 2.42465L12.5951 0.5587Z" fill="#6E6CFF"/>
<path d="M14.7094 17.4256L15.7916 9.32983L17.1439 9.69218L16.4037 14.6185L18.3681 10.0305L19.4402 10.3178L18.879 15.2714L20.6985 10.6446L22.0315 11.0018L18.9305 18.5566L17.5782 18.1943L18.1429 13.0346L16.0907 17.7957L14.7094 17.4256Z" fill="black"/>
<path d="M10.0586 16.1795L12.155 8.35547L15.5647 9.2691L15.2697 10.3703L13.4538 9.88368L12.8973 11.9604L14.2979 12.3357L14.0002 13.4465L12.5997 13.0712L11.9422 15.5247L13.7775 16.0164L13.4876 17.0983L10.0586 16.1795Z" fill="black"/>
<path d="M5 14.824L7.09644 7L8.20725 7.29764L8.8537 11.8397L9.94592 7.76352L11.2596 8.11551L9.16314 15.9395L8.10062 15.6548L7.52147 10.8616L6.36196 15.1889L5 14.824Z" fill="black"/>
</svg>
