<svg width="34" height="34" viewBox="0 0 34 34" fill="none" xmlns="http://www.w3.org/2000/svg">
  <rect x="1" y="1" width="32" height="32" rx="16" fill="#2A2A2A" stroke="#343434" stroke-width="2"/>
  <path fill-rule="evenodd" clip-rule="evenodd" d="M26.3883 13.4679L13.5439 26.4254C12.7916 26.1472 12.0819 25.7811 11.4271 25.3398L25.2854 11.3596C25.7321 12.0111 26.1039 12.718 26.3883 13.4679ZM17.9653 27.0004C22.7702 26.5497 26.5887 22.7043 26.9999 17.8863L17.9653 27.0004ZM22.7972 8.83445C21.1643 7.67896 19.1706 7 17.0183 7C11.4853 7 7 11.4871 7 17.0223C7 19.2054 7.69776 21.2256 8.88236 22.8716L22.7972 8.83445ZM9.68132 18.6587L18.7299 9.5718C18.1961 9.45261 17.6412 9.38975 17.0716 9.38975C12.886 9.38975 9.49296 12.7842 9.49296 16.9714C9.49296 17.5513 9.55805 18.116 9.68132 18.6587Z" fill="#C3FF61"/>
</svg>
