<svg width="66" height="66" viewBox="0 0 66 66" fill="none" xmlns="http://www.w3.org/2000/svg">
  <rect x="1.5" y="1.5" width="63" height="63" rx="13.5" fill="black" stroke="#1A1A1A" stroke-width="3"/>
  <path fill-rule="evenodd" clip-rule="evenodd" d="M18.6336 29.2063C18.551 29.1237 18.551 28.9898 18.6336 28.9072L23.6212 23.9195C23.7038 23.837 23.8377 23.837 23.9203 23.9195L28.908 28.9072C28.9906 28.9898 28.9906 29.1237 28.908 29.2063L23.9203 34.1939C23.8377 34.2765 23.7038 34.2765 23.6212 34.1939L18.6336 29.2063ZM36.6065 36.6069C36.524 36.5243 36.524 36.3904 36.6065 36.3079L41.5942 31.3202C41.6768 31.2376 41.8107 31.2376 41.8933 31.3202L46.8809 36.3078C46.9635 36.3904 46.9635 36.5243 46.8809 36.6069L41.8933 41.5946C41.8107 41.6772 41.6768 41.6772 41.5942 41.5946L36.6065 36.6069ZM35.5504 12.2894C35.4678 12.2068 35.334 12.2068 35.2514 12.2894L24.977 22.5638C24.8944 22.6464 24.8944 22.7803 24.977 22.8629L29.9646 27.8505C30.0472 27.9331 30.1811 27.9331 30.2637 27.8505L40.5381 17.5761C40.6207 17.4936 40.6207 17.3597 40.5381 17.2771L35.5504 12.2894ZM24.977 48.2365C24.8944 48.1539 24.8944 48.02 24.977 47.9374L35.2514 37.663C35.334 37.5804 35.4678 37.5804 35.5504 37.663L40.5381 42.6507C40.6207 42.7333 40.6207 42.8672 40.5381 42.9497L30.2637 53.2242C30.1811 53.3067 30.0472 53.3067 29.9646 53.2242L24.977 48.2365ZM35.5504 24.9762C35.4678 24.8936 35.334 24.8936 35.2514 24.9762L24.977 35.2506C24.8944 35.3332 24.8944 35.4671 24.977 35.5497L29.9646 40.5373C30.0472 40.6199 30.1811 40.6199 30.2637 40.5373L40.5381 30.2629C40.6207 30.1804 40.6207 30.0465 40.5381 29.9639L35.5504 24.9762Z" fill="white"/>
</svg>
