<svg width="34" height="34" viewBox="0 0 34 34" fill="none" xmlns="http://www.w3.org/2000/svg">
        <rect x="1" y="1" width="32" height="32" rx="16" fill="#D9F0F0" stroke="#343434" stroke-width="2" />
        <path fill-rule="evenodd" clip-rule="evenodd"
              d="M16.9249 8.87537L20.093 7.05043C20.3448 6.90536 20.6568 7.0906 20.6568 7.38521V7.46394C20.6568 7.87142 20.8471 8.25463 21.1693 8.49629L24.2585 10.8129C25.3193 11.6084 25.2257 13.2519 24.0817 13.9172L21.1305 15.6337C20.4152 16.0497 20.3571 17.0775 21.0207 17.5744L24.2532 19.9948C25.3155 20.7904 25.2216 22.4359 24.0759 23.1008L20.8911 24.949C20.6393 25.0951 20.3263 24.9099 20.3263 24.6148V24.5188C20.3263 24.1134 20.1379 23.7318 19.8184 23.4899L16.7387 21.1584C15.6819 20.3584 15.7822 18.7163 16.928 18.0556L19.8469 16.3726C20.5623 15.9601 20.6258 14.9353 19.967 14.4347L16.7322 11.9765C15.6778 11.1752 15.7797 9.53502 16.9249 8.87537ZM9.92486 11.8754L13.093 10.0504C13.3448 9.90535 13.6568 10.0906 13.6568 10.3852V10.4639C13.6568 10.8714 13.8471 11.2546 14.1693 11.4963L17.2585 13.8129C18.3193 14.6084 18.2257 16.2519 17.0818 16.9172L14.1305 18.6337C13.4152 19.0497 13.3571 20.0775 14.0207 20.5744L17.2531 22.9948C18.3156 23.7903 18.2216 25.4359 17.0759 26.1008L13.8911 27.949C13.6393 28.0951 13.3263 27.9099 13.3263 27.6148V27.5188C13.3263 27.1134 13.1379 26.7318 12.8184 26.4899L9.73866 24.1583C8.68194 23.3583 8.78215 21.7163 9.928 21.0556L12.847 19.3726C13.5623 18.9601 13.6258 17.9353 12.9669 17.4347L9.73222 14.9765C8.6778 14.1752 8.77969 12.535 9.92486 11.8754Z"
              fill="#075A5A" />
      </svg>