<svg width="66" height="66" viewBox="0 0 66 66" fill="none" xmlns="http://www.w3.org/2000/svg">
  <rect x="1.5" y="1.5" width="63" height="63" rx="13.5" fill="black" stroke="#1A1A1A" stroke-width="3"/>
  <path fill-rule="evenodd" clip-rule="evenodd" d="M15.4396 14.5386C14.9423 14.5386 14.5391 14.9418 14.5391 15.4391V50.5611C14.5391 51.0584 14.9423 51.4617 15.4396 51.4617H31.6498V37.0526C31.6498 36.5553 32.0529 36.1521 32.5503 36.1521C33.0477 36.1521 33.4509 36.5553 33.4509 37.0526V51.4617H50.5616C51.0589 51.4617 51.4621 51.0584 51.4621 50.5611V33.4504H37.0531C36.5558 33.4504 36.1526 33.0472 36.1526 32.5498C36.1526 32.0525 36.5558 31.6493 37.0531 31.6493H51.4621V15.4391C51.4621 14.9418 51.0589 14.5386 50.5616 14.5386H33.4509V28.9476C33.4509 29.4449 33.0477 29.8481 32.5503 29.8481C32.0529 29.8481 31.6498 29.4449 31.6498 28.9476V14.5386H15.4396Z" fill="#FF4500"/>
</svg>
