<svg width="66" height="66" viewBox="0 0 66 66" fill="none" xmlns="http://www.w3.org/2000/svg">
  <rect x="1.5" y="1.5" width="63" height="63" rx="13.5" fill="black" stroke="#DFFE00" stroke-width="3"/>
  <path fill-rule="evenodd" clip-rule="evenodd" d="M50.8388 26.2923L26.4366 50.9093C25.0059 50.3803 23.6561 49.6843 22.411 48.8449L48.7417 22.2827C49.5912 23.5215 50.2982 24.866 50.8388 26.2923ZM34.839 51.9999C43.9641 51.1416 51.2157 43.839 51.9991 34.6887L34.839 51.9999ZM44.0139 17.4851C40.9115 15.2899 37.1237 14 33.0346 14C22.5221 14 14 22.5255 14 33.0422C14 37.1899 15.3256 41.0279 17.5761 44.1554L44.0139 17.4851ZM19.0932 36.1581L36.2886 18.8898C35.2733 18.6628 34.2174 18.543 33.1336 18.543C25.1811 18.543 18.7344 24.9923 18.7344 32.9479C18.7344 34.0513 18.8584 35.1258 19.0932 36.1581Z" fill="#C3FF61"/>
</svg>
