<svg width="136" height="136" viewBox="0 0 136 136" fill="none" xmlns="http://www.w3.org/2000/svg">
<g filter="url(#filter0_d_15811_7420)">
<path fill-rule="evenodd" clip-rule="evenodd" d="M39.9778 109.684C62.0568 122.431 90.2892 114.866 103.037 92.7871C115.784 70.7081 108.219 42.4757 86.14 29.7283C64.061 16.981 35.8286 24.5458 23.0812 46.6249C10.3339 68.7039 17.8987 96.9363 39.9778 109.684ZM55.3982 82.9743C62.7262 87.2051 72.0965 84.6944 76.3274 77.3664C80.5582 70.0383 78.0474 60.668 70.7194 56.4372C63.3914 52.2064 54.0211 54.7171 49.7903 62.0452C45.5594 69.3732 48.0702 78.7435 55.3982 82.9743Z" fill="#ACFCED"/>
<circle cx="63.0589" cy="69.7057" r="15.5046" transform="rotate(30 63.0589 69.7057)" stroke="black" stroke-width="2"/>
<path d="M31.907 75.3267C33.5067 84.1686 38.8406 92.275 47.2318 97.1196C55.6229 101.964 65.3101 102.53 73.7674 99.4948" stroke="black" stroke-width="2" stroke-linecap="round"/>
<circle cx="81.3516" cy="94.7356" r="4.61622" transform="rotate(30 81.3516 94.7356)" fill="black"/>
<circle cx="32.2363" cy="66.3786" r="4.61622" transform="rotate(30 32.2363 66.3786)" fill="black"/>
<circle cx="63.0589" cy="69.7066" r="41.8866" transform="rotate(30 63.0589 69.7066)" stroke="black" stroke-width="2"/>
<path d="M43.4476 57.6606C42.7906 58.2698 42.0866 58.7263 41.3354 59.0301C40.5843 59.3339 39.8238 59.4864 39.0538 59.4875C38.2845 59.4736 37.5471 59.3137 36.8415 59.0078C36.136 58.702 35.4968 58.2401 34.9238 57.6222C34.3508 57.0043 33.9384 56.3321 33.6865 55.6056C33.4347 54.879 33.3344 54.1355 33.3857 53.3752C33.4376 52.5997 33.6433 51.8489 34.0027 51.1227C34.3622 50.3966 34.8705 49.7289 35.5275 49.1197C36.1923 48.5032 36.8963 48.0467 37.6397 47.7501C38.3908 47.4464 39.1511 47.3014 39.9204 47.3153C40.6825 47.3214 41.4163 47.4774 42.1218 47.7833C42.8352 48.0819 43.4783 48.5402 44.0513 49.1581C44.6243 49.7759 45.0364 50.4557 45.2877 51.1973C45.5396 51.9238 45.6399 52.6673 45.5886 53.4277C45.5372 54.1881 45.3318 54.9314 44.9724 55.6575C44.6207 56.3764 44.1125 57.0441 43.4476 57.6606ZM41.6634 55.7365C41.9763 55.4464 42.2149 55.1233 42.3793 54.7672C42.5515 54.4039 42.6411 54.0298 42.648 53.6452C42.6556 53.2454 42.5799 52.8501 42.421 52.4591C42.27 52.061 42.0313 51.6859 41.7049 51.3339C41.3713 50.9741 41.0152 50.7079 40.6368 50.5351C40.259 50.3472 39.8741 50.2459 39.4821 50.2312C39.0908 50.2013 38.7074 50.2586 38.3322 50.4029C37.9647 50.54 37.6245 50.7536 37.3117 51.0437C36.9988 51.3338 36.7563 51.6606 36.5841 52.0239C36.4197 52.38 36.3338 52.758 36.3262 53.1577C36.3193 53.5424 36.3913 53.9338 36.5423 54.332C36.694 54.7151 36.9366 55.0865 37.2702 55.4463C37.5966 55.7983 37.9487 56.0682 38.3266 56.256C38.7122 56.4366 39.1008 56.5419 39.4921 56.5717C39.8841 56.5865 40.2637 56.5253 40.6312 56.3882C41.0065 56.2439 41.3506 56.0266 41.6634 55.7365Z" fill="black"/>
<path d="M49.2883 50.1793L44.865 39.8898L49.7304 37.7982C50.8672 37.3095 51.9573 37.0905 53.0008 37.1412C54.0443 37.1918 54.9705 37.4961 55.7792 38.0541C56.5978 38.6078 57.2346 39.4138 57.6895 40.4722C58.1403 41.5207 58.2871 42.5374 58.1299 43.5222C57.9783 44.493 57.562 45.3744 56.8807 46.1665C56.1995 46.9586 55.2906 47.599 54.1538 48.0877L49.2883 50.1793ZM51.2004 46.6056L53.0378 45.8158C53.6258 45.563 54.089 45.2361 54.4275 44.8352C54.7716 44.4202 54.9755 43.9494 55.0394 43.4227C55.099 42.8862 55.0024 42.324 54.7497 41.736C54.4927 41.1382 54.1512 40.6813 53.725 40.3652C53.2989 40.0492 52.819 39.8781 52.2853 39.8521C51.7573 39.8121 51.1992 39.9185 50.6113 40.1712L48.7738 40.9611L51.2004 46.6056Z" fill="black"/>
<path d="M64.3888 47.004L64.7939 42.2854L65.3644 44.2454L61.0906 35.4796L64.4224 35.7657L67.5063 42.1168L65.5774 41.9512L69.7149 36.2202L72.7756 36.483L67.086 44.3932L67.9503 42.5564L67.5452 47.2751L64.3888 47.004Z" fill="black"/>
<path d="M76.151 50.6881C75.375 50.1989 74.6858 49.632 74.0834 48.9874C73.4957 48.3395 73.073 47.7199 72.8153 47.1287L74.9409 45.7073C75.1943 46.2454 75.5393 46.7781 75.976 47.3056C76.4273 47.8297 76.9282 48.2653 77.4786 48.6123C77.8485 48.8456 78.1662 49.0017 78.4316 49.0808C78.7027 49.1508 78.922 49.163 79.0895 49.1173C79.2717 49.0682 79.4112 48.967 79.5079 48.8136C79.6444 48.5971 79.6533 48.3631 79.5344 48.1116C79.4155 47.8601 79.2238 47.5942 78.9592 47.3139C78.6946 47.0336 78.3939 46.7305 78.0571 46.4047C77.7293 46.0846 77.4113 45.739 77.1029 45.3681C76.8036 45.0028 76.5586 44.6214 76.3679 44.2238C76.183 43.8172 76.0936 43.3888 76.0999 42.9389C76.1119 42.4799 76.2772 41.9977 76.5957 41.4924C76.9541 40.924 77.4318 40.5063 78.0287 40.2396C78.6346 39.9785 79.337 39.9044 80.136 40.0172C80.9349 40.13 81.7991 40.4794 82.7285 41.0653C83.3511 41.4578 83.9146 41.914 84.4191 42.4338C84.9383 42.9503 85.3472 43.4918 85.6458 44.0583L83.5658 45.5274C83.2682 44.9993 82.9354 44.5373 82.5672 44.1412C82.2047 43.7362 81.8159 43.4028 81.4008 43.1411C81.0309 42.9079 80.7075 42.7607 80.4308 42.6997C80.1597 42.6297 79.9347 42.6266 79.7558 42.6903C79.5769 42.754 79.4362 42.8671 79.3338 43.0295C79.203 43.2371 79.1925 43.4637 79.3024 43.7095C79.4269 43.952 79.6215 44.2134 79.8861 44.4937C80.1654 44.7706 80.469 45.0692 80.7967 45.3893C81.1335 45.7152 81.4516 46.0607 81.7509 46.4259C82.065 46.7879 82.3145 47.1721 82.4994 47.5788C82.6901 47.9764 82.7749 48.4019 82.7539 48.8552C82.7476 49.3052 82.5881 49.7783 82.2752 50.2746C81.9282 50.825 81.4488 51.2352 80.8372 51.5053C80.2403 51.7721 79.5424 51.849 78.7434 51.7362C77.9535 51.6291 77.0894 51.2798 76.151 50.6881Z" fill="black"/>
<path d="M83.4299 59.3406C82.9711 58.5463 82.6252 57.7237 82.3923 56.8727C82.174 56.0257 82.0885 55.2805 82.1357 54.6373L84.6787 54.3693C84.6524 54.9635 84.7096 55.5957 84.8503 56.2658C85.0056 56.9398 85.246 57.5585 85.5715 58.122C85.7903 58.5006 85.9987 58.7868 86.1967 58.9803C86.404 59.1685 86.5924 59.2814 86.7619 59.319C86.946 59.3605 87.1166 59.3359 87.2736 59.2452C87.4953 59.1171 87.6121 58.9141 87.624 58.6362C87.6359 58.3583 87.5901 58.0337 87.4865 57.6624C87.3828 57.2912 87.2579 56.8829 87.1116 56.4377C86.9706 56.0018 86.8501 55.5479 86.7499 55.076C86.6551 54.6134 86.616 54.1618 86.6324 53.7211C86.6581 53.2751 86.7785 52.8545 86.9936 52.4592C87.218 52.0586 87.5888 51.7089 88.106 51.4101C88.6879 51.074 89.3051 50.9268 89.9575 50.9688C90.6153 51.0199 91.2715 51.2814 91.926 51.7533C92.5804 52.2252 93.1825 52.9369 93.732 53.8882C94.1002 54.5255 94.3865 55.1916 94.5908 55.8866C94.8098 56.5855 94.9194 57.2551 94.9198 57.8954L92.395 58.2268C92.3776 57.6209 92.2982 57.057 92.1568 56.5351C92.0247 56.0078 91.8359 55.5317 91.5905 55.1069C91.3717 54.7282 91.1541 54.4474 90.9375 54.2645C90.7303 54.0763 90.5326 53.9687 90.3446 53.9418C90.1566 53.9149 89.9795 53.9495 89.8132 54.0455C89.6008 54.1683 89.486 54.3639 89.4687 54.6326C89.466 54.9052 89.5165 55.2271 89.6201 55.5984C89.7383 55.9736 89.8679 56.3791 90.0088 56.8151C90.1551 57.2603 90.2757 57.7142 90.3705 58.1768C90.4798 58.6433 90.5217 59.0996 90.496 59.5456C90.4795 59.9862 90.3565 60.4022 90.1268 60.7936C89.9117 61.1889 89.5501 61.5333 89.0421 61.8267C88.4787 62.1522 87.8635 62.292 87.1964 62.2462C86.544 62.2043 85.8905 61.9474 85.236 61.4755C84.5869 61.0128 83.9848 60.3012 83.4299 59.3406Z" fill="black"/>
<path d="M92.6446 69.2579L92.4643 74.4548L90.0977 74.3727L90.278 69.1758L92.6446 69.2579ZM88.2235 69.3287L88.0204 75.1811L85.5739 75.0963L85.8857 66.1097L97.079 66.498L96.7744 75.2768L94.3278 75.1919L94.5237 69.5473L88.2235 69.3287Z" fill="black"/>
<path d="M84.6768 78.9335L88.9343 81.008L86.9003 80.8356L96.6165 79.999L95.1517 83.0051L88.1165 83.5996L88.9645 81.8592L92.825 87.7804L91.4794 90.542L86.1434 82.3891L87.5467 83.8559L83.2892 81.7815L84.6768 78.9335Z" fill="black"/>
</g>
<defs>
<filter id="filter0_d_15811_7420" x="14.889" y="23.5361" width="94.3398" height="94.3398" filterUnits="userSpaceOnUse" color-interpolation-filters="sRGB">
<feFlood flood-opacity="0" result="BackgroundImageFix"/>
<feColorMatrix in="SourceAlpha" type="matrix" values="0 0 0 0 0 0 0 0 0 0 0 0 0 0 0 0 0 0 127 0" result="hardAlpha"/>
<feOffset dx="-2" dy="2"/>
<feComposite in2="hardAlpha" operator="out"/>
<feColorMatrix type="matrix" values="0 0 0 0 0 0 0 0 0 0 0 0 0 0 0 0 0 0 0.25 0"/>
<feBlend mode="normal" in2="BackgroundImageFix" result="effect1_dropShadow_15811_7420"/>
<feBlend mode="normal" in="SourceGraphic" in2="effect1_dropShadow_15811_7420" result="shape"/>
</filter>
</defs>
</svg>
