<svg width="55" height="55" viewBox="0 0 55 55" fill="none" xmlns="http://www.w3.org/2000/svg">
  <path d="M55 27.5C55 12.3122 42.6878 0 27.5 0C12.3122 0 0 12.3122 0 27.5C0 42.6878 12.3122 55 27.5 55C42.6878 55 55 42.6878 55 27.5Z" fill="#6BF9D8"/>
  <path fill-rule="evenodd" clip-rule="evenodd" d="M11.9475 14.4713L14.6275 11.7913L25.3375 22.5014C24.6876 22.7783 24.0787 23.1818 23.5484 23.7121C23.1378 24.1227 22.803 24.5806 22.5443 25.0682L11.9475 14.4713ZM22.3426 29.9745L11.7891 40.528L14.4691 43.208L24.9152 32.7618C24.4236 32.5025 23.9621 32.1658 23.5484 31.7522C23.0213 31.2251 22.6193 30.6203 22.3426 29.9745ZM30.2325 32.7563L40.5343 43.0582L43.2144 40.3781L32.7993 29.963C32.5224 30.613 32.1186 31.222 31.5884 31.7522C31.1778 32.1628 30.7199 32.4975 30.2325 32.7563ZM32.5982 25.0788L43.0559 14.6211L40.3759 11.9411L29.8109 22.5062C30.4564 22.7831 31.0614 23.1849 31.5884 23.7121C32.0021 24.1258 32.3386 24.5873 32.5982 25.0788Z" fill="#2D2E33"/>
</svg>
