<svg width="56" height="56" viewBox="0 0 56 56" fill="none" xmlns="http://www.w3.org/2000/svg">
  <path d="M27.9478 2.98741C31.3197 2.98741 34.5888 3.64833 37.6645 4.95258C39.1422 5.57826 40.5701 6.35376 41.9041 7.25849C43.2264 8.15442 44.4696 9.18253 45.6013 10.3135C46.7331 11.4473 47.7593 12.6928 48.6506 14.0176C49.5508 15.3541 50.3278 16.7847 50.9523 18.2653C52.254 21.3467 52.9138 24.6219 52.9138 27.9999C52.9138 31.3781 52.254 34.6533 50.9523 37.7347C50.3278 39.2152 49.5537 40.6457 48.6506 41.9823C47.7564 43.3072 46.7302 44.5526 45.6013 45.6865C44.4696 46.8203 43.2264 47.8485 41.9041 48.7414C40.5701 49.6462 39.1422 50.4218 37.6645 51.0474C34.5888 52.3517 31.3197 53.0125 27.9478 53.0125C24.576 53.0125 21.3069 52.3517 18.2311 51.0474C16.7535 50.4218 15.3256 49.6462 13.9915 48.7414C12.6692 47.8455 11.426 46.8175 10.2943 45.6865C9.16249 44.5526 8.1363 43.3072 7.24498 41.9823C6.34485 40.6457 5.56787 39.2152 4.94336 37.7347C3.64154 34.6533 2.98184 31.3781 2.98184 27.9999C2.98184 24.6219 3.64154 21.3467 4.94336 18.2653C5.56787 16.7847 6.34192 15.3541 7.24498 14.0176C8.13922 12.6928 9.16543 11.4473 10.2943 10.3135C11.426 9.1796 12.6692 8.15149 13.9915 7.25849C15.3256 6.35376 16.7535 5.57826 18.2311 4.95258C21.3069 3.64833 24.576 2.98741 27.9478 2.98741ZM27.9478 0C12.5108 0 0 12.5342 0 27.9999C0 43.4658 12.5108 56 27.9478 56C43.3848 56 55.8957 43.4658 55.8957 27.9999C55.8957 12.5342 43.3819 0 27.9478 0Z" fill="white"/>
  <path d="M19.4647 17.2695V15.2044C19.4647 13.5359 20.5554 12.1759 22.1973 11.888C23.4375 11.6677 24.5869 11.8998 25.4987 12.8515C26.0969 13.4742 26.4076 14.2291 26.4194 15.0928C26.4311 15.8096 26.4194 16.5293 26.4194 17.2577H30.19C30.19 17.2136 30.1958 17.1667 30.1958 17.1167V15.1574C30.2016 13.3039 31.6648 11.8381 33.5148 11.8205C34.154 11.8146 34.7726 11.8763 35.3414 12.1847C36.5084 12.8192 37.1183 13.8062 37.1505 15.1339C37.1681 15.836 37.1535 16.5381 37.1535 17.2636H42.0528C42.9677 17.2636 43.5745 17.8746 43.6567 18.7881C43.727 19.5695 43.5276 20.2834 43.2695 20.9971C43.0028 21.7373 42.6216 22.4306 42.135 23.0475C41.7508 23.535 41.3199 23.9904 40.877 24.4281C40.3024 24.9921 39.6984 25.5267 39.0973 26.0672C38.769 26.3609 38.4758 26.6811 38.2881 27.0836C38.2354 27.1981 38.1884 27.3333 38.1884 27.4567C38.1826 30.4646 38.1943 33.4725 38.1796 36.4806C38.162 40.0965 35.4939 43.319 31.952 44.0063C31.4039 44.1091 30.8497 44.1649 30.2926 44.1679C28.7356 44.1884 27.1788 44.1767 25.622 44.1738C21.822 44.1738 18.6378 41.577 17.8931 37.8494C17.7964 37.3325 17.7466 36.8096 17.7495 36.2837C17.7348 33.3521 17.7436 30.4205 17.7407 27.4919C17.7407 27.4008 17.7201 27.3097 17.682 27.2276C17.4445 26.6753 17.0253 26.2699 16.5884 25.8733C15.9991 25.3387 15.4156 24.7982 14.838 24.2519C14.1636 23.6145 13.5626 22.9152 13.1228 22.0927C12.6302 21.1704 12.2109 20.2129 12.2109 19.1347C12.2109 18.891 12.2373 18.6501 12.2901 18.4121C12.4543 17.7277 13.0612 17.2665 13.7678 17.2636H19.4589L19.4647 17.2695ZM24.8801 20.5888H18.8871C18.5029 20.5888 18.1716 20.8473 18.1219 21.2262C18.0896 21.4437 18.0925 21.6668 18.1306 21.8842C18.2626 22.5569 18.5558 23.1649 19.022 23.6644C19.4881 24.1636 19.9984 24.6072 20.4704 25.092C20.8281 25.4563 21.0568 25.8909 21.0568 26.4285C21.0538 29.7126 21.0538 32.9967 21.0568 36.2807C21.0568 36.5128 21.0686 36.7449 21.1007 36.974C21.4321 39.23 23.3202 40.8573 25.5955 40.8573H30.2838C30.5154 40.8573 30.7471 40.8456 30.9786 40.8162C33.21 40.5078 34.8724 38.6013 34.8752 36.3454C34.8752 35.7991 34.8694 35.2498 34.8782 34.7033C34.8782 34.5771 34.843 34.5242 34.7199 34.486C33.5676 34.1335 32.4652 33.6311 31.4419 32.9937C29.0905 31.5309 27.2872 29.5686 26.1204 27.0395C25.5603 25.8263 25.1763 24.5603 25.0414 23.2296C24.9534 22.3571 24.9358 21.4789 24.883 20.583L24.8801 20.5888ZM34.6437 29.3954C34.6524 28.5729 33.9956 27.9002 33.1777 27.8884C32.3567 27.8796 31.6853 28.5377 31.6736 29.3601C31.6648 30.1826 32.3216 30.8553 33.1395 30.8671H33.1425C33.9605 30.8787 34.6319 30.2237 34.6407 29.4042V29.3954H34.6437Z" fill="white"/>
  <path d="M25.4662 29.3807C25.4632 30.2033 24.7948 30.8671 23.9768 30.8642C23.1558 30.8612 22.4933 30.1915 22.4961 29.369C22.4991 28.5465 23.1675 27.8827 23.9885 27.8855H23.9944C24.8124 27.8855 25.472 28.5553 25.4692 29.3718V29.3778L25.4662 29.3807Z" fill="white"/>
</svg>
