<svg width="82" height="49" viewBox="0 0 82 49" fill="none" xmlns="http://www.w3.org/2000/svg">
  <path d="M14.4821 48.3611C22.4803 48.3611 28.9642 41.8773 28.9642 33.8791C28.9642 25.8808 22.4803 19.397 14.4821 19.397C6.48385 19.397 0 25.8808 0 33.8791C0 41.8773 6.48385 48.3611 14.4821 48.3611Z" fill="#444444"/>
  <path d="M67.5172 48.3611C75.5155 48.3611 81.9993 41.8773 81.9993 33.8791C81.9993 25.8808 75.5155 19.397 67.5172 19.397C59.519 19.397 53.0352 25.8808 53.0352 33.8791C53.0352 41.8773 59.519 48.3611 67.5172 48.3611Z" fill="#DDDDDD"/>
  <mask id="mask0_12173_7608" style="mask-type:alpha" maskUnits="userSpaceOnUse" x="5" y="0" width="72" height="36">
    <path d="M76.5194 0.0214844H5.2832V35.444H76.5194V0.0214844Z" fill="#C4C4C4"/>
  </mask>
  <g mask="url(#mask0_12173_7608)">
    <mask id="mask1_12173_7608" style="mask-type:alpha" maskUnits="userSpaceOnUse" x="5" y="0" width="72" height="99">
      <path fill-rule="evenodd" clip-rule="evenodd" d="M40.9136 0.560303C21.365 0.560303 5.51758 15.9418 5.51758 34.9158V98.4854H23.2675V36.5573C23.2675 27.0983 31.1678 19.4303 40.9132 19.4303C50.6588 19.4303 58.5591 27.0983 58.5591 36.5573V98.4854H76.3096V34.9158C76.3096 15.9418 60.4622 0.560303 40.9136 0.560303Z" fill="#E9BCFF"/>
    </mask>
    <g mask="url(#mask1_12173_7608)">
      <path d="M5.51758 35.9564C5.51758 16.4077 21.365 0.560303 40.9136 0.560303C60.4622 0.560303 76.3096 16.4077 76.3096 35.9564V98.4854H5.51758V35.9564Z" fill="#E9BCFF"/>
      <path d="M9.5332 36.5C9.5332 19.1427 23.604 5.07178 40.9615 5.07178C58.3189 5.07178 72.3897 19.1427 72.3897 36.5V104.754H9.5332V36.5Z" fill="#2C98F3"/>
      <path d="M13.6602 36.4183C13.6602 21.5983 25.6742 9.58423 40.4943 9.58423C55.3143 9.58423 67.3283 21.5983 67.3283 36.4183V114.804H13.6602V36.4183Z" fill="#58C971"/>
      <path d="M18.6738 36.9526C18.6738 24.6698 28.6309 14.7126 40.9137 14.7126C53.1965 14.7126 63.1538 24.6698 63.1538 36.9526V127.316H18.6738V36.9526Z" fill="#FFCA42"/>
    </g>
  </g>
</svg>
