<svg width="60" height="50" viewBox="0 0 60 50" fill="none" xmlns="http://www.w3.org/2000/svg">
  <path fill-rule="evenodd" clip-rule="evenodd" d="M13.4627 1.1485C14.9941 -0.382832 17.4768 -0.382832 19.0082 1.1485L31.9917 14.1321C33.5231 15.6634 33.5231 18.1462 31.9917 19.6775C30.4604 21.2088 27.9776 21.2088 26.4463 19.6775L19.6338 12.865L8.2763 24.2226C7.6978 24.8011 7.6978 25.739 8.2763 26.3175L19.6181 37.6593C21.1495 39.1907 21.1495 41.6734 19.6181 43.2048C18.0868 44.7361 15.604 44.7361 14.0727 43.2048L2.73087 31.8629C-0.910288 28.2218 -0.910291 22.3183 2.73087 18.6771L14.0884 7.3196L13.4627 6.69393C11.9314 5.1626 11.9314 2.67982 13.4627 1.1485Z" fill="url(#paint0_linear_12173_7623)"/>
  <path fill-rule="evenodd" clip-rule="evenodd" d="M45.9923 48.6943C44.461 50.2256 41.9782 50.2256 40.4469 48.6943L27.4633 35.7107C25.932 34.1794 25.932 31.6966 27.4633 30.1653C28.9947 28.6339 31.4774 28.6339 33.0088 30.1653L39.8212 36.9777L51.1788 25.6202C51.7573 25.0417 51.7573 24.1038 51.1788 23.5253L39.8369 12.1834C38.3056 10.6521 38.3056 8.16933 39.8369 6.63801C41.3683 5.10668 43.8511 5.10668 45.3824 6.63801L56.7242 17.9798C60.3654 21.621 60.3654 27.5245 56.7242 31.1656L45.3667 42.5232L45.9923 43.1488C47.5237 44.6802 47.5237 47.1629 45.9923 48.6943Z" fill="url(#paint1_linear_12173_7623)"/>
  <defs>
    <linearGradient id="paint0_linear_12173_7623" x1="10.9794" y1="4.18263" x2="35.378" y2="25.0086" gradientUnits="userSpaceOnUse">
      <stop stop-color="#3C96F1"/>
      <stop offset="1" stop-color="#9C13FE"/>
    </linearGradient>
    <linearGradient id="paint1_linear_12173_7623" x1="55.9418" y1="32.6766" x2="27.7962" y2="19.7801" gradientUnits="userSpaceOnUse">
      <stop stop-color="#E98767"/>
      <stop offset="1" stop-color="#9D10FD"/>
    </linearGradient>
  </defs>
</svg>
