<svg width="47" height="54" viewBox="0 0 47 54" fill="none" xmlns="http://www.w3.org/2000/svg">
  <path fill-rule="evenodd" clip-rule="evenodd" d="M8.20548 0.143498C8.49891 -0.0389645 8.8689 -0.0480404 9.171 0.119814L46.5138 20.868C46.814 21.0348 47 21.3501 47 21.6922V30.8602C47 31.1924 46.8245 31.5002 46.5378 31.6706L9.195 53.8664C8.86438 54.0629 8.44716 54.0411 8.13906 53.8112L0.379537 48.0209C0.140613 47.8426 0 47.5628 0 47.2657V5.76923C0 5.44372 0.168535 5.14118 0.445963 4.96867L8.20548 0.143498ZM7.75952 2.64737L1.89771 6.29247V45.6587L28.6204 30.8395L23.1785 27.6655L16.9561 31.3802L16.4881 30.6041L16.9561 31.3802L9.19655 36.0123C8.90342 36.1872 8.53834 36.1918 8.24087 36.0243C7.9434 35.8567 7.75952 35.5429 7.75952 35.2027V2.64737ZM21.3128 26.5774L17.4168 24.305V28.9032L21.3128 26.5774ZM15.5191 30.0361V14.4545C15.5191 14.1198 15.6972 13.8101 15.9873 13.6406C16.2774 13.471 16.636 13.467 16.9299 13.6299L45.1023 29.2532V22.2463L9.65723 2.55254V33.5354L15.5191 30.0361ZM44.1533 30.8885L17.4168 16.0615V22.1164L31.0119 30.0458C31.3056 30.217 31.4846 30.5318 31.4809 30.8704C31.4772 31.2091 31.2914 31.5199 30.994 31.6848L2.68695 47.3826L8.76834 51.9206L44.1533 30.8885Z" fill="#3756CD"/>
</svg>
