<svg width="54" height="54" viewBox="0 0 54 54" fill="none" xmlns="http://www.w3.org/2000/svg">
  <path fill-rule="evenodd" clip-rule="evenodd" d="M51.5781 24.5779H26.838C25.5 24.5779 24.4161 25.6623 24.4161 26.9998C24.4161 28.3373 25.5 29.4216 26.838 29.4216H40.8752C39.7218 36.0431 33.9467 41.0977 27.0002 41.0977C19.2264 41.0977 12.9018 34.7736 12.9018 26.9998C12.9018 19.2259 19.2264 12.9014 27.0002 12.9014C28.8542 12.9014 30.6552 13.255 32.3536 13.9527C33.147 14.2797 34.0526 13.8993 34.3776 13.1074C34.7031 12.3145 34.3247 11.4084 33.5323 11.0829C31.4583 10.2307 29.2603 9.79883 27.0002 9.79883C17.5153 9.79883 9.79883 17.5148 9.79883 26.9998C9.79883 36.4842 17.5153 44.2002 27.0002 44.2002C35.6627 44.2002 42.8462 37.7629 44.0273 29.4216H49.0245C47.8148 40.504 38.3989 49.1557 27.0002 49.1557C23.7529 49.1557 20.6261 48.4702 17.7067 47.1186C16.4922 46.5575 15.0536 47.0856 14.4915 48.2992C13.9294 49.5128 14.458 50.9528 15.6716 51.5144C19.2337 53.1633 23.0451 54 27.0002 54C41.8876 54 54 41.8871 54 26.9998C54 25.6623 52.9156 24.5779 51.5781 24.5779Z" fill="white"/>
  <path fill-rule="evenodd" clip-rule="evenodd" d="M4.84376 26.9997C4.84376 14.7829 14.7829 4.84327 27.0002 4.84327C32.9181 4.84327 38.4819 7.14807 42.6669 11.3326C43.6123 12.279 45.1461 12.279 46.0915 11.3326C47.0374 10.3871 47.0374 8.85334 46.0915 7.90791C40.9922 2.80812 34.2119 0 27.0002 0C12.1123 0 0 12.1118 0 26.9997C0 31.1852 0.9328 35.1986 2.77168 38.9269C3.19338 39.7825 4.05234 40.279 4.94578 40.279C5.30482 40.279 5.67016 40.1979 6.01462 40.0283C7.21463 39.4366 7.70726 37.9844 7.11552 36.7849C5.60846 33.728 4.84376 30.436 4.84376 26.9997Z" fill="white"/>
  <path fill-rule="evenodd" clip-rule="evenodd" d="M41.0385 16.1547C41.0385 17.6589 39.819 18.8783 38.3149 18.8783C36.8112 18.8783 35.5918 17.6589 35.5918 16.1547C35.5918 14.6506 36.8112 13.4312 38.3149 13.4312C39.819 13.4312 41.0385 14.6506 41.0385 16.1547Z" fill="#B569FF"/>
  <path fill-rule="evenodd" clip-rule="evenodd" d="M13.505 44.5921C13.505 46.5957 11.8808 48.2198 9.87723 48.2198C7.87414 48.2198 6.25 46.5957 6.25 44.5921C6.25 42.5885 7.87414 40.9644 9.87723 40.9644C11.8808 40.9644 13.505 42.5885 13.505 44.5921Z" fill="#B569FF"/>
</svg>
