<svg width="48" height="48" viewBox="0 0 48 48" fill="none" xmlns="http://www.w3.org/2000/svg">
  <path fill-rule="evenodd" clip-rule="evenodd" d="M40.6531 19.0213H24.3085C21.4492 19.0213 19.1313 21.3582 19.1313 24.241V40.7197C19.1313 43.6023 21.4492 45.9393 24.3085 45.9393H40.6531C43.5124 45.9393 45.8303 43.6023 45.8303 40.7196V24.241C45.8303 21.3582 43.5124 19.0213 40.6531 19.0213ZM24.3085 17.5598C20.6486 17.5598 17.6816 20.5511 17.6816 24.241V40.7197C17.6816 44.4096 20.6486 47.4008 24.3085 47.4008H40.6531C44.313 47.4008 47.2799 44.4096 47.2799 40.7196V24.241C47.2799 20.5511 44.313 17.5598 40.6531 17.5598H24.3085Z" fill="#CA61FF"/>
  <path fill-rule="evenodd" clip-rule="evenodd" d="M31.8151 10.1263H15.4706C12.6113 10.1263 10.2933 12.4935 10.2933 15.4137V32.1063C10.2933 35.0265 12.6113 37.3938 15.4706 37.3938H31.8151C34.6744 37.3938 36.9924 35.0265 36.9924 32.1063V15.4137C36.9924 12.4935 34.6744 10.1263 31.8151 10.1263ZM15.4706 8.64575C11.8107 8.64575 8.84375 11.6759 8.84375 15.4137V32.1063C8.84375 35.8442 11.8107 38.8743 15.4706 38.8743H31.8151C35.475 38.8743 38.442 35.8442 38.442 32.1063V15.4137C38.442 11.6759 35.475 8.64575 31.8151 8.64575H15.4706Z" fill="#616EFF"/>
  <path fill-rule="evenodd" clip-rule="evenodd" d="M22.9715 1.58163H6.62684C3.76754 1.58163 1.44962 3.91857 1.44962 6.80132V23.28C1.44962 26.1627 3.76755 28.4996 6.62685 28.4996H22.9715C25.8308 28.4996 28.1486 26.1627 28.1486 23.28V6.80132C28.1486 3.91856 25.8308 1.58163 22.9715 1.58163ZM6.62684 0.120117C2.96695 0.120117 0 3.11139 0 6.80132V23.28C0 26.9699 2.96695 29.9611 6.62685 29.9611H22.9715C26.6314 29.9611 29.5983 26.9699 29.5983 23.28V6.80132C29.5983 3.11139 26.6314 0.120117 22.9715 0.120117H6.62684Z" fill="#61DFFF"/>
</svg>
