<svg width="49" height="51" viewBox="0 0 49 51" fill="none" xmlns="http://www.w3.org/2000/svg">
  <path d="M40.7988 45.578C37.1292 48.5482 33.5715 50.304 30.1256 50.845C26.7165 51.3564 23.2569 50.6023 19.7469 48.5828C16.2367 46.5634 12.5392 43.1462 8.6543 38.3316C4.88797 33.6639 2.35056 29.4293 1.04234 25.6275C-0.266148 21.8258 -0.342699 18.2727 0.812731 14.968C2.00463 11.6337 4.50889 8.42198 8.32524 5.3329C11.9581 2.39235 15.4791 0.666378 18.8882 0.154993C22.2976 -0.35639 25.757 0.397669 29.2672 2.41717C32.7774 4.43666 36.4747 7.85377 40.3598 12.6685C45.9649 19.6149 48.8429 25.7003 48.9941 30.9246C49.1452 36.1491 46.4135 41.0334 40.7988 45.578ZM36.6617 40.4509C39.2674 38.3421 40.9331 36.234 41.6598 34.1271C42.4229 31.9906 42.2745 29.5889 41.2149 26.9228C40.1626 24.1898 38.0794 20.8939 34.9653 17.0348C31.8516 13.1756 29.086 10.4624 26.6687 8.89506C24.2584 7.26123 21.9304 6.59382 19.6842 6.89281C17.475 7.16206 15.0677 8.35114 12.4624 10.46C9.78349 12.6283 8.06249 14.7808 7.29939 16.9174C6.50645 19.0173 6.65482 21.4188 7.74394 24.1219C8.8035 26.7883 10.9049 30.0693 14.0485 33.9652C17.1625 37.8243 19.9246 40.5708 22.3349 42.2045C24.7521 43.7721 27.0837 44.4061 29.3296 44.1072C31.5756 43.8083 34.0196 42.5894 36.6617 40.4509Z" fill="url(#paint0_linear_12173_7675)"/>
  <defs>
    <linearGradient id="paint0_linear_12173_7675" x1="13.3697" y1="-7.5895" x2="15.7925" y2="64.752" gradientUnits="userSpaceOnUse">
      <stop offset="0.192708" stop-color="#EF2EC5"/>
      <stop offset="1" stop-color="#322EEF"/>
    </linearGradient>
  </defs>
</svg>
