<svg width="46" height="48" viewBox="0 0 46 48" fill="none" xmlns="http://www.w3.org/2000/svg">
  <g clip-path="url(#clip0_12173_7480)">
    <path d="M0.270174 21.6809L15.3868 0L23.0264 11.0022L15.2784 21.9506H0.432719C0.378537 21.9506 0.378537 21.9506 0.324356 21.8966C0.270174 21.8966 0.270174 21.8427 0.270174 21.8427C0.270174 21.7888 0.270174 21.7888 0.270174 21.7348C0.215993 21.7348 0.270174 21.7348 0.270174 21.6809Z" fill="#7F4AFE"/>
    <path d="M45.7293 21.6809L30.6127 0L23.0273 11.0022L30.7211 22.0045H45.5668C45.621 22.0045 45.621 22.0045 45.6752 21.9506C45.7293 21.9506 45.7293 21.8966 45.7293 21.8966C45.7293 21.8427 45.7293 21.8427 45.7293 21.7888C45.7835 21.7348 45.7293 21.7348 45.7293 21.6809Z" fill="#7F4AFE"/>
    <path d="M45.9995 24.8091C46.0537 27.8293 45.4577 30.8495 44.3199 33.654C43.1821 36.4585 41.5024 39.0473 39.3352 41.2046C37.1679 43.3619 34.6214 45.0877 31.8581 46.2203C29.0949 47.3529 26.0607 48.0001 22.9724 48.0001C19.9382 48.0001 16.9041 47.4068 14.0867 46.2203C11.2692 45.0338 8.7227 43.3619 6.60962 41.2046C4.49655 39.0473 2.76274 36.5125 1.62493 33.654C0.541306 30.8495 -0.0546894 27.8293 -0.000508063 24.8091H14.6285C14.6285 25.9417 14.791 27.0203 15.2245 28.045C15.6579 29.0698 16.2539 30.0405 17.0124 30.7956C17.771 31.6046 18.7463 32.1978 19.7757 32.6293C20.8051 33.0608 21.8888 33.2765 23.0266 33.2765C24.1644 33.2765 25.248 33.0608 26.2775 32.6293C27.3069 32.1978 28.228 31.5507 29.0407 30.7956C29.7993 29.9866 30.4494 29.0698 30.8287 28.045C31.2622 27.0203 31.4247 25.8877 31.4247 24.8091H45.9995Z" fill="#0166FF"/>
  </g>
  <defs>
    <clipPath id="clip0_12173_7480">
      <rect width="46" height="48" fill="white"/>
    </clipPath>
  </defs>
</svg>
