<svg width="42" height="55" viewBox="0 0 42 55" fill="none" xmlns="http://www.w3.org/2000/svg">
  <path fill-rule="evenodd" clip-rule="evenodd" d="M20.5197 4.85588L28.7229 0.130572C29.375 -0.245053 30.1828 0.234591 30.1828 0.997424V1.20128C30.1828 2.25635 30.6755 3.2486 31.5097 3.87432L39.5086 9.87273C42.2553 11.9325 42.013 16.1879 39.0509 17.9106L31.4094 22.3552C29.5573 23.4324 29.4068 26.0935 31.125 27.3801L39.4948 33.6474C42.2456 35.7072 42.0025 39.9681 39.0357 41.6896L30.7895 46.475C30.1374 46.8534 29.3269 46.374 29.3269 45.6097V45.3612C29.3269 44.3115 28.8393 43.3236 28.0118 42.6971L20.0377 36.6601C17.3015 34.5886 17.561 30.3368 20.528 28.6261L28.0858 24.2684C29.9382 23.2004 30.1026 20.5468 28.3966 19.2505L20.0209 12.8855C17.2907 10.8108 17.5546 6.56389 20.5197 4.85588ZM2.39472 12.6237L10.5979 7.89844C11.2501 7.5228 12.0579 8.00244 12.0579 8.76528V8.96913C12.0579 10.0242 12.5504 11.0165 13.3848 11.6422L21.3837 17.6406C24.1303 19.7004 23.8879 23.9557 20.926 25.6786L13.2844 30.123C11.4323 31.2002 11.2817 33.8613 13 35.1479L21.3697 41.4152C24.1207 43.475 23.8774 47.7358 20.9108 49.4575L12.6645 54.2428C12.0124 54.6213 11.2019 54.1418 11.2019 53.3776V53.129C11.2019 52.0793 10.7143 51.0913 9.88687 50.4649L1.9126 44.4279C-0.823541 42.3564 -0.564081 38.1047 2.40286 36.394L9.96089 32.0362C11.8132 30.9682 11.9775 28.3146 10.2716 27.0183L1.89592 20.6534C-0.834262 18.5787 -0.57045 14.3317 2.39472 12.6237Z" fill="#9CDFDF"/>
</svg>
