<svg width="49" height="36" viewBox="0 0 49 36" fill="none" xmlns="http://www.w3.org/2000/svg">
  <path fill-rule="evenodd" clip-rule="evenodd" d="M13.1419 28.4087H25.2871V35.3598H0.0800781V0H8.78795V6.9007V14.3051V20.6014V28.4087H13.1419ZM41.5816 17.2266C43.6351 17.6648 45.2799 18.6772 46.5263 20.2739C47.7725 21.8707 48.3932 23.6891 48.3932 25.7391C48.3932 28.6958 47.3588 31.0381 45.2901 32.7657C43.2214 34.4934 40.3352 35.3598 36.6369 35.3598H31.8317V28.4087H35.1233C36.5713 28.4087 37.6864 28.0812 38.4785 27.4264C39.2706 26.7716 39.6643 25.8247 39.6643 24.5806C39.6643 23.3365 39.2505 22.3643 38.428 21.6591C37.6055 20.954 36.4704 20.6014 35.0224 20.6014H15.4841V14.3051H34.4169C35.8297 14.3051 36.9144 13.9928 37.6712 13.3732C38.428 12.7537 38.8066 11.837 38.8066 10.6281C38.8066 9.41919 38.428 8.49744 37.6712 7.85774C36.9144 7.21804 35.8297 6.9007 34.4169 6.9007H15.4841V0H36.0819C39.6793 0 42.4998 0.821033 44.5332 2.46814C46.5667 4.11524 47.5859 6.34663 47.5859 9.16736C47.5859 11.2476 47.0408 12.9804 45.946 14.3555C44.8512 15.7306 43.3981 16.6876 41.5816 17.2266Z" fill="white"/>
</svg>
