<svg width="36" height="50" viewBox="0 0 36 50" fill="none" xmlns="http://www.w3.org/2000/svg">
  <path fill-rule="evenodd" clip-rule="evenodd" d="M9.72455 16.4999L5.92314 8.47953C5.56953 7.70483 5.92314 6.88458 6.76298 6.70228L33.6823 0.0490465C34.5221 -0.178805 35.1852 0.413609 35.1852 1.27944V11.5783C35.1852 12.1251 34.7873 12.672 34.2569 12.8087L12.8187 18.0949C11.6695 18.3683 10.697 19.5987 10.697 20.8291L10.6528 29.6697C10.6528 30.5811 9.94558 31.5381 9.0615 31.7203L2.51954 33.2697C1.14926 33.5887 0 32.6773 0 31.2191V22.6063C0 21.6949 0.707239 20.7835 1.59129 20.5557L8.61948 18.8696C9.72455 18.6417 10.2108 17.548 9.72455 16.4999ZM0.927086 37.2812L15.4514 33.8385C16.7317 33.5214 17.3057 32.2983 16.7317 31.0752L13.3766 23.9632C12.8468 22.8307 13.3766 21.653 14.5685 21.3811L33.6842 16.7153C34.523 16.4888 35.1852 17.0777 35.1852 17.9384V27.406C35.1852 28.4026 34.3905 29.3991 33.4634 29.6256L20.2194 32.8872C18.9391 33.159 18.3652 34.4273 18.9391 35.6504L22.6033 43.3965C22.9565 44.1665 22.6033 44.982 21.7645 45.1631L1.501 49.9651C0.662206 50.1463 0 49.6025 0 48.7419V38.5043C0 37.9607 0.397322 37.4171 0.927086 37.2812Z" fill="white"/>
</svg>
