<svg width="50" height="46" viewBox="0 0 50 46" fill="none" xmlns="http://www.w3.org/2000/svg">
  <path fill-rule="evenodd" clip-rule="evenodd" d="M10.5592 22.2366L22.1521 14.5796V14.593C22.8104 14.1497 23.2134 13.4109 23.2134 12.6184V0.609029C23.2134 0.111997 22.6626 -0.1701 22.2596 0.111997L1.55895 14.5662C1.02162 14.9423 0.699219 15.5468 0.699219 16.205V29.2353C0.699219 29.8935 1.02162 30.498 1.55895 30.8742L22.2596 45.3149C22.6626 45.597 23.2134 45.3015 23.2134 44.8179V32.6876C23.2134 31.9757 22.8507 31.304 22.2596 30.9145L10.5592 23.1903C10.2234 22.962 10.2234 22.4649 10.5592 22.2366ZM49.9992 29.2354V16.2051C49.9992 15.5469 49.6768 14.9424 49.1395 14.5663L28.4254 0.112096C28.0224 -0.170001 27.4716 0.125532 27.4716 0.609128V12.6185C27.4716 13.411 27.8746 14.1499 28.5328 14.5931L40.1257 22.2501C40.4616 22.4785 40.4616 22.9755 40.1257 23.2039L28.4254 30.928C27.8343 31.3176 27.4716 31.9892 27.4716 32.7012V44.8314C27.4716 45.3284 28.0224 45.6105 28.4254 45.3284L49.1395 30.8743C49.6768 30.4981 49.9992 29.8936 49.9992 29.2354Z" fill="#FAF0F0"/>
</svg>
