<svg width="62" height="41" viewBox="0 0 62 41" fill="none" xmlns="http://www.w3.org/2000/svg">
  <path d="M8.85631 31.0004H4.42773L18.8206 15.5004L23.2492 19.929L30.9992 12.179L37.642 21.0361L43.1777 18.8218L56.4635 36.5361L47.6063 31.0004L49.8206 36.5361L35.4277 31.0004L37.642 34.3218H34.3206L38.7492 40.9647L25.4634 31.0004H15.4992L19.9277 37.6432L12.1777 32.1075V35.429L8.85631 31.0004Z" fill="white"/>
  <path fill-rule="evenodd" clip-rule="evenodd" d="M0 31H4.42765L18.8205 16.6071L23.2491 21.0357L30.9991 13.2857L37.6419 22.1428L43.1777 18.8214L52.0348 31L62 31C62 13.8792 48.1208 0 31 0C13.8792 0 9.27727e-06 13.8792 0 31Z" fill="#39CDFF"/>
</svg>
