<svg width="57" height="47" viewBox="0 0 57 47" fill="none" xmlns="http://www.w3.org/2000/svg">
  <path fill-rule="evenodd" clip-rule="evenodd" d="M21.7712 6.77691L28.1643 0L34.5575 6.77691L28.1643 13.5538L21.7712 6.77691ZM0 7.14288L6.81031 14.044C12.8326 20.1465 19.6416 25.3092 27.033 29.3773L27.0358 29.3789L27.0387 29.3803C27.9709 29.8954 28.9325 30.4014 29.9209 30.8963C35.8126 33.8512 41.9917 36.0973 48.3428 37.5969V15.5335H56.4V41.1919H52.6198L51.712 46.9999C42.9771 45.4614 34.4851 42.6444 26.4791 38.6297C25.4009 38.0894 24.3481 37.5358 23.3211 36.9682C17.9268 33.9992 12.8166 30.4959 8.05715 26.5091V41.1919H0V7.14288Z" fill="#B8F2FA"/>
</svg>
