<svg width="61" height="60" viewBox="0 0 61 60" fill="none" xmlns="http://www.w3.org/2000/svg">
  <g clip-path="url(#clip0_12173_7593)">
    <path fill-rule="evenodd" clip-rule="evenodd" d="M30.1944 12.5903C25.6236 12.5903 21.918 16.349 21.918 20.9854V28.8866C21.918 33.5229 25.6236 37.2818 30.1944 37.2818C34.7651 37.2818 38.4708 33.5229 38.4708 28.8866V20.9854C38.4708 16.349 34.7651 12.5903 30.1944 12.5903ZM30.1944 24.936C32.3453 24.936 34.0891 23.1671 34.0891 20.9854C34.0891 18.8036 32.3453 17.0348 30.1944 17.0348C28.0435 17.0348 26.2996 18.8036 26.2996 20.9854C26.2996 23.1671 28.0435 24.936 30.1944 24.936Z" fill="#D22B25"/>
    <path fill-rule="evenodd" clip-rule="evenodd" d="M29.2223 21.4811C30.029 21.4811 30.6828 20.8179 30.6828 19.9996C30.6828 19.6228 30.5442 19.2787 30.3155 19.0173C31.3363 19.079 32.1452 19.9383 32.1452 20.9891C32.1452 22.08 31.2732 22.9644 30.1978 22.9644C29.1617 22.9644 28.3147 22.1439 28.2539 21.1087C28.5116 21.3405 28.8508 21.4811 29.2223 21.4811Z" fill="white"/>
    <path fill-rule="evenodd" clip-rule="evenodd" d="M19.8695 11.2377C19.7425 11.4562 19.5081 11.6028 19.2399 11.6028C18.8366 11.6028 18.5098 11.2712 18.5098 10.8621C18.5098 10.453 18.8366 10.1213 19.2399 10.1213C19.5087 10.1213 19.7434 10.2685 19.8703 10.4877C22.6169 10.5231 24.3157 11.5854 25.2974 12.9562C26.2815 14.3304 26.5122 15.9682 26.4257 17.0645L25.6887 17.0047C25.7645 16.0434 25.5569 14.5948 24.6992 13.397C23.8711 12.2406 22.4047 11.2724 19.8695 11.2377Z" fill="white"/>
    <path fill-rule="evenodd" clip-rule="evenodd" d="M19.8695 11.2377C19.7425 11.4562 19.5081 11.6028 19.2399 11.6028C18.8366 11.6028 18.5098 11.2712 18.5098 10.8621C18.5098 10.453 18.8366 10.1213 19.2399 10.1213C19.5087 10.1213 19.7434 10.2685 19.8703 10.4877C22.6169 10.5231 24.3157 11.5854 25.2974 12.9562C26.2815 14.3304 26.5122 15.9682 26.4257 17.0645L25.6887 17.0047C25.7645 16.0434 25.5569 14.5948 24.6992 13.397C23.8711 12.2406 22.4047 11.2724 19.8695 11.2377Z" fill="white"/>
    <path fill-rule="evenodd" clip-rule="evenodd" d="M40.653 11.2377C40.78 11.4562 41.0144 11.6028 41.2826 11.6028C41.6858 11.6028 42.0128 11.2712 42.0128 10.8621C42.0128 10.453 41.6858 10.1213 41.2826 10.1213C41.0138 10.1213 40.7791 10.2685 40.6523 10.4877C37.9056 10.5231 36.2068 11.5854 35.2251 12.9562C34.241 14.3304 34.0103 15.9682 34.0968 17.0645L34.8338 17.0047C34.758 16.0434 34.9656 14.5948 35.8233 13.397C36.6514 12.2406 38.1178 11.2724 40.653 11.2377Z" fill="white"/>
    <path fill-rule="evenodd" clip-rule="evenodd" d="M40.653 11.2377C40.78 11.4562 41.0144 11.6028 41.2826 11.6028C41.6858 11.6028 42.0128 11.2712 42.0128 10.8621C42.0128 10.453 41.6858 10.1213 41.2826 10.1213C41.0138 10.1213 40.7791 10.2685 40.6523 10.4877C37.9056 10.5231 36.2068 11.5854 35.2251 12.9562C34.241 14.3304 34.0103 15.9682 34.0968 17.0645L34.8338 17.0047C34.758 16.0434 34.9656 14.5948 35.8233 13.397C36.6514 12.2406 38.1178 11.2724 40.653 11.2377Z" fill="white"/>
    <path fill-rule="evenodd" clip-rule="evenodd" d="M29.7088 3.45679C18.8061 3.45679 9.99173 12.3442 9.99173 23.2772C9.99173 25.6239 10.5137 28.4632 11.282 30.6765C11.8859 30.4498 12.5111 30.2634 13.1576 30.1241C21.1905 28.395 37.4998 28.3965 45.7761 29.6312C46.609 29.7555 47.414 29.9497 48.1896 30.2025C48.9887 28.0485 49.4261 25.716 49.4261 23.2772C49.4261 12.3442 40.6118 3.45679 29.7088 3.45679ZM6.58382 23.2772C6.58382 26.1784 7.24166 29.6128 8.22236 32.2556C4.37823 34.8043 1.67395 38.8267 0.121864 41.6087C-0.1901 42.1678 0.124693 42.8559 0.749773 42.9596C2.76263 43.2939 6.50288 43.7115 12.2485 44.0194L7.7109 54.4888C7.22395 55.6123 7.72711 56.9235 8.83474 57.4174C9.94237 57.9114 11.235 57.4011 11.722 56.2776L16.945 44.2268C20.2174 44.343 23.9752 44.4223 28.2497 44.4428V57.7772C28.2497 59.0046 29.2305 59.9994 30.4405 59.9994C31.6503 59.9994 32.6313 59.0046 32.6313 57.7772V44.4439C36.869 44.4236 40.5811 44.3441 43.8045 44.2292L49.0264 56.2776C49.5133 57.4011 50.806 57.9114 51.9136 57.4174C53.0212 56.9235 53.5244 55.6123 53.0375 54.4888L48.5002 44.0199C54.2861 43.7057 57.945 43.2763 59.8319 42.9386C60.3948 42.8377 60.7042 42.2522 60.4649 41.7257C59.1293 38.7876 55.9289 34.2501 51.3115 31.5999C52.2955 29.0136 52.8339 26.2069 52.8339 23.2772C52.8339 10.4081 42.4671 0 29.7088 0C16.9506 0 6.58382 10.4081 6.58382 23.2772Z" fill="white"/>
  </g>
  <defs>
    <clipPath id="clip0_12173_7593">
      <rect width="61" height="60" fill="white"/>
    </clipPath>
  </defs>
</svg>
