<svg width="45" height="47" viewBox="0 0 45 47" fill="none" xmlns="http://www.w3.org/2000/svg">
  <path fill-rule="evenodd" clip-rule="evenodd" d="M22.2006 46.6157C15.3488 46.6105 9.82932 44.9663 5.97298 42.0132C2.0704 39.0246 0 34.7833 0 29.9841C0 25.36 2.06571 22.0257 4.40322 19.7718C6.23516 18.0055 8.25651 16.8745 9.66408 16.2236C9.34581 15.2467 8.94867 13.968 8.59332 12.647C8.11802 10.8797 7.65165 8.80573 7.65165 7.2862C7.65165 5.48759 8.04362 3.68101 9.101 2.27742C10.2182 0.794504 11.9002 0 13.9234 0C15.5047 0 16.8472 0.586548 17.8981 1.5984C18.9026 2.56541 19.5716 3.85 20.0332 5.18904C20.8444 7.5418 21.1603 10.4978 21.2488 13.4479H23.1868C23.2756 10.4978 23.5913 7.5418 24.4027 5.18904C24.8643 3.85 25.5328 2.56565 26.5376 1.5984C27.5887 0.586783 28.931 0 30.5122 0C32.5357 0 34.2174 0.794504 35.3347 2.27742C36.392 3.68101 36.7842 5.48759 36.7842 7.2862C36.7842 8.80573 36.3176 10.8797 35.8423 12.647C35.487 13.968 35.0899 15.2467 34.7716 16.2236C36.1792 16.8745 38.2007 18.0055 40.0324 19.772C42.37 22.0257 44.4357 25.36 44.4357 29.9841C44.4357 34.7833 42.3655 39.0246 38.4627 42.0132C34.6063 44.9663 29.0868 46.6105 22.2351 46.6157H22.2006Z" fill="#633001"/>
  <path d="M13.9244 1.71069C10.9611 1.71069 9.59696 3.94422 9.59696 7.03281C9.59696 9.48791 11.182 14.4047 11.8321 16.3188C11.9786 16.7495 11.7486 17.221 11.3294 17.3879C8.95432 18.334 1.94531 21.7979 1.94531 29.731C1.94531 38.0875 9.06815 44.3883 22.2034 44.3984L22.2189 44.3982L22.2346 44.3984C35.3696 44.3883 42.4925 38.0875 42.4925 29.731C42.4925 21.7979 35.4835 18.334 33.1084 17.3879C32.6892 17.2212 32.4594 16.7495 32.6057 16.3188C33.256 14.4049 34.8411 9.48791 34.8411 7.03281C34.8411 3.94399 33.4769 1.71069 30.5134 1.71069C26.2477 1.71069 25.1843 7.81488 25.1085 14.3664C25.1035 14.8037 24.7533 15.1586 24.3205 15.1586H20.1175C19.6845 15.1586 19.3345 14.8037 19.3293 14.3664C19.2535 7.81488 18.1903 1.71069 13.9244 1.71069Z" fill="#D1884F"/>
  <path d="M22.2346 41.7217C12.5837 41.7217 1.96198 36.5028 1.94531 29.7471V29.7785C1.94531 38.1418 9.07942 44.446 22.2346 44.446C35.3898 44.446 42.5239 38.1418 42.5239 29.7785V29.7471C42.5073 36.5028 31.8856 41.7217 22.2346 41.7217Z" fill="#FEDC90"/>
  <path d="M16.872 27.672C16.872 29.9529 15.805 31.1408 14.4887 31.1408C13.1725 31.1408 12.1055 29.9529 12.1055 27.672C12.1055 25.391 13.1725 24.2031 14.4887 24.2031C15.805 24.2031 16.872 25.391 16.872 27.672ZM32.3633 27.672C32.3633 29.9529 31.2963 31.1408 29.9801 31.1408C28.6638 31.1408 27.5968 29.9529 27.5968 27.672C27.5968 25.391 28.6638 24.2031 29.9801 24.2031C31.2963 24.2031 32.3633 25.391 32.3633 27.672Z" fill="#633001"/>
</svg>
