<svg width="58" height="58" viewBox="0 0 58 58" fill="none" xmlns="http://www.w3.org/2000/svg">
  <path d="M55.206 42.9755L15.0201 2.78955C14.3459 3.16963 13.6849 3.57945 13.0371 4.01572L53.9831 44.9618C54.4194 44.314 54.8292 43.653 55.2093 42.9788H55.206V42.9755Z" fill="#B2D5DC"/>
  <path d="M57.9971 36.1373L21.8599 0C21.4434 0.112371 21.0303 0.231352 20.6172 0.363553L57.6335 37.38C57.7624 36.9668 57.8847 36.5537 57.9971 36.1373Z" fill="#CBDCB1"/>
  <path d="M51.1412 48.5412L9.4549 6.85474C9.17728 7.11253 8.90627 7.37032 8.63526 7.64133C8.09654 8.18005 7.58094 8.7353 7.0918 9.30707L48.6889 50.9043C49.2574 50.4151 49.8093 49.9028 50.348 49.3641L50.3579 49.3542C50.6256 49.0865 50.8834 48.8155 51.1379 48.5412H51.1412Z" fill="#AFA3D0"/>
  <path d="M2.70253 16.145L41.8539 55.2965C43.2684 54.6454 44.6433 53.872 45.9587 52.983L5.01274 12.0369C4.12369 13.3556 3.35361 14.7272 2.69922 16.1417H2.70253V16.145Z" fill="#E7ACCE"/>
  <path d="M0.0761719 26.3541L31.6425 57.9205C34.3361 57.7255 37.0099 57.1603 39.5779 56.2283L1.76834 18.4187C0.836327 20.9867 0.271169 23.6605 0.0761719 26.3541Z" fill="#E1856C"/>
  <path d="M8.63895 49.3612C14.555 55.2772 22.3581 58.1525 30.1084 57.9939L0.00622111 27.8916C-0.15242 35.642 2.72295 43.4452 8.63895 49.3612Z" fill="#EEDB77"/>
</svg>
