<svg width="52" height="57" viewBox="0 0 52 57" fill="none" xmlns="http://www.w3.org/2000/svg">
  <path fill-rule="evenodd" clip-rule="evenodd" d="M37.6949 7.66866L25.425 0L11.4647 11.1683L0 34.0977L25.4881 57L51.0723 36.0506L37.6949 7.66866ZM15.9915 11.4941L25.6443 3.77184L33.4339 8.64031L23.982 13.7601L15.9915 11.4941ZM25.6326 16.3714L35.7948 10.8669L47.152 34.9625L39.405 32.024L24.0703 35.4317L25.6326 16.3714ZM20.9203 36.1317L22.5253 16.5508L13.4994 13.9912L3.85235 33.2852L12.3493 27.5717L20.9112 36.1337L20.9203 36.1317Z" fill="#FFF9EA"/>
  <path d="M23.8219 50.8602L21.082 36.1337L23.9931 35.4487L27.0754 52.2301L26.048 53.0863L23.8219 50.8602Z" fill="#06070A"/>
</svg>
