<svg width="46" height="46" viewBox="0 0 46 46" fill="none" xmlns="http://www.w3.org/2000/svg">
  <mask id="mask0_12173_7514" style="mask-type:luminance" maskUnits="userSpaceOnUse" x="0" y="0" width="47" height="47">
    <path d="M0 0H46.0025V46.0011H0V0Z" fill="white"/>
  </mask>
  <g mask="url(#mask0_12173_7514)">
    <mask id="mask1_12173_7514" style="mask-type:luminance" maskUnits="userSpaceOnUse" x="0" y="0" width="47" height="47">
      <path d="M0 0H46.0025V46.0011H0V0Z" fill="white"/>
    </mask>
    <g mask="url(#mask1_12173_7514)">
      <path d="M27.5659 1.83055L28.7904 4.69785C31.1934 10.3276 35.6776 14.8119 41.3074 17.2149L44.1747 18.4394C44.9257 18.7596 45.5345 19.218 46.0052 19.7646C44.5778 9.52546 36.4798 1.42744 26.2406 0C26.7859 0.469371 27.2456 1.07955 27.5659 1.83055ZM1.83055 18.4394L4.69785 17.2149C10.3279 14.8118 14.8126 10.3276 17.2162 4.69785L18.4394 1.83055C18.7347 1.12669 19.1882 0.500311 19.7646 0C9.52546 1.42744 1.42744 9.52546 0 19.7646C0.469371 19.218 1.07955 18.7596 1.83055 18.4394ZM44.1761 27.5631L41.3074 28.7876C35.6774 31.1909 31.1931 35.6757 28.7904 41.306L27.5659 44.1719C27.2707 44.8763 26.8172 45.5031 26.2406 46.0038C36.4798 44.575 44.5778 36.477 46.0052 26.2378C45.5053 26.8147 44.8802 27.2682 44.1761 27.5631ZM18.4394 44.1719L17.2162 41.306C14.8127 35.6758 10.3281 31.1911 4.69785 28.7876L1.83055 27.5631C1.12644 27.2682 0.499974 26.8147 0 26.2378C1.42744 36.477 9.52546 44.575 19.7646 46.0038C19.1884 45.5028 18.7349 44.876 18.4394 44.1719Z" fill="#999999"/>
    </g>
    <path d="M12.5668 20.7534L13.979 20.1501C16.7536 18.966 18.9637 16.7563 20.1485 13.982L20.7504 12.5684C21.5952 10.5902 24.4018 10.5902 25.2467 12.5684L25.8486 13.982C27.0333 16.7563 29.2435 18.966 32.018 20.1501L33.4317 20.7534C35.4099 21.5983 35.4099 24.4035 33.4317 25.2483L32.018 25.8516C29.2431 27.0358 27.0328 29.2461 25.8486 32.0211L25.2467 33.4333C24.4018 35.4116 21.5952 35.4116 20.7504 33.4333L20.1485 32.0211C18.9643 29.2461 16.754 27.0358 13.979 25.8516L12.5668 25.2483C10.5871 24.4035 10.5871 21.5983 12.5668 20.7534Z" fill="white"/>
  </g>
</svg>
