<svg width="67" height="65" viewBox="0 0 67 65" fill="none" xmlns="http://www.w3.org/2000/svg">
  <path fill-rule="evenodd" clip-rule="evenodd" d="M64.5604 40.6248L64.5594 40.6262L52.102 59.0414L51.9715 58.9516C47.4817 64.9513 33.0081 62.4667 19.3312 52.8123C5.74161 43.2197 -2.08041 31.0054 1.79757 24.4233L1.72704 24.3748L14.1854 6.22899L14.1854 6.22896C18.5188 -0.000170469 33.1437 2.43734 46.9562 12.1873C61.0395 21.3957 68.6229 34.3957 64.5604 40.6248Z" fill="url(#paint0_linear_12173_7566)"/>
  <path fill-rule="evenodd" clip-rule="evenodd" d="M14.1847 6.22916C18.5181 3.55244e-05 33.1431 2.43751 46.9555 12.1875C61.0389 21.3958 68.6222 34.3958 64.5597 40.625L64.5587 40.6264L52.1014 59.0416L51.9708 58.9518C51.9706 58.9521 51.9703 58.9524 51.9701 58.9528C47.4794 64.9512 33.0067 62.4663 19.3305 52.8125C5.74095 43.2199 -2.08107 31.0056 1.79692 24.4235L1.72638 24.3749L14.1847 6.22916ZM0.756321 24.6815C-0.927458 28.3128 0.31686 33.0846 3.33274 37.9141C6.57266 43.1023 12.0101 48.6274 18.8678 53.4681C25.7804 58.3476 32.9248 61.4386 38.9514 62.5417C44.5405 63.5648 49.4401 62.9139 52.1176 60.0269L52.3128 60.1613L65.2179 41.0841L65.2188 41.0827L65.2234 41.076L65.2255 41.0732L65.2319 41.0634C66.3867 39.2925 66.677 37.0942 66.2957 34.7213C65.9148 32.3509 64.8582 29.7556 63.2481 27.1066C60.0285 21.81 54.5238 16.1795 47.4067 11.5237C40.4294 6.60078 33.2164 3.49964 27.1554 2.42598C21.1683 1.36538 15.983 2.24418 13.5289 5.76666L13.5274 5.76881L0.611115 24.5816L0.756321 24.6815Z" fill="white"/>
  <mask id="mask0_12173_7566" style="mask-type:luminance" maskUnits="userSpaceOnUse" x="0" y="0" width="66" height="65">
    <path d="M65.6426 0H0.642578V65H65.6426V0Z" fill="white"/>
  </mask>
  <g mask="url(#mask0_12173_7566)">
    <path d="M14.1829 6.229L64.5579 40.6248L52.0996 59.0415L1.72461 24.3748L14.1829 6.229Z" fill="url(#paint1_linear_12173_7566)"/>
    <path d="M64.5587 40.6248C60.2253 46.854 45.6003 44.4165 31.7878 34.6665C17.7045 25.1873 10.1212 12.4582 14.1837 6.22899C18.517 -0.000179291 33.142 2.43732 46.9545 12.1873C61.0378 21.3957 68.6212 34.3957 64.5587 40.6248Z" fill="url(#paint2_linear_12173_7566)"/>
    <path d="M52.1001 58.7707C47.7668 64.9998 33.1418 62.5623 19.3293 52.8123C5.51675 43.0623 -2.33742 30.604 1.99592 24.104C6.32925 17.8748 20.9543 20.3123 34.7668 30.0623C48.5793 39.8123 56.1626 52.5415 52.1001 58.7707Z" fill="url(#paint3_linear_12173_7566)"/>
    <path d="M64.5586 40.625L52.1003 59.0417C47.7669 65.2708 33.1419 62.5625 19.3294 53.0833C16.6211 51.1875 14.1836 49.2917 11.7461 47.125C13.6419 46.8542 16.0794 45.7708 18.5169 43.0625C22.8503 38.4583 25.0169 37.375 26.9128 37.6458C28.8086 37.6458 30.9753 39.5417 34.4961 44.1458C38.0169 48.75 42.8919 50.1042 45.8711 47.6667C46.1419 47.3958 46.4128 47.3958 46.6836 47.125C49.1211 45.2292 49.9336 44.4167 54.5378 35.75C55.6211 33.5833 59.4128 30.0625 64.5586 31.6875C65.9128 35.2083 65.9128 38.1875 64.5586 40.625Z" fill="#0E0F23"/>
    <path fill-rule="evenodd" clip-rule="evenodd" d="M62.6624 39.5416C58.8707 44.9583 45.5999 42.25 32.8707 33.3125C19.8707 24.375 12.2874 13 16.079 7.58329C19.8707 2.16662 33.1416 4.87496 45.8707 13.8125C58.5999 22.75 66.1832 34.125 62.6624 39.5416ZM50.7457 31.4166C48.8499 34.125 42.3499 32.7708 35.8499 28.4375C29.6207 24.1041 25.829 18.4166 27.7249 15.7083C29.6207 13 36.1207 14.3541 42.6207 18.6875C48.8499 23.0208 52.6416 28.7083 50.7457 31.4166Z" fill="white"/>
    <path d="M13.1009 12.4582C13.1009 12.1874 12.8301 11.9165 12.5592 12.1874C12.2884 12.4582 12.0176 12.4582 12.0176 12.729C12.2884 13.5415 12.5592 14.0832 12.5592 14.6249C12.5592 14.8957 12.8301 15.1665 13.1009 14.8957C13.3717 14.8957 13.6426 14.6249 13.3717 14.354C13.3717 13.8124 13.3717 13.2707 13.1009 12.4582Z" fill="white"/>
    <path d="M14.4551 16.7915C14.4551 16.5206 14.1842 16.2498 13.9134 16.5206C13.6426 16.7915 13.6426 16.7915 13.6426 17.0623C16.6217 23.8331 22.8509 31.1456 30.9759 36.5623C31.2467 36.8331 31.5176 36.5623 31.7884 36.5623C32.0592 36.2915 31.7884 36.0206 31.7884 35.7498C23.3926 30.3331 17.4342 23.2915 14.4551 16.7915Z" fill="white"/>
    <path d="M47.2253 43.3333C46.9544 43.3333 46.6836 43.3333 46.6836 43.6041C46.6836 43.8749 46.6836 44.1457 46.9544 44.1457C47.7669 44.4166 48.8503 44.6874 49.6628 44.9583C49.9336 44.9583 50.2044 44.9583 50.2044 44.6874C50.2044 44.4166 50.2044 44.1457 49.9336 44.1457C49.1211 43.8749 48.0378 43.6041 47.2253 43.3333Z" fill="white"/>
    <path d="M52.1003 44.4165C51.8294 44.4165 51.5586 44.6873 51.5586 44.9582C51.5586 45.229 51.8294 45.4998 52.1003 45.4998C54.2669 45.7707 56.7044 46.0415 58.6003 45.7707C58.8711 45.7707 59.1419 45.4998 59.1419 45.229C59.1419 44.9582 58.8711 44.6873 58.6003 44.6873C56.4336 44.9582 54.2669 44.6873 52.1003 44.4165Z" fill="white"/>
  </g>
  <defs>
    <linearGradient id="paint0_linear_12173_7566" x1="15.8537" y1="3.72678" x2="25.8439" y2="38.0313" gradientUnits="userSpaceOnUse">
      <stop stop-color="#03B8FF"/>
      <stop offset="1" stop-color="#FA52A0"/>
    </linearGradient>
    <linearGradient id="paint1_linear_12173_7566" x1="24.0527" y1="1.33857" x2="34.0426" y2="35.6429" gradientUnits="userSpaceOnUse">
      <stop stop-color="#03B8FF"/>
      <stop offset="1" stop-color="#FA52A0"/>
    </linearGradient>
    <linearGradient id="paint2_linear_12173_7566" x1="32.2802" y1="-1.05751" x2="42.2705" y2="33.2471" gradientUnits="userSpaceOnUse">
      <stop stop-color="#03B8FF"/>
      <stop offset="1" stop-color="#FA52A0"/>
    </linearGradient>
    <linearGradient id="paint3_linear_12173_7566" x1="15.8518" y1="3.72676" x2="25.842" y2="38.0313" gradientUnits="userSpaceOnUse">
      <stop stop-color="#03B8FF"/>
      <stop offset="1" stop-color="#FA52A0"/>
    </linearGradient>
  </defs>
</svg>
