<svg width="52" height="52" viewBox="0 0 52 52" fill="none" xmlns="http://www.w3.org/2000/svg">
  <path d="M26 52C40.3594 52 52 40.3594 52 26C52 11.6406 40.3594 0 26 0C11.6406 0 0 11.6406 0 26C0 40.3594 11.6406 52 26 52Z" fill="#22BA79"/>
  <mask id="mask0_12173_7584" style="mask-type:luminance" maskUnits="userSpaceOnUse" x="8" y="8" width="36" height="36">
    <path d="M13.8053 13.6697C12.9537 14.5197 12.2101 15.4381 11.573 16.406C11.0648 17.1767 10.6239 17.9813 10.2523 18.8073C7.36525 25.2119 8.54921 33.0174 13.8053 38.2719C20.5886 45.0574 31.6246 45.0574 38.4074 38.2719C45.1903 31.4896 45.1903 20.4531 38.4074 13.6697C35.0158 10.2786 30.5612 8.58325 26.1066 8.58325C21.6515 8.58325 17.1969 10.2786 13.8053 13.6697ZM24.4859 30.2535C20.3653 28.5811 16.3041 26.7882 12.5029 24.4626L12.495 24.4579C12.0139 24.1662 11.7734 23.6006 11.8861 23.049C12.0343 22.3211 12.2383 21.6026 12.4992 20.8987C13.033 19.458 13.8032 18.0857 14.8113 16.8428C15.1291 16.4488 15.4703 16.0684 15.8366 15.7021C21.4986 10.0396 30.712 10.0396 36.3761 15.7021C37.6352 16.9607 38.6136 18.3956 39.3128 19.9282C39.7886 20.9733 38.8197 22.0936 37.7187 21.767C36.7721 21.4878 35.824 21.2165 34.8702 20.9655C32.6703 20.3847 30.4422 19.8979 28.2204 19.3876C27.8447 19.302 27.7012 19.1507 27.8145 18.7666C28.0127 18.0993 28.1901 17.4256 28.3785 16.7562C28.5726 16.059 28.2225 15.6948 27.5071 15.8655C27.0135 15.9839 26.5251 16.1243 26.031 16.2464C24.0888 16.7269 22.1472 17.196 20.2124 17.6907C19.5299 17.8624 19.4224 18.2203 19.8785 18.7411C20.3241 19.2514 20.8057 19.7294 21.2727 20.2193C22.6127 21.6209 23.9432 23.0287 25.2942 24.4187C25.7972 24.9348 26.1259 24.8696 26.3613 24.1944C26.6002 23.5051 26.7886 22.7923 26.9545 22.079C27.0652 21.5953 27.2989 21.5149 27.7263 21.6892C31.8469 23.3611 35.9086 25.1545 39.7099 27.4801C39.713 27.4817 39.7156 27.4833 39.7182 27.4854C40.1967 27.776 40.4404 28.3385 40.3282 28.8874C40.2687 29.1828 40.1998 29.4776 40.121 29.7703C39.8554 30.7549 39.485 31.7176 39.0091 32.6391C38.3407 33.9358 37.4625 35.1537 36.3761 36.2406C35.3069 37.3092 34.1089 38.177 32.8336 38.8438C27.3584 41.7012 20.43 40.8334 15.8366 36.2406C14.5775 34.9815 13.5986 33.5471 12.8999 32.0145C12.423 30.9699 13.392 29.8491 14.494 30.1752C15.4401 30.4544 16.3887 30.7257 17.3425 30.9777C19.5424 31.558 21.77 32.0443 23.9918 32.5546C24.3675 32.6412 24.511 32.7915 24.3983 33.1745C24.2005 33.8429 24.0226 34.516 23.8321 35.185C23.6385 35.8832 23.9902 36.2479 24.703 36.0773C25.1971 35.9583 25.6876 35.8184 26.1812 35.6964C28.1218 35.2147 30.0634 34.7456 31.9998 34.252C32.6813 34.0798 32.7903 33.7229 32.3343 33.2011C31.8881 32.6908 31.407 32.2134 30.94 31.7213C29.5995 30.3218 28.2674 28.9114 26.918 27.5229C26.416 27.0058 26.0868 27.0721 25.8509 27.7473C25.613 28.4376 25.4236 29.1504 25.2582 29.8632C25.182 30.195 25.0479 30.338 24.8329 30.338C24.7348 30.338 24.6195 30.3083 24.4859 30.2535Z" fill="white"/>
  </mask>
  <g mask="url(#mask0_12173_7584)">
    <path fill-rule="evenodd" clip-rule="evenodd" d="M7.31445 45.0432H45.4578V6.33887H7.31445V45.0432Z" fill="white"/>
  </g>
</svg>
