<svg width="37" height="52" viewBox="0 0 37 52" fill="none" xmlns="http://www.w3.org/2000/svg">
  <path d="M16.4094 21.532C19.1878 23.6929 22.3461 25.3077 24.9108 27.7774C29.019 31.7431 30.99 37.0861 28.449 42.5954C25.7894 48.3421 19.1878 52.8303 11.6363 51.0255C5.22466 49.482 0.784003 43.9965 0.570282 37.3711C0.475294 34.3553 1.06896 31.5294 2.63625 28.941C2.92122 28.4898 2.89747 28.2286 2.39879 27.9674C2.01884 27.7774 1.40142 27.6112 1.42517 27.2075C1.44891 26.8038 2.09008 26.7325 2.49377 26.5188C4.41727 25.5214 6.34076 24.5241 8.26425 23.5505C8.52547 23.408 8.76293 23.218 9.16663 23.218C9.04789 26.0914 8.92916 28.941 8.78668 31.8618C8.16926 31.6719 7.71807 31.3157 7.24314 30.9832C6.83944 30.6983 6.62572 30.6745 6.34076 31.1494C3.0637 36.8487 5.48587 45.2313 12.8474 46.8223C17.5255 47.8435 21.7287 45.2313 23.7472 42.0967C26.0744 38.4635 25.6469 34.8302 22.5836 31.5531C21.9424 30.8645 21.2538 30.1996 20.5651 29.5347C20.1139 27.9911 19.1403 26.7088 18.4279 25.284C17.763 24.0491 16.9081 22.8856 16.4094 21.532Z" fill="#8D8EF9"/>
  <path d="M16.4102 21.5317C16.9088 22.8853 17.7637 24.0489 18.4049 25.355C19.1173 26.7798 20.0909 28.0621 20.5421 29.6057C18.6661 28.3233 16.7426 27.0647 14.9141 25.7112C12.8006 24.1676 11.0671 22.2679 9.83229 19.9407C8.05128 16.5449 7.81381 12.9829 9.40485 9.46836C11.6371 4.45778 15.484 1.18072 20.8983 0.2071C26.7163 -0.861507 32.558 2.29682 35.2651 7.56861C37.7348 12.3655 37.5211 17.1148 34.9089 21.7692C34.4102 22.6478 34.529 23.0515 35.3839 23.4077C35.7401 23.5502 36.025 23.8114 36.5237 24.1201C33.8403 25.4975 31.2519 26.8273 28.521 28.2521C28.6398 25.2362 28.7585 22.3629 28.901 19.3233C29.4234 19.6557 29.8509 19.8932 30.2546 20.1782C30.6583 20.4631 30.8957 20.4156 31.1569 19.9882C34.149 15.2388 32.8667 8.89843 28.2361 5.7876C24.4603 3.24669 19.616 3.76912 16.1489 7.06993C14.8191 8.32851 13.703 9.72957 13.0619 11.4868C11.827 14.9064 12.9431 17.756 15.1991 20.3207C15.579 20.7481 16.0065 21.128 16.4102 21.5317Z" fill="#51559C"/>
</svg>
