<svg width="58" height="53" viewBox="0 0 58 53" fill="none" xmlns="http://www.w3.org/2000/svg">
  <path d="M21.842 50.6361C23.4446 52.1627 25.5686 53.0092 27.7737 52.9999C29.9615 52.9993 32.0728 52.1909 33.7071 50.7249C39.6681 45.1489 39.0494 35.0471 35.89 23.2801L30.4008 25.4402C33.3234 36.7403 33.2042 43.5428 29.8408 46.6661C28.8366 47.6016 27.0357 47.8628 25.7671 46.6365C23.9956 44.9729 23.1988 40.5344 23.6724 35.3381C24.1442 30.1418 25.736 26.4819 27.7754 24.2922C31.7299 20.0592 37.8482 20.3675 43.0194 19.8902C46.3776 19.5802 47.8726 19.2213 50.3527 18.8137C56.02 17.8783 58.5295 12.0096 57.9073 7.71909C57.2592 3.39726 53.6573 -0.5727 47.9331 0.0683454C42.532 0.709391 35.9799 4.06791 29.6334 6.52061C21.9008 9.529 13.7258 13.6157 8.61851 13.0321C6.34747 12.7691 5.75638 10.9592 5.66824 10.4052C5.49022 9.20673 5.78576 7.8358 7.43806 6.75578C10.2432 4.82741 17.4434 3.25093 23.9662 6.11299L29.4277 4.09753C23.0242 -1.0709 11.1281 -0.806125 5.01838 1.99322C1.32838 3.65855 -0.500209 7.3376 0.118537 11.2779C0.768393 15.2496 3.92607 18.0803 7.941 18.5489C14.4638 19.3084 23.2887 14.957 31.6988 11.6873C37.6909 9.38093 43.9181 6.14086 48.6106 5.58517C51.7095 5.20542 52.5045 8.19987 52.5909 8.75556C52.6808 9.30951 52.9366 12.4433 49.4073 13.323C47.4889 13.6732 45.6724 13.8334 43.0194 14.1714C34.8685 15.2078 29.3379 15.011 23.6724 20.7386C16.8748 27.6072 15.4368 44.5043 21.842 50.6361Z" fill="white"/>
</svg>
