<svg width="51" height="54" viewBox="0 0 51 54" fill="none" xmlns="http://www.w3.org/2000/svg">
  <path fill-rule="evenodd" clip-rule="evenodd" d="M28.2146 9.60178C27.3441 10.1762 26.3209 10.4819 25.2752 10.4797C23.875 10.4769 22.5335 9.92363 21.5443 8.94125C20.5554 7.95888 20.0001 6.62767 20.0001 5.23985C20.0001 4.20302 20.3103 3.18951 20.8917 2.32761C21.4729 1.46568 22.2992 0.794143 23.2654 0.397857C24.232 0.00158615 25.2953 -0.101624 26.3209 0.101516C27.3466 0.304519 28.2884 0.804641 29.0271 1.53844C29.7661 2.27232 30.2686 3.20702 30.4712 4.22412C30.674 5.24124 30.5679 6.29515 30.1662 7.25244C29.7643 8.20976 29.0853 9.02733 28.2146 9.60178ZM5.28567 22.2745C4.2403 22.2745 3.21836 22.5819 2.34911 23.1576C1.47986 23.7335 0.802445 24.5517 0.402389 25.5093C0.00231936 26.4667 -0.102433 27.5203 0.101612 28.5366C0.305551 29.5531 0.808983 30.4867 1.54812 31.2196C2.28737 31.9525 3.22917 32.4514 4.25453 32.6536C5.27989 32.8559 6.34261 32.7521 7.30848 32.3555C8.27435 31.9589 9.09983 31.2873 9.68063 30.4256C10.2614 29.5637 10.5714 28.5507 10.5714 27.5144C10.5714 26.1248 10.0146 24.7919 9.02322 23.8092C8.03199 22.8268 6.68756 22.2745 5.28567 22.2745ZM41.9373 23.1576C42.8067 22.5819 43.8287 22.2745 44.874 22.2745C46.276 22.2745 47.6204 22.8268 48.6115 23.8092C49.6029 24.7919 50.1597 26.1248 50.1597 27.5144C50.1597 28.5507 49.8498 29.5637 49.269 30.4256C48.6882 31.2873 47.8627 31.9589 46.8969 32.3555C45.9309 32.7521 44.8681 32.8559 43.843 32.6536C42.8174 32.4514 41.8757 31.9525 41.1365 31.2196C40.3974 30.4867 39.8939 29.5531 39.6899 28.5366C39.486 27.5203 39.5907 26.4667 39.9908 25.5093C40.3907 24.5517 41.0682 23.7335 41.9373 23.1576ZM22.338 44.4034C23.2072 43.8277 24.2292 43.5206 25.2745 43.5206C26.6765 43.5206 28.0209 44.0726 29.012 45.0553C30.0035 46.0379 30.5602 47.3706 30.5602 48.7604C30.5602 49.7965 30.2503 50.8095 29.6695 51.6714C29.0887 52.5331 28.2632 53.2047 27.2974 53.6013C26.3314 53.9979 25.2688 54.1017 24.2433 53.8995C23.2181 53.6973 22.2762 53.1983 21.537 52.4654C20.7979 51.7327 20.2944 50.799 20.0904 49.7826C19.8865 48.7661 19.9912 47.7126 20.3913 46.7552C20.7914 45.7977 21.4687 44.9793 22.338 44.4034ZM37.2998 34.2813C35.4089 32.3953 34.3477 29.8442 34.3477 27.1852C34.3477 24.5261 35.4089 21.9751 37.2998 20.0892C38.037 19.3553 38.5384 18.4218 38.7406 17.406C38.943 16.3899 38.8371 15.3375 38.4362 14.3813C38.0357 13.425 37.3582 12.6078 36.4894 12.033C35.6207 11.4581 34.5995 11.1514 33.5549 11.1514C32.5104 11.1514 31.4894 11.4581 30.6206 12.033C29.7517 12.6078 29.0742 13.425 28.6737 14.3813C28.273 15.3375 28.1671 16.3899 28.3693 17.406C28.5715 18.4218 29.073 19.3553 29.81 20.0892C30.7598 21.0219 31.5138 22.1322 32.0285 23.3557C32.5429 24.5791 32.8078 25.8916 32.8078 27.2171C32.8078 28.5425 32.5429 29.8548 32.0285 31.0783C31.5138 32.3017 30.7598 33.412 29.81 34.345C29.073 35.0784 28.5715 36.0124 28.3693 37.0281C28.1671 38.0441 28.273 39.0964 28.6737 40.0528C29.0742 41.0091 29.7517 41.8261 30.6206 42.4009C31.4894 42.9758 32.5104 43.2827 33.5549 43.2827C34.5995 43.2827 35.6207 42.9758 36.4894 42.4009C37.3582 41.8261 38.0357 41.0091 38.4362 40.0528C38.8371 39.0964 38.943 38.0441 38.7406 37.0281C38.5384 36.0124 38.037 35.0784 37.2998 34.345V34.2813ZM20.5666 33.6552C21.5354 34.6402 22.0803 35.9599 22.0858 37.3359L22.1287 37.3889C22.1281 38.2487 21.914 39.0951 21.5052 39.8534C21.0967 40.612 20.5059 41.2589 19.7854 41.7375C19.065 42.2161 18.2366 42.5115 17.3737 42.5981C16.5108 42.6844 15.6397 42.5587 14.8373 42.2324C14.0347 41.9061 13.3257 41.3893 12.7723 40.7271C12.2191 40.0648 11.8388 39.2779 11.6647 38.4356C11.4908 37.5931 11.5287 36.7214 11.7749 35.8971C12.021 35.0726 12.4681 34.3209 13.0766 33.7082C14.0249 32.7755 14.7775 31.6659 15.2911 30.4435C15.8047 29.221 16.069 27.9099 16.069 26.5856C16.069 25.2614 15.8047 23.9502 15.2911 22.7278C14.7775 21.5053 14.0249 20.3958 13.0766 19.4628C12.3396 18.7294 11.8383 17.7956 11.6359 16.7797C11.4337 15.7639 11.5397 14.7114 11.9402 13.7552C12.341 12.7988 13.0185 11.9818 13.8872 11.4069C14.756 10.8321 15.777 10.5252 16.8216 10.5252C17.8662 10.5252 18.8873 10.8321 19.756 11.4069C20.6247 11.9818 21.3024 12.7988 21.7029 13.7552C22.1036 14.7114 22.2095 15.7639 22.0073 16.7797C21.8049 17.7956 21.3038 18.7294 20.5666 19.4628C18.6756 21.3489 17.6143 23.8999 17.6143 26.559C17.6143 29.2181 18.6756 31.7693 20.5666 33.6552Z" fill="white"/>
</svg>
