<svg width="41" height="41" viewBox="0 0 41 41" fill="none" xmlns="http://www.w3.org/2000/svg">
  <path fill-rule="evenodd" clip-rule="evenodd" d="M11.1837 20.1998L20.2015 20.1997V11.182L26.6942 4.68923C26.9329 4.45534 27.2546 4.32562 27.5888 4.32852H32.4908C32.5318 4.33034 32.5714 4.34376 32.605 4.36719C32.6386 4.39063 32.6649 4.42314 32.6808 4.46093C32.6966 4.49871 32.7015 4.54023 32.6947 4.58065C32.6879 4.62106 32.6697 4.65872 32.6423 4.68923L23.1809 14.1615L26.2398 17.2203L39.7628 3.70089C40.0673 3.39882 40.2752 3.01306 40.3601 2.59259C40.3796 2.49619 40.3924 2.39897 40.3986 2.30159V2.02697C40.3836 1.79186 40.3303 1.55949 40.2396 1.33934C40.0761 0.942767 39.7984 0.603725 39.4418 0.365259C39.0853 0.126794 38.6659 -0.000338749 38.237 3.83283e-06H26.2289C26.2275 1.2775e-06 26.2261 0 26.2247 0C25.9181 0 25.6144 0.0602371 25.331 0.177304C25.0463 0.294911 24.7875 0.46756 24.5697 0.685352L20.2015 5.04994L15.8333 0.685352C15.6154 0.46756 15.3567 0.294911 15.072 0.177304C14.7885 0.0602371 14.4849 0 14.1783 0C14.1768 0 14.1754 1.2775e-06 14.174 3.83283e-06H2.16599C1.73703 -0.000338749 1.31765 0.126794 0.961095 0.365259C0.604535 0.603725 0.326879 0.942767 0.163381 1.33934C-0.000118003 1.73591 -0.0420845 2.17212 0.0428095 2.59259C0.127704 3.01306 0.335629 3.39882 0.640186 3.70089L14.1632 17.2203L11.1837 20.1998ZM20.2015 11.182L13.7087 4.68923C13.4736 4.45885 13.1578 4.32941 12.8286 4.32852H7.91209C7.87115 4.33034 7.83156 4.34376 7.79794 4.36719C7.76432 4.39063 7.73805 4.42314 7.72218 4.46093C7.70631 4.49871 7.70149 4.54023 7.70829 4.58065C7.71509 4.62106 7.73323 4.65872 7.7606 4.68923L17.222 14.1615L20.2015 11.182Z" fill="#FF0199"/>
  <path fill-rule="evenodd" clip-rule="evenodd" d="M0 38.4036V38.0663C0.0067467 37.98 0.0186895 37.8939 0.0358738 37.8084C0.120542 37.3873 0.328622 37.0008 0.633621 36.6983L14.1638 23.1789L17.2227 26.2378L7.76125 35.71C7.73388 35.7405 7.71574 35.7782 7.70894 35.8186C7.70214 35.859 7.70696 35.9005 7.72283 35.9383C7.7387 35.9761 7.76497 36.0086 7.79859 36.032C7.83221 36.0555 7.8718 36.0689 7.91274 36.0707H12.8292C13.1584 36.0698 13.4742 35.9404 13.7093 35.71L20.2021 29.2172L26.6949 35.71C26.9336 35.9439 27.2553 36.0736 27.5895 36.0707H32.4915C32.5324 36.0689 32.572 36.0555 32.6057 36.032C32.6393 36.0086 32.6655 35.9761 32.6814 35.9383C32.6973 35.9005 32.7021 35.859 32.6953 35.8186C32.6885 35.7782 32.6704 35.7405 32.643 35.71L23.1816 26.2378L20.2021 29.2172V20.1997H29.2196L26.2404 23.1789L39.7634 36.6983C40.068 37.0004 40.2759 37.3862 40.3608 37.8066C40.3805 37.9044 40.3934 38.0031 40.3995 38.1019V38.368C40.3849 38.6046 40.3315 38.8384 40.2402 39.0599C40.0767 39.4565 39.7991 39.7955 39.4425 40.034C39.0859 40.2724 38.6666 40.3996 38.2376 40.3992H26.2296C25.9215 40.3998 25.6164 40.3395 25.3316 40.2219C25.0469 40.1043 24.7882 39.9317 24.5703 39.7139L20.2021 35.3493L15.8339 39.7139C15.6161 39.9317 15.3573 40.1043 15.0726 40.2219C14.7879 40.3395 14.4827 40.3998 14.1747 40.3992H2.16664C1.73707 40.401 1.31669 40.2749 0.95902 40.037C0.60135 39.7991 0.32257 39.4601 0.158175 39.0632C0.0706319 38.8519 0.0176342 38.6292 0 38.4036Z" fill="#34CBCA"/>
</svg>
