<svg width="42" height="49" viewBox="0 0 42 49" fill="none" xmlns="http://www.w3.org/2000/svg">
  <path fill-rule="evenodd" clip-rule="evenodd" d="M32.9906 7.68114C35.2669 9.27504 35.8202 12.4125 34.2263 14.6888L16.258 40.3502C14.6641 42.6265 11.5267 43.1797 9.25033 41.5858C6.97398 39.9919 6.42077 36.8545 8.01467 34.5781L25.9829 8.91677C27.5768 6.64044 30.7143 6.08723 32.9906 7.68113L32.9906 7.68114ZM39.4537 18.3491C43.0691 13.1857 41.8143 6.06912 36.6509 2.4537L36.6509 2.45369C31.4875 -1.16173 24.3709 0.0931201 20.7555 5.25648L2.78723 30.9178C-0.828192 36.0812 0.426658 43.1978 5.59002 46.8132C10.7534 50.4287 17.87 49.1738 21.4854 44.0105L39.4537 18.3491Z" fill="white"/>
</svg>
