<svg width="43" height="49" viewBox="0 0 43 49" fill="none" xmlns="http://www.w3.org/2000/svg">
  <path fill-rule="evenodd" clip-rule="evenodd" d="M2.23639 0H40.0797C41.5585 0 42.5258 1.5494 41.8766 2.87805L32.2429 22.5936C31.9824 23.1266 31.9721 23.7478 32.2146 24.2892L42.0209 46.1824C42.6136 47.5056 41.6455 49 40.1956 49H2.0025C0.526372 49 -0.441129 47.4557 0.202865 46.1275L11.1354 23.5791C11.4218 22.9884 11.4001 22.2947 11.0773 21.7231L0.494881 2.98344C-0.258009 1.6502 0.705252 0 2.23639 0ZM15.5873 16.7773L9.99488 6.6577H33.1634L18.2503 36.4838H24.3753L27.8373 29.8262L33.1634 41.8099H9.99488L24.3753 11.4512H18.2503L15.5873 16.7773Z" fill="url(#paint0_linear_12173_7642)"/>
  <defs>
    <linearGradient id="paint0_linear_12173_7642" x1="21.0718" y1="0" x2="21.0718" y2="49" gradientUnits="userSpaceOnUse">
      <stop stop-color="#4BFF38"/>
      <stop offset="1" stop-color="#493AF7"/>
    </linearGradient>
  </defs>
</svg>
