<svg width="425" height="42" viewBox="0 0 425 42" fill="none" xmlns="http://www.w3.org/2000/svg">
  <rect x="383" width="42" height="42" rx="12" fill="black"/>
  <path d="M396.126 32.4138H391V10H398.636L403.379 22.7691V26.4368H404.774V22.7691L409.517 10H417V32.4138H412.028V21.2748L414.12 14.8903L412.725 14.4828L406.03 32.4138H402.124L395.568 14.4828L394.033 14.8903L396.126 21.2748V32.4138Z" fill="#DFFE00"/>
  <path fill-rule="evenodd" clip-rule="evenodd" d="M138.668 39.2784C136.619 39.2784 134.653 39.1297 132.77 38.8324C130.887 38.535 129.168 38.122 127.616 37.5934C126.096 37.0317 124.774 36.4204 123.651 35.7596L128.161 27.1361C129.449 27.863 130.738 28.4742 132.026 28.9698C133.348 29.4324 134.653 29.7793 135.942 30.0106C137.263 30.2419 138.568 30.3575 139.857 30.3575C140.881 30.3575 141.724 30.2749 142.385 30.1097C143.078 29.9445 143.591 29.7132 143.921 29.4159C144.284 29.0854 144.466 28.722 144.466 28.3255C144.466 27.7969 144.169 27.3673 143.574 27.0369C142.979 26.7065 142.186 26.4092 141.195 26.1448C140.237 25.8805 139.163 25.6162 137.974 25.3519C136.817 25.0545 135.644 24.6911 134.455 24.2615C133.265 23.799 132.175 23.2208 131.184 22.5269C130.226 21.8331 129.449 20.9575 128.855 19.9002C128.26 18.8429 127.962 17.5543 127.962 16.0345C127.962 13.3912 128.656 11.0949 130.044 9.14553C131.465 7.19614 133.48 5.6928 136.09 4.6355C138.734 3.54517 141.873 3 145.507 3C148.084 3 150.48 3.26432 152.693 3.79297C154.94 4.28858 156.873 5.01547 158.492 5.97364L154.279 14.4981C152.892 13.639 151.372 12.9947 149.72 12.5652C148.101 12.1357 146.449 11.9209 144.764 11.9209C143.64 11.9209 142.699 12.0366 141.939 12.2678C141.179 12.4661 140.6 12.7469 140.204 13.1104C139.841 13.4738 139.659 13.8538 139.659 14.2503C139.659 14.7789 139.956 15.225 140.551 15.5884C141.146 15.9188 141.939 16.2162 142.93 16.4805C143.921 16.7118 144.995 16.9761 146.151 17.2735C147.341 17.5378 148.514 17.8847 149.67 18.3143C150.86 18.7107 151.95 19.2559 152.941 19.9498C153.932 20.6106 154.725 21.4696 155.32 22.5269C155.915 23.5512 156.212 24.8232 156.212 26.3431C156.212 28.9202 155.502 31.1835 154.081 33.1329C152.66 35.0493 150.628 36.5526 147.985 37.6429C145.375 38.7333 142.269 39.2784 138.668 39.2784ZM167.46 38.8324C169.344 39.1297 171.31 39.2784 173.358 39.2784C176.959 39.2784 180.065 38.7333 182.675 37.6429C185.319 36.5526 187.351 35.0493 188.771 33.1329C190.192 31.1835 190.903 28.9202 190.903 26.3431C190.903 24.8232 190.605 23.5512 190.01 22.5269C189.416 21.4696 188.623 20.6106 187.632 19.9498C186.64 19.2559 185.55 18.7107 184.361 18.3143C183.204 17.8847 182.031 17.5378 180.842 17.2735C179.685 16.9761 178.611 16.7118 177.62 16.4805C176.629 16.2162 175.836 15.9188 175.241 15.5884C174.647 15.225 174.349 14.7789 174.349 14.2503C174.349 13.8538 174.531 13.4738 174.894 13.1104C175.291 12.7469 175.869 12.4661 176.629 12.2678C177.389 12.0366 178.331 11.9209 179.454 11.9209C181.139 11.9209 182.791 12.1357 184.41 12.5652C186.062 12.9947 187.582 13.639 188.97 14.4981L193.182 5.97364C191.563 5.01547 189.63 4.28858 187.384 3.79297C185.17 3.26432 182.775 3 180.197 3C176.563 3 173.424 3.54517 170.781 4.6355C168.171 5.6928 166.155 7.19614 164.735 9.14553C163.347 11.0949 162.653 13.3912 162.653 16.0345C162.653 17.5543 162.95 18.8429 163.545 19.9002C164.14 20.9575 164.916 21.8331 165.874 22.5269C166.866 23.2208 167.956 23.799 169.145 24.2615C170.335 24.6911 171.508 25.0545 172.664 25.3519C173.854 25.6162 174.927 25.8805 175.886 26.1448C176.877 26.4092 177.67 26.7065 178.265 27.0369C178.859 27.3673 179.157 27.7969 179.157 28.3255C179.157 28.722 178.975 29.0854 178.611 29.4159C178.281 29.7132 177.769 29.9445 177.075 30.1097C176.414 30.2749 175.572 30.3575 174.548 30.3575C173.259 30.3575 171.954 30.2419 170.632 30.0106C169.344 29.7793 168.039 29.4324 166.717 28.9698C165.428 28.4742 164.14 27.863 162.851 27.1361L158.341 35.7596C159.465 36.4204 160.786 37.0317 162.306 37.5934C163.859 38.122 165.577 38.535 167.46 38.8324ZM206.379 29.664L207.294 25.1044H221.991L223.676 16.6791H208.984L209.799 12.6151H226.501L228.285 3.79333H200.085L193.146 38.4858H221.991L223.775 29.664H206.379ZM235.171 38.4858L237.701 25.7506L229.025 3.79333H240.771L245.486 15.8087L255.144 3.79333H266.89L249.364 25.9173L246.867 38.4858H235.171ZM98.919 25.7506L96.3886 38.4858H108.085L110.582 25.9173L128.107 3.79333H116.362L106.703 15.8087L101.989 3.79333H90.2431L98.919 25.7506ZM50.6339 39.1796L57.5724 4.48707H73.2336C76.9011 4.48707 80.0565 5.0818 82.6997 6.27126C85.3429 7.46072 87.3749 9.1623 88.7957 11.376C90.2164 13.5567 90.9268 16.1669 90.9268 19.2066C90.9268 22.2794 90.3816 25.0382 89.2913 27.4832C88.234 29.9282 86.7307 32.0263 84.7813 33.7774C82.8649 35.5286 80.5851 36.8667 77.9419 37.7919C75.2986 38.717 72.3911 39.1796 69.2192 39.1796H50.6339ZM64.164 30.0604H69.6157C71.6972 30.0604 73.4319 29.6143 74.8196 28.7223C76.2403 27.7971 77.3141 26.5746 78.041 25.0548C78.7679 23.5019 79.1313 21.7838 79.1313 19.9005C79.1313 18.5458 78.8505 17.4059 78.2888 16.4808C77.7602 15.5556 76.9507 14.8453 75.8603 14.3497C74.803 13.854 73.4814 13.6062 71.8955 13.6062H67.435L64.164 30.0604ZM9.3218 32.8482C8.57001 33.0333 7.77161 32.7635 7.34531 32.1172C7.28587 32.0271 7.22733 31.9362 7.1697 31.8445C6.80218 31.2377 6.48219 30.6076 6.20974 29.9544C3.18671 32.1724 1.60809 34.0658 2.08419 35.228C3.19014 37.9279 14.9645 35.6607 28.3829 30.1641C41.8013 24.6674 51.7826 18.0229 50.6766 15.323C50.1992 14.1575 47.7338 13.9177 44.0062 14.4636C44.2055 15.2496 44.343 16.0663 44.4189 16.9139C44.4809 17.6061 44.1291 18.2627 43.5414 18.6335C40.4622 20.5763 36.9753 22.4895 33.1708 24.302C32.5708 24.5879 31.8986 23.9043 32.0987 23.2705C32.4952 21.982 32.6935 20.6273 32.6935 19.2066C32.6935 18.555 32.6285 17.9455 32.4985 17.378C29.9186 18.2292 27.1842 19.2375 24.3779 20.387C21.7163 21.4773 19.1899 22.6128 16.8584 23.7536C16.9348 24.8006 17.191 25.7464 17.627 26.5911C18.1887 27.6154 18.9651 28.4083 19.9564 28.97C20.2486 29.1303 20.2393 29.5971 19.9242 29.7059C16.291 30.9598 12.7329 32.0083 9.3218 32.8482ZM23.6198 18.5363C21.2751 19.4967 19.0278 20.4942 16.9183 21.503C17.0114 20.6558 17.1815 19.8408 17.4288 19.0579C17.8252 17.7693 18.42 16.6294 19.2129 15.6382C20.0059 14.647 20.9641 13.8705 22.0875 13.3088C23.2108 12.7471 24.4829 12.4663 25.9036 12.4663C27.3244 12.4663 28.5304 12.7471 29.5216 13.3088C30.4879 13.8387 31.2336 14.5745 31.7588 15.5161C29.1611 16.3762 26.4215 17.3886 23.6198 18.5363ZM42.3082 10.4839C42.7201 11.1391 43.0737 11.8236 43.3689 12.5372C45.1655 12.2575 46.774 12.1321 48.0983 12.2054C48.9464 12.2523 49.7955 12.3858 50.5365 12.6888C51.2824 12.9939 52.1151 13.5585 52.5274 14.5649C52.9396 15.5713 52.7424 16.5579 52.4248 17.2986C52.1093 18.0343 51.5979 18.7252 51.0264 19.3536C49.8762 20.6184 48.1579 21.9795 46.0847 23.3596C45.3914 23.8212 44.6484 24.2914 43.8601 24.7674C43.6421 25.5107 43.3825 26.2338 43.0813 26.9366C42.024 29.4477 40.5206 31.6284 38.5712 33.4787C36.6219 35.3289 34.309 36.7662 31.6327 37.7904C28.9565 38.7817 26.0324 39.2773 22.8605 39.2773C19.2591 39.2773 16.1368 38.6165 13.4935 37.2948C13.4484 37.272 13.4034 37.2489 13.3585 37.2258C12.538 37.4189 11.7486 37.5884 10.9945 37.7337C8.54887 38.2046 6.36954 38.4401 4.66255 38.3457C3.81448 38.2988 2.96532 38.1652 2.22437 37.8623C1.47841 37.5572 0.6457 36.9926 0.233451 35.9862C-0.178799 34.9798 0.0184805 33.9932 0.336071 33.2525C0.651526 32.5168 1.16295 31.8259 1.73441 31.1975C2.66838 30.1705 3.97688 29.08 5.54583 27.9674C5.20767 26.6495 5.03859 25.2491 5.03859 23.7661C5.03859 20.6934 5.56724 17.9015 6.62453 15.3904C7.71487 12.8463 9.23473 10.6491 11.1841 8.7988C13.1335 6.94854 15.4463 5.5278 18.1226 4.53658C20.7989 3.51233 23.723 3.0002 26.8949 3.0002C30.4963 3.0002 33.6021 3.66101 36.2123 4.98263C38.8555 6.30425 40.8875 8.138 42.3082 10.4839Z" fill="black"/>
  <path d="M274.755 7.07462C275.2 4.7116 277.264 3 279.668 3L339.146 3C342.279 3 344.64 5.84717 344.06 8.92538L340.409 28.309C339.964 30.672 337.9 32.3836 335.496 32.3836H276.018C272.886 32.3836 270.524 29.5364 271.104 26.4582L274.755 7.07462Z" fill="black"/>
  <path d="M283.815 24.3213L280.575 10.3213H283.915L286.735 22.7413H284.635L292.515 10.3213H295.875L287.015 24.3213H283.815ZM298.863 24.4813C297.77 24.4813 296.816 24.2813 296.003 23.8813C295.19 23.4813 294.556 22.9213 294.103 22.2013C293.663 21.4813 293.443 20.6346 293.443 19.6613C293.443 18.4613 293.723 17.3946 294.283 16.4613C294.843 15.5146 295.61 14.768 296.583 14.2213C297.57 13.6746 298.69 13.4013 299.943 13.4013C301.05 13.4013 302.003 13.6013 302.803 14.0013C303.616 14.4013 304.243 14.9613 304.683 15.6813C305.136 16.388 305.363 17.2346 305.363 18.2213C305.363 19.408 305.083 20.4746 304.523 21.4213C303.963 22.368 303.196 23.1146 302.223 23.6613C301.25 24.208 300.13 24.4813 298.863 24.4813ZM299.063 21.9213C299.676 21.9213 300.216 21.7746 300.683 21.4813C301.163 21.1746 301.536 20.7546 301.803 20.2213C302.07 19.688 302.203 19.068 302.203 18.3613C302.203 17.6413 301.99 17.0613 301.563 16.6213C301.136 16.1813 300.536 15.9613 299.763 15.9613C299.15 15.9613 298.603 16.1146 298.123 16.4213C297.656 16.7146 297.283 17.128 297.003 17.6613C296.736 18.1946 296.603 18.8146 296.603 19.5213C296.603 20.2546 296.816 20.8413 297.243 21.2813C297.67 21.708 298.276 21.9213 299.063 21.9213ZM306.329 24.3213L309.289 9.48129H312.409L309.449 24.3213H306.329ZM313.765 24.4813C313.231 24.4813 312.791 24.3146 312.445 23.9813C312.098 23.6346 311.925 23.2013 311.925 22.6813C311.925 22.0546 312.125 21.5546 312.525 21.1813C312.938 20.7946 313.431 20.6013 314.005 20.6013C314.538 20.6013 314.971 20.768 315.305 21.1013C315.651 21.4346 315.825 21.868 315.825 22.4013C315.825 22.8146 315.725 23.1813 315.525 23.5013C315.338 23.808 315.091 24.048 314.785 24.2213C314.478 24.3946 314.138 24.4813 313.765 24.4813ZM324.823 24.3213L332.883 11.5613L333.563 12.9613H326.023L327.763 11.4413L327.003 15.2413H324.123L325.103 10.3213H336.323L335.903 12.4213L328.423 24.3213H324.823Z" fill="#D5F205"/>
  <path d="M364 3V38.5" stroke="black"/>
  <path fill-rule="evenodd" clip-rule="evenodd" d="M138.668 39.2784C136.619 39.2784 134.653 39.1297 132.77 38.8324C130.887 38.535 129.168 38.122 127.616 37.5934C126.096 37.0317 124.774 36.4204 123.651 35.7596L128.161 27.1361C129.449 27.863 130.738 28.4742 132.026 28.9698C133.348 29.4324 134.653 29.7793 135.942 30.0106C137.263 30.2419 138.568 30.3575 139.857 30.3575C140.881 30.3575 141.724 30.2749 142.385 30.1097C143.078 29.9445 143.591 29.7132 143.921 29.4159C144.284 29.0854 144.466 28.722 144.466 28.3255C144.466 27.7969 144.169 27.3673 143.574 27.0369C142.979 26.7065 142.186 26.4092 141.195 26.1448C140.237 25.8805 139.163 25.6162 137.974 25.3519C136.817 25.0545 135.644 24.6911 134.455 24.2615C133.265 23.799 132.175 23.2208 131.184 22.5269C130.226 21.8331 129.449 20.9575 128.855 19.9002C128.26 18.8429 127.962 17.5543 127.962 16.0345C127.962 13.3912 128.656 11.0949 130.044 9.14553C131.465 7.19614 133.48 5.6928 136.09 4.6355C138.734 3.54517 141.873 3 145.507 3C148.084 3 150.48 3.26432 152.693 3.79297C154.94 4.28858 156.873 5.01547 158.492 5.97364L154.279 14.4981C152.892 13.639 151.372 12.9947 149.72 12.5652C148.101 12.1357 146.449 11.9209 144.764 11.9209C143.64 11.9209 142.699 12.0366 141.939 12.2678C141.179 12.4661 140.6 12.7469 140.204 13.1104C139.841 13.4738 139.659 13.8538 139.659 14.2503C139.659 14.7789 139.956 15.225 140.551 15.5884C141.146 15.9188 141.939 16.2162 142.93 16.4805C143.921 16.7118 144.995 16.9761 146.151 17.2735C147.341 17.5378 148.514 17.8847 149.67 18.3143C150.86 18.7107 151.95 19.2559 152.941 19.9498C153.932 20.6106 154.725 21.4696 155.32 22.5269C155.915 23.5512 156.212 24.8232 156.212 26.3431C156.212 28.9202 155.502 31.1835 154.081 33.1329C152.66 35.0493 150.628 36.5526 147.985 37.6429C145.375 38.7333 142.269 39.2784 138.668 39.2784ZM167.46 38.8324C169.344 39.1297 171.31 39.2784 173.358 39.2784C176.959 39.2784 180.065 38.7333 182.675 37.6429C185.319 36.5526 187.351 35.0493 188.771 33.1329C190.192 31.1835 190.903 28.9202 190.903 26.3431C190.903 24.8232 190.605 23.5512 190.01 22.5269C189.416 21.4696 188.623 20.6106 187.632 19.9498C186.64 19.2559 185.55 18.7107 184.361 18.3143C183.204 17.8847 182.031 17.5378 180.842 17.2735C179.685 16.9761 178.611 16.7118 177.62 16.4805C176.629 16.2162 175.836 15.9188 175.241 15.5884C174.647 15.225 174.349 14.7789 174.349 14.2503C174.349 13.8538 174.531 13.4738 174.894 13.1104C175.291 12.7469 175.869 12.4661 176.629 12.2678C177.389 12.0366 178.331 11.9209 179.454 11.9209C181.139 11.9209 182.791 12.1357 184.41 12.5652C186.062 12.9947 187.582 13.639 188.97 14.4981L193.182 5.97364C191.563 5.01547 189.63 4.28858 187.384 3.79297C185.17 3.26432 182.775 3 180.197 3C176.563 3 173.424 3.54517 170.781 4.6355C168.171 5.6928 166.155 7.19614 164.735 9.14553C163.347 11.0949 162.653 13.3912 162.653 16.0345C162.653 17.5543 162.95 18.8429 163.545 19.9002C164.14 20.9575 164.916 21.8331 165.874 22.5269C166.866 23.2208 167.956 23.799 169.145 24.2615C170.335 24.6911 171.508 25.0545 172.664 25.3519C173.854 25.6162 174.927 25.8805 175.886 26.1448C176.877 26.4092 177.67 26.7065 178.265 27.0369C178.859 27.3673 179.157 27.7969 179.157 28.3255C179.157 28.722 178.975 29.0854 178.611 29.4159C178.281 29.7132 177.769 29.9445 177.075 30.1097C176.414 30.2749 175.572 30.3575 174.548 30.3575C173.259 30.3575 171.954 30.2419 170.632 30.0106C169.344 29.7793 168.039 29.4324 166.717 28.9698C165.428 28.4742 164.14 27.863 162.851 27.1361L158.341 35.7596C159.465 36.4204 160.786 37.0317 162.306 37.5934C163.859 38.122 165.577 38.535 167.46 38.8324ZM206.379 29.664L207.294 25.1044H221.991L223.676 16.6791H208.984L209.799 12.6151H226.501L228.285 3.79333H200.085L193.146 38.4858H221.991L223.775 29.664H206.379ZM235.171 38.4858L237.701 25.7506L229.025 3.79333H240.771L245.486 15.8087L255.144 3.79333H266.89L249.364 25.9173L246.867 38.4858H235.171ZM98.919 25.7506L96.3886 38.4858H108.085L110.582 25.9173L128.107 3.79333H116.362L106.703 15.8087L101.989 3.79333H90.2431L98.919 25.7506ZM50.6339 39.1796L57.5724 4.48707H73.2336C76.9011 4.48707 80.0565 5.0818 82.6997 6.27126C85.3429 7.46072 87.3749 9.1623 88.7957 11.376C90.2164 13.5567 90.9268 16.1669 90.9268 19.2066C90.9268 22.2794 90.3816 25.0382 89.2913 27.4832C88.234 29.9282 86.7307 32.0263 84.7813 33.7774C82.8649 35.5286 80.5851 36.8667 77.9419 37.7919C75.2986 38.717 72.3911 39.1796 69.2192 39.1796H50.6339ZM64.164 30.0604H69.6157C71.6972 30.0604 73.4319 29.6143 74.8196 28.7223C76.2403 27.7971 77.3141 26.5746 78.041 25.0548C78.7679 23.5019 79.1313 21.7838 79.1313 19.9005C79.1313 18.5458 78.8505 17.4059 78.2888 16.4808C77.7602 15.5556 76.9507 14.8453 75.8603 14.3497C74.803 13.854 73.4814 13.6062 71.8955 13.6062H67.435L64.164 30.0604ZM9.3218 32.8482C8.57001 33.0333 7.77161 32.7635 7.34531 32.1172C7.28587 32.0271 7.22733 31.9362 7.1697 31.8445C6.80218 31.2377 6.48219 30.6076 6.20974 29.9544C3.18671 32.1724 1.60809 34.0658 2.08419 35.228C3.19014 37.9279 14.9645 35.6607 28.3829 30.1641C41.8013 24.6674 51.7826 18.0229 50.6766 15.323C50.1992 14.1575 47.7338 13.9177 44.0062 14.4636C44.2055 15.2496 44.343 16.0663 44.4189 16.9139C44.4809 17.6061 44.1291 18.2627 43.5414 18.6335C40.4622 20.5763 36.9753 22.4895 33.1708 24.302C32.5708 24.5879 31.8986 23.9043 32.0987 23.2705C32.4952 21.982 32.6935 20.6273 32.6935 19.2066C32.6935 18.555 32.6285 17.9455 32.4985 17.378C29.9186 18.2292 27.1842 19.2375 24.3779 20.387C21.7163 21.4773 19.1899 22.6128 16.8584 23.7536C16.9348 24.8006 17.191 25.7464 17.627 26.5911C18.1887 27.6154 18.9651 28.4083 19.9564 28.97C20.2486 29.1303 20.2393 29.5971 19.9242 29.7059C16.291 30.9598 12.7329 32.0083 9.3218 32.8482ZM23.6198 18.5363C21.2751 19.4967 19.0278 20.4942 16.9183 21.503C17.0114 20.6558 17.1815 19.8408 17.4288 19.0579C17.8252 17.7693 18.42 16.6294 19.2129 15.6382C20.0059 14.647 20.9641 13.8705 22.0875 13.3088C23.2108 12.7471 24.4829 12.4663 25.9036 12.4663C27.3244 12.4663 28.5304 12.7471 29.5216 13.3088C30.4879 13.8387 31.2336 14.5745 31.7588 15.5161C29.1611 16.3762 26.4215 17.3886 23.6198 18.5363ZM42.3082 10.4839C42.7201 11.1391 43.0737 11.8236 43.3689 12.5372C45.1655 12.2575 46.774 12.1321 48.0983 12.2054C48.9464 12.2523 49.7955 12.3858 50.5365 12.6888C51.2824 12.9939 52.1151 13.5585 52.5274 14.5649C52.9396 15.5713 52.7424 16.5579 52.4248 17.2986C52.1093 18.0343 51.5979 18.7252 51.0264 19.3536C49.8762 20.6184 48.1579 21.9795 46.0847 23.3596C45.3914 23.8212 44.6484 24.2914 43.8601 24.7674C43.6421 25.5107 43.3825 26.2338 43.0813 26.9366C42.024 29.4477 40.5206 31.6284 38.5712 33.4787C36.6219 35.3289 34.309 36.7662 31.6327 37.7904C28.9565 38.7817 26.0324 39.2773 22.8605 39.2773C19.2591 39.2773 16.1368 38.6165 13.4935 37.2948C13.4484 37.272 13.4034 37.2489 13.3585 37.2258C12.538 37.4189 11.7486 37.5884 10.9945 37.7337C8.54887 38.2046 6.36954 38.4401 4.66255 38.3457C3.81448 38.2988 2.96532 38.1652 2.22437 37.8623C1.47841 37.5572 0.6457 36.9926 0.233451 35.9862C-0.178799 34.9798 0.0184805 33.9932 0.336071 33.2525C0.651526 32.5168 1.16295 31.8259 1.73441 31.1975C2.66838 30.1705 3.97688 29.08 5.54583 27.9674C5.20767 26.6495 5.03859 25.2491 5.03859 23.7661C5.03859 20.6934 5.56724 17.9015 6.62453 15.3904C7.71487 12.8463 9.23473 10.6491 11.1841 8.7988C13.1335 6.94854 15.4463 5.5278 18.1226 4.53658C20.7989 3.51233 23.723 3.0002 26.8949 3.0002C30.4963 3.0002 33.6021 3.66101 36.2123 4.98263C38.8555 6.30425 40.8875 8.138 42.3082 10.4839Z" fill="black"/>
</svg>
