<svg xmlns="http://www.w3.org/2000/svg" width="65" height="65" viewBox="0 0 65 65" fill="none">
  <circle cx="32.5" cy="32.5" r="32.5" fill="black"/>
  <path d="M43.4447 30.7695C43.4447 37.1232 38.4635 42.2738 32.319 42.2738C26.1745 42.2738 21.1934 37.1232 21.1934 30.7695C21.1934 36.7291 26.1745 41.5604 32.319 41.5604C38.4635 41.5604 43.4447 36.7291 43.4447 30.7695Z" fill="#7371FC" stroke="#7371FC" stroke-width="0.272212"/>
  <path d="M45.7564 30.7696C45.7564 38.4038 39.7393 44.5926 32.3167 44.5926C24.894 44.5926 18.877 38.4038 18.877 30.7696C18.877 29.256 19.2204 27.801 19.6828 26.4443C19.2204 27.801 19.0549 29.256 19.0549 30.7696C19.0549 38.0098 24.9925 43.7241 32.3167 43.7241C39.6409 43.7241 45.5785 38.0098 45.5785 30.7696C45.5785 29.2617 45.422 27.812 44.9629 26.4597C45.422 27.812 45.7564 29.2617 45.7564 30.7696Z" fill="#7371FC" stroke="#7371FC" stroke-width="0.272212"/>
  <path d="M46.2693 22.8643C47.5895 25.1978 48.4289 27.8954 48.4289 30.7694C48.4289 39.8319 41.2162 47.1785 32.3189 47.1785C23.4217 47.1785 16.209 39.8319 16.209 30.7694C16.209 27.8905 17.0579 25.1887 18.3823 22.8525C17.0579 25.1887 16.387 27.8905 16.387 30.7694C16.387 39.3886 23.52 46.1317 32.3189 46.1317C41.1178 46.1317 48.2508 39.3886 48.2508 30.7694C48.2508 27.8954 47.5895 25.1978 46.2693 22.8643Z" fill="#7371FC" stroke="#7371FC" stroke-width="0.272212"/>
  <path d="M51.634 30.7694C51.634 41.7035 42.9868 50.5675 32.3199 50.5675C21.653 50.5675 13.0059 41.7035 13.0059 30.7694C13.0059 26.386 14.5596 22.3446 17.0206 19.1074C14.5596 22.3446 13.1839 26.386 13.1839 30.7694C13.1839 41.1124 21.7513 49.2975 32.3199 49.2975C42.8885 49.2975 51.456 41.1124 51.456 30.7694C51.456 26.3894 50.0897 22.351 47.6324 19.1152C50.0897 22.351 51.634 26.3894 51.634 30.7694Z" fill="#7371FC" stroke="#7371FC" stroke-width="0.272212"/>
  <path d="M55.2795 30.7694C55.2795 43.2304 44.9985 52.9987 32.3162 52.9987C19.634 52.9987 9.35295 43.2304 9.35295 30.7694C9.35295 22.218 13.884 14.7511 20.7735 10.7527C13.884 14.7511 9.08594 22.218 9.08594 30.7694C9.08594 43.8706 19.4865 54.4914 32.3162 54.4914C45.146 54.4914 55.5466 43.8706 55.5466 30.7694C55.5466 22.1997 50.7357 14.7191 43.8217 10.7271C50.7357 14.7191 55.2795 22.1997 55.2795 30.7694Z" fill="#7371FC" stroke="#7371FC" stroke-width="0.272212"/>
  <path d="M59.9998 30.7695C59.9998 45.7424 47.6068 56.9673 32.3192 56.9673C17.0316 56.9673 4.63867 45.7424 4.63867 30.7695C4.63867 46.432 17.0316 58.528 32.3192 58.528C47.6068 58.528 59.9998 46.432 59.9998 30.7695Z" fill="#7371FC" stroke="#7371FC" stroke-width="0.272212"/>
</svg>