<svg width="23" height="16" viewBox="0 0 23 16" fill="none" xmlns="http://www.w3.org/2000/svg">
<path d="M1.60937 7C1.05709 7 0.609375 7.44772 0.609375 8C0.609375 8.55228 1.05709 9 1.60938 9L1.60937 7ZM22.3165 8.7071C22.707 8.31658 22.707 7.68342 22.3165 7.29289L15.9525 0.928931C15.562 0.538407 14.9288 0.538407 14.5383 0.928931C14.1478 1.31946 14.1478 1.95262 14.5383 2.34314L20.1952 8L14.5383 13.6569C14.1478 14.0474 14.1478 14.6805 14.5383 15.0711C14.9288 15.4616 15.562 15.4616 15.9525 15.0711L22.3165 8.7071ZM1.60938 9L21.6094 9L21.6094 7L1.60937 7L1.60938 9Z" fill="black"/>
</svg>
