<svg width="127" height="127" viewBox="0 0 127 127" fill="none" xmlns="http://www.w3.org/2000/svg">
<circle opacity="0.6" cx="63.5786" cy="63.4214" r="63.1929" fill="url(#paint0_linear_10185_3273)"/>
<circle cx="63.5787" cy="63.4215" r="60.98" fill="url(#paint1_linear_10185_3273)" stroke="black" stroke-width="4"/>
<path fill-rule="evenodd" clip-rule="evenodd" d="M69.5071 37.1748C69.856 37.0045 70.247 36.9395 70.6323 36.9876L88.78 39.2561C89.4276 39.337 89.9951 39.729 90.3001 40.306L99.626 57.9496C100.072 58.7934 99.8597 59.8347 99.119 60.4365L62.8236 89.9265C62.2762 90.3712 61.5351 90.4948 60.873 90.2517L28.6104 78.4053C28.0944 78.2158 27.679 77.8222 27.4621 77.317C27.2452 76.8119 27.2457 76.2397 27.4637 75.735L37.0416 53.5544C37.2311 53.1158 37.5712 52.7595 38.0006 52.5499L69.5071 37.1748ZM70.7266 41.0305L44.7836 53.6907L57.7206 56.7548L82.3826 42.4875L70.7266 41.0305ZM87.7348 44.0124L60.1761 59.9554L63.1171 84.5341L95.3224 58.3673L87.7348 44.0124ZM59.1889 85.3722L56.2138 60.5085L40.049 56.68L31.9743 75.3793L59.1889 85.3722Z" fill="black"/>
<defs>
<linearGradient id="paint0_linear_10185_3273" x1="0.385742" y1="63.4214" x2="126.772" y2="63.4214" gradientUnits="userSpaceOnUse">
<stop stop-color="#FDF621"/>
<stop offset="0.595" stop-color="#FDFCC3"/>
<stop offset="1" stop-color="#FDF973"/>
</linearGradient>
<linearGradient id="paint1_linear_10185_3273" x1="4.59863" y1="63.4215" x2="122.559" y2="63.4215" gradientUnits="userSpaceOnUse">
<stop stop-color="#FDF621"/>
<stop offset="0.595" stop-color="#FDFCC3"/>
<stop offset="1" stop-color="#FDF973"/>
</linearGradient>
</defs>
</svg>
