<svg width="1145" height="88" viewBox="0 0 1145 88" fill="none" xmlns="http://www.w3.org/2000/svg">
<path d="M0.949375 86V1.99999H42.3494C51.7094 1.99999 59.9494 3.72 67.0694 7.16C74.1894 10.52 79.7494 15.32 83.7494 21.56C87.7494 27.8 89.7494 35.24 89.7494 43.88C89.7494 52.6 87.7494 60.12 83.7494 66.44C79.7494 72.68 74.1894 77.52 67.0694 80.96C59.9494 84.32 51.7094 86 42.3494 86H0.949375ZM29.2694 63.92H41.1494C45.1494 63.92 48.6294 63.16 51.5894 61.64C54.6294 60.12 56.9894 57.88 58.6694 54.92C60.3494 51.88 61.1894 48.2 61.1894 43.88C61.1894 39.64 60.3494 36.04 58.6694 33.08C56.9894 30.12 54.6294 27.88 51.5894 26.36C48.6294 24.84 45.1494 24.08 41.1494 24.08H29.2694V63.92ZM89.7981 86L126.518 1.99999H154.358L191.078 86H161.798L134.678 15.44H145.718L118.598 86H89.7981ZM111.638 71.36L118.838 50.96H157.478L164.678 71.36H111.638ZM195.598 86V1.99999H236.038C243.878 1.99999 250.638 3.27999 256.318 5.83999C262.078 8.4 266.518 12.08 269.638 16.88C272.758 21.6 274.318 27.2 274.318 33.68C274.318 40.16 272.758 45.76 269.638 50.48C266.518 55.2 262.078 58.88 256.318 61.52C250.638 64.08 243.878 65.36 236.038 65.36H211.318L223.918 53.24V86H195.598ZM223.918 56.36L211.318 43.52H234.238C238.158 43.52 241.038 42.64 242.878 40.88C244.798 39.12 245.758 36.72 245.758 33.68C245.758 30.64 244.798 28.24 242.878 26.48C241.038 24.72 238.158 23.84 234.238 23.84H211.318L223.918 11V56.36ZM283.606 86V1.99999H325.006C334.366 1.99999 342.606 3.72 349.726 7.16C356.846 10.52 362.406 15.32 366.406 21.56C370.406 27.8 372.406 35.24 372.406 43.88C372.406 52.6 370.406 60.12 366.406 66.44C362.406 72.68 356.846 77.52 349.726 80.96C342.606 84.32 334.366 86 325.006 86H283.606ZM311.926 63.92H323.806C327.806 63.92 331.286 63.16 334.246 61.64C337.286 60.12 339.646 57.88 341.326 54.92C343.006 51.88 343.846 48.2 343.846 43.88C343.846 39.64 343.006 36.04 341.326 33.08C339.646 30.12 337.286 27.88 334.246 26.36C331.286 24.84 327.806 24.08 323.806 24.08H311.926V63.92ZM372.454 86L409.174 1.99999H437.014L473.734 86H444.454L417.334 15.44H428.374L401.254 86H372.454ZM394.294 71.36L401.494 50.96H440.134L447.334 71.36H394.294ZM478.254 86V1.99999H518.694C526.534 1.99999 533.294 3.27999 538.974 5.83999C544.734 8.4 549.174 12.08 552.294 16.88C555.414 21.6 556.974 27.2 556.974 33.68C556.974 40.16 555.414 45.76 552.294 50.48C549.174 55.2 544.734 58.88 538.974 61.52C533.294 64.08 526.534 65.36 518.694 65.36H493.974L506.574 53.24V86H478.254ZM506.574 56.36L493.974 43.52H516.894C520.814 43.52 523.694 42.64 525.534 40.88C527.454 39.12 528.414 36.72 528.414 33.68C528.414 30.64 527.454 28.24 525.534 26.48C523.694 24.72 520.814 23.84 516.894 23.84H493.974L506.574 11V56.36ZM595.61 86L633.05 33.68L632.93 53.48L596.69 1.99999H628.49L649.61 33.2L636.05 33.32L656.69 1.99999H687.17L650.93 52.4V32.72L688.97 86H656.57L635.45 53.36L648.53 53.24L627.89 86H595.61ZM730.793 86V1.99999H775.673C787.273 1.99999 795.833 4.08 801.353 8.24C806.873 12.32 809.633 17.56 809.633 23.96C809.633 28.2 808.433 32 806.033 35.36C803.713 38.64 800.313 41.24 795.833 43.16C791.353 45.08 785.833 46.04 779.273 46.04L781.673 39.56C788.233 39.56 793.873 40.48 798.593 42.32C803.393 44.16 807.073 46.84 809.633 50.36C812.273 53.8 813.593 57.96 813.593 62.84C813.593 70.12 810.553 75.8 804.473 79.88C798.473 83.96 789.673 86 778.073 86H730.793ZM758.633 66.2H775.673C778.793 66.2 781.113 65.64 782.633 64.52C784.233 63.4 785.033 61.76 785.033 59.6C785.033 57.44 784.233 55.8 782.633 54.68C781.113 53.56 778.793 53 775.673 53H756.713V34.28H771.833C775.033 34.28 777.353 33.76 778.793 32.72C780.313 31.6 781.073 30.04 781.073 28.04C781.073 25.96 780.313 24.4 778.793 23.36C777.353 22.32 775.033 21.8 771.833 21.8H758.633V66.2ZM823.606 86V1.99999H851.926V64.04H889.846V86H823.606ZM889.72 86L926.44 1.99999H954.28L991 86H961.72L934.6 15.44H945.64L918.52 86H889.72ZM911.56 71.36L918.76 50.96H957.4L964.6 71.36H911.56ZM1026.84 87.92C1019.8 87.92 1013 87.12 1006.44 85.52C999.88 83.92 994.48 81.84 990.24 79.28L999.36 58.64C1003.36 60.96 1007.8 62.84 1012.68 64.28C1017.64 65.64 1022.44 66.32 1027.08 66.32C1029.8 66.32 1031.92 66.16 1033.44 65.84C1035.04 65.44 1036.2 64.92 1036.92 64.28C1037.64 63.56 1038 62.72 1038 61.76C1038 60.24 1037.16 59.04 1035.48 58.16C1033.8 57.28 1031.56 56.56 1028.76 56C1026.04 55.36 1023.04 54.72 1019.76 54.08C1016.48 53.36 1013.16 52.44 1009.8 51.32C1006.52 50.2 1003.48 48.72 1000.68 46.88C997.96 45.04 995.76 42.64 994.08 39.68C992.4 36.64 991.56 32.88 991.56 28.4C991.56 23.2 993 18.48 995.88 14.24C998.84 9.92 1003.2 6.48 1008.96 3.92C1014.8 1.36 1022.04 0.0799975 1030.68 0.0799975C1036.36 0.0799975 1041.96 0.679997 1047.48 1.88C1053 3.07999 1057.96 4.91999 1062.36 7.4L1053.84 27.92C1049.68 25.84 1045.64 24.28 1041.72 23.24C1037.88 22.2 1034.12 21.68 1030.44 21.68C1027.72 21.68 1025.56 21.92 1023.96 22.4C1022.36 22.88 1021.2 23.52 1020.48 24.32C1019.84 25.12 1019.52 26 1019.52 26.96C1019.52 28.4 1020.36 29.56 1022.04 30.44C1023.72 31.24 1025.92 31.92 1028.64 32.48C1031.44 33.04 1034.48 33.64 1037.76 34.28C1041.12 34.92 1044.44 35.8 1047.72 36.92C1051 38.04 1054 39.52 1056.72 41.36C1059.52 43.2 1061.76 45.6 1063.44 48.56C1065.12 51.52 1065.96 55.2 1065.96 59.6C1065.96 64.72 1064.48 69.44 1061.52 73.76C1058.64 78 1054.32 81.44 1048.56 84.08C1042.8 86.64 1035.56 87.92 1026.84 87.92ZM1091.46 86V23.96H1066.86V1.99999H1144.38V23.96H1119.78V86H1091.46Z" fill="#EBF479"/>
</svg>
