<svg width="414" height="328" viewBox="0 0 414 328" fill="none" xmlns="http://www.w3.org/2000/svg">
<path d="M0.5 39.8465C0.5 39.4407 0.664437 39.0522 0.955781 38.7697L16.2662 23.9231C16.5461 23.6518 16.9206 23.5 17.3105 23.5H412C412.828 23.5 413.5 24.1716 413.5 25V114.153C413.5 114.559 413.336 114.948 413.044 115.23L397.734 130.077C397.454 130.348 397.079 130.5 396.69 130.5H2.00001C1.17158 130.5 0.5 129.828 0.5 129V39.8465Z" fill="url(#paint0_radial_9613_32678)" stroke="#363940"/>
<path d="M0.5 162.847C0.5 162.441 0.664437 162.052 0.955781 161.77L16.2662 146.923C16.5461 146.652 16.9206 146.5 17.3105 146.5H200C200.828 146.5 201.5 147.172 201.5 148V229.153C201.5 229.559 201.336 229.948 201.044 230.23L185.734 245.077C185.454 245.348 185.079 245.5 184.69 245.5H2C1.17157 245.5 0.5 244.828 0.5 244V162.847Z" fill="url(#paint1_radial_9613_32678)" stroke="#363940"/>
<path d="M212.5 163.847C212.5 163.441 212.664 163.052 212.956 162.77L228.266 147.923C228.546 147.652 228.921 147.5 229.31 147.5H412C412.828 147.5 413.5 148.172 413.5 149V230.153C413.5 230.559 413.336 230.948 413.044 231.23L397.734 246.077C397.454 246.348 397.079 246.5 396.69 246.5H214C213.172 246.5 212.5 245.828 212.5 245V163.847Z" fill="url(#paint2_radial_9613_32678)" stroke="#363940"/>
<path d="M0.5 283.847C0.5 283.441 0.664438 283.052 0.955781 282.77L16.2662 267.923C16.5461 267.652 16.9206 267.5 17.3105 267.5H412C412.828 267.5 413.5 268.172 413.5 269V311.153C413.5 311.559 413.336 311.948 413.044 312.23L397.734 327.077C397.454 327.348 397.079 327.5 396.69 327.5H2.00001C1.17158 327.5 0.5 326.828 0.5 326V283.847Z" stroke="#363940"/>
<path d="M158.822 99V82.36L160.642 84.18H155.182V80.8H163.034V99H158.822ZM173.996 99.312C172.505 99.312 171.17 98.948 169.992 98.22C168.813 97.4747 167.886 96.4 167.21 94.996C166.534 93.592 166.196 91.8933 166.196 89.9C166.196 87.9067 166.534 86.208 167.21 84.804C167.886 83.4 168.813 82.334 169.992 81.606C171.17 80.8607 172.505 80.488 173.996 80.488C175.504 80.488 176.838 80.8607 178 81.606C179.178 82.334 180.106 83.4 180.782 84.804C181.458 86.208 181.796 87.9067 181.796 89.9C181.796 91.8933 181.458 93.592 180.782 94.996C180.106 96.4 179.178 97.4747 178 98.22C176.838 98.948 175.504 99.312 173.996 99.312ZM173.996 95.75C174.706 95.75 175.322 95.5507 175.842 95.152C176.379 94.7533 176.795 94.1207 177.09 93.254C177.402 92.3873 177.558 91.2693 177.558 89.9C177.558 88.5307 177.402 87.4127 177.09 86.546C176.795 85.6793 176.379 85.0467 175.842 84.648C175.322 84.2493 174.706 84.05 173.996 84.05C173.302 84.05 172.687 84.2493 172.15 84.648C171.63 85.0467 171.214 85.6793 170.902 86.546C170.607 87.4127 170.46 88.5307 170.46 89.9C170.46 91.2693 170.607 92.3873 170.902 93.254C171.214 94.1207 171.63 94.7533 172.15 95.152C172.687 95.5507 173.302 95.75 173.996 95.75ZM191.642 99.312C190.151 99.312 188.817 98.948 187.638 98.22C186.459 97.4747 185.532 96.4 184.856 94.996C184.18 93.592 183.842 91.8933 183.842 89.9C183.842 87.9067 184.18 86.208 184.856 84.804C185.532 83.4 186.459 82.334 187.638 81.606C188.817 80.8607 190.151 80.488 191.642 80.488C193.15 80.488 194.485 80.8607 195.646 81.606C196.825 82.334 197.752 83.4 198.428 84.804C199.104 86.208 199.442 87.9067 199.442 89.9C199.442 91.8933 199.104 93.592 198.428 94.996C197.752 96.4 196.825 97.4747 195.646 98.22C194.485 98.948 193.15 99.312 191.642 99.312ZM191.642 95.75C192.353 95.75 192.968 95.5507 193.488 95.152C194.025 94.7533 194.441 94.1207 194.736 93.254C195.048 92.3873 195.204 91.2693 195.204 89.9C195.204 88.5307 195.048 87.4127 194.736 86.546C194.441 85.6793 194.025 85.0467 193.488 84.648C192.968 84.2493 192.353 84.05 191.642 84.05C190.949 84.05 190.333 84.2493 189.796 84.648C189.276 85.0467 188.86 85.6793 188.548 86.546C188.253 87.4127 188.106 88.5307 188.106 89.9C188.106 91.2693 188.253 92.3873 188.548 93.254C188.86 94.1207 189.276 94.7533 189.796 95.152C190.333 95.5507 190.949 95.75 191.642 95.75ZM209.289 99.312C207.798 99.312 206.463 98.948 205.285 98.22C204.106 97.4747 203.179 96.4 202.503 94.996C201.827 93.592 201.489 91.8933 201.489 89.9C201.489 87.9067 201.827 86.208 202.503 84.804C203.179 83.4 204.106 82.334 205.285 81.606C206.463 80.8607 207.798 80.488 209.289 80.488C210.797 80.488 212.131 80.8607 213.293 81.606C214.471 82.334 215.399 83.4 216.075 84.804C216.751 86.208 217.089 87.9067 217.089 89.9C217.089 91.8933 216.751 93.592 216.075 94.996C215.399 96.4 214.471 97.4747 213.293 98.22C212.131 98.948 210.797 99.312 209.289 99.312ZM209.289 95.75C209.999 95.75 210.615 95.5507 211.135 95.152C211.672 94.7533 212.088 94.1207 212.383 93.254C212.695 92.3873 212.851 91.2693 212.851 89.9C212.851 88.5307 212.695 87.4127 212.383 86.546C212.088 85.6793 211.672 85.0467 211.135 84.648C210.615 84.2493 209.999 84.05 209.289 84.05C208.595 84.05 207.98 84.2493 207.443 84.648C206.923 85.0467 206.507 85.6793 206.195 86.546C205.9 87.4127 205.753 88.5307 205.753 89.9C205.753 91.2693 205.9 92.3873 206.195 93.254C206.507 94.1207 206.923 94.7533 207.443 95.152C207.98 95.5507 208.595 95.75 209.289 95.75ZM236.43 99.312C234.992 99.312 233.666 99.0867 232.452 98.636C231.256 98.168 230.208 97.5093 229.306 96.66C228.422 95.8107 227.729 94.814 227.226 93.67C226.741 92.526 226.498 91.2693 226.498 89.9C226.498 88.5307 226.741 87.274 227.226 86.13C227.729 84.986 228.431 83.9893 229.332 83.14C230.234 82.2907 231.291 81.6407 232.504 81.19C233.718 80.722 235.052 80.488 236.508 80.488C238.12 80.488 239.568 80.7567 240.85 81.294C242.15 81.8313 243.242 82.6113 244.126 83.634L241.422 86.13C240.764 85.4367 240.044 84.9253 239.264 84.596C238.484 84.2493 237.635 84.076 236.716 84.076C235.832 84.076 235.026 84.2147 234.298 84.492C233.57 84.7693 232.938 85.168 232.4 85.688C231.88 86.208 231.473 86.8233 231.178 87.534C230.901 88.2447 230.762 89.0333 230.762 89.9C230.762 90.7493 230.901 91.5293 231.178 92.24C231.473 92.9507 231.88 93.5747 232.4 94.112C232.938 94.632 233.562 95.0307 234.272 95.308C235 95.5853 235.798 95.724 236.664 95.724C237.496 95.724 238.302 95.594 239.082 95.334C239.88 95.0567 240.651 94.5973 241.396 93.956L243.788 96.998C242.8 97.7433 241.648 98.3153 240.33 98.714C239.03 99.1127 237.73 99.312 236.43 99.312ZM239.94 96.452V89.614H243.788V96.998L239.94 96.452ZM256.541 99.312C255.102 99.312 253.768 99.078 252.537 98.61C251.324 98.142 250.266 97.4833 249.365 96.634C248.481 95.7847 247.788 94.788 247.285 93.644C246.8 92.5 246.557 91.252 246.557 89.9C246.557 88.548 246.8 87.3 247.285 86.156C247.788 85.012 248.49 84.0153 249.391 83.166C250.292 82.3167 251.35 81.658 252.563 81.19C253.776 80.722 255.094 80.488 256.515 80.488C257.954 80.488 259.271 80.722 260.467 81.19C261.68 81.658 262.729 82.3167 263.613 83.166C264.514 84.0153 265.216 85.012 265.719 86.156C266.222 87.2827 266.473 88.5307 266.473 89.9C266.473 91.252 266.222 92.5087 265.719 93.67C265.216 94.814 264.514 95.8107 263.613 96.66C262.729 97.492 261.68 98.142 260.467 98.61C259.271 99.078 257.962 99.312 256.541 99.312ZM256.515 95.724C257.33 95.724 258.075 95.5853 258.751 95.308C259.444 95.0307 260.051 94.632 260.571 94.112C261.091 93.592 261.49 92.9767 261.767 92.266C262.062 91.5553 262.209 90.7667 262.209 89.9C262.209 89.0333 262.062 88.2447 261.767 87.534C261.49 86.8233 261.091 86.208 260.571 85.688C260.068 85.168 259.47 84.7693 258.777 84.492C258.084 84.2147 257.33 84.076 256.515 84.076C255.7 84.076 254.946 84.2147 254.253 84.492C253.577 84.7693 252.979 85.168 252.459 85.688C251.939 86.208 251.532 86.8233 251.237 87.534C250.96 88.2447 250.821 89.0333 250.821 89.9C250.821 90.7493 250.96 91.538 251.237 92.266C251.532 92.9767 251.93 93.592 252.433 94.112C252.953 94.632 253.56 95.0307 254.253 95.308C254.946 95.5853 255.7 95.724 256.515 95.724ZM269.638 99V80.8H273.85V95.568H282.976V99H269.638ZM285.33 99V80.8H293.598C295.574 80.8 297.316 81.1813 298.824 81.944C300.332 82.6893 301.511 83.738 302.36 85.09C303.209 86.442 303.634 88.0453 303.634 89.9C303.634 91.7373 303.209 93.3407 302.36 94.71C301.511 96.062 300.332 97.1193 298.824 97.882C297.316 98.6273 295.574 99 293.598 99H285.33ZM289.542 95.542H293.39C294.603 95.542 295.652 95.3167 296.536 94.866C297.437 94.398 298.131 93.7393 298.616 92.89C299.119 92.0407 299.37 91.044 299.37 89.9C299.37 88.7387 299.119 87.742 298.616 86.91C298.131 86.0607 297.437 85.4107 296.536 84.96C295.652 84.492 294.603 84.258 293.39 84.258H289.542V95.542Z" fill="#EBF479"/>
<g filter="url(#filter0_d_9613_32678)">
<circle cx="126" cy="90" r="18" fill="url(#paint3_linear_9613_32678)"/>
<path d="M117.846 87.1866L114.68 94.6696L125.346 98.6662M117.846 87.1866L128.263 81.9995L134.263 82.7648M117.846 87.1866L124.18 88.7172M125.346 98.6662L137.346 88.7172L134.263 82.7648M125.346 98.6662L124.18 88.7172M134.263 82.7648L124.18 88.7172" stroke="black" stroke-width="2" stroke-linejoin="round"/>
</g>
<path d="M73.099 218.303C72.3203 218.303 71.547 218.202 70.779 217.999C70.0217 217.786 69.371 217.487 68.827 217.103L69.851 215.119C70.2777 215.429 70.7683 215.674 71.323 215.855C71.8883 216.037 72.459 216.127 73.035 216.127C73.6857 216.127 74.1977 215.999 74.571 215.743C74.9443 215.487 75.131 215.13 75.131 214.671C75.131 214.383 75.0563 214.127 74.907 213.903C74.7577 213.679 74.491 213.509 74.107 213.391C73.7337 213.274 73.2057 213.215 72.523 213.215H69.659L70.235 206.911H77.067V208.991H71.163L72.507 207.807L72.107 212.303L70.763 211.119H73.131C74.2403 211.119 75.131 211.274 75.803 211.583C76.4857 211.882 76.9817 212.293 77.291 212.815C77.6003 213.338 77.755 213.93 77.755 214.591C77.755 215.253 77.5897 215.866 77.259 216.431C76.9283 216.986 76.4163 217.439 75.723 217.791C75.0403 218.133 74.1657 218.303 73.099 218.303ZM83.6066 218.303C82.6893 218.303 81.868 218.079 81.1426 217.631C80.4173 217.173 79.8466 216.511 79.4306 215.647C79.0146 214.783 78.8066 213.738 78.8066 212.511C78.8066 211.285 79.0146 210.239 79.4306 209.375C79.8466 208.511 80.4173 207.855 81.1426 207.407C81.868 206.949 82.6893 206.719 83.6066 206.719C84.5346 206.719 85.356 206.949 86.0706 207.407C86.796 207.855 87.3666 208.511 87.7826 209.375C88.1986 210.239 88.4066 211.285 88.4066 212.511C88.4066 213.738 88.1986 214.783 87.7826 215.647C87.3666 216.511 86.796 217.173 86.0706 217.631C85.356 218.079 84.5346 218.303 83.6066 218.303ZM83.6066 216.111C84.044 216.111 84.4226 215.989 84.7426 215.743C85.0733 215.498 85.3293 215.109 85.5106 214.575C85.7026 214.042 85.7986 213.354 85.7986 212.511C85.7986 211.669 85.7026 210.981 85.5106 210.447C85.3293 209.914 85.0733 209.525 84.7426 209.279C84.4226 209.034 84.044 208.911 83.6066 208.911C83.18 208.911 82.8013 209.034 82.4706 209.279C82.1506 209.525 81.8946 209.914 81.7026 210.447C81.5213 210.981 81.4306 211.669 81.4306 212.511C81.4306 213.354 81.5213 214.042 81.7026 214.575C81.8946 215.109 82.1506 215.498 82.4706 215.743C82.8013 215.989 83.18 216.111 83.6066 216.111ZM94.466 218.303C93.5487 218.303 92.7273 218.079 92.002 217.631C91.2767 217.173 90.706 216.511 90.29 215.647C89.874 214.783 89.666 213.738 89.666 212.511C89.666 211.285 89.874 210.239 90.29 209.375C90.706 208.511 91.2767 207.855 92.002 207.407C92.7273 206.949 93.5487 206.719 94.466 206.719C95.394 206.719 96.2153 206.949 96.93 207.407C97.6553 207.855 98.226 208.511 98.642 209.375C99.058 210.239 99.266 211.285 99.266 212.511C99.266 213.738 99.058 214.783 98.642 215.647C98.226 216.511 97.6553 217.173 96.93 217.631C96.2153 218.079 95.394 218.303 94.466 218.303ZM94.466 216.111C94.9033 216.111 95.282 215.989 95.602 215.743C95.9327 215.498 96.1887 215.109 96.37 214.575C96.562 214.042 96.658 213.354 96.658 212.511C96.658 211.669 96.562 210.981 96.37 210.447C96.1887 209.914 95.9327 209.525 95.602 209.279C95.282 209.034 94.9033 208.911 94.466 208.911C94.0393 208.911 93.6607 209.034 93.33 209.279C93.01 209.525 92.754 209.914 92.562 210.447C92.3807 210.981 92.29 211.669 92.29 212.511C92.29 213.354 92.3807 214.042 92.562 214.575C92.754 215.109 93.01 215.498 93.33 215.743C93.6607 215.989 94.0393 216.111 94.466 216.111ZM111.169 218.303C110.283 218.303 109.467 218.165 108.721 217.887C107.985 217.599 107.339 217.194 106.785 216.671C106.241 216.149 105.814 215.535 105.505 214.831C105.206 214.127 105.057 213.354 105.057 212.511C105.057 211.669 105.206 210.895 105.505 210.191C105.814 209.487 106.246 208.874 106.801 208.351C107.355 207.829 108.006 207.429 108.753 207.151C109.499 206.863 110.321 206.719 111.217 206.719C112.209 206.719 113.099 206.885 113.889 207.215C114.689 207.546 115.361 208.026 115.905 208.655L114.241 210.191C113.835 209.765 113.393 209.45 112.913 209.247C112.433 209.034 111.91 208.927 111.345 208.927C110.801 208.927 110.305 209.013 109.857 209.183C109.409 209.354 109.019 209.599 108.689 209.919C108.369 210.239 108.118 210.618 107.937 211.055C107.766 211.493 107.681 211.978 107.681 212.511C107.681 213.034 107.766 213.514 107.937 213.951C108.118 214.389 108.369 214.773 108.689 215.103C109.019 215.423 109.403 215.669 109.841 215.839C110.289 216.01 110.779 216.095 111.313 216.095C111.825 216.095 112.321 216.015 112.801 215.855C113.291 215.685 113.766 215.402 114.225 215.007L115.697 216.879C115.089 217.338 114.379 217.69 113.569 217.935C112.769 218.181 111.969 218.303 111.169 218.303ZM113.329 216.543V212.335H115.697V216.879L113.329 216.543ZM123.544 218.303C122.659 218.303 121.838 218.159 121.08 217.871C120.334 217.583 119.683 217.178 119.128 216.655C118.584 216.133 118.158 215.519 117.848 214.815C117.55 214.111 117.4 213.343 117.4 212.511C117.4 211.679 117.55 210.911 117.848 210.207C118.158 209.503 118.59 208.89 119.144 208.367C119.699 207.845 120.35 207.439 121.096 207.151C121.843 206.863 122.654 206.719 123.528 206.719C124.414 206.719 125.224 206.863 125.96 207.151C126.707 207.439 127.352 207.845 127.896 208.367C128.451 208.89 128.883 209.503 129.192 210.207C129.502 210.901 129.656 211.669 129.656 212.511C129.656 213.343 129.502 214.117 129.192 214.831C128.883 215.535 128.451 216.149 127.896 216.671C127.352 217.183 126.707 217.583 125.96 217.871C125.224 218.159 124.419 218.303 123.544 218.303ZM123.528 216.095C124.03 216.095 124.488 216.01 124.904 215.839C125.331 215.669 125.704 215.423 126.024 215.103C126.344 214.783 126.59 214.405 126.76 213.967C126.942 213.53 127.032 213.045 127.032 212.511C127.032 211.978 126.942 211.493 126.76 211.055C126.59 210.618 126.344 210.239 126.024 209.919C125.715 209.599 125.347 209.354 124.92 209.183C124.494 209.013 124.03 208.927 123.528 208.927C123.027 208.927 122.563 209.013 122.136 209.183C121.72 209.354 121.352 209.599 121.032 209.919C120.712 210.239 120.462 210.618 120.28 211.055C120.11 211.493 120.024 211.978 120.024 212.511C120.024 213.034 120.11 213.519 120.28 213.967C120.462 214.405 120.707 214.783 121.016 215.103C121.336 215.423 121.71 215.669 122.136 215.839C122.563 216.01 123.027 216.095 123.528 216.095ZM131.604 218.111V206.911H134.196V215.999H139.812V218.111H131.604ZM141.261 218.111V206.911H146.349C147.565 206.911 148.637 207.146 149.565 207.615C150.493 208.074 151.218 208.719 151.741 209.551C152.263 210.383 152.525 211.37 152.525 212.511C152.525 213.642 152.263 214.629 151.741 215.471C151.218 216.303 150.493 216.954 149.565 217.423C148.637 217.882 147.565 218.111 146.349 218.111H141.261ZM143.853 215.983H146.221C146.967 215.983 147.613 215.845 148.157 215.567C148.711 215.279 149.138 214.874 149.437 214.351C149.746 213.829 149.901 213.215 149.901 212.511C149.901 211.797 149.746 211.183 149.437 210.671C149.138 210.149 148.711 209.749 148.157 209.471C147.613 209.183 146.967 209.039 146.221 209.039H143.853V215.983Z" fill="white"/>
<g filter="url(#filter1_d_9613_32678)">
<circle cx="42" cy="213" r="16" fill="url(#paint4_linear_9613_32678)"/>
<path d="M34.7523 210.499L31.9375 217.151L41.419 220.703M34.7523 210.499L44.0116 205.889L49.3449 206.569M34.7523 210.499L40.3819 211.86M41.419 220.703L52.0857 211.86L49.3449 206.569M41.419 220.703L40.3819 211.86M49.3449 206.569L40.3819 211.86" stroke="black" stroke-width="2" stroke-linejoin="round"/>
</g>
<path d="M291.099 220.081C290.32 220.081 289.547 219.979 288.779 219.777C288.022 219.563 287.371 219.265 286.827 218.881L287.851 216.897C288.278 217.206 288.768 217.451 289.323 217.633C289.888 217.814 290.459 217.905 291.035 217.905C291.686 217.905 292.198 217.777 292.571 217.521C292.944 217.265 293.131 216.907 293.131 216.449C293.131 216.161 293.056 215.905 292.907 215.681C292.758 215.457 292.491 215.286 292.107 215.169C291.734 215.051 291.206 214.993 290.523 214.993H287.659L288.235 208.689H295.067V210.769H289.163L290.507 209.585L290.107 214.081L288.763 212.897H291.131C292.24 212.897 293.131 213.051 293.803 213.361C294.486 213.659 294.982 214.07 295.291 214.593C295.6 215.115 295.755 215.707 295.755 216.369C295.755 217.03 295.59 217.643 295.259 218.209C294.928 218.763 294.416 219.217 293.723 219.569C293.04 219.91 292.166 220.081 291.099 220.081ZM301.607 220.081C300.689 220.081 299.868 219.857 299.143 219.409C298.417 218.95 297.847 218.289 297.431 217.425C297.015 216.561 296.807 215.515 296.807 214.289C296.807 213.062 297.015 212.017 297.431 211.153C297.847 210.289 298.417 209.633 299.143 209.185C299.868 208.726 300.689 208.497 301.607 208.497C302.535 208.497 303.356 208.726 304.071 209.185C304.796 209.633 305.367 210.289 305.783 211.153C306.199 212.017 306.407 213.062 306.407 214.289C306.407 215.515 306.199 216.561 305.783 217.425C305.367 218.289 304.796 218.95 304.071 219.409C303.356 219.857 302.535 220.081 301.607 220.081ZM301.607 217.889C302.044 217.889 302.423 217.766 302.743 217.521C303.073 217.275 303.329 216.886 303.511 216.353C303.703 215.819 303.799 215.131 303.799 214.289C303.799 213.446 303.703 212.758 303.511 212.225C303.329 211.691 303.073 211.302 302.743 211.057C302.423 210.811 302.044 210.689 301.607 210.689C301.18 210.689 300.801 210.811 300.471 211.057C300.151 211.302 299.895 211.691 299.703 212.225C299.521 212.758 299.431 213.446 299.431 214.289C299.431 215.131 299.521 215.819 299.703 216.353C299.895 216.886 300.151 217.275 300.471 217.521C300.801 217.766 301.18 217.889 301.607 217.889ZM312.466 220.081C311.549 220.081 310.727 219.857 310.002 219.409C309.277 218.95 308.706 218.289 308.29 217.425C307.874 216.561 307.666 215.515 307.666 214.289C307.666 213.062 307.874 212.017 308.29 211.153C308.706 210.289 309.277 209.633 310.002 209.185C310.727 208.726 311.549 208.497 312.466 208.497C313.394 208.497 314.215 208.726 314.93 209.185C315.655 209.633 316.226 210.289 316.642 211.153C317.058 212.017 317.266 213.062 317.266 214.289C317.266 215.515 317.058 216.561 316.642 217.425C316.226 218.289 315.655 218.95 314.93 219.409C314.215 219.857 313.394 220.081 312.466 220.081ZM312.466 217.889C312.903 217.889 313.282 217.766 313.602 217.521C313.933 217.275 314.189 216.886 314.37 216.353C314.562 215.819 314.658 215.131 314.658 214.289C314.658 213.446 314.562 212.758 314.37 212.225C314.189 211.691 313.933 211.302 313.602 211.057C313.282 210.811 312.903 210.689 312.466 210.689C312.039 210.689 311.661 210.811 311.33 211.057C311.01 211.302 310.754 211.691 310.562 212.225C310.381 212.758 310.29 213.446 310.29 214.289C310.29 215.131 310.381 215.819 310.562 216.353C310.754 216.886 311.01 217.275 311.33 217.521C311.661 217.766 312.039 217.889 312.466 217.889ZM329.169 220.081C328.283 220.081 327.467 219.942 326.721 219.665C325.985 219.377 325.339 218.971 324.785 218.449C324.241 217.926 323.814 217.313 323.505 216.609C323.206 215.905 323.057 215.131 323.057 214.289C323.057 213.446 323.206 212.673 323.505 211.969C323.814 211.265 324.246 210.651 324.801 210.129C325.355 209.606 326.006 209.206 326.753 208.929C327.499 208.641 328.321 208.497 329.217 208.497C330.209 208.497 331.099 208.662 331.889 208.993C332.689 209.323 333.361 209.803 333.905 210.433L332.241 211.969C331.835 211.542 331.393 211.227 330.913 211.025C330.433 210.811 329.91 210.705 329.345 210.705C328.801 210.705 328.305 210.79 327.857 210.961C327.409 211.131 327.019 211.377 326.689 211.697C326.369 212.017 326.118 212.395 325.937 212.833C325.766 213.27 325.681 213.755 325.681 214.289C325.681 214.811 325.766 215.291 325.937 215.729C326.118 216.166 326.369 216.55 326.689 216.881C327.019 217.201 327.403 217.446 327.841 217.617C328.289 217.787 328.779 217.873 329.313 217.873C329.825 217.873 330.321 217.793 330.801 217.633C331.291 217.462 331.766 217.179 332.225 216.785L333.697 218.657C333.089 219.115 332.379 219.467 331.569 219.713C330.769 219.958 329.969 220.081 329.169 220.081ZM331.329 218.321V214.113H333.697V218.657L331.329 218.321ZM341.544 220.081C340.659 220.081 339.838 219.937 339.08 219.649C338.334 219.361 337.683 218.955 337.128 218.433C336.584 217.91 336.158 217.297 335.848 216.593C335.55 215.889 335.4 215.121 335.4 214.289C335.4 213.457 335.55 212.689 335.848 211.985C336.158 211.281 336.59 210.667 337.144 210.145C337.699 209.622 338.35 209.217 339.096 208.929C339.843 208.641 340.654 208.497 341.528 208.497C342.414 208.497 343.224 208.641 343.96 208.929C344.707 209.217 345.352 209.622 345.896 210.145C346.451 210.667 346.883 211.281 347.192 211.985C347.502 212.678 347.656 213.446 347.656 214.289C347.656 215.121 347.502 215.894 347.192 216.609C346.883 217.313 346.451 217.926 345.896 218.449C345.352 218.961 344.707 219.361 343.96 219.649C343.224 219.937 342.419 220.081 341.544 220.081ZM341.528 217.873C342.03 217.873 342.488 217.787 342.904 217.617C343.331 217.446 343.704 217.201 344.024 216.881C344.344 216.561 344.59 216.182 344.76 215.745C344.942 215.307 345.032 214.822 345.032 214.289C345.032 213.755 344.942 213.27 344.76 212.833C344.59 212.395 344.344 212.017 344.024 211.697C343.715 211.377 343.347 211.131 342.92 210.961C342.494 210.79 342.03 210.705 341.528 210.705C341.027 210.705 340.563 210.79 340.136 210.961C339.72 211.131 339.352 211.377 339.032 211.697C338.712 212.017 338.462 212.395 338.28 212.833C338.11 213.27 338.024 213.755 338.024 214.289C338.024 214.811 338.11 215.297 338.28 215.745C338.462 216.182 338.707 216.561 339.016 216.881C339.336 217.201 339.71 217.446 340.136 217.617C340.563 217.787 341.027 217.873 341.528 217.873ZM349.604 219.889V208.689H352.196V217.777H357.812V219.889H349.604ZM359.261 219.889V208.689H364.349C365.565 208.689 366.637 208.923 367.565 209.393C368.493 209.851 369.218 210.497 369.741 211.329C370.263 212.161 370.525 213.147 370.525 214.289C370.525 215.419 370.263 216.406 369.741 217.249C369.218 218.081 368.493 218.731 367.565 219.201C366.637 219.659 365.565 219.889 364.349 219.889H359.261ZM361.853 217.761H364.221C364.967 217.761 365.613 217.622 366.157 217.345C366.711 217.057 367.138 216.651 367.437 216.129C367.746 215.606 367.901 214.993 367.901 214.289C367.901 213.574 367.746 212.961 367.437 212.449C367.138 211.926 366.711 211.526 366.157 211.249C365.613 210.961 364.967 210.817 364.221 210.817H361.853V217.761Z" fill="white"/>
<g filter="url(#filter2_d_9613_32678)">
<circle cx="260" cy="213" r="16" fill="url(#paint5_linear_9613_32678)"/>
<path d="M252.752 210.499L249.938 217.151L259.419 220.703M252.752 210.499L262.012 205.889L267.345 206.569M252.752 210.499L258.382 211.86M259.419 220.703L270.086 211.86L267.345 206.569M259.419 220.703L258.382 211.86M267.345 206.569L258.382 211.86" stroke="black" stroke-width="2" stroke-linejoin="round"/>
</g>
<path d="M201.75 4.18579C204.38 2.66741 207.62 2.66741 210.25 4.18579L226.231 13.4123C228.861 14.9307 230.481 17.7367 230.481 20.7735V39.2265C230.481 42.2633 228.861 45.0693 226.231 46.5877L210.25 55.8142C207.62 57.3326 204.38 57.3326 201.75 55.8142L185.769 46.5877C183.139 45.0693 181.519 42.2633 181.519 39.2265V20.7735C181.519 17.7367 183.139 14.9307 185.769 13.4123L201.75 4.18579Z" fill="#EBF479" stroke="black" stroke-width="3"/>
<path d="M95.75 129.186C98.3799 127.667 101.62 127.667 104.25 129.186L120.231 138.412C122.861 139.931 124.481 142.737 124.481 145.774V164.226C124.481 167.263 122.861 170.069 120.231 171.588L104.25 180.814C101.62 182.333 98.3799 182.333 95.75 180.814L79.7692 171.588C77.1393 170.069 75.5192 167.263 75.5192 164.226V145.774C75.5192 142.737 77.1393 139.931 79.7692 138.412L95.75 129.186Z" fill="#AF93FE" stroke="black" stroke-width="3"/>
<path d="M307.75 131.186C310.38 129.667 313.62 129.667 316.25 131.186L332.231 140.412C334.861 141.931 336.481 144.737 336.481 147.774V166.226C336.481 169.263 334.861 172.069 332.231 173.588L316.25 182.814C313.62 184.333 310.38 184.333 307.75 182.814L291.769 173.588C289.139 172.069 287.519 169.263 287.519 166.226V147.774C287.519 144.737 289.139 141.931 291.769 140.412L307.75 131.186Z" fill="#79F4CF" stroke="black" stroke-width="3"/>
<path d="M205.231 40V23.36L207.051 25.18H201.591V21.8H209.443V40H205.231Z" fill="black"/>
<path d="M93.19 165V162.27L100.21 155.64C100.765 155.137 101.172 154.687 101.432 154.288C101.692 153.889 101.865 153.525 101.952 153.196C102.056 152.867 102.108 152.563 102.108 152.286C102.108 151.558 101.857 151.003 101.354 150.622C100.869 150.223 100.149 150.024 99.196 150.024C98.4334 150.024 97.7227 150.171 97.064 150.466C96.4227 150.761 95.8767 151.22 95.426 151.844L92.358 149.868C93.0514 148.828 94.022 148.005 95.27 147.398C96.518 146.791 97.9567 146.488 99.586 146.488C100.938 146.488 102.117 146.713 103.122 147.164C104.145 147.597 104.933 148.213 105.488 149.01C106.06 149.807 106.346 150.761 106.346 151.87C106.346 152.459 106.268 153.049 106.112 153.638C105.973 154.21 105.679 154.817 105.228 155.458C104.795 156.099 104.153 156.819 103.304 157.616L97.48 163.102L96.674 161.568H106.944V165H93.19Z" fill="black"/>
<path d="M311.223 167.312C309.957 167.312 308.701 167.147 307.453 166.818C306.205 166.471 305.147 165.986 304.281 165.362L305.919 162.138C306.612 162.641 307.418 163.039 308.337 163.334C309.255 163.629 310.183 163.776 311.119 163.776C312.176 163.776 313.008 163.568 313.615 163.152C314.221 162.736 314.525 162.164 314.525 161.436C314.525 160.743 314.256 160.197 313.719 159.798C313.181 159.399 312.315 159.2 311.119 159.2H309.195V156.418L314.265 150.672L314.733 152.18H305.191V148.8H317.931V151.53L312.887 157.276L310.755 156.054H311.977C314.213 156.054 315.903 156.557 317.047 157.562C318.191 158.567 318.763 159.859 318.763 161.436C318.763 162.459 318.494 163.421 317.957 164.322C317.419 165.206 316.596 165.925 315.487 166.48C314.377 167.035 312.956 167.312 311.223 167.312Z" fill="black"/>
<path d="M154.998 304L150.07 292.8H151.798L156.326 303.136H155.334L159.894 292.8H161.494L156.582 304H154.998ZM162.714 304V295.52H164.25V304H162.714ZM163.482 293.888C163.183 293.888 162.932 293.792 162.73 293.6C162.538 293.408 162.442 293.173 162.442 292.896C162.442 292.608 162.538 292.368 162.73 292.176C162.932 291.984 163.183 291.888 163.482 291.888C163.78 291.888 164.026 291.984 164.218 292.176C164.42 292.357 164.522 292.587 164.522 292.864C164.522 293.152 164.426 293.397 164.234 293.6C164.042 293.792 163.791 293.888 163.482 293.888ZM170.959 304.096C170.052 304.096 169.252 303.909 168.559 303.536C167.876 303.163 167.343 302.651 166.959 302C166.585 301.349 166.399 300.603 166.399 299.76C166.399 298.917 166.58 298.171 166.943 297.52C167.316 296.869 167.823 296.363 168.463 296C169.113 295.627 169.844 295.44 170.655 295.44C171.476 295.44 172.201 295.621 172.831 295.984C173.46 296.347 173.951 296.859 174.303 297.52C174.665 298.171 174.847 298.933 174.847 299.808C174.847 299.872 174.841 299.947 174.831 300.032C174.831 300.117 174.825 300.197 174.815 300.272H167.599V299.168H174.015L173.391 299.552C173.401 299.008 173.289 298.523 173.055 298.096C172.82 297.669 172.495 297.339 172.079 297.104C171.673 296.859 171.199 296.736 170.655 296.736C170.121 296.736 169.647 296.859 169.231 297.104C168.815 297.339 168.489 297.675 168.255 298.112C168.02 298.539 167.903 299.029 167.903 299.584V299.84C167.903 300.405 168.031 300.912 168.287 301.36C168.553 301.797 168.921 302.139 169.391 302.384C169.86 302.629 170.399 302.752 171.007 302.752C171.508 302.752 171.961 302.667 172.367 302.496C172.783 302.325 173.145 302.069 173.455 301.728L174.303 302.72C173.919 303.168 173.439 303.509 172.863 303.744C172.297 303.979 171.663 304.096 170.959 304.096ZM178.615 304L175.463 295.52H176.919L179.719 303.2H179.031L181.943 295.52H183.239L186.087 303.2H185.415L188.279 295.52H189.655L186.487 304H185.015L182.343 296.992H182.791L180.087 304H178.615ZM195.735 304V292.8H200.103C201.084 292.8 201.921 292.955 202.615 293.264C203.308 293.573 203.841 294.021 204.215 294.608C204.588 295.195 204.775 295.893 204.775 296.704C204.775 297.515 204.588 298.213 204.215 298.8C203.841 299.376 203.308 299.819 202.615 300.128C201.921 300.437 201.084 300.592 200.103 300.592H196.615L197.335 299.856V304H195.735ZM203.223 304L200.375 299.936H202.087L204.967 304H203.223ZM197.335 300.016L196.615 299.232H200.055C201.079 299.232 201.852 299.013 202.375 298.576C202.908 298.128 203.175 297.504 203.175 296.704C203.175 295.904 202.908 295.285 202.375 294.848C201.852 294.411 201.079 294.192 200.055 294.192H196.615L197.335 293.392V300.016ZM212.322 304V302.208L212.242 301.872V298.816C212.242 298.165 212.05 297.664 211.666 297.312C211.292 296.949 210.727 296.768 209.97 296.768C209.468 296.768 208.978 296.853 208.498 297.024C208.018 297.184 207.612 297.403 207.282 297.68L206.642 296.528C207.079 296.176 207.602 295.909 208.21 295.728C208.828 295.536 209.474 295.44 210.146 295.44C211.308 295.44 212.204 295.723 212.834 296.288C213.463 296.853 213.778 297.717 213.778 298.88V304H212.322ZM209.538 304.096C208.908 304.096 208.354 303.989 207.874 303.776C207.404 303.563 207.042 303.269 206.786 302.896C206.53 302.512 206.402 302.08 206.402 301.6C206.402 301.141 206.508 300.725 206.722 300.352C206.946 299.979 207.303 299.68 207.794 299.456C208.295 299.232 208.967 299.12 209.81 299.12H212.498V300.224H209.874C209.106 300.224 208.588 300.352 208.322 300.608C208.055 300.864 207.922 301.173 207.922 301.536C207.922 301.952 208.087 302.288 208.418 302.544C208.748 302.789 209.207 302.912 209.794 302.912C210.37 302.912 210.871 302.784 211.298 302.528C211.735 302.272 212.05 301.899 212.242 301.408L212.546 302.464C212.343 302.965 211.986 303.365 211.474 303.664C210.962 303.952 210.316 304.096 209.538 304.096ZM221.148 295.44C221.841 295.44 222.449 295.573 222.972 295.84C223.505 296.107 223.921 296.512 224.22 297.056C224.519 297.6 224.668 298.288 224.668 299.12V304H223.132V299.296C223.132 298.475 222.929 297.856 222.524 297.44C222.129 297.024 221.569 296.816 220.844 296.816C220.3 296.816 219.825 296.923 219.42 297.136C219.015 297.349 218.7 297.664 218.476 298.08C218.263 298.496 218.156 299.013 218.156 299.632V304H216.62V295.52H218.092V297.808L217.852 297.2C218.129 296.645 218.556 296.213 219.132 295.904C219.708 295.595 220.38 295.44 221.148 295.44ZM228.759 301.952L228.791 299.984L233.671 295.52H235.527L231.783 299.2L230.951 299.904L228.759 301.952ZM227.511 304V292.128H229.047V304H227.511ZM233.991 304L230.663 299.872L231.655 298.64L235.879 304H233.991Z" fill="white"/>
<path d="M263.5 290C263.5 289.724 263.276 289.5 263 289.5L258.5 289.5C258.224 289.5 258 289.724 258 290C258 290.276 258.224 290.5 258.5 290.5L262.5 290.5L262.5 294.5C262.5 294.776 262.724 295 263 295C263.276 295 263.5 294.776 263.5 294.5L263.5 290ZM257.354 296.354L263.354 290.354L262.646 289.646L256.646 295.646L257.354 296.354Z" fill="white"/>
<path d="M247.5 305C247.5 305.276 247.724 305.5 248 305.5L252.5 305.5C252.776 305.5 253 305.276 253 305C253 304.724 252.776 304.5 252.5 304.5L248.5 304.5L248.5 300.5C248.5 300.224 248.276 300 248 300C247.724 300 247.5 300.224 247.5 300.5L247.5 305ZM253.646 298.646L247.646 304.646L248.354 305.354L254.354 299.354L253.646 298.646Z" fill="white"/>
<defs>
<filter id="filter0_d_9613_32678" x="97.6" y="61.6" width="56.8" height="56.8" filterUnits="userSpaceOnUse" color-interpolation-filters="sRGB">
<feFlood flood-opacity="0" result="BackgroundImageFix"/>
<feColorMatrix in="SourceAlpha" type="matrix" values="0 0 0 0 0 0 0 0 0 0 0 0 0 0 0 0 0 0 127 0" result="hardAlpha"/>
<feOffset/>
<feGaussianBlur stdDeviation="5.2"/>
<feComposite in2="hardAlpha" operator="out"/>
<feColorMatrix type="matrix" values="0 0 0 0 0 0 0 0 0 0 0 0 0 0 0 0 0 0 0.25 0"/>
<feBlend mode="normal" in2="BackgroundImageFix" result="effect1_dropShadow_9613_32678"/>
<feBlend mode="normal" in="SourceGraphic" in2="effect1_dropShadow_9613_32678" result="shape"/>
</filter>
<filter id="filter1_d_9613_32678" x="15.6" y="186.6" width="52.8" height="52.8" filterUnits="userSpaceOnUse" color-interpolation-filters="sRGB">
<feFlood flood-opacity="0" result="BackgroundImageFix"/>
<feColorMatrix in="SourceAlpha" type="matrix" values="0 0 0 0 0 0 0 0 0 0 0 0 0 0 0 0 0 0 127 0" result="hardAlpha"/>
<feOffset/>
<feGaussianBlur stdDeviation="5.2"/>
<feComposite in2="hardAlpha" operator="out"/>
<feColorMatrix type="matrix" values="0 0 0 0 0 0 0 0 0 0 0 0 0 0 0 0 0 0 0.25 0"/>
<feBlend mode="normal" in2="BackgroundImageFix" result="effect1_dropShadow_9613_32678"/>
<feBlend mode="normal" in="SourceGraphic" in2="effect1_dropShadow_9613_32678" result="shape"/>
</filter>
<filter id="filter2_d_9613_32678" x="233.6" y="186.6" width="52.8" height="52.8" filterUnits="userSpaceOnUse" color-interpolation-filters="sRGB">
<feFlood flood-opacity="0" result="BackgroundImageFix"/>
<feColorMatrix in="SourceAlpha" type="matrix" values="0 0 0 0 0 0 0 0 0 0 0 0 0 0 0 0 0 0 127 0" result="hardAlpha"/>
<feOffset/>
<feGaussianBlur stdDeviation="5.2"/>
<feComposite in2="hardAlpha" operator="out"/>
<feColorMatrix type="matrix" values="0 0 0 0 0 0 0 0 0 0 0 0 0 0 0 0 0 0 0.25 0"/>
<feBlend mode="normal" in2="BackgroundImageFix" result="effect1_dropShadow_9613_32678"/>
<feBlend mode="normal" in="SourceGraphic" in2="effect1_dropShadow_9613_32678" result="shape"/>
</filter>
<radialGradient id="paint0_radial_9613_32678" cx="0" cy="0" r="1" gradientUnits="userSpaceOnUse" gradientTransform="translate(206 23) rotate(90) scale(111 178.144)">
<stop stop-color="#785D00"/>
<stop offset="1" stop-color="#171611"/>
</radialGradient>
<radialGradient id="paint1_radial_9613_32678" cx="0" cy="0" r="1" gradientUnits="userSpaceOnUse" gradientTransform="translate(101 146) rotate(90) scale(100 113.987)">
<stop stop-color="#3E2476"/>
<stop offset="1" stop-color="#1C172B"/>
</radialGradient>
<radialGradient id="paint2_radial_9613_32678" cx="0" cy="0" r="1" gradientUnits="userSpaceOnUse" gradientTransform="translate(311.485 152) rotate(89.0864) scale(95.0121 110.371)">
<stop stop-color="#2C6A85"/>
<stop offset="1" stop-color="#0F1D24"/>
</radialGradient>
<linearGradient id="paint3_linear_9613_32678" x1="108" y1="90" x2="144" y2="90" gradientUnits="userSpaceOnUse">
<stop stop-color="#FDF621"/>
<stop offset="0.595" stop-color="#FDFCC3"/>
<stop offset="1" stop-color="#FDF973"/>
</linearGradient>
<linearGradient id="paint4_linear_9613_32678" x1="26" y1="213" x2="58" y2="213" gradientUnits="userSpaceOnUse">
<stop stop-color="#FDF621"/>
<stop offset="0.595" stop-color="#FDFCC3"/>
<stop offset="1" stop-color="#FDF973"/>
</linearGradient>
<linearGradient id="paint5_linear_9613_32678" x1="244" y1="213" x2="276" y2="213" gradientUnits="userSpaceOnUse">
<stop stop-color="#FDF621"/>
<stop offset="0.595" stop-color="#FDFCC3"/>
<stop offset="1" stop-color="#FDF973"/>
</linearGradient>
</defs>
</svg>
