<svg width="68" height="26" viewBox="0 0 68 26" fill="none" xmlns="http://www.w3.org/2000/svg">
<rect x="0.5" y="0.5" width="67" height="25" rx="3.5" stroke="#3D405A"/>
<circle cx="15" cy="13" r="8.5" fill="url(#paint0_linear_9613_30600)" stroke="black"/>
<path fill-rule="evenodd" clip-rule="evenodd" d="M19.3272 9.18832L18.7702 17.3797L18.7577 17.3919C18.7322 17.5862 18.662 17.7462 18.5434 17.8647C18.0069 18.4012 16.6229 17.9483 15.0457 16.835L15.4398 16.4409C15.8396 16.7185 16.2222 16.9488 16.5754 17.1263C17.0517 17.366 17.4458 17.4951 17.7384 17.5309C18.0393 17.5677 18.1345 17.4975 18.1554 17.4766C18.1761 17.4559 18.2463 17.3607 18.2096 17.0598C18.1738 16.7672 18.0446 16.3731 17.8051 15.8967C17.3561 15.004 16.5702 13.9221 15.5344 12.8537L10.7732 17.6149L10.8644 16.7476L15.1463 12.4657C14.078 11.4299 12.9961 10.6439 12.1034 10.195C11.627 9.9555 11.2329 9.82632 10.9403 9.79054C10.6394 9.75378 10.5442 9.82396 10.5235 9.84474C10.5026 9.8656 10.4324 9.9608 10.4692 10.2617C10.505 10.5543 10.6341 10.9484 10.8738 11.4247C11.0513 11.7779 11.2816 12.1605 11.5592 12.5603L11.1651 12.9544C10.0518 11.3772 9.59891 9.99323 10.1354 9.45671C10.254 9.33804 10.4142 9.26779 10.6087 9.24236C10.6125 9.23828 10.6164 9.23429 10.6204 9.23038L18.8121 8.67323L19.3648 8.63574L19.3272 9.18832ZM15.8247 9.42663L18.3576 9.25434L17.1643 10.4478C16.6826 9.98949 16.2124 9.65818 15.8247 9.42655M14.7571 9.49909L12.2756 9.66788C13.2468 10.1425 14.4057 10.9823 15.5344 12.0776L16.7761 10.8359C16.2561 10.3426 15.752 10.008 15.367 9.79298C15.2009 9.69953 15.0299 9.61484 14.8549 9.53927C14.8166 9.52297 14.784 9.50952 14.7571 9.49909ZM17.1609 11.2273L15.9225 12.4656C17.0181 13.5946 17.8581 14.7539 18.3327 15.7253L18.5068 13.1644C18.4951 13.139 18.4804 13.1084 18.4627 13.0727C18.3782 12.9036 18.2863 12.7382 18.1872 12.5772C17.965 12.2135 17.6309 11.736 17.161 11.2272M17.5493 10.8389C18.0033 11.3284 18.3387 11.7922 18.5748 12.1649L18.7463 9.6418L17.5493 10.8389ZM13.0729 12.3402L11.2391 14.1739L11.148 15.0412L13.5957 12.5935L13.0729 12.3402ZM15.4066 14.4046L12.962 16.8492L13.8293 16.758L15.6956 14.8916L15.4066 14.4046Z" fill="white"/>
<circle cx="29" cy="13" r="8.5" fill="#E9FB46" stroke="black"/>
<path fill-rule="evenodd" clip-rule="evenodd" d="M24.1992 8.2002H27.3992V11.4002H30.3326V8.2002H33.7992V18.3335H30.0659V16.0585C30.3928 15.7655 30.5984 15.3401 30.5984 14.8666C30.5984 13.9829 29.8821 13.2666 28.9984 13.2666C28.1148 13.2666 27.3984 13.9829 27.3984 14.8666C27.3984 15.3408 27.6048 15.7669 27.9326 16.0599V18.3335H24.1992V8.2002Z" fill="#2F3E24"/>
<circle cx="42" cy="13" r="8.5" fill="#2A2A2A" stroke="black"/>
<path fill-rule="evenodd" clip-rule="evenodd" d="M47.2596 11.0207L40.0662 18.2775C39.6455 18.1218 39.2485 17.917 38.8822 17.6702L46.6427 9.84146C46.8925 10.2059 47.1005 10.6013 47.2596 11.0207ZM42.5419 18.5998C45.2335 18.3479 47.3727 16.1937 47.6025 13.4947L42.5419 18.5998ZM45.2495 8.42716C44.3349 7.77981 43.2182 7.39941 42.0126 7.39941C38.9142 7.39941 36.4023 9.91223 36.4023 13.0119C36.4023 14.2348 36.7933 15.3663 37.4569 16.2882L45.2495 8.42716ZM37.9058 13.9302L42.974 8.84052C42.6747 8.77359 42.3635 8.73828 42.0441 8.73828C39.7001 8.73828 37.8 10.6392 37.8 12.984C37.8 13.3093 37.8366 13.626 37.9058 13.9302Z" fill="#C3FF61"/>
<circle cx="54" cy="13" r="8.5" fill="white" stroke="black"/>
<path d="M50.8008 9H53.1273V15.5901H54.1885V13.3803H55.3722V10.0655H54.1885V9H56.5151V11.2099H57.6579V9H58.8008V11.2099H57.6579V13.3803H55.3722V15.5901H57.6579V17.8H50.8008V9Z" fill="#190C6D"/>
<defs>
<linearGradient id="paint0_linear_9613_30600" x1="7.00001" y1="5" x2="23" y2="21" gradientUnits="userSpaceOnUse">
<stop stop-color="#FFB0AB"/>
<stop offset="0.464" stop-color="#FF6D63"/>
<stop offset="1" stop-color="#FF4337"/>
</linearGradient>
</defs>
</svg>
