<svg width="140" height="36" viewBox="0 0 140 36" fill="none" xmlns="http://www.w3.org/2000/svg">
  <rect width="140" height="36" rx="4" fill="#252525"/>
  <path fill-rule="evenodd" clip-rule="evenodd" d="M11 8H15.3565C15.9088 8 16.3565 8.44772 16.3565 9V14.3565H22.1834V9C22.1834 8.44772 22.6311 8 23.1834 8H28.0696C28.6219 8 29.0696 8.44772 29.0696 9V27.129C29.0696 27.6813 28.6219 28.129 28.0696 28.129H22.6537C22.1014 28.129 21.6537 27.6813 21.6537 27.129V24.5435C22.653 23.8646 23.3095 22.7187 23.3095 21.4194C23.3095 19.335 21.6197 17.6452 19.5353 17.6452C17.4509 17.6452 15.7611 19.335 15.7611 21.4194C15.7611 22.7182 16.4172 23.8638 17.416 24.5429V27.129C17.416 27.6813 16.9682 28.129 16.416 28.129H11C10.4477 28.129 10 27.6813 10 27.129V9C10 8.44772 10.4477 8 11 8Z" fill="#E9FB46"/>
  <path d="M37.6623 25V11.64H40.5823V16.86H46.4623V11.64H49.3823V25H46.4623V19.38H40.5823V25H37.6623ZM53.2968 28.76C52.8435 28.76 52.3835 28.7067 51.9168 28.6C51.4501 28.4933 51.0635 28.36 50.7568 28.2L51.4968 26.14C51.7368 26.2333 51.9901 26.3133 52.2568 26.38C52.5368 26.46 52.8101 26.5 53.0768 26.5C53.3035 26.5 53.5168 26.4667 53.7168 26.4C53.9301 26.3333 54.1235 26.2333 54.2968 26.1C54.4835 25.98 54.6435 25.8267 54.7768 25.64L50.9768 15.6H53.9368L56.0768 22.42L58.2368 15.6H61.1768L57.5968 25C57.2635 25.9067 56.8701 26.6333 56.4168 27.18C55.9768 27.74 55.4901 28.14 54.9568 28.38C54.4368 28.6333 53.8835 28.76 53.2968 28.76ZM62.6395 28.64V15.6H65.2595V16.8C65.5528 16.3733 65.9528 16.0333 66.4595 15.78C66.9661 15.5267 67.5661 15.4 68.2595 15.4C69.1128 15.4 69.8728 15.6 70.5395 16C71.2195 16.3867 71.7595 16.9467 72.1595 17.68C72.5595 18.4133 72.7595 19.2867 72.7595 20.3C72.7595 21.3133 72.5595 22.1867 72.1595 22.92C71.7595 23.6533 71.2195 24.22 70.5395 24.62C69.8728 25.0067 69.1128 25.2 68.2595 25.2C67.6061 25.2 67.0395 25.0933 66.5595 24.88C66.0795 24.6533 65.6928 24.3533 65.3995 23.98V28.64H62.6395ZM67.6195 22.8C68.0728 22.8 68.4728 22.7 68.8195 22.5C69.1795 22.3 69.4528 22.0133 69.6395 21.64C69.8395 21.2533 69.9395 20.8067 69.9395 20.3C69.9395 19.78 69.8395 19.3333 69.6395 18.96C69.4528 18.5867 69.1795 18.3 68.8195 18.1C68.4728 17.9 68.0728 17.8 67.6195 17.8C67.1661 17.8 66.7595 17.9 66.3995 18.1C66.0395 18.3 65.7661 18.5867 65.5795 18.96C65.3928 19.3333 65.2995 19.78 65.2995 20.3C65.2995 20.8067 65.3928 21.2533 65.5795 21.64C65.7661 22.0133 66.0328 22.3 66.3795 22.5C66.7395 22.7 67.1528 22.8 67.6195 22.8ZM79.5107 25.2C78.5374 25.2 77.6507 25.02 76.8507 24.66C76.0507 24.2867 75.4107 23.74 74.9307 23.02C74.4507 22.2867 74.2107 21.38 74.2107 20.3C74.2107 19.3 74.4307 18.4333 74.8707 17.7C75.3107 16.9667 75.904 16.4 76.6507 16C77.3974 15.6 78.2374 15.4 79.1707 15.4C80.1174 15.4 80.944 15.5733 81.6507 15.92C82.3707 16.2667 82.9307 16.7533 83.3307 17.38C83.7307 17.9933 83.9307 18.7 83.9307 19.5C83.9307 19.74 83.8974 20.0067 83.8307 20.3C83.764 20.58 83.6774 20.82 83.5707 21.02H77.0307C77.0974 21.4467 77.244 21.8067 77.4707 22.1C77.6974 22.38 78.0107 22.5933 78.4107 22.74C78.8107 22.8867 79.2707 22.96 79.7907 22.96C80.3374 22.96 80.8507 22.88 81.3307 22.72C81.8107 22.5467 82.264 22.32 82.6907 22.04L83.5307 23.98C82.9574 24.38 82.3307 24.6867 81.6507 24.9C80.984 25.1 80.2707 25.2 79.5107 25.2ZM77.0307 19.22H81.0907C81.104 19.1933 81.1107 19.1667 81.1107 19.14C81.1107 19.1133 81.1107 19.0733 81.1107 19.02C81.1107 18.7133 81.044 18.4533 80.9107 18.24C80.7774 18.0133 80.5707 17.84 80.2907 17.72C80.024 17.5867 79.6774 17.52 79.2507 17.52C78.864 17.52 78.5107 17.5933 78.1907 17.74C77.884 17.8733 77.6307 18.0667 77.4307 18.32C77.2307 18.5733 77.0974 18.8733 77.0307 19.22ZM85.8621 25V15.6H88.4821V17.02C88.7488 16.46 89.0954 16.0667 89.5221 15.84C89.9488 15.6 90.4221 15.48 90.9421 15.48C91.1154 15.48 91.2688 15.4933 91.4021 15.52C91.5488 15.5333 91.6621 15.56 91.7421 15.6V18.24C91.5554 18.2 91.3621 18.1667 91.1621 18.14C90.9754 18.1133 90.7821 18.1 90.5821 18.1C90.0354 18.1 89.5688 18.3 89.1821 18.7C88.8088 19.1 88.6221 19.6867 88.6221 20.46V25H85.8621ZM93.4988 25V11.64H96.2588V25H93.4988ZM103.355 25.2C102.355 25.2 101.462 25 100.675 24.6C99.9017 24.1867 99.2951 23.6133 98.8551 22.88C98.4151 22.1333 98.1951 21.2733 98.1951 20.3C98.1951 19.3133 98.4151 18.4533 98.8551 17.72C99.2951 16.9867 99.9017 16.42 100.675 16.02C101.448 15.6067 102.342 15.4 103.355 15.4C104.368 15.4 105.262 15.6067 106.035 16.02C106.808 16.42 107.415 16.9867 107.855 17.72C108.295 18.4533 108.515 19.3133 108.515 20.3C108.515 21.2733 108.295 22.1333 107.855 22.88C107.415 23.6133 106.808 24.1867 106.035 24.6C105.262 25 104.368 25.2 103.355 25.2ZM103.355 22.8C103.822 22.8 104.228 22.7 104.575 22.5C104.935 22.3 105.208 22.0133 105.395 21.64C105.595 21.2533 105.695 20.8067 105.695 20.3C105.695 19.78 105.595 19.3333 105.395 18.96C105.208 18.5867 104.935 18.3 104.575 18.1C104.228 17.9 103.822 17.8 103.355 17.8C102.888 17.8 102.475 17.9 102.115 18.1C101.768 18.3 101.495 18.5867 101.295 18.96C101.108 19.3333 101.015 19.78 101.015 20.3C101.015 20.8067 101.108 21.2533 101.295 21.64C101.495 22.0133 101.768 22.3 102.115 22.5C102.475 22.7 102.888 22.8 103.355 22.8ZM115.152 25.2C114.152 25.2 113.259 25 112.472 24.6C111.699 24.1867 111.092 23.6133 110.652 22.88C110.212 22.1333 109.992 21.2733 109.992 20.3C109.992 19.3133 110.212 18.4533 110.652 17.72C111.092 16.9867 111.699 16.42 112.472 16.02C113.259 15.6067 114.152 15.4 115.152 15.4C115.819 15.4 116.432 15.4933 116.992 15.68C117.565 15.8533 118.105 16.12 118.612 16.48L117.652 18.56C117.212 18.2933 116.792 18.1 116.392 17.98C115.992 17.86 115.579 17.8 115.152 17.8C114.685 17.8 114.272 17.9 113.912 18.1C113.565 18.2867 113.292 18.5733 113.092 18.96C112.905 19.3333 112.812 19.78 112.812 20.3C112.812 20.82 112.905 21.2667 113.092 21.64C113.292 22.0133 113.565 22.3 113.912 22.5C114.272 22.7 114.685 22.8 115.152 22.8C115.579 22.8 115.992 22.74 116.392 22.62C116.792 22.5 117.212 22.3067 117.652 22.04L118.612 24.12C118.105 24.48 117.565 24.7533 116.992 24.94C116.432 25.1133 115.819 25.2 115.152 25.2ZM120.432 25V11.64H123.192V19.28L126.672 15.6H129.852L126.172 19.4L130.052 25H126.832L124.312 21.32L123.192 22.5V25H120.432Z" fill="#E9FB46"/>
</svg>
