<svg width="22" height="22" viewBox="0 0 22 22" fill="none" xmlns="http://www.w3.org/2000/svg">
<circle cx="11" cy="11" r="10.5" fill="url(#paint0_linear_9613_33020)" stroke="black"/>
<path fill-rule="evenodd" clip-rule="evenodd" d="M16.4022 6.23272L15.7059 16.4719L15.6902 16.4872C15.6585 16.73 15.5706 16.93 15.4224 17.0783C14.7517 17.7488 13.0218 17.1827 11.0503 15.791L11.5429 15.2985C12.0426 15.6455 12.5209 15.9334 12.9624 16.1552C13.5578 16.4548 14.0504 16.6162 14.4162 16.661C14.7923 16.7069 14.9113 16.6192 14.9374 16.5931C14.9633 16.5671 15.0511 16.4481 15.0051 16.072C14.9604 15.7064 14.7989 15.2137 14.4995 14.6182C13.9383 13.5023 12.9559 12.1499 11.6612 10.8144L5.70964 16.7659L5.82364 15.6818L11.1761 10.3294C9.84066 9.03475 8.48834 8.05224 7.37238 7.49111C6.77691 7.19169 6.28433 7.03021 5.91859 6.98549C5.54246 6.93954 5.42347 7.02726 5.39749 7.05324C5.37141 7.07932 5.2837 7.19831 5.32964 7.57444C5.37447 7.94018 5.53584 8.43276 5.83536 9.02823C6.05725 9.46966 6.34515 9.94797 6.69215 10.4477L6.19957 10.9403C4.80793 8.96883 4.2418 7.23886 4.91235 6.5682C5.06069 6.41987 5.26088 6.33205 5.50406 6.30026C5.50881 6.29517 5.5137 6.29018 5.51873 6.28529L15.7583 5.58886L16.4491 5.54199L16.4022 6.23272ZM12.0241 6.53061L15.1902 6.31524L13.6985 7.80703C13.0964 7.23417 12.5087 6.82004 12.0241 6.53051M10.6895 6.62118L7.58765 6.83216C8.80161 7.4255 10.2503 8.47524 11.6612 9.84426L13.2133 8.29216C12.5633 7.6756 11.9332 7.2573 11.4519 6.98855C11.2442 6.87173 11.0305 6.76587 10.8118 6.6714C10.7639 6.65103 10.7232 6.63422 10.6895 6.62118ZM13.6943 8.78138L12.1463 10.3293C13.5158 11.7406 14.5658 13.1897 15.1591 14.404L15.3767 11.2028C15.362 11.171 15.3436 11.1328 15.3215 11.0882C15.2159 10.8768 15.101 10.6701 14.9772 10.4688C14.6994 10.0142 14.2818 9.4173 13.6944 8.78128M14.1798 8.29593C14.7473 8.90781 15.1665 9.48759 15.4616 9.95347L15.6761 6.79956L14.1798 8.29593ZM8.58431 10.1725L6.29208 12.4647L6.17818 13.5488L9.23775 10.4892L8.58431 10.1725ZM11.5015 12.7531L8.44566 15.8088L9.52973 15.6949L11.8627 13.3618L11.5015 12.7531Z" fill="white"/>
<defs>
<linearGradient id="paint0_linear_9613_33020" x1="1.00001" y1="1" x2="21" y2="21" gradientUnits="userSpaceOnUse">
<stop stop-color="#FFB0AB"/>
<stop offset="0.464" stop-color="#FF6D63"/>
<stop offset="1" stop-color="#FF4337"/>
</linearGradient>
</defs>
</svg>
