<svg width="23" height="25" viewBox="0 0 23 25" fill="none" xmlns="http://www.w3.org/2000/svg">
<path d="M16.0696 4.37373C15.4464 3.97268 14.6109 4.20827 14.2895 4.87239L11.7406 10.1356C11.7 10.2203 11.717 10.3245 11.7835 10.3924L11.8692 10.4794C11.9378 10.5472 12.0404 10.5641 12.1263 10.5217L17.4256 7.99093C18.0939 7.67062 18.3296 6.84101 17.9269 6.22154C17.445 5.48127 16.811 4.85121 16.0656 4.37373H16.0699H16.0696ZM13.6213 9.07267L13.0387 9.31886C12.9744 9.34635 12.9124 9.28279 12.9381 9.21923L13.1846 8.64217C13.2402 8.51278 13.3708 8.43433 13.51 8.44261C13.6772 8.45324 13.8098 8.58462 13.8205 8.75039C13.8291 8.89034 13.7499 9.01974 13.619 9.07502L13.6213 9.07297V9.07267Z" fill="url(#paint0_linear_9613_28737)"/>
<path d="M12.2496 10.8053C12.1596 10.837 12.0977 10.9221 12.0977 11.0174V11.1382C12.0977 11.2335 12.1576 11.3186 12.2496 11.3503L17.7996 13.2829C18.5001 13.5268 19.2583 13.1048 19.4148 12.3854C19.601 11.5241 19.601 10.6332 19.4148 9.77186C19.2586 9.05052 18.5024 8.63058 17.7996 8.87442L12.2496 10.807V10.805V10.8053ZM14.7022 11.2891C14.6102 11.393 14.46 11.429 14.3294 11.3761L13.7425 11.1405C13.6782 11.115 13.6782 11.026 13.7425 10.9985L14.3294 10.7629C14.46 10.71 14.6099 10.746 14.7022 10.8499C14.8134 10.975 14.8134 11.1617 14.7022 11.2848V11.2891Z" fill="url(#paint1_linear_9613_28737)"/>
<path d="M17.4309 14.1681L12.1316 11.6374C12.046 11.597 11.9411 11.6138 11.8744 11.6797L11.7889 11.7667C11.7203 11.8346 11.7033 11.9365 11.7459 12.0235L14.2948 17.2867C14.6162 17.9508 15.4513 18.1861 16.0749 17.7854C16.8203 17.3082 17.4543 16.6781 17.9362 15.9375C18.339 15.3181 18.1035 14.4887 17.4349 14.1684H17.4306L17.4309 14.1681ZM13.8214 13.3961C13.8108 13.5615 13.6779 13.6929 13.5109 13.7036C13.3697 13.7121 13.2389 13.6314 13.1855 13.504L12.939 12.9269C12.9111 12.8634 12.9754 12.7995 13.0397 12.8273L13.6222 13.0735C13.7508 13.1288 13.8321 13.2581 13.8235 13.3981L13.8214 13.3961Z" fill="url(#paint2_linear_9613_28737)"/>
<path d="M11.4563 12.1403C11.4243 12.0513 11.3384 11.9897 11.2421 11.9897H11.1202C11.0239 11.9897 10.9379 12.0489 10.906 12.1403L8.96103 17.6516C8.71455 18.3475 9.13889 19.1004 9.86499 19.2553C10.7324 19.4419 11.6301 19.4419 12.4975 19.2553C13.2237 19.1004 13.6478 18.3472 13.4016 17.6516L11.4566 12.1403H11.4563ZM11.394 14.5755C11.2698 14.6857 11.0813 14.6857 10.9549 14.5755C10.85 14.4821 10.8137 14.3336 10.867 14.2042L11.1026 13.6231C11.1283 13.5596 11.2181 13.5596 11.2438 13.6231L11.4794 14.2042C11.533 14.3336 11.4967 14.4821 11.3915 14.5755H11.3934H11.394Z" fill="url(#paint3_linear_9613_28737)"/>
<path d="M10.1113 11.351C10.2013 11.3193 10.2632 11.2342 10.2632 11.1389V11.0181C10.2632 10.9228 10.2032 10.8378 10.1113 10.806L4.56149 8.87346C3.86099 8.62954 3.10284 9.05176 2.94631 9.77089C2.76008 10.6323 2.76008 11.5231 2.94631 12.3845C3.10255 13.1058 3.85868 13.5257 4.56149 13.2818L10.1113 11.3493V11.3513V11.351ZM7.64371 10.8546C7.73594 10.7507 7.88587 10.7147 8.01644 10.7676L8.60134 11.0032C8.66563 11.0287 8.66563 11.1177 8.60134 11.1455L8.01644 11.3811C7.88587 11.434 7.73594 11.3979 7.64371 11.2941C7.53242 11.169 7.53242 10.9823 7.64371 10.8592V10.8549V10.8546Z" fill="url(#paint4_linear_9613_28737)"/>
<path d="M10.5753 11.7665L10.4896 11.6794C10.421 11.6116 10.3184 11.5948 10.2325 11.6371L4.93319 14.1679C4.26498 14.4863 4.02917 15.3179 4.43188 15.9371C4.91388 16.6773 5.54778 17.3074 6.29325 17.7849C6.9165 18.1859 7.75187 17.9503 8.07336 17.2862L10.6202 12.023C10.6632 11.936 10.6439 11.8341 10.5772 11.7662H10.5753V11.7665ZM9.40774 12.9247L9.16126 13.5018C9.10561 13.6312 8.97504 13.7097 8.83582 13.7014C8.66859 13.6907 8.53604 13.5594 8.52533 13.3939C8.51668 13.2539 8.59594 13.1245 8.72658 13.0693L9.30913 12.8231C9.37343 12.7956 9.43545 12.8591 9.40979 12.9227L9.40774 12.9247Z" fill="url(#paint5_linear_9613_28737)"/>
<path d="M22.3364 11.0878V11.0783C22.3364 9.58284 22.0416 8.13211 21.4595 6.76577C20.8974 5.44639 20.0931 4.26185 19.0689 3.24477C18.0446 2.2274 16.8518 1.42872 15.5232 0.870806C14.1472 0.292845 12.686 0 11.1804 0C9.67471 0 8.21378 0.292845 6.83782 0.870806C5.50918 1.42872 4.31603 2.2274 3.2918 3.24477C2.26757 4.26185 1.46328 5.44639 0.901444 6.76577C0.319424 8.13211 0.0242341 9.58284 0.0242341 11.0783V11.0878L0.0190454 11.1802C-0.0198713 11.8644 0.000884115 12.5505 0.0810235 13.2309L0.115617 13.5249L0.187972 14.7407C0.233519 15.5045 0.612597 16.2103 1.22546 16.6738C1.56504 17.0102 1.80056 17.4361 1.90405 17.9013L2.03782 18.5022C2.18252 19.1517 2.71381 19.6463 3.37568 19.7477C3.93782 19.8339 4.41346 20.2057 4.62966 20.7282L4.69913 20.8962L4.8156 21.1421C5.21774 21.9917 6.13761 22.4746 7.07104 22.3263L7.26764 22.2951C8.21488 22.1449 9.12639 22.7202 9.39106 23.636C9.64619 24.5185 10.4081 24.9845 11.1804 25C11.9526 24.9845 12.7145 24.5185 12.9696 23.636C13.2343 22.7202 14.1458 22.1449 15.093 22.2951L15.2897 22.3263C16.2231 22.4746 17.143 21.9917 17.5451 21.1421L17.6616 20.8962L17.731 20.7282C17.9472 20.2057 18.4229 19.8339 18.985 19.7477C19.6469 19.6463 20.1782 19.1517 20.3229 18.5022L20.4567 17.9013C20.5601 17.4361 20.7957 17.0102 21.1353 16.6738C21.7481 16.2103 22.1272 15.5045 22.1727 14.7407L22.2451 13.5249L22.2797 13.2309C22.3598 12.5505 22.3806 11.8644 22.3416 11.1802L22.3364 11.0878ZM17.846 17.6972C16.0654 19.4652 13.6984 20.439 11.1804 20.439C8.66232 20.439 6.2953 19.4652 4.51493 17.6972C2.73457 15.9293 1.75386 13.5785 1.75386 11.0783C1.75386 8.57808 2.73457 6.22703 4.51493 4.45908C6.2953 2.69114 8.66261 1.71757 11.1804 1.71757C13.6981 1.71757 16.0654 2.69114 17.846 4.45908C19.6264 6.22703 20.6068 8.57779 20.6068 11.0783C20.6068 13.5787 19.6264 15.9293 17.846 17.6972Z" fill="url(#paint6_linear_9613_28737)"/>
<path d="M10.9059 10.017C10.9379 10.106 11.0238 10.1676 11.1201 10.1676H11.2423C11.3386 10.1676 11.4245 10.1083 11.4565 10.017L13.4015 4.5056C13.6479 3.8097 13.2236 3.05684 12.4974 2.90197C11.6301 2.71733 10.7323 2.71733 9.86495 2.90197C9.13878 3.05684 8.71473 3.80999 8.96092 4.5056L10.9059 10.017ZM10.9531 7.56891C11.0774 7.45864 11.266 7.45864 11.3922 7.56891C11.4971 7.66018 11.5335 7.81077 11.4801 7.94017L11.2446 8.52154C11.219 8.58511 11.129 8.58511 11.1034 8.52154L10.8678 7.94017C10.8142 7.81077 10.8508 7.66216 10.9558 7.56891H10.9537H10.9531Z" fill="url(#paint7_linear_9613_28737)"/>
<path d="M4.92941 7.99079L10.2287 10.5216C10.3143 10.564 10.4192 10.5451 10.4858 10.4793L10.5714 10.3923C10.6401 10.3244 10.6571 10.2225 10.6144 10.1354L8.06756 4.87227C7.74608 4.20814 6.91099 3.97284 6.28746 4.3736C5.54199 4.8508 4.90808 5.48086 4.42609 6.22142C4.02337 6.84088 4.25889 7.67049 4.92739 7.99079H4.92941ZM8.52159 8.74827C8.53222 8.5828 8.66514 8.45113 8.832 8.4405C8.97328 8.43192 9.10415 8.51264 9.15752 8.64006L9.404 9.21711C9.43193 9.28068 9.36763 9.34453 9.30334 9.31675L8.72079 9.07056C8.5922 9.01535 8.51089 8.88596 8.51954 8.74593L8.52159 8.74827Z" fill="url(#paint8_linear_9613_28737)"/>
<defs>
<linearGradient id="paint0_linear_9613_28737" x1="25.2666" y1="-4.49976" x2="-11.9894" y2="5.48212" gradientUnits="userSpaceOnUse">
<stop stop-color="#D188FF"/>
<stop offset="1" stop-color="#831FD8"/>
</linearGradient>
<linearGradient id="paint1_linear_9613_28737" x1="25.2679" y1="-4.50021" x2="-11.9881" y2="5.48167" gradientUnits="userSpaceOnUse">
<stop stop-color="#D188FF"/>
<stop offset="1" stop-color="#831FD8"/>
</linearGradient>
<linearGradient id="paint2_linear_9613_28737" x1="25.2675" y1="-4.49974" x2="-11.9885" y2="5.48213" gradientUnits="userSpaceOnUse">
<stop stop-color="#D188FF"/>
<stop offset="1" stop-color="#831FD8"/>
</linearGradient>
<linearGradient id="paint3_linear_9613_28737" x1="25.2691" y1="-4.49976" x2="-11.9869" y2="5.48211" gradientUnits="userSpaceOnUse">
<stop stop-color="#D188FF"/>
<stop offset="1" stop-color="#831FD8"/>
</linearGradient>
<linearGradient id="paint4_linear_9613_28737" x1="25.2672" y1="-4.49978" x2="-11.9888" y2="5.48209" gradientUnits="userSpaceOnUse">
<stop stop-color="#D188FF"/>
<stop offset="1" stop-color="#831FD8"/>
</linearGradient>
<linearGradient id="paint5_linear_9613_28737" x1="25.2684" y1="-4.49996" x2="-11.9876" y2="5.48192" gradientUnits="userSpaceOnUse">
<stop stop-color="#D188FF"/>
<stop offset="1" stop-color="#831FD8"/>
</linearGradient>
<linearGradient id="paint6_linear_9613_28737" x1="25.2676" y1="-4.5" x2="-11.9884" y2="5.48188" gradientUnits="userSpaceOnUse">
<stop stop-color="#D188FF"/>
<stop offset="1" stop-color="#831FD8"/>
</linearGradient>
<linearGradient id="paint7_linear_9613_28737" x1="25.2673" y1="-4.49957" x2="-11.9887" y2="5.48231" gradientUnits="userSpaceOnUse">
<stop stop-color="#D188FF"/>
<stop offset="1" stop-color="#831FD8"/>
</linearGradient>
<linearGradient id="paint8_linear_9613_28737" x1="25.267" y1="-4.4996" x2="-11.989" y2="5.48228" gradientUnits="userSpaceOnUse">
<stop stop-color="#D188FF"/>
<stop offset="1" stop-color="#831FD8"/>
</linearGradient>
</defs>
</svg>
