<svg width="161" height="161" viewBox="0 0 161 161" fill="none" xmlns="http://www.w3.org/2000/svg">
<g filter="url(#filter0_d_9613_23313)">
<circle cx="80.4847" cy="80.4852" r="59.9996" transform="rotate(15 80.4847 80.4852)" fill="black"/>
<circle cx="80.4847" cy="80.4852" r="59.4996" transform="rotate(15 80.4847 80.4852)" stroke="#1DDAD9"/>
</g>
<path fill-rule="evenodd" clip-rule="evenodd" d="M95.8592 88.2676C96.1819 87.1421 96.4973 86.005 96.8049 84.8572C98.0427 80.2374 99.0838 75.7042 99.9305 71.3226C94.9344 70.4378 89.7726 69.3036 84.5223 67.9152L80.0585 84.5743C85.4075 85.9941 90.6884 87.2242 95.8592 88.2676ZM95.5802 89.2315C90.4138 88.1873 85.1398 86.9578 79.7996 85.5402L75.336 102.199C80.2489 103.505 85.1174 104.687 89.9217 105.743C91.9539 100.645 93.8657 95.1005 95.5802 89.2315ZM78.8336 85.2819L74.37 101.94C69.3643 100.594 64.4634 99.157 59.6849 97.6419C60.474 92.2106 61.5907 86.4529 63.0403 80.5129C68.1245 82.2212 73.401 83.8189 78.8336 85.2819ZM74.1112 102.906C69.1469 101.571 64.285 100.147 59.5422 98.6457C58.539 105.869 58.1235 112.49 58.2826 118.162C58.286 118.282 58.2896 118.401 58.2935 118.52C61.8448 119.588 65.4496 120.615 69.103 121.597L74.1112 102.906ZM68.8441 122.563C65.2941 121.608 61.7896 120.612 58.3351 119.577C58.5663 124.551 59.263 128.679 60.3877 131.737C61.5551 134.912 63.1031 136.736 64.8771 137.368L68.8441 122.563ZM57.2837 118.215C57.1197 112.432 57.5469 105.687 58.5754 98.3381C54.2152 96.9436 49.9574 95.4842 45.8154 93.9687C45.4771 101.693 46.1446 108.882 47.7067 115.121C47.7108 115.138 47.7148 115.154 47.7189 115.17C50.8597 116.217 54.0492 117.233 57.2837 118.215ZM48.0222 116.325C51.0774 117.337 54.178 118.32 57.3207 119.271C57.6435 126.994 59.0644 132.889 61.558 136.048C55.3026 132.788 50.6215 125.802 48.0222 116.325ZM46.5969 114.794C45.0889 108.5 44.4671 101.306 44.8308 93.6066C40.8272 92.1266 36.9336 90.5945 33.1623 89.0184C33.337 97.173 34.9437 104.883 37.7663 111.689C40.6628 112.751 43.6074 113.786 46.5969 114.794ZM38.3084 112.952C41.1238 113.975 43.9838 114.974 46.8855 115.946C48.9486 123.833 52.4448 130.214 57.168 134.264C48.9348 129.799 42.4532 122.28 38.3084 112.952ZM36.4992 111.222C33.7944 104.378 32.2844 96.6887 32.1601 88.5973C28.5076 87.0545 24.9722 85.4706 21.5649 83.8534C22.0529 92.415 24.4107 100.665 28.3322 108.074C31.0077 109.146 33.731 110.196 36.4992 111.222ZM29.0838 109.45C31.6837 110.48 34.3276 111.49 37.0129 112.478C40.4376 120.571 45.569 127.405 52.0761 132.211C42.2781 126.84 34.3947 118.873 29.0838 109.45ZM27.2789 108.22L27.1021 108.657C27.275 108.727 27.4481 108.797 27.6214 108.867C35.1286 122.843 48.1285 133.829 64.6145 138.348L64.6143 138.349L64.7757 138.392L64.9553 138.441L65.1351 138.489L65.5802 138.608L65.581 138.605C82.0257 142.826 98.6623 139.798 112.075 131.496C112.259 131.522 112.443 131.548 112.627 131.574L112.693 131.108C124.926 123.329 134.392 111.121 138.439 96.0146C142.745 79.9475 140.102 63.6556 132.354 50.3283L132.379 50.2994L132.295 50.2265C129.054 44.6777 124.928 39.6453 120.048 35.3604C120.037 35.3036 120.025 35.2467 120.012 35.1898L119.887 35.2196C113.277 29.4569 105.297 25.0613 96.2749 22.6011C96.202 22.5805 96.129 22.5603 96.0558 22.5405L96.015 22.5294L95.9753 22.5189C95.9004 22.499 95.8255 22.4796 95.7505 22.4606C86.7031 20.0794 77.59 19.8972 68.9804 21.5854L68.8927 21.5029C68.8553 21.5427 68.8191 21.5831 68.7841 21.6242C62.4201 22.8942 56.334 25.1867 50.7564 28.3684L50.6253 28.3934L50.634 28.4384C37.2642 36.1066 26.8335 48.8928 22.5292 64.9566C18.4816 80.0623 20.5749 95.3669 27.2789 108.22ZM111.855 130.454C118.956 125.998 125.124 120.032 129.827 112.861C126.066 112.558 122.211 112.161 118.275 111.671C114.121 118.617 108.969 124.521 103.204 129.096C106.116 129.591 109.001 130.044 111.855 130.454ZM101.873 128.867C107.721 124.384 112.968 118.51 117.196 111.535C113.143 111.014 109.006 110.395 104.8 109.675C101.266 116.524 97.1298 122.444 92.6768 127.141C95.7684 127.763 98.8352 128.338 101.873 128.867ZM91.851 127.994C94.8489 128.603 97.824 129.168 100.773 129.689C92.5207 135.694 83.151 138.964 73.7901 138.717C79.9047 137.57 86.1217 133.792 91.851 127.994ZM91.5172 126.906C91.5287 126.894 91.5403 126.882 91.5519 126.87C96.0248 122.247 100.197 116.355 103.766 109.496C99.4226 108.738 95.0066 107.873 90.5344 106.901C87.7509 113.779 84.7483 119.834 81.7144 124.761C85.0055 125.528 88.2747 126.242 91.5172 126.906ZM81.1543 125.657C84.3504 126.405 87.5261 127.103 90.6772 127.754C83.689 134.66 76.1438 138.37 69.098 138.067C72.8365 136.578 77.0138 132.183 81.1543 125.657ZM80.123 125.415C77.4357 129.607 74.7684 132.833 72.265 134.92C69.8007 136.974 67.6476 137.804 65.8516 137.595L69.8102 122.821C73.2672 123.742 76.7065 124.606 80.123 125.415ZM80.6874 124.521C77.1706 123.691 73.6293 122.803 70.069 121.856L75.0772 103.165C79.9487 104.46 84.7771 105.633 89.5433 106.684C86.8004 113.441 83.8497 119.383 80.8758 124.216C80.813 124.318 80.7502 124.42 80.6874 124.521ZM102.131 129.927C104.952 130.414 107.748 130.862 110.517 131.27C101.202 136.777 90.3878 139.735 79.213 139.485C87.2537 138.578 95.1169 135.225 102.131 129.927ZM62.0894 80.1914C60.6378 86.1283 59.5158 91.89 58.7192 97.3341C54.3255 95.9265 50.0369 94.4529 45.8672 92.9226C46.1824 87.2126 47.0432 81.2235 48.4938 75.119C52.8375 76.8911 57.3792 78.5885 62.0894 80.1914ZM47.5574 74.7346C46.0983 80.836 45.2213 86.8315 44.8861 92.5607C40.8561 91.0664 36.939 89.5193 33.1475 87.928C33.1129 81.889 33.8615 75.6193 35.4798 69.3027C39.2954 71.1714 43.3305 72.9882 47.5574 74.7346ZM34.5635 68.8509C32.9293 75.1597 32.1519 81.4403 32.1518 87.5079C28.481 85.9507 24.9303 84.3522 21.5114 82.7204C21.295 76.9616 21.9255 71.0733 23.4951 65.2154C23.6782 64.5319 23.8727 63.8545 24.0781 63.1832C27.3414 65.1096 30.8453 67.0046 34.5635 68.8509ZM105.275 108.741C109.511 109.462 113.676 110.08 117.754 110.598C120.804 105.385 123.29 99.5814 125.047 93.3019C120.809 93.0126 116.407 92.5686 111.875 91.9678C110.088 97.9813 107.85 103.612 105.275 108.741ZM118.827 110.732C122.786 111.219 126.662 111.61 130.44 111.906C133.506 107.027 135.904 101.613 137.474 95.7558C137.657 95.0719 137.827 94.3875 137.985 93.703C134.195 93.7398 130.211 93.6291 126.067 93.3687C124.327 99.6494 121.86 105.477 118.827 110.732ZM90.9119 105.96C95.4197 106.937 99.8694 107.805 104.245 108.564C106.827 103.462 109.076 97.8444 110.872 91.8325C106.225 91.1956 101.444 90.395 96.5645 89.4284C94.8531 95.2957 92.9441 100.847 90.9119 105.96ZM79.0924 84.316L83.5561 67.6571C78.2139 66.2155 73.0817 64.5908 68.2273 62.8281C66.7698 67.046 65.4048 71.4923 64.167 76.1119C63.8594 77.2598 63.5639 78.4024 63.2806 79.5387C68.3681 81.2499 73.6509 82.8506 79.0924 84.316ZM62.3302 79.217C62.6089 78.1013 62.8992 76.9796 63.2011 75.853C64.446 71.2067 65.8199 66.7317 67.2881 62.4841C62.7538 60.8086 58.4694 59.0135 54.4915 57.1364C52.4445 61.7986 50.6726 66.8174 49.2529 72.1158C49.0722 72.7904 48.8986 73.464 48.7322 74.1362C53.0739 75.9108 57.6164 77.6111 62.3302 79.217ZM47.7973 73.7517C43.5742 72.0035 39.5456 70.1854 35.7395 68.3163C37.4462 62.0035 39.8885 56.1624 42.8997 50.9087C46.1226 52.8944 49.7037 54.839 53.5883 56.7062C51.5143 61.4259 49.7217 66.5026 48.287 71.857C48.1175 72.4894 47.9543 73.1211 47.7973 73.7517ZM34.8259 67.8646C36.553 61.5409 39.0172 55.6728 42.055 50.3822C38.9286 48.4104 36.1576 46.4014 33.7949 44.3904C29.7508 49.617 26.5321 55.6027 24.387 62.2041C27.6322 64.1269 31.1206 66.0197 34.8259 67.8646ZM111.157 90.8622C106.51 90.2284 101.727 89.43 96.8431 88.4642C97.1596 87.3587 97.469 86.2424 97.7708 85.116C99.0158 80.4695 100.064 75.907 100.916 71.4942C105.679 72.3101 110.286 72.8975 114.669 73.2606C114.11 78.3217 113.135 83.5542 111.716 88.8526C111.535 89.5271 111.349 90.197 111.157 90.8622ZM125.315 92.3178C121.086 92.0336 116.689 91.594 112.158 90.9966C112.338 90.3722 112.512 89.7437 112.682 89.1114C114.116 83.757 115.102 78.4641 115.666 73.3397C119.963 73.6648 124.035 73.7713 127.818 73.6632C127.799 79.7183 126.994 85.9977 125.315 92.3178ZM138.207 92.7006C134.434 92.7433 130.465 92.6384 126.332 92.3834C127.998 86.0437 128.798 79.73 128.813 73.6296C132.508 73.4852 135.913 73.1307 138.966 72.5702C139.855 79.1184 139.65 85.9113 138.207 92.7006ZM101.103 70.5117C105.843 71.3231 110.422 71.906 114.773 72.2659C115.372 66.2815 115.385 60.5487 114.861 55.244C111.332 55.2783 107.442 55.032 103.312 54.497C102.895 59.4872 102.16 64.8719 101.103 70.5117ZM115.77 72.3447C120.035 72.6665 124.071 72.7709 127.814 72.663C127.741 66.1371 126.753 59.8859 124.959 54.142C122.381 54.7731 119.329 55.1348 115.927 55.2248L115.864 55.2264C116.387 60.573 116.37 66.3373 115.77 72.3447ZM128.808 72.6291C132.46 72.485 135.819 72.1336 138.823 71.5798C137.709 64.3055 135.242 57.3511 131.623 51.0606C130.268 52.2541 128.362 53.1785 126.048 53.8511C126.007 53.8631 125.965 53.8751 125.924 53.887C127.735 59.7122 128.731 66.0392 128.808 72.6291ZM84.7811 66.9492C90.0123 68.3326 95.1499 69.4609 100.118 70.3402C101.174 64.7063 101.907 59.3338 102.32 54.3635C98.0391 53.7666 93.5156 52.8645 88.8809 51.6485L84.7811 66.9492ZM87.9147 51.3908L83.815 66.6911C78.4917 65.2546 73.3833 63.6369 68.5565 61.8838C70.4581 56.4767 72.5099 51.4582 74.637 46.9475C78.7242 48.6034 83.1888 50.1104 87.9147 51.3908ZM73.7109 46.567C71.5768 51.0968 69.5214 56.1272 67.6175 61.5398C63.1055 59.872 58.8472 58.0868 54.8982 56.2225C57.3718 50.7415 60.226 45.7707 63.3316 41.4391C66.372 43.2335 69.8654 44.9654 73.7109 46.567ZM62.4716 40.9224C59.3466 45.2911 56.4795 50.2908 53.9953 55.7923C50.1405 53.9384 46.5919 52.0102 43.4032 50.0445C46.7287 44.4305 50.7093 39.5118 55.1338 35.4349C57.0508 37.2696 59.5111 39.1072 62.4107 40.8851L62.4716 40.9224ZM54.4259 34.732C49.9455 38.8704 45.9205 43.8509 42.5593 49.5181C39.4703 47.5682 36.738 45.585 34.4141 43.6042C39.0146 37.8637 44.6252 33.0755 50.9023 29.438C51.4798 31.1468 52.667 32.8978 54.3322 34.6348C54.3632 34.6672 54.3945 34.6996 54.4259 34.732ZM89.1397 50.6825C93.7175 51.8834 98.1802 52.7741 102.399 53.3648C102.684 49.5802 102.78 46.0395 102.689 42.807C102.656 41.6267 102.598 40.4902 102.516 39.4C99.4462 38.9698 96.1269 38.3074 92.6954 37.4126L89.1397 50.6825ZM114.756 54.2449C111.288 54.2735 107.46 54.028 103.392 53.4989C103.782 48.3528 103.826 43.6455 103.529 39.5347C106.165 39.8661 108.599 40.0197 110.738 39.9958C110.969 39.9932 111.198 39.9885 111.423 39.9817C112.129 41.8172 112.743 43.7763 113.262 45.8469C113.923 48.4869 114.423 51.2966 114.756 54.2449ZM124.652 53.1875C122.176 53.7867 119.224 54.1373 115.901 54.2251L115.76 54.2287C115.176 48.9866 114.067 44.165 112.474 39.9332C114.227 39.8226 115.741 39.5699 116.944 39.1673C117.132 39.1046 117.313 39.0376 117.489 38.966C120.499 43.1424 122.915 47.9438 124.652 53.1875ZM131.106 50.1799C129.902 51.2972 128.102 52.2128 125.769 52.8908C125.719 52.9054 125.669 52.9198 125.619 52.9341C123.871 47.6305 121.44 42.7619 118.403 38.5141C119.194 38.0394 119.762 37.4269 119.991 36.6491C124.367 40.5996 128.107 45.1696 131.106 50.1799ZM51.7901 28.9337C52.2751 30.5013 53.3755 32.1919 55.054 33.9428C55.0913 33.9816 55.1288 34.0204 55.1665 34.0593C59.3329 30.3381 63.8749 27.3366 68.6303 25.1755C68.1837 24.3698 67.9982 23.5559 68.1889 22.7686C62.4206 24.0023 56.8945 26.0919 51.7901 28.9337ZM63.0607 40.1104L62.9334 40.0326C60.1014 38.2962 57.7209 36.5174 55.8769 34.7618C60.004 31.0874 64.499 28.1365 69.1961 26.0244C69.3126 26.1747 69.4369 26.3243 69.5684 26.4729C70.4087 27.4229 71.5939 28.399 73.0563 29.371C69.5601 32.2398 66.1877 35.8615 63.0607 40.1104ZM74.141 45.6629C70.3518 44.0868 66.9128 42.3855 63.9226 40.6266C65.6848 38.2386 67.5239 36.055 69.4167 34.0987C70.901 32.5646 72.4129 31.1751 73.9419 29.9383C74.1338 30.057 74.3296 30.1755 74.5293 30.2938C76.3702 31.3843 78.5553 32.4684 81.0051 33.4999C78.6922 36.9116 76.3766 41.0108 74.141 45.6629ZM75.0678 46.0431C76.7136 42.6224 78.401 39.5076 80.096 36.7532C80.7148 35.7477 81.3332 34.7924 81.9495 33.8895C84.9017 35.0835 88.2045 36.197 91.7291 37.1552L88.1735 50.4249C83.5044 49.1598 79.0981 47.6732 75.0678 46.0431ZM110.726 38.9958C110.828 38.9947 110.929 38.9931 111.029 38.9912C108.303 32.3874 104.349 27.4959 99.4153 24.9231C101.553 27.6329 102.903 32.3548 103.447 38.5162C106.122 38.8607 108.582 39.0199 110.726 38.9958ZM116.627 38.219C116.711 38.1907 116.794 38.1618 116.873 38.1324C113.273 33.3644 108.873 29.4617 103.811 26.713C107.248 29.6644 110.035 33.8505 112.092 38.9535C113.927 38.8578 115.461 38.6092 116.627 38.219ZM119.043 36.3286C119.082 36.1796 119.101 36.0233 119.098 35.8588C115.988 33.1642 112.572 30.7764 108.886 28.7561C112.242 31.2343 115.232 34.2518 117.811 37.7032C118.515 37.2993 118.908 36.8294 119.043 36.3286ZM69.1706 22.9654C69.2105 22.8164 69.2724 22.6716 69.3578 22.531C73.3946 21.7529 77.5428 21.3928 81.742 21.4857C77.5999 21.9542 73.5049 23.0717 69.5489 24.7697C69.1423 24.0688 69.0365 23.4658 69.1706 22.9654ZM70.3174 25.8104C71.132 26.7313 72.3355 27.7131 73.8767 28.7134C78.2106 25.3218 82.7182 23.0898 87.1716 22.2529C81.4121 22.1012 75.6492 23.281 70.1455 25.6101C70.2004 25.6761 70.2577 25.7429 70.3174 25.8104ZM75.039 29.4334C76.885 30.5269 79.0951 31.6191 81.5851 32.6587C85.1378 27.5939 88.6679 24.1788 91.875 22.9016C86.3144 22.6613 80.4426 24.9204 74.7789 29.2778C74.8647 29.3297 74.9514 29.3815 75.039 29.4334ZM82.5347 33.0471C85.3897 34.1915 88.5799 35.2626 91.9879 36.1893L95.4101 23.4174C93.5575 23.0782 91.3052 23.8834 88.7068 26.0491C86.7281 27.6984 84.6471 30.0597 82.5347 33.0471ZM96.3675 23.7083L92.9542 36.4466C96.2687 37.3107 99.4695 37.9535 102.43 38.3779C102.095 34.7346 101.473 31.6492 100.584 29.2317C99.4769 26.2206 98.0274 24.4251 96.3675 23.7083Z" fill="url(#paint0_linear_9613_23313)"/>
<path d="M91.317 80.7358C95.7014 78.2892 99.6013 76.0607 99.6013 76.0607L79.8594 65.1118V86.7189C80.5618 86.4767 82.3301 85.6046 84.5345 84.4662L91.3654 88.4145V80.7358H91.317Z" fill="url(#paint1_linear_9613_23313)"/>
<path d="M79.8325 65.1118L60.0664 75.2613C60.0664 75.2613 77.3375 85.1202 79.8325 85.9438V65.1118Z" fill="url(#paint2_linear_9613_23313)"/>
<path d="M91.3147 88.3906L79.7844 81.7534L64.6934 90.4738L79.8086 99.2184L94.9481 90.4738V86.2589L91.3147 88.3906Z" fill="url(#paint3_linear_9613_23313)"/>
<path d="M73.6055 74.9702V90.6669L79.8308 94.2519V78.5795L73.6055 74.9702Z" fill="url(#paint4_linear_9613_23313)"/>
<path d="M79.8594 78.5795V94.2519L86.0847 90.6669V74.9702L79.8594 78.5795Z" fill="url(#paint5_linear_9613_23313)"/>
<path d="M70.41 82.2373L64.6934 85.5317V90.4732L74.0193 85.0956L70.41 82.2373Z" fill="url(#paint6_linear_9613_23313)"/>
<path d="M70.6999 82.0677L64.6925 85.5317L58.6367 82.0435L64.6441 78.5796L70.6999 82.0677Z" fill="url(#paint7_linear_9613_23313)"/>
<path d="M58.4922 70.2227V77.3443L79.8328 89.6497V82.5281L58.4922 70.2227Z" fill="url(#paint8_linear_9613_23313)"/>
<path d="M64.7176 85.5319L58.4922 81.8984V94.01L79.8328 106.315V99.1938L64.7418 90.4735L64.7176 85.5319Z" fill="url(#paint9_linear_9613_23313)"/>
<path d="M79.8328 57.9175L58.4922 70.2229L64.7176 73.8079L79.8086 65.0876L91.3147 71.7005L97.54 68.1155L79.8328 57.9175Z" fill="url(#paint10_linear_9613_23313)"/>
<path d="M73.6055 74.971L79.8308 78.556L86.0078 74.9952L79.7824 71.4102L73.6055 74.971Z" fill="url(#paint11_linear_9613_23313)"/>
<path d="M91.3125 71.7242V88.3898L97.5379 84.8047V68.1392L91.3125 71.7242Z" fill="url(#paint12_linear_9613_23313)"/>
<path d="M79.7852 82.5281V89.6497L94.8762 80.9293V90.5217L79.7852 99.2421V106.364L101.126 94.0583V70.2227L79.7852 82.5281Z" fill="url(#paint13_linear_9613_23313)"/>
<defs>
<filter id="filter0_d_9613_23313" x="0.470703" y="0.470703" width="160.029" height="160.029" filterUnits="userSpaceOnUse" color-interpolation-filters="sRGB">
<feFlood flood-opacity="0" result="BackgroundImageFix"/>
<feColorMatrix in="SourceAlpha" type="matrix" values="0 0 0 0 0 0 0 0 0 0 0 0 0 0 0 0 0 0 127 0" result="hardAlpha"/>
<feOffset/>
<feGaussianBlur stdDeviation="10"/>
<feComposite in2="hardAlpha" operator="out"/>
<feColorMatrix type="matrix" values="0 0 0 0 0.105882 0 0 0 0 0.819608 0 0 0 0 0.831373 0 0 0 0.5 0"/>
<feBlend mode="normal" in2="BackgroundImageFix" result="effect1_dropShadow_9613_23313"/>
<feBlend mode="normal" in="SourceGraphic" in2="effect1_dropShadow_9613_23313" result="shape"/>
</filter>
<linearGradient id="paint0_linear_9613_23313" x1="96.0137" y1="22.529" x2="64.9553" y2="138.441" gradientUnits="userSpaceOnUse">
<stop stop-color="#1DDAD9"/>
<stop offset="1"/>
</linearGradient>
<linearGradient id="paint1_linear_9613_23313" x1="90.0615" y1="51.5966" x2="89.4029" y2="89.3587" gradientUnits="userSpaceOnUse">
<stop stop-color="#0098A6"/>
<stop offset="1" stop-color="#002D4D"/>
</linearGradient>
<linearGradient id="paint2_linear_9613_23313" x1="69.9495" y1="99.6505" x2="69.9495" y2="53.419" gradientUnits="userSpaceOnUse">
<stop stop-color="#0098A6"/>
<stop offset="1" stop-color="#002D4D"/>
</linearGradient>
<linearGradient id="paint3_linear_9613_23313" x1="63.7886" y1="57.8613" x2="86.7378" y2="101.528" gradientUnits="userSpaceOnUse">
<stop offset="0.27" stop-color="#0098A6"/>
<stop offset="1" stop-color="#002D4D"/>
</linearGradient>
<linearGradient id="paint4_linear_9613_23313" x1="79.5683" y1="69.3222" x2="74.532" y2="96.3383" gradientUnits="userSpaceOnUse">
<stop stop-color="#0098A6"/>
<stop offset="1" stop-color="#002D4D"/>
</linearGradient>
<linearGradient id="paint5_linear_9613_23313" x1="82.9721" y1="57.9064" x2="82.9721" y2="94.315" gradientUnits="userSpaceOnUse">
<stop stop-color="#0098A6"/>
<stop offset="1" stop-color="#002D4D"/>
</linearGradient>
<linearGradient id="paint6_linear_9613_23313" x1="84.9839" y1="74.1879" x2="60.7026" y2="91.4746" gradientUnits="userSpaceOnUse">
<stop offset="0.27" stop-color="#0098A6"/>
<stop offset="1" stop-color="#002D4D"/>
</linearGradient>
<linearGradient id="paint7_linear_9613_23313" x1="55.7851" y1="65.9291" x2="82.1008" y2="113.703" gradientUnits="userSpaceOnUse">
<stop offset="0.27" stop-color="#0098A6"/>
<stop offset="1" stop-color="#002D4D"/>
</linearGradient>
<linearGradient id="paint8_linear_9613_23313" x1="46.5739" y1="61.8286" x2="115.056" y2="116.725" gradientUnits="userSpaceOnUse">
<stop offset="0.088" stop-color="#26FFED"/>
<stop offset="0.39" stop-color="#18C4CD"/>
<stop offset="0.631" stop-color="#0B90B1"/>
<stop offset="0.869" stop-color="#0370A0"/>
<stop offset="0.994" stop-color="#006499"/>
</linearGradient>
<linearGradient id="paint9_linear_9613_23313" x1="39.7889" y1="79.1951" x2="122.303" y2="121.084" gradientUnits="userSpaceOnUse">
<stop offset="0.098" stop-color="#26FFED"/>
<stop offset="0.381" stop-color="#18C4CD"/>
<stop offset="0.631" stop-color="#0B90B1"/>
<stop offset="0.869" stop-color="#0370A0"/>
<stop offset="0.993" stop-color="#006499"/>
</linearGradient>
<linearGradient id="paint10_linear_9613_23313" x1="84.2761" y1="44.476" x2="64.6951" y2="121.715" gradientUnits="userSpaceOnUse">
<stop stop-color="#26FFED"/>
<stop offset="0.315" stop-color="#18C4CD"/>
<stop offset="0.631" stop-color="#0B90B1"/>
<stop offset="0.869" stop-color="#0370A0"/>
<stop offset="1" stop-color="#006499"/>
</linearGradient>
<linearGradient id="paint11_linear_9613_23313" x1="71.2262" y1="91.4615" x2="116.411" y2="4.68636" gradientUnits="userSpaceOnUse">
<stop stop-color="#26FFED"/>
<stop offset="0.315" stop-color="#18C4CD"/>
<stop offset="0.631" stop-color="#0B90B1"/>
<stop offset="0.869" stop-color="#0370A0"/>
<stop offset="1" stop-color="#006499"/>
</linearGradient>
<linearGradient id="paint12_linear_9613_23313" x1="95.2757" y1="55.9454" x2="94.0896" y2="87.0735" gradientUnits="userSpaceOnUse">
<stop stop-color="#0098A6"/>
<stop offset="1" stop-color="#002D4D"/>
</linearGradient>
<linearGradient id="paint13_linear_9613_23313" x1="35.4634" y1="97.9893" x2="127.019" y2="81.8463" gradientUnits="userSpaceOnUse">
<stop stop-color="#26FFED"/>
<stop offset="0.315" stop-color="#18C4CD"/>
<stop offset="0.631" stop-color="#0B90B1"/>
<stop offset="0.869" stop-color="#0370A0"/>
<stop offset="1" stop-color="#006499"/>
</linearGradient>
</defs>
</svg>
