<svg width="124" height="127" viewBox="0 0 124 127" fill="none" xmlns="http://www.w3.org/2000/svg">
  <circle cx="32.0687" cy="31.2796" r="31.2796" fill="url(#paint0_radial_12230_10368)"/>
  <path fill-rule="evenodd" clip-rule="evenodd" d="M19.9902 18.6587H27.9428V25.6113C27.9428 26.1635 28.3905 26.6113 28.9428 26.6113H34.2327C34.7849 26.6113 35.2327 26.1635 35.2327 25.6113V18.6587H43.8479V43.8418H34.5699V38.1956C35.3874 37.4673 35.9022 36.4066 35.9022 35.2257C35.9022 33.0297 34.1219 31.2494 31.9259 31.2494C29.7298 31.2494 27.9496 33.0297 27.9496 35.2257C27.9496 36.4001 28.4587 37.4555 29.2682 38.1834V43.8418H19.9902V18.6587Z" fill="#E9FB46"/>
  <circle cx="75.0958" cy="78.2036" r="48.7033" fill="url(#paint1_radial_12230_10368)"/>
  <g filter="url(#filter0_d_12230_10368)">
    <path fill-rule="evenodd" clip-rule="evenodd" d="M96.6576 59.8625L94.369 93.519L94.3175 93.5692C94.213 94.3676 93.9243 95.0249 93.4371 95.5122C91.2326 97.7163 85.5461 95.8554 79.066 91.281L80.6851 89.6619C82.3276 90.8025 83.8999 91.7489 85.3509 92.4782C87.3082 93.4627 88.9273 93.9935 90.1295 94.1405C91.3659 94.2916 91.757 94.0032 91.8427 93.9175C91.9281 93.8321 92.2165 93.441 92.0654 92.2046C91.9184 91.0028 91.3876 89.3833 90.4034 87.426C88.5586 83.7578 85.3294 79.3126 81.0739 74.9228L61.5109 94.4854L61.8856 90.9221L79.4792 73.3284C75.0897 69.0729 70.6445 65.8433 66.9763 63.9989C65.019 63.0147 63.3999 62.4839 62.1977 62.3369C60.9613 62.1858 60.5702 62.4742 60.4848 62.5596C60.3991 62.6453 60.1107 63.0364 60.2618 64.2728C60.4091 65.475 60.9396 67.0941 61.9241 69.0514C62.6534 70.5024 63.5998 72.0747 64.7404 73.7172L63.1213 75.3363C58.5469 68.8562 56.686 63.1697 58.8901 60.9652C59.3777 60.4777 60.0357 60.189 60.8351 60.0845C60.8507 60.0678 60.8668 60.0514 60.8833 60.0353L94.5411 57.7461L96.8119 57.592L96.6576 59.8625ZM82.2667 60.8417L92.6739 60.1337L87.7707 65.0373C85.7916 63.1543 83.8597 61.793 82.2667 60.8413M77.8798 61.1394L67.6839 61.8329C71.6743 63.7832 76.4362 67.2337 81.0739 71.7338L86.1757 66.632C84.0392 64.6053 81.968 63.2303 80.386 62.3469C79.7033 61.9629 79.0008 61.615 78.2817 61.3045C78.1245 61.2375 77.9906 61.1822 77.8798 61.1394ZM87.7566 68.24L82.6685 73.3281C87.1699 77.9671 90.6215 82.7304 92.5714 86.7217L93.2867 76.1993C93.2385 76.0948 93.1781 75.9693 93.1055 75.8226C92.7583 75.1276 92.3807 74.4483 91.9737 73.7865C91.0605 72.2923 89.6878 70.3303 87.7569 68.2397M89.3526 66.6444C91.2179 68.6556 92.5959 70.5614 93.566 72.0928L94.2709 61.7257L89.3526 66.6444ZM70.96 72.8127L63.4253 80.3474L63.0509 83.9108L73.1079 73.8539L70.96 72.8127ZM80.5488 81.2951L70.5042 91.3393L74.0676 90.9649L81.7362 83.296L80.5488 81.2951Z" fill="url(#paint2_linear_12230_10368)"/>
  </g>
  <defs>
    <filter id="filter0_d_12230_10368" x="56.6523" y="56.2795" width="41.4727" height="41.4705" filterUnits="userSpaceOnUse" color-interpolation-filters="sRGB">
      <feFlood flood-opacity="0" result="BackgroundImageFix"/>
      <feColorMatrix in="SourceAlpha" type="matrix" values="0 0 0 0 0 0 0 0 0 0 0 0 0 0 0 0 0 0 127 0" result="hardAlpha"/>
      <feOffset/>
      <feGaussianBlur stdDeviation="0.65625"/>
      <feComposite in2="hardAlpha" operator="out"/>
      <feColorMatrix type="matrix" values="0 0 0 0 1 0 0 0 0 0.426332 0 0 0 0 0.388542 0 0 0 0.8 0"/>
      <feBlend mode="normal" in2="BackgroundImageFix" result="effect1_dropShadow_12230_10368"/>
      <feBlend mode="normal" in="SourceGraphic" in2="effect1_dropShadow_12230_10368" result="shape"/>
    </filter>
    <radialGradient id="paint0_radial_12230_10368" cx="0" cy="0" r="1" gradientUnits="userSpaceOnUse" gradientTransform="translate(32.0687) rotate(90) scale(62.5592)">
      <stop stop-color="#E9FB46"/>
      <stop offset="0.75"/>
    </radialGradient>
    <radialGradient id="paint1_radial_12230_10368" cx="0" cy="0" r="1" gradientUnits="userSpaceOnUse" gradientTransform="translate(75.0958 29.5004) rotate(90) scale(97.4065)">
      <stop stop-color="#FF685E"/>
      <stop offset="0.75"/>
    </radialGradient>
    <linearGradient id="paint2_linear_12230_10368" x1="57.9649" y1="57.592" x2="96.8103" y2="96.4391" gradientUnits="userSpaceOnUse">
      <stop stop-color="#FFB0AB"/>
      <stop offset="0.464" stop-color="#FF6D63"/>
      <stop offset="1" stop-color="#FF4337"/>
    </linearGradient>
  </defs>
</svg>
