<svg width="358" height="177" viewBox="0 0 358 177" fill="none" xmlns="http://www.w3.org/2000/svg">
<path d="M346.026 38.7983C346.723 39.5719 347.275 40.3942 347.677 41.2652L347.223 41.4746C347.421 41.903 347.579 42.3433 347.699 42.7958C347.818 43.2483 347.897 43.7097 347.936 44.1798L348.435 44.1381C348.515 45.094 348.44 46.0817 348.215 47.0985L347.726 46.9904C347.533 47.8643 347.222 48.7671 346.795 49.6976L347.249 49.9063C346.858 50.7592 346.373 51.6293 345.798 52.5151L345.378 52.2429C344.874 53.0195 344.298 53.8108 343.651 54.6159L344.04 54.9293C343.445 55.6696 342.792 56.4195 342.082 57.1784L341.717 56.8369C341.071 57.5276 340.377 58.2267 339.635 58.9334L339.981 59.2953C339.283 59.9603 338.545 60.6314 337.767 61.3081L337.439 60.9309C336.71 61.5653 335.945 62.205 335.146 62.8497L335.459 63.2389C334.708 63.8444 333.927 64.4539 333.116 65.0671L332.815 64.6683C332.046 65.2494 331.251 65.8341 330.429 66.4221L330.72 66.8288C329.922 67.3996 329.099 67.9734 328.252 68.5499L327.971 68.1366C327.17 68.6816 326.348 69.2291 325.504 69.779L325.777 70.1979C324.959 70.7309 324.121 71.2659 323.264 71.8028L322.998 71.379C322.164 71.901 321.312 72.4249 320.441 72.9505L320.7 73.3786C319.867 73.8808 319.019 74.3845 318.153 74.8896L317.901 74.4578C317.047 74.9564 316.177 75.4563 315.291 75.9575L315.537 76.3927C314.691 76.8717 313.83 77.3518 312.954 77.8328L312.714 77.3946C311.847 77.8709 310.967 78.3482 310.073 78.8262L310.308 79.2672C309.447 79.7278 308.573 80.1891 307.687 80.6511L307.455 80.2077C306.577 80.6653 305.687 81.1236 304.785 81.5823L305.012 82.028C304.14 82.4715 303.257 82.9153 302.362 83.3596L302.14 82.9118C301.251 83.3536 300.351 83.7958 299.44 84.2383L299.659 84.688C298.779 85.1154 297.889 85.5431 296.99 85.9709L296.775 85.5194C295.877 85.9466 294.969 86.374 294.052 86.8016L294.263 87.2548C293.376 87.6682 292.48 88.0816 291.575 88.4951L291.367 88.0403C290.465 88.4523 289.555 88.8644 288.636 89.2763L288.84 89.7326C287.942 90.1354 287.035 90.538 286.12 90.9406L285.919 90.4829C285.015 90.8807 284.103 91.2784 283.183 91.6759L283.381 92.1349C282.471 92.5282 281.553 92.9213 280.628 93.3141L280.433 92.8539C279.527 93.2384 278.615 93.6227 277.695 94.0066L277.888 94.468C276.967 94.8524 276.039 95.2364 275.105 95.62L274.915 95.1575C274.008 95.5299 273.094 95.902 272.173 96.2737L272.361 96.7373C271.441 97.1089 270.514 97.4802 269.581 97.851L269.396 97.3863C268.477 97.7518 267.551 98.1168 266.619 98.4813L266.802 98.9469C265.882 99.3067 264.957 99.6659 264.026 100.025L263.846 99.558C262.915 99.9164 261.979 100.274 261.038 100.631L261.215 101.099C260.295 101.448 259.37 101.796 258.439 102.144L258.264 101.676C257.335 102.023 256.402 102.369 255.462 102.715L255.635 103.184C254.703 103.528 253.765 103.87 252.823 104.212L252.652 103.742C251.725 104.078 250.793 104.414 249.857 104.749L250.025 105.22C249.088 105.555 248.145 105.89 247.198 106.223L247.032 105.752C246.1 106.08 245.163 106.408 244.221 106.735L244.386 107.208C243.45 107.533 242.511 107.857 241.566 108.18L241.404 107.707C240.461 108.03 239.513 108.353 238.562 108.674L238.722 109.148C237.787 109.463 236.848 109.778 235.906 110.092L235.748 109.618C234.807 109.931 233.862 110.243 232.913 110.555L233.069 111.03C232.122 111.341 231.172 111.651 230.217 111.96L230.063 111.484C229.125 111.788 228.182 112.091 227.236 112.393L227.388 112.87C226.441 113.172 225.491 113.473 224.537 113.774L224.387 113.297C223.439 113.595 222.487 113.893 221.532 114.19L221.68 114.667C220.736 114.96 219.788 115.253 218.837 115.544L218.69 115.066C217.74 115.357 216.786 115.647 215.829 115.936L215.973 116.415C215.022 116.702 214.067 116.988 213.11 117.274L212.967 116.794C212.019 117.077 211.067 117.358 210.113 117.638L210.254 118.118C209.299 118.399 208.341 118.678 207.38 118.956L207.241 118.476C206.288 118.752 205.331 119.027 204.372 119.301L204.509 119.782C203.556 120.054 202.601 120.324 201.642 120.594L201.507 120.113C200.549 120.382 199.589 120.651 198.626 120.918L198.759 121.4C197.802 121.665 196.842 121.93 195.88 122.193L195.748 121.711C194.793 121.972 193.834 122.232 192.874 122.491L193.004 122.974C192.043 123.233 191.079 123.491 190.113 123.748L189.984 123.264C189.502 123.393 189.018 123.521 188.534 123.648C188.05 123.776 187.567 123.903 187.084 124.029L187.21 124.513C186.243 124.766 185.278 125.017 184.314 125.265L184.189 124.781C183.225 125.03 182.263 125.276 181.303 125.52L181.426 126.004C180.459 126.25 179.494 126.493 178.53 126.734L178.409 126.249C177.439 126.491 176.471 126.731 175.505 126.969L175.625 127.455C174.658 127.692 173.693 127.928 172.73 128.161L172.612 127.675C171.643 127.91 170.675 128.142 169.709 128.372L169.825 128.859C168.852 129.09 167.881 129.32 166.912 129.547L166.798 129.06C165.829 129.287 164.863 129.511 163.899 129.733L164.011 130.22C163.037 130.444 162.066 130.666 161.096 130.885L160.986 130.397C160.011 130.618 159.038 130.836 158.068 131.051L158.176 131.539C157.205 131.755 156.236 131.968 155.27 132.178L155.163 131.69C154.186 131.903 153.211 132.113 152.239 132.321L152.344 132.81C151.366 133.019 150.39 133.225 149.418 133.429L149.315 132.94C148.343 133.143 147.374 133.344 146.407 133.543L146.508 134.033C145.525 134.234 144.545 134.434 143.568 134.63L143.47 134.14C142.491 134.336 141.515 134.531 140.541 134.722L140.638 135.212C139.663 135.404 138.691 135.593 137.723 135.779L137.628 135.288C136.641 135.478 135.658 135.665 134.678 135.849L134.77 136.34C133.79 136.525 132.812 136.706 131.838 136.884L131.748 136.393C130.768 136.572 129.791 136.749 128.818 136.923L128.906 137.415C127.917 137.592 126.933 137.765 125.952 137.936L125.866 137.443C124.886 137.614 123.91 137.781 122.938 137.946L123.021 138.439C122.032 138.606 121.048 138.77 120.068 138.931L119.986 138.438C118.999 138.6 118.016 138.759 117.037 138.915L117.115 139.409C116.134 139.565 115.157 139.718 114.185 139.868L114.109 139.374C113.113 139.528 112.122 139.678 111.136 139.825L111.21 140.319C110.223 140.466 109.241 140.61 108.264 140.751L108.193 140.256C107.202 140.398 106.217 140.537 105.237 140.672L105.305 141.168C104.311 141.305 103.322 141.439 102.338 141.569L102.272 141.074C101.288 141.204 100.31 141.331 99.3368 141.454L99.3996 141.95C98.3974 142.078 97.4009 142.201 96.4104 142.32L96.3505 141.824C95.361 141.944 94.3775 142.059 93.4002 142.171L93.4571 142.668C92.4585 142.782 91.4663 142.893 90.4807 142.999L90.4269 142.502C89.4308 142.61 88.4413 142.714 87.4587 142.813L87.5091 143.311C86.5147 143.412 85.5273 143.509 84.547 143.601L84.4999 143.103C83.4971 143.198 82.5019 143.289 81.5143 143.375L81.5577 143.873C80.5666 143.959 79.5831 144.042 78.6074 144.119L78.5677 143.621C77.5587 143.701 76.5581 143.777 75.5661 143.848L75.6018 144.347C74.6085 144.418 73.6237 144.485 72.6477 144.547L72.6161 144.048C71.6056 144.112 70.6046 144.171 69.6132 144.225L69.6404 144.724C68.6435 144.779 67.6564 144.828 66.6791 144.872L66.6565 144.373C65.6454 144.418 64.645 144.459 63.6554 144.494L63.673 144.993C62.6741 145.028 61.6863 145.058 60.7097 145.082L60.6975 144.582C59.6839 144.607 58.6827 144.626 57.6939 144.639L57.7004 145.139C56.7019 145.152 55.716 145.159 54.7431 145.16L54.7427 144.66C53.7249 144.66 52.7214 144.655 51.7325 144.642L51.7261 145.142C50.7244 145.129 49.7376 145.109 48.766 145.083L48.7797 144.583C47.7629 144.555 46.763 144.52 45.7802 144.477L45.7583 144.976C44.7476 144.932 43.7548 144.88 42.7803 144.819L42.8112 144.32C41.8059 144.258 40.8204 144.187 39.8551 144.108L39.8142 144.606C38.7932 144.522 37.7946 144.429 36.8188 144.325L36.8714 143.828C35.8664 143.722 34.8861 143.605 33.9311 143.479L33.8653 143.974C32.8575 143.841 31.8773 143.696 30.9254 143.539L31.0065 143.046C29.9929 142.879 29.0122 142.7 28.0651 142.507L27.9656 142.997C26.9552 142.792 25.9822 142.572 25.0476 142.338L25.1693 141.853C24.176 141.603 23.2275 141.337 22.3249 141.055L22.1756 141.532C21.184 141.222 20.2459 140.891 19.3629 140.541L19.5473 140.076C18.5871 139.695 17.6955 139.291 16.874 138.864L16.6434 139.307C15.7064 138.82 14.8557 138.302 14.0942 137.753L14.3866 137.348C13.556 136.749 12.8407 136.117 12.2415 135.452L11.8701 135.787C11.1729 135.013 10.6206 134.191 10.2189 133.32L10.6729 133.11C10.4753 132.682 10.3166 132.242 10.1973 131.789C10.078 131.337 9.99896 130.875 9.95963 130.405L9.46137 130.447C9.38141 129.491 9.45649 128.503 9.68151 127.486L10.1697 127.594C10.3631 126.721 10.6736 125.818 11.1011 124.887L10.6467 124.679C11.0385 123.826 11.5232 122.956 12.0982 122.07L12.5176 122.342C13.0216 121.565 13.598 120.774 14.2455 119.969L13.8558 119.656C14.4513 118.915 15.1045 118.165 15.8142 117.406L16.1794 117.748C16.8253 117.057 17.5194 116.358 18.2606 115.651L17.9155 115.29C18.6129 114.625 19.351 113.953 20.1288 113.277L20.457 113.654C21.186 113.02 21.9508 112.38 22.7504 111.735L22.4366 111.346C23.1876 110.74 23.9689 110.131 24.7797 109.518L25.0813 109.917C25.8497 109.335 26.6452 108.751 27.4671 108.163L27.1762 107.756C27.9742 107.185 28.7968 106.611 29.6436 106.035L29.925 106.448C30.7256 105.903 31.5481 105.356 32.392 104.806L32.1191 104.387C32.937 103.854 33.775 103.319 34.6325 102.782L34.8978 103.206C35.7316 102.684 36.5841 102.16 37.4549 101.634L37.1965 101.206C38.0287 100.704 38.8775 100.2 39.7426 99.6953L39.9947 100.127C40.8488 99.6285 41.7189 99.1285 42.6048 98.6274L42.3586 98.1922C43.2054 97.7132 44.0665 97.2331 44.9416 96.752L45.1825 97.1902C46.049 96.7139 46.9295 96.2367 47.8235 95.7586L47.5877 95.3177C48.4492 94.8571 49.3231 94.3958 50.2095 93.9338L50.4406 94.3772C51.3186 93.9196 52.2088 93.4613 53.111 93.0025L52.8844 92.5568C53.7564 92.1134 54.6395 91.6695 55.5336 91.2253L55.7561 91.673C56.6452 91.2312 57.5452 90.789 58.4559 90.3466L58.2374 89.8968C59.117 89.4694 60.0066 89.0418 60.9059 88.614L61.1207 89.0655C62.0188 88.6383 62.9267 88.2108 63.8442 87.7833L63.633 87.3301C64.5202 86.9167 65.4163 86.5032 66.3213 86.0898L66.529 86.5445C67.4308 86.1325 68.3412 85.7205 69.2603 85.3085L69.0558 84.8523C69.9544 84.4495 70.8612 84.0468 71.776 83.6443L71.9774 84.1019C72.8815 83.7041 73.7934 83.3065 74.7132 82.909L74.5148 82.45C75.4249 82.0567 76.3425 81.6636 77.2677 81.2708L77.4631 81.731C78.3686 81.3465 79.2813 80.9622 80.201 80.5783L80.0084 80.1169C80.929 79.7325 81.8567 79.3485 82.7914 78.9648L82.9812 79.4274C83.8885 79.0549 84.8023 78.6829 85.7226 78.3112L85.5354 77.8476C86.4555 77.4759 87.3821 77.1047 88.315 76.7339L88.4997 77.1986C89.4192 76.8331 90.3449 76.4681 91.2767 76.1036L91.0945 75.6379C92.014 75.2782 92.9394 74.919 93.8705 74.5603L94.0502 75.0268C94.9806 74.6685 95.9166 74.3106 96.8584 73.9534L96.6811 73.4859C97.601 73.1369 98.5263 72.7885 99.4569 72.4407L99.6319 72.9091C100.561 72.562 101.494 72.2156 102.434 71.8698L102.261 71.4006C103.193 71.0573 104.131 70.7147 105.073 70.3728L105.244 70.8428C106.171 70.5065 107.103 70.1708 108.039 69.8358L107.871 69.365C108.808 69.0298 109.751 68.6953 110.698 68.3616L110.864 68.8332C111.796 68.5045 112.733 68.1767 113.675 67.8496L113.511 67.3773C114.446 67.0523 115.386 66.7281 116.33 66.4048L116.492 66.8778C117.435 66.5547 118.383 66.2323 119.334 65.9109L119.174 65.4372C120.109 65.1216 121.048 64.8068 121.99 64.4929L122.148 64.9672C123.089 64.6539 124.034 64.3415 124.983 64.0299L124.827 63.5549C125.774 63.244 126.724 62.934 127.679 62.625L127.833 63.1007C128.771 62.7967 129.714 62.4937 130.66 62.1915L130.508 61.7152C131.455 61.4129 132.405 61.1115 133.359 60.8111L133.509 61.2881C134.457 60.9895 135.409 60.6919 136.364 60.3953L136.216 59.9178C137.16 59.6245 138.108 59.3321 139.059 59.0408L139.206 59.5189C140.156 59.2278 141.11 58.9377 142.067 58.6487L141.923 58.17C142.874 57.8827 143.829 57.5965 144.786 57.3113L144.929 57.7905C145.877 57.5081 146.829 57.2268 147.783 56.9465L147.642 56.4668C148.597 56.1863 149.555 55.907 150.516 55.6287L150.655 56.109C151.608 55.8329 152.565 55.5579 153.524 55.2841L153.387 54.8033C154.34 54.5313 155.295 54.2604 156.254 53.9907L156.389 54.472C157.347 54.2024 158.307 53.934 159.27 53.6668L159.137 53.185C160.094 52.9195 161.054 52.6551 162.016 52.3919L162.148 52.8742C163.104 52.6128 164.062 52.3526 165.022 52.0937L164.892 51.6109C165.853 51.3518 166.817 51.0939 167.783 50.8373L167.912 51.3205C168.394 51.1923 168.878 51.0643 169.362 50.9367C169.846 50.8091 170.329 50.6821 170.813 50.5556L170.686 50.0719C171.653 49.8188 172.619 49.568 173.583 49.3194L173.707 49.8036C174.671 49.5552 175.633 49.3091 176.593 49.0652L176.47 48.5806C177.437 48.335 178.402 48.0918 179.366 47.8509L179.487 48.336C180.457 48.0935 181.425 47.8535 182.391 47.6158L182.271 47.1302C183.238 46.8924 184.203 46.6569 185.166 46.4237L185.284 46.9096C186.253 46.6749 187.221 46.4425 188.187 46.2126L188.071 45.7262C189.044 45.4944 190.015 45.2651 190.984 45.0382L191.098 45.525C192.067 45.2983 193.033 45.0739 193.997 44.852L193.885 44.3648C194.859 44.1407 195.83 43.9191 196.8 43.6999L196.91 44.1876C197.885 43.9672 198.858 43.7492 199.828 43.5338L199.72 43.0457C200.691 42.8301 201.66 42.617 202.626 42.4065L202.733 42.895C203.71 42.6821 204.685 42.4717 205.657 42.264L205.552 41.775C206.53 41.566 207.506 41.3596 208.478 41.1558L208.581 41.6451C209.553 41.4415 210.522 41.2404 211.489 41.042L211.388 40.5522C212.371 40.3504 213.351 40.1514 214.328 39.955L214.426 40.4452C215.405 40.2484 216.382 40.0544 217.355 39.863L217.258 39.3724C218.233 39.1807 219.205 38.9917 220.174 38.8055L220.268 39.2965C221.255 39.1068 222.238 38.9199 223.218 38.7359L223.126 38.2445C224.106 38.0603 225.084 37.879 226.058 37.7005L226.148 38.1923C227.128 38.0127 228.105 37.8359 229.078 37.6621L228.99 37.1699C229.979 36.9933 230.963 36.8197 231.944 36.6491L232.03 37.1417C233.01 36.9712 233.986 36.8037 234.959 36.6392L234.875 36.1462C235.864 35.979 236.848 35.8148 237.829 35.6538L237.91 36.1471C238.897 35.9849 239.88 35.8258 240.859 35.6698L240.781 35.176C241.762 35.0197 242.739 34.8666 243.711 34.7166L243.787 35.2108C244.783 35.0572 245.774 34.9069 246.76 34.76L246.686 34.2655C247.673 34.1184 248.655 33.9746 249.632 33.8342L249.704 34.3291C250.694 34.1868 251.679 34.048 252.659 33.9125L252.591 33.4172C253.585 33.2798 254.575 33.1458 255.558 33.0154L255.624 33.5111C256.608 33.3807 257.586 33.2538 258.559 33.1305L258.496 32.6344C259.499 32.5074 260.495 32.384 261.486 32.2644L261.546 32.7608C262.535 32.6414 263.519 32.5256 264.496 32.4137L264.439 31.9169C265.438 31.8025 266.43 31.692 267.415 31.5855L267.469 32.0826C268.465 31.9749 269.455 31.8711 270.437 31.7715L270.387 31.274C271.381 31.1731 272.369 31.0763 273.349 30.9837L273.396 31.4814C274.399 31.3867 275.394 31.2962 276.382 31.21L276.338 30.7119C277.329 30.6254 278.313 30.5432 279.289 30.4654L279.328 30.9639C280.337 30.8834 281.338 30.8076 282.33 30.7364L282.294 30.2377C283.288 30.1665 284.272 30.0999 285.248 30.038L285.28 30.537C286.29 30.4729 287.291 30.4138 288.283 30.3597L288.256 29.8605C289.253 29.8061 290.24 29.7568 291.217 29.7126L291.24 30.2121C292.251 30.1664 293.251 30.1261 294.241 30.0913L294.223 29.5916C295.222 29.5565 296.21 29.5269 297.186 29.5029L297.199 30.0027C298.212 29.9778 299.213 29.9589 300.202 29.9459L300.196 29.446C301.194 29.4329 302.18 29.426 303.153 29.4252L303.153 29.9252C304.171 29.9244 305.175 29.9303 306.164 29.943L306.17 29.443C307.172 29.4558 308.158 29.4755 309.13 29.5021L309.116 30.0019C310.133 30.0298 311.133 30.0652 312.116 30.1083L312.138 29.6088C313.148 29.653 314.141 29.7053 315.116 29.7656L315.085 30.2647C316.09 30.3269 317.076 30.3977 318.041 30.4771L318.082 29.9788C319.103 30.0628 320.101 30.1563 321.077 30.2595L321.025 30.7567C322.03 30.863 323.01 30.9794 323.965 31.1061L324.031 30.6105C325.039 30.7441 326.019 30.8892 326.971 31.0456L326.89 31.539C327.903 31.7056 328.884 31.885 329.831 32.0774L329.931 31.5874C330.941 31.7926 331.914 32.0125 332.848 32.2472L332.727 32.7322C333.72 32.9816 334.669 33.2475 335.571 33.53L335.72 33.0528C336.712 33.363 337.65 33.6934 338.533 34.0439L338.349 34.5086C339.309 34.8897 340.201 35.294 341.022 35.7211L341.253 35.2775C342.19 35.7646 343.04 36.2826 343.802 36.8314L343.509 37.237C344.34 37.8357 345.055 38.4681 345.655 39.133L346.026 38.7983Z" stroke="url(#paint0_linear_9613_30528)" stroke-dasharray="3 3"/>
<path opacity="0.5" d="M334.957 46.1555C335.392 47.8067 334.96 49.7818 333.454 52.1191C331.95 54.4541 329.445 57.0331 325.978 59.8045C319.049 65.3424 308.469 71.4989 294.994 77.8884C268.059 90.6603 229.744 104.277 186.437 115.696C143.13 127.115 103.082 134.162 73.3517 136.332C58.4782 137.417 46.238 137.278 37.4795 135.876C33.0965 135.175 29.6453 134.167 27.1853 132.877C24.7229 131.586 23.3734 130.081 22.938 128.429C22.5026 126.778 22.9344 124.803 24.4401 122.466C25.9444 120.131 28.4495 117.552 31.9169 114.78C38.8456 109.243 49.4257 103.086 62.9006 96.6965C89.8353 83.9247 128.151 70.3083 171.458 58.889C214.765 47.4697 254.813 40.423 284.543 38.2533C299.416 37.1678 311.657 37.307 320.415 38.7085C324.798 39.4098 328.249 40.4183 330.709 41.708C333.172 42.9989 334.521 44.5043 334.957 46.1555Z" stroke="url(#paint1_linear_9613_30528)" stroke-width="2"/>
<circle cx="279.918" cy="27.2536" r="27.2536" fill="url(#paint2_radial_9613_30528)"/>
<path fill-rule="evenodd" clip-rule="evenodd" d="M269.395 16.2561H276.324V22.1851C276.324 22.7374 276.771 23.1851 277.324 23.1851H281.675C282.227 23.1851 282.675 22.7374 282.675 22.1851V16.2561H290.181V38.1979H282.098V33.2791C282.81 32.6445 283.259 31.7199 283.259 30.6905C283.259 28.7771 281.708 27.226 279.795 27.226C277.882 27.226 276.33 28.7771 276.33 30.6905C276.33 31.7132 276.774 32.6324 277.478 33.2666V38.1979H269.395V16.2561Z" fill="#E9FB46"/>
<circle cx="115.586" cy="71.0246" r="26.279" fill="url(#paint3_radial_9613_30528)"/>
<path d="M115.965 83.5288C109.095 83.5288 103.526 77.9597 103.526 71.0899C103.526 64.22 109.095 58.6509 115.965 58.6509C122.835 58.6509 128.404 64.22 128.404 71.0899C128.404 77.9597 122.835 83.5288 115.965 83.5288Z" fill="#191919"/>
<path d="M115.966 82.1959C109.832 82.1959 104.86 77.2234 104.86 71.0896C104.86 64.9558 109.832 59.9834 115.966 59.9834C122.1 59.9834 127.072 64.9558 127.072 71.0896C127.072 77.2234 122.1 82.1959 115.966 82.1959Z" fill="#F0F0F0"/>
<path d="M115.964 79.0857C111.548 79.0857 107.968 75.5056 107.968 71.0893C107.968 66.6729 111.548 63.0928 115.964 63.0928C120.381 63.0928 123.961 66.6729 123.961 71.0893C123.961 75.5056 120.381 79.0857 115.964 79.0857Z" fill="#191919"/>
<circle cx="92.3183" cy="134.408" r="42.0761" fill="url(#paint4_radial_9613_30528)"/>
<path fill-rule="evenodd" clip-rule="evenodd" d="M106.845 127.694L86.4608 148.25C85.2688 147.809 84.144 147.229 83.1061 146.531L105.098 124.354C105.806 125.386 106.395 126.506 106.845 127.694ZM93.4786 149.161C101.103 148.445 107.162 142.346 107.816 134.704L93.4786 149.161ZM79.0656 142.617L101.151 120.346C98.5586 118.51 95.3923 117.432 91.9741 117.432C83.1928 117.432 76.0742 124.55 76.0742 133.331C76.0742 136.797 77.1832 140.004 79.0656 142.617ZM80.3375 135.934L94.7039 121.512C93.8546 121.322 92.9714 121.222 92.0648 121.222C85.422 121.222 80.0369 126.607 80.0369 133.25C80.0369 134.173 80.1408 135.071 80.3375 135.934Z" fill="#C3FF61"/>
<circle cx="233.842" cy="98.3684" r="57.1745" fill="url(#paint5_radial_9613_30528)"/>
<g filter="url(#filter0_d_9613_30528)">
<path fill-rule="evenodd" clip-rule="evenodd" d="M259.155 76.8367L256.469 116.347L256.408 116.406C256.285 117.344 255.947 118.115 255.375 118.687C252.787 121.275 246.111 119.09 238.504 113.72L240.405 111.819C242.333 113.158 244.178 114.269 245.882 115.126C248.18 116.281 250.08 116.904 251.492 117.077C252.943 117.254 253.402 116.916 253.503 116.815C253.603 116.715 253.942 116.256 253.764 114.804C253.592 113.393 252.969 111.492 251.813 109.195C249.648 104.888 245.857 99.67 240.861 94.5166L217.895 117.482L218.335 113.299L238.989 92.6449C233.836 87.6491 228.618 83.8579 224.311 81.6926C222.014 80.5372 220.113 79.9141 218.701 79.7415C217.25 79.5642 216.791 79.9027 216.691 80.0029C216.59 80.1036 216.252 80.5627 216.429 82.0141C216.602 83.4254 217.225 85.3262 218.38 87.624C219.237 89.3274 220.347 91.1731 221.686 93.1013L219.786 95.0021C214.416 87.3948 212.231 80.7192 214.819 78.1313C215.391 77.5589 216.164 77.22 217.102 77.0974C217.12 77.0777 217.139 77.0585 217.158 77.0396L256.671 74.3522L259.336 74.1714L259.155 76.8367ZM242.261 77.9862L254.479 77.1552L248.723 82.9116C246.399 80.7011 244.131 79.1031 242.261 77.9858M237.111 78.3357L225.142 79.1499C229.826 81.4394 235.417 85.4901 240.861 90.7729L246.85 84.7837C244.342 82.4045 241.911 80.7904 240.053 79.7533C239.252 79.3025 238.427 78.894 237.583 78.5295C237.399 78.4509 237.241 78.386 237.111 78.3357ZM248.706 86.6714L242.733 92.6445C248.017 98.0904 252.069 103.682 254.358 108.368L255.198 96.0151C255.141 95.8925 255.071 95.7451 254.985 95.5729C254.578 94.757 254.134 93.9595 253.657 93.1827C252.585 91.4286 250.973 89.1253 248.706 86.6711M250.58 84.7982C252.769 87.1593 254.387 89.3966 255.526 91.1943L256.353 79.0241L250.58 84.7982ZM228.988 92.0395L220.143 100.885L219.703 105.068L231.509 93.2617L228.988 92.0395ZM240.245 101.997L228.453 113.789L232.636 113.349L241.639 104.346L240.245 101.997Z" fill="url(#paint6_linear_9613_30528)"/>
</g>
<defs>
<filter id="filter0_d_9613_30528" x="212.42" y="72.8589" width="48.2285" height="48.2271" filterUnits="userSpaceOnUse" color-interpolation-filters="sRGB">
<feFlood flood-opacity="0" result="BackgroundImageFix"/>
<feColorMatrix in="SourceAlpha" type="matrix" values="0 0 0 0 0 0 0 0 0 0 0 0 0 0 0 0 0 0 127 0" result="hardAlpha"/>
<feOffset/>
<feGaussianBlur stdDeviation="0.65625"/>
<feComposite in2="hardAlpha" operator="out"/>
<feColorMatrix type="matrix" values="0 0 0 0 1 0 0 0 0 0.426332 0 0 0 0 0.388542 0 0 0 0.8 0"/>
<feBlend mode="normal" in2="BackgroundImageFix" result="effect1_dropShadow_9613_30528"/>
<feBlend mode="normal" in="SourceGraphic" in2="effect1_dropShadow_9613_30528" result="shape"/>
</filter>
<linearGradient id="paint0_linear_9613_30528" x1="216.128" y1="113.839" x2="204.076" y2="40.738" gradientUnits="userSpaceOnUse">
<stop stop-color="#979ABE"/>
<stop offset="1" stop-color="#464758"/>
</linearGradient>
<linearGradient id="paint1_linear_9613_30528" x1="212.266" y1="107.487" x2="201.877" y2="49.2711" gradientUnits="userSpaceOnUse">
<stop stop-color="#979ABE"/>
<stop offset="1" stop-color="#464758"/>
</linearGradient>
<radialGradient id="paint2_radial_9613_30528" cx="0" cy="0" r="1" gradientUnits="userSpaceOnUse" gradientTransform="translate(279.918) rotate(90) scale(54.5071)">
<stop stop-color="#E9FB46"/>
<stop offset="0.75"/>
</radialGradient>
<radialGradient id="paint3_radial_9613_30528" cx="0" cy="0" r="1" gradientUnits="userSpaceOnUse" gradientTransform="translate(92.4258 62.135) rotate(24.7366) scale(40.4388)">
<stop stop-color="#9399CA"/>
<stop offset="1"/>
</radialGradient>
<radialGradient id="paint4_radial_9613_30528" cx="0" cy="0" r="1" gradientUnits="userSpaceOnUse" gradientTransform="translate(92.3183 92.3323) rotate(90) scale(84.1522)">
<stop stop-color="#C3FF61"/>
<stop offset="0.75"/>
</radialGradient>
<radialGradient id="paint5_radial_9613_30528" cx="0" cy="0" r="1" gradientUnits="userSpaceOnUse" gradientTransform="translate(233.842 41.1939) rotate(90) scale(114.349)">
<stop stop-color="#FF685E"/>
<stop offset="0.75"/>
</radialGradient>
<linearGradient id="paint6_linear_9613_30528" x1="213.732" y1="74.1714" x2="259.334" y2="119.775" gradientUnits="userSpaceOnUse">
<stop stop-color="#FFB0AB"/>
<stop offset="0.464" stop-color="#FF6D63"/>
<stop offset="1" stop-color="#FF4337"/>
</linearGradient>
</defs>
</svg>
