<svg width="149" height="51" viewBox="0 0 149 51" fill="none" xmlns="http://www.w3.org/2000/svg">
<path d="M46 22.6129H24.9167L17 30.3548L13.9224 46.2391C13.4441 48.7076 15.335 51 17.8494 51H134.917L146 42.7419L149.214 23.6645C149.625 21.2243 147.744 19 145.27 19H50.75L46 22.6129Z" fill="#FCFC02"/>
<g opacity="0.6" filter="url(#filter0_f_9947_7677)">
<circle cx="27" cy="25" r="13" fill="url(#paint0_linear_9947_7677)"/>
</g>
<circle cx="27.0015" cy="24.9995" r="12.6333" fill="url(#paint1_linear_9947_7677)" stroke="black"/>
<path d="M20.4549 22.4778L17.8809 28.2684L26.5513 31.3612M20.4549 22.4778L28.9221 18.4639L33.7993 19.0561M20.4549 22.4778L25.603 23.6623M26.5513 31.3612L36.3056 23.6623L33.7993 19.0561M26.5513 31.3612L25.603 23.6623M33.7993 19.0561L25.603 23.6623" stroke="black"/>
<path fill-rule="evenodd" clip-rule="evenodd" d="M53.1014 30.3851C52.8673 30.4435 52.6177 30.3597 52.4893 30.1555C52.3974 30.0037 52.3174 29.846 52.2495 29.6825C51.4969 30.234 51.1037 30.7049 51.2221 30.9937C51.4964 31.6634 54.4173 31.101 57.7461 29.7375C61.0748 28.3739 63.5509 26.7256 63.2765 26.0558C63.1583 25.7672 62.5488 25.7074 61.6269 25.8419C61.6522 25.9414 61.6736 26.043 61.6909 26.1466C61.7508 26.5051 61.5611 26.8508 61.2509 27.0402C60.5529 27.4664 59.7772 27.8852 58.9394 28.2844C58.7906 28.3553 58.6239 28.1857 58.6735 28.0285C58.7719 27.7089 58.821 27.3728 58.821 27.0204C58.821 26.8576 58.8047 26.7055 58.772 26.5639C58.1306 26.7754 57.4505 27.0261 56.7525 27.312C56.0943 27.5817 55.4694 27.8624 54.8925 28.1446C54.9111 28.4058 54.9748 28.6417 55.0835 28.8523C55.2228 29.1063 55.4154 29.3031 55.6613 29.4424C55.7338 29.4822 55.7315 29.598 55.6533 29.625C54.7798 29.9265 53.9237 30.1801 53.1014 30.3851ZM56.563 26.8493C55.9843 27.0864 55.4296 27.3325 54.9086 27.5814C54.9319 27.3744 54.9738 27.175 55.0343 26.9835C55.1326 26.6638 55.2802 26.381 55.4769 26.1351C55.6736 25.8892 55.9113 25.6966 56.19 25.5573C56.4687 25.4179 56.7842 25.3483 57.1367 25.3483C57.4891 25.3483 57.7883 25.4179 58.0342 25.5573C58.2718 25.6876 58.4557 25.8681 58.5858 26.0989C57.9403 26.3125 57.2594 26.5641 56.563 26.8493ZM61.2062 24.8565C61.3073 25.0173 61.3942 25.1853 61.467 25.3603C61.9113 25.2913 62.3092 25.2604 62.6371 25.2785C62.8477 25.2902 63.0588 25.3234 63.2432 25.3988C63.4288 25.4747 63.6364 25.6153 63.7392 25.8663C63.842 26.1172 63.7927 26.3631 63.7137 26.5474C63.6352 26.7305 63.5081 26.9022 63.3661 27.0583C63.0805 27.3724 62.6539 27.7102 62.1395 28.0527C61.9674 28.1672 61.7829 28.284 61.5873 28.4022C61.5333 28.5857 61.4691 28.7643 61.3947 28.938C61.1324 29.5609 60.7595 30.1019 60.2759 30.5609C59.7923 31.0199 59.2186 31.3764 58.5546 31.6305C57.8907 31.8764 57.1654 31.9994 56.3785 31.9994C55.4851 31.9994 54.7105 31.8354 54.0548 31.5076L54.0243 31.492C53.8191 31.5403 53.6217 31.5828 53.4332 31.619C52.8264 31.7359 52.2854 31.7944 51.8615 31.7709C51.6509 31.7593 51.4397 31.7261 51.2554 31.6507C51.0698 31.5748 50.8622 31.4342 50.7594 31.1832C50.6566 30.9323 50.7058 30.6864 50.7849 30.5021C50.8633 30.319 50.9905 30.1473 51.1324 29.9912C51.3655 29.7349 51.6924 29.4628 52.0843 29.1853C52.0018 28.8608 51.9606 28.5162 51.9606 28.1515C51.9606 27.3892 52.0918 26.6966 52.354 26.0737C52.6245 25.4425 53.0016 24.8975 53.4852 24.4385C53.9687 23.9795 54.5425 23.627 55.2064 23.3811C55.8703 23.127 56.5957 23 57.3826 23C58.276 23 59.0464 23.1639 59.694 23.4918C60.3497 23.8196 60.8538 24.2745 61.2062 24.8565ZM85.096 31.9997C84.5878 31.9997 84.1001 31.9628 83.6329 31.889C83.1657 31.8153 82.7395 31.7128 82.3543 31.5817C81.9772 31.4423 81.6494 31.2907 81.3707 31.1268L82.4895 28.9875C82.8092 29.1678 83.1288 29.3195 83.4485 29.4424C83.7764 29.5572 84.1001 29.6432 84.4198 29.7006C84.7476 29.758 85.0714 29.7867 85.3911 29.7867C85.6452 29.7867 85.8542 29.7662 86.0181 29.7252C86.1902 29.6842 86.3173 29.6268 86.3992 29.5531C86.4894 29.4711 86.5345 29.3809 86.5345 29.2826C86.5345 29.1514 86.4607 29.0449 86.3132 28.9629C86.1656 28.8809 85.9689 28.8072 85.723 28.7416C85.4853 28.676 85.2189 28.6105 84.9239 28.5449C84.637 28.4711 84.346 28.381 84.0509 28.2744C83.7559 28.1597 83.4854 28.0162 83.2395 27.8441C83.0018 27.672 82.8092 27.4548 82.6617 27.1925C82.5141 26.9302 82.4403 26.6105 82.4403 26.2335C82.4403 25.5778 82.6125 25.0081 82.9567 24.5245C83.3092 24.0409 83.8092 23.668 84.4567 23.4057C85.1124 23.1352 85.891 23 86.7927 23C87.432 23 88.0262 23.0656 88.5754 23.1967C89.1327 23.3197 89.6122 23.5 90.0139 23.7377L88.9688 25.8524C88.6246 25.6393 88.2475 25.4794 87.8377 25.3729C87.4361 25.2663 87.0263 25.213 86.6082 25.213C86.3296 25.213 86.096 25.2417 85.9074 25.2991C85.7189 25.3483 85.5755 25.4179 85.4771 25.5081C85.387 25.5983 85.3419 25.6925 85.3419 25.7909C85.3419 25.922 85.4157 26.0327 85.5632 26.1228C85.7107 26.2048 85.9074 26.2786 86.1533 26.3441C86.3992 26.4015 86.6656 26.4671 86.9525 26.5409C87.2476 26.6064 87.5385 26.6925 87.8254 26.799C88.1205 26.8974 88.391 27.0326 88.6369 27.2048C88.8827 27.3687 89.0795 27.5818 89.227 27.8441C89.3745 28.0982 89.4483 28.4137 89.4483 28.7908C89.4483 29.4301 89.2721 29.9916 88.9196 30.4752C88.5672 30.9505 88.0631 31.3235 87.4074 31.594C86.7599 31.8644 85.9894 31.9997 85.096 31.9997ZM92.2421 31.889C92.7093 31.9628 93.197 31.9997 93.7052 31.9997C94.5986 31.9997 95.369 31.8644 96.0165 31.594C96.6723 31.3235 97.1763 30.9505 97.5288 30.4752C97.8812 29.9916 98.0575 29.4301 98.0575 28.7908C98.0575 28.4137 97.9837 28.0982 97.8362 27.8441C97.6886 27.5818 97.4919 27.3687 97.246 27.2048C97.0001 27.0326 96.7296 26.8974 96.4346 26.799C96.1477 26.6925 95.8567 26.6064 95.5616 26.5409C95.2748 26.4671 95.0084 26.4015 94.7625 26.3441C94.5166 26.2786 94.3199 26.2048 94.1723 26.1228C94.0248 26.0327 93.951 25.922 93.951 25.7909C93.951 25.6925 93.9961 25.5983 94.0863 25.5081C94.1846 25.4179 94.3281 25.3483 94.5166 25.2991C94.7051 25.2417 94.9387 25.213 95.2174 25.213C95.6354 25.213 96.0452 25.2663 96.4469 25.3729C96.8567 25.4794 97.2337 25.6393 97.578 25.8524L98.623 23.7377C98.2214 23.5 97.7419 23.3197 97.1845 23.1967C96.6354 23.0656 96.0411 23 95.4018 23C94.5002 23 93.7215 23.1352 93.0658 23.4057C92.4183 23.668 91.9183 24.0409 91.5659 24.5245C91.2216 25.0081 91.0495 25.5778 91.0495 26.2335C91.0495 26.6105 91.1233 26.9302 91.2708 27.1925C91.4184 27.4548 91.611 27.672 91.8487 27.8441C92.0946 28.0162 92.365 28.1597 92.6601 28.2744C92.9552 28.381 93.2462 28.4711 93.533 28.5449C93.8281 28.6105 94.0945 28.676 94.3322 28.7416C94.5781 28.8072 94.7748 28.8809 94.9223 28.9629C95.0699 29.0449 95.1436 29.1514 95.1436 29.2826C95.1436 29.3809 95.0985 29.4711 95.0084 29.5531C94.9264 29.6268 94.7994 29.6842 94.6273 29.7252C94.4633 29.7662 94.2543 29.7867 94.0002 29.7867C93.6806 29.7867 93.3568 29.758 93.0289 29.7006C92.7093 29.6432 92.3855 29.5572 92.0577 29.4424C91.738 29.3195 91.4183 29.1678 91.0987 28.9875L89.9799 31.1268C90.2586 31.2907 90.5864 31.4423 90.9634 31.5817C91.3487 31.7128 91.7749 31.8153 92.2421 31.889ZM101.894 29.6145L102.121 28.4834H105.766L106.185 26.3933H102.54L102.742 25.3851H106.885L107.328 23.1967H100.332L98.611 31.8029H105.766L106.209 29.6145H101.894ZM109.035 31.8029L109.662 28.6437L107.51 23.1967H110.424L111.594 26.1773L113.99 23.1967H116.903L112.556 28.685L111.936 31.8029H109.035ZM75.239 28.6437L74.6113 31.8029H77.5128L78.1324 28.685L82.4799 23.1967H79.566L77.1701 26.1773L76.0006 23.1967H73.0868L75.239 28.6437ZM63.2603 31.9754L64.9815 23.3692H68.8666C69.7764 23.3692 70.5592 23.5167 71.2149 23.8118C71.8706 24.1068 72.3747 24.5289 72.7272 25.0781C73.0796 25.6191 73.2558 26.2666 73.2558 27.0207C73.2558 27.7829 73.1206 28.4673 72.8501 29.0739C72.5878 29.6804 72.2149 30.2009 71.7313 30.6353C71.2559 31.0697 70.6903 31.4017 70.0346 31.6312C69.3789 31.8607 68.6576 31.9754 67.8708 31.9754H63.2603ZM66.6167 29.7132H67.9691C68.4855 29.7132 68.9158 29.6025 69.2601 29.3812C69.6125 29.1517 69.8789 28.8485 70.0592 28.4714C70.2395 28.0862 70.3297 27.66 70.3297 27.1928C70.3297 26.8567 70.26 26.574 70.1207 26.3445C69.9895 26.115 69.7887 25.9387 69.5183 25.8158C69.256 25.6928 68.9281 25.6314 68.5347 25.6314H67.4282L66.6167 29.7132Z" fill="black"/>
<path d="M120.028 24.4598C120.27 23.5966 121.057 23 121.954 23L141.313 23C142.638 23 143.597 24.2647 143.239 25.5402L141.927 30.217C141.685 31.0802 140.898 31.6768 140.001 31.6768H120.642C119.317 31.6768 118.358 30.4121 118.716 29.1365L120.028 24.4598Z" fill="black"/>
<path d="M135.223 28.9711L135.37 28.2081L138.254 25.1001H139.493L136.658 28.2081L136.084 28.0471H139.955L139.766 28.9711H135.223ZM137.652 30.0001L137.862 28.9711L138.093 28.0471L138.275 27.1301H139.332L138.758 30.0001H137.652Z" fill="white"/>
<path d="M133.972 30.0562C133.785 30.0562 133.631 29.9979 133.51 29.8812C133.389 29.7599 133.328 29.6082 133.328 29.4262C133.328 29.2069 133.398 29.0319 133.538 28.9012C133.683 28.7659 133.855 28.6982 134.056 28.6982C134.243 28.6982 134.394 28.7566 134.511 28.8732C134.632 28.9899 134.693 29.1416 134.693 29.3282C134.693 29.4729 134.658 29.6012 134.588 29.7132C134.523 29.8206 134.436 29.9046 134.329 29.9652C134.222 30.0259 134.103 30.0562 133.972 30.0562Z" fill="white"/>
<path d="M131.369 30.0002L132.405 24.8062H133.497L132.461 30.0002H131.369Z" fill="white"/>
<path d="M128.756 30.0562C128.374 30.0562 128.04 29.9862 127.755 29.8462C127.471 29.7062 127.249 29.5102 127.09 29.2582C126.936 29.0062 126.859 28.7099 126.859 28.3692C126.859 27.9492 126.957 27.5759 127.153 27.2492C127.349 26.9179 127.618 26.6566 127.958 26.4652C128.304 26.2739 128.696 26.1782 129.134 26.1782C129.522 26.1782 129.855 26.2482 130.135 26.3882C130.42 26.5282 130.639 26.7242 130.793 26.9762C130.952 27.2236 131.031 27.5199 131.031 27.8652C131.031 28.2806 130.933 28.6539 130.737 28.9852C130.541 29.3166 130.273 29.5779 129.932 29.7692C129.592 29.9606 129.2 30.0562 128.756 30.0562ZM128.826 29.1602C129.041 29.1602 129.23 29.1089 129.393 29.0062C129.561 28.8989 129.692 28.7519 129.785 28.5652C129.879 28.3786 129.925 28.1616 129.925 27.9142C129.925 27.6622 129.851 27.4592 129.701 27.3052C129.552 27.1512 129.342 27.0742 129.071 27.0742C128.857 27.0742 128.665 27.1279 128.497 27.2352C128.334 27.3379 128.203 27.4826 128.105 27.6692C128.012 27.8559 127.965 28.0729 127.965 28.3202C127.965 28.5769 128.04 28.7822 128.189 28.9362C128.339 29.0856 128.551 29.1602 128.826 29.1602Z" fill="white"/>
<path d="M123.489 30.0001L122.355 25.1001H123.524L124.511 29.4471H123.776L126.534 25.1001H127.71L124.609 30.0001H123.489Z" fill="white"/>
<path d="M74.9964 46.0002L76.4384 38.7622H73.5684L74.0864 36.2002H83.1304L82.6124 38.7622H79.7424L78.3004 46.0002H74.9964Z" fill="black"/>
<path d="M67.6961 46.2241C67.1174 46.2241 66.5621 46.1821 66.0301 46.0981C65.4981 46.0141 65.0128 45.8974 64.5741 45.7481C64.1448 45.5894 63.7714 45.4167 63.4541 45.2301L64.7281 42.7941C65.0921 42.9994 65.4561 43.1721 65.8201 43.3121C66.1934 43.4427 66.5621 43.5407 66.9261 43.6061C67.2994 43.6714 67.6681 43.7041 68.0321 43.7041C68.3214 43.7041 68.5594 43.6807 68.7461 43.6341C68.9421 43.5874 69.0868 43.5221 69.1801 43.4381C69.2828 43.3447 69.3341 43.2421 69.3341 43.1301C69.3341 42.9807 69.2501 42.8594 69.0821 42.7661C68.9141 42.6727 68.6901 42.5887 68.4101 42.5141C68.1394 42.4394 67.8361 42.3647 67.5001 42.2901C67.1734 42.2061 66.8421 42.1034 66.5061 41.9821C66.1701 41.8514 65.8621 41.6881 65.5821 41.4921C65.3114 41.2961 65.0921 41.0487 64.9241 40.7501C64.7561 40.4514 64.6721 40.0874 64.6721 39.6581C64.6721 38.9114 64.8681 38.2627 65.2601 37.7121C65.6614 37.1614 66.2308 36.7367 66.9681 36.4381C67.7148 36.1301 68.6014 35.9761 69.6281 35.9761C70.3561 35.9761 71.0328 36.0507 71.6581 36.2001C72.2928 36.3401 72.8388 36.5454 73.2961 36.8161L72.1061 39.2241C71.7141 38.9814 71.2848 38.7994 70.8181 38.6781C70.3608 38.5567 69.8941 38.4961 69.4181 38.4961C69.1008 38.4961 68.8348 38.5287 68.6201 38.5941C68.4054 38.6501 68.2421 38.7294 68.1301 38.8321C68.0274 38.9347 67.9761 39.0421 67.9761 39.1541C67.9761 39.3034 68.0601 39.4294 68.2281 39.5321C68.3961 39.6254 68.6201 39.7094 68.9001 39.7841C69.1801 39.8494 69.4834 39.9241 69.8101 40.0081C70.1461 40.0827 70.4774 40.1807 70.8041 40.3021C71.1401 40.4141 71.4481 40.5681 71.7281 40.7641C72.0081 40.9507 72.2321 41.1934 72.4001 41.4921C72.5681 41.7814 72.6521 42.1407 72.6521 42.5701C72.6521 43.2981 72.4514 43.9374 72.0501 44.4881C71.6488 45.0294 71.0748 45.4541 70.3281 45.7621C69.5908 46.0701 68.7134 46.2241 67.6961 46.2241Z" fill="black"/>
<path d="M51.46 46.0002L57.704 36.2002H60.952L63.276 46.0002H59.986L58.404 37.7262H59.692L54.946 46.0002H51.46ZM54.344 44.2922L55.66 41.9122H60.168L60.532 44.2922H54.344Z" fill="black"/>
<path d="M43.7471 46.0002L45.7071 36.2002H49.0111L47.5691 43.4382H51.9931L51.4751 46.0002H43.7471Z" fill="black"/>
<path d="M32.9189 46.0002L34.8789 36.2002H40.0729C41.2396 36.2002 42.1169 36.4055 42.7049 36.8162C43.2929 37.2175 43.5869 37.7915 43.5869 38.5382C43.5869 39.1449 43.4096 39.6582 43.0549 40.0782C42.7096 40.4982 42.2289 40.8202 41.6129 41.0442C41.0063 41.2589 40.3063 41.3662 39.5129 41.3662L39.9329 40.6102C40.9316 40.6102 41.7156 40.8109 42.2849 41.2122C42.8636 41.6042 43.1529 42.1595 43.1529 42.8782C43.1529 43.5969 42.9429 44.1895 42.5229 44.6562C42.1123 45.1135 41.5616 45.4542 40.8709 45.6782C40.1803 45.8929 39.4149 46.0002 38.5749 46.0002H32.9189ZM36.6289 43.6902H38.7569C39.0836 43.6902 39.3496 43.6155 39.5549 43.4662C39.7696 43.3169 39.8769 43.0929 39.8769 42.7942C39.8769 42.5795 39.7929 42.4209 39.6249 42.3182C39.4663 42.2062 39.2796 42.1502 39.0649 42.1502H36.7129L37.1469 39.9662H39.0509C39.3029 39.9662 39.5083 39.9335 39.6669 39.8682C39.8349 39.7935 39.9563 39.6955 40.0309 39.5742C40.1056 39.4435 40.1429 39.2895 40.1429 39.1122C40.1429 38.9069 40.0636 38.7575 39.9049 38.6642C39.7556 38.5615 39.5456 38.5102 39.2749 38.5102H37.6649L36.6289 43.6902Z" fill="black"/>
<path d="M135.864 42.3809C135.929 42.1289 135.961 41.877 135.961 41.625C135.961 41.5254 135.955 41.4258 135.943 41.3262C135.943 41.3379 135.935 41.3467 135.917 41.3525C135.905 41.3584 135.894 41.3672 135.882 41.3789C135.876 41.3906 135.87 41.3994 135.864 41.4053L135.855 41.6162C135.838 41.7334 135.829 41.8506 135.829 41.9678C135.829 42.1025 135.841 42.2402 135.864 42.3809ZM136.453 46.2041C136.488 46.1104 136.506 46.0195 136.506 45.9316C136.506 45.8379 136.488 45.7471 136.453 45.6592V46.2041ZM136.005 46.7578L136.084 46.749L136.154 45.8174C136.178 45.7295 136.189 45.6387 136.189 45.5449C136.189 45.457 136.16 45.3691 136.102 45.2812C136.09 45.375 136.075 45.4658 136.058 45.5537C136.005 45.8057 135.979 46.0576 135.979 46.3096C135.979 46.4561 135.987 46.6055 136.005 46.7578ZM135.952 41.2998C136.022 41.165 136.061 41.0244 136.066 40.8779C136.119 40.5088 136.192 40.1455 136.286 39.7881C136.368 39.4658 136.436 39.1406 136.488 38.8125C136.494 38.7832 136.506 38.751 136.523 38.7158C136.547 38.6748 136.562 38.6338 136.567 38.5928C136.567 38.5576 136.538 38.5312 136.479 38.5137C136.409 38.5137 136.374 38.5752 136.374 38.6982C136.345 38.8564 136.301 39.0439 136.242 39.2607C136.119 39.7529 136.034 40.248 135.987 40.7461C135.981 40.7812 135.973 40.8135 135.961 40.8428C135.926 40.9248 135.908 41.0039 135.908 41.0801C135.908 41.1562 135.923 41.2295 135.952 41.2998ZM136.392 43.7695C136.345 43.7695 136.307 43.7578 136.277 43.7344C136.084 43.6055 135.876 43.5088 135.653 43.4443L135.381 43.3301C135.029 43.1777 134.854 42.6826 134.854 41.8447C134.854 40.9717 135.202 39.3076 135.899 36.8525C135.987 36.542 136.087 36.3867 136.198 36.3867C136.292 36.3867 136.433 36.4658 136.62 36.624C136.714 36.7119 136.822 36.7822 136.945 36.835C137.074 36.8701 137.153 36.9141 137.183 36.9668C137.212 37.0137 137.227 37.0723 137.227 37.1426C137.227 37.1777 137.221 37.2158 137.209 37.2568C137.203 37.292 137.197 37.3271 137.191 37.3623C137.15 37.6611 137.098 37.9629 137.033 38.2676C136.869 39.0293 136.72 39.7939 136.585 40.5615C136.515 40.9131 136.479 41.124 136.479 41.1943C136.474 41.3115 136.45 41.4229 136.409 41.5283C136.374 41.6338 136.356 41.7598 136.356 41.9062C136.368 42.0293 136.374 42.1406 136.374 42.2402C136.374 42.3047 136.371 42.375 136.365 42.4512C136.359 42.5273 136.356 42.6299 136.356 42.7588C136.356 43.0518 136.403 43.3506 136.497 43.6553C136.497 43.6846 136.485 43.7109 136.462 43.7344C136.438 43.7578 136.415 43.7695 136.392 43.7695ZM136.436 47.0391L136.374 47.0303C136.257 47.0186 136.137 47.0098 136.014 47.0039C135.809 46.9863 135.604 46.957 135.398 46.916C135.17 46.8574 135.056 46.7373 135.056 46.5557V45.791H135.064L135.082 45.5889C135.1 45.4424 135.114 45.29 135.126 45.1318C135.144 44.915 135.229 44.8066 135.381 44.8066C135.48 44.8066 135.633 44.8447 135.838 44.9209C135.99 44.9854 136.157 45.0264 136.339 45.0439C136.491 45.0557 136.567 45.1348 136.567 45.2812L136.559 45.5361L136.567 45.8877C136.567 46.0752 136.541 46.2627 136.488 46.4502C136.471 46.5088 136.462 46.5674 136.462 46.626C136.462 46.7139 136.482 46.7959 136.523 46.8721C136.541 46.9072 136.55 46.9365 136.55 46.96C136.55 47.0127 136.512 47.0391 136.436 47.0391Z" fill="black"/>
<path d="M130.644 37.8896C130.673 37.8193 130.69 37.7666 130.696 37.7314C130.708 37.6904 130.711 37.6523 130.705 37.6172L130.688 37.459L130.67 37.582C130.646 37.6465 130.635 37.7168 130.635 37.793L130.644 37.8896ZM133.579 39.6738C133.608 39.6738 133.632 39.6475 133.649 39.5947C133.708 39.4951 133.737 39.3867 133.737 39.2695L133.729 39.1816C133.729 39.1172 133.743 39.0557 133.772 38.9971C133.831 38.874 133.86 38.748 133.86 38.6191C133.86 38.4844 133.887 38.3584 133.939 38.2412C133.945 38.2354 133.948 38.2266 133.948 38.2148L133.939 38.1885L133.931 38.083C133.931 38.0127 133.942 37.9482 133.966 37.8896C133.989 37.8252 134.019 37.6582 134.054 37.3887C134.13 36.709 134.238 36.0293 134.379 35.3496V35.3232C134.379 35.2646 134.353 35.2354 134.3 35.2354C134.276 35.2354 134.256 35.2529 134.238 35.2881C134.197 35.4111 134.177 35.5137 134.177 35.5957C134.124 36.0586 134.051 36.5186 133.957 36.9756C133.904 37.21 133.857 37.4443 133.816 37.6787C133.805 37.7549 133.79 37.834 133.772 37.916C133.761 37.9922 133.752 38.0654 133.746 38.1357C133.74 38.2588 133.717 38.3789 133.676 38.4961C133.623 38.7012 133.588 38.9062 133.57 39.1113C133.553 39.2402 133.532 39.3662 133.509 39.4893C133.509 39.5654 133.512 39.6152 133.518 39.6387C133.529 39.6621 133.55 39.6738 133.579 39.6738ZM133.931 39.709V39.7002C133.948 39.7002 133.963 39.6943 133.975 39.6826C133.98 39.6533 133.983 39.6211 133.983 39.5859C133.983 39.5801 133.98 39.5771 133.975 39.5771C133.969 39.5713 133.96 39.5625 133.948 39.5508L133.931 39.5596C133.913 39.583 133.904 39.6094 133.904 39.6387C133.904 39.6621 133.913 39.6855 133.931 39.709ZM133.061 45.3428C133.072 45.2666 133.087 44.9883 133.104 44.5078C133.104 44.3672 133.107 44.2295 133.113 44.0947V44.042C133.113 43.8135 133.148 43.5908 133.219 43.374C133.242 43.3154 133.26 43.2305 133.271 43.1191C133.295 42.9668 133.307 42.835 133.307 42.7236C133.307 42.6357 133.301 42.5479 133.289 42.46L133.28 42.3457L133.368 41.5547C133.409 41.1973 133.43 40.9775 133.43 40.8955L133.395 40.8516C133.365 40.8516 133.351 40.8604 133.351 40.8779C133.333 40.9014 133.324 40.9277 133.324 40.957L133.148 42.0029C133.131 42.2314 133.081 42.4219 132.999 42.5742C132.981 42.5977 132.973 42.6211 132.973 42.6445C132.973 42.6621 132.979 42.6826 132.99 42.7061C133.025 42.8115 133.043 42.9199 133.043 43.0312L133.034 43.3301C133.034 43.6582 132.976 43.9746 132.858 44.2793C132.847 44.2969 132.841 44.3145 132.841 44.332C132.841 44.3613 132.853 44.3877 132.876 44.4111C132.929 44.4756 132.955 44.5518 132.955 44.6396V44.7891C132.955 44.9004 132.964 45.0088 132.981 45.1143C132.987 45.1318 132.99 45.1494 132.99 45.167C132.99 45.1904 132.993 45.2168 132.999 45.2461C133.011 45.2812 133.031 45.3135 133.061 45.3428ZM131.795 40.4736C131.818 40.4736 131.83 40.4678 131.83 40.4561C131.83 40.4443 131.83 40.4355 131.83 40.4297C131.83 40.4121 131.818 40.4004 131.795 40.3945H131.777C131.766 40.4004 131.757 40.4092 131.751 40.4209C131.751 40.4268 131.751 40.4326 131.751 40.4385C131.751 40.4619 131.766 40.4736 131.795 40.4736ZM131.47 40.5791C131.499 40.5732 131.517 40.5586 131.522 40.5352C131.511 40.5059 131.493 40.4912 131.47 40.4912C131.435 40.4912 131.417 40.5059 131.417 40.5352C131.423 40.5645 131.44 40.5791 131.47 40.5791ZM131.118 40.6758C131.159 40.6758 131.18 40.6523 131.18 40.6055C131.168 40.582 131.153 40.5703 131.136 40.5703C131.095 40.5703 131.074 40.5908 131.074 40.6318C131.074 40.6494 131.077 40.6611 131.083 40.667C131.089 40.6729 131.098 40.6758 131.109 40.6758H131.118ZM130.529 40.9043C130.664 40.8926 130.775 40.834 130.863 40.7285L130.872 40.6846C130.878 40.6729 130.872 40.6582 130.854 40.6406C130.843 40.623 130.825 40.6143 130.802 40.6143C130.667 40.6494 130.559 40.7197 130.477 40.8252C130.471 40.8311 130.468 40.8398 130.468 40.8516C130.468 40.8633 130.471 40.8721 130.477 40.8779C130.482 40.8838 130.491 40.8896 130.503 40.8955C130.515 40.8955 130.523 40.8984 130.529 40.9043ZM129.87 39.8232C129.923 39.8115 129.958 39.7705 129.976 39.7002L129.984 39.6826C130.008 39.5889 130.02 39.5332 130.02 39.5156C130.031 39.4688 130.049 39.4248 130.072 39.3838C130.143 39.3135 130.178 39.2607 130.178 39.2256C130.178 39.1904 130.154 39.1523 130.107 39.1113V39.085C130.143 38.9385 130.16 38.8184 130.16 38.7246C130.16 38.625 130.172 38.5254 130.195 38.4258C130.201 38.4082 130.204 38.3877 130.204 38.3643C130.204 38.2881 130.181 38.2441 130.134 38.2324C130.099 38.2324 130.069 38.2529 130.046 38.2939C129.981 38.4404 129.938 38.5986 129.914 38.7686C129.914 38.9326 129.876 39.1172 129.8 39.3223C129.776 39.3867 129.765 39.4688 129.765 39.5684C129.765 39.7383 129.797 39.8232 129.861 39.8232H129.87ZM129.773 44.8418C129.762 44.8184 129.753 44.792 129.747 44.7627C129.735 44.7041 129.718 44.6426 129.694 44.5781C129.612 44.3496 129.571 44.1123 129.571 43.8662V43.708C129.571 43.5908 129.551 43.4795 129.51 43.374C129.492 43.3389 129.483 43.3066 129.483 43.2773C129.483 43.2305 129.501 43.1836 129.536 43.1367C129.647 42.9434 129.703 42.7441 129.703 42.5391C129.703 42.457 129.694 42.375 129.677 42.293C129.642 42.1875 129.624 42.0322 129.624 41.8271V41.7656C129.624 41.6777 129.592 41.6279 129.527 41.6162C129.498 41.6162 129.475 41.625 129.457 41.6426C129.428 41.6836 129.407 41.7568 129.396 41.8623C129.354 42.1377 129.331 42.2842 129.325 42.3018C129.308 42.4014 129.296 42.5039 129.29 42.6094C129.29 42.8262 129.272 43.125 129.237 43.5059L129.229 43.6816C129.229 44.0332 129.287 44.2822 129.404 44.4287L129.492 44.543C129.574 44.6543 129.668 44.7539 129.773 44.8418ZM129.158 42.4336L129.167 42.4248C129.167 42.4189 129.17 42.416 129.176 42.416C129.176 42.4102 129.173 42.4043 129.167 42.3984C129.161 42.3926 129.155 42.3896 129.149 42.3896L129.132 42.4072C129.132 42.4131 129.135 42.416 129.141 42.416V42.4336H129.158ZM129.114 44.1299L129.132 44.1211L129.114 44.1035V44.1299ZM131.355 41.0186L131.347 41.0098C131.347 41.0156 131.35 41.0186 131.355 41.0186ZM133.43 46.0811C133.395 46.0811 133.362 46.0693 133.333 46.0459C133.11 45.8877 132.938 45.7939 132.814 45.7646C132.568 45.6533 132.398 45.5303 132.305 45.3955C132.176 45.208 132.111 44.7949 132.111 44.1562C132.111 43.6055 132.173 42.835 132.296 41.8447C132.354 41.3994 132.384 41.1035 132.384 40.957C132.378 40.8516 132.299 40.7988 132.146 40.7988C132.094 40.7988 132.041 40.8076 131.988 40.8252C131.941 40.8428 131.895 40.8516 131.848 40.8516C131.824 40.8516 131.798 40.8486 131.769 40.8428C131.739 40.8369 131.713 40.834 131.689 40.834C131.625 40.834 131.566 40.8604 131.514 40.9131C131.467 40.9658 131.411 40.998 131.347 41.0098C131.306 40.9688 131.265 40.9482 131.224 40.9482C131.159 40.9482 131.092 40.9863 131.021 41.0625C130.951 41.1562 130.881 41.2031 130.811 41.2031L130.767 41.1943C130.726 41.1826 130.688 41.1768 130.652 41.1768C130.547 41.1768 130.453 41.2148 130.371 41.291C130.254 41.4023 130.181 41.54 130.151 41.7041C130.146 41.7158 130.143 41.7305 130.143 41.748C130.131 41.8418 130.099 41.9297 130.046 42.0117L130.037 41.7393C129.967 41.8096 129.932 41.8916 129.932 41.9854L129.905 42.1348C129.829 42.6152 129.785 43.0547 129.773 43.4531C129.773 43.5703 129.803 43.6553 129.861 43.708C129.873 43.7197 129.876 43.7344 129.87 43.752C129.87 43.7695 129.861 43.7871 129.844 43.8047C129.785 43.8457 129.756 43.9043 129.756 43.9805C129.756 44.0156 129.768 44.0449 129.791 44.0684C129.797 44.0742 129.814 44.0771 129.844 44.0771L129.888 44.0684C129.905 44.0742 129.914 44.0918 129.914 44.1211C129.943 44.3613 129.993 44.5605 130.063 44.7188C130.099 44.7832 130.116 44.833 130.116 44.8682C130.116 44.8916 130.104 44.915 130.081 44.9385C130.063 44.9561 130.04 44.9648 130.011 44.9648C129.964 44.9648 129.905 44.9385 129.835 44.8857L129.773 44.8418H129.642C129.05 44.8418 128.678 44.7305 128.525 44.5078C128.326 44.2207 128.227 43.834 128.227 43.3477C128.227 43.0605 128.262 42.6064 128.332 41.9854C128.42 41.1299 128.546 40.2949 128.71 39.4805C128.763 39.1992 128.812 38.9209 128.859 38.6455C128.906 38.3643 128.953 38.0889 129 37.8193L129.123 37.0723C129.141 36.9434 129.167 36.8145 129.202 36.6855C129.226 36.5977 129.281 36.5537 129.369 36.5537C129.486 36.5537 129.621 36.5859 129.773 36.6504L130.107 36.7998C130.201 36.8467 130.304 36.8701 130.415 36.8701H130.468C130.62 36.8701 130.729 36.9492 130.793 37.1074C130.816 37.1836 130.828 37.2568 130.828 37.3271C130.828 37.3682 130.825 37.4062 130.819 37.4414C130.761 37.9805 130.685 38.5195 130.591 39.0586L130.556 39.1289C130.521 39.1113 130.503 39.082 130.503 39.041L130.521 38.9795L130.564 38.6982C130.588 38.5693 130.6 38.4521 130.6 38.3467C130.588 38.3467 130.579 38.3496 130.573 38.3555C130.567 38.3555 130.562 38.3555 130.556 38.3555C130.55 38.3555 130.547 38.3584 130.547 38.3643L130.494 38.6016C130.389 39.1465 130.336 39.4424 130.336 39.4893C130.336 39.6299 130.424 39.7002 130.6 39.7002C130.652 39.7002 130.705 39.6914 130.758 39.6738C131.268 39.5215 131.792 39.4248 132.331 39.3838C132.524 39.3838 132.639 39.2959 132.674 39.1201C132.914 37.6611 133.163 36.2666 133.421 34.9365L133.438 34.8398C133.456 34.7461 133.477 34.6553 133.5 34.5674C133.523 34.4795 133.567 34.4355 133.632 34.4355C133.737 34.4355 133.863 34.5117 134.01 34.6641C134.221 34.8809 134.382 35.001 134.493 35.0244C134.64 35.0713 134.713 35.168 134.713 35.3145C134.713 35.3906 134.704 35.4727 134.687 35.5605C134.675 35.6484 134.663 35.7422 134.651 35.8418C134.646 35.9004 134.625 35.9502 134.59 35.9912C134.555 36.0322 134.534 36.0762 134.528 36.123C134.534 36.1641 134.543 36.2021 134.555 36.2373C134.566 36.2725 134.572 36.3076 134.572 36.3428L134.563 36.4219C134.528 36.5977 134.499 36.7764 134.476 36.958C134.435 37.3213 134.364 37.5967 134.265 37.7842C134.2 37.8955 134.168 38.0098 134.168 38.127C134.168 38.1738 134.174 38.2236 134.186 38.2764C134.197 38.3701 134.203 38.4609 134.203 38.5488C134.203 38.7305 134.18 38.9092 134.133 39.085C134.092 39.29 134.057 39.4951 134.027 39.7002L133.983 39.999L133.975 40.1924V40.2715C133.975 40.377 133.957 40.4795 133.922 40.5791C133.893 40.6553 133.875 40.7373 133.869 40.8252L133.816 41.1504C133.764 41.4609 133.72 41.7715 133.685 42.082L133.623 42.5479C133.564 42.9287 133.526 43.3125 133.509 43.6992C133.503 43.8691 133.485 44.0947 133.456 44.376C133.433 44.6514 133.421 44.8652 133.421 45.0176C133.421 45.293 133.45 45.5713 133.509 45.8525C133.521 45.8877 133.526 45.9316 133.526 45.9844C133.526 46.0137 133.515 46.0371 133.491 46.0547C133.468 46.0723 133.447 46.0811 133.43 46.0811Z" fill="black"/>
<path d="M126.601 37.3359C126.817 37.125 126.926 36.9961 126.926 36.9492L126.882 36.9316C126.747 37.0312 126.633 37.1543 126.539 37.3008V37.3096C126.557 37.3271 126.571 37.3359 126.583 37.3359H126.601ZM125.941 44.2002C126.006 44.2002 126.079 44.1357 126.161 44.0068C126.073 44.0186 125.997 44.0537 125.933 44.1123C125.915 44.1299 125.906 44.1445 125.906 44.1562C125.906 44.1855 125.918 44.2002 125.941 44.2002ZM126.442 43.8398L126.46 43.8311C126.7 43.6729 126.911 43.4854 127.093 43.2686L127.102 43.251C127.078 43.2275 127.063 43.2158 127.058 43.2158C126.894 43.3271 126.744 43.4531 126.609 43.5938C126.539 43.6641 126.466 43.7285 126.39 43.7871V43.8135C126.407 43.8311 126.425 43.8398 126.442 43.8398ZM127.251 43.6113C127.257 43.6113 127.263 43.6084 127.269 43.6025C127.28 43.5908 127.286 43.5791 127.286 43.5674C127.28 43.5674 127.277 43.5645 127.277 43.5586C127.248 43.5586 127.233 43.5732 127.233 43.6025C127.233 43.6084 127.239 43.6113 127.251 43.6113ZM126.979 43.9541C126.967 43.9189 126.958 43.8809 126.952 43.8398L126.873 43.9453C126.896 43.9512 126.932 43.9541 126.979 43.9541ZM124.298 40.7285C124.38 40.6934 124.436 40.6318 124.465 40.5439C124.494 40.4502 124.512 40.3945 124.518 40.377C124.852 39.7031 125.194 39.1553 125.546 38.7334C125.692 38.5459 125.824 38.3438 125.941 38.127C125.871 38.1445 125.81 38.1943 125.757 38.2764C125.306 38.8389 124.998 39.2695 124.834 39.5684C124.799 39.6387 124.761 39.7061 124.72 39.7705C124.521 40.0635 124.38 40.3828 124.298 40.7285ZM125.959 38.1006C125.977 38.0889 125.991 38.0742 126.003 38.0566L125.994 38.0391C125.971 38.0391 125.959 38.0596 125.959 38.1006ZM126.161 37.8193C126.226 37.7666 126.272 37.7285 126.302 37.7051C126.337 37.6758 126.36 37.6494 126.372 37.626C126.384 37.5967 126.393 37.5586 126.398 37.5117C126.281 37.5879 126.202 37.6904 126.161 37.8193ZM125.405 39.4541L125.511 39.4014V39.3047L125.493 39.2959C125.481 39.3018 125.47 39.3223 125.458 39.3574C125.446 39.3867 125.429 39.4189 125.405 39.4541ZM124.5 45.2549C124.4 45.2549 124.312 45.208 124.236 45.1143C124.16 45.0205 124.002 44.877 123.762 44.6836C123.521 44.4844 123.401 44.3496 123.401 44.2793C123.401 44.1797 123.445 44.1299 123.533 44.1299C123.885 44.124 124.184 44.0391 124.43 43.875C125.221 43.5234 125.859 43.0869 126.346 42.5654C126.375 42.5361 126.39 42.5098 126.39 42.4863C126.39 42.4453 126.308 42.4043 126.144 42.3633C125.388 42.2578 124.884 42.082 124.632 41.8359C124.386 41.584 124.137 41.335 123.885 41.0889C123.68 40.9189 123.577 40.708 123.577 40.4561C123.577 40.3975 123.583 40.3418 123.595 40.2891C123.694 39.7617 124.031 39.1084 124.605 38.3291C125.156 37.5381 125.769 36.7939 126.442 36.0967C127.017 35.5225 127.371 35.2354 127.506 35.2354L127.567 35.2441C127.644 35.2559 127.781 35.4111 127.98 35.71C128.051 35.8037 128.142 35.8887 128.253 35.9648C128.37 36.0352 128.429 36.126 128.429 36.2373C128.429 36.3018 128.332 36.5156 128.139 36.8789C128.104 36.9375 128.06 37.0166 128.007 37.1162C127.954 37.21 127.916 37.2773 127.893 37.3184C127.869 37.3594 127.84 37.3799 127.805 37.3799C127.646 37.3506 127.562 37.2334 127.55 37.0283C127.521 37.0752 127.482 37.1104 127.436 37.1338C127.289 37.21 127.166 37.3184 127.066 37.459C126.75 37.8281 126.448 38.2031 126.161 38.584C125.81 39.0527 125.593 39.3252 125.511 39.4014C125.394 39.624 125.312 39.7705 125.265 39.8408C125.077 40.1455 124.907 40.4619 124.755 40.79C124.696 40.9131 124.667 40.9951 124.667 41.0361C124.667 41.0947 124.702 41.1357 124.772 41.1592C124.884 41.1943 125.065 41.2324 125.317 41.2734C125.61 41.3262 125.9 41.3906 126.188 41.4668C126.48 41.543 126.729 41.6924 126.935 41.915C127.116 42.1377 127.31 42.3428 127.515 42.5303C127.655 42.6416 127.726 42.7793 127.726 42.9434C127.726 43.0605 127.685 43.1807 127.603 43.3037C127.438 43.5674 127.23 43.7871 126.979 43.9629C126.861 44.1211 126.671 44.2734 126.407 44.4199C125.933 44.748 125.449 44.9854 124.957 45.1318C124.693 45.2139 124.541 45.2549 124.5 45.2549Z" fill="black"/>
<path d="M119.235 42.6357L119.692 39.0938C119.669 39.082 119.643 39.0732 119.613 39.0674C119.496 39.2607 119.438 39.4746 119.438 39.709C119.432 39.8027 119.42 39.8965 119.402 39.9902C119.279 40.6465 119.218 41.3115 119.218 41.9854C119.218 42.2021 119.224 42.4189 119.235 42.6357ZM122.742 43.1191C122.695 42.7207 122.672 42.3193 122.672 41.915L122.681 41.4053C122.681 41.1416 122.672 40.8779 122.654 40.6143C122.59 40.9072 122.558 41.2441 122.558 41.625C122.558 41.7363 122.563 41.9561 122.575 42.2842C122.587 42.6064 122.643 42.8848 122.742 43.1191ZM121.573 41.3174C121.626 41.2646 121.658 41.2207 121.67 41.1855C121.67 41.168 121.661 41.1562 121.644 41.1504C121.632 41.1445 121.626 41.1416 121.626 41.1416C121.591 41.1416 121.573 41.1797 121.573 41.2559V41.3174ZM120.308 43.3652C120.419 43.3359 120.521 43.2393 120.615 43.0752C121.002 42.5361 121.315 41.959 121.556 41.3438C121.421 41.4434 121.318 41.5723 121.248 41.7305C121.213 41.8008 121.172 41.8682 121.125 41.9326C120.908 42.249 120.703 42.5742 120.51 42.9082L120.352 43.1807C120.328 43.2158 120.316 43.2598 120.316 43.3125L120.308 43.3652ZM120.193 43.5146C120.229 43.5146 120.261 43.4766 120.29 43.4004V43.3828L120.272 43.3916C120.214 43.4092 120.182 43.4355 120.176 43.4707C120.176 43.4883 120.182 43.5029 120.193 43.5146ZM123.331 45C123.296 45 123.261 44.9854 123.226 44.9561C123.067 44.8447 122.897 44.7568 122.716 44.6924C122.599 44.6514 122.487 44.6016 122.382 44.543C122.054 44.3672 121.857 43.8223 121.793 42.9082C121.793 42.709 121.755 42.4863 121.679 42.2402C121.351 42.7324 121.113 43.0957 120.967 43.3301C120.855 43.5352 120.721 43.7109 120.562 43.8574C120.404 44.0039 120.24 44.0771 120.07 44.0771C119.941 44.0771 119.807 44.0361 119.666 43.9541C119.408 43.7959 119.142 43.6553 118.866 43.5322C118.55 43.3916 118.374 43.1338 118.339 42.7588C118.327 42.5771 118.321 42.3984 118.321 42.2227C118.321 41.8652 118.348 41.5078 118.4 41.1504C118.4 41.1211 118.403 41.0947 118.409 41.0713C118.515 40.1396 118.676 39.2227 118.893 38.3203C118.945 38.0977 119.013 37.9863 119.095 37.9863C119.177 37.9863 119.309 38.0654 119.49 38.2236C119.613 38.3467 119.754 38.4316 119.912 38.4785C120 38.4961 120.044 38.5635 120.044 38.6807L120.035 38.751C120.006 38.9268 119.988 39.1055 119.982 39.2871L119.991 39.3926C119.991 39.709 119.915 40.0107 119.763 40.2979C119.751 40.3213 119.745 40.3418 119.745 40.3594L119.754 40.5703C119.754 40.7578 119.739 40.9453 119.71 41.1328C119.681 41.3145 119.666 41.4902 119.666 41.6602C119.666 41.8711 119.681 42.0117 119.71 42.082C119.716 42.1055 119.739 42.1172 119.78 42.1172C119.81 42.1172 119.845 42.0879 119.886 42.0293C119.886 42.0176 119.889 42.0088 119.895 42.0029C120.475 41.1064 120.964 40.1514 121.362 39.1377C121.679 38.2998 121.887 37.8809 121.986 37.8809C122.051 37.8809 122.194 37.9541 122.417 38.1006C122.569 38.2061 122.728 38.2998 122.892 38.3818C123.044 38.4404 123.12 38.5605 123.12 38.7422C123.12 38.7773 123.114 38.8154 123.103 38.8564C123.032 39.2197 122.997 39.5859 122.997 39.9551C122.997 40.1074 123.003 40.2598 123.015 40.4121L123.023 40.9922V41.3438C123.023 42.2051 123.079 43.0635 123.19 43.9189C123.226 44.2061 123.296 44.4902 123.401 44.7715C123.425 44.8125 123.439 44.8477 123.445 44.877C123.445 44.9121 123.431 44.9414 123.401 44.9648C123.378 44.9883 123.354 45 123.331 45Z" fill="black"/>
<path d="M113.751 41.9678C113.856 41.8096 113.909 41.5869 113.909 41.2998C113.909 41.1709 113.921 41.0449 113.944 40.9219C114.038 40.541 114.085 40.2979 114.085 40.1924C114.085 40.1221 114.062 40.04 114.015 39.9463L114.006 39.9199C113.93 40.0898 113.865 40.3125 113.812 40.5879C113.742 40.9512 113.707 41.291 113.707 41.6074C113.707 41.7598 113.722 41.8799 113.751 41.9678ZM115.069 42.0908C115.233 41.9912 115.403 41.8096 115.579 41.5459C115.755 41.2764 115.904 40.9746 116.027 40.6406C115.799 40.8516 115.588 41.1006 115.395 41.3877C115.207 41.6748 115.099 41.9092 115.069 42.0908ZM116.467 43.9893C116.438 43.9131 116.388 43.8516 116.317 43.8047C115.896 43.541 115.477 43.2217 115.061 42.8467C114.908 42.7119 114.788 42.6445 114.7 42.6445L114.63 42.6533C114.665 42.7646 114.756 42.873 114.902 42.9785L114.938 43.0049C115.354 43.3037 115.772 43.5938 116.194 43.875C116.224 43.8926 116.25 43.9131 116.273 43.9365C116.338 43.9717 116.402 43.9893 116.467 43.9893ZM117.047 44.2793C116.865 44.1035 116.681 44.0127 116.493 44.0068L116.528 44.042C116.663 44.2002 116.812 44.2793 116.977 44.2793H117.047ZM114.437 41.2207C114.478 41.2207 114.521 41.1855 114.568 41.1152C114.633 41.0273 114.762 40.8135 114.955 40.4736C115.5 39.5947 115.857 38.9443 116.027 38.5225C116.168 38.165 116.238 37.8193 116.238 37.4854C116.238 37.1982 116.106 37.0547 115.843 37.0547C115.755 37.0547 115.644 37.0723 115.509 37.1074C115.31 37.1484 115.11 37.21 114.911 37.292C114.817 37.333 114.771 37.3857 114.771 37.4502C114.771 37.4854 114.788 37.5234 114.823 37.5645C114.882 37.6348 114.914 37.7051 114.92 37.7754C114.92 37.8516 114.911 37.9277 114.894 38.0039L114.727 38.9004C114.621 39.5918 114.472 40.2744 114.278 40.9482C114.267 40.9834 114.261 41.0156 114.261 41.0449C114.261 41.1094 114.293 41.1592 114.357 41.1943C114.387 41.2119 114.413 41.2207 114.437 41.2207ZM116.054 40.5879L116.186 40.4121C116.391 40.1953 116.52 39.9375 116.572 39.6387C116.262 39.8848 116.089 40.2012 116.054 40.5879ZM116.581 39.6123C116.804 39.4482 116.968 39.1611 117.073 38.751C117.085 38.6982 117.105 38.6279 117.135 38.54C117.199 38.376 117.231 38.2383 117.231 38.127C117.231 38.0449 117.214 37.96 117.179 37.8721C117.12 37.8896 117.091 37.9248 117.091 37.9775C117.032 38.4287 116.897 38.8594 116.687 39.2695C116.681 39.2695 116.678 39.2725 116.678 39.2783C116.613 39.3838 116.581 39.4951 116.581 39.6123ZM117.82 45.3516C117.715 45.3516 117.609 45.3369 117.504 45.3076C116.783 45.0967 116.115 44.7803 115.5 44.3584C115.266 44.2061 115.034 44.0479 114.806 43.8838C114.513 43.667 114.34 43.5586 114.287 43.5586C114.217 43.5586 114.179 43.6318 114.173 43.7783V43.9277L114.182 44.2441C114.199 44.4551 114.208 44.584 114.208 44.6309C114.208 44.666 114.202 44.71 114.19 44.7627C114.179 44.8096 114.12 44.833 114.015 44.833C113.927 44.833 113.868 44.7979 113.839 44.7275C113.786 44.5986 113.754 44.3203 113.742 43.8926V43.8135C113.742 43.6143 113.701 43.4209 113.619 43.2334C113.596 43.3623 113.584 43.4912 113.584 43.6201C113.584 43.7432 113.596 43.8691 113.619 43.998C113.643 44.168 113.654 44.3145 113.654 44.4375C113.654 44.5664 113.631 44.6543 113.584 44.7012C113.543 44.748 113.467 44.7715 113.355 44.7715C113.098 44.7715 112.916 44.7217 112.811 44.6221C112.641 44.4697 112.556 43.998 112.556 43.207C112.556 42.75 112.594 42.208 112.67 41.5811L112.696 41.3789C112.819 40.2246 113.042 39.0908 113.364 37.9775C113.388 37.9131 113.399 37.8574 113.399 37.8105C113.399 37.7168 113.35 37.6436 113.25 37.5908C113.156 37.5322 113.109 37.4736 113.109 37.415C113.109 37.3506 113.15 37.2773 113.232 37.1953C113.414 37.0312 113.622 36.9082 113.856 36.8262C114.425 36.5918 114.885 36.4746 115.236 36.4746C115.582 36.4746 116.124 36.624 116.862 36.9229C117.149 37.0518 117.352 37.2598 117.469 37.5469C117.533 37.6992 117.565 37.8604 117.565 38.0303C117.565 38.3291 117.437 38.7363 117.179 39.252C117.097 39.4102 117.035 39.5771 116.994 39.7529C116.988 39.8115 116.968 39.8643 116.933 39.9111C116.769 40.1162 116.628 40.333 116.511 40.5615C116.452 40.6729 116.391 40.7812 116.326 40.8867C116.057 41.291 115.808 41.6982 115.579 42.1084L115.465 42.2666C115.342 42.3896 115.28 42.501 115.28 42.6006C115.28 42.6064 115.28 42.6299 115.28 42.6709C115.286 42.7061 115.348 42.7646 115.465 42.8467C116.244 43.4326 117.073 43.9424 117.952 44.376C118.099 44.4521 118.245 44.4902 118.392 44.4902C118.521 44.4902 118.649 44.4639 118.778 44.4111C118.866 44.3643 118.96 44.3262 119.06 44.2969L119.218 44.2354C119.241 44.2236 119.268 44.2148 119.297 44.209C119.32 44.209 119.344 44.2207 119.367 44.2441C119.391 44.2676 119.402 44.2939 119.402 44.3232C119.402 44.3525 119.396 44.3789 119.385 44.4023C119.344 44.584 119.241 44.7158 119.077 44.7979L118.33 45.2197C118.166 45.3076 117.996 45.3516 117.82 45.3516Z" fill="black"/>
<path d="M103.872 43.4355C104.03 42.1465 104.303 40.8428 104.689 39.5244C104.754 39.2783 104.833 38.9443 104.927 38.5225C104.985 38.2998 105.015 38.1621 105.015 38.1094C105.015 38.0391 104.982 37.9805 104.918 37.9336C104.836 37.9863 104.795 38.0742 104.795 38.1973C104.795 38.4316 104.754 38.666 104.672 38.9004C104.566 39.1699 104.487 39.4717 104.435 39.8057C104.353 40.2217 104.265 40.6084 104.171 40.9658C104.042 41.499 103.928 42.041 103.828 42.5918C103.805 42.709 103.793 42.8262 103.793 42.9434C103.793 43.1133 103.819 43.2773 103.872 43.4355ZM106.852 42.082C107.074 41.9238 107.306 41.6396 107.546 41.2295C107.792 40.8193 108 40.3887 108.17 39.9375C108.322 39.5273 108.398 39.1729 108.398 38.874C108.281 39.3369 108.117 39.7793 107.906 40.2012C107.695 40.6172 107.467 41.0303 107.221 41.4404C107.092 41.6514 106.969 41.8652 106.852 42.082ZM106.5 42.6621C106.506 42.6621 106.518 42.6533 106.535 42.6357C106.553 42.6123 106.562 42.5947 106.562 42.583C106.556 42.5771 106.544 42.5742 106.526 42.5742C106.491 42.5918 106.474 42.6094 106.474 42.627C106.474 42.6504 106.482 42.6621 106.5 42.6621ZM104.593 44.9209L104.61 44.9121C104.944 44.7539 105.422 44.2383 106.043 43.3652C106.084 43.3242 106.104 43.2832 106.104 43.2422C106.104 43.2246 106.096 43.1982 106.078 43.1631C105.832 43.415 105.598 43.6758 105.375 43.9453C105.229 44.1387 105.062 44.332 104.874 44.5254C104.745 44.6484 104.651 44.7803 104.593 44.9209ZM104.47 45.123C104.517 45.0996 104.555 45.041 104.584 44.9473C104.572 44.9473 104.555 44.9531 104.531 44.9648C104.514 44.9766 104.496 44.9912 104.479 45.0088C104.467 45.0264 104.461 45.0469 104.461 45.0703L104.47 45.123ZM103.986 46.0283H103.951C103.893 46.0283 103.834 46.0078 103.775 45.9668C103.611 45.8555 103.438 45.7588 103.257 45.6768C103.116 45.6123 102.981 45.542 102.853 45.4658C102.694 45.3662 102.615 45.2637 102.615 45.1582C102.615 45.1113 102.627 45.0557 102.65 44.9912C102.727 44.7568 102.847 44.5488 103.011 44.3672C103.075 44.2793 103.146 44.2354 103.222 44.2354C103.274 44.2354 103.33 44.2559 103.389 44.2969C103.477 44.3555 103.553 44.3848 103.617 44.3848C103.652 44.3848 103.688 44.373 103.723 44.3496C103.881 44.25 104.001 44.1182 104.083 43.9541L104.092 43.9102C104.092 43.8809 104.077 43.8486 104.048 43.8135C104.024 43.7783 103.919 43.7432 103.731 43.708C103.403 43.6553 103.184 43.5498 103.072 43.3916C103.002 43.292 102.967 43.1602 102.967 42.9961C103.025 42.1172 103.283 40.9219 103.74 39.4102C103.852 39.0234 103.963 38.6338 104.074 38.2412C104.133 38.0068 104.168 37.7666 104.18 37.5205C104.186 37.3389 104.244 37.248 104.355 37.248C104.414 37.248 104.487 37.2744 104.575 37.3271C104.78 37.415 104.927 37.4941 105.015 37.5645C105.108 37.6289 105.167 37.7139 105.19 37.8193C105.196 37.8896 105.199 38.0332 105.199 38.25C105.199 38.4082 105.19 38.5078 105.173 38.5488C105.044 38.9297 104.959 39.3164 104.918 39.709C104.877 40.0957 104.798 40.4766 104.681 40.8516C104.628 41.0098 104.59 41.1709 104.566 41.335C104.543 41.499 104.511 41.6543 104.47 41.8008C104.399 42.0293 104.355 42.2607 104.338 42.4951C104.32 42.6885 104.288 42.8818 104.241 43.0752C104.229 43.1279 104.224 43.1836 104.224 43.2422C104.224 43.3301 104.235 43.415 104.259 43.4971C104.282 43.5791 104.314 43.6201 104.355 43.6201C104.426 43.6201 104.646 43.3857 105.015 42.917C105.765 41.9912 106.427 41.0098 107.001 39.9727C107.358 39.3457 107.549 38.7422 107.572 38.1621C107.572 37.7754 107.458 37.418 107.229 37.0898C107.165 36.9902 107.068 36.9258 106.939 36.8965C106.512 36.7969 106.09 36.7471 105.674 36.7471C105.58 36.7471 105.381 36.7588 105.076 36.7822C104.771 36.7998 104.373 36.9229 103.881 37.1514C103.723 37.21 103.617 37.2744 103.564 37.3447C103.518 37.415 103.479 37.5381 103.45 37.7139C103.222 37.626 103.002 37.5293 102.791 37.4238C102.633 37.3301 102.554 37.2217 102.554 37.0986C102.554 37.0049 102.598 36.9053 102.686 36.7998C102.773 36.7002 102.882 36.624 103.011 36.5713C103.72 36.2373 104.399 36.0703 105.05 36.0703C105.483 36.0703 105.92 36.1436 106.359 36.29C107.004 36.5186 107.59 36.8555 108.117 37.3008C108.586 37.6934 108.82 38.1973 108.82 38.8125C108.82 39.0762 108.768 39.3428 108.662 39.6123C108.645 39.6885 108.627 39.7646 108.609 39.8408C108.586 40.0107 108.513 40.2012 108.39 40.4121C108.296 40.5586 108.229 40.7168 108.188 40.8867C108.064 40.9688 107.971 41.0684 107.906 41.1855C107.848 41.3027 107.795 41.4258 107.748 41.5547C107.707 41.6777 107.654 41.7979 107.59 41.915C107.162 42.6416 106.667 43.333 106.104 43.9893C105.671 44.54 105.193 45.0352 104.672 45.4746C104.443 45.6387 104.273 45.7881 104.162 45.9229C104.121 45.9814 104.062 46.0166 103.986 46.0283Z" fill="black"/>
<path d="M100.356 44.0244C100.55 44.001 100.761 43.9453 100.989 43.8574C101.224 43.7637 101.411 43.667 101.552 43.5674C101.095 43.626 100.696 43.7783 100.356 44.0244ZM98.1855 45.5537C98.3379 45.4775 98.499 45.3574 98.6689 45.1934C98.8447 45.0293 98.9678 44.874 99.0381 44.7275C98.7686 44.9033 98.5752 45.0439 98.458 45.1494C98.3408 45.2549 98.25 45.3896 98.1855 45.5537ZM97.8955 46.0898C98.042 45.9492 98.1328 45.7793 98.168 45.5801C97.9805 45.6738 97.8867 45.8174 97.8867 46.0107L97.8955 46.0898ZM98.6602 43.6904C98.7422 43.6084 98.7949 43.5205 98.8184 43.4268C98.8418 43.333 98.8594 43.2275 98.8711 43.1104C99.0234 41.9209 99.4688 40.2773 100.207 38.1797C100.213 38.1562 100.222 38.1357 100.233 38.1182C100.263 38.0537 100.277 37.9893 100.277 37.9248C100.277 37.8838 100.263 37.8398 100.233 37.793L100.181 37.7842C100.128 37.7842 100.096 37.8135 100.084 37.8721C99.9258 38.4111 99.7588 38.9473 99.583 39.4805C99.3779 40.1191 99.1846 40.7607 99.0029 41.4053C98.8213 42.0439 98.6807 42.6943 98.5811 43.3564L98.5723 43.4531C98.5723 43.541 98.6016 43.6201 98.6602 43.6904ZM100.066 44.2266C100.119 44.2266 100.163 44.2119 100.198 44.1826C100.251 44.1357 100.292 44.0859 100.321 44.0332L100.26 44.0508C100.137 44.0508 100.046 44.1064 99.9873 44.2178L100.066 44.2266ZM98.2559 46.9775C98.209 46.9775 98.1709 46.9629 98.1416 46.9336C97.7314 46.5645 97.4502 46.3096 97.2979 46.1689C97.1396 46.0342 97.0605 45.876 97.0605 45.6943C97.0605 45.5947 97.0869 45.4893 97.1396 45.3779C97.3037 45.0205 97.5352 44.7158 97.834 44.4639C97.834 44.458 97.8369 44.4551 97.8428 44.4551C97.9482 44.3613 98.001 44.2852 98.001 44.2266C98.001 44.1738 97.9512 44.1094 97.8516 44.0332C97.7461 43.957 97.6934 43.8223 97.6934 43.6289L97.7021 43.4004C97.8252 42.1055 98.2178 40.5732 98.8799 38.8037C99.0674 38.2822 99.2432 37.7607 99.4072 37.2393C99.4658 37.04 99.5303 36.8379 99.6006 36.6328C99.6826 36.3574 99.7764 36.2197 99.8818 36.2197C99.9639 36.2197 100.09 36.2725 100.26 36.3779C100.371 36.4424 100.485 36.501 100.603 36.5537C100.784 36.6299 100.875 36.7295 100.875 36.8525C100.875 36.8994 100.866 36.9551 100.849 37.0195C100.837 37.0781 100.825 37.1426 100.813 37.2129C100.784 37.4414 100.726 37.6641 100.638 37.8809C100.515 38.1738 100.418 38.4727 100.348 38.7773C100.283 39.041 100.204 39.2988 100.11 39.5508C99.9639 39.8789 99.8496 40.1982 99.7676 40.5088C99.6855 40.8779 99.5859 41.2383 99.4688 41.5898C99.293 42.1289 99.1992 42.5098 99.1875 42.7324V42.7764C99.1875 42.9111 99.1611 43.0518 99.1084 43.1982C99.0908 43.2393 99.082 43.2744 99.082 43.3037C99.082 43.3564 99.1025 43.4004 99.1436 43.4355C99.1846 43.4648 99.2314 43.4795 99.2842 43.4795C99.3252 43.4795 99.3721 43.4707 99.4248 43.4531C99.8936 43.2598 100.368 43.0957 100.849 42.9609C101.019 42.9082 101.18 42.8818 101.332 42.8818C101.42 42.8818 101.54 42.8994 101.692 42.9346C101.845 42.9639 102.003 43.1016 102.167 43.3477C102.22 43.4121 102.284 43.4707 102.36 43.5234C102.483 43.6055 102.545 43.6846 102.545 43.7607V43.7871C102.516 43.8516 102.457 43.8838 102.369 43.8838C101.367 43.9307 100.477 44.2676 99.6973 44.8945C99.2637 45.1992 98.8828 45.5244 98.5547 45.8701C98.3086 46.1162 98.1855 46.3359 98.1855 46.5293C98.1855 46.6523 98.2412 46.7871 98.3525 46.9336C98.3174 46.9629 98.2852 46.9775 98.2559 46.9775Z" fill="black"/>
<path d="M94.9248 41.5898C94.8604 41.5898 94.8223 41.5078 94.8105 41.3438L94.8193 41.2734C94.8193 41.2031 94.8076 41.1475 94.7842 41.1064L94.7402 41.0361L94.6523 41.1768C94.5879 41.3232 94.5322 41.4141 94.4854 41.4492C94.4561 41.4668 94.4209 41.4756 94.3799 41.4756C94.3447 41.4756 94.3066 41.4697 94.2656 41.458C94.0312 41.3994 93.9141 41.2734 93.9141 41.0801C93.9199 41.0039 93.9316 40.916 93.9492 40.8164C93.9551 40.8105 93.958 40.8018 93.958 40.79C94.0049 40.5615 94.0723 40.4473 94.1602 40.4473C94.2246 40.4473 94.3271 40.5059 94.4678 40.623C94.6553 40.7637 94.8018 40.8545 94.9072 40.8955C95.0186 40.9307 95.0742 40.9863 95.0742 41.0625C95.0742 41.3027 95.0391 41.4697 94.9688 41.5635C94.9512 41.5811 94.9365 41.5898 94.9248 41.5898ZM97.1572 41.2998L97.1484 41.2822V41.2998H97.1572ZM93.6064 43.2598C93.6592 43.2598 93.7295 43.2422 93.8174 43.207L93.8525 43.1982C93.8877 43.1865 93.9229 43.1689 93.958 43.1455C94.8252 42.6592 95.4785 41.9736 95.918 41.0889C96.0645 40.7959 96.1377 40.5146 96.1377 40.2451C96.1377 40.0225 96.082 39.7969 95.9707 39.5684L95.9355 39.5068C95.8652 39.3604 95.7803 39.2344 95.6807 39.1289C95.5986 39.0469 95.4844 39.0059 95.3379 39.0059L95.2148 39.0146C95.1855 39.0146 95.1328 38.9971 95.0566 38.9619C94.9043 38.8916 94.79 38.8564 94.7139 38.8564C94.6963 38.8564 94.6641 38.8623 94.6172 38.874C94.5762 38.8857 94.5059 38.9648 94.4062 39.1113C93.9375 39.7441 93.627 40.4473 93.4746 41.2207L93.4658 41.2559C93.3838 41.5898 93.3428 41.9297 93.3428 42.2754L93.3604 42.4951C93.3721 42.6592 93.3896 42.8291 93.4131 43.0049C93.4365 43.1748 93.501 43.2598 93.6064 43.2598ZM92.877 42.2139C92.9062 42.1436 92.9238 42.0703 92.9297 41.9941C92.9824 41.1445 93.1875 40.3359 93.5449 39.5684L93.6504 39.3311C93.5391 39.3955 93.457 39.4863 93.4043 39.6035C93.123 40.1602 92.9326 40.7432 92.833 41.3525C92.8154 41.4639 92.8066 41.5752 92.8066 41.6865C92.8066 41.8623 92.8301 42.0381 92.877 42.2139ZM93.6592 39.3311L93.668 39.3135H93.6592C93.6592 39.3252 93.6562 39.3311 93.6504 39.3311H93.6592ZM93.6768 39.3047C93.8525 39.1523 93.9551 38.9912 93.9844 38.8213C93.7734 38.9443 93.668 39.0996 93.668 39.2871L93.6768 39.3047ZM95.7334 43.3037C95.751 43.292 95.7715 43.2832 95.7949 43.2773C95.8184 43.2715 95.8389 43.2627 95.8564 43.251C96.4072 42.7998 96.8203 42.249 97.0957 41.5986C97.1191 41.5342 97.1338 41.4639 97.1396 41.3877C97.1396 41.3584 97.1426 41.332 97.1484 41.3086L97.1133 41.3262C97.0723 41.3379 97.0459 41.3584 97.0342 41.3877C96.7646 42.0146 96.375 42.5508 95.8652 42.9961C95.7715 43.0781 95.7246 43.1543 95.7246 43.2246L95.7334 43.3037ZM97.1484 41.2822C97.2363 41.1885 97.2803 41.0742 97.2803 40.9395C97.2803 40.8574 97.2627 40.7637 97.2275 40.6582C97.1631 40.8281 97.1309 40.9805 97.1309 41.1152C97.1309 41.1738 97.1367 41.2295 97.1484 41.2822ZM94.582 44.042C94.2363 44.042 93.9111 44.0244 93.6064 43.9893C93.5947 43.9658 93.5244 43.9219 93.3955 43.8574C93.0908 43.7051 92.9033 43.6143 92.833 43.585C92.1709 43.3154 91.8281 42.8115 91.8047 42.0732L91.7959 41.7393C91.7959 40.415 92.2529 39.2461 93.167 38.2324C93.249 38.1504 93.3398 38.0742 93.4395 38.0039C93.668 37.8223 93.8584 37.7285 94.0107 37.7227C94.1631 37.7227 94.3652 37.7988 94.6172 37.9512C94.8516 38.0801 95.0801 38.2207 95.3027 38.373C95.6133 38.5957 95.9443 38.792 96.2959 38.9619C96.7002 39.1494 97.0518 39.4189 97.3506 39.7705C97.626 40.0986 97.7637 40.4707 97.7637 40.8867C97.7637 41.5664 97.5381 42.1465 97.0869 42.627L97.1045 42.583C97.1045 42.5713 97.1016 42.5596 97.0957 42.5479C97.0898 42.5361 97.0811 42.5303 97.0693 42.5303C97.0107 42.542 96.9668 42.5713 96.9375 42.6182C96.9082 42.6592 96.876 42.7412 96.8408 42.8643L96.9814 42.7764C96.8232 42.9873 96.6504 43.1836 96.4629 43.3652C96.3105 43.5176 96.2344 43.5996 96.2344 43.6113C95.9355 43.8984 95.3848 44.042 94.582 44.042Z" fill="black"/>
<path d="M90.1699 41.625C90.1934 41.625 90.208 41.6074 90.2139 41.5723C90.2021 41.5605 90.1963 41.5518 90.1963 41.5459C90.1963 41.5342 90.1934 41.5283 90.1875 41.5283C90.1641 41.5283 90.1523 41.5547 90.1523 41.6074C90.1523 41.6191 90.1582 41.625 90.1699 41.625ZM89.7568 43.9541C89.7744 43.9541 89.7832 43.9395 89.7832 43.9102L89.792 43.8926L89.7744 43.8662C89.751 43.8662 89.7393 43.8809 89.7393 43.9102C89.7393 43.9395 89.7451 43.9541 89.7568 43.9541ZM89.5723 44.7539L89.6602 44.2617C89.5957 44.3789 89.5635 44.5049 89.5635 44.6396L89.5723 44.7539ZM89.0361 45.7119C89.0537 45.6885 89.0859 45.5244 89.1328 45.2197C89.1797 44.8857 89.2441 44.5576 89.3262 44.2354C89.3262 44.1826 89.3086 44.1562 89.2734 44.1562C89.2148 44.2207 89.1768 44.2998 89.1592 44.3936L89.1152 44.6045C89.0215 44.915 88.9746 45.249 88.9746 45.6064C88.9746 45.6768 88.9951 45.7119 89.0361 45.7119ZM86.2324 41.9941L86.2412 41.9854V41.915C86.2354 41.9268 86.2324 41.9531 86.2324 41.9941ZM86.2412 41.8887L86.3027 41.8184L86.2939 41.8008C86.2822 41.8008 86.2734 41.8096 86.2676 41.8271C86.2617 41.8447 86.2529 41.8652 86.2412 41.8887ZM85.4854 43.6816C85.5029 43.6699 85.5176 43.6436 85.5293 43.6025L85.5557 43.3389C85.7256 42.5068 85.9688 41.707 86.2852 40.9395C86.3086 40.875 86.3379 40.8105 86.373 40.7461C86.4141 40.6758 86.4492 40.5996 86.4785 40.5176C86.6309 40.1426 86.8125 39.7881 87.0234 39.4541L87.8848 38.0742C88.377 37.2891 88.7285 36.791 88.9395 36.5801C88.9512 36.5684 88.957 36.5537 88.957 36.5361C88.957 36.5068 88.9482 36.4922 88.9307 36.4922L88.9043 36.501C88.7109 36.6357 88.5469 36.8027 88.4121 37.002C88.3301 37.1133 88.084 37.4912 87.6738 38.1357C87.3867 38.6045 87.1846 38.9238 87.0674 39.0938C86.9736 39.2227 86.8359 39.4805 86.6543 39.8672C86.543 40.1074 86.4229 40.3418 86.2939 40.5703C86.2646 40.623 86.2412 40.6787 86.2236 40.7373C86.1709 40.9307 86.1064 41.1211 86.0303 41.3086C85.8252 41.7949 85.6523 42.3281 85.5117 42.9082C85.459 43.0664 85.4326 43.2979 85.4326 43.6025C85.4326 43.6553 85.4502 43.6816 85.4854 43.6816ZM89.4756 46.5205L89.4404 46.5117C89.2646 46.4004 89.083 46.3066 88.8955 46.2305C88.7666 46.1719 88.6406 46.1104 88.5176 46.0459C88.2656 45.9053 88.1338 45.6768 88.1221 45.3604V44.9561C88.1221 44.7861 88.0928 44.7012 88.0342 44.7012C87.9873 44.7012 87.7236 44.8037 87.2432 45.0088C86.9854 45.1143 86.7217 45.167 86.4521 45.167C86.2529 45.167 86.0859 45.1113 85.9512 45C85.6875 44.7832 85.4062 44.5811 85.1074 44.3936C84.7793 44.1709 84.6152 43.8486 84.6152 43.4268C84.6152 43.1455 84.6328 42.9111 84.668 42.7236C84.9141 41.5166 85.3213 40.3916 85.8896 39.3486C85.9775 39.1904 86.1182 38.9473 86.3115 38.6191C86.8154 37.752 87.1553 37.1982 87.3311 36.958C87.6299 36.5303 87.9697 36.1582 88.3506 35.8418C88.7725 35.502 89.168 35.332 89.5371 35.332C89.7891 35.332 90.0117 35.4023 90.2051 35.543C90.5098 35.7832 90.6973 35.9238 90.7676 35.9648C90.9023 36.0527 90.9697 36.1816 90.9697 36.3516C90.9697 36.498 90.9404 36.5713 90.8818 36.5713C90.8701 36.5713 90.8555 36.5625 90.8379 36.5449C90.7734 36.4688 90.6973 36.4277 90.6094 36.4219C90.4863 36.4102 90.375 36.3633 90.2754 36.2812C90.2227 36.2402 90.167 36.2197 90.1084 36.2197C90.0674 36.2197 90.0234 36.2314 89.9766 36.2549C89.7363 36.3721 89.5195 36.5361 89.3262 36.7471C89.1328 36.958 88.749 37.5029 88.1748 38.3818C87.835 38.8975 87.6504 39.1846 87.6211 39.2432C87.3457 39.7588 87.1787 40.0635 87.1201 40.1572C86.8975 40.5381 86.7598 40.8311 86.707 41.0361C86.1855 42.2666 85.9072 43.2422 85.8721 43.9629C85.8721 44.0332 85.9072 44.0684 85.9775 44.0684C86.0068 44.0684 86.0332 44.0654 86.0566 44.0596C86.0859 44.0479 86.1182 44.0391 86.1533 44.0332C86.8037 43.8223 87.5625 43.4443 88.4297 42.8994C88.5469 42.835 88.6348 42.7295 88.6934 42.583C88.8516 42.0908 89.0391 41.6133 89.2559 41.1504C89.2734 41.1152 89.2822 41.0859 89.2822 41.0625C89.2822 41.0156 89.2559 40.9922 89.2031 40.9922C89.1855 40.9922 89.1621 40.9951 89.1328 41.001C89.1094 41.0068 89.0771 41.0098 89.0361 41.0098C88.9014 41.0098 88.7725 40.957 88.6494 40.8516C88.5498 40.7754 88.3857 40.667 88.1572 40.5264C88.0693 40.4736 88.0254 40.415 88.0254 40.3506C88.0254 40.292 88.043 40.2627 88.0781 40.2627L88.1484 40.2715C88.2422 40.2715 88.3477 40.2305 88.4648 40.1484C88.875 39.9434 89.2646 39.7822 89.6338 39.665C89.9209 39.5947 90.1758 39.4805 90.3984 39.3223C90.4277 39.2988 90.457 39.2871 90.4863 39.2871C90.5684 39.2871 90.6621 39.3545 90.7676 39.4893C90.7676 39.4951 90.7705 39.498 90.7764 39.498C90.8936 39.6738 91.0107 39.7793 91.1279 39.8145C91.1865 39.8379 91.2158 39.8848 91.2158 39.9551C91.2158 40.0195 91.1924 40.0781 91.1455 40.1309C91.0986 40.1777 91.0752 40.2158 91.0752 40.2451C91.0752 40.2744 91.0898 40.3066 91.1191 40.3418C91.1602 40.4121 91.1807 40.4766 91.1807 40.5352C91.1748 40.5996 91.0723 40.8486 90.873 41.2822C90.6504 41.7568 90.5391 42.0527 90.5391 42.1699C90.5391 42.2871 90.5098 42.4277 90.4512 42.5918L90.5039 42.6006C90.5449 42.6006 90.5859 42.5771 90.627 42.5303C90.668 42.4834 90.7178 42.46 90.7764 42.46C90.8467 42.46 90.8877 42.5215 90.8994 42.6445C90.8994 42.75 90.8291 42.8613 90.6885 42.9785L90.1963 43.374C90.0732 43.4678 89.9854 43.5996 89.9326 43.7695C89.7334 44.4609 89.6133 44.8066 89.5723 44.8066L89.5898 44.7715L89.5723 44.7627C89.5078 44.8096 89.4756 44.8652 89.4756 44.9297C89.4756 44.959 89.4814 44.9912 89.4932 45.0264C89.5166 45.0967 89.5283 45.167 89.5283 45.2373C89.5283 45.29 89.5225 45.3486 89.5107 45.4131C89.4873 45.6123 89.4756 45.8027 89.4756 45.9844C89.4756 46.1074 89.5049 46.2217 89.5635 46.3271C89.5752 46.3506 89.5811 46.3711 89.5811 46.3887C89.5811 46.3945 89.5781 46.4062 89.5723 46.4238C89.5664 46.4414 89.5518 46.4619 89.5283 46.4854C89.5107 46.5088 89.4932 46.5205 89.4756 46.5205Z" fill="black"/>
<defs>
<filter id="filter0_f_9947_7677" x="-86" y="-88" width="226" height="226" filterUnits="userSpaceOnUse" color-interpolation-filters="sRGB">
<feFlood flood-opacity="0" result="BackgroundImageFix"/>
<feBlend mode="normal" in="SourceGraphic" in2="BackgroundImageFix" result="shape"/>
<feGaussianBlur stdDeviation="50" result="effect1_foregroundBlur_9947_7677"/>
</filter>
<linearGradient id="paint0_linear_9947_7677" x1="14" y1="25" x2="40" y2="25" gradientUnits="userSpaceOnUse">
<stop stop-color="#FDF621"/>
<stop offset="0.595" stop-color="#FDFCC3"/>
<stop offset="1" stop-color="#FDF973"/>
</linearGradient>
<linearGradient id="paint1_linear_9947_7677" x1="14.8682" y1="24.9995" x2="39.1348" y2="24.9995" gradientUnits="userSpaceOnUse">
<stop stop-color="#FDF621"/>
<stop offset="0.595" stop-color="#FDFCC3"/>
<stop offset="1" stop-color="#FDF973"/>
</linearGradient>
</defs>
</svg>
