<svg width="236" height="146" viewBox="0 0 236 146" fill="none" xmlns="http://www.w3.org/2000/svg">
<path d="M132 30.6129H110.917L103 38.3548L99.9224 54.2391C99.4441 56.7076 101.335 59 103.849 59H220.917L232 50.7419L235.214 31.6645C235.625 29.2243 233.744 27 231.27 27H136.75L132 30.6129Z" fill="#FCFC02"/>
<g opacity="0.6" filter="url(#filter0_f_9613_32817)">
<circle cx="113" cy="33" r="13" fill="url(#paint0_linear_9613_32817)"/>
</g>
<circle cx="113.001" cy="32.9995" r="12.6333" fill="url(#paint1_linear_9613_32817)" stroke="black"/>
<path d="M106.455 30.4778L103.881 36.2684L112.551 39.3612M106.455 30.4778L114.922 26.4639L119.799 27.0561M106.455 30.4778L111.603 31.6623M112.551 39.3612L122.306 31.6623L119.799 27.0561M112.551 39.3612L111.603 31.6623M119.799 27.0561L111.603 31.6623" stroke="black"/>
<path fill-rule="evenodd" clip-rule="evenodd" d="M139.101 38.3851C138.867 38.4435 138.618 38.3597 138.489 38.1555C138.397 38.0037 138.317 37.846 138.249 37.6825C137.497 38.234 137.104 38.7049 137.222 38.9937C137.496 39.6634 140.417 39.101 143.746 37.7375C147.075 36.3739 149.551 34.7256 149.277 34.0558C149.158 33.7672 148.549 33.7074 147.627 33.8419C147.652 33.9414 147.674 34.043 147.691 34.1466C147.751 34.5051 147.561 34.8508 147.251 35.0402C146.553 35.4664 145.777 35.8852 144.939 36.2844C144.791 36.3553 144.624 36.1857 144.673 36.0285C144.772 35.7089 144.821 35.3728 144.821 35.0204C144.821 34.8576 144.805 34.7055 144.772 34.5639C144.131 34.7754 143.451 35.0261 142.753 35.312C142.094 35.5817 141.469 35.8624 140.893 36.1446C140.911 36.4058 140.975 36.6417 141.083 36.8523C141.223 37.1063 141.415 37.3031 141.661 37.4424C141.734 37.4822 141.731 37.598 141.653 37.625C140.78 37.9265 139.924 38.1801 139.101 38.3851ZM142.563 34.8493C141.984 35.0864 141.43 35.3325 140.909 35.5814C140.932 35.3744 140.974 35.175 141.034 34.9835C141.133 34.6638 141.28 34.381 141.477 34.1351C141.674 33.8892 141.911 33.6966 142.19 33.5573C142.469 33.4179 142.784 33.3483 143.137 33.3483C143.489 33.3483 143.788 33.4179 144.034 33.5573C144.272 33.6876 144.456 33.8681 144.586 34.0989C143.94 34.3125 143.259 34.5641 142.563 34.8493ZM147.206 32.8565C147.307 33.0173 147.394 33.1853 147.467 33.3603C147.911 33.2913 148.309 33.2604 148.637 33.2785C148.848 33.2902 149.059 33.3234 149.243 33.3988C149.429 33.4747 149.636 33.6153 149.739 33.8663C149.842 34.1172 149.793 34.3631 149.714 34.5474C149.635 34.7305 149.508 34.9022 149.366 35.0583C149.08 35.3724 148.654 35.7102 148.14 36.0527C147.967 36.1672 147.783 36.284 147.587 36.4022C147.533 36.5857 147.469 36.7643 147.395 36.938C147.132 37.5609 146.759 38.1019 146.276 38.5609C145.792 39.0199 145.219 39.3764 144.555 39.6305C143.891 39.8764 143.165 39.9994 142.378 39.9994C141.485 39.9994 140.711 39.8354 140.055 39.5076L140.024 39.492C139.819 39.5403 139.622 39.5828 139.433 39.619C138.826 39.7359 138.285 39.7944 137.861 39.7709C137.651 39.7593 137.44 39.7261 137.255 39.6507C137.07 39.5748 136.862 39.4342 136.759 39.1832C136.657 38.9323 136.706 38.6864 136.785 38.5021C136.863 38.319 136.991 38.1473 137.132 37.9912C137.366 37.7349 137.692 37.4628 138.084 37.1853C138.002 36.8608 137.961 36.5162 137.961 36.1515C137.961 35.3892 138.092 34.6966 138.354 34.0737C138.625 33.4425 139.002 32.8975 139.485 32.4385C139.969 31.9795 140.542 31.627 141.206 31.3811C141.87 31.127 142.596 31 143.383 31C144.276 31 145.046 31.1639 145.694 31.4918C146.35 31.8196 146.854 32.2745 147.206 32.8565ZM171.096 39.9997C170.588 39.9997 170.1 39.9628 169.633 39.889C169.166 39.8153 168.74 39.7128 168.354 39.5817C167.977 39.4423 167.649 39.2907 167.371 39.1268L168.49 36.9875C168.809 37.1678 169.129 37.3195 169.449 37.4424C169.776 37.5572 170.1 37.6432 170.42 37.7006C170.748 37.758 171.071 37.7867 171.391 37.7867C171.645 37.7867 171.854 37.7662 172.018 37.7252C172.19 37.6842 172.317 37.6268 172.399 37.5531C172.489 37.4711 172.534 37.3809 172.534 37.2826C172.534 37.1514 172.461 37.0449 172.313 36.9629C172.166 36.8809 171.969 36.8072 171.723 36.7416C171.485 36.676 171.219 36.6105 170.924 36.5449C170.637 36.4711 170.346 36.381 170.051 36.2744C169.756 36.1597 169.485 36.0162 169.239 35.8441C169.002 35.672 168.809 35.4548 168.662 35.1925C168.514 34.9302 168.44 34.6105 168.44 34.2335C168.44 33.5778 168.612 33.0081 168.957 32.5245C169.309 32.0409 169.809 31.668 170.457 31.4057C171.112 31.1352 171.891 31 172.793 31C173.432 31 174.026 31.0656 174.575 31.1967C175.133 31.3197 175.612 31.5 176.014 31.7377L174.969 33.8524C174.625 33.6393 174.248 33.4794 173.838 33.3729C173.436 33.2663 173.026 33.213 172.608 33.213C172.33 33.213 172.096 33.2417 171.907 33.2991C171.719 33.3483 171.575 33.4179 171.477 33.5081C171.387 33.5983 171.342 33.6925 171.342 33.7909C171.342 33.922 171.416 34.0327 171.563 34.1228C171.711 34.2048 171.907 34.2786 172.153 34.3441C172.399 34.4015 172.666 34.4671 172.952 34.5409C173.248 34.6064 173.539 34.6925 173.825 34.799C174.12 34.8974 174.391 35.0326 174.637 35.2048C174.883 35.3687 175.079 35.5818 175.227 35.8441C175.375 36.0982 175.448 36.4137 175.448 36.7908C175.448 37.4301 175.272 37.9916 174.92 38.4752C174.567 38.9505 174.063 39.3235 173.407 39.594C172.76 39.8644 171.989 39.9997 171.096 39.9997ZM178.242 39.889C178.709 39.9628 179.197 39.9997 179.705 39.9997C180.599 39.9997 181.369 39.8644 182.017 39.594C182.672 39.3235 183.176 38.9505 183.529 38.4752C183.881 37.9916 184.057 37.4301 184.057 36.7908C184.057 36.4137 183.984 36.0982 183.836 35.8441C183.689 35.5818 183.492 35.3687 183.246 35.2048C183 35.0326 182.73 34.8974 182.435 34.799C182.148 34.6925 181.857 34.6064 181.562 34.5409C181.275 34.4671 181.008 34.4015 180.762 34.3441C180.517 34.2786 180.32 34.2048 180.172 34.1228C180.025 34.0327 179.951 33.922 179.951 33.7909C179.951 33.6925 179.996 33.5983 180.086 33.5081C180.185 33.4179 180.328 33.3483 180.517 33.2991C180.705 33.2417 180.939 33.213 181.217 33.213C181.635 33.213 182.045 33.2663 182.447 33.3729C182.857 33.4794 183.234 33.6393 183.578 33.8524L184.623 31.7377C184.221 31.5 183.742 31.3197 183.185 31.1967C182.635 31.0656 182.041 31 181.402 31C180.5 31 179.722 31.1352 179.066 31.4057C178.418 31.668 177.918 32.0409 177.566 32.5245C177.222 33.0081 177.05 33.5778 177.05 34.2335C177.05 34.6105 177.123 34.9302 177.271 35.1925C177.418 35.4548 177.611 35.672 177.849 35.8441C178.095 36.0162 178.365 36.1597 178.66 36.2744C178.955 36.381 179.246 36.4711 179.533 36.5449C179.828 36.6105 180.094 36.676 180.332 36.7416C180.578 36.8072 180.775 36.8809 180.922 36.9629C181.07 37.0449 181.144 37.1514 181.144 37.2826C181.144 37.3809 181.099 37.4711 181.008 37.5531C180.926 37.6268 180.799 37.6842 180.627 37.7252C180.463 37.7662 180.254 37.7867 180 37.7867C179.681 37.7867 179.357 37.758 179.029 37.7006C178.709 37.6432 178.386 37.5572 178.058 37.4424C177.738 37.3195 177.418 37.1678 177.099 36.9875L175.98 39.1268C176.259 39.2907 176.586 39.4423 176.963 39.5817C177.349 39.7128 177.775 39.8153 178.242 39.889ZM187.894 37.6145L188.121 36.4834H191.766L192.185 34.3933H188.54L188.742 33.3851H192.885L193.328 31.1967H186.332L184.611 39.8029H191.766L192.209 37.6145H187.894ZM195.035 39.8029L195.662 36.6437L193.51 31.1967H196.424L197.594 34.1773L199.99 31.1967H202.903L198.556 36.685L197.936 39.8029H195.035ZM161.239 36.6437L160.611 39.8029H163.513L164.132 36.685L168.48 31.1967H165.566L163.17 34.1773L162.001 31.1967H159.087L161.239 36.6437ZM149.26 39.9754L150.982 31.3692H154.867C155.776 31.3692 156.559 31.5167 157.215 31.8118C157.871 32.1068 158.375 32.5289 158.727 33.0781C159.08 33.6191 159.256 34.2666 159.256 35.0207C159.256 35.7829 159.121 36.4673 158.85 37.0739C158.588 37.6804 158.215 38.2009 157.731 38.6353C157.256 39.0697 156.69 39.4017 156.035 39.6312C155.379 39.8607 154.658 39.9754 153.871 39.9754H149.26ZM152.617 37.7132H153.969C154.486 37.7132 154.916 37.6025 155.26 37.3812C155.613 37.1517 155.879 36.8485 156.059 36.4714C156.24 36.0862 156.33 35.66 156.33 35.1928C156.33 34.8567 156.26 34.574 156.121 34.3445C155.99 34.115 155.789 33.9387 155.518 33.8158C155.256 33.6928 154.928 33.6314 154.535 33.6314H153.428L152.617 37.7132Z" fill="black"/>
<path d="M206.028 32.4598C206.27 31.5966 207.057 31 207.953 31L227.313 31C228.638 31 229.596 32.2647 229.238 33.5402L227.926 38.217C227.684 39.0802 226.897 39.6768 226.001 39.6768H206.641C205.316 39.6768 204.358 38.4121 204.716 37.1365L206.028 32.4598Z" fill="black"/>
<path d="M209.488 38L208.354 33.1H209.523L210.51 37.447H209.775L212.533 33.1H213.709L210.608 38H209.488ZM214.755 38.056C214.373 38.056 214.039 37.986 213.754 37.846C213.47 37.706 213.248 37.51 213.089 37.258C212.935 37.006 212.858 36.7097 212.858 36.369C212.858 35.949 212.956 35.5757 213.152 35.249C213.348 34.9177 213.617 34.6563 213.957 34.465C214.303 34.2737 214.695 34.178 215.133 34.178C215.521 34.178 215.854 34.248 216.134 34.388C216.419 34.528 216.638 34.724 216.792 34.976C216.951 35.2233 217.03 35.5197 217.03 35.865C217.03 36.2803 216.932 36.6537 216.736 36.985C216.54 37.3163 216.272 37.5777 215.931 37.769C215.591 37.9603 215.199 38.056 214.755 38.056ZM214.825 37.16C215.04 37.16 215.229 37.1087 215.392 37.006C215.56 36.8987 215.691 36.7517 215.784 36.565C215.878 36.3783 215.924 36.1613 215.924 35.914C215.924 35.662 215.85 35.459 215.7 35.305C215.551 35.151 215.341 35.074 215.07 35.074C214.856 35.074 214.664 35.1277 214.496 35.235C214.333 35.3377 214.202 35.4823 214.104 35.669C214.011 35.8557 213.964 36.0727 213.964 36.32C213.964 36.5767 214.039 36.782 214.188 36.936C214.338 37.0853 214.55 37.16 214.825 37.16ZM217.368 38L218.404 32.806H219.496L218.46 38H217.368ZM219.971 38.056C219.784 38.056 219.63 37.9977 219.509 37.881C219.387 37.7597 219.327 37.608 219.327 37.426C219.327 37.2067 219.397 37.0317 219.537 36.901C219.681 36.7657 219.854 36.698 220.055 36.698C220.241 36.698 220.393 36.7563 220.51 36.873C220.631 36.9897 220.692 37.1413 220.692 37.328C220.692 37.4727 220.657 37.601 220.587 37.713C220.521 37.8203 220.435 37.9043 220.328 37.965C220.22 38.0257 220.101 38.056 219.971 38.056ZM221.222 36.971L221.369 36.208L224.253 33.1H225.492L222.657 36.208L222.083 36.047H225.954L225.765 36.971H221.222ZM223.651 38L223.861 36.971L224.092 36.047L224.274 35.13H225.331L224.757 38H223.651Z" fill="white"/>
<path d="M118.919 54L120.879 44.2H126.073C127.239 44.2 128.117 44.4053 128.705 44.816C129.293 45.2173 129.587 45.7913 129.587 46.538C129.587 47.1447 129.409 47.658 129.055 48.078C128.709 48.498 128.229 48.82 127.613 49.044C127.006 49.2587 126.306 49.366 125.513 49.366L125.933 48.61C126.931 48.61 127.715 48.8107 128.285 49.212C128.863 49.604 129.153 50.1593 129.153 50.878C129.153 51.5967 128.943 52.1893 128.523 52.656C128.112 53.1133 127.561 53.454 126.871 53.678C126.18 53.8927 125.415 54 124.575 54H118.919ZM122.629 51.69H124.757C125.083 51.69 125.349 51.6153 125.555 51.466C125.769 51.3167 125.877 51.0927 125.877 50.794C125.877 50.5793 125.793 50.4207 125.625 50.318C125.466 50.206 125.279 50.15 125.065 50.15H122.713L123.147 47.966H125.051C125.303 47.966 125.508 47.9333 125.667 47.868C125.835 47.7933 125.956 47.6953 126.031 47.574C126.105 47.4433 126.143 47.2893 126.143 47.112C126.143 46.9067 126.063 46.7573 125.905 46.664C125.755 46.5613 125.545 46.51 125.275 46.51H123.665L122.629 51.69ZM129.747 54L131.707 44.2H135.011L133.569 51.438H137.993L137.475 54H129.747ZM137.46 54L143.704 44.2H146.952L149.276 54H145.986L144.404 45.726H145.692L140.946 54H137.46ZM140.344 52.292L141.66 49.912H146.168L146.532 52.292H140.344ZM153.695 54.224C153.117 54.224 152.561 54.182 152.029 54.098C151.497 54.014 151.012 53.8973 150.573 53.748C150.144 53.5893 149.771 53.4167 149.453 53.23L150.727 50.794C151.091 50.9993 151.455 51.172 151.819 51.312C152.193 51.4427 152.561 51.5407 152.925 51.606C153.299 51.6713 153.667 51.704 154.031 51.704C154.321 51.704 154.559 51.6807 154.745 51.634C154.941 51.5873 155.086 51.522 155.179 51.438C155.282 51.3447 155.333 51.242 155.333 51.13C155.333 50.9807 155.249 50.8593 155.081 50.766C154.913 50.6727 154.689 50.5887 154.409 50.514C154.139 50.4393 153.835 50.3647 153.499 50.29C153.173 50.206 152.841 50.1033 152.505 49.982C152.169 49.8513 151.861 49.688 151.581 49.492C151.311 49.296 151.091 49.0487 150.923 48.75C150.755 48.4513 150.671 48.0873 150.671 47.658C150.671 46.9113 150.867 46.2627 151.259 45.712C151.661 45.1613 152.23 44.7367 152.967 44.438C153.714 44.13 154.601 43.976 155.627 43.976C156.355 43.976 157.032 44.0507 157.657 44.2C158.292 44.34 158.838 44.5453 159.295 44.816L158.105 47.224C157.713 46.9813 157.284 46.7993 156.817 46.678C156.36 46.5567 155.893 46.496 155.417 46.496C155.1 46.496 154.834 46.5287 154.619 46.594C154.405 46.65 154.241 46.7293 154.129 46.832C154.027 46.9347 153.975 47.042 153.975 47.154C153.975 47.3033 154.059 47.4293 154.227 47.532C154.395 47.6253 154.619 47.7093 154.899 47.784C155.179 47.8493 155.483 47.924 155.809 48.008C156.145 48.0827 156.477 48.1807 156.803 48.302C157.139 48.414 157.447 48.568 157.727 48.764C158.007 48.9507 158.231 49.1933 158.399 49.492C158.567 49.7813 158.651 50.1407 158.651 50.57C158.651 51.298 158.451 51.9373 158.049 52.488C157.648 53.0293 157.074 53.454 156.327 53.762C155.59 54.07 154.713 54.224 153.695 54.224ZM160.996 54L162.438 46.762H159.568L160.086 44.2H169.13L168.612 46.762H165.742L164.3 54H160.996Z" fill="black"/>
<path d="M176.17 49.625C176.193 49.625 176.208 49.6074 176.214 49.5723C176.202 49.5605 176.196 49.5518 176.196 49.5459C176.196 49.5342 176.193 49.5283 176.188 49.5283C176.164 49.5283 176.152 49.5547 176.152 49.6074C176.152 49.6191 176.158 49.625 176.17 49.625ZM175.757 51.9541C175.774 51.9541 175.783 51.9395 175.783 51.9102L175.792 51.8926L175.774 51.8662C175.751 51.8662 175.739 51.8809 175.739 51.9102C175.739 51.9395 175.745 51.9541 175.757 51.9541ZM175.572 52.7539L175.66 52.2617C175.596 52.3789 175.563 52.5049 175.563 52.6396L175.572 52.7539ZM175.036 53.7119C175.054 53.6885 175.086 53.5244 175.133 53.2197C175.18 52.8857 175.244 52.5576 175.326 52.2354C175.326 52.1826 175.309 52.1562 175.273 52.1562C175.215 52.2207 175.177 52.2998 175.159 52.3936L175.115 52.6045C175.021 52.915 174.975 53.249 174.975 53.6064C174.975 53.6768 174.995 53.7119 175.036 53.7119ZM172.232 49.9941L172.241 49.9854V49.915C172.235 49.9268 172.232 49.9531 172.232 49.9941ZM172.241 49.8887L172.303 49.8184L172.294 49.8008C172.282 49.8008 172.273 49.8096 172.268 49.8271C172.262 49.8447 172.253 49.8652 172.241 49.8887ZM171.485 51.6816C171.503 51.6699 171.518 51.6436 171.529 51.6025L171.556 51.3389C171.726 50.5068 171.969 49.707 172.285 48.9395C172.309 48.875 172.338 48.8105 172.373 48.7461C172.414 48.6758 172.449 48.5996 172.479 48.5176C172.631 48.1426 172.812 47.7881 173.023 47.4541L173.885 46.0742C174.377 45.2891 174.729 44.791 174.939 44.5801C174.951 44.5684 174.957 44.5537 174.957 44.5361C174.957 44.5068 174.948 44.4922 174.931 44.4922L174.904 44.501C174.711 44.6357 174.547 44.8027 174.412 45.002C174.33 45.1133 174.084 45.4912 173.674 46.1357C173.387 46.6045 173.185 46.9238 173.067 47.0938C172.974 47.2227 172.836 47.4805 172.654 47.8672C172.543 48.1074 172.423 48.3418 172.294 48.5703C172.265 48.623 172.241 48.6787 172.224 48.7373C172.171 48.9307 172.106 49.1211 172.03 49.3086C171.825 49.7949 171.652 50.3281 171.512 50.9082C171.459 51.0664 171.433 51.2979 171.433 51.6025C171.433 51.6553 171.45 51.6816 171.485 51.6816ZM175.476 54.5205L175.44 54.5117C175.265 54.4004 175.083 54.3066 174.896 54.2305C174.767 54.1719 174.641 54.1104 174.518 54.0459C174.266 53.9053 174.134 53.6768 174.122 53.3604V52.9561C174.122 52.7861 174.093 52.7012 174.034 52.7012C173.987 52.7012 173.724 52.8037 173.243 53.0088C172.985 53.1143 172.722 53.167 172.452 53.167C172.253 53.167 172.086 53.1113 171.951 53C171.688 52.7832 171.406 52.5811 171.107 52.3936C170.779 52.1709 170.615 51.8486 170.615 51.4268C170.615 51.1455 170.633 50.9111 170.668 50.7236C170.914 49.5166 171.321 48.3916 171.89 47.3486C171.978 47.1904 172.118 46.9473 172.312 46.6191C172.815 45.752 173.155 45.1982 173.331 44.958C173.63 44.5303 173.97 44.1582 174.351 43.8418C174.772 43.502 175.168 43.332 175.537 43.332C175.789 43.332 176.012 43.4023 176.205 43.543C176.51 43.7832 176.697 43.9238 176.768 43.9648C176.902 44.0527 176.97 44.1816 176.97 44.3516C176.97 44.498 176.94 44.5713 176.882 44.5713C176.87 44.5713 176.855 44.5625 176.838 44.5449C176.773 44.4688 176.697 44.4277 176.609 44.4219C176.486 44.4102 176.375 44.3633 176.275 44.2812C176.223 44.2402 176.167 44.2197 176.108 44.2197C176.067 44.2197 176.023 44.2314 175.977 44.2549C175.736 44.3721 175.52 44.5361 175.326 44.7471C175.133 44.958 174.749 45.5029 174.175 46.3818C173.835 46.8975 173.65 47.1846 173.621 47.2432C173.346 47.7588 173.179 48.0635 173.12 48.1572C172.897 48.5381 172.76 48.8311 172.707 49.0361C172.186 50.2666 171.907 51.2422 171.872 51.9629C171.872 52.0332 171.907 52.0684 171.978 52.0684C172.007 52.0684 172.033 52.0654 172.057 52.0596C172.086 52.0479 172.118 52.0391 172.153 52.0332C172.804 51.8223 173.562 51.4443 174.43 50.8994C174.547 50.835 174.635 50.7295 174.693 50.583C174.852 50.0908 175.039 49.6133 175.256 49.1504C175.273 49.1152 175.282 49.0859 175.282 49.0625C175.282 49.0156 175.256 48.9922 175.203 48.9922C175.186 48.9922 175.162 48.9951 175.133 49.001C175.109 49.0068 175.077 49.0098 175.036 49.0098C174.901 49.0098 174.772 48.957 174.649 48.8516C174.55 48.7754 174.386 48.667 174.157 48.5264C174.069 48.4736 174.025 48.415 174.025 48.3506C174.025 48.292 174.043 48.2627 174.078 48.2627L174.148 48.2715C174.242 48.2715 174.348 48.2305 174.465 48.1484C174.875 47.9434 175.265 47.7822 175.634 47.665C175.921 47.5947 176.176 47.4805 176.398 47.3223C176.428 47.2988 176.457 47.2871 176.486 47.2871C176.568 47.2871 176.662 47.3545 176.768 47.4893C176.768 47.4951 176.771 47.498 176.776 47.498C176.894 47.6738 177.011 47.7793 177.128 47.8145C177.187 47.8379 177.216 47.8848 177.216 47.9551C177.216 48.0195 177.192 48.0781 177.146 48.1309C177.099 48.1777 177.075 48.2158 177.075 48.2451C177.075 48.2744 177.09 48.3066 177.119 48.3418C177.16 48.4121 177.181 48.4766 177.181 48.5352C177.175 48.5996 177.072 48.8486 176.873 49.2822C176.65 49.7568 176.539 50.0527 176.539 50.1699C176.539 50.2871 176.51 50.4277 176.451 50.5918L176.504 50.6006C176.545 50.6006 176.586 50.5771 176.627 50.5303C176.668 50.4834 176.718 50.46 176.776 50.46C176.847 50.46 176.888 50.5215 176.899 50.6445C176.899 50.75 176.829 50.8613 176.688 50.9785L176.196 51.374C176.073 51.4678 175.985 51.5996 175.933 51.7695C175.733 52.4609 175.613 52.8066 175.572 52.8066L175.59 52.7715L175.572 52.7627C175.508 52.8096 175.476 52.8652 175.476 52.9297C175.476 52.959 175.481 52.9912 175.493 53.0264C175.517 53.0967 175.528 53.167 175.528 53.2373C175.528 53.29 175.522 53.3486 175.511 53.4131C175.487 53.6123 175.476 53.8027 175.476 53.9844C175.476 54.1074 175.505 54.2217 175.563 54.3271C175.575 54.3506 175.581 54.3711 175.581 54.3887C175.581 54.3945 175.578 54.4062 175.572 54.4238C175.566 54.4414 175.552 54.4619 175.528 54.4854C175.511 54.5088 175.493 54.5205 175.476 54.5205ZM180.925 49.5898C180.86 49.5898 180.822 49.5078 180.811 49.3438L180.819 49.2734C180.819 49.2031 180.808 49.1475 180.784 49.1064L180.74 49.0361L180.652 49.1768C180.588 49.3232 180.532 49.4141 180.485 49.4492C180.456 49.4668 180.421 49.4756 180.38 49.4756C180.345 49.4756 180.307 49.4697 180.266 49.458C180.031 49.3994 179.914 49.2734 179.914 49.0801C179.92 49.0039 179.932 48.916 179.949 48.8164C179.955 48.8105 179.958 48.8018 179.958 48.79C180.005 48.5615 180.072 48.4473 180.16 48.4473C180.225 48.4473 180.327 48.5059 180.468 48.623C180.655 48.7637 180.802 48.8545 180.907 48.8955C181.019 48.9307 181.074 48.9863 181.074 49.0625C181.074 49.3027 181.039 49.4697 180.969 49.5635C180.951 49.5811 180.937 49.5898 180.925 49.5898ZM183.157 49.2998L183.148 49.2822V49.2998H183.157ZM179.606 51.2598C179.659 51.2598 179.729 51.2422 179.817 51.207L179.853 51.1982C179.888 51.1865 179.923 51.1689 179.958 51.1455C180.825 50.6592 181.479 49.9736 181.918 49.0889C182.064 48.7959 182.138 48.5146 182.138 48.2451C182.138 48.0225 182.082 47.7969 181.971 47.5684L181.936 47.5068C181.865 47.3604 181.78 47.2344 181.681 47.1289C181.599 47.0469 181.484 47.0059 181.338 47.0059L181.215 47.0146C181.186 47.0146 181.133 46.9971 181.057 46.9619C180.904 46.8916 180.79 46.8564 180.714 46.8564C180.696 46.8564 180.664 46.8623 180.617 46.874C180.576 46.8857 180.506 46.9648 180.406 47.1113C179.938 47.7441 179.627 48.4473 179.475 49.2207L179.466 49.2559C179.384 49.5898 179.343 49.9297 179.343 50.2754L179.36 50.4951C179.372 50.6592 179.39 50.8291 179.413 51.0049C179.437 51.1748 179.501 51.2598 179.606 51.2598ZM178.877 50.2139C178.906 50.1436 178.924 50.0703 178.93 49.9941C178.982 49.1445 179.188 48.3359 179.545 47.5684L179.65 47.3311C179.539 47.3955 179.457 47.4863 179.404 47.6035C179.123 48.1602 178.933 48.7432 178.833 49.3525C178.815 49.4639 178.807 49.5752 178.807 49.6865C178.807 49.8623 178.83 50.0381 178.877 50.2139ZM179.659 47.3311L179.668 47.3135H179.659C179.659 47.3252 179.656 47.3311 179.65 47.3311H179.659ZM179.677 47.3047C179.853 47.1523 179.955 46.9912 179.984 46.8213C179.773 46.9443 179.668 47.0996 179.668 47.2871L179.677 47.3047ZM181.733 51.3037C181.751 51.292 181.771 51.2832 181.795 51.2773C181.818 51.2715 181.839 51.2627 181.856 51.251C182.407 50.7998 182.82 50.249 183.096 49.5986C183.119 49.5342 183.134 49.4639 183.14 49.3877C183.14 49.3584 183.143 49.332 183.148 49.3086L183.113 49.3262C183.072 49.3379 183.046 49.3584 183.034 49.3877C182.765 50.0146 182.375 50.5508 181.865 50.9961C181.771 51.0781 181.725 51.1543 181.725 51.2246L181.733 51.3037ZM183.148 49.2822C183.236 49.1885 183.28 49.0742 183.28 48.9395C183.28 48.8574 183.263 48.7637 183.228 48.6582C183.163 48.8281 183.131 48.9805 183.131 49.1152C183.131 49.1738 183.137 49.2295 183.148 49.2822ZM180.582 52.042C180.236 52.042 179.911 52.0244 179.606 51.9893C179.595 51.9658 179.524 51.9219 179.396 51.8574C179.091 51.7051 178.903 51.6143 178.833 51.585C178.171 51.3154 177.828 50.8115 177.805 50.0732L177.796 49.7393C177.796 48.415 178.253 47.2461 179.167 46.2324C179.249 46.1504 179.34 46.0742 179.439 46.0039C179.668 45.8223 179.858 45.7285 180.011 45.7227C180.163 45.7227 180.365 45.7988 180.617 45.9512C180.852 46.0801 181.08 46.2207 181.303 46.373C181.613 46.5957 181.944 46.792 182.296 46.9619C182.7 47.1494 183.052 47.4189 183.351 47.7705C183.626 48.0986 183.764 48.4707 183.764 48.8867C183.764 49.5664 183.538 50.1465 183.087 50.627L183.104 50.583C183.104 50.5713 183.102 50.5596 183.096 50.5479C183.09 50.5361 183.081 50.5303 183.069 50.5303C183.011 50.542 182.967 50.5713 182.938 50.6182C182.908 50.6592 182.876 50.7412 182.841 50.8643L182.981 50.7764C182.823 50.9873 182.65 51.1836 182.463 51.3652C182.311 51.5176 182.234 51.5996 182.234 51.6113C181.936 51.8984 181.385 52.042 180.582 52.042ZM186.356 52.0244C186.55 52.001 186.761 51.9453 186.989 51.8574C187.224 51.7637 187.411 51.667 187.552 51.5674C187.095 51.626 186.696 51.7783 186.356 52.0244ZM184.186 53.5537C184.338 53.4775 184.499 53.3574 184.669 53.1934C184.845 53.0293 184.968 52.874 185.038 52.7275C184.769 52.9033 184.575 53.0439 184.458 53.1494C184.341 53.2549 184.25 53.3896 184.186 53.5537ZM183.896 54.0898C184.042 53.9492 184.133 53.7793 184.168 53.5801C183.98 53.6738 183.887 53.8174 183.887 54.0107L183.896 54.0898ZM184.66 51.6904C184.742 51.6084 184.795 51.5205 184.818 51.4268C184.842 51.333 184.859 51.2275 184.871 51.1104C185.023 49.9209 185.469 48.2773 186.207 46.1797C186.213 46.1562 186.222 46.1357 186.233 46.1182C186.263 46.0537 186.277 45.9893 186.277 45.9248C186.277 45.8838 186.263 45.8398 186.233 45.793L186.181 45.7842C186.128 45.7842 186.096 45.8135 186.084 45.8721C185.926 46.4111 185.759 46.9473 185.583 47.4805C185.378 48.1191 185.185 48.7607 185.003 49.4053C184.821 50.0439 184.681 50.6943 184.581 51.3564L184.572 51.4531C184.572 51.541 184.602 51.6201 184.66 51.6904ZM186.066 52.2266C186.119 52.2266 186.163 52.2119 186.198 52.1826C186.251 52.1357 186.292 52.0859 186.321 52.0332L186.26 52.0508C186.137 52.0508 186.046 52.1064 185.987 52.2178L186.066 52.2266ZM184.256 54.9775C184.209 54.9775 184.171 54.9629 184.142 54.9336C183.731 54.5645 183.45 54.3096 183.298 54.1689C183.14 54.0342 183.061 53.876 183.061 53.6943C183.061 53.5947 183.087 53.4893 183.14 53.3779C183.304 53.0205 183.535 52.7158 183.834 52.4639C183.834 52.458 183.837 52.4551 183.843 52.4551C183.948 52.3613 184.001 52.2852 184.001 52.2266C184.001 52.1738 183.951 52.1094 183.852 52.0332C183.746 51.957 183.693 51.8223 183.693 51.6289L183.702 51.4004C183.825 50.1055 184.218 48.5732 184.88 46.8037C185.067 46.2822 185.243 45.7607 185.407 45.2393C185.466 45.04 185.53 44.8379 185.601 44.6328C185.683 44.3574 185.776 44.2197 185.882 44.2197C185.964 44.2197 186.09 44.2725 186.26 44.3779C186.371 44.4424 186.485 44.501 186.603 44.5537C186.784 44.6299 186.875 44.7295 186.875 44.8525C186.875 44.8994 186.866 44.9551 186.849 45.0195C186.837 45.0781 186.825 45.1426 186.813 45.2129C186.784 45.4414 186.726 45.6641 186.638 45.8809C186.515 46.1738 186.418 46.4727 186.348 46.7773C186.283 47.041 186.204 47.2988 186.11 47.5508C185.964 47.8789 185.85 48.1982 185.768 48.5088C185.686 48.8779 185.586 49.2383 185.469 49.5898C185.293 50.1289 185.199 50.5098 185.188 50.7324V50.7764C185.188 50.9111 185.161 51.0518 185.108 51.1982C185.091 51.2393 185.082 51.2744 185.082 51.3037C185.082 51.3564 185.103 51.4004 185.144 51.4355C185.185 51.4648 185.231 51.4795 185.284 51.4795C185.325 51.4795 185.372 51.4707 185.425 51.4531C185.894 51.2598 186.368 51.0957 186.849 50.9609C187.019 50.9082 187.18 50.8818 187.332 50.8818C187.42 50.8818 187.54 50.8994 187.692 50.9346C187.845 50.9639 188.003 51.1016 188.167 51.3477C188.22 51.4121 188.284 51.4707 188.36 51.5234C188.483 51.6055 188.545 51.6846 188.545 51.7607V51.7871C188.516 51.8516 188.457 51.8838 188.369 51.8838C187.367 51.9307 186.477 52.2676 185.697 52.8945C185.264 53.1992 184.883 53.5244 184.555 53.8701C184.309 54.1162 184.186 54.3359 184.186 54.5293C184.186 54.6523 184.241 54.7871 184.353 54.9336C184.317 54.9629 184.285 54.9775 184.256 54.9775ZM189.872 51.4355C190.03 50.1465 190.303 48.8428 190.689 47.5244C190.754 47.2783 190.833 46.9443 190.927 46.5225C190.985 46.2998 191.015 46.1621 191.015 46.1094C191.015 46.0391 190.982 45.9805 190.918 45.9336C190.836 45.9863 190.795 46.0742 190.795 46.1973C190.795 46.4316 190.754 46.666 190.672 46.9004C190.566 47.1699 190.487 47.4717 190.435 47.8057C190.353 48.2217 190.265 48.6084 190.171 48.9658C190.042 49.499 189.928 50.041 189.828 50.5918C189.805 50.709 189.793 50.8262 189.793 50.9434C189.793 51.1133 189.819 51.2773 189.872 51.4355ZM192.852 50.082C193.074 49.9238 193.306 49.6396 193.546 49.2295C193.792 48.8193 194 48.3887 194.17 47.9375C194.322 47.5273 194.398 47.1729 194.398 46.874C194.281 47.3369 194.117 47.7793 193.906 48.2012C193.695 48.6172 193.467 49.0303 193.221 49.4404C193.092 49.6514 192.969 49.8652 192.852 50.082ZM192.5 50.6621C192.506 50.6621 192.518 50.6533 192.535 50.6357C192.553 50.6123 192.562 50.5947 192.562 50.583C192.556 50.5771 192.544 50.5742 192.526 50.5742C192.491 50.5918 192.474 50.6094 192.474 50.627C192.474 50.6504 192.482 50.6621 192.5 50.6621ZM190.593 52.9209L190.61 52.9121C190.944 52.7539 191.422 52.2383 192.043 51.3652C192.084 51.3242 192.104 51.2832 192.104 51.2422C192.104 51.2246 192.096 51.1982 192.078 51.1631C191.832 51.415 191.598 51.6758 191.375 51.9453C191.229 52.1387 191.062 52.332 190.874 52.5254C190.745 52.6484 190.651 52.7803 190.593 52.9209ZM190.47 53.123C190.517 53.0996 190.555 53.041 190.584 52.9473C190.572 52.9473 190.555 52.9531 190.531 52.9648C190.514 52.9766 190.496 52.9912 190.479 53.0088C190.467 53.0264 190.461 53.0469 190.461 53.0703L190.47 53.123ZM189.986 54.0283H189.951C189.893 54.0283 189.834 54.0078 189.775 53.9668C189.611 53.8555 189.438 53.7588 189.257 53.6768C189.116 53.6123 188.981 53.542 188.853 53.4658C188.694 53.3662 188.615 53.2637 188.615 53.1582C188.615 53.1113 188.627 53.0557 188.65 52.9912C188.727 52.7568 188.847 52.5488 189.011 52.3672C189.075 52.2793 189.146 52.2354 189.222 52.2354C189.274 52.2354 189.33 52.2559 189.389 52.2969C189.477 52.3555 189.553 52.3848 189.617 52.3848C189.652 52.3848 189.688 52.373 189.723 52.3496C189.881 52.25 190.001 52.1182 190.083 51.9541L190.092 51.9102C190.092 51.8809 190.077 51.8486 190.048 51.8135C190.024 51.7783 189.919 51.7432 189.731 51.708C189.403 51.6553 189.184 51.5498 189.072 51.3916C189.002 51.292 188.967 51.1602 188.967 50.9961C189.025 50.1172 189.283 48.9219 189.74 47.4102C189.852 47.0234 189.963 46.6338 190.074 46.2412C190.133 46.0068 190.168 45.7666 190.18 45.5205C190.186 45.3389 190.244 45.248 190.355 45.248C190.414 45.248 190.487 45.2744 190.575 45.3271C190.78 45.415 190.927 45.4941 191.015 45.5645C191.108 45.6289 191.167 45.7139 191.19 45.8193C191.196 45.8896 191.199 46.0332 191.199 46.25C191.199 46.4082 191.19 46.5078 191.173 46.5488C191.044 46.9297 190.959 47.3164 190.918 47.709C190.877 48.0957 190.798 48.4766 190.681 48.8516C190.628 49.0098 190.59 49.1709 190.566 49.335C190.543 49.499 190.511 49.6543 190.47 49.8008C190.399 50.0293 190.355 50.2607 190.338 50.4951C190.32 50.6885 190.288 50.8818 190.241 51.0752C190.229 51.1279 190.224 51.1836 190.224 51.2422C190.224 51.3301 190.235 51.415 190.259 51.4971C190.282 51.5791 190.314 51.6201 190.355 51.6201C190.426 51.6201 190.646 51.3857 191.015 50.917C191.765 49.9912 192.427 49.0098 193.001 47.9727C193.358 47.3457 193.549 46.7422 193.572 46.1621C193.572 45.7754 193.458 45.418 193.229 45.0898C193.165 44.9902 193.068 44.9258 192.939 44.8965C192.512 44.7969 192.09 44.7471 191.674 44.7471C191.58 44.7471 191.381 44.7588 191.076 44.7822C190.771 44.7998 190.373 44.9229 189.881 45.1514C189.723 45.21 189.617 45.2744 189.564 45.3447C189.518 45.415 189.479 45.5381 189.45 45.7139C189.222 45.626 189.002 45.5293 188.791 45.4238C188.633 45.3301 188.554 45.2217 188.554 45.0986C188.554 45.0049 188.598 44.9053 188.686 44.7998C188.773 44.7002 188.882 44.624 189.011 44.5713C189.72 44.2373 190.399 44.0703 191.05 44.0703C191.483 44.0703 191.92 44.1436 192.359 44.29C193.004 44.5186 193.59 44.8555 194.117 45.3008C194.586 45.6934 194.82 46.1973 194.82 46.8125C194.82 47.0762 194.768 47.3428 194.662 47.6123C194.645 47.6885 194.627 47.7646 194.609 47.8408C194.586 48.0107 194.513 48.2012 194.39 48.4121C194.296 48.5586 194.229 48.7168 194.188 48.8867C194.064 48.9688 193.971 49.0684 193.906 49.1855C193.848 49.3027 193.795 49.4258 193.748 49.5547C193.707 49.6777 193.654 49.7979 193.59 49.915C193.162 50.6416 192.667 51.333 192.104 51.9893C191.671 52.54 191.193 53.0352 190.672 53.4746C190.443 53.6387 190.273 53.7881 190.162 53.9229C190.121 53.9814 190.062 54.0166 189.986 54.0283ZM199.751 49.9678C199.856 49.8096 199.909 49.5869 199.909 49.2998C199.909 49.1709 199.921 49.0449 199.944 48.9219C200.038 48.541 200.085 48.2979 200.085 48.1924C200.085 48.1221 200.062 48.04 200.015 47.9463L200.006 47.9199C199.93 48.0898 199.865 48.3125 199.812 48.5879C199.742 48.9512 199.707 49.291 199.707 49.6074C199.707 49.7598 199.722 49.8799 199.751 49.9678ZM201.069 50.0908C201.233 49.9912 201.403 49.8096 201.579 49.5459C201.755 49.2764 201.904 48.9746 202.027 48.6406C201.799 48.8516 201.588 49.1006 201.395 49.3877C201.207 49.6748 201.099 49.9092 201.069 50.0908ZM202.467 51.9893C202.438 51.9131 202.388 51.8516 202.317 51.8047C201.896 51.541 201.477 51.2217 201.061 50.8467C200.908 50.7119 200.788 50.6445 200.7 50.6445L200.63 50.6533C200.665 50.7646 200.756 50.873 200.902 50.9785L200.938 51.0049C201.354 51.3037 201.772 51.5938 202.194 51.875C202.224 51.8926 202.25 51.9131 202.273 51.9365C202.338 51.9717 202.402 51.9893 202.467 51.9893ZM203.047 52.2793C202.865 52.1035 202.681 52.0127 202.493 52.0068L202.528 52.042C202.663 52.2002 202.812 52.2793 202.977 52.2793H203.047ZM200.437 49.2207C200.478 49.2207 200.521 49.1855 200.568 49.1152C200.633 49.0273 200.762 48.8135 200.955 48.4736C201.5 47.5947 201.857 46.9443 202.027 46.5225C202.168 46.165 202.238 45.8193 202.238 45.4854C202.238 45.1982 202.106 45.0547 201.843 45.0547C201.755 45.0547 201.644 45.0723 201.509 45.1074C201.31 45.1484 201.11 45.21 200.911 45.292C200.817 45.333 200.771 45.3857 200.771 45.4502C200.771 45.4854 200.788 45.5234 200.823 45.5645C200.882 45.6348 200.914 45.7051 200.92 45.7754C200.92 45.8516 200.911 45.9277 200.894 46.0039L200.727 46.9004C200.621 47.5918 200.472 48.2744 200.278 48.9482C200.267 48.9834 200.261 49.0156 200.261 49.0449C200.261 49.1094 200.293 49.1592 200.357 49.1943C200.387 49.2119 200.413 49.2207 200.437 49.2207ZM202.054 48.5879L202.186 48.4121C202.391 48.1953 202.52 47.9375 202.572 47.6387C202.262 47.8848 202.089 48.2012 202.054 48.5879ZM202.581 47.6123C202.804 47.4482 202.968 47.1611 203.073 46.751C203.085 46.6982 203.105 46.6279 203.135 46.54C203.199 46.376 203.231 46.2383 203.231 46.127C203.231 46.0449 203.214 45.96 203.179 45.8721C203.12 45.8896 203.091 45.9248 203.091 45.9775C203.032 46.4287 202.897 46.8594 202.687 47.2695C202.681 47.2695 202.678 47.2725 202.678 47.2783C202.613 47.3838 202.581 47.4951 202.581 47.6123ZM203.82 53.3516C203.715 53.3516 203.609 53.3369 203.504 53.3076C202.783 53.0967 202.115 52.7803 201.5 52.3584C201.266 52.2061 201.034 52.0479 200.806 51.8838C200.513 51.667 200.34 51.5586 200.287 51.5586C200.217 51.5586 200.179 51.6318 200.173 51.7783V51.9277L200.182 52.2441C200.199 52.4551 200.208 52.584 200.208 52.6309C200.208 52.666 200.202 52.71 200.19 52.7627C200.179 52.8096 200.12 52.833 200.015 52.833C199.927 52.833 199.868 52.7979 199.839 52.7275C199.786 52.5986 199.754 52.3203 199.742 51.8926V51.8135C199.742 51.6143 199.701 51.4209 199.619 51.2334C199.596 51.3623 199.584 51.4912 199.584 51.6201C199.584 51.7432 199.596 51.8691 199.619 51.998C199.643 52.168 199.654 52.3145 199.654 52.4375C199.654 52.5664 199.631 52.6543 199.584 52.7012C199.543 52.748 199.467 52.7715 199.355 52.7715C199.098 52.7715 198.916 52.7217 198.811 52.6221C198.641 52.4697 198.556 51.998 198.556 51.207C198.556 50.75 198.594 50.208 198.67 49.5811L198.696 49.3789C198.819 48.2246 199.042 47.0908 199.364 45.9775C199.388 45.9131 199.399 45.8574 199.399 45.8105C199.399 45.7168 199.35 45.6436 199.25 45.5908C199.156 45.5322 199.109 45.4736 199.109 45.415C199.109 45.3506 199.15 45.2773 199.232 45.1953C199.414 45.0312 199.622 44.9082 199.856 44.8262C200.425 44.5918 200.885 44.4746 201.236 44.4746C201.582 44.4746 202.124 44.624 202.862 44.9229C203.149 45.0518 203.352 45.2598 203.469 45.5469C203.533 45.6992 203.565 45.8604 203.565 46.0303C203.565 46.3291 203.437 46.7363 203.179 47.252C203.097 47.4102 203.035 47.5771 202.994 47.7529C202.988 47.8115 202.968 47.8643 202.933 47.9111C202.769 48.1162 202.628 48.333 202.511 48.5615C202.452 48.6729 202.391 48.7812 202.326 48.8867C202.057 49.291 201.808 49.6982 201.579 50.1084L201.465 50.2666C201.342 50.3896 201.28 50.501 201.28 50.6006C201.28 50.6064 201.28 50.6299 201.28 50.6709C201.286 50.7061 201.348 50.7646 201.465 50.8467C202.244 51.4326 203.073 51.9424 203.952 52.376C204.099 52.4521 204.245 52.4902 204.392 52.4902C204.521 52.4902 204.649 52.4639 204.778 52.4111C204.866 52.3643 204.96 52.3262 205.06 52.2969L205.218 52.2354C205.241 52.2236 205.268 52.2148 205.297 52.209C205.32 52.209 205.344 52.2207 205.367 52.2441C205.391 52.2676 205.402 52.2939 205.402 52.3232C205.402 52.3525 205.396 52.3789 205.385 52.4023C205.344 52.584 205.241 52.7158 205.077 52.7979L204.33 53.2197C204.166 53.3076 203.996 53.3516 203.82 53.3516ZM205.235 50.6357L205.692 47.0938C205.669 47.082 205.643 47.0732 205.613 47.0674C205.496 47.2607 205.438 47.4746 205.438 47.709C205.432 47.8027 205.42 47.8965 205.402 47.9902C205.279 48.6465 205.218 49.3115 205.218 49.9854C205.218 50.2021 205.224 50.4189 205.235 50.6357ZM208.742 51.1191C208.695 50.7207 208.672 50.3193 208.672 49.915L208.681 49.4053C208.681 49.1416 208.672 48.8779 208.654 48.6143C208.59 48.9072 208.558 49.2441 208.558 49.625C208.558 49.7363 208.563 49.9561 208.575 50.2842C208.587 50.6064 208.643 50.8848 208.742 51.1191ZM207.573 49.3174C207.626 49.2646 207.658 49.2207 207.67 49.1855C207.67 49.168 207.661 49.1562 207.644 49.1504C207.632 49.1445 207.626 49.1416 207.626 49.1416C207.591 49.1416 207.573 49.1797 207.573 49.2559V49.3174ZM206.308 51.3652C206.419 51.3359 206.521 51.2393 206.615 51.0752C207.002 50.5361 207.315 49.959 207.556 49.3438C207.421 49.4434 207.318 49.5723 207.248 49.7305C207.213 49.8008 207.172 49.8682 207.125 49.9326C206.908 50.249 206.703 50.5742 206.51 50.9082L206.352 51.1807C206.328 51.2158 206.316 51.2598 206.316 51.3125L206.308 51.3652ZM206.193 51.5146C206.229 51.5146 206.261 51.4766 206.29 51.4004V51.3828L206.272 51.3916C206.214 51.4092 206.182 51.4355 206.176 51.4707C206.176 51.4883 206.182 51.5029 206.193 51.5146ZM209.331 53C209.296 53 209.261 52.9854 209.226 52.9561C209.067 52.8447 208.897 52.7568 208.716 52.6924C208.599 52.6514 208.487 52.6016 208.382 52.543C208.054 52.3672 207.857 51.8223 207.793 50.9082C207.793 50.709 207.755 50.4863 207.679 50.2402C207.351 50.7324 207.113 51.0957 206.967 51.3301C206.855 51.5352 206.721 51.7109 206.562 51.8574C206.404 52.0039 206.24 52.0771 206.07 52.0771C205.941 52.0771 205.807 52.0361 205.666 51.9541C205.408 51.7959 205.142 51.6553 204.866 51.5322C204.55 51.3916 204.374 51.1338 204.339 50.7588C204.327 50.5771 204.321 50.3984 204.321 50.2227C204.321 49.8652 204.348 49.5078 204.4 49.1504C204.4 49.1211 204.403 49.0947 204.409 49.0713C204.515 48.1396 204.676 47.2227 204.893 46.3203C204.945 46.0977 205.013 45.9863 205.095 45.9863C205.177 45.9863 205.309 46.0654 205.49 46.2236C205.613 46.3467 205.754 46.4316 205.912 46.4785C206 46.4961 206.044 46.5635 206.044 46.6807L206.035 46.751C206.006 46.9268 205.988 47.1055 205.982 47.2871L205.991 47.3926C205.991 47.709 205.915 48.0107 205.763 48.2979C205.751 48.3213 205.745 48.3418 205.745 48.3594L205.754 48.5703C205.754 48.7578 205.739 48.9453 205.71 49.1328C205.681 49.3145 205.666 49.4902 205.666 49.6602C205.666 49.8711 205.681 50.0117 205.71 50.082C205.716 50.1055 205.739 50.1172 205.78 50.1172C205.81 50.1172 205.845 50.0879 205.886 50.0293C205.886 50.0176 205.889 50.0088 205.895 50.0029C206.475 49.1064 206.964 48.1514 207.362 47.1377C207.679 46.2998 207.887 45.8809 207.986 45.8809C208.051 45.8809 208.194 45.9541 208.417 46.1006C208.569 46.2061 208.728 46.2998 208.892 46.3818C209.044 46.4404 209.12 46.5605 209.12 46.7422C209.12 46.7773 209.114 46.8154 209.103 46.8564C209.032 47.2197 208.997 47.5859 208.997 47.9551C208.997 48.1074 209.003 48.2598 209.015 48.4121L209.023 48.9922V49.3438C209.023 50.2051 209.079 51.0635 209.19 51.9189C209.226 52.2061 209.296 52.4902 209.401 52.7715C209.425 52.8125 209.439 52.8477 209.445 52.877C209.445 52.9121 209.431 52.9414 209.401 52.9648C209.378 52.9883 209.354 53 209.331 53ZM212.601 45.3359C212.817 45.125 212.926 44.9961 212.926 44.9492L212.882 44.9316C212.747 45.0312 212.633 45.1543 212.539 45.3008V45.3096C212.557 45.3271 212.571 45.3359 212.583 45.3359H212.601ZM211.941 52.2002C212.006 52.2002 212.079 52.1357 212.161 52.0068C212.073 52.0186 211.997 52.0537 211.933 52.1123C211.915 52.1299 211.906 52.1445 211.906 52.1562C211.906 52.1855 211.918 52.2002 211.941 52.2002ZM212.442 51.8398L212.46 51.8311C212.7 51.6729 212.911 51.4854 213.093 51.2686L213.102 51.251C213.078 51.2275 213.063 51.2158 213.058 51.2158C212.894 51.3271 212.744 51.4531 212.609 51.5938C212.539 51.6641 212.466 51.7285 212.39 51.7871V51.8135C212.407 51.8311 212.425 51.8398 212.442 51.8398ZM213.251 51.6113C213.257 51.6113 213.263 51.6084 213.269 51.6025C213.28 51.5908 213.286 51.5791 213.286 51.5674C213.28 51.5674 213.277 51.5645 213.277 51.5586C213.248 51.5586 213.233 51.5732 213.233 51.6025C213.233 51.6084 213.239 51.6113 213.251 51.6113ZM212.979 51.9541C212.967 51.9189 212.958 51.8809 212.952 51.8398L212.873 51.9453C212.896 51.9512 212.932 51.9541 212.979 51.9541ZM210.298 48.7285C210.38 48.6934 210.436 48.6318 210.465 48.5439C210.494 48.4502 210.512 48.3945 210.518 48.377C210.852 47.7031 211.194 47.1553 211.546 46.7334C211.692 46.5459 211.824 46.3438 211.941 46.127C211.871 46.1445 211.81 46.1943 211.757 46.2764C211.306 46.8389 210.998 47.2695 210.834 47.5684C210.799 47.6387 210.761 47.7061 210.72 47.7705C210.521 48.0635 210.38 48.3828 210.298 48.7285ZM211.959 46.1006C211.977 46.0889 211.991 46.0742 212.003 46.0566L211.994 46.0391C211.971 46.0391 211.959 46.0596 211.959 46.1006ZM212.161 45.8193C212.226 45.7666 212.272 45.7285 212.302 45.7051C212.337 45.6758 212.36 45.6494 212.372 45.626C212.384 45.5967 212.393 45.5586 212.398 45.5117C212.281 45.5879 212.202 45.6904 212.161 45.8193ZM211.405 47.4541L211.511 47.4014V47.3047L211.493 47.2959C211.481 47.3018 211.47 47.3223 211.458 47.3574C211.446 47.3867 211.429 47.4189 211.405 47.4541ZM210.5 53.2549C210.4 53.2549 210.312 53.208 210.236 53.1143C210.16 53.0205 210.002 52.877 209.762 52.6836C209.521 52.4844 209.401 52.3496 209.401 52.2793C209.401 52.1797 209.445 52.1299 209.533 52.1299C209.885 52.124 210.184 52.0391 210.43 51.875C211.221 51.5234 211.859 51.0869 212.346 50.5654C212.375 50.5361 212.39 50.5098 212.39 50.4863C212.39 50.4453 212.308 50.4043 212.144 50.3633C211.388 50.2578 210.884 50.082 210.632 49.8359C210.386 49.584 210.137 49.335 209.885 49.0889C209.68 48.9189 209.577 48.708 209.577 48.4561C209.577 48.3975 209.583 48.3418 209.595 48.2891C209.694 47.7617 210.031 47.1084 210.605 46.3291C211.156 45.5381 211.769 44.7939 212.442 44.0967C213.017 43.5225 213.371 43.2354 213.506 43.2354L213.567 43.2441C213.644 43.2559 213.781 43.4111 213.98 43.71C214.051 43.8037 214.142 43.8887 214.253 43.9648C214.37 44.0352 214.429 44.126 214.429 44.2373C214.429 44.3018 214.332 44.5156 214.139 44.8789C214.104 44.9375 214.06 45.0166 214.007 45.1162C213.954 45.21 213.916 45.2773 213.893 45.3184C213.869 45.3594 213.84 45.3799 213.805 45.3799C213.646 45.3506 213.562 45.2334 213.55 45.0283C213.521 45.0752 213.482 45.1104 213.436 45.1338C213.289 45.21 213.166 45.3184 213.066 45.459C212.75 45.8281 212.448 46.2031 212.161 46.584C211.81 47.0527 211.593 47.3252 211.511 47.4014C211.394 47.624 211.312 47.7705 211.265 47.8408C211.077 48.1455 210.907 48.4619 210.755 48.79C210.696 48.9131 210.667 48.9951 210.667 49.0361C210.667 49.0947 210.702 49.1357 210.772 49.1592C210.884 49.1943 211.065 49.2324 211.317 49.2734C211.61 49.3262 211.9 49.3906 212.188 49.4668C212.48 49.543 212.729 49.6924 212.935 49.915C213.116 50.1377 213.31 50.3428 213.515 50.5303C213.655 50.6416 213.726 50.7793 213.726 50.9434C213.726 51.0605 213.685 51.1807 213.603 51.3037C213.438 51.5674 213.23 51.7871 212.979 51.9629C212.861 52.1211 212.671 52.2734 212.407 52.4199C211.933 52.748 211.449 52.9854 210.957 53.1318C210.693 53.2139 210.541 53.2549 210.5 53.2549ZM216.644 45.8896C216.673 45.8193 216.69 45.7666 216.696 45.7314C216.708 45.6904 216.711 45.6523 216.705 45.6172L216.688 45.459L216.67 45.582C216.646 45.6465 216.635 45.7168 216.635 45.793L216.644 45.8896ZM219.579 47.6738C219.608 47.6738 219.632 47.6475 219.649 47.5947C219.708 47.4951 219.737 47.3867 219.737 47.2695L219.729 47.1816C219.729 47.1172 219.743 47.0557 219.772 46.9971C219.831 46.874 219.86 46.748 219.86 46.6191C219.86 46.4844 219.887 46.3584 219.939 46.2412C219.945 46.2354 219.948 46.2266 219.948 46.2148L219.939 46.1885L219.931 46.083C219.931 46.0127 219.942 45.9482 219.966 45.8896C219.989 45.8252 220.019 45.6582 220.054 45.3887C220.13 44.709 220.238 44.0293 220.379 43.3496V43.3232C220.379 43.2646 220.353 43.2354 220.3 43.2354C220.276 43.2354 220.256 43.2529 220.238 43.2881C220.197 43.4111 220.177 43.5137 220.177 43.5957C220.124 44.0586 220.051 44.5186 219.957 44.9756C219.904 45.21 219.857 45.4443 219.816 45.6787C219.805 45.7549 219.79 45.834 219.772 45.916C219.761 45.9922 219.752 46.0654 219.746 46.1357C219.74 46.2588 219.717 46.3789 219.676 46.4961C219.623 46.7012 219.588 46.9062 219.57 47.1113C219.553 47.2402 219.532 47.3662 219.509 47.4893C219.509 47.5654 219.512 47.6152 219.518 47.6387C219.529 47.6621 219.55 47.6738 219.579 47.6738ZM219.931 47.709V47.7002C219.948 47.7002 219.963 47.6943 219.975 47.6826C219.98 47.6533 219.983 47.6211 219.983 47.5859C219.983 47.5801 219.98 47.5771 219.975 47.5771C219.969 47.5713 219.96 47.5625 219.948 47.5508L219.931 47.5596C219.913 47.583 219.904 47.6094 219.904 47.6387C219.904 47.6621 219.913 47.6855 219.931 47.709ZM219.061 53.3428C219.072 53.2666 219.087 52.9883 219.104 52.5078C219.104 52.3672 219.107 52.2295 219.113 52.0947V52.042C219.113 51.8135 219.148 51.5908 219.219 51.374C219.242 51.3154 219.26 51.2305 219.271 51.1191C219.295 50.9668 219.307 50.835 219.307 50.7236C219.307 50.6357 219.301 50.5479 219.289 50.46L219.28 50.3457L219.368 49.5547C219.409 49.1973 219.43 48.9775 219.43 48.8955L219.395 48.8516C219.365 48.8516 219.351 48.8604 219.351 48.8779C219.333 48.9014 219.324 48.9277 219.324 48.957L219.148 50.0029C219.131 50.2314 219.081 50.4219 218.999 50.5742C218.981 50.5977 218.973 50.6211 218.973 50.6445C218.973 50.6621 218.979 50.6826 218.99 50.7061C219.025 50.8115 219.043 50.9199 219.043 51.0312L219.034 51.3301C219.034 51.6582 218.976 51.9746 218.858 52.2793C218.847 52.2969 218.841 52.3145 218.841 52.332C218.841 52.3613 218.853 52.3877 218.876 52.4111C218.929 52.4756 218.955 52.5518 218.955 52.6396V52.7891C218.955 52.9004 218.964 53.0088 218.981 53.1143C218.987 53.1318 218.99 53.1494 218.99 53.167C218.99 53.1904 218.993 53.2168 218.999 53.2461C219.011 53.2812 219.031 53.3135 219.061 53.3428ZM217.795 48.4736C217.818 48.4736 217.83 48.4678 217.83 48.4561C217.83 48.4443 217.83 48.4355 217.83 48.4297C217.83 48.4121 217.818 48.4004 217.795 48.3945H217.777C217.766 48.4004 217.757 48.4092 217.751 48.4209C217.751 48.4268 217.751 48.4326 217.751 48.4385C217.751 48.4619 217.766 48.4736 217.795 48.4736ZM217.47 48.5791C217.499 48.5732 217.517 48.5586 217.522 48.5352C217.511 48.5059 217.493 48.4912 217.47 48.4912C217.435 48.4912 217.417 48.5059 217.417 48.5352C217.423 48.5645 217.44 48.5791 217.47 48.5791ZM217.118 48.6758C217.159 48.6758 217.18 48.6523 217.18 48.6055C217.168 48.582 217.153 48.5703 217.136 48.5703C217.095 48.5703 217.074 48.5908 217.074 48.6318C217.074 48.6494 217.077 48.6611 217.083 48.667C217.089 48.6729 217.098 48.6758 217.109 48.6758H217.118ZM216.529 48.9043C216.664 48.8926 216.775 48.834 216.863 48.7285L216.872 48.6846C216.878 48.6729 216.872 48.6582 216.854 48.6406C216.843 48.623 216.825 48.6143 216.802 48.6143C216.667 48.6494 216.559 48.7197 216.477 48.8252C216.471 48.8311 216.468 48.8398 216.468 48.8516C216.468 48.8633 216.471 48.8721 216.477 48.8779C216.482 48.8838 216.491 48.8896 216.503 48.8955C216.515 48.8955 216.523 48.8984 216.529 48.9043ZM215.87 47.8232C215.923 47.8115 215.958 47.7705 215.976 47.7002L215.984 47.6826C216.008 47.5889 216.02 47.5332 216.02 47.5156C216.031 47.4688 216.049 47.4248 216.072 47.3838C216.143 47.3135 216.178 47.2607 216.178 47.2256C216.178 47.1904 216.154 47.1523 216.107 47.1113V47.085C216.143 46.9385 216.16 46.8184 216.16 46.7246C216.16 46.625 216.172 46.5254 216.195 46.4258C216.201 46.4082 216.204 46.3877 216.204 46.3643C216.204 46.2881 216.181 46.2441 216.134 46.2324C216.099 46.2324 216.069 46.2529 216.046 46.2939C215.981 46.4404 215.938 46.5986 215.914 46.7686C215.914 46.9326 215.876 47.1172 215.8 47.3223C215.776 47.3867 215.765 47.4688 215.765 47.5684C215.765 47.7383 215.797 47.8232 215.861 47.8232H215.87ZM215.773 52.8418C215.762 52.8184 215.753 52.792 215.747 52.7627C215.735 52.7041 215.718 52.6426 215.694 52.5781C215.612 52.3496 215.571 52.1123 215.571 51.8662V51.708C215.571 51.5908 215.551 51.4795 215.51 51.374C215.492 51.3389 215.483 51.3066 215.483 51.2773C215.483 51.2305 215.501 51.1836 215.536 51.1367C215.647 50.9434 215.703 50.7441 215.703 50.5391C215.703 50.457 215.694 50.375 215.677 50.293C215.642 50.1875 215.624 50.0322 215.624 49.8271V49.7656C215.624 49.6777 215.592 49.6279 215.527 49.6162C215.498 49.6162 215.475 49.625 215.457 49.6426C215.428 49.6836 215.407 49.7568 215.396 49.8623C215.354 50.1377 215.331 50.2842 215.325 50.3018C215.308 50.4014 215.296 50.5039 215.29 50.6094C215.29 50.8262 215.272 51.125 215.237 51.5059L215.229 51.6816C215.229 52.0332 215.287 52.2822 215.404 52.4287L215.492 52.543C215.574 52.6543 215.668 52.7539 215.773 52.8418ZM215.158 50.4336L215.167 50.4248C215.167 50.4189 215.17 50.416 215.176 50.416C215.176 50.4102 215.173 50.4043 215.167 50.3984C215.161 50.3926 215.155 50.3896 215.149 50.3896L215.132 50.4072C215.132 50.4131 215.135 50.416 215.141 50.416V50.4336H215.158ZM215.114 52.1299L215.132 52.1211L215.114 52.1035V52.1299ZM217.355 49.0186L217.347 49.0098C217.347 49.0156 217.35 49.0186 217.355 49.0186ZM219.43 54.0811C219.395 54.0811 219.362 54.0693 219.333 54.0459C219.11 53.8877 218.938 53.7939 218.814 53.7646C218.568 53.6533 218.398 53.5303 218.305 53.3955C218.176 53.208 218.111 52.7949 218.111 52.1562C218.111 51.6055 218.173 50.835 218.296 49.8447C218.354 49.3994 218.384 49.1035 218.384 48.957C218.378 48.8516 218.299 48.7988 218.146 48.7988C218.094 48.7988 218.041 48.8076 217.988 48.8252C217.941 48.8428 217.895 48.8516 217.848 48.8516C217.824 48.8516 217.798 48.8486 217.769 48.8428C217.739 48.8369 217.713 48.834 217.689 48.834C217.625 48.834 217.566 48.8604 217.514 48.9131C217.467 48.9658 217.411 48.998 217.347 49.0098C217.306 48.9688 217.265 48.9482 217.224 48.9482C217.159 48.9482 217.092 48.9863 217.021 49.0625C216.951 49.1562 216.881 49.2031 216.811 49.2031L216.767 49.1943C216.726 49.1826 216.688 49.1768 216.652 49.1768C216.547 49.1768 216.453 49.2148 216.371 49.291C216.254 49.4023 216.181 49.54 216.151 49.7041C216.146 49.7158 216.143 49.7305 216.143 49.748C216.131 49.8418 216.099 49.9297 216.046 50.0117L216.037 49.7393C215.967 49.8096 215.932 49.8916 215.932 49.9854L215.905 50.1348C215.829 50.6152 215.785 51.0547 215.773 51.4531C215.773 51.5703 215.803 51.6553 215.861 51.708C215.873 51.7197 215.876 51.7344 215.87 51.752C215.87 51.7695 215.861 51.7871 215.844 51.8047C215.785 51.8457 215.756 51.9043 215.756 51.9805C215.756 52.0156 215.768 52.0449 215.791 52.0684C215.797 52.0742 215.814 52.0771 215.844 52.0771L215.888 52.0684C215.905 52.0742 215.914 52.0918 215.914 52.1211C215.943 52.3613 215.993 52.5605 216.063 52.7188C216.099 52.7832 216.116 52.833 216.116 52.8682C216.116 52.8916 216.104 52.915 216.081 52.9385C216.063 52.9561 216.04 52.9648 216.011 52.9648C215.964 52.9648 215.905 52.9385 215.835 52.8857L215.773 52.8418H215.642C215.05 52.8418 214.678 52.7305 214.525 52.5078C214.326 52.2207 214.227 51.834 214.227 51.3477C214.227 51.0605 214.262 50.6064 214.332 49.9854C214.42 49.1299 214.546 48.2949 214.71 47.4805C214.763 47.1992 214.812 46.9209 214.859 46.6455C214.906 46.3643 214.953 46.0889 215 45.8193L215.123 45.0723C215.141 44.9434 215.167 44.8145 215.202 44.6855C215.226 44.5977 215.281 44.5537 215.369 44.5537C215.486 44.5537 215.621 44.5859 215.773 44.6504L216.107 44.7998C216.201 44.8467 216.304 44.8701 216.415 44.8701H216.468C216.62 44.8701 216.729 44.9492 216.793 45.1074C216.816 45.1836 216.828 45.2568 216.828 45.3271C216.828 45.3682 216.825 45.4062 216.819 45.4414C216.761 45.9805 216.685 46.5195 216.591 47.0586L216.556 47.1289C216.521 47.1113 216.503 47.082 216.503 47.041L216.521 46.9795L216.564 46.6982C216.588 46.5693 216.6 46.4521 216.6 46.3467C216.588 46.3467 216.579 46.3496 216.573 46.3555C216.567 46.3555 216.562 46.3555 216.556 46.3555C216.55 46.3555 216.547 46.3584 216.547 46.3643L216.494 46.6016C216.389 47.1465 216.336 47.4424 216.336 47.4893C216.336 47.6299 216.424 47.7002 216.6 47.7002C216.652 47.7002 216.705 47.6914 216.758 47.6738C217.268 47.5215 217.792 47.4248 218.331 47.3838C218.524 47.3838 218.639 47.2959 218.674 47.1201C218.914 45.6611 219.163 44.2666 219.421 42.9365L219.438 42.8398C219.456 42.7461 219.477 42.6553 219.5 42.5674C219.523 42.4795 219.567 42.4355 219.632 42.4355C219.737 42.4355 219.863 42.5117 220.01 42.6641C220.221 42.8809 220.382 43.001 220.493 43.0244C220.64 43.0713 220.713 43.168 220.713 43.3145C220.713 43.3906 220.704 43.4727 220.687 43.5605C220.675 43.6484 220.663 43.7422 220.651 43.8418C220.646 43.9004 220.625 43.9502 220.59 43.9912C220.555 44.0322 220.534 44.0762 220.528 44.123C220.534 44.1641 220.543 44.2021 220.555 44.2373C220.566 44.2725 220.572 44.3076 220.572 44.3428L220.563 44.4219C220.528 44.5977 220.499 44.7764 220.476 44.958C220.435 45.3213 220.364 45.5967 220.265 45.7842C220.2 45.8955 220.168 46.0098 220.168 46.127C220.168 46.1738 220.174 46.2236 220.186 46.2764C220.197 46.3701 220.203 46.4609 220.203 46.5488C220.203 46.7305 220.18 46.9092 220.133 47.085C220.092 47.29 220.057 47.4951 220.027 47.7002L219.983 47.999L219.975 48.1924V48.2715C219.975 48.377 219.957 48.4795 219.922 48.5791C219.893 48.6553 219.875 48.7373 219.869 48.8252L219.816 49.1504C219.764 49.4609 219.72 49.7715 219.685 50.082L219.623 50.5479C219.564 50.9287 219.526 51.3125 219.509 51.6992C219.503 51.8691 219.485 52.0947 219.456 52.376C219.433 52.6514 219.421 52.8652 219.421 53.0176C219.421 53.293 219.45 53.5713 219.509 53.8525C219.521 53.8877 219.526 53.9316 219.526 53.9844C219.526 54.0137 219.515 54.0371 219.491 54.0547C219.468 54.0723 219.447 54.0811 219.43 54.0811ZM221.864 50.3809C221.929 50.1289 221.961 49.877 221.961 49.625C221.961 49.5254 221.955 49.4258 221.943 49.3262C221.943 49.3379 221.935 49.3467 221.917 49.3525C221.905 49.3584 221.894 49.3672 221.882 49.3789C221.876 49.3906 221.87 49.3994 221.864 49.4053L221.855 49.6162C221.838 49.7334 221.829 49.8506 221.829 49.9678C221.829 50.1025 221.841 50.2402 221.864 50.3809ZM222.453 54.2041C222.488 54.1104 222.506 54.0195 222.506 53.9316C222.506 53.8379 222.488 53.7471 222.453 53.6592V54.2041ZM222.005 54.7578L222.084 54.749L222.154 53.8174C222.178 53.7295 222.189 53.6387 222.189 53.5449C222.189 53.457 222.16 53.3691 222.102 53.2812C222.09 53.375 222.075 53.4658 222.058 53.5537C222.005 53.8057 221.979 54.0576 221.979 54.3096C221.979 54.4561 221.987 54.6055 222.005 54.7578ZM221.952 49.2998C222.022 49.165 222.061 49.0244 222.066 48.8779C222.119 48.5088 222.192 48.1455 222.286 47.7881C222.368 47.4658 222.436 47.1406 222.488 46.8125C222.494 46.7832 222.506 46.751 222.523 46.7158C222.547 46.6748 222.562 46.6338 222.567 46.5928C222.567 46.5576 222.538 46.5312 222.479 46.5137C222.409 46.5137 222.374 46.5752 222.374 46.6982C222.345 46.8564 222.301 47.0439 222.242 47.2607C222.119 47.7529 222.034 48.248 221.987 48.7461C221.981 48.7812 221.973 48.8135 221.961 48.8428C221.926 48.9248 221.908 49.0039 221.908 49.0801C221.908 49.1562 221.923 49.2295 221.952 49.2998ZM222.392 51.7695C222.345 51.7695 222.307 51.7578 222.277 51.7344C222.084 51.6055 221.876 51.5088 221.653 51.4443L221.381 51.3301C221.029 51.1777 220.854 50.6826 220.854 49.8447C220.854 48.9717 221.202 47.3076 221.899 44.8525C221.987 44.542 222.087 44.3867 222.198 44.3867C222.292 44.3867 222.433 44.4658 222.62 44.624C222.714 44.7119 222.822 44.7822 222.945 44.835C223.074 44.8701 223.153 44.9141 223.183 44.9668C223.212 45.0137 223.227 45.0723 223.227 45.1426C223.227 45.1777 223.221 45.2158 223.209 45.2568C223.203 45.292 223.197 45.3271 223.191 45.3623C223.15 45.6611 223.098 45.9629 223.033 46.2676C222.869 47.0293 222.72 47.7939 222.585 48.5615C222.515 48.9131 222.479 49.124 222.479 49.1943C222.474 49.3115 222.45 49.4229 222.409 49.5283C222.374 49.6338 222.356 49.7598 222.356 49.9062C222.368 50.0293 222.374 50.1406 222.374 50.2402C222.374 50.3047 222.371 50.375 222.365 50.4512C222.359 50.5273 222.356 50.6299 222.356 50.7588C222.356 51.0518 222.403 51.3506 222.497 51.6553C222.497 51.6846 222.485 51.7109 222.462 51.7344C222.438 51.7578 222.415 51.7695 222.392 51.7695ZM222.436 55.0391L222.374 55.0303C222.257 55.0186 222.137 55.0098 222.014 55.0039C221.809 54.9863 221.604 54.957 221.398 54.916C221.17 54.8574 221.056 54.7373 221.056 54.5557V53.791H221.064L221.082 53.5889C221.1 53.4424 221.114 53.29 221.126 53.1318C221.144 52.915 221.229 52.8066 221.381 52.8066C221.48 52.8066 221.633 52.8447 221.838 52.9209C221.99 52.9854 222.157 53.0264 222.339 53.0439C222.491 53.0557 222.567 53.1348 222.567 53.2812L222.559 53.5361L222.567 53.8877C222.567 54.0752 222.541 54.2627 222.488 54.4502C222.471 54.5088 222.462 54.5674 222.462 54.626C222.462 54.7139 222.482 54.7959 222.523 54.8721C222.541 54.9072 222.55 54.9365 222.55 54.96C222.55 55.0127 222.512 55.0391 222.436 55.0391Z" fill="black"/>
<defs>
<filter id="filter0_f_9613_32817" x="0" y="-80" width="226" height="226" filterUnits="userSpaceOnUse" color-interpolation-filters="sRGB">
<feFlood flood-opacity="0" result="BackgroundImageFix"/>
<feBlend mode="normal" in="SourceGraphic" in2="BackgroundImageFix" result="shape"/>
<feGaussianBlur stdDeviation="50" result="effect1_foregroundBlur_9613_32817"/>
</filter>
<linearGradient id="paint0_linear_9613_32817" x1="100" y1="33" x2="126" y2="33" gradientUnits="userSpaceOnUse">
<stop stop-color="#FDF621"/>
<stop offset="0.595" stop-color="#FDFCC3"/>
<stop offset="1" stop-color="#FDF973"/>
</linearGradient>
<linearGradient id="paint1_linear_9613_32817" x1="100.868" y1="32.9995" x2="125.135" y2="32.9995" gradientUnits="userSpaceOnUse">
<stop stop-color="#FDF621"/>
<stop offset="0.595" stop-color="#FDFCC3"/>
<stop offset="1" stop-color="#FDF973"/>
</linearGradient>
</defs>
</svg>
