<svg width="336" height="188" viewBox="0 0 336 188" fill="none" xmlns="http://www.w3.org/2000/svg">
<path d="M327.412 156.423C322.836 173.501 247.688 168.204 159.563 144.591C71.4386 120.978 3.70931 87.9913 8.28545 70.9129C12.8616 53.8345 88.0103 59.1318 176.135 82.7447C264.259 106.358 331.989 139.344 327.412 156.423Z" fill="url(#paint0_radial_9613_32884)"/>
<path fill-rule="evenodd" clip-rule="evenodd" d="M259.739 125.71C232.554 124.779 200.736 119.966 167.478 111.054C134.876 102.319 105.441 90.8645 81.6768 78.3709C82.1847 75.1408 82.8682 71.9057 83.7335 68.6765C96.9738 19.263 147.765 -10.0611 197.178 3.17918C246.592 16.4195 275.916 67.2104 262.676 116.624C261.842 119.734 260.86 122.765 259.739 125.71Z" fill="url(#paint1_radial_9613_32884)"/>
<path fill-rule="evenodd" clip-rule="evenodd" d="M223.272 61.2264L205.006 68.956L223.272 76.6857C220.524 82.0313 215.014 85.6803 208.665 85.6803C199.571 85.6803 192.198 78.1926 192.198 68.956C192.198 59.7194 199.571 52.2317 208.665 52.2317C215.014 52.2317 220.524 55.8807 223.272 61.2264Z" fill="#B2E810"/>
<mask id="mask0_9613_32884" style="mask-type:luminance" maskUnits="userSpaceOnUse" x="194" y="55" width="27" height="28">
<path d="M219.375 62.0617C217.11 58.3882 213.091 55.9479 208.512 55.9479C201.438 55.9479 195.704 61.7717 195.704 68.9557C195.704 76.1397 201.438 81.9636 208.512 81.9636C213.091 81.9636 217.11 79.5232 219.375 75.8498L219.645 75.4596L219.782 75.1901L220.606 75.5455C220.487 75.7713 220.361 75.9935 220.23 76.2118C217.82 80.2184 213.473 82.8926 208.512 82.8926C200.933 82.8926 194.789 76.6528 194.789 68.9557C194.789 61.2586 200.933 55.0188 208.512 55.0188C213.473 55.0188 217.82 57.6931 220.23 61.6998C220.36 61.9157 220.484 62.1355 220.603 62.359L219.754 62.712L219.645 62.4518L219.375 62.0617Z" fill="white"/>
</mask>
<g mask="url(#mask0_9613_32884)">
<path d="M219.374 62.0614L218.598 62.5545L218.611 62.5753L218.625 62.5955L219.374 62.0614ZM219.374 75.8495L218.625 75.3154L218.611 75.3355L218.598 75.3564L219.374 75.8495ZM219.643 62.4515L220.484 62.0855L220.447 61.9966L220.392 61.9174L219.643 62.4515ZM219.753 62.7117L218.912 63.0777L219.267 63.9182L220.1 63.5714L219.753 62.7117ZM220.605 75.5452L221.411 75.9852L221.886 75.0879L220.963 74.69L220.605 75.5452ZM219.643 75.4593L220.392 75.9934L220.428 75.9421L220.456 75.8862L219.643 75.4593ZM219.781 75.1898L220.138 74.3345L219.358 73.9982L218.968 74.763L219.781 75.1898ZM220.601 62.3587L220.948 63.2184L221.889 62.8271L221.407 61.9183L220.601 62.3587ZM208.51 56.8767C212.761 56.8767 216.493 59.141 218.598 62.5545L220.149 61.5682C217.724 57.6348 213.418 55.0185 208.51 55.0185V56.8767ZM196.618 68.9554C196.618 62.2846 201.942 56.8767 208.51 56.8767V55.0185C200.932 55.0185 194.788 61.2583 194.788 68.9554H196.618ZM208.51 81.0341C201.942 81.0341 196.618 75.6263 196.618 68.9554H194.788C194.788 76.6525 200.932 82.8923 208.51 82.8923V81.0341ZM218.598 75.3564C216.493 78.7699 212.761 81.0341 208.51 81.0341V82.8923C213.418 82.8923 217.724 80.276 220.149 76.3427L218.598 75.3564ZM219.448 75.7269C217.197 79.469 213.14 81.9633 208.51 81.9633V83.8215C213.804 83.8215 218.44 80.9671 221.009 76.6958L219.448 75.7269ZM208.51 81.9633C201.437 81.9633 195.703 76.1394 195.703 68.9554H193.873C193.873 77.1658 200.426 83.8215 208.51 83.8215V81.9633ZM195.703 68.9554C195.703 61.7714 201.437 55.9476 208.51 55.9476V54.0894C200.426 54.0894 193.873 60.7451 193.873 68.9554H195.703ZM208.51 55.9476C213.14 55.9476 217.197 58.4419 219.448 62.1839L221.009 61.215C218.44 56.9436 213.804 54.0894 208.51 54.0894V55.9476ZM218.625 62.5955L218.895 62.9857L220.392 61.9174L220.122 61.5272L218.625 62.5955ZM218.803 62.8175L218.912 63.0777L220.594 62.3457L220.484 62.0855L218.803 62.8175ZM219.799 75.1052C219.688 75.3161 219.571 75.5234 219.448 75.7269L221.009 76.6958C221.149 76.4632 221.283 76.2261 221.411 75.9852L219.799 75.1052ZM218.895 74.9252L218.625 75.3154L220.122 76.3836L220.392 75.9934L218.895 74.9252ZM220.963 74.69L220.138 74.3345L219.423 76.0451L220.248 76.4005L220.963 74.69ZM218.968 74.763L218.831 75.0324L220.456 75.8862L220.593 75.6167L218.968 74.763ZM219.448 62.1839C219.569 62.3854 219.685 62.5905 219.796 62.7991L221.407 61.9183C221.281 61.6799 221.148 61.4454 221.009 61.215L219.448 62.1839ZM220.255 61.4989L219.406 61.8519L220.1 63.5714L220.948 63.2184L220.255 61.4989Z" fill="black"/>
</g>
<path d="M135.478 52.2317V85.6803H148.285V75.4599H148.743C155.058 75.4599 160.178 70.2601 160.178 63.8458C160.178 57.4315 155.058 52.2317 148.743 52.2317H135.478Z" fill="#B2E810"/>
<path d="M157.291 56.1306C155.809 55.4176 154.152 55.0188 152.403 55.0188H139.138V85.68H148.286V75.4596H148.743C155.059 75.4596 160.179 70.2598 160.179 63.8456C160.179 60.8843 159.088 58.182 157.291 56.1306Z" fill="#B2E810"/>
<path d="M156.731 56.8907C155.412 56.2853 153.947 55.9479 152.403 55.9479H140.053V84.7509V85.68H139.138V55.0188H152.403C154.152 55.0188 155.809 55.4176 157.291 56.1306C158.641 57.7633 159.169 58.8571 159.264 59.1999L156.731 56.8907Z" fill="black"/>
<path d="M174.358 52.2317L193.504 85.9126H155.211L174.358 52.2317Z" fill="#B2E810"/>
<path fill-rule="evenodd" clip-rule="evenodd" d="M156.84 83.0467L171.809 56.7141L186.778 83.0467H156.84ZM157.383 82.0912L164.299 69.9258L171.064 57.4874L185.149 82.0912H157.383Z" fill="black"/>
<defs>
<radialGradient id="paint0_radial_9613_32884" cx="0" cy="0" r="1" gradientUnits="userSpaceOnUse" gradientTransform="translate(168.274 113.241) rotate(104.808) scale(38.4121 198.206)">
<stop offset="0.665"/>
<stop offset="1" stop-color="#EBF479"/>
</radialGradient>
<radialGradient id="paint1_radial_9613_32884" cx="0" cy="0" r="1" gradientUnits="userSpaceOnUse" gradientTransform="translate(196.775 1.71387) rotate(105) scale(113.198 331.476)">
<stop stop-color="#EBF479"/>
<stop offset="0.75"/>
</radialGradient>
</defs>
</svg>
