<svg width="75" height="74" viewBox="0 0 75 74" fill="none" xmlns="http://www.w3.org/2000/svg">
<circle cx="37.7422" cy="37" r="37" fill="url(#paint0_radial_9613_32857)"/>
<path d="M38.2754 54.6055C28.6028 54.6055 20.7617 46.7644 20.7617 37.0918C20.7617 27.4193 28.6028 19.5781 38.2754 19.5781C47.9479 19.5781 55.7891 27.4193 55.7891 37.0918C55.7891 46.7644 47.9479 54.6055 38.2754 54.6055Z" fill="#191919"/>
<path d="M38.2768 52.7291C29.6406 52.7291 22.6396 45.728 22.6396 37.0918C22.6396 28.4556 29.6406 21.4546 38.2768 21.4546C46.913 21.4546 53.9141 28.4556 53.9141 37.0918C53.9141 45.728 46.913 52.7291 38.2768 52.7291Z" fill="#F0F0F0"/>
<path d="M38.2783 48.3499C32.0602 48.3499 27.0195 43.3092 27.0195 37.0911C27.0195 30.873 32.0602 25.8323 38.2783 25.8323C44.4964 25.8323 49.5371 30.873 49.5371 37.0911C49.5371 43.3092 44.4964 48.3499 38.2783 48.3499Z" fill="#191919"/>
<defs>
<radialGradient id="paint0_radial_9613_32857" cx="0" cy="0" r="1" gradientUnits="userSpaceOnUse" gradientTransform="translate(5.13388 24.4837) rotate(24.7366) scale(56.9366)">
<stop stop-color="#9399CA"/>
<stop offset="1"/>
</radialGradient>
</defs>
</svg>
