<svg width="120" height="119" viewBox="0 0 120 119" fill="none" xmlns="http://www.w3.org/2000/svg">
<circle cx="59.984" cy="59.2419" r="59.2419" fill="url(#paint0_radial_9613_32863)"/>
<path fill-rule="evenodd" clip-rule="evenodd" d="M80.4399 49.7854L51.7385 78.7277C50.06 78.1071 48.4763 77.2911 47.015 76.3072L77.9799 45.0824C78.9762 46.5358 79.8054 48.1127 80.4399 49.7854ZM61.6188 80.0116C72.3547 79.0046 80.8868 70.416 81.8061 59.6549L61.6188 80.0116ZM41.3265 70.7964L72.422 39.4399C68.7719 36.8559 64.3142 35.3374 59.5017 35.3374C47.138 35.3374 37.1152 45.3602 37.1152 57.7239C37.1152 62.6034 38.6764 67.1183 41.3265 70.7964ZM43.1155 61.3896L63.3436 41.0842C62.1476 40.8163 60.9038 40.6751 59.627 40.6751C50.2742 40.6751 42.6922 48.2571 42.6922 57.6099C42.6922 58.9092 42.8385 60.1743 43.1155 61.3896Z" fill="#C3FF61"/>
<defs>
<radialGradient id="paint0_radial_9613_32863" cx="0" cy="0" r="1" gradientUnits="userSpaceOnUse" gradientTransform="translate(59.984) rotate(90) scale(118.484)">
<stop stop-color="#C3FF61"/>
<stop offset="0.75"/>
</radialGradient>
</defs>
</svg>
