<svg width="111" height="111" viewBox="0 0 111 111" fill="none" xmlns="http://www.w3.org/2000/svg">
<path d="M59.0834 2.41839C57.0223 0.648329 53.9777 0.648332 51.9166 2.41839L45.8014 7.67022C44.7166 8.60188 43.2536 8.96249 41.86 8.64169L34.0047 6.83329C31.3571 6.22379 28.6612 7.63873 27.6588 10.1639L24.6847 17.656C24.1572 18.9851 23.0293 19.9843 21.6463 20.3478L13.8503 22.3971C11.2227 23.0878 9.49317 25.5936 9.7791 28.2953L10.6275 36.3113C10.7779 37.7334 10.2436 39.1423 9.18798 40.1069L3.23734 45.5445C1.23176 47.3771 0.864765 50.3996 2.37349 52.659L6.84992 59.3626C7.64403 60.5518 7.82566 62.0477 7.33922 63.3924L4.59715 70.9725C3.67297 73.5273 4.75263 76.3741 7.13852 77.6735L14.2175 81.529C15.4733 82.2129 16.3293 83.453 16.5235 84.8698L17.6182 92.8559C17.9871 95.5476 20.2661 97.5666 22.9826 97.6084L31.0425 97.7324C32.4723 97.7545 33.8065 98.4547 34.6368 99.6189L39.3175 106.182C40.895 108.393 43.8512 109.122 46.276 107.897L53.4703 104.261C54.7466 103.616 56.2534 103.616 57.5297 104.261L64.724 107.897C67.1488 109.122 70.105 108.393 71.6825 106.182L76.3632 99.6189C77.1935 98.4547 78.5277 97.7545 79.9575 97.7324L88.0174 97.6084C90.7339 97.5666 93.0129 95.5476 93.3818 92.8559L94.4765 84.8698C94.6707 83.453 95.5267 82.2129 96.7825 81.529L103.861 77.6735C106.247 76.3741 107.327 73.5273 106.403 70.9725L103.661 63.3924C103.174 62.0477 103.356 60.5518 104.15 59.3626L108.627 52.659C110.135 50.3996 109.768 47.3771 107.763 45.5445L101.812 40.1069C100.756 39.1423 100.222 37.7334 100.373 36.3113L101.221 28.2953C101.507 25.5936 99.7773 23.0878 97.1497 22.3971L89.3537 20.3478C87.9707 19.9843 86.8429 18.9851 86.3153 17.656L83.3412 10.1638C82.3388 7.63872 79.6429 6.22379 76.9953 6.83329L69.14 8.64169C67.7464 8.96249 66.2834 8.60188 65.1986 7.67022L59.0834 2.41839Z" fill="url(#paint0_linear_10349_10704)" stroke="black"/>
<path fill-rule="evenodd" clip-rule="evenodd" d="M65.0028 69.5487C65.1325 69.4381 65.2918 69.3664 65.4613 69.3424L73.445 68.2147C73.73 68.1744 74.0154 68.2727 74.2096 68.4779L80.1492 74.7535C80.4333 75.0536 80.4589 75.511 80.2105 75.846L68.036 92.2573C67.8524 92.5048 67.5504 92.6408 67.2413 92.6153L52.177 91.3696C51.936 91.3497 51.7152 91.2333 51.5665 91.0479C51.4177 90.8625 51.3542 90.6244 51.3908 90.3896L52.9985 80.0688C53.0303 79.8647 53.1355 79.6776 53.295 79.5414L65.0028 69.5487ZM65.9521 71.0136L56.3117 79.2418L62.1644 79.0398L71.08 70.2893L65.9521 71.0136ZM73.53 70.3127L63.5672 80.091L67.5599 89.9805L78.3625 75.4185L73.53 70.3127ZM65.9799 90.7775L61.9409 80.7734L54.628 81.0258L53.2726 89.7268L65.9799 90.7775Z" fill="black"/>
<path d="M54.1969 9.43725C54.9464 8.79359 56.0536 8.79359 56.803 9.43725L63.5641 15.2438C64.5284 16.0719 65.8289 16.3925 67.0676 16.1073L75.7526 14.1079C76.7154 13.8863 77.6957 14.4008 78.0602 15.319L81.3484 23.6025C81.8174 24.7839 82.82 25.6721 84.0493 25.9952L92.6687 28.261C93.6242 28.5121 94.2531 29.4233 94.1491 30.4058L93.2112 39.2685C93.0774 40.5325 93.5524 41.7849 94.4907 42.6423L101.07 48.6542C101.799 49.3206 101.933 50.4197 101.384 51.2413L96.4347 58.653C95.7289 59.71 95.5674 61.0397 95.9998 62.235L99.0315 70.6157C99.3676 71.5447 98.9749 72.5799 98.1074 73.0524L90.2806 77.3151C89.1644 77.9231 88.4035 79.0254 88.2309 80.2847L87.0206 89.1144C86.8864 90.0932 86.0577 90.8273 85.0699 90.8426L76.1587 90.9797C74.8878 90.9993 73.7018 91.6217 72.9637 92.6566L67.7887 99.9124C67.2151 100.717 66.1401 100.982 65.2584 100.536L57.3042 96.5163C56.1697 95.943 54.8303 95.943 53.6958 96.5163L45.7416 100.536C44.8599 100.982 43.7849 100.717 43.2113 99.9124L38.0363 92.6566C37.2982 91.6217 36.1122 90.9993 34.8413 90.9797L25.9301 90.8426C24.9423 90.8273 24.1136 90.0932 23.9794 89.1144L22.7691 80.2847C22.5965 79.0254 21.8356 77.9231 20.7194 77.3151L12.8926 73.0524C12.025 72.5799 11.6324 71.5447 11.9685 70.6157L15.0002 62.235C15.4326 61.0397 15.2711 59.71 14.5653 58.653L9.61604 51.2413C9.06741 50.4197 9.20086 49.3206 9.93016 48.6542L16.5093 42.6423C17.4477 41.7849 17.9226 40.5325 17.7888 39.2685L16.8509 30.4058C16.7469 29.4233 17.3758 28.5121 18.3313 28.261L26.9507 25.9952C28.18 25.6721 29.1826 24.7839 29.6516 23.6025L32.9398 15.319C33.3043 14.4008 34.2846 13.8863 35.2474 14.1079L43.9324 16.1073C45.1711 16.3925 46.4716 16.0719 47.4359 15.2438L54.1969 9.43725Z" stroke="black" stroke-width="2"/>
<path d="M26.8863 35.36L31.4435 34.1389L31.9001 35.8428L27.3428 37.0639L26.8863 35.36ZM28.0921 39.2112L33.2444 37.8306L33.7154 39.5886L26.386 41.5525L23.8495 32.0865L31.0032 30.1696L31.4742 31.9276L26.4978 33.2611L28.0921 39.2112ZM34.2842 39.4362L36.8509 32.7335L37.2785 34.3292L31.9236 29.923L34.4118 29.2563L38.1211 32.3352L37.0834 32.6277L38.7121 28.104L41.0922 27.4663L38.6595 33.8577L38.2392 32.289L43.8585 36.8708L41.3297 37.5484L37.4678 34.2785L38.4685 34.0103L36.7995 38.7622L34.2842 39.4362ZM46.5711 36.1439L44.513 28.4629L41.4838 29.2746L41.0055 27.4895L49.2545 25.2792L49.7328 27.0642L46.7037 27.8759L48.7618 35.5569L46.5711 36.1439ZM52.9697 34.4294L50.4332 24.9634L54.5307 23.8655C55.3781 23.6384 56.1458 23.5825 56.8338 23.6977C57.5193 23.8039 58.0976 24.0692 58.5689 24.4937C59.0402 24.9182 59.3712 25.4865 59.562 26.1988C59.7505 26.902 59.7467 27.5552 59.5509 28.1584C59.3526 28.7527 58.9831 29.2671 58.4426 29.7019C57.902 30.1366 57.208 30.4675 56.3606 30.6946L53.4802 31.4664L54.1966 30.2453L55.1604 33.8424L52.9697 34.4294ZM58.9874 32.817L55.7005 30.0163L58.04 29.3894L61.3539 32.1829L58.9874 32.817ZM54.2618 30.4887L53.0127 29.7219L55.7714 28.9827C56.4476 28.8015 56.9138 28.522 57.17 28.1441C57.4239 27.7573 57.482 27.3069 57.3443 26.793C57.2042 26.2701 56.9287 25.9091 56.5178 25.71C56.107 25.5109 55.5634 25.5019 54.8873 25.6831L52.1286 26.4223L52.8233 25.1201L54.2618 30.4887ZM61.6697 32.0983L63.3524 21.5017L65.5161 20.9219L72.2852 29.2539L69.9863 29.8698L64.2851 22.4403L65.1506 22.2084L63.9145 31.4968L61.6697 32.0983ZM63.2358 29.5046L63.3716 27.6854L68.2398 26.381L69.2805 27.8849L63.2358 29.5046Z" fill="black"/>
<path d="M37.7396 54.2335C36.9913 54.434 36.2703 54.5016 35.5764 54.4363C34.8891 54.3596 34.2519 54.1632 33.6647 53.847C33.0866 53.5285 32.5871 53.1067 32.1662 52.5818C31.7543 52.0544 31.453 51.4346 31.2621 50.7224C31.0713 50.0102 31.0224 49.3227 31.1154 48.6601C31.2174 47.995 31.4436 47.3788 31.794 46.8115C32.1445 46.2441 32.6038 45.7587 33.1721 45.3552C33.7379 44.9427 34.3995 44.6349 35.1568 44.432C35.9952 44.2074 36.7854 44.1454 37.5274 44.2461C38.2785 44.3444 38.9551 44.5979 39.5574 45.0066L38.4989 46.6817C38.0597 46.4129 37.6143 46.2472 37.1627 46.1846C36.7087 46.113 36.2428 46.1412 35.765 46.2692C35.3052 46.3924 34.9053 46.5769 34.5653 46.8226C34.2253 47.0683 33.9518 47.3638 33.7448 47.7091C33.5468 48.0521 33.4207 48.4289 33.3665 48.8396C33.3213 49.2478 33.3591 49.6774 33.4799 50.1281C33.5983 50.5699 33.7791 50.9562 34.0224 51.2872C34.2747 51.6158 34.5735 51.8836 34.9188 52.0906C35.2708 52.2861 35.6509 52.4065 36.0592 52.4517C36.4765 52.4945 36.9105 52.4555 37.3613 52.3347C37.794 52.2188 38.1951 52.0389 38.5645 51.7949C38.9406 51.5396 39.2778 51.1932 39.576 50.7557L41.2441 52.0045C40.8341 52.5299 40.3143 52.988 39.6847 53.379C39.0641 53.7675 38.4157 54.0524 37.7396 54.2335ZM39.1666 52.2568L38.2136 48.7003L40.215 48.164L41.2441 52.0045L39.1666 52.2568ZM48.1994 51.4308C47.4511 51.6313 46.7243 51.6956 46.019 51.6237C45.3227 51.5494 44.681 51.3542 44.0938 51.038C43.5157 50.7195 43.0162 50.2977 42.5953 49.7728C42.1834 49.2454 41.8833 48.6301 41.6949 47.9269C41.5065 47.2237 41.4587 46.5408 41.5517 45.8782C41.6538 45.2131 41.88 44.5969 42.2304 44.0295C42.5808 43.4622 43.039 42.9722 43.6048 42.5597C44.1707 42.1472 44.8232 41.8419 45.5625 41.6438C46.3108 41.4433 47.0285 41.3815 47.7158 41.4582C48.4121 41.5325 49.0493 41.7289 49.6275 42.0475C50.2146 42.3636 50.7186 42.7842 51.1395 43.3091C51.558 43.8251 51.8626 44.4391 52.0535 45.1514C52.2419 45.8545 52.2863 46.5432 52.1867 47.2173C52.0847 47.8823 51.8585 48.4985 51.508 49.0659C51.1642 49.6218 50.7094 50.1061 50.1435 50.5186C49.5867 50.9287 48.9386 51.2327 48.1994 51.4308ZM47.6858 49.5683C48.1096 49.4548 48.4779 49.2788 48.7908 49.0403C49.1128 48.7994 49.3728 48.5075 49.5708 48.1646C49.7688 47.8217 49.8903 47.4461 49.9356 47.0378C49.9898 46.6271 49.9565 46.1964 49.8357 45.7456C49.7149 45.2948 49.5284 44.9052 49.2761 44.5766C49.0328 44.2456 48.7397 43.9812 48.3968 43.7832C48.0628 43.5828 47.6963 43.4587 47.297 43.4111C46.8977 43.3635 46.4862 43.3965 46.0625 43.51C45.6388 43.6235 45.266 43.8007 44.944 44.0416C44.6311 44.2801 44.3756 44.5708 44.1776 44.9137C43.9796 45.2566 43.8535 45.6334 43.7993 46.0441C43.7541 46.4524 43.7919 46.8819 43.9126 47.3327C44.031 47.7744 44.213 48.1653 44.4588 48.5053C44.7111 48.8339 45.0042 49.0983 45.3381 49.2987C45.681 49.4967 46.0521 49.6195 46.4514 49.6672C46.8506 49.7148 47.2621 49.6818 47.6858 49.5683ZM54.9681 49.4432L52.4317 39.9772L54.6224 39.3902L56.6805 47.0712L61.4271 45.7994L61.9054 47.5844L54.9681 49.4432ZM63.1294 47.2564L60.593 37.7903L64.8933 36.6381C65.921 36.3627 66.8802 36.3183 67.7708 36.5048C68.6591 36.6823 69.4182 37.0634 70.0484 37.6483C70.6786 38.2331 71.1229 39.0078 71.3814 39.9725C71.6374 40.9281 71.64 41.8212 71.3891 42.6518C71.1358 43.4733 70.6701 44.1875 69.992 44.7944C69.3116 45.3922 68.4575 45.8288 67.4297 46.1042L63.1294 47.2564ZM64.8382 44.8709L66.8396 44.3346C67.4707 44.1655 67.9847 43.9021 68.3817 43.5446C68.7853 43.1755 69.0541 42.7363 69.1881 42.2269C69.3312 41.7151 69.323 41.1617 69.1636 40.5667C69.0018 39.9627 68.7321 39.4793 68.3547 39.1166C67.9839 38.7425 67.5328 38.5011 67.0011 38.3923C66.4761 38.2721 65.8981 38.2965 65.267 38.4656L63.2656 39.0019L64.8382 44.8709Z" fill="black"/>
<defs>
<linearGradient id="paint0_linear_10349_10704" x1="0" y1="55.5" x2="111" y2="55.5" gradientUnits="userSpaceOnUse">
<stop stop-color="#FDF621"/>
<stop offset="0.595" stop-color="#FDFCC3"/>
<stop offset="1" stop-color="#FDF973"/>
</linearGradient>
</defs>
</svg>
