<svg width="94" height="94" viewBox="0 0 94 94" fill="none" xmlns="http://www.w3.org/2000/svg">
<path d="M50.5834 2.41839C48.5223 0.648329 45.4777 0.648329 43.4166 2.41839L39.0305 6.18527C37.9457 7.11694 36.4826 7.47755 35.0891 7.15674L29.4548 5.85966C26.8073 5.25017 24.1113 6.6651 23.109 9.19022L20.9758 14.564C20.4482 15.8931 19.3203 16.8923 17.9373 17.2558L12.3456 18.7257C9.71811 19.4164 7.98854 21.9221 8.27446 24.6238L8.88294 30.3734C9.03344 31.7954 8.49911 33.2043 7.44347 34.1689L3.17537 38.069C1.16978 39.9017 0.802786 42.9242 2.31151 45.1835L5.52224 49.9917C6.31635 51.1809 6.49798 52.6768 6.01154 54.0215L4.04479 59.4583C3.12061 62.0131 4.20026 64.8599 6.58615 66.1594L11.6636 68.9247C12.9194 69.6087 13.7754 70.8488 13.9696 72.2655L14.7547 77.9936C15.1237 80.6852 17.4026 82.7042 20.1191 82.746L25.9001 82.835C27.3299 82.857 28.6641 83.5573 29.4945 84.7215L32.8517 89.4286C34.4292 91.6404 37.3854 92.3691 39.8102 91.1437L44.9703 88.5359C46.2466 87.891 47.7534 87.891 49.0297 88.5359L54.1898 91.1437C56.6146 92.3691 59.5708 91.6404 61.1483 89.4286L64.5055 84.7215C65.3359 83.5573 66.6701 82.857 68.0999 82.835L73.8809 82.746C76.5974 82.7042 78.8763 80.6852 79.2453 77.9936L80.0304 72.2655C80.2246 70.8488 81.0806 69.6087 82.3364 68.9247L87.4138 66.1594C89.7997 64.8599 90.8794 62.0131 89.9552 59.4583L87.9885 54.0215C87.502 52.6768 87.6836 51.1809 88.4778 49.9917L91.6885 45.1835C93.1972 42.9242 92.8302 39.9017 90.8246 38.069L86.5565 34.1689C85.5009 33.2043 84.9666 31.7954 85.1171 30.3734L85.7255 24.6238C86.0115 21.9221 84.2819 19.4164 81.6544 18.7257L76.0627 17.2558C74.6797 16.8923 73.5518 15.8931 73.0242 14.564L70.891 9.19022C69.8887 6.6651 67.1927 5.25017 64.5452 5.85966L58.9109 7.15674C57.5174 7.47755 56.0543 7.11694 54.9695 6.18527L50.5834 2.41839Z" fill="url(#paint0_linear_10349_10918)" stroke="black"/>
<path fill-rule="evenodd" clip-rule="evenodd" d="M55.0474 58.8972C55.1572 58.8035 55.2921 58.7428 55.4357 58.7225L62.1967 57.7675C62.438 57.7334 62.6797 57.8166 62.8442 57.9904L67.8741 63.3049C68.1147 63.559 68.1364 63.9464 67.926 64.23L57.6161 78.1279C57.4606 78.3375 57.2049 78.4527 56.9431 78.431L44.1859 77.3761C43.9818 77.3593 43.7949 77.2607 43.6689 77.1037C43.543 76.9467 43.4892 76.7451 43.5201 76.5462L44.8816 67.8061C44.9085 67.6332 44.9976 67.4748 45.1327 67.3595L55.0474 58.8972ZM55.8514 60.1377L47.6874 67.1057L52.6438 66.9347L60.1939 59.5243L55.8514 60.1377ZM62.2686 59.5442L53.8317 67.8249L57.2129 76.1998L66.361 63.868L62.2686 59.5442ZM55.8749 76.8748L52.4545 68.4028L46.2616 68.6165L45.1138 75.9849L55.8749 76.8748Z" fill="black"/>
<path d="M45.6969 8.36498C46.4464 7.72132 47.5536 7.72133 48.303 8.36498L53.5531 12.8739C54.5174 13.702 55.8179 14.0225 57.0566 13.7374L63.8007 12.1848C64.7634 11.9632 65.7438 12.4777 66.1083 13.3959L68.6616 19.8282C69.1306 21.0096 70.1332 21.8978 71.3625 22.2209L78.0556 23.9803C79.0111 24.2315 79.64 25.1427 79.536 26.1251L78.8077 33.0072C78.6739 34.2712 79.1489 35.5236 80.0872 36.381L80.7618 35.6428L80.0872 36.381L85.1961 41.0493C85.9254 41.7158 86.0588 42.8148 85.5102 43.6364L81.667 49.3917C80.9611 50.4488 80.7997 51.7785 81.2321 52.9737L83.5862 59.4815C83.9223 60.4105 83.5297 61.4457 82.6621 61.9183L76.5845 65.2283C75.4682 65.8363 74.7074 66.9386 74.5348 68.1979L73.595 75.0543C73.4608 76.0331 72.6321 76.7673 71.6443 76.7825L64.7246 76.889C63.4536 76.9085 62.2677 77.531 61.5296 78.5658L57.5111 84.2001C56.9374 85.0044 55.8625 85.2694 54.9807 84.8238L48.8041 81.7024C47.6697 81.1291 46.3303 81.1291 45.1958 81.7024L45.6469 82.5949L45.1958 81.7024L39.0192 84.8238C38.1375 85.2694 37.0625 85.0044 36.4889 84.2001L32.4704 78.5658C31.7323 77.531 30.5463 76.9085 29.2754 76.889L22.3557 76.7825C21.3679 76.7673 20.5392 76.0331 20.405 75.0543L19.4652 68.1979C19.2926 66.9386 18.5317 65.8363 17.4154 65.2283L11.3379 61.9183C10.4703 61.4458 10.0777 60.4105 10.4137 59.4815L12.7679 52.9737C13.2003 51.7785 13.0388 50.4488 12.333 49.3917L8.48979 43.6364C7.94117 42.8148 8.07462 41.7158 8.80392 41.0493L13.9128 36.381C14.8511 35.5236 15.3261 34.2712 15.1923 33.0072L14.4639 26.1251C14.36 25.1427 14.9889 24.2315 15.9444 23.9803L22.6375 22.2209C23.8668 21.8978 24.8694 21.0096 25.3384 19.8282L27.8917 13.3959C28.2562 12.4777 29.2365 11.9632 30.1993 12.1848L36.9434 13.7374C38.1821 14.0225 39.4826 13.702 40.4469 12.8739L45.6969 8.36498Z" stroke="black" stroke-width="2"/>
<path d="M22.6385 30.5215L26.8702 29.3876L27.2941 30.9698L23.0624 32.1037L22.6385 30.5215ZM23.7582 34.0976L28.5424 32.8156L28.9798 34.448L22.1739 36.2717L19.8187 27.4817L26.4613 25.7019L26.8987 27.3343L22.2777 28.5725L23.7582 34.0976ZM29.508 34.3065L31.8913 28.0826L32.2884 29.5643L27.316 25.4728L29.6265 24.8537L33.0708 27.7127L32.1073 27.9843L33.6196 23.7838L35.8297 23.1916L33.5707 29.1265L33.1804 27.6699L38.3984 31.9243L36.0502 32.5535L32.4642 29.5172L33.3934 29.2682L31.8436 33.6807L29.508 34.3065ZM40.9172 31.2494L39.0061 24.117L36.1933 24.8707L35.7492 23.2132L43.409 21.1607L43.8531 22.8183L41.0404 23.5719L42.9515 30.7043L40.9172 31.2494ZM46.8588 29.6574L44.5035 20.8675L48.3083 19.848C49.0952 19.6371 49.8081 19.5852 50.4469 19.6922C51.0834 19.7908 51.6205 20.0372 52.0581 20.4313C52.4957 20.8255 52.8031 21.3533 52.9803 22.0146C53.1552 22.6676 53.1518 23.2741 52.9699 23.8343C52.7858 24.3861 52.4427 24.8638 51.9408 25.2675C51.4388 25.6712 50.7944 25.9784 50.0075 26.1893L47.3328 26.9059L47.998 25.7721L48.893 29.1123L46.8588 29.6574ZM52.4467 28.1601L49.3946 25.5594L51.5669 24.9774L54.6441 27.5713L52.4467 28.1601ZM48.0586 25.9982L46.8988 25.2861L49.4604 24.5997C50.0883 24.4315 50.5212 24.1719 50.7591 23.821C50.9948 23.4618 51.0488 23.0436 50.9209 22.5664C50.7908 22.0809 50.535 21.7457 50.1535 21.5608C49.772 21.3759 49.2673 21.3675 48.6394 21.5358L46.0778 22.2222L46.7228 21.013L48.0586 25.9982ZM54.9374 27.4927L56.4999 17.653L58.509 17.1147L64.7946 24.8515L62.6599 25.4235L57.366 18.5246L58.1696 18.3092L57.0218 26.9342L54.9374 27.4927ZM56.3916 25.0843L56.5177 23.3951L61.0382 22.1838L62.0046 23.5803L56.3916 25.0843Z" fill="black"/>
<path d="M32.9213 46.7215C32.2265 46.9076 31.5569 46.9704 30.9126 46.9098C30.2744 46.8385 29.6827 46.6561 29.1375 46.3626C28.6007 46.0668 28.1368 45.6751 27.746 45.1877C27.3636 44.698 27.0837 44.1225 26.9065 43.4611C26.7293 42.7998 26.6839 42.1614 26.7703 41.5461C26.865 40.9286 27.075 40.3564 27.4004 39.8295C27.7258 39.3027 28.1524 38.8519 28.6801 38.4773C29.2055 38.0942 29.8198 37.8085 30.523 37.6201C31.3015 37.4115 32.0353 37.3539 32.7243 37.4474C33.4217 37.5387 34.05 37.7741 34.6093 38.1536L33.6264 39.709C33.2186 39.4594 32.805 39.3056 32.3857 39.2474C31.9641 39.1809 31.5314 39.2071 31.0878 39.326C30.6608 39.4404 30.2895 39.6117 29.9738 39.8399C29.6581 40.068 29.4041 40.3424 29.2119 40.6631C29.0281 40.9815 28.911 41.3314 28.8606 41.7128C28.8186 42.0919 28.8537 42.4907 28.9659 42.9093C29.0758 43.3195 29.2437 43.6783 29.4696 43.9856C29.7039 44.2907 29.9814 44.5394 30.3021 44.7316C30.6289 44.9132 30.9818 45.025 31.3609 45.0669C31.7484 45.1067 32.1514 45.0705 32.57 44.9583C32.9718 44.8506 33.3443 44.6836 33.6874 44.457C34.0365 44.2199 34.3496 43.8983 34.6266 43.4921L36.1755 44.6517C35.7948 45.1395 35.3121 45.5649 34.7275 45.928C34.1512 46.2887 33.5492 46.5532 32.9213 46.7215ZM34.2464 44.886L33.3615 41.5835L35.22 41.0855L36.1755 44.6517L34.2464 44.886ZM42.634 44.119C41.9392 44.3051 41.2643 44.3648 40.6094 44.2981C39.9628 44.2291 39.3669 44.0478 38.8217 43.7542C38.2848 43.4584 37.821 43.0668 37.4302 42.5793C37.0478 42.0896 36.7691 41.5183 36.5941 40.8653C36.4191 40.2124 36.3748 39.5782 36.4612 38.9629C36.5559 38.3454 36.766 37.7732 37.0914 37.2463C37.4168 36.7195 37.8422 36.2645 38.3676 35.8815C38.893 35.4985 39.499 35.215 40.1854 35.031C40.8803 34.8449 41.5468 34.7874 42.1849 34.8586C42.8315 34.9277 43.4232 35.1101 43.9601 35.4059C44.5053 35.6994 44.9733 36.0899 45.3641 36.5774C45.7527 37.0565 46.0356 37.6267 46.2128 38.288C46.3877 38.941 46.429 39.5804 46.3365 40.2064C46.2418 40.8239 46.0317 41.3961 45.7063 41.923C45.387 42.4392 44.9647 42.8888 44.4393 43.2719C43.9222 43.6527 43.3204 43.935 42.634 44.119ZM42.1571 42.3895C42.5506 42.284 42.8926 42.1206 43.1832 41.8992C43.4822 41.6755 43.7236 41.4045 43.9074 41.086C44.0913 40.7676 44.2042 40.4188 44.2461 40.0397C44.2965 39.6584 44.2656 39.2584 44.1534 38.8398C44.0413 38.4213 43.8681 38.0594 43.6338 37.7543C43.4079 37.447 43.1357 37.2014 42.8173 37.0176C42.5072 36.8315 42.1668 36.7163 41.7961 36.6721C41.4253 36.6279 41.0432 36.6585 40.6498 36.7639C40.2563 36.8693 39.9101 37.0339 39.6111 37.2575C39.3205 37.479 39.0833 37.7489 38.8995 38.0673C38.7156 38.3858 38.5985 38.7357 38.5482 39.117C38.5062 39.4961 38.5413 39.895 38.6534 40.3135C38.7634 40.7237 38.9324 41.0867 39.1605 41.4024C39.3948 41.7075 39.667 41.9531 39.9771 42.1392C40.2955 42.323 40.6401 42.437 41.0108 42.4813C41.3816 42.5255 41.7637 42.4949 42.1571 42.3895ZM48.9192 42.2733L46.564 33.4834L48.5982 32.9383L50.5093 40.0707L54.9169 38.8897L55.361 40.5473L48.9192 42.2733ZM56.4976 40.2427L54.1423 31.4528L58.1355 30.3828C59.0898 30.1271 59.9805 30.0859 60.8075 30.2591C61.6322 30.4239 62.3372 30.7778 62.9224 31.3209C63.5075 31.8639 63.9201 32.5833 64.1601 33.479C64.3979 34.3664 64.4003 35.1957 64.1673 35.967C63.932 36.7298 63.4996 37.393 62.87 37.9565C62.2382 38.5116 61.4451 38.917 60.4907 39.1728L56.4976 40.2427ZM58.0843 38.0276L59.9428 37.5296C60.5288 37.3726 61.0061 37.128 61.3747 36.796C61.7494 36.4533 61.9991 36.0455 62.1235 35.5725C62.2564 35.0972 62.2488 34.5834 62.1008 34.0308C61.9505 33.47 61.7001 33.0211 61.3497 32.6844C61.0054 32.337 60.5864 32.1128 60.0928 32.0118C59.6053 31.9001 59.0685 31.9228 58.4825 32.0798L56.6241 32.5778L58.0843 38.0276Z" fill="black"/>
<path d="M29.6042 64.2943C28.7696 64.5179 27.8986 64.6519 26.9912 64.6963C26.0837 64.7407 25.2573 64.6702 24.5119 64.4848L25.0923 61.0868C25.6946 61.2484 26.3 61.3284 26.9083 61.3269C27.5135 61.3138 28.0712 61.239 28.5812 61.1023C29.0448 60.9781 29.4056 60.7944 29.6635 60.5514C29.9213 60.3084 30.0084 60.0304 29.9245 59.7174C29.8779 59.5436 29.7854 59.4069 29.6469 59.3073C29.5053 59.1962 29.2919 59.1415 29.0067 59.1434C28.733 59.1422 28.347 59.2084 27.8486 59.3419L24.3191 60.2877L22.9477 52.7353L31.0325 50.569L31.8617 53.6638L25.22 55.4434L26.8185 53.133L27.7159 57.9426L25.1763 56.7409L28.0104 55.9816C29.2158 55.6586 30.2245 55.5746 31.0363 55.7298C31.8597 55.8819 32.5129 56.21 32.9959 56.7142C33.4873 57.2037 33.8293 57.8077 34.0218 58.5264C34.2144 59.245 34.2022 59.9875 33.9851 60.7538C33.7765 61.5054 33.3166 62.2001 32.6055 62.8379C31.9028 63.461 30.9024 63.9464 29.6042 64.2943ZM36.7627 65.0596L36.9141 59.7826L38.0748 61.8196C37.4025 61.9997 36.8007 61.956 36.2694 61.6884C35.7349 61.4092 35.3776 60.9335 35.1974 60.2612C35.0142 59.5774 35.0842 58.9809 35.4075 58.4719C35.7393 57.9482 36.2355 57.5978 36.8962 57.4208C37.5569 57.2438 38.156 57.3006 38.6936 57.5914C39.2396 57.8675 39.6043 58.3474 39.7875 59.0313C39.8372 59.2168 39.8695 59.4069 39.8844 59.6017C39.911 59.7933 39.9136 60.0349 39.8923 60.3263C39.8679 60.6062 39.8104 60.9943 39.7197 61.4907L39.1968 64.4074L36.7627 65.0596ZM40.6999 58.7868L40.0011 56.1788L43.1617 47.3189L47.3693 46.1915L44.3999 55.0002L42.3337 54.9389L51.7572 52.4138L52.6098 55.5956L40.6999 58.7868ZM47.5703 59.1821L47.0113 57.0957L46.2804 53.8814L45.782 52.021L49.6418 50.9867L51.5519 58.1153L47.5703 59.1821ZM59.3272 56.33C58.2492 56.6189 57.2262 56.6259 56.2581 56.3511C55.3016 56.0732 54.4584 55.5227 53.7284 54.6995C53.0101 53.8733 52.4708 52.7879 52.1105 51.4433C51.7503 50.0988 51.6746 48.8891 51.8836 47.8144C52.1041 46.7366 52.5591 45.8382 53.2485 45.1193C53.9496 44.3973 54.839 43.8918 55.917 43.603C56.995 43.3142 58.0122 43.3087 58.9688 43.5866C59.9369 43.8614 60.7801 44.4119 61.4984 45.2381C62.2283 46.0613 62.7734 47.1451 63.1337 48.4897C63.494 49.8343 63.5638 51.0455 63.3433 52.1233C63.1343 53.198 62.6793 54.0963 61.9783 54.8184C61.2889 55.5373 60.4052 56.0412 59.3272 56.33ZM58.4467 53.044C58.7133 52.9725 58.9261 52.8161 59.085 52.5748C59.244 52.3334 59.3208 51.9712 59.3156 51.488C59.322 51.0018 59.2211 50.3704 59.013 49.5938C58.8019 48.8056 58.5735 48.2084 58.328 47.8021C58.0909 47.3811 57.8432 47.1058 57.5849 46.9763C57.3266 46.8467 57.0641 46.8176 56.7975 46.8891C56.5309 46.9605 56.3182 47.1169 56.1592 47.3583C56.0003 47.5996 55.9176 47.9634 55.9112 48.4496C55.9133 48.9212 56.02 49.551 56.2312 50.3392C56.4393 51.1158 56.6618 51.7146 56.8989 52.1356C57.1475 52.5535 57.401 52.8272 57.6593 52.9568C57.9177 53.0863 58.1801 53.1154 58.4467 53.044ZM71.3654 53.1044C70.2875 53.3932 69.2644 53.4003 68.2963 53.1255C67.3398 52.8476 66.4966 52.297 65.7667 51.4739C65.0483 50.6477 64.509 49.5623 64.1488 48.2177C63.7885 46.8731 63.7128 45.6635 63.9218 44.5888C64.1424 43.511 64.5974 42.6126 65.2868 41.8937C65.9878 41.1716 66.8773 40.6662 67.9552 40.3774C69.0332 40.0885 70.0505 40.0831 71.007 40.361C71.9751 40.6358 72.8183 41.1863 73.5366 42.0125C74.2665 42.8356 74.8116 43.9195 75.1719 45.2641C75.5322 46.6086 75.6021 47.8198 75.3815 48.8976C75.1725 49.9723 74.7175 50.8707 74.0165 51.5927C73.3271 52.3117 72.4434 52.8156 71.3654 53.1044ZM70.4849 49.8183C70.7515 49.7469 70.9643 49.5905 71.1233 49.3491C71.2822 49.1078 71.3591 48.7455 71.3538 48.2624C71.3602 47.7762 71.2594 47.1448 71.0513 46.3682C70.8401 45.58 70.6117 44.9827 70.3662 44.5764C70.1292 44.1554 69.8815 43.8802 69.6231 43.7506C69.3648 43.6211 69.1023 43.592 68.8357 43.6634C68.5691 43.7349 68.3564 43.8913 68.1974 44.1326C68.0385 44.374 67.9558 44.7378 67.9494 45.224C67.9516 45.6955 68.0582 46.3254 68.2694 47.1136C68.4775 47.8902 68.7001 48.489 68.9371 48.91C69.1857 49.3279 69.4392 49.6016 69.6975 49.7311C69.9559 49.8607 70.2183 49.8898 70.4849 49.8183Z" fill="black"/>
<defs>
<linearGradient id="paint0_linear_10349_10918" x1="0" y1="47" x2="94" y2="47" gradientUnits="userSpaceOnUse">
<stop stop-color="#FDF621"/>
<stop offset="0.595" stop-color="#FDFCC3"/>
<stop offset="1" stop-color="#FDF973"/>
</linearGradient>
</defs>
</svg>
