<svg width="94" height="94" viewBox="0 0 94 94" fill="none" xmlns="http://www.w3.org/2000/svg">
<path d="M45.0454 1.67862C46.1696 0.713134 47.8304 0.713135 48.9546 1.67862L55.4105 7.2231C56.1337 7.84421 57.1091 8.08462 58.0381 7.87075L66.3312 5.96158C67.7753 5.62913 69.2458 6.40091 69.7926 7.77825L72.9324 15.6879C73.2841 16.5739 74.036 17.2401 74.958 17.4824L83.1884 19.6459C84.6216 20.0227 85.565 21.3894 85.4091 22.8631L84.5135 31.3259C84.4131 32.2739 84.7693 33.2132 85.4731 33.8562L91.7553 39.5968C92.8493 40.5964 93.0495 42.245 92.2265 43.4774L87.5007 50.5546C86.9712 51.3474 86.8502 52.3447 87.1745 53.2411L90.0693 61.2436C90.5734 62.6371 89.9845 64.19 88.6831 64.8987L81.2096 68.969C80.3724 69.425 79.8018 70.2517 79.6723 71.1962L78.5166 79.6274C78.3154 81.0956 77.0723 82.1969 75.5906 82.2197L67.0816 82.3506C66.1284 82.3653 65.2389 82.8322 64.6853 83.6083L59.7439 90.5367C58.8834 91.7431 57.2709 92.1406 55.9483 91.4722L48.3531 87.6338C47.5023 87.2038 46.4977 87.2038 45.6469 87.6338L38.0517 91.4722C36.7291 92.1406 35.1166 91.7431 34.2561 90.5367L29.3146 83.6083C28.7611 82.8321 27.8716 82.3653 26.9184 82.3506L18.4094 82.2197C16.9277 82.1969 15.6846 81.0956 15.4833 79.6274L14.3277 71.1962C14.1982 70.2517 13.6276 69.425 12.7904 68.969L5.31688 64.8987C4.01548 64.1899 3.42658 62.6371 3.93068 61.2436L6.82554 53.2411C7.14984 52.3447 7.02875 51.3474 6.49934 50.5546L1.77347 43.4774C0.950527 42.245 1.15071 40.5964 2.24466 39.5968L8.52689 33.8562C9.23065 33.2132 9.58687 32.2739 9.48654 31.3259L8.59091 22.8631C8.43496 21.3894 9.37836 20.0227 10.8116 19.6459L19.042 17.4824C19.964 17.2401 20.7159 16.5739 21.0676 15.6879L24.2074 7.77825C24.7542 6.40091 26.2247 5.62913 27.6688 5.96158L35.9619 7.87075C36.8909 8.08462 37.8663 7.84421 38.5895 7.2231L45.0454 1.67862Z" fill="#979ABE"/>
<path fill-rule="evenodd" clip-rule="evenodd" d="M55.0474 57.8967C55.1572 57.803 55.2921 57.7423 55.4357 57.722L62.1967 56.767C62.438 56.7329 62.6797 56.8161 62.8442 56.9899L67.8741 62.3044C68.1147 62.5585 68.1364 62.9459 67.926 63.2295L57.6161 77.1274C57.4606 77.337 57.2049 77.4522 56.9431 77.4306L44.1859 76.3756C43.9818 76.3588 43.7949 76.2603 43.6689 76.1033C43.543 75.9463 43.4892 75.7446 43.5201 75.5457L44.8816 66.8056C44.9085 66.6327 44.9976 66.4743 45.1327 66.359L55.0474 57.8967ZM55.8514 59.1372L47.6874 66.1052L52.6438 65.9342L60.1939 58.5238L55.8514 59.1372ZM62.2686 58.5437L53.8317 66.8244L57.2129 75.1993L66.361 62.8675L62.2686 58.5437ZM55.8749 75.8743L52.4545 67.4023L46.2616 67.6161L45.1138 74.9844L55.8749 75.8743Z" fill="black"/>
<path d="M45.6969 8.36498C46.4464 7.72132 47.5536 7.72133 48.303 8.36498L53.5531 12.8739C54.5174 13.702 55.8179 14.0225 57.0566 13.7374L63.8007 12.1848C64.7634 11.9632 65.7438 12.4777 66.1083 13.3959L68.6616 19.8282C69.1306 21.0096 70.1332 21.8978 71.3625 22.2209L78.0556 23.9803C79.0111 24.2315 79.64 25.1427 79.536 26.1251L78.8077 33.0072C78.6739 34.2712 79.1489 35.5236 80.0872 36.381L80.7618 35.6428L80.0872 36.381L85.1961 41.0493C85.9254 41.7158 86.0588 42.8148 85.5102 43.6364L81.667 49.3917C80.9611 50.4488 80.7997 51.7785 81.2321 52.9737L83.5862 59.4815C83.9223 60.4105 83.5297 61.4457 82.6621 61.9183L76.5845 65.2283C75.4682 65.8363 74.7074 66.9386 74.5348 68.1979L73.595 75.0543C73.4608 76.0331 72.6321 76.7673 71.6443 76.7825L64.7246 76.889C63.4536 76.9085 62.2677 77.531 61.5296 78.5658L57.5111 84.2001C56.9374 85.0044 55.8625 85.2694 54.9807 84.8238L48.8041 81.7024C47.6697 81.1291 46.3303 81.1291 45.1958 81.7024L45.6469 82.5949L45.1958 81.7024L39.0192 84.8238C38.1375 85.2694 37.0625 85.0044 36.4889 84.2001L32.4704 78.5658C31.7323 77.531 30.5463 76.9085 29.2754 76.889L22.3557 76.7825C21.3679 76.7673 20.5392 76.0331 20.405 75.0543L19.4652 68.1979C19.2926 66.9386 18.5317 65.8363 17.4154 65.2283L11.3379 61.9183C10.4703 61.4458 10.0777 60.4105 10.4137 59.4815L12.7679 52.9737C13.2003 51.7785 13.0388 50.4488 12.333 49.3917L8.48979 43.6364C7.94117 42.8148 8.07462 41.7158 8.80392 41.0493L13.9128 36.381C14.8511 35.5236 15.3261 34.2712 15.1923 33.0072L14.4639 26.1251C14.36 25.1427 14.9889 24.2315 15.9444 23.9803L22.6375 22.2209C23.8668 21.8978 24.8694 21.0096 25.3384 19.8282L27.8917 13.3959C28.2562 12.4777 29.2365 11.9632 30.1993 12.1848L36.9434 13.7374C38.1821 14.0225 39.4826 13.702 40.4469 12.8739L45.6969 8.36498Z" stroke="black" stroke-width="2"/>
<path d="M28.6488 30.0709L31.904 29.1987L32.2301 30.4158L28.9749 31.288L28.6488 30.0709ZM29.5101 32.8217L33.1903 31.8356L33.5268 33.0913L28.2914 34.4941L26.4797 27.7327L31.5895 26.3635L31.9259 27.6192L28.3713 28.5717L29.5101 32.8217ZM33.9331 32.9825L35.7664 28.1948L36.0718 29.3346L32.2469 26.1873L34.0242 25.7111L36.6737 27.9103L35.9325 28.1193L37.0958 24.8881L38.7959 24.4326L37.0582 28.9978L36.758 27.8774L40.7718 31.15L38.9655 31.634L36.207 29.2984L36.9218 29.1069L35.7297 32.5011L33.9331 32.9825ZM42.7094 30.6309L41.2393 25.1444L39.0756 25.7242L38.734 24.4491L44.6261 22.8703L44.9678 24.1454L42.8041 24.7251L44.2742 30.2116L42.7094 30.6309ZM47.2798 29.4062L45.4681 22.6447L48.3948 21.8605C49.0001 21.6983 49.5485 21.6584 50.0399 21.7407C50.5295 21.8165 50.9427 22.0061 51.2793 22.3093C51.6159 22.6125 51.8523 23.0184 51.9887 23.5272C52.1232 24.0294 52.1206 24.496 51.9807 24.9269C51.839 25.3514 51.5751 25.7189 51.189 26.0294C50.8029 26.3399 50.3072 26.5763 49.7019 26.7384L47.6445 27.2897L48.1562 26.4176L48.8446 28.9869L47.2798 29.4062ZM51.5782 28.2545L49.2304 26.254L50.9015 25.8062L53.2686 27.8015L51.5782 28.2545ZM48.2027 26.5914L47.3106 26.0437L49.2811 25.5157C49.764 25.3863 50.097 25.1866 50.2801 24.9167C50.4614 24.6404 50.5029 24.3187 50.4045 23.9516C50.3045 23.5781 50.1077 23.3203 49.8142 23.1781C49.5207 23.0358 49.1325 23.0294 48.6495 23.1588L46.6791 23.6868L47.1752 22.7567L48.2027 26.5914ZM53.4941 27.7411L54.6961 20.1721L56.2415 19.758L61.0766 25.7094L59.4346 26.1494L55.3623 20.8425L55.9805 20.6769L55.0976 27.3115L53.4941 27.7411ZM54.6127 25.8885L54.7097 24.5891L58.1871 23.6573L58.9304 24.7315L54.6127 25.8885ZM36.213 42.8486C35.6785 42.9918 35.1635 43.04 34.6679 42.9934C34.177 42.9386 33.7218 42.7983 33.3024 42.5725C32.8894 42.3449 32.5326 42.0437 32.232 41.6687C31.9378 41.292 31.7226 40.8493 31.5863 40.3406C31.45 39.8319 31.415 39.3408 31.4814 38.8675C31.5543 38.3925 31.7159 37.9523 31.9662 37.5471C32.2165 37.1418 32.5446 36.7951 32.9505 36.5069C33.3547 36.2122 33.8272 35.9924 34.3682 35.8475C34.967 35.687 35.5315 35.6428 36.0615 35.7147C36.5979 35.7849 37.0813 35.966 37.5115 36.2579L36.7554 37.4544C36.4417 37.2624 36.1235 37.144 35.801 37.0993C35.4767 37.0482 35.1439 37.0683 34.8026 37.1598C34.4742 37.2478 34.1886 37.3795 33.9457 37.555C33.7028 37.7305 33.5075 37.9416 33.3596 38.1883C33.2182 38.4332 33.1281 38.7024 33.0894 38.9957C33.0571 39.2874 33.0841 39.5942 33.1704 39.9161C33.2549 40.2317 33.3841 40.5076 33.5579 40.744C33.7381 40.9787 33.9515 41.17 34.1982 41.3179C34.4496 41.4576 34.7211 41.5436 35.0127 41.5758C35.3108 41.6064 35.6208 41.5786 35.9428 41.4923C36.2519 41.4095 36.5384 41.2809 36.8023 41.1067C37.0709 40.9243 37.3117 40.6769 37.5248 40.3644L38.7162 41.2564C38.4234 41.6317 38.0521 41.9589 37.6024 42.2382C37.1591 42.5157 36.696 42.7191 36.213 42.8486ZM37.2323 41.4366L36.5516 38.8962L37.9812 38.5132L38.7162 41.2564L37.2323 41.4366ZM43.6843 40.8466C43.1498 40.9898 42.6307 41.0358 42.1269 40.9844C41.6296 40.9313 41.1712 40.7919 40.7518 40.5661C40.3388 40.3385 39.982 40.0373 39.6814 39.6623C39.3872 39.2856 39.1728 38.8461 39.0382 38.3438C38.9036 37.8416 38.8696 37.3538 38.936 36.8804C39.0089 36.4054 39.1704 35.9652 39.4207 35.56C39.6711 35.1547 39.9983 34.8048 40.4025 34.5101C40.8067 34.2155 41.2728 33.9974 41.8008 33.8559C42.3353 33.7127 42.848 33.6685 43.3389 33.7233C43.8362 33.7764 44.2914 33.9167 44.7044 34.1442C45.1238 34.3701 45.4838 34.6704 45.7844 35.0454C46.0833 35.4139 46.3009 35.8526 46.4372 36.3613C46.5718 36.8636 46.6035 37.3555 46.5324 37.8369C46.4595 38.312 46.2979 38.7521 46.0476 39.1574C45.802 39.5545 45.4772 39.9004 45.073 40.195C44.6752 40.4879 44.2124 40.7051 43.6843 40.8466ZM43.3175 39.5162C43.6201 39.4351 43.8832 39.3094 44.1068 39.1391C44.3367 38.9671 44.5224 38.7586 44.6639 38.5136C44.8053 38.2687 44.8921 38.0004 44.9244 37.7087C44.9632 37.4154 44.9394 37.1077 44.8531 36.7858C44.7668 36.4638 44.6336 36.1854 44.4534 35.9508C44.2796 35.7143 44.0702 35.5254 43.8253 35.384C43.5868 35.2409 43.3249 35.1523 43.0397 35.1183C42.7546 35.0843 42.4606 35.1078 42.158 35.1889C41.8553 35.27 41.589 35.3966 41.359 35.5686C41.1355 35.7389 40.953 35.9466 40.8116 36.1915C40.6702 36.4365 40.5801 36.7056 40.5414 36.999C40.5091 37.2906 40.5361 37.5974 40.6223 37.9194C40.7069 38.2349 40.8369 38.5141 41.0124 38.757C41.1926 38.9916 41.402 39.1806 41.6405 39.3237C41.8855 39.4651 42.1505 39.5528 42.4357 39.5869C42.7209 39.6209 43.0148 39.5973 43.3175 39.5162ZM48.5191 39.4269L46.7074 32.6654L48.2722 32.2461L49.7423 37.7326L53.1327 36.8242L53.4743 38.0992L48.5191 39.4269ZM54.3486 37.8649L52.5369 31.1034L55.6085 30.2804C56.3426 30.0837 57.0278 30.0519 57.6639 30.1852C58.2984 30.3119 58.8406 30.5842 59.2908 31.0019C59.7409 31.4197 60.0582 31.973 60.2429 32.6621C60.4258 33.3447 60.4276 33.9826 60.2484 34.5759C60.0674 35.1627 59.7348 35.6728 59.2505 36.1063C58.7644 36.5333 58.1544 36.8452 57.4203 37.0419L54.3486 37.8649ZM55.5692 36.1609L56.9988 35.7779C57.4495 35.6571 57.8167 35.469 58.1002 35.2136C58.3885 34.95 58.5805 34.6363 58.6763 34.2724C58.7785 33.9068 58.7726 33.5115 58.6588 33.0865C58.5431 32.6551 58.3506 32.3098 58.081 32.0508C57.8161 31.7836 57.4939 31.6111 57.1141 31.5334C56.7391 31.4475 56.3262 31.465 55.8755 31.5858L54.4459 31.9688L55.5692 36.1609Z" fill="black"/>
<path d="M30.6112 61.9505C29.765 62.1772 28.8951 62.2922 28.0016 62.2956C27.1165 62.2843 26.3225 62.1492 25.6195 61.8903L26.1546 59.4362C26.7083 59.6481 27.3129 59.7719 27.9685 59.8074C28.6356 59.8399 29.2821 59.7722 29.908 59.6045C30.6151 59.4151 31.1342 59.1269 31.4653 58.74C31.7965 58.3531 31.8953 57.9104 31.7617 57.412C31.6779 57.0991 31.5222 56.8426 31.2947 56.6427C31.0672 56.4428 30.7277 56.3349 30.2763 56.3193C29.8364 56.3005 29.2456 56.3904 28.5038 56.5892L25.3915 57.4231L24.1819 50.4051L31.606 48.4158L32.2117 50.6761L25.796 52.3951L26.9117 50.7172L27.7862 55.7193L25.9809 54.824L28.5542 54.1345C29.7596 53.8115 30.7725 53.7203 31.5928 53.8607C32.4216 53.9865 33.0802 54.2883 33.5685 54.7662C34.0568 55.2441 34.3973 55.8424 34.5899 56.5611C34.7824 57.2797 34.7813 57.9943 34.5866 58.7049C34.3888 59.404 33.9644 60.0457 33.3135 60.6301C32.671 61.1997 31.7703 61.6399 30.6112 61.9505ZM37.5793 62.7295L37.6087 58.2492L38.4105 59.7115C37.9121 59.8451 37.4618 59.8105 37.0596 59.6077C36.669 59.4017 36.4054 59.0438 36.2687 58.5338C36.132 58.0238 36.1856 57.5746 36.4294 57.1862C36.6732 56.7979 37.0327 56.5401 37.508 56.4127C37.9948 56.2823 38.4366 56.3316 38.8334 56.5607C39.2272 56.7782 39.4908 57.1362 39.6243 57.6346C39.6647 57.7853 39.6935 57.9391 39.7107 58.096C39.7248 58.2413 39.725 58.4276 39.7114 58.6549C39.7062 58.8674 39.676 59.1488 39.6208 59.4991L39.3006 62.2683L37.5793 62.7295ZM40.484 56.3421L39.9762 54.4469L43.6453 45.1899L46.6011 44.3979L43.0537 53.6223L41.573 53.5905L51.153 51.0235L51.768 53.3185L40.484 56.3421ZM47.7236 57.1416L47.0388 54.5857L46.5108 52.2674L45.9005 49.9897L48.5606 49.277L50.4707 56.4055L47.7236 57.1416ZM58.5672 54.4597C57.5703 54.7268 56.6126 54.7225 55.6939 54.4469C54.7722 54.1597 53.9595 53.6072 53.2559 52.7894C52.5523 51.9717 52.0219 50.8963 51.6647 49.5633C51.3075 48.2303 51.2292 47.0339 51.4297 45.9738C51.6301 44.9138 52.0592 44.0348 52.717 43.3368C53.3716 42.6272 54.1974 42.1388 55.1942 41.8717C56.2026 41.6015 57.1619 41.6116 58.0721 41.9019C58.9907 42.1775 59.8019 42.7242 60.5055 43.542C61.2091 44.3597 61.7395 45.4351 62.0967 46.7681C62.4539 48.1011 62.5322 49.2976 62.3317 50.3576C62.1312 51.4176 61.7037 52.3024 61.049 53.012C60.4029 53.7069 59.5756 54.1895 58.5672 54.4597ZM57.9289 52.0777C58.4041 51.9504 58.7799 51.7068 59.0562 51.347C59.3441 50.9842 59.5089 50.4865 59.5507 49.8542C59.604 49.2187 59.508 48.4432 59.2627 47.5275C59.0173 46.6118 58.7127 45.8921 58.3487 45.3684C57.9964 44.8417 57.6048 44.4931 57.1741 44.3228C56.7549 44.1494 56.3077 44.1264 55.8325 44.2537C55.3688 44.3779 54.9931 44.6215 54.7052 44.9844C54.4289 45.3441 54.264 45.8418 54.2107 46.4772C54.1689 47.1096 54.2707 47.8836 54.5161 48.7993C54.7615 49.715 55.0603 50.4362 55.4126 50.963C55.7766 51.4866 56.1681 51.8352 56.5873 52.0086C57.0181 52.1789 57.4653 52.2019 57.9289 52.0777ZM70.3677 51.2977C69.3708 51.5648 68.4131 51.5606 67.4945 51.2849C66.5727 50.9977 65.76 50.4452 65.0564 49.6275C64.3528 48.8097 63.8224 47.7344 63.4652 46.4014C63.108 45.0684 63.0297 43.8719 63.2302 42.8119C63.4307 41.7519 63.8598 40.8729 64.5175 40.1749C65.1722 39.4652 65.9979 38.9769 66.9947 38.7098C68.0032 38.4396 68.9625 38.4496 69.8726 38.74C70.7913 39.0156 71.6024 39.5623 72.306 40.38C73.0096 41.1978 73.54 42.2732 73.8972 43.6061C74.2544 44.9391 74.3327 46.1356 74.1322 47.1956C73.9318 48.2556 73.5042 49.1404 72.8495 49.8501C72.2034 50.545 71.3761 51.0275 70.3677 51.2977ZM69.7294 48.9158C70.2047 48.7884 70.5804 48.5449 70.8567 48.1851C71.1446 47.8222 71.3094 47.3246 71.3512 46.6923C71.4045 46.0568 71.3085 45.2812 71.0632 44.3655C70.8178 43.4498 70.5132 42.7301 70.1492 42.2065C69.7969 41.6797 69.4054 41.3312 68.9746 41.1609C68.5554 40.9875 68.1082 40.9644 67.633 41.0918C67.1693 41.216 66.7936 41.4596 66.5057 41.8224C66.2294 42.1822 66.0646 42.6798 66.0112 43.3153C65.9695 43.9476 66.0713 44.7217 66.3166 45.6374C66.562 46.5531 66.8608 47.2743 67.2132 47.801C67.5771 48.3247 67.9686 48.6732 68.3878 48.8466C68.8186 49.017 69.2658 49.04 69.7294 48.9158Z" fill="black"/>
</svg>
