<svg width="408" height="221" viewBox="0 0 408 221" fill="none" xmlns="http://www.w3.org/2000/svg">
<path d="M362.802 80.9231C367.378 98.0015 299.648 130.988 211.524 154.601C123.399 178.214 48.2506 183.511 43.6745 166.433C39.0984 149.355 106.828 116.368 194.952 92.7549C283.077 69.142 358.225 63.8447 362.802 80.9231Z" fill="url(#paint0_radial_12527_130)"/>
<path opacity="0.3" d="M114.449 103.294C48.9208 128.403 6.15455 156.93 11.1161 175.447C17.8271 200.493 109.316 197.74 215.462 169.298C321.608 140.856 402.216 97.4961 395.505 72.4503C390.779 54.813 344.012 50.9611 279.691 60.1576" stroke="url(#paint1_linear_12527_130)" stroke-dasharray="2 2"/>
<path d="M199.389 0C148.578 0 107.389 41.1898 107.389 92C107.389 111.955 113.742 130.425 124.535 145.5C161.153 144.167 245.789 131.6 291.389 92C291.389 41.1898 250.199 0 199.389 0Z" fill="url(#paint2_radial_12527_130)"/>
<path fill-rule="evenodd" clip-rule="evenodd" d="M231.157 60.4379L186.585 105.384C183.978 104.42 181.518 103.152 179.249 101.624L227.336 53.1335C228.883 55.3908 230.171 57.84 231.157 60.4379ZM201.929 107.377C218.601 105.813 231.85 92.4758 233.278 75.7652L201.929 107.377ZM218.705 44.3709C213.036 40.3581 206.114 38 198.64 38C179.44 38 163.875 53.5649 163.875 72.7653C163.875 80.3429 166.299 87.3543 170.415 93.0662L218.705 44.3709ZM173.192 78.4581L204.606 46.9245C202.748 46.5086 200.817 46.2891 198.834 46.2891C184.309 46.2891 172.535 58.0637 172.535 72.5883C172.535 74.606 172.762 76.5707 173.192 78.4581Z" fill="#C3FF61"/>
<defs>
<radialGradient id="paint0_radial_12527_130" cx="0" cy="0" r="1" gradientUnits="userSpaceOnUse" gradientTransform="translate(203.393 123.096) rotate(74.8084) scale(38.4121 198.206)">
<stop offset="0.665"/>
<stop offset="1" stop-color="#49661B"/>
</radialGradient>
<linearGradient id="paint1_linear_12527_130" x1="207.322" y1="180.178" x2="179.14" y2="73.6314" gradientUnits="userSpaceOnUse">
<stop stop-color="#C3FF61"/>
<stop offset="1"/>
</linearGradient>
<radialGradient id="paint2_radial_12527_130" cx="0" cy="0" r="1" gradientUnits="userSpaceOnUse" gradientTransform="translate(188.389 23.5) rotate(75.5792) scale(108.416 137.103)">
<stop stop-color="#9DD443"/>
<stop offset="1"/>
</radialGradient>
</defs>
</svg>
