<svg width="222" height="228" viewBox="0 0 222 228" fill="none" xmlns="http://www.w3.org/2000/svg">
  <circle cx="56.7837" cy="56.1968" r="56.1968" fill="url(#paint0_radial_12230_10367)"/>
  <path fill-rule="evenodd" clip-rule="evenodd" d="M35.0869 33.5217H49.3744V46.8093C49.3744 47.3616 49.8222 47.8093 50.3744 47.8093H61.4714C62.0236 47.8093 62.4714 47.3616 62.4714 46.8093V33.5217H77.9495V78.7656H61.2807V68.6212C62.7491 67.3128 63.6738 65.4073 63.6738 63.2859C63.6738 59.3405 60.4754 56.1421 56.53 56.1421C52.5846 56.1421 49.3863 59.3405 49.3863 63.2859C49.3863 65.3959 50.3011 67.2923 51.7557 68.6V78.7656H35.0869V33.5217Z" fill="#E9FB46"/>
  <circle cx="134.087" cy="140.5" r="87.5" fill="url(#paint1_radial_12230_10367)"/>
  <g filter="url(#filter0_d_12230_10367)">
    <path fill-rule="evenodd" clip-rule="evenodd" d="M172.825 107.548L168.713 168.015L168.62 168.106C168.433 169.54 167.914 170.721 167.039 171.596C163.078 175.556 152.862 172.213 141.22 163.995L144.129 161.086C147.08 163.135 149.904 164.835 152.511 166.146C156.028 167.914 158.937 168.868 161.096 169.132C163.318 169.403 164.02 168.885 164.174 168.731C164.328 168.578 164.846 167.875 164.574 165.654C164.31 163.495 163.357 160.585 161.589 157.069C158.274 150.478 152.473 142.492 144.827 134.606L109.68 169.752L110.354 163.35L141.962 131.741C134.076 124.096 126.09 118.293 119.5 114.98C115.983 113.211 113.074 112.258 110.914 111.994C108.693 111.722 107.99 112.24 107.837 112.394C107.683 112.548 107.165 113.251 107.436 115.472C107.701 117.632 108.654 120.541 110.423 124.057C111.733 126.664 113.433 129.489 115.482 132.44L112.574 135.349C104.355 123.706 101.012 113.49 104.972 109.529C105.848 108.654 107.03 108.135 108.466 107.947C108.494 107.917 108.523 107.888 108.553 107.859L169.022 103.746L173.102 103.469L172.825 107.548ZM146.97 109.307L165.668 108.036L156.859 116.845C153.303 113.462 149.832 111.017 146.97 109.307M139.089 109.842L120.771 111.088C127.94 114.592 136.495 120.791 144.827 128.876L153.993 119.71C150.155 116.069 146.433 113.599 143.591 112.012C142.365 111.322 141.103 110.697 139.811 110.139C139.528 110.019 139.288 109.919 139.089 109.842ZM156.833 122.599L147.692 131.741C155.779 140.075 161.98 148.633 165.484 155.803L166.769 136.899C166.682 136.711 166.573 136.486 166.443 136.222C165.819 134.974 165.141 133.753 164.41 132.564C162.769 129.88 160.303 126.355 156.834 122.599M159.701 119.733C163.052 123.346 165.527 126.77 167.27 129.521L168.537 110.896L159.701 119.733ZM126.657 130.815L113.12 144.351L112.447 150.753L130.515 132.685L126.657 130.815ZM143.884 146.054L125.838 164.099L132.24 163.427L146.017 149.649L143.884 146.054Z" fill="url(#paint2_linear_12230_10367)"/>
  </g>
  <defs>
    <filter id="filter0_d_12230_10367" x="101.997" y="102.157" width="72.417" height="72.4146" filterUnits="userSpaceOnUse" color-interpolation-filters="sRGB">
      <feFlood flood-opacity="0" result="BackgroundImageFix"/>
      <feColorMatrix in="SourceAlpha" type="matrix" values="0 0 0 0 0 0 0 0 0 0 0 0 0 0 0 0 0 0 127 0" result="hardAlpha"/>
      <feOffset/>
      <feGaussianBlur stdDeviation="0.65625"/>
      <feComposite in2="hardAlpha" operator="out"/>
      <feColorMatrix type="matrix" values="0 0 0 0 1 0 0 0 0 0.426332 0 0 0 0 0.388542 0 0 0 0.8 0"/>
      <feBlend mode="normal" in2="BackgroundImageFix" result="effect1_dropShadow_12230_10367"/>
      <feBlend mode="normal" in="SourceGraphic" in2="effect1_dropShadow_12230_10367" result="shape"/>
    </filter>
    <radialGradient id="paint0_radial_12230_10367" cx="0" cy="0" r="1" gradientUnits="userSpaceOnUse" gradientTransform="translate(56.7837) rotate(90) scale(112.394)">
      <stop stop-color="#E9FB46"/>
      <stop offset="0.75"/>
    </radialGradient>
    <radialGradient id="paint1_radial_12230_10367" cx="0" cy="0" r="1" gradientUnits="userSpaceOnUse" gradientTransform="translate(134.087 53) rotate(90) scale(175)">
      <stop stop-color="#FF685E"/>
      <stop offset="0.75"/>
    </radialGradient>
    <linearGradient id="paint2_linear_12230_10367" x1="103.31" y1="103.469" x2="173.099" y2="173.262" gradientUnits="userSpaceOnUse">
      <stop stop-color="#FFB0AB"/>
      <stop offset="0.464" stop-color="#FF6D63"/>
      <stop offset="1" stop-color="#FF4337"/>
    </linearGradient>
  </defs>
</svg>
