<svg width="302" height="206" viewBox="0 0 302 206" fill="none" xmlns="http://www.w3.org/2000/svg">
<circle cx="149.009" cy="101.242" r="97.2427" fill="url(#paint0_radial_10185_2682)"/>
<path d="M150.403 147.515C124.982 147.515 104.374 126.907 104.374 101.486C104.374 76.0645 124.982 55.4565 150.403 55.4565C175.825 55.4565 196.433 76.0645 196.433 101.486C196.433 126.907 175.825 147.515 150.403 147.515Z" fill="#191919"/>
<path d="M150.403 142.584C127.705 142.584 109.305 124.184 109.305 101.486C109.305 78.7886 127.705 60.3887 150.403 60.3887C173.1 60.3887 191.5 78.7886 191.5 101.486C191.5 124.184 173.1 142.584 150.403 142.584Z" fill="#F0F0F0"/>
<path d="M150.405 131.076C134.063 131.076 120.815 117.828 120.815 101.486C120.815 85.144 134.063 71.896 150.405 71.896C166.747 71.896 179.995 85.144 179.995 101.486C179.995 117.828 166.747 131.076 150.405 131.076Z" fill="#191919"/>
<path d="M36.25 139.142C15.358 157.512 4.55612 172.27 8.61744 179.305C17.0319 193.879 86.0619 169.778 162.8 125.473C239.539 81.1679 294.926 33.4369 286.511 18.8625C282.461 11.8469 264.365 13.7931 238.125 22.6406" stroke="url(#paint1_linear_10185_2682)"/>
<defs>
<radialGradient id="paint0_radial_10185_2682" cx="0" cy="0" r="1" gradientUnits="userSpaceOnUse" gradientTransform="translate(63.3088 68.3473) rotate(24.7366) scale(149.64)">
<stop stop-color="#9399CA"/>
<stop offset="1"/>
</radialGradient>
<linearGradient id="paint1_linear_10185_2682" x1="157.645" y1="133.764" x2="127.573" y2="81.4139" gradientUnits="userSpaceOnUse">
<stop stop-color="white"/>
<stop offset="1"/>
</linearGradient>
</defs>
</svg>
