<svg width="362" height="208" viewBox="0 0 362 208" fill="none" xmlns="http://www.w3.org/2000/svg">
<g opacity="0.5">
<circle cx="65.9121" cy="42.5" r="23.5" fill="url(#paint0_radial_9613_32900)"/>
<path d="M66.2481 55.1481C59.2944 55.1481 53.6573 49.511 53.6573 42.5573C53.6573 35.6036 59.2944 29.9666 66.2481 29.9666C73.2018 29.9666 78.8389 35.6036 78.8389 42.5573C78.8389 49.511 73.2018 55.1481 66.2481 55.1481Z" fill="#191919"/>
<path d="M66.2475 53.798C60.0388 53.798 55.0057 48.7649 55.0057 42.5562C55.0057 36.3476 60.0388 31.3145 66.2475 31.3145C72.4561 31.3145 77.4893 36.3476 77.4893 42.5562C77.4893 48.7649 72.4561 53.798 66.2475 53.798Z" fill="#F0F0F0"/>
<path d="M66.2467 50.6506C61.7765 50.6506 58.1527 47.0267 58.1527 42.5565C58.1527 38.0862 61.7765 34.4624 66.2467 34.4624C70.717 34.4624 74.3408 38.0862 74.3408 42.5565C74.3408 47.0267 70.717 50.6506 66.2467 50.6506Z" fill="#191919"/>
</g>
<circle cx="188.412" cy="104" r="104" fill="url(#paint1_radial_9613_32900)"/>
<g filter="url(#filter0_d_9613_32900)">
<path fill-rule="evenodd" clip-rule="evenodd" d="M234.456 64.8343L229.569 136.704L229.459 136.811C229.236 138.516 228.619 139.92 227.579 140.96C222.871 145.667 210.729 141.693 196.891 131.925L200.348 128.467C203.856 130.903 207.213 132.924 210.312 134.481C214.491 136.584 217.949 137.717 220.516 138.031C223.156 138.354 223.991 137.738 224.174 137.555C224.357 137.372 224.972 136.537 224.65 133.897C224.336 131.331 223.202 127.873 221.101 123.693C217.161 115.86 210.266 106.368 201.179 96.9938L159.404 138.768L160.204 131.158L197.773 93.5893C188.4 84.502 178.908 77.6057 171.075 73.6671C166.895 71.5654 163.438 70.432 160.871 70.1181C158.231 69.7956 157.395 70.4113 157.213 70.5936C157.03 70.7767 156.414 71.6119 156.737 74.252C157.051 76.8191 158.184 80.2766 160.287 84.4562C161.844 87.5547 163.865 90.912 166.3 94.4195L162.843 97.8769C153.075 84.0393 149.101 71.8965 153.808 67.1891C154.849 66.148 156.254 65.5316 157.961 65.3084C157.994 65.2727 158.029 65.2377 158.064 65.2033L229.936 60.315L234.785 59.9861L234.456 64.8343ZM203.726 66.9253L225.949 65.4136L215.479 75.8845C211.253 71.8636 207.127 68.9568 203.726 66.9245M194.358 67.561L172.586 69.0419C181.107 73.2065 191.275 80.5748 201.179 90.1841L212.073 79.2898C207.511 74.9621 203.088 72.0259 199.71 70.1396C198.252 69.3196 196.752 68.5766 195.216 67.9135C194.881 67.7705 194.595 67.6525 194.358 67.561ZM215.449 82.7236L204.584 93.5886C214.196 103.495 221.566 113.666 225.73 122.189L227.258 99.7197C227.155 99.4966 227.026 99.2284 226.871 98.9152C226.129 97.4312 225.323 95.9806 224.454 94.5675C222.504 91.3768 219.573 87.1871 215.449 82.7229M218.857 79.3162C222.84 83.611 225.782 87.6805 227.854 90.9506L229.359 68.8131L218.857 79.3162ZM179.582 92.4881L163.492 108.577L162.693 116.187L184.168 94.7113L179.582 92.4881ZM200.057 110.601L178.608 132.049L186.218 131.25L202.593 114.874L200.057 110.601Z" fill="url(#paint2_linear_9613_32900)"/>
</g>
<path d="M315.174 111.448C341.726 127.565 356.349 143.628 353.009 156.096C346.069 181.995 264.232 182.571 170.222 157.381C76.2109 132.191 5.62598 90.774 12.5658 64.8741C14.7813 56.6061 24.6293 50.9188 40.0695 47.8266" stroke="url(#paint3_linear_9613_32900)"/>
<circle cx="281.412" cy="177" r="30" fill="url(#paint4_radial_9613_32900)"/>
<path fill-rule="evenodd" clip-rule="evenodd" d="M269.825 164.895H277.452V171.522C277.452 172.074 277.9 172.522 278.452 172.522H283.444C283.996 172.522 284.444 172.074 284.444 171.522V164.895H292.707V189.047H283.808V183.631C284.592 182.932 285.085 181.915 285.085 180.783C285.085 178.677 283.378 176.969 281.272 176.969C279.166 176.969 277.458 178.677 277.458 180.783C277.458 181.91 277.947 182.922 278.724 183.621V189.047H269.825V164.895Z" fill="#E9FB46"/>
<defs>
<filter id="filter0_d_9613_32900" x="150.52" y="58.6736" width="85.5781" height="85.5747" filterUnits="userSpaceOnUse" color-interpolation-filters="sRGB">
<feFlood flood-opacity="0" result="BackgroundImageFix"/>
<feColorMatrix in="SourceAlpha" type="matrix" values="0 0 0 0 0 0 0 0 0 0 0 0 0 0 0 0 0 0 127 0" result="hardAlpha"/>
<feOffset/>
<feGaussianBlur stdDeviation="0.65625"/>
<feComposite in2="hardAlpha" operator="out"/>
<feColorMatrix type="matrix" values="0 0 0 0 1 0 0 0 0 0.426332 0 0 0 0 0.388542 0 0 0 0.8 0"/>
<feBlend mode="normal" in2="BackgroundImageFix" result="effect1_dropShadow_9613_32900"/>
<feBlend mode="normal" in="SourceGraphic" in2="effect1_dropShadow_9613_32900" result="shape"/>
</filter>
<radialGradient id="paint0_radial_9613_32900" cx="0" cy="0" r="1" gradientUnits="userSpaceOnUse" gradientTransform="translate(45.2014 34.5504) rotate(24.7366) scale(36.1624)">
<stop stop-color="#9399CA"/>
<stop offset="1"/>
</radialGradient>
<radialGradient id="paint1_radial_9613_32900" cx="0" cy="0" r="1" gradientUnits="userSpaceOnUse" gradientTransform="translate(188.412) rotate(90) scale(208)">
<stop stop-color="#FF685E"/>
<stop offset="0.75"/>
</radialGradient>
<linearGradient id="paint2_linear_9613_32900" x1="151.832" y1="59.9861" x2="234.782" y2="142.939" gradientUnits="userSpaceOnUse">
<stop stop-color="#FFB0AB"/>
<stop offset="0.464" stop-color="#FF6D63"/>
<stop offset="1" stop-color="#FF4337"/>
</linearGradient>
<linearGradient id="paint3_linear_9613_32900" x1="159.189" y1="162.016" x2="184.38" y2="69.1815" gradientUnits="userSpaceOnUse">
<stop stop-color="#E55D54"/>
<stop offset="1"/>
</linearGradient>
<radialGradient id="paint4_radial_9613_32900" cx="0" cy="0" r="1" gradientUnits="userSpaceOnUse" gradientTransform="translate(281.412 147) rotate(90) scale(60)">
<stop stop-color="#E9FB46"/>
<stop offset="0.75"/>
</radialGradient>
</defs>
</svg>
