<svg width="341" height="197" viewBox="0 0 341 197" fill="none" xmlns="http://www.w3.org/2000/svg">
<g opacity="0.5">
<circle cx="60.3068" cy="120.599" r="22.1554" fill="url(#paint0_radial_10185_2691)"/>
<path d="M60.6237 132.523C54.0679 132.523 48.7533 127.209 48.7533 120.653C48.7533 114.097 54.0679 108.782 60.6237 108.782C67.1796 108.782 72.4941 114.097 72.4941 120.653C72.4941 127.209 67.1796 132.523 60.6237 132.523Z" fill="#191919"/>
<path d="M60.6241 131.25C54.7707 131.25 50.0255 126.505 50.0255 120.652C50.0255 114.798 54.7707 110.053 60.6241 110.053C66.4775 110.053 71.2227 114.798 71.2227 120.652C71.2227 126.505 66.4775 131.25 60.6241 131.25Z" fill="#F0F0F0"/>
<path d="M60.6229 128.283C56.4085 128.283 52.992 124.866 52.992 120.652C52.992 116.437 56.4085 113.021 60.6229 113.021C64.8374 113.021 68.2539 116.437 68.2539 120.652C68.2539 124.866 64.8374 128.283 60.6229 128.283Z" fill="#191919"/>
</g>
<circle cx="177.657" cy="98.4588" r="98.0496" fill="url(#paint1_radial_10185_2691)"/>
<path fill-rule="evenodd" clip-rule="evenodd" d="M183.714 52.1607C183.064 51.7968 182.33 51.6055 181.583 51.6055C180.836 51.6055 180.102 51.7968 179.452 52.1607L142.991 72.5813C141.061 73.6619 141.838 76.5714 144.056 76.5714H219.11C221.329 76.5714 222.105 73.6626 220.175 72.5813L183.714 52.1607ZM169.703 111.31C166.684 113.586 162.832 114.951 158.637 114.951C148.943 114.951 141.084 107.665 141.084 98.6798C141.084 89.6948 148.943 82.4092 158.637 82.4092H205.444C215.139 82.4092 222.997 89.6941 222.997 98.6798C222.997 107.666 215.139 114.951 205.444 114.951C201.249 114.951 197.398 113.586 194.378 111.31C193.002 110.273 191.381 109.527 189.651 109.527H174.43C172.7 109.527 171.079 110.273 169.703 111.31ZM202.87 98.6337C202.87 100.311 201.403 101.67 199.593 101.67C197.783 101.67 196.317 100.311 196.317 98.633C196.317 96.956 197.783 95.5967 199.593 95.5967C201.403 95.5967 202.87 96.956 202.87 98.633V98.6337ZM212.699 101.67C214.509 101.67 215.976 100.311 215.976 98.633C215.976 96.956 214.509 95.5967 212.699 95.5967C210.89 95.5967 209.423 96.956 209.423 98.633C209.423 100.311 210.89 101.67 212.699 101.67ZM206.146 95.596C204.336 95.596 202.87 94.2367 202.87 92.559C202.87 90.882 204.336 89.5219 206.146 89.5219C207.956 89.5219 209.423 90.882 209.423 92.559C209.423 94.2367 207.956 95.596 206.146 95.596ZM202.87 104.708C202.87 106.385 204.336 107.745 206.146 107.745C207.956 107.745 209.423 106.385 209.423 104.708C209.423 103.03 207.956 101.67 206.146 101.67C204.336 101.67 202.87 103.03 202.87 104.708ZM144.682 120.71H219.187C220.59 120.71 221.727 121.768 221.727 123.072C221.727 124.376 220.59 125.432 219.187 125.432H144.682C143.28 125.432 142.142 124.376 142.142 123.072C142.142 121.768 143.28 120.71 144.682 120.71ZM224.056 128.58H139.813C138.411 128.58 137.274 129.637 137.274 130.941C137.274 132.245 138.412 133.302 139.814 133.302H224.056C225.458 133.302 226.595 132.245 226.595 130.941C226.595 129.637 225.458 128.58 224.056 128.58ZM160.707 104.862C160.707 105.412 160.256 105.857 159.7 105.857H156.343C156.076 105.857 155.82 105.752 155.631 105.566C155.443 105.379 155.336 105.126 155.336 104.863V101.215H151.644C151.377 101.215 151.121 101.11 150.932 100.923C150.743 100.737 150.637 100.484 150.637 100.22V96.9027C150.637 96.3538 151.088 95.9086 151.644 95.9086H155.336V92.26C155.336 91.7104 155.787 91.2659 156.343 91.2659H159.7C160.256 91.2659 160.707 91.7104 160.707 92.26V95.9079H164.399C164.956 95.9079 165.406 96.3538 165.406 96.9027V100.219C165.406 100.35 165.38 100.479 165.33 100.6C165.279 100.72 165.205 100.83 165.112 100.922C165.018 101.014 164.907 101.088 164.785 101.138C164.663 101.188 164.532 101.213 164.4 101.213H160.706V104.861L160.707 104.862Z" fill="url(#paint2_linear_10185_2691)"/>
<path d="M276.248 41.5112C305.531 41.7572 325.125 47.7137 328.433 59.424C335.307 83.751 269.296 123.697 180.994 148.646C92.6929 173.594 15.5383 174.098 8.66495 149.771C6.47076 142.005 11.7041 132.647 22.719 122.694" stroke="url(#paint3_linear_10185_2691)"/>
<circle cx="295.955" cy="102.955" r="29.9552" fill="url(#paint4_radial_10185_2691)"/>
<g filter="url(#filter0_d_10185_2691)">
<path fill-rule="evenodd" clip-rule="evenodd" d="M309.216 91.6745L307.809 112.375L307.777 112.406C307.713 112.897 307.535 113.301 307.235 113.601C305.879 114.957 302.382 113.812 298.396 110.999L299.392 110.003C300.402 110.704 301.369 111.286 302.262 111.735C303.466 112.341 304.462 112.667 305.201 112.757C305.961 112.85 306.202 112.673 306.255 112.62C306.307 112.568 306.485 112.327 306.392 111.567C306.301 110.828 305.975 109.831 305.37 108.628C304.235 106.371 302.249 103.637 299.631 100.937L287.599 112.97L287.829 110.778L298.65 99.9568C295.951 97.3394 293.217 95.3531 290.961 94.2186C289.757 93.6133 288.761 93.2868 288.021 93.1964C287.261 93.1035 287.02 93.2809 286.968 93.3334C286.915 93.3861 286.738 93.6267 286.831 94.3871C286.921 95.1265 287.248 96.1224 287.853 97.3262C288.302 98.2187 288.884 99.1857 289.585 100.196L288.589 101.192C285.776 97.2062 284.631 93.7087 285.987 92.3528C286.287 92.0529 286.692 91.8753 287.183 91.8111C287.193 91.8008 287.203 91.7907 287.213 91.7808L307.914 90.3728L309.311 90.2781L309.216 91.6745ZM300.365 92.2768L306.766 91.8414L303.75 94.8573C302.533 93.6992 301.345 92.8619 300.365 92.2766M297.667 92.4599L291.396 92.8864C293.85 94.086 296.779 96.2083 299.631 98.976L302.769 95.8381C301.455 94.5916 300.181 93.7459 299.208 93.2026C298.788 92.9664 298.356 92.7524 297.914 92.5614C297.817 92.5202 297.735 92.4862 297.667 92.4599ZM303.742 96.8272L300.612 99.9566C303.381 102.81 305.504 105.74 306.703 108.194L307.143 101.723C307.113 101.658 307.076 101.581 307.031 101.491C306.818 101.063 306.586 100.646 306.335 100.239C305.774 99.3196 304.929 98.1128 303.742 96.827M304.723 95.8458C305.87 97.0828 306.718 98.2549 307.315 99.1968L307.748 92.8205L304.723 95.8458ZM293.411 99.6397L288.776 104.274L288.546 106.466L294.732 100.28L293.411 99.6397ZM299.308 104.857L293.13 111.035L295.322 110.804L300.039 106.087L299.308 104.857Z" fill="url(#paint5_linear_10185_2691)"/>
</g>
<circle cx="101.284" cy="161.284" r="28.2835" fill="url(#paint6_radial_10185_2691)"/>
<path fill-rule="evenodd" clip-rule="evenodd" d="M90.3594 149.871H97.5502V156.061C97.5502 156.614 97.9979 157.061 98.5502 157.061H103.142C103.694 157.061 104.142 156.614 104.142 156.061V149.871H111.932V172.642H103.543V167.535C104.281 166.876 104.746 165.917 104.746 164.85C104.746 162.864 103.137 161.255 101.151 161.255C99.1654 161.255 97.5557 162.864 97.5557 164.85C97.5557 165.912 98.0163 166.867 98.7487 167.525V172.642H90.3594V149.871Z" fill="#E9FB46"/>
<defs>
<filter id="filter0_d_10185_2691" x="284.105" y="88.9656" width="26.5176" height="26.5171" filterUnits="userSpaceOnUse" color-interpolation-filters="sRGB">
<feFlood flood-opacity="0" result="BackgroundImageFix"/>
<feColorMatrix in="SourceAlpha" type="matrix" values="0 0 0 0 0 0 0 0 0 0 0 0 0 0 0 0 0 0 127 0" result="hardAlpha"/>
<feOffset/>
<feGaussianBlur stdDeviation="0.65625"/>
<feComposite in2="hardAlpha" operator="out"/>
<feColorMatrix type="matrix" values="0 0 0 0 1 0 0 0 0 0.426332 0 0 0 0 0.388542 0 0 0 0.8 0"/>
<feBlend mode="normal" in2="BackgroundImageFix" result="effect1_dropShadow_10185_2691"/>
<feBlend mode="normal" in="SourceGraphic" in2="effect1_dropShadow_10185_2691" result="shape"/>
</filter>
<radialGradient id="paint0_radial_10185_2691" cx="0" cy="0" r="1" gradientUnits="userSpaceOnUse" gradientTransform="translate(40.7811 113.104) rotate(24.7366) scale(34.0934)">
<stop stop-color="#9399CA"/>
<stop offset="1"/>
</radialGradient>
<radialGradient id="paint1_radial_10185_2691" cx="0" cy="0" r="1" gradientUnits="userSpaceOnUse" gradientTransform="translate(212.979 43.9804) rotate(103.039) scale(156.565)">
<stop stop-color="#BC53FF"/>
<stop offset="0.75"/>
</radialGradient>
<linearGradient id="paint2_linear_10185_2691" x1="169.614" y1="41.0463" x2="482.798" y2="235.375" gradientUnits="userSpaceOnUse">
<stop stop-color="#AE6FFF"/>
<stop offset="0.544" stop-color="#5D01D2"/>
</linearGradient>
<linearGradient id="paint3_linear_10185_2691" x1="174.294" y1="157.722" x2="149.913" y2="70.3733" gradientUnits="userSpaceOnUse">
<stop stop-color="#8B3DBC"/>
<stop offset="1"/>
</linearGradient>
<radialGradient id="paint4_radial_10185_2691" cx="0" cy="0" r="1" gradientUnits="userSpaceOnUse" gradientTransform="translate(295.955 73) rotate(90) scale(59.9105)">
<stop stop-color="#FF685E"/>
<stop offset="0.75"/>
</radialGradient>
<linearGradient id="paint5_linear_10185_2691" x1="285.418" y1="90.2781" x2="309.31" y2="114.171" gradientUnits="userSpaceOnUse">
<stop stop-color="#FFB0AB"/>
<stop offset="0.464" stop-color="#FF6D63"/>
<stop offset="1" stop-color="#FF4337"/>
</linearGradient>
<radialGradient id="paint6_radial_10185_2691" cx="0" cy="0" r="1" gradientUnits="userSpaceOnUse" gradientTransform="translate(101.284 133) rotate(90) scale(56.5671)">
<stop stop-color="#E9FB46"/>
<stop offset="0.75"/>
</radialGradient>
</defs>
</svg>
