<svg width="169" height="27" viewBox="0 0 169 27" fill="none" xmlns="http://www.w3.org/2000/svg">
<path fill-rule="evenodd" clip-rule="evenodd" d="M50.9992 9.22492L40.389 13.7149L50.9992 18.2049C49.4028 21.31 46.2024 23.4297 42.5145 23.4297C37.2317 23.4297 32.9492 19.0802 32.9492 13.7149C32.9492 8.34957 37.2317 4.00012 42.5145 4.00012C46.2024 4.00012 49.4028 6.11975 50.9992 9.22492Z" fill="#B2E810"/>
<mask id="mask0_9613_25127" style="mask-type:luminance" maskUnits="userSpaceOnUse" x="34" y="5" width="16" height="17">
<path d="M48.7344 9.71104C47.4187 7.57723 45.0841 6.15971 42.4242 6.15971C38.3154 6.15971 34.9846 9.54261 34.9846 13.7156C34.9846 17.8887 38.3154 21.2716 42.4242 21.2716C45.0841 21.2716 47.4187 19.854 48.7344 17.7203L48.8911 17.4936L48.9709 17.3371L49.4498 17.5435C49.3803 17.6747 49.3074 17.8037 49.2311 17.9305C47.831 20.2579 45.3062 21.8113 42.4242 21.8113C38.0219 21.8113 34.4531 18.1867 34.4531 13.7156C34.4531 9.24454 38.0219 5.62 42.4242 5.62C45.3062 5.62 47.831 7.17341 49.2311 9.50081C49.3066 9.62625 49.3788 9.75393 49.4476 9.88374L48.9549 10.0888L48.8911 9.93767L48.7344 9.71104Z" fill="white"/>
</mask>
<g mask="url(#mask0_9613_25127)">
<path d="M48.7326 9.71059L48.2822 9.99703L48.2897 10.0092L48.2977 10.0209L48.7326 9.71059ZM48.7326 17.7198L48.2978 17.4096L48.2897 17.4212L48.2822 17.4334L48.7326 17.7198ZM48.8894 9.93722L49.3778 9.72462L49.356 9.67295L49.3241 9.62696L48.8894 9.93722ZM48.9531 10.0883L48.4647 10.3009L48.6707 10.7892L49.1546 10.5877L48.9531 10.0883ZM49.448 17.543L49.916 17.7986L50.1919 17.2774L49.6556 17.0463L49.448 17.543ZM48.8894 17.4931L49.3241 17.8034L49.3449 17.7736L49.3614 17.7411L48.8894 17.4931ZM48.9691 17.3366L49.1767 16.8398L48.7233 16.6444L48.4971 17.0887L48.9691 17.3366ZM49.4458 9.88329L49.6473 10.3827L50.1935 10.1554L49.9137 9.62747L49.4458 9.88329ZM42.4224 6.69896C44.8917 6.69896 47.0596 8.01423 48.2822 9.99703L49.183 9.42414C47.7742 7.13932 45.2729 5.61955 42.4224 5.61955V6.69896ZM35.5141 13.7152C35.5141 9.84023 38.6071 6.69896 42.4224 6.69896V5.61955C38.0201 5.61955 34.4513 9.24409 34.4513 13.7152H35.5141ZM42.4224 20.7314C38.6071 20.7314 35.5141 17.5902 35.5141 13.7152H34.4513C34.4513 18.1863 38.0201 21.8108 42.4224 21.8108V20.7314ZM48.2822 17.4334C47.0596 19.4162 44.8917 20.7314 42.4224 20.7314V21.8108C45.2729 21.8108 47.7742 20.291 49.183 18.0063L48.2822 17.4334ZM48.7759 17.6486C47.4683 19.8223 45.1117 21.2711 42.4224 21.2711V22.3505C45.4972 22.3505 48.1903 20.6925 49.6828 18.2114L48.7759 17.6486ZM42.4224 21.2711C38.3136 21.2711 34.9828 17.8882 34.9828 13.7152H33.9199C33.9199 18.4844 37.7267 22.3505 42.4224 22.3505V21.2711ZM34.9828 13.7152C34.9828 9.54216 38.3136 6.15926 42.4224 6.15926V5.07983C37.7267 5.07983 33.9199 8.94601 33.9199 13.7152H34.9828ZM42.4224 6.15926C45.1117 6.15926 47.4683 7.6081 48.7759 9.78174L49.6828 9.21897C48.1903 6.73783 45.4972 5.07983 42.4224 5.07983V6.15926ZM48.2977 10.0209L48.4546 10.2475L49.3241 9.62696L49.1674 9.40032L48.2977 10.0209ZM48.4009 10.1498L48.4647 10.3009L49.4416 9.87574L49.3778 9.72462L48.4009 10.1498ZM48.9799 17.2875C48.9151 17.41 48.847 17.5304 48.7759 17.6486L49.6828 18.2114C49.7642 18.0763 49.8419 17.9386 49.916 17.7986L48.9799 17.2875ZM48.4546 17.1829L48.2978 17.4096L49.1674 18.0301L49.3241 17.8034L48.4546 17.1829ZM49.6556 17.0463L49.1767 16.8398L48.7614 17.8334L49.2404 18.0399L49.6556 17.0463ZM48.4971 17.0887L48.4173 17.2452L49.3614 17.7411L49.441 17.5846L48.4971 17.0887ZM48.7759 9.78174C48.8463 9.89881 48.9137 10.018 48.9779 10.1391L49.9137 9.62747C49.8403 9.48898 49.7633 9.35277 49.6828 9.21897L48.7759 9.78174ZM49.2443 9.38389L48.7517 9.58893L49.1546 10.5877L49.6473 10.3827L49.2443 9.38389Z" fill="black"/>
</g>
<path d="M0 4.00012V23.4297H7.43967V17.4929H7.70541C11.374 17.4929 14.348 14.4724 14.348 10.7465C14.348 7.02058 11.374 4.00012 7.70541 4.00012H0Z" fill="#B2E810"/>
<path d="M12.6701 6.26507C11.8091 5.85092 10.8464 5.61926 9.83039 5.61926H2.125V23.4297H7.43906V17.4929H7.70474C11.3734 17.4929 14.3474 14.4724 14.3474 10.7465C14.3474 9.02642 13.7135 7.45668 12.6701 6.26507Z" fill="#B2E810"/>
<path d="M12.3444 6.70663C11.5782 6.35496 10.7275 6.15897 9.83039 6.15897H2.6564V22.89V23.4297H2.125V5.61926H9.83039C10.8464 5.61926 11.8091 5.85092 12.6701 6.26507C13.4539 7.21349 13.7606 7.84884 13.8159 8.04796L12.3444 6.70663Z" fill="black"/>
<path d="M22.5847 4.00012L33.7065 23.5646H11.4629L22.5847 4.00012Z" fill="#B2E810"/>
<path fill-rule="evenodd" clip-rule="evenodd" d="M12.4102 21.8996L21.1054 6.60364L29.8007 21.8996H12.4102ZM12.7257 21.3446L16.7428 14.278L20.6727 7.05283L28.8541 21.3446H12.7257Z" fill="black"/>
<path d="M60.2206 20V7.4H65.6746C66.8026 7.4 67.7746 7.586 68.5906 7.958C69.4066 8.318 70.0366 8.84 70.4806 9.524C70.9246 10.208 71.1466 11.024 71.1466 11.972C71.1466 12.908 70.9246 13.718 70.4806 14.402C70.0366 15.086 69.4066 15.614 68.5906 15.986C67.7746 16.346 66.8026 16.526 65.6746 16.526H61.8406L63.1366 15.212V20H60.2206ZM63.1366 15.536L61.8406 14.15H65.5126C66.4126 14.15 67.0846 13.958 67.5286 13.574C67.9726 13.19 68.1946 12.656 68.1946 11.972C68.1946 11.276 67.9726 10.736 67.5286 10.352C67.0846 9.968 66.4126 9.776 65.5126 9.776H61.8406L63.1366 8.39V15.536ZM78.8825 20V18.11L78.7025 17.696V14.312C78.7025 13.712 78.5165 13.244 78.1445 12.908C77.7845 12.572 77.2265 12.404 76.4705 12.404C75.9545 12.404 75.4445 12.488 74.9405 12.656C74.4485 12.812 74.0285 13.028 73.6805 13.304L72.6725 11.342C73.2005 10.97 73.8365 10.682 74.5805 10.478C75.3245 10.274 76.0805 10.172 76.8485 10.172C78.3245 10.172 79.4705 10.52 80.2865 11.216C81.1025 11.912 81.5105 12.998 81.5105 14.474V20H78.8825ZM75.9305 20.144C75.1745 20.144 74.5265 20.018 73.9865 19.766C73.4465 19.502 73.0325 19.148 72.7445 18.704C72.4565 18.26 72.3125 17.762 72.3125 17.21C72.3125 16.634 72.4505 16.13 72.7265 15.698C73.0145 15.266 73.4645 14.93 74.0765 14.69C74.6885 14.438 75.4865 14.312 76.4705 14.312H79.0445V15.95H76.7765C76.1165 15.95 75.6605 16.058 75.4085 16.274C75.1685 16.49 75.0485 16.76 75.0485 17.084C75.0485 17.444 75.1865 17.732 75.4625 17.948C75.7505 18.152 76.1405 18.254 76.6325 18.254C77.1005 18.254 77.5205 18.146 77.8925 17.93C78.2645 17.702 78.5345 17.372 78.7025 16.94L79.1345 18.236C78.9305 18.86 78.5585 19.334 78.0185 19.658C77.4785 19.982 76.7825 20.144 75.9305 20.144ZM88.8022 20.144C87.7582 20.144 86.8282 19.934 86.0122 19.514C85.1962 19.082 84.5542 18.488 84.0862 17.732C83.6302 16.976 83.4022 16.118 83.4022 15.158C83.4022 14.186 83.6302 13.328 84.0862 12.584C84.5542 11.828 85.1962 11.24 86.0122 10.82C86.8282 10.388 87.7582 10.172 88.8022 10.172C89.8222 10.172 90.7102 10.388 91.4662 10.82C92.2222 11.24 92.7802 11.846 93.1402 12.638L90.9622 13.808C90.7102 13.352 90.3922 13.016 90.0082 12.8C89.6362 12.584 89.2282 12.476 88.7842 12.476C88.3042 12.476 87.8722 12.584 87.4882 12.8C87.1042 13.016 86.7982 13.322 86.5702 13.718C86.3542 14.114 86.2462 14.594 86.2462 15.158C86.2462 15.722 86.3542 16.202 86.5702 16.598C86.7982 16.994 87.1042 17.3 87.4882 17.516C87.8722 17.732 88.3042 17.84 88.7842 17.84C89.2282 17.84 89.6362 17.738 90.0082 17.534C90.3922 17.318 90.7102 16.976 90.9622 16.508L93.1402 17.696C92.7802 18.476 92.2222 19.082 91.4662 19.514C90.7102 19.934 89.8222 20.144 88.8022 20.144ZM97.6549 13.07H103.703V15.41H97.6549V13.07ZM97.8709 20H94.9549V7.4H104.477V9.74H97.8709V20ZM106.253 20V10.316H109.061V20H106.253ZM107.657 8.966C107.141 8.966 106.721 8.816 106.397 8.516C106.073 8.216 105.911 7.844 105.911 7.4C105.911 6.956 106.073 6.584 106.397 6.284C106.721 5.984 107.141 5.834 107.657 5.834C108.173 5.834 108.593 5.978 108.917 6.266C109.241 6.542 109.403 6.902 109.403 7.346C109.403 7.814 109.241 8.204 108.917 8.516C108.605 8.816 108.185 8.966 107.657 8.966ZM117.553 10.172C118.321 10.172 119.005 10.328 119.605 10.64C120.217 10.94 120.697 11.408 121.045 12.044C121.393 12.668 121.567 13.472 121.567 14.456V20H118.759V14.888C118.759 14.108 118.585 13.532 118.237 13.16C117.901 12.788 117.421 12.602 116.797 12.602C116.353 12.602 115.951 12.698 115.591 12.89C115.243 13.07 114.967 13.352 114.763 13.736C114.571 14.12 114.475 14.612 114.475 15.212V20H111.667V10.316H114.349V12.998L113.845 12.188C114.193 11.54 114.691 11.042 115.339 10.694C115.987 10.346 116.725 10.172 117.553 10.172ZM130.052 20V18.11L129.872 17.696V14.312C129.872 13.712 129.686 13.244 129.314 12.908C128.954 12.572 128.396 12.404 127.64 12.404C127.124 12.404 126.614 12.488 126.11 12.656C125.618 12.812 125.198 13.028 124.85 13.304L123.842 11.342C124.37 10.97 125.006 10.682 125.75 10.478C126.494 10.274 127.25 10.172 128.018 10.172C129.494 10.172 130.64 10.52 131.456 11.216C132.272 11.912 132.68 12.998 132.68 14.474V20H130.052ZM127.1 20.144C126.344 20.144 125.696 20.018 125.156 19.766C124.616 19.502 124.202 19.148 123.914 18.704C123.626 18.26 123.482 17.762 123.482 17.21C123.482 16.634 123.62 16.13 123.896 15.698C124.184 15.266 124.634 14.93 125.246 14.69C125.858 14.438 126.656 14.312 127.64 14.312H130.214V15.95H127.946C127.286 15.95 126.83 16.058 126.578 16.274C126.338 16.49 126.218 16.76 126.218 17.084C126.218 17.444 126.356 17.732 126.632 17.948C126.92 18.152 127.31 18.254 127.802 18.254C128.27 18.254 128.69 18.146 129.062 17.93C129.434 17.702 129.704 17.372 129.872 16.94L130.304 18.236C130.1 18.86 129.728 19.334 129.188 19.658C128.648 19.982 127.952 20.144 127.1 20.144ZM141.108 10.172C141.876 10.172 142.56 10.328 143.16 10.64C143.772 10.94 144.252 11.408 144.6 12.044C144.948 12.668 145.122 13.472 145.122 14.456V20H142.314V14.888C142.314 14.108 142.14 13.532 141.792 13.16C141.456 12.788 140.976 12.602 140.352 12.602C139.908 12.602 139.506 12.698 139.146 12.89C138.798 13.07 138.522 13.352 138.318 13.736C138.126 14.12 138.03 14.612 138.03 15.212V20H135.222V10.316H137.904V12.998L137.4 12.188C137.748 11.54 138.246 11.042 138.894 10.694C139.542 10.346 140.28 10.172 141.108 10.172ZM152.417 20.144C151.373 20.144 150.443 19.934 149.627 19.514C148.811 19.082 148.169 18.488 147.701 17.732C147.245 16.976 147.017 16.118 147.017 15.158C147.017 14.186 147.245 13.328 147.701 12.584C148.169 11.828 148.811 11.24 149.627 10.82C150.443 10.388 151.373 10.172 152.417 10.172C153.437 10.172 154.325 10.388 155.081 10.82C155.837 11.24 156.395 11.846 156.755 12.638L154.577 13.808C154.325 13.352 154.007 13.016 153.623 12.8C153.251 12.584 152.843 12.476 152.399 12.476C151.919 12.476 151.487 12.584 151.103 12.8C150.719 13.016 150.413 13.322 150.185 13.718C149.969 14.114 149.861 14.594 149.861 15.158C149.861 15.722 149.969 16.202 150.185 16.598C150.413 16.994 150.719 17.3 151.103 17.516C151.487 17.732 151.919 17.84 152.399 17.84C152.843 17.84 153.251 17.738 153.623 17.534C154.007 17.318 154.325 16.976 154.577 16.508L156.755 17.696C156.395 18.476 155.837 19.082 155.081 19.514C154.325 19.934 153.437 20.144 152.417 20.144ZM163.055 20.144C161.951 20.144 160.979 19.928 160.139 19.496C159.311 19.064 158.669 18.476 158.213 17.732C157.757 16.976 157.529 16.118 157.529 15.158C157.529 14.186 157.751 13.328 158.195 12.584C158.651 11.828 159.269 11.24 160.049 10.82C160.829 10.388 161.711 10.172 162.695 10.172C163.643 10.172 164.495 10.376 165.251 10.784C166.019 11.18 166.625 11.756 167.069 12.512C167.513 13.256 167.735 14.15 167.735 15.194C167.735 15.302 167.729 15.428 167.717 15.572C167.705 15.704 167.693 15.83 167.681 15.95H159.815V14.312H166.205L165.125 14.798C165.125 14.294 165.023 13.856 164.819 13.484C164.615 13.112 164.333 12.824 163.973 12.62C163.613 12.404 163.193 12.296 162.713 12.296C162.233 12.296 161.807 12.404 161.435 12.62C161.075 12.824 160.793 13.118 160.589 13.502C160.385 13.874 160.283 14.318 160.283 14.834V15.266C160.283 15.794 160.397 16.262 160.625 16.67C160.865 17.066 161.195 17.372 161.615 17.588C162.047 17.792 162.551 17.894 163.127 17.894C163.643 17.894 164.093 17.816 164.477 17.66C164.873 17.504 165.233 17.27 165.557 16.958L167.051 18.578C166.607 19.082 166.049 19.472 165.377 19.748C164.705 20.012 163.931 20.144 163.055 20.144Z" fill="white"/>
</svg>
