<svg width="139" height="24" viewBox="0 0 139 24" fill="none" xmlns="http://www.w3.org/2000/svg">
<g filter="url(#filter0_d_9626_33721)">
<path fill-rule="evenodd" clip-rule="evenodd" d="M22.1385 3.18171L20.9474 20.699L20.9206 20.7252C20.8662 21.1407 20.716 21.4828 20.4624 21.7364C19.315 22.8836 16.3553 21.9151 12.9826 19.5342L13.8253 18.6915C14.6802 19.2852 15.4985 19.7777 16.2537 20.1573C17.2725 20.6698 18.1152 20.946 18.7409 21.0225C19.3844 21.1011 19.5879 20.9511 19.6326 20.9065C19.677 20.862 19.8271 20.6584 19.7485 20.0149C19.6719 19.3894 19.3957 18.5465 18.8834 17.5278C17.9233 15.6186 16.2426 13.305 14.0276 11.0202L3.8456 21.2021L4.04064 19.3474L13.1977 10.1904C10.913 7.97547 8.59945 6.29458 6.69024 5.33458C5.6715 4.82233 4.82879 4.54608 4.20308 4.46956C3.55959 4.39095 3.35601 4.54102 3.31157 4.58547C3.26695 4.63008 3.11688 4.83366 3.19549 5.47715C3.27218 6.10286 3.54826 6.94557 4.06068 7.96431C4.44029 8.71953 4.93284 9.53783 5.52649 10.3927L4.68378 11.2354C2.30293 7.8627 1.33439 4.90303 2.48159 3.75566C2.73536 3.50188 3.07784 3.35164 3.49388 3.29726C3.50201 3.28855 3.51038 3.28001 3.51898 3.27164L21.037 2.08017L22.2189 2L22.1385 3.18171ZM14.6485 3.69134L20.0652 3.32289L17.5132 5.87506C16.4831 4.89501 15.4776 4.18651 14.6485 3.69117M12.3652 3.84629L7.05852 4.20725C9.1354 5.22233 11.6139 7.01825 14.0276 9.3604L16.683 6.70504C15.571 5.65022 14.493 4.93457 13.6696 4.47479C13.3143 4.27494 12.9487 4.09383 12.5744 3.93221C12.4926 3.89736 12.4229 3.8686 12.3652 3.84629ZM17.5058 7.542L14.8576 10.1902C17.2005 12.6047 18.9969 15.0838 20.0118 17.1612L20.3841 11.6846C20.359 11.6302 20.3276 11.5649 20.2898 11.4885C20.1091 11.1268 19.9125 10.7732 19.7007 10.4288C19.2254 9.65112 18.511 8.62994 17.506 7.54183M18.3365 6.71149C19.3073 7.7583 20.0245 8.7502 20.5295 9.54724L20.8964 4.15148L18.3365 6.71149ZM8.76363 9.92197L4.84204 13.8436L4.64718 15.6982L9.88155 10.4639L8.76363 9.92197ZM13.7543 14.3368L8.52642 19.5646L10.3811 19.3697L14.3724 15.3782L13.7543 14.3368Z" fill="url(#paint0_linear_9626_33721)"/>
</g>
<path fill-rule="evenodd" clip-rule="evenodd" d="M35.1405 7.05461H27.9043V9.15169H32.7838V17.1487H35.1405V9.15169H40.0199V7.05461H35.1405ZM54.5485 7.05461V17.1487H52.1749V12.9826H44.1642V17.1487H41.7906V7.05461H44.1642V10.8855H52.1749V7.05461H54.5485ZM83.5581 7.05461H84.513V11.5265C84.5172 12.2848 84.3418 13.0334 84.0012 13.711C83.6696 14.3934 83.2047 15.0025 82.6338 15.5022C82.0621 16.0074 81.3861 16.4106 80.606 16.7118C79.837 17.0031 79.013 17.1487 78.1338 17.1487C77.2542 17.1487 76.4299 17.0031 75.661 16.7118C74.9205 16.4289 74.2347 16.0198 73.6338 15.5029C73.0696 14.9967 72.6056 14.3891 72.2657 13.7116C71.9352 13.0309 71.7659 12.2832 71.7708 11.5265V7.05461H74.1281V11.5265C74.1281 12.0113 74.2325 12.4725 74.4414 12.9102C74.6493 13.3376 74.9407 13.7189 75.2983 14.0318C75.6724 14.3586 76.1025 14.6151 76.5678 14.7889C77.0689 14.9747 77.5994 15.0684 78.1338 15.0653C78.683 15.0653 79.1994 14.9732 79.6829 14.7889C80.1546 14.6182 80.5905 14.3615 80.9686 14.0318C81.3265 13.719 81.6181 13.3376 81.8261 12.9102C82.0346 12.4733 82.1388 12.0121 82.1388 11.5265V7.05461H83.5569M86.5308 8.86085C86.353 9.22842 86.2627 9.63215 86.2668 10.0405C86.2668 10.4482 86.3548 10.8319 86.5308 11.1914C86.7064 11.5504 86.9426 11.866 87.2392 12.1382C87.5471 12.4003 87.9044 12.609 88.3109 12.7642C88.7329 12.9206 89.1796 12.9997 89.6297 12.9976H93.7339C94.0635 12.9976 94.3437 13.1043 94.5747 13.3178C94.8056 13.5217 94.921 13.7644 94.921 14.0461C94.921 14.3278 94.8056 14.5706 94.5747 14.7745C94.3437 14.9784 94.0635 15.0803 93.7339 15.0803H86.2675V17.1487L93.0586 17.163H93.7346C94.2293 17.163 94.6907 17.0854 95.1189 16.9302C95.5295 16.7754 95.9091 16.5484 96.2398 16.2599C96.559 15.9782 96.8118 15.6481 96.9982 15.2694C97.1854 14.8908 97.2788 14.483 97.2784 14.0461C97.2784 13.6092 97.185 13.2015 96.9982 12.8228C96.8132 12.4459 96.5555 12.1093 96.2398 11.8323C95.9091 11.5439 95.5295 11.3169 95.1189 11.162C94.6768 10.9942 94.2074 10.9102 93.7346 10.9142H89.6303C89.2783 10.9142 89.0255 10.8464 88.872 10.7108C88.718 10.5747 88.641 10.3513 88.641 10.0405C88.641 9.72964 88.718 9.50142 88.872 9.35579C89.0259 9.21016 89.2787 9.13734 89.6303 9.13734H97.2784V7.05461H89.6303C89.1803 7.05234 88.7335 7.1312 88.3115 7.28741C87.9187 7.43502 87.5557 7.65214 87.2399 7.9284C86.9432 8.19053 86.7064 8.50135 86.5308 8.86085ZM104.034 7.05461H111.27V9.15169H106.391V17.1487H104.034V9.15169H99.1552V7.05461H104.034ZM116.35 7.05461H113.037V17.1487H124.46V15.0516H115.394V12.982H123.009V10.8849H115.394V9.13734H124.46V7.05461H116.35ZM138.769 11.1183C138.923 10.7788 139 10.4195 139 10.0405C139 9.63269 138.912 9.24927 138.736 8.89018C138.561 8.53245 138.314 8.21492 138.01 7.95773C137.695 7.68154 137.332 7.46442 136.939 7.31675C136.523 7.15978 136.082 7.08086 135.637 7.08395H126.736V17.1637H129.093V12.997H133.214L136.197 17.1474H139L136 12.982C136.404 12.9464 136.8 12.843 137.17 12.6762C137.544 12.5014 137.863 12.283 138.126 12.0208C138.397 11.7644 138.615 11.4583 138.769 11.1183ZM136.395 10.7102C136.242 10.8462 135.989 10.914 135.637 10.9136H129.093V9.16605H135.637C135.989 9.16605 136.242 9.23408 136.395 9.37014C136.549 9.5062 136.626 9.72943 136.626 10.0398C136.626 10.3507 136.549 10.5741 136.395 10.7102ZM69.9046 11.1177C70.059 10.7795 70.1378 10.4116 70.1355 10.0398C70.1374 9.64118 70.0471 9.24748 69.8715 8.88956C69.697 8.53183 69.4501 8.21429 69.1463 7.95711C68.8306 7.68114 68.4678 7.46423 68.0753 7.31675C67.6591 7.15978 67.2175 7.08086 66.7727 7.08395H57.8713V17.1637H60.2287V12.997H64.3498L67.3332 17.1474H70.1355L67.1353 12.982C67.5398 12.9464 67.9354 12.843 68.3056 12.6762C68.6796 12.5014 68.9984 12.283 69.2617 12.0208C69.5364 11.7587 69.7507 11.4577 69.9046 11.1177ZM67.531 10.7102C67.3775 10.8462 67.1247 10.914 66.7727 10.9136H60.2287V9.16605H66.7727C67.1243 9.16605 67.3771 9.23408 67.531 9.37014C67.685 9.5062 67.762 9.72943 67.762 10.0398C67.762 10.3502 67.685 10.5737 67.531 10.7102Z" fill="white"/>
<defs>
<filter id="filter0_d_9626_33721" x="0.6875" y="0.6875" width="22.8438" height="22.843" filterUnits="userSpaceOnUse" color-interpolation-filters="sRGB">
<feFlood flood-opacity="0" result="BackgroundImageFix"/>
<feColorMatrix in="SourceAlpha" type="matrix" values="0 0 0 0 0 0 0 0 0 0 0 0 0 0 0 0 0 0 127 0" result="hardAlpha"/>
<feOffset/>
<feGaussianBlur stdDeviation="0.65625"/>
<feComposite in2="hardAlpha" operator="out"/>
<feColorMatrix type="matrix" values="0 0 0 0 1 0 0 0 0 0.426332 0 0 0 0 0.388542 0 0 0 0.8 0"/>
<feBlend mode="normal" in2="BackgroundImageFix" result="effect1_dropShadow_9626_33721"/>
<feBlend mode="normal" in="SourceGraphic" in2="effect1_dropShadow_9626_33721" result="shape"/>
</filter>
<linearGradient id="paint0_linear_9626_33721" x1="2.00001" y1="2" x2="22.218" y2="22.2189" gradientUnits="userSpaceOnUse">
<stop stop-color="#FFB0AB"/>
<stop offset="0.464" stop-color="#FF6D63"/>
<stop offset="1" stop-color="#FF4337"/>
</linearGradient>
</defs>
</svg>
