<svg width="72" height="18" viewBox="0 0 72 18" fill="none" xmlns="http://www.w3.org/2000/svg">
<path fill-rule="evenodd" clip-rule="evenodd" d="M38.883 12.1388V0.659542H41.0814V17.3209L29.3039 5.27636V16.5986H27.1054V0L38.883 12.1388ZM11.0395 8.69987C11.6048 7.85191 11.8875 6.89395 11.8875 5.85757C11.8875 4.91534 11.652 4.05165 11.1965 3.25077C10.7255 2.44989 10.0973 1.82176 9.29644 1.35066C8.49557 0.895253 7.61615 0.6597 6.68965 0.6597H0V2.85818H6.68965C7.52197 2.85818 8.22861 3.15655 8.82531 3.73758C9.40638 4.3186 9.70473 5.02526 9.70473 5.87326C9.70473 6.72123 9.40638 7.41217 8.82531 8.00893C8.24431 8.58994 7.53767 8.88829 6.68965 8.88829H0V16.5673H2.19848V11.0868H6.68965H6.76819H6.84673L9.70473 16.583H11.9032L8.80962 10.6314C9.73612 10.1917 10.4742 9.56354 11.0395 8.69987ZM14.2394 7.52211V9.72061H25.436V7.52211H14.2394ZM14.2394 14.4316L13.0931 16.583H25.4517V14.4316H14.2394ZM13.0931 0.6597L14.2394 2.85818H25.436V0.6597H13.0931ZM47.1734 10.7099L51.0836 8.40152C52.0886 7.80476 52.8895 7.00389 53.4705 5.9832C54.0516 4.96245 54.3343 3.86321 54.3343 2.68545V0.6597H42.9021V2.85818H52.1514V2.88959C52.1514 3.64335 51.963 4.35001 51.5861 5.00956C51.2092 5.66909 50.691 6.18731 50.0472 6.56421L46.1841 8.8412C45.1634 9.43791 44.3782 10.2388 43.7815 11.2595C43.2005 12.2803 42.9021 13.3795 42.9021 14.5573V16.5673H54.3343V14.3688H45.0849C45.0849 13.6151 45.2733 12.9084 45.6502 12.2646C46.0114 11.605 46.5296 11.0868 47.1734 10.7099ZM72.0017 9.35949V9.3124L64.8092 16.5674H64.8877C68.6095 16.1905 71.6563 13.1911 72.0017 9.35949ZM67.523 1.38255L67.5228 1.38249C67.3188 1.28829 67.1148 1.19409 66.9102 1.11559C66.5021 0.958561 66.0783 0.83293 65.6388 0.738705C65.1045 0.628782 64.5708 0.565972 64.0052 0.565972C63.7383 0.565972 63.4715 0.581674 63.2046 0.597377C61.3513 0.785817 59.7026 1.58669 58.4306 2.81156L58.1794 3.06282C56.9702 4.3348 56.1848 6.01506 56.0121 7.85238L56.0121 7.85253C55.9964 8.08804 55.9807 8.3235 55.9807 8.57471C55.9807 9.17147 56.0435 9.75248 56.1691 10.3178C56.2633 10.7418 56.3894 11.1501 56.5464 11.5584L56.5472 11.5603C56.6411 11.7795 56.735 11.9987 56.8289 12.2023C57.0173 12.5634 57.2214 12.9089 57.4568 13.2386L58.7759 11.9038L67.2561 3.32978L68.5752 1.99498C68.2613 1.77513 67.8997 1.57099 67.523 1.38255ZM58.0067 10.098C57.9911 10.0508 57.9754 9.98804 57.9754 9.94095C57.8812 9.50122 57.8341 9.04584 57.8341 8.59041C57.8341 7.00436 58.4306 5.51254 59.5142 4.3662L59.734 4.14636C60.8961 3.03141 62.4036 2.41898 64.0209 2.41898C64.4453 2.41898 64.8691 2.46609 65.2772 2.5446L65.4656 2.59172L58.0067 10.098ZM60.6623 15.8923C60.8507 15.9709 61.039 16.0493 61.2431 16.1279L71.5133 5.76359C71.4348 5.55948 71.3407 5.35531 71.2465 5.15116C71.0738 4.75858 70.854 4.3974 70.618 4.05193L59.5316 15.2485C59.8926 15.4997 60.2699 15.7039 60.6623 15.8923Z" fill="#ACE631"/>
</svg>
