<svg width="50" height="16" viewBox="0 0 50 16" fill="none" xmlns="http://www.w3.org/2000/svg">
<path d="M4.816 15.216C3.964 15.216 3.178 15.06 2.458 14.748C1.75 14.424 1.168 13.968 0.712 13.38L2.332 11.436C2.68 11.892 3.046 12.24 3.43 12.48C3.814 12.708 4.228 12.822 4.672 12.822C5.86 12.822 6.454 12.126 6.454 10.734V4.74H2.026V2.4H9.352V10.572C9.352 12.132 8.968 13.296 8.2 14.064C7.432 14.832 6.304 15.216 4.816 15.216ZM16.1203 15.144C15.3163 15.144 14.5963 14.988 13.9603 14.676C13.3363 14.364 12.8503 13.89 12.5023 13.254C12.1543 12.606 11.9803 11.784 11.9803 10.788V5.316H14.7883V10.374C14.7883 11.178 14.9563 11.772 15.2923 12.156C15.6403 12.528 16.1263 12.714 16.7503 12.714C17.1823 12.714 17.5663 12.624 17.9023 12.444C18.2383 12.252 18.5023 11.964 18.6943 11.58C18.8863 11.184 18.9823 10.692 18.9823 10.104V5.316H21.7903V15H19.1263V12.336L19.6123 13.11C19.2883 13.782 18.8083 14.292 18.1723 14.64C17.5483 14.976 16.8643 15.144 16.1203 15.144ZM24.3917 15V5.316H27.1997V15H24.3917ZM25.7957 3.966C25.2797 3.966 24.8597 3.816 24.5357 3.516C24.2117 3.216 24.0497 2.844 24.0497 2.4C24.0497 1.956 24.2117 1.584 24.5357 1.284C24.8597 0.983999 25.2797 0.833999 25.7957 0.833999C26.3117 0.833999 26.7317 0.977999 27.0557 1.266C27.3797 1.542 27.5417 1.902 27.5417 2.346C27.5417 2.814 27.3797 3.204 27.0557 3.516C26.7437 3.816 26.3237 3.966 25.7957 3.966ZM34.4858 15.144C33.4418 15.144 32.5118 14.934 31.6958 14.514C30.8798 14.082 30.2378 13.488 29.7698 12.732C29.3138 11.976 29.0858 11.118 29.0858 10.158C29.0858 9.186 29.3138 8.328 29.7698 7.584C30.2378 6.828 30.8798 6.24 31.6958 5.82C32.5118 5.388 33.4418 5.172 34.4858 5.172C35.5058 5.172 36.3938 5.388 37.1498 5.82C37.9058 6.24 38.4638 6.846 38.8238 7.638L36.6458 8.808C36.3938 8.352 36.0758 8.016 35.6918 7.8C35.3198 7.584 34.9118 7.476 34.4678 7.476C33.9878 7.476 33.5558 7.584 33.1718 7.8C32.7878 8.016 32.4818 8.322 32.2538 8.718C32.0378 9.114 31.9298 9.594 31.9298 10.158C31.9298 10.722 32.0378 11.202 32.2538 11.598C32.4818 11.994 32.7878 12.3 33.1718 12.516C33.5558 12.732 33.9878 12.84 34.4678 12.84C34.9118 12.84 35.3198 12.738 35.6918 12.534C36.0758 12.318 36.3938 11.976 36.6458 11.508L38.8238 12.696C38.4638 13.476 37.9058 14.082 37.1498 14.514C36.3938 14.934 35.5058 15.144 34.4858 15.144ZM45.1235 15.144C44.0195 15.144 43.0475 14.928 42.2075 14.496C41.3795 14.064 40.7375 13.476 40.2815 12.732C39.8255 11.976 39.5975 11.118 39.5975 10.158C39.5975 9.186 39.8195 8.328 40.2635 7.584C40.7195 6.828 41.3375 6.24 42.1175 5.82C42.8975 5.388 43.7795 5.172 44.7635 5.172C45.7115 5.172 46.5635 5.376 47.3195 5.784C48.0875 6.18 48.6935 6.756 49.1375 7.512C49.5815 8.256 49.8035 9.15 49.8035 10.194C49.8035 10.302 49.7975 10.428 49.7855 10.572C49.7735 10.704 49.7615 10.83 49.7495 10.95H41.8835V9.312H48.2735L47.1935 9.798C47.1935 9.294 47.0915 8.856 46.8875 8.484C46.6835 8.112 46.4015 7.824 46.0415 7.62C45.6815 7.404 45.2615 7.296 44.7815 7.296C44.3015 7.296 43.8755 7.404 43.5035 7.62C43.1435 7.824 42.8615 8.118 42.6575 8.502C42.4535 8.874 42.3515 9.318 42.3515 9.834V10.266C42.3515 10.794 42.4655 11.262 42.6935 11.67C42.9335 12.066 43.2635 12.372 43.6835 12.588C44.1155 12.792 44.6195 12.894 45.1955 12.894C45.7115 12.894 46.1615 12.816 46.5455 12.66C46.9415 12.504 47.3015 12.27 47.6255 11.958L49.1195 13.578C48.6755 14.082 48.1175 14.472 47.4455 14.748C46.7735 15.012 45.9995 15.144 45.1235 15.144Z" fill="#BB6AF4"/>
</svg>
