<svg width="76" height="18" viewBox="0 0 76 18" fill="none" xmlns="http://www.w3.org/2000/svg">
<circle cx="9" cy="9" r="8.5" fill="black" stroke="black"/>
<path fill-rule="evenodd" clip-rule="evenodd" d="M15.8547 6.33384L7.52848 14.73C7.04179 14.55 6.58256 14.3133 6.15881 14.028L15.1413 4.97012C15.4302 5.39157 15.6707 5.84882 15.8547 6.33384ZM10.3943 15.1027C13.5094 14.811 15.9851 12.3189 16.2514 9.19651L10.3943 15.1027ZM4.50867 12.4294L13.529 3.33332C12.4702 2.58378 11.1771 2.14331 9.78111 2.14331C6.19457 2.14331 3.28711 5.05077 3.28711 8.63731C3.28711 10.0528 3.73995 11.3624 4.50867 12.4294ZM5.02485 9.70034L10.8926 3.81009C10.5457 3.73242 10.185 3.69144 9.81463 3.69144C7.10149 3.69144 4.90206 5.89087 4.90206 8.604C4.90206 8.98087 4.9445 9.34782 5.02485 9.70034Z" fill="#C3FF61"/>
<circle cx="20.4277" cy="9" r="8.5" fill="white" stroke="black"/>
<path d="M17.2295 5H19.556V11.5901H20.6172V9.38027H21.8009V6.06547H20.6172V5H22.9438V7.20987H24.0866V5H25.2295V7.20987H24.0866V9.38027H21.8009V11.5901H24.0866V13.8H17.2295V5Z" fill="#190C6D"/>
<circle cx="31.8584" cy="9" r="8.5" fill="#E9FB46" stroke="black"/>
<path fill-rule="evenodd" clip-rule="evenodd" d="M27.0586 4.20044H30.2586V7.40044H33.1919V4.20044H36.6586V14.3338H32.9253V12.0525C33.2492 11.7597 33.4528 11.3362 33.4528 10.8652C33.4528 9.98152 32.7364 9.26517 31.8528 9.26517C30.9691 9.26517 30.2528 9.98152 30.2528 10.8652C30.2528 11.3418 30.4612 11.7698 30.7919 12.0629V14.3338H27.0586V4.20044Z" fill="#2F3E24"/>
<circle cx="43.2861" cy="9" r="8.5" fill="url(#paint0_linear_9613_33035)" stroke="black"/>
<path fill-rule="evenodd" clip-rule="evenodd" d="M47.6104 5.18661L47.0534 13.3779L47.0409 13.3902C47.0154 13.5845 46.9452 13.7445 46.8266 13.863C46.2901 14.3995 44.9061 13.9466 43.3289 12.8333L43.723 12.4392C44.1228 12.7168 44.5054 12.9471 44.8586 13.1246C45.3349 13.3642 45.729 13.4934 46.0216 13.5292C46.3225 13.566 46.4177 13.4958 46.4386 13.4749C46.4593 13.4541 46.5295 13.359 46.4928 13.058C46.457 12.7655 46.3278 12.3714 46.0883 11.895C45.6393 11.0022 44.8534 9.9204 43.8176 8.85199L39.0564 13.6132L39.1476 12.7459L43.4295 8.46396C42.3612 7.42824 41.2793 6.64223 40.3866 6.19332C39.9102 5.95379 39.5161 5.82461 39.2235 5.78883C38.9226 5.75207 38.8274 5.82225 38.8067 5.84303C38.7858 5.86389 38.7156 5.95909 38.7524 6.25999C38.7882 6.55258 38.9173 6.94664 39.157 7.42302C39.3345 7.77617 39.5648 8.15882 39.8424 8.55858L39.4483 8.95264C38.335 7.37551 37.8821 5.99153 38.4186 5.455C38.5372 5.33633 38.6974 5.26608 38.8919 5.24065C38.8957 5.23658 38.8996 5.23258 38.9037 5.22867L47.0953 4.67152L47.648 4.63403L47.6104 5.18661ZM44.1079 5.42493L46.6409 5.25263L45.4475 6.44606C44.9658 5.98778 44.4956 5.65647 44.1079 5.42484M43.0403 5.49738L40.5588 5.66617C41.53 6.14084 42.6889 6.98063 43.8176 8.07585L45.0593 6.83417C44.5393 6.34092 44.0352 6.00628 43.6502 5.79128C43.4841 5.69782 43.3131 5.61313 43.1381 5.53756C43.0998 5.52126 43.0672 5.50781 43.0403 5.49738ZM45.4441 7.22554L44.2057 8.46388C45.3013 9.59292 46.1413 10.7522 46.6159 11.7236L46.79 9.16267C46.7783 9.13725 46.7636 9.10668 46.7459 9.07098C46.6614 8.90184 46.5695 8.73651 46.4704 8.57545C46.2482 8.21179 45.9141 7.73428 45.4442 7.22546M45.8325 6.83719C46.2865 7.32669 46.6219 7.79051 46.858 8.16322L47.0295 5.64009L45.8325 6.83719ZM41.3561 8.33845L39.5223 10.1722L39.4312 11.0395L41.8789 8.59184L41.3561 8.33845ZM43.6898 10.4029L41.2452 12.8474L42.1125 12.7563L43.9788 10.8899L43.6898 10.4029Z" fill="white"/>
<circle cx="54.7139" cy="9" r="8" fill="url(#paint1_linear_9613_33035)"/>
<path fill-rule="evenodd" clip-rule="evenodd" d="M60.4186 8.82305V8.82761L60.4211 8.87214C60.44 9.20168 60.43 9.53218 60.391 9.85992L60.3742 10.0015L60.3391 10.5871C60.317 10.955 60.1329 11.295 59.8354 11.5182C59.6705 11.6802 59.5561 11.8854 59.5059 12.1095L59.4409 12.3989C59.3707 12.7117 59.1127 12.95 58.7913 12.9988C58.5184 13.0403 58.2875 13.2194 58.1825 13.471L58.1487 13.552L58.0922 13.6704C57.8969 14.0796 57.4503 14.3122 56.9971 14.2408L56.9016 14.2258C56.4417 14.1534 55.9991 14.4305 55.8706 14.8716C55.7467 15.2967 55.3768 15.5211 55.0018 15.5286C54.6268 15.5211 54.2569 15.2967 54.133 14.8716C54.0045 14.4305 53.5619 14.1534 53.102 14.2258L53.0066 14.2408C52.5533 14.3122 52.1067 14.0796 51.9114 13.6704L51.8549 13.552L51.8212 13.471C51.7162 13.2194 51.4852 13.0403 51.2123 12.9988C50.8909 12.95 50.633 12.7117 50.5627 12.3989L50.4977 12.1095C50.4475 11.8854 50.3331 11.6802 50.1683 11.5182C49.8707 11.295 49.6866 10.955 49.6645 10.5871L49.6294 10.0015L49.6126 9.85992C49.5737 9.53218 49.5636 9.20168 49.5825 8.87214L49.585 8.82761V8.82305C49.585 8.10277 49.7283 7.40398 50.0109 6.74588C50.2837 6.11038 50.6742 5.53983 51.1716 5.04994C51.6689 4.55991 52.2482 4.17523 52.8933 3.9065C53.5614 3.62811 54.2708 3.48706 55.0018 3.48706C55.7329 3.48706 56.4424 3.62811 57.1104 3.9065C57.7556 4.17523 58.3348 4.55991 58.8321 5.04994C59.3294 5.53983 59.7199 6.11038 59.9928 6.74588C60.2754 7.40398 60.4186 8.10277 60.4186 8.82305ZM55.0018 13.3318C56.2244 13.3318 57.3737 12.8627 58.2383 12.0111C59.1028 11.1596 59.5788 10.0274 59.5788 8.82305C59.5788 7.61866 59.1028 6.48639 58.2383 5.63483C57.3737 4.78328 56.2243 4.31435 55.0018 4.31435C53.7793 4.31435 52.6299 4.78328 51.7654 5.63483C50.901 6.48639 50.4248 7.6188 50.4248 8.82305C50.4248 10.0273 50.901 11.1596 51.7654 12.0111C52.6299 12.8627 53.7792 13.3318 55.0018 13.3318ZM57.3755 5.59401C57.0729 5.40083 56.6673 5.51431 56.5112 5.8342L55.2736 8.36927C55.2539 8.41009 55.2621 8.46028 55.2944 8.49295L55.336 8.53487C55.3693 8.56755 55.4192 8.57569 55.4609 8.55527L58.0339 7.33627C58.3584 7.18199 58.4729 6.78241 58.2773 6.48403C58.0433 6.12747 57.7355 5.82399 57.3736 5.59401H57.3755ZM56.1867 7.85732L55.9039 7.9759C55.8727 7.98913 55.8426 7.95853 55.855 7.92792L55.9747 7.64995C56.0017 7.58762 56.0651 7.54985 56.1327 7.55385C56.2139 7.55895 56.2783 7.62224 56.2835 7.70207C56.2877 7.7695 56.2492 7.83181 56.1856 7.85843L56.1867 7.85746V7.85732ZM55.5198 8.69168C55.4761 8.70699 55.446 8.74794 55.446 8.79385V8.85204C55.446 8.89796 55.4751 8.9389 55.5198 8.9542L58.2146 9.88504C58.5547 10.0025 58.9228 9.79927 58.9988 9.45278C59.0893 9.0379 59.0893 8.60882 58.9988 8.19394C58.923 7.84647 58.5558 7.6442 58.2146 7.76168L55.5198 8.69251V8.69168ZM56.7106 8.92471C56.666 8.97475 56.5931 8.99213 56.5297 8.96662L56.2447 8.85313C56.2135 8.84087 56.2135 8.79799 56.2447 8.78476L56.5297 8.67127C56.5931 8.64576 56.6658 8.66314 56.7106 8.7132C56.7647 8.77345 56.7647 8.86334 56.7106 8.92264V8.92471ZM55.4615 9.09239L58.0346 10.3114L58.0345 10.3115H58.0366C58.3612 10.4658 58.4755 10.8653 58.28 11.1636C58.0459 11.5203 57.7381 11.8238 57.3762 12.0537C57.0734 12.2467 56.6679 12.1334 56.5119 11.8135L55.2743 9.27839C55.2536 9.23648 55.2618 9.18739 55.2951 9.15471L55.3367 9.1128C55.369 9.08108 55.42 9.07295 55.4615 9.09239ZM56.1313 10.0876C56.2123 10.0825 56.2769 10.0192 56.282 9.93953L56.283 9.9405C56.2872 9.87307 56.2478 9.81076 56.1853 9.78414L55.9025 9.66557C55.8712 9.65219 55.84 9.68294 55.8536 9.71355L55.9733 9.99151C55.9992 10.0529 56.0627 10.0918 56.1313 10.0876ZM55.1337 9.33414C55.1182 9.29126 55.0765 9.26161 55.0297 9.26161H54.9705C54.9238 9.26161 54.8821 9.29016 54.8665 9.33414L53.9222 11.9888C53.8025 12.324 54.0085 12.6866 54.3611 12.7612C54.7823 12.8511 55.2181 12.8511 55.6393 12.7612C55.9919 12.6866 56.1978 12.3238 56.0782 11.9888L55.1339 9.33414H55.1337ZM55.1035 10.5071C55.0432 10.5602 54.9516 10.5602 54.8903 10.5071C54.8394 10.4621 54.8217 10.3906 54.8476 10.3283L54.962 10.0484C54.9744 10.0178 55.0181 10.0178 55.0306 10.0484L55.1449 10.3283C55.171 10.3906 55.1533 10.4621 55.1022 10.5071H55.1032H55.1035ZM54.5554 8.85221C54.5554 8.89812 54.5253 8.93907 54.4816 8.95437V8.95354L51.7869 9.88438C51.4457 10.0019 51.0785 9.79959 51.0027 9.45212C50.9122 9.03724 50.9122 8.60816 51.0027 8.19328C51.0787 7.84691 51.4468 7.64354 51.7869 7.76102L54.4816 8.69186C54.5263 8.70716 54.5554 8.74811 54.5554 8.79402V8.85221ZM53.4644 8.67337C53.401 8.64786 53.3283 8.66524 53.2835 8.7153V8.71542V8.71749C53.2294 8.77679 53.2294 8.86668 53.2835 8.92694C53.3283 8.97698 53.401 8.99436 53.4644 8.96886L53.7484 8.85538C53.7797 8.842 53.7797 8.79912 53.7484 8.78686L53.4644 8.67337ZM54.7056 9.15482L54.664 9.11291C54.6307 9.08023 54.5809 9.0721 54.5392 9.0925L51.9661 10.3115C51.6417 10.4648 51.5272 10.8654 51.7227 11.1636C51.9567 11.5202 52.2645 11.8237 52.6265 12.0536C52.9291 12.2468 53.3347 12.1333 53.4908 11.8134L54.7274 9.27836C54.7483 9.23645 54.7389 9.18736 54.7066 9.15468H54.7056V9.15482ZM54.1387 9.71268L54.0191 9.99066C53.992 10.053 53.9286 10.0908 53.861 10.0868C53.7798 10.0817 53.7155 10.0184 53.7103 9.93868C53.7061 9.87125 53.7446 9.80892 53.808 9.78231L54.0909 9.66373C54.1221 9.6505 54.1522 9.68111 54.1397 9.71173L54.1387 9.71268ZM54.8665 8.31172C54.882 8.3546 54.9237 8.38423 54.9705 8.38423H55.0298C55.0766 8.38423 55.1183 8.3557 55.1338 8.31172L56.0782 5.65709C56.1979 5.3219 55.9918 4.95927 55.6392 4.88467C55.2181 4.79574 54.7822 4.79574 54.3611 4.88467C54.0085 4.95927 53.8026 5.32204 53.9221 5.65709L54.8665 8.31172ZM54.8894 7.13255C54.9498 7.07947 55.0413 7.07947 55.1026 7.13255C55.1535 7.17653 55.1712 7.24906 55.1453 7.31139L55.0309 7.59142C55.0185 7.62203 54.9748 7.62203 54.9624 7.59142L54.848 7.31139C54.822 7.24906 54.8397 7.17751 54.8907 7.13255H54.8897H54.8894ZM54.5402 8.55521L51.9671 7.33621H51.9662C51.6416 7.18193 51.5272 6.78234 51.7227 6.48397C51.9568 6.12727 52.2646 5.8238 52.6265 5.59395C52.9293 5.40091 53.3348 5.51425 53.4908 5.83414L54.7275 8.36921C54.7482 8.41114 54.7399 8.46021 54.7066 8.4929L54.665 8.53481C54.6327 8.56652 54.5818 8.57563 54.5402 8.55521ZM53.862 7.55282C53.781 7.55793 53.7165 7.62135 53.7113 7.70105L53.7103 7.69995C53.7061 7.76737 53.7456 7.82969 53.808 7.8563L54.0909 7.97488C54.1221 7.98825 54.1533 7.95751 54.1397 7.92689L54.0201 7.64893C53.9942 7.58757 53.9306 7.54869 53.862 7.55282Z" fill="white"/>
<circle cx="66.1416" cy="9" r="8.5" fill="#261F34" stroke="black"/>
<path d="M66.1419 15.8574C62.3548 15.8574 59.2847 12.7873 59.2847 9.00021C59.2847 5.21311 62.3548 2.14307 66.1419 2.14307C69.929 2.14307 72.999 5.21311 72.999 9.00021C72.999 12.7873 69.929 15.8574 66.1419 15.8574Z" fill="#191919"/>
<path d="M66.1422 15.1223C62.7609 15.1223 60.0198 12.3812 60.0198 8.99989C60.0198 5.61856 62.7609 2.87744 66.1422 2.87744C69.5235 2.87744 72.2646 5.61856 72.2646 8.99989C72.2646 12.3812 69.5235 15.1223 66.1422 15.1223Z" fill="#F0F0F0"/>
<path d="M66.1426 13.4086C63.7081 13.4086 61.7345 11.435 61.7345 9.00045C61.7345 6.56589 63.7081 4.59229 66.1426 4.59229C68.5772 4.59229 70.5508 6.56589 70.5508 9.00045C70.5508 11.435 68.5772 13.4086 66.1426 13.4086Z" fill="#191919"/>
<defs>
<linearGradient id="paint0_linear_9613_33035" x1="35.2861" y1="1" x2="51.2861" y2="17" gradientUnits="userSpaceOnUse">
<stop stop-color="#FFB0AB"/>
<stop offset="0.464" stop-color="#FF6D63"/>
<stop offset="1" stop-color="#FF4337"/>
</linearGradient>
<linearGradient id="paint1_linear_9613_33035" x1="99.2348" y1="-20.8042" x2="6.1463" y2="3.97277" gradientUnits="userSpaceOnUse">
<stop stop-color="#D188FF"/>
<stop offset="1" stop-color="#831FD8"/>
</linearGradient>
</defs>
</svg>
