<svg width="156" height="36" viewBox="0 0 156 36" fill="none" xmlns="http://www.w3.org/2000/svg">
  <rect width="156" height="36" rx="4" fill="#252525"/>
  <g filter="url(#filter0_d_12233_10519)">
    <path fill-rule="evenodd" clip-rule="evenodd" d="M30.1385 9.18171L28.9474 26.699L28.9206 26.7252C28.8662 27.1407 28.716 27.4828 28.4624 27.7364C27.315 28.8836 24.3553 27.9151 20.9826 25.5342L21.8253 24.6915C22.6802 25.2852 23.4985 25.7777 24.2537 26.1573C25.2725 26.6698 26.1152 26.946 26.7409 27.0225C27.3844 27.1011 27.5879 26.9511 27.6326 26.9065C27.677 26.862 27.8271 26.6584 27.7485 26.0149C27.6719 25.3894 27.3957 24.5465 26.8834 23.5278C25.9233 21.6186 24.2426 19.305 22.0276 17.0202L11.8456 27.2021L12.0406 25.3474L21.1977 16.1904C18.913 13.9755 16.5994 12.2946 14.6902 11.3346C13.6715 10.8223 12.8288 10.5461 12.2031 10.4696C11.5596 10.391 11.356 10.541 11.3116 10.5855C11.267 10.6301 11.1169 10.8337 11.1955 11.4771C11.2722 12.1029 11.5483 12.9456 12.0607 13.9643C12.4403 14.7195 12.9328 15.5378 13.5265 16.3927L12.6838 17.2354C10.3029 13.8627 9.33439 10.903 10.4816 9.75566C10.7354 9.50188 11.0778 9.35164 11.4939 9.29726C11.502 9.28855 11.5104 9.28001 11.519 9.27164L29.037 8.08017L30.2189 8L30.1385 9.18171ZM22.6485 9.69134L28.0652 9.32289L25.5132 11.8751C24.4831 10.895 23.4776 10.1865 22.6485 9.69117M20.3652 9.84629L15.0585 10.2072C17.1354 11.2223 19.6139 13.0182 22.0276 15.3604L24.683 12.705C23.571 11.6502 22.493 10.9346 21.6696 10.4748C21.3143 10.2749 20.9487 10.0938 20.5744 9.93221C20.4926 9.89736 20.4229 9.8686 20.3652 9.84629ZM25.5058 13.542L22.8576 16.1902C25.2005 18.6047 26.9969 21.0838 28.0118 23.1612L28.3841 17.6846C28.359 17.6302 28.3276 17.5649 28.2898 17.4885C28.1091 17.1268 27.9125 16.7732 27.7007 16.4288C27.2254 15.6511 26.511 14.6299 25.506 13.5418M26.3365 12.7115C27.3073 13.7583 28.0245 14.7502 28.5295 15.5472L28.8964 10.1515L26.3365 12.7115ZM16.7636 15.922L12.842 19.8436L12.6472 21.6982L17.8816 16.4639L16.7636 15.922ZM21.7543 20.3368L16.5264 25.5646L18.3811 25.3697L22.3724 21.3782L21.7543 20.3368Z" fill="url(#paint0_linear_12233_10519)"/>
  </g>
  <path fill-rule="evenodd" clip-rule="evenodd" d="M43.1405 13.0546H35.9043V15.1517H40.7838V23.1487H43.1405V15.1517H48.0199V13.0546H43.1405ZM62.5485 13.0546V23.1487H60.1749V18.9826H52.1642V23.1487H49.7906V13.0546H52.1642V16.8855H60.1749V13.0546H62.5485ZM91.5581 13.0546H92.513V17.5265C92.5172 18.2848 92.3418 19.0334 92.0012 19.711C91.6696 20.3934 91.2047 21.0025 90.6338 21.5022C90.0621 22.0074 89.3861 22.4106 88.606 22.7118C87.837 23.0031 87.013 23.1487 86.1338 23.1487C85.2542 23.1487 84.4299 23.0031 83.661 22.7118C82.9205 22.4289 82.2347 22.0198 81.6338 21.5029C81.0696 20.9967 80.6056 20.3891 80.2657 19.7116C79.9352 19.0309 79.7659 18.2832 79.7708 17.5265V13.0546H82.1281V17.5265C82.1281 18.0113 82.2325 18.4725 82.4414 18.9102C82.6493 19.3376 82.9407 19.7189 83.2983 20.0318C83.6724 20.3586 84.1025 20.6151 84.5678 20.7889C85.0689 20.9747 85.5994 21.0684 86.1338 21.0653C86.683 21.0653 87.1994 20.9732 87.6829 20.7889C88.1546 20.6182 88.5905 20.3615 88.9686 20.0318C89.3265 19.719 89.6181 19.3376 89.8261 18.9102C90.0346 18.4733 90.1388 18.0121 90.1388 17.5265V13.0546H91.5569M94.5308 14.8608C94.353 15.2284 94.2627 15.6322 94.2668 16.0405C94.2668 16.4482 94.3548 16.8319 94.5308 17.1914C94.7064 17.5504 94.9426 17.866 95.2392 18.1382C95.5471 18.4003 95.9044 18.609 96.3109 18.7642C96.7329 18.9206 97.1796 18.9997 97.6297 18.9976H101.734C102.063 18.9976 102.344 19.1043 102.575 19.3178C102.806 19.5217 102.921 19.7644 102.921 20.0461C102.921 20.3278 102.806 20.5706 102.575 20.7745C102.344 20.9784 102.063 21.0803 101.734 21.0803H94.2675V23.1487L101.059 23.163H101.735C102.229 23.163 102.691 23.0854 103.119 22.9302C103.53 22.7754 103.909 22.5484 104.24 22.2599C104.559 21.9782 104.812 21.6481 104.998 21.2694C105.185 20.8908 105.279 20.483 105.278 20.0461C105.278 19.6092 105.185 19.2015 104.998 18.8228C104.813 18.4459 104.555 18.1093 104.24 17.8323C103.909 17.5439 103.53 17.3169 103.119 17.162C102.677 16.9942 102.207 16.9102 101.735 16.9142H97.6303C97.2783 16.9142 97.0255 16.8464 96.872 16.7108C96.718 16.5747 96.641 16.3513 96.641 16.0405C96.641 15.7296 96.718 15.5014 96.872 15.3558C97.0259 15.2102 97.2787 15.1373 97.6303 15.1373H105.278V13.0546H97.6303C97.1803 13.0523 96.7335 13.1312 96.3115 13.2874C95.9187 13.435 95.5557 13.6521 95.2399 13.9284C94.9432 14.1905 94.7064 14.5013 94.5308 14.8608ZM112.034 13.0546H119.27V15.1517H114.391V23.1487H112.034V15.1517H107.155V13.0546H112.034ZM124.35 13.0546H121.037V23.1487H132.46V21.0516H123.394V18.982H131.009V16.8849H123.394V15.1373H132.46V13.0546H124.35ZM146.769 17.1183C146.923 16.7788 147 16.4195 147 16.0405C147 15.6327 146.912 15.2493 146.736 14.8902C146.561 14.5325 146.314 14.2149 146.01 13.9577C145.695 13.6815 145.332 13.4644 144.939 13.3167C144.523 13.1598 144.082 13.0809 143.637 13.0839H134.736V23.1637H137.093V18.997H141.214L144.197 23.1474H147L144 18.982C144.404 18.9464 144.8 18.843 145.17 18.6762C145.544 18.5014 145.863 18.283 146.126 18.0208C146.397 17.7644 146.615 17.4583 146.769 17.1183ZM144.395 16.7102C144.242 16.8462 143.989 16.914 143.637 16.9136H137.093V15.166H143.637C143.989 15.166 144.242 15.2341 144.395 15.3701C144.549 15.5062 144.626 15.7294 144.626 16.0398C144.626 16.3507 144.549 16.5741 144.395 16.7102ZM77.9046 17.1177C78.059 16.7795 78.1378 16.4116 78.1355 16.0398C78.1374 15.6412 78.0471 15.2475 77.8715 14.8896C77.697 14.5318 77.4501 14.2143 77.1463 13.9571C76.8306 13.6811 76.4678 13.4642 76.0753 13.3167C75.6591 13.1598 75.2175 13.0809 74.7727 13.0839H65.8713V23.1637H68.2287V18.997H72.3498L75.3332 23.1474H78.1355L75.1353 18.982C75.5398 18.9464 75.9354 18.843 76.3056 18.6762C76.6796 18.5014 76.9984 18.283 77.2617 18.0208C77.5364 17.7587 77.7507 17.4577 77.9046 17.1177ZM75.531 16.7102C75.3775 16.8462 75.1247 16.914 74.7727 16.9136H68.2287V15.166H74.7727C75.1243 15.166 75.3771 15.2341 75.531 15.3701C75.685 15.5062 75.762 15.7294 75.762 16.0398C75.762 16.3502 75.685 16.5737 75.531 16.7102Z" fill="white"/>
  <defs>
    <filter id="filter0_d_12233_10519" x="8.6875" y="6.6875" width="22.8438" height="22.843" filterUnits="userSpaceOnUse" color-interpolation-filters="sRGB">
      <feFlood flood-opacity="0" result="BackgroundImageFix"/>
      <feColorMatrix in="SourceAlpha" type="matrix" values="0 0 0 0 0 0 0 0 0 0 0 0 0 0 0 0 0 0 127 0" result="hardAlpha"/>
      <feOffset/>
      <feGaussianBlur stdDeviation="0.65625"/>
      <feComposite in2="hardAlpha" operator="out"/>
      <feColorMatrix type="matrix" values="0 0 0 0 1 0 0 0 0 0.426332 0 0 0 0 0.388542 0 0 0 0.8 0"/>
      <feBlend mode="normal" in2="BackgroundImageFix" result="effect1_dropShadow_12233_10519"/>
      <feBlend mode="normal" in="SourceGraphic" in2="effect1_dropShadow_12233_10519" result="shape"/>
    </filter>
    <linearGradient id="paint0_linear_12233_10519" x1="10" y1="8" x2="30.218" y2="28.2189" gradientUnits="userSpaceOnUse">
      <stop stop-color="#FFB0AB"/>
      <stop offset="0.464" stop-color="#FF6D63"/>
      <stop offset="1" stop-color="#FF4337"/>
    </linearGradient>
  </defs>
</svg>
