<svg width="478" height="164" viewBox="0 0 478 164" fill="none" xmlns="http://www.w3.org/2000/svg">
<path d="M475.297 14.9996C475.895 15.8426 476.382 16.7227 476.752 17.64L476.289 17.8274C476.471 18.2768 476.623 18.7353 476.747 19.203C476.87 19.6707 476.963 20.1448 477.027 20.6253L477.522 20.5597C477.652 21.5406 477.663 22.546 477.558 23.5744L477.061 23.5237C476.966 24.456 476.771 25.4118 476.478 26.3903L476.957 26.5336C476.681 27.4582 476.319 28.3991 475.876 29.3551L475.422 29.1445C475.023 30.004 474.555 30.8784 474.018 31.7668L474.446 32.0253C473.941 32.8611 473.377 33.7073 472.757 34.5633L472.352 34.2697C471.785 35.0515 471.169 35.8426 470.504 36.6425L470.888 36.9621C470.27 37.7067 469.61 38.4581 468.91 39.2158L468.543 38.8765C467.878 39.5961 467.176 40.3219 466.438 41.0537L466.79 41.4087C466.091 42.1018 465.36 42.7996 464.598 43.5022L464.259 43.1344C463.541 43.7958 462.795 44.4615 462.02 45.1314L462.347 45.5096C461.591 46.1639 460.809 46.8219 460 47.4835L459.683 47.0965C458.929 47.7134 458.153 48.3336 457.353 48.9568L457.661 49.3511C456.867 49.9698 456.052 50.5913 455.215 51.2155L454.916 50.8147C454.133 51.3983 453.331 51.9844 452.511 52.5728L452.802 52.9791C451.985 53.5655 451.148 54.154 450.294 54.7446L450.01 54.3333C449.201 54.8921 448.377 55.4528 447.535 56.0154L447.813 56.431C446.98 56.9881 446.132 57.5469 445.267 58.1074L444.995 57.6878C444.162 58.2281 443.314 58.7699 442.452 59.3131L442.718 59.7361C441.876 60.267 441.019 60.7991 440.15 61.3325L439.888 60.9063C439.03 61.4325 438.159 61.96 437.274 62.4886L437.531 62.9178C436.683 63.4249 435.822 63.933 434.95 64.4421L434.698 64.0103C433.828 64.5185 432.945 65.0277 432.051 65.5378L432.299 65.9721C431.435 66.4651 430.561 66.9588 429.675 67.4533L429.431 67.0168C428.56 67.5032 427.679 67.9904 426.787 68.4783L427.027 68.917C426.137 69.4038 425.237 69.8913 424.327 70.3794L424.091 69.9388C423.221 70.4056 422.341 70.8729 421.452 71.3407L421.685 71.7831C420.796 72.2515 419.897 72.7204 418.989 73.1897L418.759 72.7455C417.865 73.208 416.961 73.6709 416.049 74.1342L416.276 74.58C415.39 75.0301 414.495 75.4806 413.593 75.9314L413.369 75.4841C412.468 75.9343 411.559 76.3849 410.641 76.8357L410.862 77.2845C409.959 77.7281 409.049 78.1719 408.131 78.616L407.913 78.1659C407.017 78.5993 406.113 79.033 405.203 79.4668L405.418 79.9182C404.506 80.3524 403.588 80.7868 402.662 81.2212L402.45 80.7686C401.539 81.1958 400.622 81.6231 399.698 82.0505L399.908 82.5043C399.003 82.923 398.091 83.3417 397.173 83.7604L396.966 83.3055C396.049 83.7238 395.125 84.1422 394.195 84.5605L394.4 85.0165C393.479 85.4307 392.552 85.8449 391.619 86.259L391.416 85.802C390.506 86.206 389.59 86.6099 388.668 87.0138L388.868 87.4718C387.945 87.8759 387.017 88.28 386.083 88.6839L385.884 88.2249C384.953 88.6274 384.017 89.0297 383.075 89.4319L383.271 89.8917C382.355 90.2826 381.434 90.6732 380.508 91.0637L380.314 90.603C379.388 90.9932 378.458 91.3832 377.522 91.7729L377.714 92.2345C376.778 92.6245 375.836 93.0143 374.889 93.4039L374.699 92.9415C373.774 93.3221 372.844 93.7024 371.909 94.0825L372.098 94.5457C371.169 94.9232 370.236 95.3005 369.298 95.6775L369.112 95.2136C368.174 95.5903 367.232 95.9667 366.286 96.3428L366.47 96.8075C365.531 97.1805 364.588 97.5531 363.64 97.9254L363.458 97.46C362.528 97.8251 361.594 98.1899 360.656 98.5544L360.837 99.0205C359.898 99.3851 358.955 99.7494 358.007 100.113L357.828 99.6465C356.881 100.01 355.93 100.373 354.975 100.736L355.153 101.204C354.217 101.559 353.276 101.915 352.332 102.269L352.156 101.801C351.217 102.154 350.275 102.507 349.328 102.859L349.502 103.327C348.555 103.679 347.604 104.031 346.649 104.382L346.477 103.913C345.527 104.262 344.573 104.611 343.615 104.96L343.786 105.43C342.847 105.772 341.903 106.113 340.957 106.454L340.787 105.984C339.841 106.324 338.891 106.665 337.938 107.004L338.106 107.475C337.152 107.815 336.195 108.155 335.234 108.493L335.068 108.022C334.117 108.357 333.164 108.692 332.207 109.026L332.372 109.498C331.425 109.828 330.475 110.158 329.523 110.487L329.359 110.014C328.407 110.344 327.451 110.672 326.493 111L326.654 111.473C325.695 111.801 324.733 112.128 323.767 112.455L323.607 111.982C322.655 112.304 321.701 112.625 320.743 112.946L320.902 113.42C319.95 113.739 318.995 114.058 318.037 114.375L317.879 113.901C316.922 114.218 315.962 114.535 314.998 114.852L315.154 115.327C314.191 115.643 313.224 115.959 312.255 116.274L312.1 115.799C311.146 116.109 310.189 116.418 309.23 116.727L309.383 117.203C308.426 117.511 307.466 117.818 306.504 118.125L306.352 117.648C305.391 117.955 304.426 118.26 303.459 118.565L303.61 119.042C302.642 119.347 301.672 119.652 300.7 119.956L300.551 119.478C299.593 119.777 298.633 120.075 297.671 120.373L297.819 120.851C296.858 121.148 295.894 121.444 294.928 121.74L294.782 121.261C293.817 121.557 292.849 121.852 291.879 122.146L292.024 122.624C291.053 122.918 290.08 123.211 289.105 123.504L288.961 123.025C288 123.313 287.036 123.601 286.07 123.888L286.213 124.367C285.248 124.654 284.282 124.939 283.313 125.224L283.172 124.744C282.203 125.029 281.232 125.313 280.26 125.596L280.399 126.076C279.426 126.359 278.451 126.642 277.473 126.923L277.335 126.443C276.369 126.721 275.401 126.998 274.431 127.275L274.568 127.756C273.601 128.031 272.631 128.306 271.659 128.581L271.523 128.099C270.552 128.374 269.579 128.647 268.604 128.919L268.738 129.401C267.762 129.673 266.785 129.945 265.805 130.216L265.672 129.734C264.702 130.002 263.729 130.269 262.755 130.536L262.887 131.018C261.917 131.284 260.944 131.548 259.97 131.812L259.839 131.33C258.866 131.593 257.89 131.856 256.913 132.118L257.042 132.601C256.064 132.863 255.085 133.124 254.103 133.384L253.975 132.901C253.485 133.031 252.994 133.16 252.503 133.29C252.011 133.419 251.521 133.549 251.03 133.677L251.157 134.161C250.175 134.418 249.194 134.674 248.214 134.929L248.088 134.445C247.109 134.699 246.131 134.951 245.153 135.202L245.278 135.686C244.3 135.937 243.324 136.186 242.348 136.434L242.225 135.949C241.247 136.198 240.269 136.445 239.292 136.69L239.414 137.175C238.428 137.422 237.444 137.668 236.461 137.912L236.34 137.427C235.358 137.67 234.376 137.913 233.396 138.153L233.515 138.639C232.535 138.879 231.555 139.118 230.577 139.355L230.46 138.869C229.479 139.107 228.501 139.343 227.523 139.577L227.64 140.063C226.651 140.3 225.663 140.536 224.676 140.769L224.561 140.283C223.575 140.516 222.591 140.748 221.608 140.978L221.722 141.464C220.738 141.694 219.756 141.923 218.776 142.149L218.663 141.662C217.682 141.889 216.702 142.114 215.723 142.337L215.834 142.824C214.842 143.051 213.85 143.275 212.861 143.498L212.751 143.01C211.762 143.233 210.775 143.454 209.79 143.673L209.898 144.161C208.912 144.38 207.928 144.597 206.945 144.812L206.838 144.324C205.854 144.54 204.872 144.754 203.892 144.966L203.997 145.454C203.002 145.67 202.007 145.883 201.015 146.095L200.911 145.606C199.919 145.817 198.93 146.027 197.942 146.234L198.045 146.724C197.057 146.931 196.07 147.137 195.086 147.341L194.985 146.851C193.998 147.056 193.012 147.258 192.03 147.459L192.13 147.949C191.131 148.153 190.134 148.355 189.14 148.555L189.041 148.064C188.047 148.264 187.055 148.462 186.066 148.658L186.163 149.148C185.173 149.344 184.185 149.538 183.199 149.73L183.104 149.239C182.112 149.432 181.123 149.623 180.137 149.812L180.231 150.303C179.23 150.495 178.231 150.685 177.235 150.872L177.142 150.381C176.146 150.569 175.153 150.754 174.162 150.937L174.253 151.429C173.262 151.612 172.273 151.794 171.287 151.973L171.197 151.481C170.2 151.662 169.206 151.841 168.214 152.018L168.301 152.511C167.299 152.69 166.298 152.866 165.301 153.041L165.215 152.548C164.218 152.723 163.224 152.895 162.233 153.065L162.317 153.558C161.325 153.728 160.336 153.896 159.35 154.062L159.267 153.569C158.262 153.738 157.26 153.905 156.262 154.069L156.343 154.563C155.339 154.728 154.338 154.891 153.341 155.052L153.261 154.558C152.264 154.719 151.27 154.877 150.279 155.033L150.357 155.527C149.361 155.684 148.368 155.838 147.378 155.99L147.302 155.496C146.292 155.652 145.285 155.804 144.283 155.955L144.357 156.449C143.353 156.6 142.353 156.748 141.356 156.894L141.284 156.399C140.288 156.544 139.296 156.688 138.307 156.828L138.377 157.323C137.369 157.467 136.365 157.608 135.364 157.746L135.296 157.251C134.287 157.39 133.281 157.527 132.28 157.662L132.347 158.157C131.345 158.292 130.347 158.424 129.353 158.553L129.288 158.057C128.288 158.188 127.291 158.315 126.299 158.44L126.361 158.936C125.346 159.064 124.334 159.19 123.327 159.312L123.267 158.816C122.26 158.938 121.258 159.058 120.261 159.174L120.319 159.671C119.321 159.788 118.327 159.902 117.338 160.014L117.282 159.517C116.264 159.632 115.251 159.743 114.242 159.852L114.296 160.349C113.284 160.459 112.277 160.565 111.275 160.668L111.224 160.171C110.222 160.274 109.226 160.375 108.235 160.472L108.284 160.97C107.268 161.069 106.257 161.166 105.252 161.26L105.205 160.762C104.19 160.857 103.18 160.948 102.176 161.037L102.22 161.535C101.214 161.623 100.215 161.708 99.2209 161.79L99.1798 161.292C98.1653 161.376 97.1567 161.456 96.1541 161.533L96.1925 162.032C95.1729 162.11 94.1596 162.186 93.1525 162.257L93.117 161.758C92.1109 161.83 91.1111 161.898 90.1177 161.963L90.1502 162.462C89.1327 162.528 88.1218 162.591 87.1177 162.65L87.0883 162.151C86.0679 162.211 85.0546 162.268 84.0484 162.32L84.0746 162.82C83.0673 162.872 82.0671 162.921 81.0742 162.967L81.0514 162.467C80.0295 162.514 79.0154 162.557 78.009 162.596L78.0283 163.095C77.0071 163.134 75.9939 163.17 74.9889 163.201L74.9734 162.701C73.9696 162.732 72.9741 162.76 71.9868 162.783L71.9985 163.282C70.9661 163.307 69.9427 163.326 68.9285 163.341L68.921 162.841C67.9047 162.857 66.8976 162.867 65.8999 162.874L65.9031 163.374C64.8889 163.38 63.8844 163.382 62.8897 163.379L62.8912 162.879C61.8619 162.876 60.8431 162.868 59.8352 162.855L59.8288 163.355C58.8191 163.342 57.8202 163.324 56.8321 163.302L56.8437 162.802C55.8137 162.778 54.7955 162.749 53.7895 162.714L53.7723 163.214C52.7526 163.178 51.7453 163.138 50.7505 163.091L50.7738 162.592C49.7558 162.544 48.751 162.491 47.7597 162.432L47.7299 162.931C46.7015 162.87 45.6875 162.802 44.6881 162.728L44.725 162.23C43.7159 162.155 42.7218 162.074 41.743 161.986L41.6985 162.484C40.664 162.392 39.6464 162.292 38.6459 162.185L38.6991 161.688C37.6951 161.581 36.7087 161.466 35.7401 161.344L35.6777 161.84C34.6416 161.71 33.6257 161.571 32.6303 161.424L32.7033 160.93C31.7006 160.782 30.719 160.625 29.7588 160.46L29.6742 160.953C28.6446 160.776 27.6393 160.59 26.6586 160.393L26.7568 159.903C25.7528 159.702 24.7753 159.491 23.8246 159.269L23.7112 159.756C22.7013 159.521 21.7212 159.275 20.7714 159.016L20.9025 158.534C19.8996 158.261 18.9313 157.976 17.9983 157.677L17.846 158.154C16.8635 157.84 15.9191 157.511 15.0136 157.169L15.1905 156.701C14.2178 156.333 13.2917 155.948 12.4128 155.548L12.2055 156.003C11.2433 155.564 10.3358 155.106 9.48435 154.628L9.72917 154.192C8.82413 153.684 7.98561 153.154 7.21463 152.603L6.92391 153.01C6.06635 152.397 5.2882 151.756 4.59154 151.089L4.93758 150.728C4.20034 150.021 3.55999 149.285 3.01747 148.521L2.60977 148.81C2.01132 147.967 1.5251 147.087 1.15434 146.17L1.61791 145.983C1.43627 145.533 1.28362 145.075 1.16029 144.607C1.03697 144.139 0.943698 143.665 0.880126 143.185L0.384445 143.25C0.254664 142.269 0.243692 141.264 0.348668 140.236L0.846083 140.286C0.941248 139.354 1.13557 138.398 1.4284 137.42L0.949395 137.276C1.22611 136.352 1.58732 135.411 2.03119 134.455L2.48469 134.665C2.88375 133.806 3.35205 132.932 3.88882 132.043L3.46086 131.785C3.96584 130.949 4.52933 130.103 5.1502 129.247L5.55494 129.54C6.12199 128.758 6.73822 127.967 7.40293 127.167L7.01838 126.848C7.63717 126.103 8.29688 125.352 8.99681 124.594L9.3641 124.933C10.0287 124.214 10.7304 123.488 11.4685 122.756L11.1164 122.401C11.8154 121.708 12.5465 121.01 13.3091 120.308L13.6479 120.676C14.3658 120.014 15.1121 119.348 15.8865 118.679L15.5593 118.3C16.3157 117.646 17.0983 116.988 17.9068 116.326L18.2234 116.713C18.9775 116.097 19.7543 115.476 20.5536 114.853L20.2462 114.459C21.0397 113.84 21.8552 113.219 22.6923 112.594L22.9912 112.995C23.7738 112.412 24.5755 111.826 25.396 111.237L25.1046 110.831C25.9222 110.245 26.7583 109.656 27.6127 109.065L27.897 109.477C28.7054 108.918 29.5302 108.357 30.3713 107.795L30.0933 107.379C30.9264 106.822 31.7752 106.263 32.6396 105.703L32.9116 106.122C33.7449 105.582 34.5927 105.04 35.455 104.497L35.1885 104.074C36.0311 103.543 36.8874 103.011 37.7571 102.477L38.0185 102.904C38.8766 102.377 39.7479 101.85 40.6323 101.321L40.3758 100.892C41.2241 100.385 42.0843 99.8769 42.9563 99.3679L43.2084 99.7997C44.079 99.2914 44.9613 98.7822 45.8554 98.2721L45.6076 97.8378C46.4715 97.3449 47.3463 96.8511 48.2318 96.3566L48.4756 96.7932C49.3466 96.3067 50.228 95.8195 51.1198 95.3316L50.8798 94.893C51.7696 94.4061 52.6696 93.9186 53.5797 93.4305L53.816 93.8712C54.6863 93.4044 55.5658 92.9371 56.4544 92.4693L56.2215 92.0268C57.1112 91.5584 58.01 91.0896 58.9179 90.6203L59.1475 91.0644C60.0421 90.6019 60.9455 90.139 61.8575 89.6758L61.631 89.23C62.5172 88.7798 63.4115 88.3294 64.3139 87.8786L64.5373 88.3259C65.4387 87.8756 66.3481 87.4251 67.2655 86.9742L67.0449 86.5255C67.9476 86.0819 68.858 85.638 69.776 85.194L69.9937 85.6441C70.8899 85.2106 71.7933 84.777 72.7039 84.3431L72.4889 83.8918C73.4004 83.4575 74.319 83.0232 75.2447 82.5887L75.4571 83.0413C76.3674 82.6141 77.2845 82.1868 78.2084 81.7595L77.9985 81.3057C78.9037 80.887 79.8153 80.4683 80.7334 80.0496L80.9409 80.5045C81.8581 80.0861 82.7818 79.6678 83.7118 79.2494L83.5067 78.7934C84.4275 78.3792 85.3545 77.9651 86.2877 77.551L86.4905 78.008C87.4009 77.604 88.3172 77.2 89.2392 76.7962L89.0387 76.3382C89.9614 75.934 90.89 75.53 91.8242 75.1261L92.0226 75.585C92.9535 75.1826 93.89 74.7802 94.8321 74.3781L94.6359 73.9182C95.5515 73.5274 96.4725 73.1367 97.3986 72.7462L97.5929 73.207C98.5183 72.8168 99.449 72.4268 100.385 72.037L100.193 71.5755C101.129 71.1854 102.071 70.7956 103.018 70.4061L103.208 70.8685C104.133 70.4879 105.063 70.1075 105.997 69.7275L105.809 69.2643C106.738 68.8867 107.671 68.5094 108.609 68.1324L108.795 68.5964C109.733 68.2196 110.675 67.8432 111.621 67.4671L111.437 67.0025C112.375 66.6295 113.319 66.2569 114.266 65.8846L114.449 66.35C115.379 65.9848 116.313 65.62 117.251 65.2556L117.07 64.7895C118.009 64.4248 118.952 64.0605 119.899 63.6967L120.079 64.1634C121.025 63.7998 121.976 63.4365 122.931 63.0737L122.754 62.6063C123.69 62.2506 124.63 61.8953 125.575 61.5405L125.751 62.0085C126.689 61.6557 127.632 61.3033 128.579 60.9514L128.404 60.4828C129.352 60.1306 130.303 59.779 131.257 59.4278L131.43 59.8971C132.38 59.5476 133.334 59.1986 134.291 58.8502L134.12 58.3803C135.06 58.0383 136.003 57.6969 136.95 57.3559L137.12 57.8263C138.066 57.4856 139.016 57.1453 139.969 56.8056L139.801 56.3346C140.755 55.9947 141.712 55.6553 142.673 55.3165L142.839 55.788C143.789 55.4529 144.743 55.1183 145.7 54.7843L145.535 54.3122C146.482 53.9819 147.431 53.6521 148.384 53.3229L148.547 53.7955C149.5 53.4664 150.455 53.138 151.414 52.8101L151.252 52.337C152.212 52.009 153.174 51.6815 154.14 51.3547L154.3 51.8283C155.251 51.5062 156.206 51.1847 157.164 50.8638L157.005 50.3897C157.957 50.0707 158.912 49.7523 159.87 49.4346L160.027 49.9091C160.985 49.5915 161.945 49.2746 162.908 48.9583L162.752 48.4832C163.716 48.1668 164.683 47.851 165.652 47.5359L165.807 48.0114C166.761 47.7012 167.718 47.3918 168.677 47.083L168.524 46.607C169.481 46.2991 170.44 45.9918 171.403 45.6853L171.554 46.1617C172.516 45.8553 173.481 45.5496 174.447 45.2446L174.297 44.7677C175.265 44.4626 176.235 44.1581 177.207 43.8545L177.356 44.3317C178.314 44.0328 179.274 43.7345 180.236 43.437L180.088 42.9593C181.049 42.6623 182.013 42.3659 182.978 42.0704L183.125 42.5485C184.09 42.253 185.058 41.9583 186.028 41.6644L185.883 41.1859C186.854 40.8918 187.826 40.5985 188.802 40.306L188.945 40.7849C189.907 40.4965 190.87 40.209 191.836 39.9222L191.694 39.4428C192.658 39.1565 193.625 38.8708 194.594 38.586L194.735 39.0657C195.704 38.781 196.674 38.4971 197.647 38.2141L197.507 37.734C198.481 37.4508 199.456 37.1684 200.434 36.8868L200.572 37.3673C201.538 37.0891 202.506 36.8118 203.476 36.5353L203.339 36.0544C204.306 35.7785 205.276 35.5035 206.248 35.2293L206.383 35.7105C207.355 35.4364 208.328 35.1631 209.303 34.8907L209.169 34.4092C210.144 34.1367 211.122 33.865 212.101 33.5942L212.235 34.0762C213.205 33.8079 214.177 33.5405 215.152 33.274L215.02 32.7917C215.99 32.5262 216.962 32.2616 217.937 31.9978L218.067 32.4804C219.041 32.2168 220.017 31.954 220.994 31.6922L220.865 31.2092C221.842 30.9473 222.822 30.6862 223.803 30.4261L223.931 30.9094C224.422 30.7794 224.913 30.6496 225.404 30.52C225.895 30.3905 226.386 30.2614 226.877 30.1327L226.75 29.649C227.732 29.3915 228.713 29.1356 229.693 28.8814L229.818 29.3653C230.798 29.1112 231.776 28.8588 232.753 28.608L232.629 28.1237C233.607 27.8728 234.583 27.6236 235.558 27.376L235.681 27.8606C236.66 27.6122 237.638 27.3654 238.614 27.1203L238.493 26.6353C239.478 26.3879 240.463 26.1422 241.446 25.8982L241.567 26.3834C242.549 26.1396 243.531 25.8974 244.511 25.6569L244.392 25.1713C245.372 24.9308 246.352 24.6919 247.329 24.4548L247.447 24.9407C248.427 24.703 249.406 24.4671 250.384 24.2329L250.267 23.7467C251.256 23.5096 252.244 23.2743 253.231 23.0408L253.346 23.5273C254.332 23.2939 255.316 23.0623 256.299 22.8324L256.185 22.3455C257.169 22.1156 258.15 21.8874 259.131 21.6609L259.243 22.1481C260.225 21.9213 261.205 21.6964 262.184 21.4732L262.073 20.9857C263.065 20.7593 264.056 20.5347 265.046 20.312L265.156 20.7998C266.145 20.5771 267.132 20.3563 268.117 20.1374L268.009 19.6493C268.995 19.4302 269.979 19.213 270.962 18.9976L271.069 19.486C272.053 19.2703 273.035 19.0565 274.015 18.8444L273.909 18.3557C274.905 18.1404 275.899 17.9269 276.891 17.7154L276.996 18.2044C277.987 17.9929 278.977 17.7834 279.965 17.5757L279.862 17.0864C280.85 16.8787 281.837 16.6728 282.821 16.4689L282.922 16.9585C283.909 16.754 284.894 16.5515 285.877 16.3508L285.777 15.8609C286.776 15.6571 287.773 15.4552 288.767 15.2553L288.866 15.7455C289.86 15.5458 290.851 15.348 291.841 15.1522L291.744 14.6617C292.734 14.4658 293.722 14.2719 294.707 14.0799L294.803 14.5707C295.794 14.3777 296.783 14.1867 297.77 13.9977L297.676 13.5066C298.677 13.3148 299.676 13.1252 300.672 12.9376L300.765 13.4289C301.76 13.2414 302.754 13.056 303.745 12.8727L303.654 12.381C304.645 12.1976 305.634 12.0162 306.62 11.8369L306.71 12.3289C307.707 12.1476 308.701 11.9685 309.693 11.7915L309.605 11.2993C310.608 11.1203 311.608 10.9436 312.606 10.769L312.692 11.2615C313.689 11.087 314.683 10.9147 315.674 10.7446L315.59 10.2518C316.581 10.0816 317.57 9.91353 318.557 9.74768L318.64 10.2408C319.644 10.0718 320.646 9.90502 321.645 9.74057L321.564 9.2472C322.568 9.08194 323.569 8.91898 324.566 8.7583L324.646 9.25194C325.643 9.09136 326.637 8.93309 327.627 8.77711L327.55 8.28319C328.546 8.12631 329.539 7.97176 330.529 7.81953L330.605 8.31371C331.615 8.15843 332.621 8.00557 333.624 7.85513L333.55 7.36067C334.554 7.21013 335.554 7.06203 336.55 6.91635L336.623 7.4111C337.619 7.26551 338.611 7.12235 339.6 6.98162L339.53 6.48661C340.538 6.34315 341.542 6.2022 342.543 6.06378L342.611 6.55907C343.62 6.41949 344.625 6.28249 345.627 6.14806L345.56 5.6525C346.562 5.51798 347.56 5.38603 348.554 5.25666L348.618 5.75248C349.619 5.62225 350.616 5.49465 351.608 5.36966L351.545 4.87358C352.561 4.74565 353.573 4.62046 354.58 4.49801L354.64 4.99436C355.646 4.87199 356.648 4.75237 357.646 4.6355L357.588 4.13889C358.586 4.02193 359.58 3.90772 360.569 3.79625L360.625 4.2931C361.643 4.17841 362.656 4.06663 363.664 3.95777L363.611 3.46065C364.623 3.35139 365.63 3.24508 366.632 3.14168L366.683 3.63904C367.684 3.53573 368.681 3.43536 369.672 3.33792L369.623 2.84033C370.639 2.74046 371.65 2.64368 372.655 2.54998L372.702 3.04783C373.717 2.9532 374.727 2.86173 375.731 2.77341L375.687 2.27533C376.692 2.18693 377.692 2.10169 378.686 2.01962L378.727 2.51793C379.742 2.43415 380.75 2.35367 381.753 2.2765L381.714 1.77797C382.734 1.69948 383.747 1.62441 384.754 1.55275L384.79 2.05149C385.796 1.9799 386.796 1.91173 387.789 1.84696L387.757 1.34802C388.774 1.28168 389.785 1.21893 390.789 1.15975L390.818 1.65889C391.839 1.59875 392.852 1.54232 393.858 1.48961L393.832 0.990297C394.84 0.937521 395.84 0.888458 396.833 0.843115L396.855 1.3426C397.877 1.29594 398.891 1.25321 399.898 1.21445L399.879 0.714813C400.9 0.675473 401.913 0.6402 402.918 0.608982L402.933 1.10874C403.937 1.07756 404.933 1.05045 405.92 1.0274L405.908 0.527546C406.941 0.50345 407.964 0.483784 408.978 0.468574L408.986 0.968525C410.002 0.953282 411.009 0.942512 412.007 0.936224L412.004 0.43623C413.018 0.42984 414.022 0.42807 415.017 0.430924L415.016 0.930926C416.045 0.93388 417.064 0.9418 418.072 0.954685L418.078 0.454722C419.088 0.467633 420.087 0.485521 421.075 0.508399L421.063 1.00826C422.093 1.03211 423.111 1.06138 424.117 1.09609L424.135 0.596385C425.154 0.631564 426.161 0.67232 427.156 0.718655L427.133 1.2181C428.151 1.26552 429.156 1.3188 430.147 1.37793L430.177 0.878821C431.205 0.940166 432.219 1.0078 433.219 1.08175L433.182 1.58039C434.191 1.65506 435.185 1.73617 436.164 1.82373L436.208 1.32571C437.243 1.41825 438.26 1.51799 439.261 1.62493L439.208 2.12209C440.212 2.22941 441.198 2.34399 442.167 2.46583L442.229 1.96975C443.265 2.10007 444.281 2.23871 445.276 2.38567L445.203 2.8803C446.206 3.02834 447.188 3.18481 448.148 3.34974L448.233 2.85695C449.262 3.03381 450.268 3.22039 451.248 3.41671L451.15 3.90697C452.154 4.10797 453.132 4.31915 454.082 4.54052L454.196 4.05356C455.205 4.28871 456.186 4.53539 457.135 4.79362L457.004 5.27611C458.007 5.54879 458.976 5.83428 459.909 6.13252L460.061 5.65627C461.043 5.97037 461.988 6.29876 462.893 6.64145L462.716 7.10908C463.689 7.47722 464.615 7.86159 465.494 8.26213L465.701 7.80715C466.664 8.2457 467.571 8.70402 468.422 9.18215L468.178 9.61811C469.083 10.1263 469.921 10.656 470.692 11.207L470.983 10.8002C471.84 11.4131 472.619 12.0535 473.315 12.7214L472.969 13.0823C473.706 13.7892 474.347 14.5249 474.889 15.2891L475.297 14.9996Z" stroke="url(#paint0_linear_9613_32849)" stroke-dasharray="3 3"/>
<defs>
<linearGradient id="paint0_linear_9613_32849" x1="291.301" y1="119.282" x2="274.332" y2="16.3577" gradientUnits="userSpaceOnUse">
<stop stop-color="#979ABE"/>
<stop offset="1" stop-color="#464758"/>
</linearGradient>
</defs>
</svg>
