<svg version="1.1" viewBox="0.0 0.0 192.0 192.0" fill="none" stroke="none" stroke-linecap="square" stroke-miterlimit="10" xmlns:xlink="http://www.w3.org/1999/xlink" xmlns="http://www.w3.org/2000/svg"><clipPath id="p.0"><path d="m0 0l192.0 0l0 192.0l-192.0 0l0 -192.0z" clip-rule="nonzero"/></clipPath><g clip-path="url(#p.0)"><path fill="#000000" fill-opacity="0.0" d="m0 0l192.0 0l0 192.0l-192.0 0z" fill-rule="evenodd"/><defs><linearGradient id="p.1" gradientUnits="userSpaceOnUse" gradientTransform="matrix(11.604630919325494 11.609412309403234 -11.609412309403234 11.604630919325494 0.0 0.0)" spreadMethod="pad" x1="7.2698880876728875" y1="-8.147094566258074" x2="0.12261647792623244" y2="1.0014005398363055"><stop offset="0.0" stop-color="#12c2e9"/><stop offset="0.5" stop-color="#c471ed"/><stop offset="1.0" stop-color="#f64f59"/></linearGradient></defs><path fill="url(#p.1)" d="m47.977356 48.015438l0 0c26.503922 -26.51484 69.47526 -26.51484 95.97917 0l0 0c12.727631 12.732872 19.877945 30.002354 19.877945 48.009357c0 18.007004 -7.1503143 35.27649 -19.877945 48.00937l0 0c-26.503914 26.514832 -69.47525 26.514832 -95.97917 0l0 0c-26.503918 -26.514847 -26.503918 -69.50389 0 -96.01872z" fill-rule="evenodd"/><path fill="#ffffff" d="m61.139725 61.18323l0 0c19.234543 -19.242504 50.4199 -19.242504 69.65445 0l0 0c9.23674 9.240574 14.425903 21.773487 14.425903 34.841633c0 13.068146 -5.189163 25.601051 -14.425903 34.841637l0 0c-19.23455 19.242493 -50.419907 19.242493 -69.65445 0l0 0c-19.234547 -19.242508 -19.234547 -50.440765 0 -69.68327z" fill-rule="evenodd"/><defs><linearGradient id="p.2" gradientUnits="userSpaceOnUse" gradientTransform="matrix(6.451585179309793 6.454443288367542 -6.454443288367542 6.451585179309793 0.0 0.0)" spreadMethod="pad" x1="13.919527473876142" y1="-14.655073271382221" x2="9.945884866932547" y2="-9.568817025867713"><stop offset="0.0" stop-color="#12c2e9"/><stop offset="0.5" stop-color="#c471ed"/><stop offset="1.0" stop-color="#f64f59"/></linearGradient></defs><path fill="url(#p.2)" d="m140.49054 0.6760233l50.78572 50.808228l-13.162201 13.167637l-50.78573 -50.808228z" fill-rule="evenodd"/></g></svg>