<svg xmlns="http://www.w3.org/2000/svg" width="26" height="26" viewBox="0 0 26 26" fill="none">
  <circle cx="13" cy="13" r="13" fill="url(#paint0_linear_13708_159)"/>
  <path d="M12.5966 17.3658C12.0833 17.3658 11.5908 17.3244 11.1189 17.2416C10.647 17.1671 10.2165 17.0636 9.82742 16.9311C9.4466 16.7904 9.11546 16.6331 8.83398 16.4592L9.96401 14.3234C10.2869 14.5055 10.6097 14.6586 10.9326 14.7828C11.2638 14.8987 11.5908 14.9857 11.9136 15.0436C12.2448 15.1016 12.5718 15.1305 12.8946 15.1305C13.1513 15.1305 13.3624 15.1098 13.528 15.0684C13.7018 15.027 13.8301 14.9691 13.9129 14.8946C14.004 14.8118 14.0495 14.7207 14.0495 14.6214C14.0495 14.4889 13.975 14.3813 13.826 14.2985C13.677 14.2157 13.4783 14.1412 13.2299 14.075C12.9898 14.0088 12.7208 13.9425 12.4228 13.8763C12.133 13.8018 11.8391 13.7107 11.5411 13.6031C11.2431 13.4872 10.9699 13.3423 10.7215 13.1685C10.4814 12.9946 10.2869 12.7753 10.1379 12.5103C9.98885 12.2454 9.91434 11.9226 9.91434 11.5417C9.91434 10.8795 10.0882 10.3041 10.4359 9.81566C10.7919 9.32722 11.2969 8.95054 11.9509 8.68563C12.6132 8.41244 13.3996 8.27584 14.3103 8.27584C14.956 8.27584 15.5562 8.34207 16.1109 8.47452C16.6738 8.60698 17.1581 8.79325 17.5638 9.03333L16.5083 11.1568C16.1606 10.9415 15.7797 10.7801 15.3658 10.6725C14.9602 10.5649 14.5462 10.5111 14.124 10.5111C13.8425 10.5111 13.6066 10.54 13.4162 10.598C13.2258 10.6477 13.0809 10.718 12.9816 10.8091C12.8905 10.9002 12.845 10.9954 12.845 11.0947C12.845 11.2272 12.9195 11.3389 13.0685 11.43C13.2175 11.5128 13.4162 11.5873 13.6646 11.6535C13.9129 11.7115 14.182 11.7777 14.4717 11.8522C14.7697 11.9184 15.0636 12.0054 15.3534 12.113C15.6514 12.2123 15.9246 12.3489 16.173 12.5228C16.4213 12.6883 16.62 12.9036 16.769 13.1685C16.918 13.4251 16.9926 13.7439 16.9926 14.1247C16.9926 14.7704 16.8146 15.3375 16.4586 15.8259C16.1026 16.3061 15.5935 16.6828 14.9312 16.956C14.2772 17.2292 13.499 17.3658 12.5966 17.3658ZM11.5038 18.6572L11.8267 17.0429H13.5776L13.2548 18.6572H11.5038ZM13.5155 8.5987L13.8384 6.98438H15.5893L15.2665 8.5987H13.5155Z" fill="black"/>
  <defs>
    <linearGradient id="paint0_linear_13708_159" x1="0" y1="13" x2="26" y2="13" gradientUnits="userSpaceOnUse">
      <stop stop-color="#FDF621"/>
      <stop offset="0.595" stop-color="#FDFCC3"/>
      <stop offset="1" stop-color="#FDF973"/>
    </linearGradient>
  </defs>
</svg>