<svg width="26" height="26" viewBox="0 0 26 26" fill="none" xmlns="http://www.w3.org/2000/svg">
<circle cx="13" cy="13" r="13" fill="black"/>
<path fill-rule="evenodd" clip-rule="evenodd" d="M8.38622 6.17877C8.46564 6.06645 8.59253 6 8.72757 6H17.7021C17.8445 6 17.9773 6.07383 18.0553 6.19636L21.9311 12.2862C22.0384 12.4548 22.0188 12.6772 21.8837 12.8232L13.5209 21.8651C13.3574 22.0419 13.0844 22.0454 12.9166 21.8729L4.12363 12.8296C3.97677 12.6785 3.95857 12.4401 4.08073 12.2673L8.38622 6.17877ZM10.2748 7.08525C10.1 7.08525 10.001 7.29118 10.107 7.43402L13.0455 11.3915C13.1299 11.5053 13.2965 11.5053 13.3809 11.3915L16.3194 7.43402C16.4254 7.29118 16.3264 7.08525 16.1516 7.08525H10.2748ZM17.7752 7.73796C17.6955 7.61267 17.5193 7.60609 17.4309 7.72509L14.5389 11.6201C14.4328 11.7629 14.5319 11.9688 14.7066 11.9688H20.0776C20.2453 11.9688 20.346 11.7773 20.2541 11.6329L17.7752 7.73796ZM19.8747 13.4207C20.0025 13.2825 19.9073 13.0541 19.7218 13.0541H13.9518C13.8353 13.0541 13.7408 13.1513 13.7408 13.2711V19.5096C13.7408 19.7056 13.9734 19.8012 14.1048 19.6592L19.8747 13.4207ZM12.3253 19.7299C12.4583 19.8667 12.6856 19.7698 12.6856 19.5765V13.2711C12.6856 13.1513 12.5911 13.0541 12.4745 13.0541H6.34372C6.1557 13.0541 6.06154 13.2879 6.19449 13.4246L12.3253 19.7299ZM6.011 11.9688C5.83851 11.9688 5.73887 11.7676 5.84032 11.6241L8.62507 7.68611C8.70814 7.56865 8.87777 7.56661 8.96348 7.68205L11.8875 11.6201C11.9935 11.7629 11.8945 11.9688 11.7197 11.9688H6.011Z" fill="url(#paint0_linear_13708_159)"/>
<defs>
<linearGradient id="paint0_linear_13708_159" x1="8.35921" y1="6.54262" x2="15.5215" y2="19.5065" gradientUnits="userSpaceOnUse">
<stop stop-color="#FF9892"/>
<stop offset="1" stop-color="#FF5A50"/>
</linearGradient>
</defs>
</svg>
