<svg xmlns="http://www.w3.org/2000/svg" width="114" height="38" viewBox="0 0 114 38" fill="none">
  <path d="M27.4835 3.44407H8.04923C7.7634 3.44407 7.48895 3.5551 7.2847 3.75335L0.328386 10.5055C0.118367 10.7093 0 10.9885 0 11.2799L2.13823e-06 33.8652C2.30485e-06 35.6607 1.46794 37.1163 3.27873 37.1163H102.109C102.344 37.1163 102.574 37.0409 102.762 36.9013L112.677 29.5691C112.953 29.3646 113.116 29.0426 113.116 28.7005V3.25106C113.116 1.45555 111.648 0 109.838 0H32.7829C32.5437 0 32.3112 0.0777999 32.1209 0.221467L28.1456 3.2226C27.9553 3.36627 27.7227 3.44407 27.4835 3.44407Z" fill="#FCFC02"/>
  <path d="M3.27873 19.0581H109.838C111.358 19.0581 112.616 20.3334 112.616 21.9393V29.2473C112.616 29.4514 112.523 29.6385 112.372 29.7544L102.458 37.38C102.355 37.4588 102.233 37.5 102.109 37.5H3.27873C1.75847 37.5 0.500002 36.2246 0.500002 34.6188L0.5 21.9393C0.5 20.3334 1.75847 19.0581 3.27873 19.0581Z" fill="black" stroke="#FCFC02"/>
  <path d="M96.3098 30.0241H98.8956L98.2421 32.2974H95.6562L96.3098 30.0241ZM98.0148 24H100.615L98.9809 29.7116H96.3809L98.0148 24Z" fill="#00FFD1"/>
  <path d="M93.4984 26.2733C93.4842 26.2733 93.47 26.2733 93.47 26.259L93.4984 26.2733ZM87.318 24H95.4023C95.5728 24 95.7291 24.0568 95.8854 24.1705C96.0416 24.2842 96.1837 24.412 96.2974 24.5683C96.411 24.7246 96.5105 24.8809 96.5673 25.0514C96.6242 25.2219 96.6384 25.364 96.61 25.4776L95.0613 30.8624C95.0187 30.9903 94.9192 31.1323 94.7629 31.3028C94.5924 31.4733 94.4077 31.6296 94.2088 31.7717C93.9957 31.9138 93.7826 32.0416 93.5695 32.1411C93.3564 32.2548 93.1859 32.2974 93.0438 32.2974H84.9453L86.4513 27.0263H89.2077L88.3552 30.0241H92.3902C92.4755 29.9957 92.5465 29.9389 92.6033 29.8536L93.5837 26.4722C93.5837 26.3869 93.5553 26.3301 93.4984 26.2733H86.6787L87.318 24Z" fill="#00FFD1"/>
  <path d="M83.3137 29.2711H77.8437L77.6306 30.0241H84.5782L83.9247 32.2974H74.2207L75.7267 27.0263H83.9531L83.3137 29.2711ZM75.9541 26.2733L76.5934 24H86.2974L85.658 26.2733H75.9541Z" fill="#00FFD1"/>
  <path d="M72.0492 26.2733C72.035 26.2733 72.0208 26.2733 72.0208 26.259L72.0492 26.2733ZM65.8688 24H73.9531C74.1236 24 74.2798 24.0568 74.4361 24.1705C74.5924 24.2842 74.7345 24.412 74.8482 24.5683C74.9618 24.7246 75.0613 24.8809 75.1181 25.0514C75.1749 25.2219 75.1891 25.364 75.1607 25.4776L73.6121 30.8624C73.5695 30.9903 73.47 31.1323 73.3137 31.3028C73.1432 31.4733 72.9585 31.6296 72.7596 31.7717C72.5465 31.9138 72.3334 32.0416 72.1203 32.1411C71.9071 32.2548 71.7366 32.2974 71.5946 32.2974H63.4961L65.0021 27.0263H67.7584L66.906 30.0241H70.941C71.0262 29.9957 71.0973 29.9389 71.1541 29.8536L72.1345 26.4722C72.1345 26.3869 72.106 26.3301 72.0492 26.2733H65.2294L65.8688 24Z" fill="#00FFD1"/>
  <path d="M58.5029 32.2974H52.1094L57.9772 24H61.7139L62.8221 32.2974H59.6822L59.0854 26.5858L56.7838 30.0241H58.2898L58.5029 32.2974Z" fill="#00FFD1"/>
  <path d="M44.6736 24H53.0989C53.2694 24.0568 53.4115 24.1563 53.5393 24.27C53.653 24.3836 53.7382 24.5541 53.7667 24.7672L51.8202 31.5302C51.6639 31.7575 51.4934 31.928 51.2945 32.0558C51.0956 32.1837 50.9109 32.269 50.7262 32.2974H42.3009C41.8747 32.1837 41.6758 31.9138 41.6758 31.4875L43.5938 24.8383C43.8496 24.3978 44.2048 24.1137 44.6736 24ZM45.9381 26.2733L44.8583 30.0241H49.5469L50.6267 26.2733H45.9381Z" fill="#00FFD1"/>
  <path d="M37.3082 24L35.589 30.0241H41.0875L40.4339 32.2974H32.1934L34.5661 24H37.3082Z" fill="#00FFD1"/>
  <path d="M30.5618 29.2711H25.0918L24.8786 30.0241H31.8263L31.1727 32.2974H21.4688L22.9748 27.0263H31.2011L30.5618 29.2711ZM23.2021 26.2733L23.8415 24H33.5454L32.9061 26.2733H23.2021Z" fill="#00FFD1"/>
  <path d="M13.1149 24H22.009C22.3784 24.0995 22.5915 24.341 22.6199 24.7388L21.5117 28.5607C21.3412 28.8449 21.185 29.0296 21.0287 29.1432C20.8724 29.2569 20.6308 29.2995 20.3041 29.2995H18.727L20.5882 32.2974H17.1499L15.2461 29.2143L15.8712 27.0263H19.2385L19.4658 26.2733H15.2319L13.4985 32.2974H10.7422L13.1149 24Z" fill="#00FFD1"/>
  <path d="M91.7672 8.22217H94.5094L93.6427 11.2484H97.6919L98.5586 8.22217H101.301L98.928 16.5195H96.1859L97.0526 13.5075H93.0033L92.1366 16.5195H89.3945L91.7672 8.22217Z" fill="black"/>
  <path d="M79.4707 16.5195L80.1243 14.2463H84.8413L81.5166 10.7796C81.3746 10.396 81.3603 9.98394 81.4882 9.55771C81.5166 9.41563 81.6019 9.27355 81.7298 9.11726C81.8434 8.96098 81.9855 8.8189 82.156 8.67682C82.3123 8.54895 82.4828 8.43529 82.6533 8.35004C82.8238 8.26479 82.98 8.22217 83.1221 8.22217H90.7659L90.1266 10.4954H85.3385L88.72 13.9906C88.8053 14.161 88.8479 14.36 88.8479 14.5731C88.8479 14.7862 88.8195 14.9993 88.7626 15.1982C88.7058 15.3403 88.6348 15.4966 88.5353 15.6529C88.4217 15.8092 88.308 15.9512 88.1659 16.0791C88.0238 16.207 87.8817 16.3064 87.7397 16.3917C87.5976 16.4769 87.4555 16.5195 87.3419 16.5195H79.4707Z" fill="black"/>
  <path d="M71.118 8.22217H73.8744L72.1552 14.2463H76.3607L78.0799 8.22217H80.822L78.6766 15.7097C78.4209 16.1644 78.0657 16.4343 77.5968 16.5195H69.5978C69.1716 16.4059 68.9727 16.1359 68.9727 15.7097L71.118 8.22217Z" fill="black"/>
  <path d="M60.3942 8.22217H69.2883C69.6577 8.32162 69.8708 8.56316 69.8992 8.96098L68.791 12.7829C68.6205 13.067 68.4642 13.2517 68.308 13.3654C68.1517 13.4791 67.9101 13.5217 67.5834 13.5217H66.0063L67.8675 16.5195H64.4292L62.5254 13.4364L63.1505 11.2484H66.5178L66.7451 10.4954H62.5112L60.7778 16.5195H58.0215L60.3942 8.22217Z" fill="black"/>
  <path d="M49.7445 10.4954C49.7303 10.4954 49.7161 10.4954 49.7161 10.4812L49.7445 10.4954ZM43.5641 8.22217H51.6484C51.8189 8.22217 51.9752 8.279 52.1314 8.39266C52.2877 8.50633 52.4298 8.6342 52.5435 8.79048C52.6571 8.94677 52.7566 9.10305 52.8134 9.27355C52.8703 9.44404 52.8845 9.58612 52.856 9.69978L51.3074 15.0846C51.2648 15.2124 51.1653 15.3545 51.009 15.525C50.8385 15.6955 50.6538 15.8518 50.4549 15.9939C50.2418 16.1359 50.0287 16.2638 49.8156 16.3633C49.6024 16.4769 49.432 16.5195 49.2899 16.5195H41.1914L42.6974 11.2484H45.4538L44.6013 14.2463H48.6363C48.7216 14.2179 48.7926 14.161 48.8494 14.0758L49.8298 10.6943C49.8298 10.6091 49.8014 10.5523 49.7445 10.4954H42.9248L43.5641 8.22217Z" fill="black"/>
  <path d="M37.0523 8.22217L35.3332 14.2463H40.8316L40.178 16.5195H31.9375L34.3102 8.22217H37.0523Z" fill="black"/>
  <path d="M23.9803 8.22217H32.4055C32.576 8.279 32.7181 8.37845 32.846 8.49212C32.9596 8.60578 33.0449 8.77627 33.0733 8.98939L31.1268 15.7523C30.9705 15.9797 30.8 16.1501 30.6011 16.278C30.4022 16.4059 30.2175 16.4911 30.0328 16.5195H21.6076C21.1813 16.4059 20.9824 16.1359 20.9824 15.7097L22.9005 9.06043C23.1562 8.61999 23.5114 8.33583 23.9803 8.22217ZM25.2448 10.4954L24.165 14.2463H28.8536L29.9334 10.4954H25.2448Z" fill="black"/>
  <path d="M13.2537 8.22217H22.1052L21.4658 10.4954H14.5182L13.4384 14.2463H17.6439L18.4964 11.2626H21.2385L19.9598 15.7097C19.7041 16.1644 19.3489 16.4343 18.88 16.5195H10.881C10.4548 16.4059 10.2559 16.1359 10.2559 15.7097L12.1739 9.06043C12.4297 8.61999 12.7849 8.33583 13.2537 8.22217Z" fill="black"/>
</svg>