<svg width="26" height="26" viewBox="0 0 26 26" fill="none" xmlns="http://www.w3.org/2000/svg">
<circle cx="13" cy="13" r="13" fill="url(#paint0_linear_13708_112)"/>
<path fill-rule="evenodd" clip-rule="evenodd" d="M14.3613 6.70117C14.4644 6.64986 14.5803 6.63025 14.6944 6.64482L19.0278 7.19754C19.2174 7.22172 19.3831 7.33747 19.471 7.50721L21.6978 11.8062C21.8238 12.0493 21.7633 12.3473 21.5525 12.522L12.8858 19.7074C12.7252 19.8406 12.5055 19.8776 12.3101 19.8043L4.60637 16.9179C4.45785 16.8623 4.33847 16.7484 4.27583 16.6027C4.2132 16.457 4.21273 16.292 4.27454 16.146L6.56158 10.7416C6.61572 10.6137 6.71382 10.5093 6.83818 10.4474L14.3613 6.70117ZM14.7222 7.82197L8.78647 10.7777L11.5791 11.4526L17.1951 8.13739L14.7222 7.82197ZM18.7202 8.58896L12.294 12.3825L12.9676 18.1273L20.4484 11.9251L18.7202 8.58896ZM11.8251 18.3794L11.1408 12.5444L7.44115 11.6503L5.58322 16.0407L11.8251 18.3794Z" fill="black"/>
<defs>
<linearGradient id="paint0_linear_13708_112" x1="0" y1="13" x2="26" y2="13" gradientUnits="userSpaceOnUse">
<stop stop-color="#FDF621"/>
<stop offset="0.595" stop-color="#FDFCC3"/>
<stop offset="1" stop-color="#FDF973"/>
</linearGradient>
</defs>
</svg>
