<svg xmlns="http://www.w3.org/2000/svg" width="46" height="52" viewBox="0 0 46 52" fill="none">
  <path d="M33.0599 8.9971C31.7777 8.17207 30.0592 8.65672 29.398 10.0229L24.1544 20.8503C24.0707 21.0246 24.1057 21.2389 24.2426 21.3786L24.4188 21.5576C24.56 21.6971 24.7711 21.7318 24.9479 21.6446L35.8494 16.4383C37.2241 15.7794 37.7092 14.0727 36.8807 12.7984C35.8892 11.2755 34.5851 9.97937 33.0516 8.9971H33.0605H33.0599ZM28.0232 18.6637L26.8248 19.1701C26.6926 19.2267 26.565 19.0959 26.6177 18.9652L27.1248 17.7781C27.2393 17.5119 27.5079 17.3505 27.7943 17.3675C28.1383 17.3894 28.4111 17.6597 28.433 18.0007C28.4508 18.2886 28.2878 18.5548 28.0186 18.6685L28.0232 18.6643V18.6637Z" fill="url(#paint0_linear_13837_17952)"/>
  <path d="M25.1992 22.2299C25.0142 22.2952 24.8867 22.4701 24.8867 22.6662V22.9147C24.8867 23.1108 25.0101 23.2857 25.1992 23.351L36.6167 27.3267C38.0578 27.8284 39.6174 26.9603 39.9394 25.4805C40.3225 23.7085 40.3225 21.8759 39.9394 20.1039C39.618 18.62 38.0625 17.7561 36.6167 18.2577L25.1992 22.2333V22.2292V22.2299ZM30.2447 23.2251C30.0555 23.4388 29.7466 23.513 29.4778 23.4041L28.2705 22.9194C28.1382 22.8671 28.1382 22.6838 28.2705 22.6273L29.4778 22.1427C29.7466 22.0338 30.0549 22.1078 30.2447 22.3217C30.4735 22.579 30.4735 22.963 30.2447 23.2162V23.2251Z" fill="url(#paint1_linear_13837_17952)"/>
  <path d="M35.862 29.1451L24.9605 23.9388C24.7843 23.8557 24.5685 23.8904 24.4314 24.0258L24.2554 24.2048C24.1142 24.3445 24.0792 24.5541 24.167 24.7332L29.4105 35.5605C30.0717 36.9266 31.7897 37.4108 33.0724 36.5864C34.606 35.6047 35.9101 34.3086 36.9016 32.785C37.7301 31.5107 37.2456 29.8046 35.8703 29.1457H35.8614L35.862 29.1451ZM28.4367 27.5568C28.4148 27.8972 28.1414 28.1675 27.798 28.1893C27.5075 28.207 27.2383 28.0409 27.1285 27.7788L26.6214 26.5917C26.564 26.461 26.6962 26.3296 26.8285 26.3867L28.0269 26.8932C28.2915 27.0069 28.4587 27.273 28.4409 27.561L28.4367 27.5568Z" fill="url(#paint2_linear_13837_17952)"/>
  <path d="M23.5631 24.9748C23.4974 24.7917 23.3206 24.665 23.1226 24.665H22.8718C22.6736 24.665 22.4968 24.7869 22.4311 24.9748L18.43 36.3127C17.9229 37.7443 18.7959 39.293 20.2896 39.6117C22.0741 39.9956 23.9207 39.9956 25.7052 39.6117C27.1991 39.293 28.0714 37.7437 27.565 36.3127L23.5637 24.9748H23.5631ZM23.4351 29.9845C23.1795 30.2113 22.7917 30.2113 22.5318 29.9845C22.316 29.7925 22.2414 29.4869 22.351 29.2207L22.8356 28.0253C22.8884 27.8945 23.0733 27.8945 23.1261 28.0253L23.6107 29.2207C23.7209 29.4869 23.6462 29.7925 23.4298 29.9845H23.4339H23.4351Z" fill="url(#paint3_linear_13837_17952)"/>
  <path d="M20.8044 23.352C20.9894 23.2867 21.1169 23.1117 21.1169 22.9156V22.6671C21.1169 22.471 20.9935 22.2961 20.8044 22.2308L9.38739 18.2552C7.94634 17.7534 6.38668 18.622 6.06467 20.1013C5.68157 21.8733 5.68157 23.7059 6.06467 25.4779C6.38608 26.9618 7.94159 27.8257 9.38739 27.324L20.8044 23.3485V23.3526V23.352ZM15.7281 22.3308C15.9178 22.1171 16.2262 22.0429 16.4948 22.1517L17.6981 22.6365C17.8304 22.6888 17.8304 22.8721 17.6981 22.9291L16.4948 23.4138C16.2262 23.5227 15.9178 23.4485 15.7281 23.2348C15.4991 22.9775 15.4991 22.5935 15.7281 22.3403V22.3314V22.3308Z" fill="url(#paint4_linear_13837_17952)"/>
  <path d="M21.7533 24.2062L21.5772 24.0272C21.436 23.8877 21.2249 23.853 21.0483 23.9402L10.1466 29.1465C8.77194 29.8013 8.28684 31.5121 9.11529 32.7859C10.1068 34.3087 11.4109 35.6049 12.9445 36.5871C14.2266 37.4121 15.9451 36.9275 16.6065 35.5613L21.8458 24.7339C21.9342 24.5549 21.8945 24.3453 21.7574 24.2058H21.7533V24.2062ZM19.3515 26.5889L18.8445 27.7761C18.73 28.0423 18.4614 28.2037 18.175 28.1866C17.831 28.1648 17.5583 27.8945 17.5363 27.5541C17.5185 27.2662 17.6815 27 17.9503 26.8863L19.1487 26.3798C19.2809 26.3233 19.4085 26.454 19.3558 26.5848L19.3515 26.5889Z" fill="url(#paint5_linear_13837_17952)"/>
  <path d="M45.9501 22.8095V22.7901C45.9501 19.7136 45.3435 16.7292 44.1461 13.9184C42.9898 11.2042 41.3352 8.76739 39.2282 6.67507C37.1211 4.58216 34.6673 2.93914 31.934 1.79141C29.1034 0.602434 26.0974 0 23 0C19.9026 0 16.8972 0.602434 14.0666 1.79141C11.3334 2.93914 8.87885 4.58216 6.77182 6.67507C4.66479 8.76739 3.01024 11.2042 1.85443 13.9184C0.657114 16.7292 0.049854 19.7136 0.049854 22.7901V22.8095L0.0391798 22.9997C-0.0408789 24.4072 0.00181878 25.8187 0.16668 27.2184L0.237844 27.8232L0.386693 30.3243C0.480391 31.8955 1.26022 33.3476 2.521 34.3011C3.21958 34.993 3.70409 35.8693 3.91698 36.8263L4.19215 38.0624C4.48984 39.3985 5.5828 40.4161 6.94439 40.6245C8.1008 40.8019 9.07929 41.5668 9.52405 42.6416L9.66697 42.9872L9.90656 43.4931C10.7338 45.2409 12.6262 46.2344 14.5464 45.9293L14.9508 45.865C16.8995 45.556 18.7746 46.7396 19.3191 48.6235C19.844 50.4389 21.4113 51.3977 23 51.4295C24.5887 51.3977 26.1561 50.4389 26.6809 48.6235C27.2254 46.7396 29.1005 45.556 31.0491 45.865L31.4536 45.9293C33.3738 46.2344 35.2662 45.2409 36.0934 43.4931L36.3331 42.9872L36.4759 42.6416C36.9207 41.5668 37.8992 40.8019 39.0557 40.6245C40.4173 40.4161 41.5101 39.3985 41.8078 38.0624L42.0831 36.8263C42.2959 35.8693 42.7805 34.993 43.4791 34.3011C44.7398 33.3476 45.5197 31.8955 45.6133 30.3243L45.7622 27.8232L45.8334 27.2184C45.9982 25.8187 46.0409 24.4072 45.9608 22.9997L45.9501 22.8095ZM36.7125 36.4064C33.0494 40.0434 28.1801 42.0467 23 42.0467C17.82 42.0467 12.9506 40.0434 9.28804 36.4064C5.6255 32.7694 3.60802 27.9335 3.60802 22.7901C3.60802 17.6467 5.6255 12.8101 9.28804 9.17314C12.9506 5.53616 17.8206 3.53334 23 3.53334C28.1795 3.53334 33.0494 5.53616 36.7125 9.17314C40.375 12.8101 42.392 17.6461 42.392 22.7901C42.392 27.9339 40.375 32.7694 36.7125 36.4064Z" fill="url(#paint6_linear_13837_17952)"/>
  <path d="M22.4367 20.6073C22.5026 20.7904 22.6794 20.9171 22.8774 20.9171H23.1288C23.3269 20.9171 23.5036 20.7951 23.5695 20.6073L27.5706 9.26938C28.0777 7.8378 27.2047 6.28902 25.7109 5.97043C23.9265 5.59059 22.0797 5.59059 20.2954 5.97043C18.8015 6.28902 17.9292 7.83839 18.4356 9.26938L22.4367 20.6073ZM22.534 15.5712C22.7896 15.3443 23.1775 15.3443 23.4373 15.5712C23.6531 15.7589 23.7279 16.0687 23.6181 16.3349L23.1337 17.5309C23.0809 17.6617 22.8958 17.6617 22.843 17.5309L22.3584 16.3349C22.2482 16.0687 22.3235 15.763 22.5394 15.5712H22.5352H22.534Z" fill="url(#paint7_linear_13837_17952)"/>
  <path d="M10.143 16.4381L21.0446 21.6444C21.2208 21.7315 21.4366 21.6928 21.5736 21.5573L21.7497 21.3783C21.8909 21.2386 21.9259 21.029 21.8381 20.85L16.5988 10.0227C15.9374 8.65645 14.2195 8.1724 12.9368 8.99684C11.4032 9.97852 10.0992 11.2747 9.10761 12.7981C8.27916 14.0725 8.76365 15.7791 10.1389 16.4381H10.143ZM17.5328 17.9963C17.5547 17.6559 17.8281 17.3851 18.1714 17.3632C18.462 17.3455 18.7312 17.5116 18.841 17.7737L19.3481 18.9608C19.4055 19.0916 19.2733 19.2229 19.141 19.1658L17.9426 18.6593C17.678 18.5458 17.5108 18.2796 17.5286 17.9915L17.5328 17.9963Z" fill="url(#paint8_linear_13837_17952)"/>
  <defs>
    <linearGradient id="paint0_linear_13837_17952" x1="51.9797" y1="-9.25728" x2="-24.6626" y2="11.2773" gradientUnits="userSpaceOnUse">
      <stop stop-color="#D188FF"/>
      <stop offset="1" stop-color="#831FD8"/>
    </linearGradient>
    <linearGradient id="paint1_linear_13837_17952" x1="51.9803" y1="-9.25632" x2="-24.6621" y2="11.2782" gradientUnits="userSpaceOnUse">
      <stop stop-color="#D188FF"/>
      <stop offset="1" stop-color="#831FD8"/>
    </linearGradient>
    <linearGradient id="paint2_linear_13837_17952" x1="51.9834" y1="-9.25815" x2="-24.6589" y2="11.2764" gradientUnits="userSpaceOnUse">
      <stop stop-color="#D188FF"/>
      <stop offset="1" stop-color="#831FD8"/>
    </linearGradient>
    <linearGradient id="paint3_linear_13837_17952" x1="51.9786" y1="-9.25674" x2="-24.6637" y2="11.2778" gradientUnits="userSpaceOnUse">
      <stop stop-color="#D188FF"/>
      <stop offset="1" stop-color="#831FD8"/>
    </linearGradient>
    <linearGradient id="paint4_linear_13837_17952" x1="51.9827" y1="-9.25602" x2="-24.6596" y2="11.2785" gradientUnits="userSpaceOnUse">
      <stop stop-color="#D188FF"/>
      <stop offset="1" stop-color="#831FD8"/>
    </linearGradient>
    <linearGradient id="paint5_linear_13837_17952" x1="51.9799" y1="-9.25677" x2="-24.6625" y2="11.2778" gradientUnits="userSpaceOnUse">
      <stop stop-color="#D188FF"/>
      <stop offset="1" stop-color="#831FD8"/>
    </linearGradient>
    <linearGradient id="paint6_linear_13837_17952" x1="51.98" y1="-9.25731" x2="-24.6623" y2="11.2772" gradientUnits="userSpaceOnUse">
      <stop stop-color="#D188FF"/>
      <stop offset="1" stop-color="#831FD8"/>
    </linearGradient>
    <linearGradient id="paint7_linear_13837_17952" x1="51.9808" y1="-9.25588" x2="-24.6616" y2="11.2786" gradientUnits="userSpaceOnUse">
      <stop stop-color="#D188FF"/>
      <stop offset="1" stop-color="#831FD8"/>
    </linearGradient>
    <linearGradient id="paint8_linear_13837_17952" x1="51.9811" y1="-9.25695" x2="-24.6613" y2="11.2776" gradientUnits="userSpaceOnUse">
      <stop stop-color="#D188FF"/>
      <stop offset="1" stop-color="#831FD8"/>
    </linearGradient>
  </defs>
</svg>