<svg width="42" height="37" viewBox="0 0 42 37" fill="none" xmlns="http://www.w3.org/2000/svg">
<path d="M29.4136 15.6754C29.4136 20.3276 25.7663 24.0989 21.2673 24.0989C16.7683 24.0989 13.1211 20.3276 13.1211 15.6754C13.1211 20.039 16.7683 23.5765 21.2673 23.5765C25.7663 23.5765 29.4136 20.039 29.4136 15.6754Z" fill="#7371FC" stroke="#7371FC" stroke-width="0.272212"/>
<path d="M31.107 15.6753C31.107 21.265 26.7012 25.7965 21.2664 25.7965C15.8315 25.7965 11.4258 21.265 11.4258 15.6753C11.4258 14.567 11.6772 13.5017 12.0158 12.5083C11.6772 13.5017 11.5561 14.567 11.5561 15.6753C11.5561 20.9766 15.9036 25.1606 21.2664 25.1606C26.6292 25.1606 30.9767 20.9766 30.9767 15.6753C30.9767 14.5712 30.8621 13.5097 30.526 12.5195C30.8621 13.5097 31.107 14.5712 31.107 15.6753Z" fill="#7371FC" stroke="#7371FC" stroke-width="0.272212"/>
<path d="M31.4829 9.88667C32.4496 11.5953 33.0642 13.5704 33.0642 15.6748C33.0642 22.3104 27.783 27.6896 21.2684 27.6896C14.7538 27.6896 9.47266 22.3104 9.47266 15.6748C9.47266 13.5668 10.0942 11.5886 11.064 9.87805C10.0942 11.5886 9.60299 13.5668 9.60299 15.6748C9.60299 21.9858 14.8258 26.9231 21.2684 26.9231C27.7109 26.9231 32.9338 21.9858 32.9338 15.6748C32.9338 13.5704 32.4496 11.5953 31.4829 9.88667Z" fill="#7371FC" stroke="#7371FC" stroke-width="0.272212"/>
<path d="M35.4086 15.6749C35.4086 23.6809 29.0772 30.1711 21.2668 30.1711C13.4565 30.1711 7.125 23.6809 7.125 15.6749C7.125 12.4654 8.26267 9.50623 10.0646 7.13599C8.26267 9.50623 7.25534 12.4654 7.25534 15.6749C7.25534 23.2481 13.5285 29.2413 21.2668 29.2413C29.0052 29.2413 35.2783 23.2481 35.2783 15.6749C35.2783 12.4679 34.2779 9.51097 32.4787 7.1417C34.2779 9.51097 35.4086 12.4679 35.4086 15.6749Z" fill="#7371FC" stroke="#7371FC" stroke-width="0.272212"/>
<path d="M38.0828 15.6751C38.0828 24.799 30.555 31.9514 21.2691 31.9514C11.9831 31.9514 4.45528 24.799 4.45528 15.6751C4.45528 9.41374 7.77295 3.94645 12.8174 1.01881C7.77295 3.94645 4.25977 9.41374 4.25977 15.6751C4.25977 25.2678 11.8751 33.0444 21.2691 33.0444C30.663 33.0444 38.2784 25.2678 38.2784 15.6751C38.2784 9.40028 34.7558 3.92299 29.6934 1C34.7558 3.92299 38.0828 9.40028 38.0828 15.6751Z" fill="#7371FC" stroke="#7371FC" stroke-width="0.272212"/>
<path d="M41.5356 15.6754C41.5356 26.6386 32.4614 34.8575 21.2678 34.8575C10.0742 34.8575 1 26.6386 1 15.6754C1 27.1435 10.0742 36.0002 21.2678 36.0002C32.4614 36.0002 41.5356 27.1435 41.5356 15.6754Z" fill="#7371FC" stroke="#7371FC" stroke-width="0.272212"/>
</svg>
