<svg xmlns="http://www.w3.org/2000/svg" width="46" height="52" viewBox="0 0 46 52" fill="none">
  <path d="M45.9501 22.8095V22.7901C45.9501 19.7136 45.3435 16.7292 44.1461 13.9184C42.9898 11.2042 41.3352 8.76739 39.2282 6.67507C37.1211 4.58216 34.6673 2.93914 31.934 1.79141C29.1034 0.602434 26.0974 0 23 0C19.9026 0 16.8972 0.602434 14.0666 1.79141C11.3334 2.93914 8.87885 4.58216 6.77182 6.67507C4.66479 8.76739 3.01024 11.2042 1.85443 13.9184C0.657114 16.7292 0.049854 19.7136 0.049854 22.7901V22.8095L0.0391798 22.9997C-0.0408789 24.4072 0.00181878 25.8187 0.16668 27.2184L0.237844 27.8232L0.386693 30.3243C0.480391 31.8955 1.26022 33.3476 2.521 34.3011C3.21958 34.993 3.70409 35.8693 3.91698 36.8263L4.19215 38.0624C4.48984 39.3985 5.5828 40.4161 6.94439 40.6245C8.1008 40.8019 9.07929 41.5668 9.52405 42.6416L9.66697 42.9872L9.90656 43.4931C10.7338 45.2409 12.6262 46.2344 14.5464 45.9293L14.9508 45.865C16.8995 45.556 18.7746 46.7396 19.3191 48.6235C19.844 50.4389 21.4113 51.3977 23 51.4295C24.5887 51.3977 26.1561 50.4389 26.6809 48.6235C27.2254 46.7396 29.1005 45.556 31.0491 45.865L31.4536 45.9293C33.3738 46.2344 35.2662 45.2409 36.0934 43.4931L36.3331 42.9872L36.4759 42.6416C36.9207 41.5668 37.8992 40.8019 39.0557 40.6245C40.4173 40.4161 41.5101 39.3985 41.8078 38.0624L42.0831 36.8263C42.2959 35.8693 42.7805 34.993 43.4791 34.3011C44.7398 33.3476 45.5197 31.8955 45.6133 30.3243L45.7622 27.8232L45.8334 27.2184C45.9982 25.8187 46.0409 24.4072 45.9608 22.9997L45.9501 22.8095ZM36.7125 36.4064C33.0494 40.0434 28.1801 42.0467 23 42.0467C17.82 42.0467 12.9506 40.0434 9.28804 36.4064C5.6255 32.7694 3.60802 27.9335 3.60802 22.7901C3.60802 17.6467 5.6255 12.8101 9.28804 9.17314C12.9506 5.53616 17.8206 3.53334 23 3.53334C28.1795 3.53334 33.0494 5.53616 36.7125 9.17314C40.375 12.8101 42.392 17.6461 42.392 22.7901C42.392 27.9339 40.375 32.7694 36.7125 36.4064Z" fill="url(#paint0_linear_13837_17959)"/>
  <defs>
    <linearGradient id="paint0_linear_13837_17959" x1="51.98" y1="-9.25731" x2="-24.6623" y2="11.2772" gradientUnits="userSpaceOnUse">
      <stop stop-color="#D188FF"/>
      <stop offset="1" stop-color="#831FD8"/>
    </linearGradient>
  </defs>
</svg>