<svg width="38" height="38" viewBox="0 0 38 38" fill="none" xmlns="http://www.w3.org/2000/svg">
<path fill-rule="evenodd" clip-rule="evenodd" d="M26.1529 0L23.098 2.93772L34.8963 14.9019L38 11.902L26.1529 0ZM6.98233 35.3818C9.55811 37.0948 12.5838 38.0059 15.6772 37.9999C17.7357 37.9999 19.7739 37.593 21.6745 36.8025C23.5752 36.012 25.3008 34.8535 26.7521 33.3937C28.2035 31.9339 29.3519 30.2016 30.1313 28.2963C30.9107 26.3911 31.3058 24.3506 31.2938 22.2921C31.2818 19.1987 30.3532 16.1783 28.6252 13.6125C26.8973 11.0468 24.4476 9.05072 21.5857 7.87664C18.7238 6.70256 15.5781 6.40313 12.546 7.01618C9.51402 7.62923 6.73175 9.12726 4.55077 11.321C2.36979 13.5147 0.887983 16.3056 0.292581 19.3412C-0.302822 22.3767 0.0148992 25.5207 1.2056 28.3757C2.3963 31.2307 4.40654 33.6688 6.98233 35.3818ZM15.482 33.7357C9.27875 33.6489 4.18601 28.4737 4.28144 22.3702C4.27744 20.1092 4.94659 17.8982 6.20365 16.0189C7.46071 14.1396 9.24876 12.6771 11.34 11.8176C13.4312 10.9582 15.731 10.7407 17.9463 11.193C20.1615 11.6453 22.192 12.7467 23.779 14.3571C25.366 15.9675 26.4377 18.0139 26.8576 20.2355C27.2774 22.4572 27.0264 24.7535 26.1365 26.832C25.2466 28.9104 23.7581 30.677 21.8606 31.9064C19.9632 33.1359 17.7427 33.7727 15.482 33.7357Z" fill="url(#paint0_linear_13424_13744)"/>
<defs>
<linearGradient id="paint0_linear_13424_13744" x1="14.9019" y1="5.58822" x2="33.9019" y2="21.6078" gradientUnits="userSpaceOnUse">
<stop stop-color="#F15266"/>
<stop offset="0.52" stop-color="#BC74ED"/>
<stop offset="1" stop-color="#1ABEE9"/>
</linearGradient>
</defs>
</svg>
