<svg xmlns="http://www.w3.org/2000/svg" width="46" height="46" viewBox="0 0 46 46" fill="none">
  <path d="M23 46C10.2975 46 0 35.7025 0 23C0 10.2975 10.2975 0 23 0C35.7025 0 46 10.2975 46 23C46 35.7025 35.7025 46 23 46Z" fill="#191919"/>
  <path d="M22.9936 43.5331C11.652 43.5331 2.45786 34.339 2.45786 22.9974C2.45786 11.6558 11.652 2.46167 22.9936 2.46167C34.3351 2.46167 43.5293 11.6558 43.5293 22.9974C43.5293 34.339 34.3351 43.5331 22.9936 43.5331Z" fill="#F0F0F0"/>
  <path d="M22.9936 37.7831C14.8277 37.7831 8.20786 31.1633 8.20786 22.9974C8.20786 14.8315 14.8277 8.21167 22.9936 8.21167C31.1595 8.21167 37.7793 14.8315 37.7793 22.9974C37.7793 31.1633 31.1595 37.7831 22.9936 37.7831Z" fill="#191919"/>
</svg>