<svg width="39" height="38" viewBox="0 0 39 38" fill="none" xmlns="http://www.w3.org/2000/svg">
<circle cx="19.8555" cy="19" r="18.5" fill="url(#paint0_linear_13641_3392)" stroke="black"/>
<path fill-rule="evenodd" clip-rule="evenodd" d="M29.579 10.419L28.3257 28.8495L28.2975 28.877C28.2403 29.3141 28.0822 29.6741 27.8154 29.9409C26.6082 31.1479 23.4943 30.1289 19.9457 27.6239L20.8323 26.7373C21.7318 27.3619 22.5928 27.8801 23.3874 28.2795C24.4592 28.8186 25.3458 29.1093 26.0042 29.1898C26.6812 29.2725 26.8954 29.1146 26.9423 29.0677C26.9891 29.0209 27.147 28.8067 27.0643 28.1297C26.9838 27.4715 26.6931 26.5847 26.1542 25.5129C25.1439 23.5041 23.3756 21.07 21.0452 18.6661L10.3324 29.3787L10.5376 27.4274L20.172 17.793C17.7683 15.4626 15.3341 13.6941 13.3254 12.6841C12.2535 12.1451 11.3669 11.8545 10.7085 11.774C10.0315 11.6912 9.81733 11.8491 9.77056 11.8959C9.72362 11.9428 9.56573 12.157 9.64843 12.8341C9.72912 13.4924 10.0196 14.379 10.5587 15.4509C10.9581 16.2455 11.4764 17.1064 12.1009 18.0059L11.2143 18.8925C8.70935 15.344 7.69032 12.23 8.89731 11.0228C9.16431 10.7558 9.52465 10.5978 9.96238 10.5405C9.97094 10.5314 9.97974 10.5224 9.98878 10.5136L28.42 9.26001L29.6635 9.17566L29.579 10.419ZM21.6984 10.9552L27.3975 10.5675L24.7125 13.2527C23.6287 12.2216 22.5708 11.4761 21.6984 10.955M19.2962 11.1182L13.7128 11.498C15.898 12.566 18.5056 14.4555 21.0452 16.9197L23.839 14.126C22.6691 13.0162 21.5349 12.2632 20.6686 11.7795C20.2947 11.5692 19.91 11.3786 19.5162 11.2086C19.4302 11.1719 19.3568 11.1417 19.2962 11.1182ZM24.7047 15.0066L21.9185 17.7928C24.3835 20.3332 26.2736 22.9415 27.3414 25.1272L27.7331 19.3651C27.7067 19.3079 27.6736 19.2391 27.6339 19.1588C27.4437 18.7782 27.2369 18.4062 27.014 18.0439C26.514 17.2256 25.7623 16.1512 24.7049 15.0064M25.5787 14.1328C26.6002 15.2341 27.3548 16.2777 27.886 17.1163L28.272 11.4393L25.5787 14.1328ZM15.5068 17.5106L11.3808 21.6366L11.1758 23.5879L16.683 18.0807L15.5068 17.5106ZM20.7577 22.1556L15.2573 27.6558L17.2086 27.4508L21.408 23.2513L20.7577 22.1556Z" fill="white"/>
<defs>
<linearGradient id="paint0_linear_13641_3392" x1="1.85549" y1="1" x2="37.8555" y2="37" gradientUnits="userSpaceOnUse">
<stop stop-color="#FFB0AB"/>
<stop offset="0.464" stop-color="#FF6D63"/>
<stop offset="1" stop-color="#FF4337"/>
</linearGradient>
</defs>
</svg>
