<svg xmlns="http://www.w3.org/2000/svg" width="26" height="26" viewBox="0 0 26 26" fill="none">
  <circle cx="13" cy="13" r="13" fill="url(#paint0_linear_13837_17753)"/>
  <path d="M13.1951 21.3432C8.48008 21.3432 4.65779 17.5209 4.65779 12.8059C4.65779 8.09084 8.48008 4.26855 13.1951 4.26855C17.9101 4.26855 21.7324 8.09084 21.7324 12.8059C21.7324 17.5209 17.9101 21.3432 13.1951 21.3432Z" fill="#191919"/>
  <path d="M13.1958 20.4281C8.98591 20.4281 5.57315 17.0153 5.57315 12.8055C5.57315 8.59562 8.98591 5.18286 13.1958 5.18286C17.4056 5.18286 20.8184 8.59562 20.8184 12.8055C20.8184 17.0153 17.4056 20.4281 13.1958 20.4281Z" fill="#F0F0F0"/>
  <path d="M13.1953 18.2939C10.1642 18.2939 7.70705 15.8367 7.70705 12.8057C7.70705 9.77457 10.1642 7.31738 13.1953 7.31738C16.2264 7.31738 18.6836 9.77457 18.6836 12.8057C18.6836 15.8367 16.2264 18.2939 13.1953 18.2939Z" fill="#191919"/>
  <defs>
    <linearGradient id="paint0_linear_13837_17753" x1="0" y1="13" x2="26" y2="13" gradientUnits="userSpaceOnUse">
      <stop stop-color="#FDF621"/>
      <stop offset="0.595" stop-color="#FDFCC3"/>
      <stop offset="1" stop-color="#FDF973"/>
    </linearGradient>
  </defs>
</svg>