<svg xmlns="http://www.w3.org/2000/svg" width="26" height="26" viewBox="0 0 26 26" fill="none">
  <circle cx="13" cy="13" r="13" fill="url(#paint0_linear_13708_146)"/>
  <path fill-rule="evenodd" clip-rule="evenodd" d="M15.957 5.8208L14.7715 6.96081L19.3499 11.6036L20.5543 10.4395L15.957 5.8208ZM8.52401 19.5511C9.52357 20.2158 10.6977 20.5694 11.8981 20.567C12.697 20.5671 13.4879 20.4091 14.2255 20.1024C14.963 19.7956 15.6327 19.3461 16.1959 18.7796C16.7591 18.2131 17.2047 17.5408 17.5072 16.8015C17.8097 16.0621 17.963 15.2703 17.9583 14.4715C17.9537 13.2711 17.5933 12.099 16.9227 11.1033C16.2522 10.1076 15.3016 9.33305 14.191 8.87743C13.0804 8.42182 11.8597 8.30562 10.6831 8.54352C9.50646 8.78142 8.42677 9.36275 7.58042 10.214C6.73407 11.0653 6.15904 12.1484 5.92799 13.3264C5.69694 14.5043 5.82023 15.7244 6.2823 16.8323C6.74436 17.9402 7.52445 18.8863 8.52401 19.5511ZM11.8224 18.9123C9.41516 18.8786 7.43887 16.8703 7.47591 14.5018C7.47435 13.6244 7.73403 12.7664 8.22184 12.0371C8.70965 11.3079 9.40352 10.7403 10.215 10.4068C11.0266 10.0733 11.919 9.98888 12.7787 10.1644C13.6383 10.3399 14.4263 10.7673 15.0421 11.3922C15.658 12.0172 16.0739 12.8113 16.2368 13.6734C16.3997 14.5355 16.3023 15.4267 15.957 16.2332C15.6116 17.0398 15.034 17.7253 14.2977 18.2024C13.5614 18.6795 12.6997 18.9266 11.8224 18.9123Z" fill="url(#paint1_linear_13708_146)"/>
  <defs>
    <linearGradient id="paint0_linear_13708_146" x1="13" y1="26" x2="13" y2="0" gradientUnits="userSpaceOnUse">
      <stop stop-color="#005AAE"/>
      <stop offset="0.56" stop-color="#661987"/>
      <stop offset="1" stop-color="#9E1E2E"/>
    </linearGradient>
    <linearGradient id="paint1_linear_13708_146" x1="11.5948" y1="7.98937" x2="18.9674" y2="14.2028" gradientUnits="userSpaceOnUse">
      <stop stop-color="#F15266"/>
      <stop offset="0.52" stop-color="#BC74ED"/>
      <stop offset="1" stop-color="#1ABEE9"/>
    </linearGradient>
  </defs>
</svg>