<svg width="262" height="150" viewBox="0 0 262 150" fill="none" xmlns="http://www.w3.org/2000/svg">
<path d="M255.533 122.082C251.962 135.411 193.311 131.277 124.533 112.848C55.7555 94.4188 2.89531 68.6738 6.46682 55.3448C10.0383 42.0158 68.689 46.1501 137.467 64.579C206.245 83.008 259.105 108.753 255.533 122.082Z" fill="url(#paint0_radial_13708_10716)"/>
<path fill-rule="evenodd" clip-rule="evenodd" d="M202.717 98.1117C181.5 97.3855 156.667 93.6287 130.71 86.6736C105.265 79.8557 82.2931 70.9164 63.7461 61.1658C64.1426 58.6447 64.676 56.1198 65.3513 53.5994C75.6849 15.0341 115.325 -7.85232 153.891 2.48123C192.456 12.8148 215.342 52.4552 205.009 91.0205C204.358 93.4478 203.592 95.813 202.717 98.1117Z" fill="url(#paint1_radial_13708_10716)"/>
<path fill-rule="evenodd" clip-rule="evenodd" d="M129.348 32.7793H128.123L127.329 33.708L106.825 57.6899L105.361 59.402L106.825 61.1139L127.329 85.0958L128.123 86.0248H129.348H166.263H168.915V83.384V68.1381H163.611V80.7432H135.148L152.183 61.1294L153.684 59.402L152.183 57.6744L135.148 38.0609H163.611V50.666H168.915V35.4201V32.7793H166.263H129.348ZM129.364 39.4755L112.327 59.402L129.364 79.3286L146.671 59.402L129.364 39.4755Z" fill="url(#paint2_linear_13708_10716)"/>
<circle cx="231.796" cy="98.3378" r="14.8288" fill="url(#paint3_radial_13708_10716)"/>
<path d="M235.523 92.114C235.041 91.8067 234.396 91.9872 234.148 92.4961L232.179 96.5289C232.148 96.5938 232.161 96.6736 232.212 96.7256L232.278 96.7923C232.331 96.8443 232.411 96.8572 232.477 96.8247L236.57 94.8856C237.086 94.6401 237.268 94.0045 236.957 93.5298C236.585 92.9626 236.095 92.4798 235.52 92.114H235.523H235.523ZM233.632 95.7144L233.182 95.9031C233.132 95.9241 233.084 95.8754 233.104 95.8268L233.294 95.3846C233.337 95.2854 233.438 95.2253 233.546 95.2317C233.675 95.2398 233.777 95.3405 233.785 95.4675C233.792 95.5747 233.731 95.6739 233.63 95.7162L233.632 95.7147V95.7144Z" fill="url(#paint4_linear_13708_10716)"/>
<path d="M232.572 97.0423C232.503 97.0667 232.455 97.1318 232.455 97.2049V97.2974C232.455 97.3705 232.501 97.4356 232.572 97.4599L236.859 98.9407C237.4 99.1276 237.986 98.8043 238.107 98.2531C238.251 97.5931 238.251 96.9105 238.107 96.2505C237.986 95.6978 237.402 95.376 236.859 95.5629L232.572 97.0437V97.0421V97.0423ZM234.467 97.413C234.396 97.4926 234.28 97.5203 234.179 97.4797L233.726 97.2992C233.676 97.2797 233.676 97.2114 233.726 97.1904L234.179 97.0099C234.28 96.9693 234.396 96.9969 234.467 97.0766C234.553 97.1724 234.553 97.3154 234.467 97.4097V97.413Z" fill="url(#paint5_linear_13708_10716)"/>
<path d="M236.575 99.6189L232.482 97.6797C232.416 97.6488 232.335 97.6617 232.283 97.7122L232.217 97.7789C232.164 97.8309 232.151 97.9089 232.184 97.9756L234.153 102.008C234.401 102.517 235.046 102.698 235.528 102.391C236.104 102.025 236.593 101.542 236.965 100.975C237.276 100.5 237.095 99.8646 236.578 99.6191H236.575L236.575 99.6189ZM233.787 99.0274C233.779 99.1541 233.676 99.2548 233.547 99.2629C233.438 99.2695 233.337 99.2077 233.296 99.11L233.106 98.6679C233.084 98.6192 233.134 98.5703 233.183 98.5915L233.633 98.7802C233.733 98.8225 233.795 98.9216 233.789 99.0289L233.787 99.0274Z" fill="url(#paint6_linear_13708_10716)"/>
<path d="M231.96 98.0648C231.936 97.9966 231.869 97.9495 231.795 97.9495H231.701C231.626 97.9495 231.56 97.9949 231.535 98.0648L230.033 102.288C229.843 102.821 230.17 103.398 230.731 103.517C231.401 103.66 232.095 103.66 232.765 103.517C233.325 103.398 233.653 102.821 233.463 102.288L231.96 98.0648H231.96ZM231.912 99.9308C231.816 100.015 231.671 100.015 231.573 99.9308C231.492 99.8593 231.464 99.7454 231.505 99.6463L231.687 99.201C231.707 99.1523 231.776 99.1523 231.796 99.201L231.978 99.6463C232.019 99.7454 231.991 99.8593 231.91 99.9308H231.912H231.912Z" fill="url(#paint7_linear_13708_10716)"/>
<path d="M230.918 97.4599C230.987 97.4355 231.035 97.3704 231.035 97.2974V97.2048C231.035 97.1318 230.989 97.0666 230.918 97.0423L226.631 95.5615C226.09 95.3746 225.504 95.6981 225.383 96.2491C225.239 96.9091 225.239 97.5917 225.383 98.2517C225.504 98.8044 226.088 99.1262 226.631 98.9393L230.918 97.4586V97.4601V97.4599ZM229.012 97.0796C229.083 96.9999 229.199 96.9723 229.299 97.0129L229.751 97.1934C229.801 97.2129 229.801 97.2811 229.751 97.3024L229.299 97.4829C229.199 97.5235 229.083 97.4959 229.012 97.4162C228.926 97.3204 228.926 97.1774 229.012 97.0831V97.0798V97.0796Z" fill="url(#paint8_linear_13708_10716)"/>
<path d="M231.277 97.779L231.21 97.7123C231.157 97.6603 231.078 97.6474 231.012 97.6798L226.919 99.619C226.403 99.8629 226.22 100.5 226.531 100.975C226.904 101.542 227.393 102.025 227.969 102.39C228.451 102.698 229.096 102.517 229.344 102.008L231.311 97.9755C231.345 97.9088 231.33 97.8307 231.278 97.7787H231.277V97.779ZM230.375 98.6664L230.184 99.1086C230.141 99.2077 230.041 99.2678 229.933 99.2615C229.804 99.2534 229.701 99.1527 229.693 99.0259C229.687 98.9186 229.748 98.8195 229.849 98.7772L230.299 98.5885C230.348 98.5675 230.396 98.6162 230.376 98.6649L230.375 98.6664Z" fill="url(#paint9_linear_13708_10716)"/>
<path d="M240.364 97.2584V97.2511C240.364 96.1053 240.136 94.9937 239.687 93.9468C239.253 92.9358 238.631 92.0282 237.84 91.2489C237.049 90.4694 236.128 89.8574 235.101 89.4299C234.039 88.9871 232.91 88.7627 231.747 88.7627C230.584 88.7627 229.456 88.9871 228.393 89.4299C227.367 89.8574 226.445 90.4694 225.654 91.2489C224.863 92.0282 224.242 92.9358 223.808 93.9468C223.358 94.9937 223.13 96.1053 223.13 97.2511V97.2584L223.126 97.3292C223.096 97.8535 223.112 98.3792 223.174 98.9006L223.201 99.1258L223.257 100.057C223.292 100.643 223.584 101.183 224.058 101.539C224.32 101.796 224.502 102.123 224.582 102.479L224.685 102.94C224.797 103.437 225.207 103.816 225.719 103.894C226.153 103.96 226.52 104.245 226.687 104.645L226.741 104.774L226.831 104.962C227.142 105.613 227.852 105.983 228.573 105.87L228.725 105.846C229.457 105.731 230.161 106.171 230.365 106.873C230.562 107.549 231.151 107.906 231.747 107.918C232.344 107.906 232.932 107.549 233.129 106.873C233.334 106.171 234.038 105.731 234.769 105.846L234.921 105.87C235.642 105.983 236.353 105.613 236.663 104.962L236.753 104.774L236.807 104.645C236.974 104.245 237.341 103.96 237.775 103.894C238.287 103.816 238.697 103.437 238.809 102.94L238.912 102.479C238.992 102.123 239.174 101.796 239.436 101.539C239.91 101.183 240.202 100.643 240.238 100.057L240.293 99.1258L240.32 98.9006C240.382 98.3792 240.398 97.8535 240.368 97.3292L240.364 97.2584ZM236.896 102.323C235.52 103.677 233.692 104.424 231.747 104.424C229.802 104.424 227.974 103.677 226.599 102.323C225.224 100.968 224.466 99.1669 224.466 97.2511C224.466 95.3354 225.224 93.534 226.599 92.1794C227.974 90.8247 229.802 90.0787 231.747 90.0787C233.692 90.0787 235.52 90.8247 236.896 92.1794C238.271 93.534 239.028 95.3352 239.028 97.2511C239.028 99.1671 238.271 100.968 236.896 102.323Z" fill="url(#paint10_linear_13708_10716)"/>
<path d="M231.535 96.4377C231.56 96.5059 231.626 96.5531 231.701 96.5531H231.795C231.869 96.5531 231.936 96.5077 231.96 96.4377L233.463 92.2147C233.653 91.6815 233.325 91.1047 232.764 90.986C232.094 90.8445 231.401 90.8445 230.731 90.986C230.17 91.1047 229.843 91.6817 230.033 92.2147L231.535 96.4377ZM231.572 94.5619C231.668 94.4774 231.813 94.4774 231.911 94.5619C231.992 94.6319 232.02 94.7472 231.979 94.8464L231.797 95.2919C231.777 95.3405 231.707 95.3405 231.688 95.2919L231.506 94.8464C231.464 94.7472 231.493 94.6334 231.574 94.5619H231.572H231.572Z" fill="url(#paint11_linear_13708_10716)"/>
<path d="M226.92 94.8855L231.013 96.8246C231.08 96.8571 231.161 96.8426 231.212 96.7922L231.278 96.7255C231.331 96.6735 231.344 96.5954 231.311 96.5288L229.344 92.496C229.096 91.9871 228.451 91.8068 227.969 92.1139C227.393 92.4795 226.904 92.9623 226.532 93.5297C226.22 94.0044 226.402 94.64 226.919 94.8855H226.92ZM229.695 95.4658C229.703 95.3391 229.806 95.2382 229.935 95.23C230.044 95.2235 230.145 95.2853 230.186 95.3829L230.376 95.8251C230.398 95.8738 230.348 95.9227 230.299 95.9015L229.849 95.7128C229.749 95.6705 229.687 95.5713 229.693 95.4641L229.695 95.4658Z" fill="url(#paint12_linear_13708_10716)"/>
<circle cx="105.36" cy="111.606" r="16.3897" fill="url(#paint13_radial_13708_10716)"/>
<path fill-rule="evenodd" clip-rule="evenodd" d="M99.0332 104.993H103.2V108.16C103.2 108.712 103.648 109.16 104.2 109.16H106.02C106.572 109.16 107.02 108.712 107.02 108.16V104.993H111.534V118.188H106.673V115.23C107.101 114.848 107.371 114.292 107.371 113.674C107.371 112.523 106.438 111.59 105.287 111.59C104.136 111.59 103.204 112.523 103.204 113.674C103.204 114.289 103.47 114.842 103.895 115.224V118.188H99.0332V104.993Z" fill="#E9FB46"/>
<g filter="url(#filter0_d_13708_10716)">
<circle cx="38.2452" cy="83.5091" r="16.3897" fill="url(#paint14_radial_13708_10716)"/>
<g filter="url(#filter1_d_13708_10716)">
<path fill-rule="evenodd" clip-rule="evenodd" d="M45.4994 77.3371L44.7293 88.6632L44.712 88.6801C44.6768 88.9488 44.5796 89.17 44.4157 89.3339C43.6738 90.0757 41.7602 89.4494 39.5795 87.9101L40.1244 87.3652C40.6771 87.749 41.2062 88.0675 41.6945 88.3129C42.3532 88.6443 42.8981 88.8229 43.3026 88.8723C43.7187 88.9232 43.8503 88.8261 43.8792 88.7973C43.9079 88.7686 44.0049 88.6369 43.9541 88.2209C43.9046 87.8164 43.726 87.2714 43.3948 86.6128C42.774 85.3783 41.6873 83.8824 40.2552 82.4052L33.6718 88.9884L33.7979 87.7893L39.7186 81.8686C38.2414 80.4365 36.7455 79.3497 35.5111 78.729C34.8524 78.3978 34.3075 78.2192 33.903 78.1697C33.4869 78.1189 33.3553 78.2159 33.3265 78.2447C33.2977 78.2735 33.2007 78.4051 33.2515 78.8212C33.3011 79.2258 33.4796 79.7706 33.8109 80.4293C34.0563 80.9176 34.3748 81.4467 34.7586 81.9995L34.2138 82.5443C32.6744 80.3636 32.0482 78.45 32.7899 77.7081C32.954 77.5441 33.1754 77.4469 33.4444 77.4118C33.4497 77.4061 33.4551 77.4006 33.4606 77.3952L44.7872 76.6248L45.5514 76.573L45.4994 77.3371ZM40.6566 77.6666L44.1589 77.4283L42.5088 79.0785C41.8428 78.4448 41.1927 77.9867 40.6566 77.6665M39.1803 77.7667L35.7492 78.0001C37.092 78.6565 38.6945 79.8176 40.2552 81.332L41.9721 79.6151C41.2531 78.9331 40.5561 78.4704 40.0237 78.1731C39.794 78.0439 39.5576 77.9268 39.3156 77.8223C39.2627 77.7998 39.2176 77.7812 39.1803 77.7667ZM42.5041 80.1563L40.7918 81.8685C42.3066 83.4296 43.4682 85.0326 44.1244 86.3758L44.3651 82.8347C44.3489 82.7996 44.3285 82.7573 44.3041 82.708C44.1873 82.4741 44.0602 82.2455 43.9232 82.0228C43.6159 81.52 43.154 80.8597 42.5042 80.1562M43.0412 79.6193C43.6689 80.2961 44.1326 80.9375 44.4591 81.4528L44.6963 77.9641L43.0412 79.6193ZM36.8517 81.6951L34.3161 84.2307L34.1901 85.4298L37.5745 82.0454L36.8517 81.6951ZM40.0785 84.5496L36.6983 87.9297L37.8974 87.8037L40.4781 85.2229L40.0785 84.5496Z" fill="url(#paint15_linear_13708_10716)"/>
</g>
</g>
<g filter="url(#filter2_d_13708_10716)">
<circle cx="196.677" cy="124.874" r="16.3897" fill="url(#paint16_radial_13708_10716)"/>
<g filter="url(#filter3_d_13708_10716)">
<path fill-rule="evenodd" clip-rule="evenodd" d="M207.603 125.144C207.603 119.824 203.801 115.392 198.766 114.417C198.655 113.36 197.762 112.537 196.676 112.537C195.59 112.537 194.696 113.361 194.586 114.417C189.551 115.393 185.75 119.824 185.75 125.144C185.75 130.572 189.708 135.075 194.895 135.926C195.267 136.518 195.925 136.911 196.676 136.911C197.426 136.911 198.085 136.518 198.456 135.926C203.644 135.076 207.603 130.572 207.603 125.144Z" fill="#FD6A19"/>
</g>
<circle cx="196.677" cy="125.144" r="8.82522" fill="#1B1716"/>
<circle cx="196.675" cy="125.144" r="4.20249" fill="#FD6A19"/>
<circle cx="196.675" cy="114.638" r="2.10124" fill="#FD6A19"/>
<circle cx="196.675" cy="134.81" r="2.10124" fill="#FD6A19"/>
</g>
<defs>
<filter id="filter0_d_13708_10716" x="21.8555" y="67.1194" width="49.7793" height="40.7793" filterUnits="userSpaceOnUse" color-interpolation-filters="sRGB">
<feFlood flood-opacity="0" result="BackgroundImageFix"/>
<feColorMatrix in="SourceAlpha" type="matrix" values="0 0 0 0 0 0 0 0 0 0 0 0 0 0 0 0 0 0 127 0" result="hardAlpha"/>
<feOffset dx="13" dy="4"/>
<feGaussianBlur stdDeviation="2"/>
<feComposite in2="hardAlpha" operator="out"/>
<feColorMatrix type="matrix" values="0 0 0 0 0 0 0 0 0 0 0 0 0 0 0 0 0 0 0.25 0"/>
<feBlend mode="normal" in2="BackgroundImageFix" result="effect1_dropShadow_13708_10716"/>
<feBlend mode="normal" in="SourceGraphic" in2="effect1_dropShadow_13708_10716" result="shape"/>
</filter>
<filter id="filter1_d_13708_10716" x="31.166" y="75.2605" width="15.6973" height="15.6973" filterUnits="userSpaceOnUse" color-interpolation-filters="sRGB">
<feFlood flood-opacity="0" result="BackgroundImageFix"/>
<feColorMatrix in="SourceAlpha" type="matrix" values="0 0 0 0 0 0 0 0 0 0 0 0 0 0 0 0 0 0 127 0" result="hardAlpha"/>
<feOffset/>
<feGaussianBlur stdDeviation="0.65625"/>
<feComposite in2="hardAlpha" operator="out"/>
<feColorMatrix type="matrix" values="0 0 0 0 1 0 0 0 0 0.426332 0 0 0 0 0.388542 0 0 0 0.8 0"/>
<feBlend mode="normal" in2="BackgroundImageFix" result="effect1_dropShadow_13708_10716"/>
<feBlend mode="normal" in="SourceGraphic" in2="effect1_dropShadow_13708_10716" result="shape"/>
</filter>
<filter id="filter2_d_13708_10716" x="180.287" y="108.484" width="49.7793" height="40.7793" filterUnits="userSpaceOnUse" color-interpolation-filters="sRGB">
<feFlood flood-opacity="0" result="BackgroundImageFix"/>
<feColorMatrix in="SourceAlpha" type="matrix" values="0 0 0 0 0 0 0 0 0 0 0 0 0 0 0 0 0 0 127 0" result="hardAlpha"/>
<feOffset dx="13" dy="4"/>
<feGaussianBlur stdDeviation="2"/>
<feComposite in2="hardAlpha" operator="out"/>
<feColorMatrix type="matrix" values="0 0 0 0 0 0 0 0 0 0 0 0 0 0 0 0 0 0 0.25 0"/>
<feBlend mode="normal" in2="BackgroundImageFix" result="effect1_dropShadow_13708_10716"/>
<feBlend mode="normal" in="SourceGraphic" in2="effect1_dropShadow_13708_10716" result="shape"/>
</filter>
<filter id="filter3_d_13708_10716" x="179.75" y="106.537" width="33.8535" height="36.3745" filterUnits="userSpaceOnUse" color-interpolation-filters="sRGB">
<feFlood flood-opacity="0" result="BackgroundImageFix"/>
<feColorMatrix in="SourceAlpha" type="matrix" values="0 0 0 0 0 0 0 0 0 0 0 0 0 0 0 0 0 0 127 0" result="hardAlpha"/>
<feOffset/>
<feGaussianBlur stdDeviation="3"/>
<feComposite in2="hardAlpha" operator="out"/>
<feColorMatrix type="matrix" values="0 0 0 0 0.992157 0 0 0 0 0.415686 0 0 0 0 0.0980392 0 0 0 1 0"/>
<feBlend mode="normal" in2="BackgroundImageFix" result="effect1_dropShadow_13708_10716"/>
<feBlend mode="normal" in="SourceGraphic" in2="effect1_dropShadow_13708_10716" result="shape"/>
</filter>
<radialGradient id="paint0_radial_13708_10716" cx="0" cy="0" r="1" gradientUnits="userSpaceOnUse" gradientTransform="translate(131.332 88.3802) rotate(104.808) scale(29.9792 154.692)">
<stop offset="0.665"/>
<stop offset="1" stop-color="#494949"/>
</radialGradient>
<radialGradient id="paint1_radial_13708_10716" cx="0" cy="0" r="1" gradientUnits="userSpaceOnUse" gradientTransform="translate(153.576 1.33761) rotate(105) scale(88.3464 258.705)">
<stop stop-color="#DDDDDD"/>
<stop offset="0.75"/>
</radialGradient>
<linearGradient id="paint2_linear_13708_10716" x1="137.138" y1="32.7793" x2="137.138" y2="86.0248" gradientUnits="userSpaceOnUse">
<stop stop-color="white"/>
<stop offset="1" stop-color="#232323"/>
</linearGradient>
<radialGradient id="paint3_radial_13708_10716" cx="0" cy="0" r="1" gradientUnits="userSpaceOnUse" gradientTransform="translate(218.727 93.3215) rotate(24.7366) scale(22.8189)">
<stop stop-color="#B968F3"/>
<stop offset="1"/>
</radialGradient>
<linearGradient id="paint4_linear_13708_10716" x1="242.627" y1="85.3149" x2="213.881" y2="93.0787" gradientUnits="userSpaceOnUse">
<stop stop-color="#D188FF"/>
<stop offset="1" stop-color="#831FD8"/>
</linearGradient>
<linearGradient id="paint5_linear_13708_10716" x1="242.628" y1="85.3149" x2="213.882" y2="93.0787" gradientUnits="userSpaceOnUse">
<stop stop-color="#D188FF"/>
<stop offset="1" stop-color="#831FD8"/>
</linearGradient>
<linearGradient id="paint6_linear_13708_10716" x1="242.628" y1="85.3151" x2="213.883" y2="93.0789" gradientUnits="userSpaceOnUse">
<stop stop-color="#D188FF"/>
<stop offset="1" stop-color="#831FD8"/>
</linearGradient>
<linearGradient id="paint7_linear_13708_10716" x1="242.629" y1="85.3148" x2="213.884" y2="93.0786" gradientUnits="userSpaceOnUse">
<stop stop-color="#D188FF"/>
<stop offset="1" stop-color="#831FD8"/>
</linearGradient>
<linearGradient id="paint8_linear_13708_10716" x1="242.624" y1="85.3146" x2="213.879" y2="93.0784" gradientUnits="userSpaceOnUse">
<stop stop-color="#D188FF"/>
<stop offset="1" stop-color="#831FD8"/>
</linearGradient>
<linearGradient id="paint9_linear_13708_10716" x1="242.626" y1="85.3152" x2="213.88" y2="93.079" gradientUnits="userSpaceOnUse">
<stop stop-color="#D188FF"/>
<stop offset="1" stop-color="#831FD8"/>
</linearGradient>
<linearGradient id="paint10_linear_13708_10716" x1="242.628" y1="85.3147" x2="213.883" y2="93.0785" gradientUnits="userSpaceOnUse">
<stop stop-color="#D188FF"/>
<stop offset="1" stop-color="#831FD8"/>
</linearGradient>
<linearGradient id="paint11_linear_13708_10716" x1="242.628" y1="85.3148" x2="213.882" y2="93.0785" gradientUnits="userSpaceOnUse">
<stop stop-color="#D188FF"/>
<stop offset="1" stop-color="#831FD8"/>
</linearGradient>
<linearGradient id="paint12_linear_13708_10716" x1="242.629" y1="85.315" x2="213.884" y2="93.0788" gradientUnits="userSpaceOnUse">
<stop stop-color="#D188FF"/>
<stop offset="1" stop-color="#831FD8"/>
</linearGradient>
<radialGradient id="paint13_radial_13708_10716" cx="0" cy="0" r="1" gradientUnits="userSpaceOnUse" gradientTransform="translate(105.36 95.2163) rotate(90) scale(32.7794)">
<stop stop-color="#E9FB46"/>
<stop offset="0.75"/>
</radialGradient>
<radialGradient id="paint14_radial_13708_10716" cx="0" cy="0" r="1" gradientUnits="userSpaceOnUse" gradientTransform="translate(38.2452 67.1194) rotate(90) scale(32.7794)">
<stop stop-color="#FF685E"/>
<stop offset="0.75"/>
</radialGradient>
<linearGradient id="paint15_linear_13708_10716" x1="32.4785" y1="76.573" x2="45.5508" y2="89.6459" gradientUnits="userSpaceOnUse">
<stop stop-color="#FFB0AB"/>
<stop offset="0.464" stop-color="#FF6D63"/>
<stop offset="1" stop-color="#FF4337"/>
</linearGradient>
<radialGradient id="paint16_radial_13708_10716" cx="0" cy="0" r="1" gradientUnits="userSpaceOnUse" gradientTransform="translate(196.677 108.484) rotate(90) scale(32.7794)">
<stop stop-color="#B54C12"/>
<stop offset="0.75"/>
</radialGradient>
</defs>
</svg>
