<svg xmlns="http://www.w3.org/2000/svg" width="85" height="30" viewBox="0 0 85 30" fill="none">
              <circle cx="14" cy="15" r="13.5" fill="url(#paint0_linear_13708_10321)" stroke="black" />
              <path
                fill-rule="evenodd"
                clip-rule="evenodd"
                d="M21.0234 8.80224L20.1183 22.1131L20.0979 22.133C20.0566 22.4488 19.9424 22.7087 19.7497 22.9014C18.8779 23.7732 16.6289 23.0372 14.066 21.2281L14.7064 20.5877C15.356 21.0388 15.9778 21.4131 16.5517 21.7015C17.3258 22.0909 17.9661 22.3008 18.4416 22.359C18.9306 22.4187 19.0853 22.3047 19.1192 22.2708C19.1529 22.237 19.267 22.0823 19.2072 21.5933C19.1491 21.118 18.9392 20.4775 18.5499 19.7034C17.8203 18.2526 16.5432 16.4946 14.8601 14.7585L7.12312 22.4954L7.27132 21.0861L14.2295 14.1279C12.4934 12.4449 10.7354 11.1676 9.28468 10.4381C8.51057 10.0489 7.87022 9.83898 7.39476 9.78084C6.90579 9.72111 6.7511 9.83514 6.71733 9.86892C6.68342 9.90282 6.56939 10.0575 6.62912 10.5465C6.68739 11.0219 6.89718 11.6623 7.28655 12.4364C7.57501 13.0103 7.94928 13.6321 8.40038 14.2817L7.76003 14.922C5.95089 12.3592 5.21492 10.1102 6.08665 9.23837C6.27948 9.04553 6.53972 8.93137 6.85586 8.89005C6.86204 8.88343 6.8684 8.87694 6.87493 8.87058L20.1864 7.96522L21.0844 7.9043L21.0234 8.80224ZM15.3319 9.1895L19.4479 8.90952L17.5087 10.8488C16.726 10.1041 15.9619 9.56576 15.3319 9.18936M13.5969 9.30724L9.56453 9.58152C11.1427 10.3529 13.026 11.7175 14.8601 13.4972L16.8779 11.4795C16.0329 10.678 15.2138 10.1342 14.5881 9.78482C14.3181 9.63295 14.0403 9.49534 13.7559 9.37253C13.6937 9.34604 13.6407 9.32419 13.5969 9.30724ZM17.5031 12.1155L15.4908 14.1278C17.2711 15.9625 18.6362 17.8463 19.4074 19.4249L19.6902 15.2633C19.6712 15.222 19.6473 15.1724 19.6186 15.1143C19.4813 14.8395 19.3319 14.5708 19.1709 14.3091C18.8098 13.7182 18.2669 12.9422 17.5033 12.1154M18.1343 11.4844C18.872 12.2799 19.417 13.0336 19.8007 13.6392L20.0795 9.53914L18.1343 11.4844ZM10.8602 13.924L7.88028 16.9039L7.73222 18.3132L11.7097 14.3357L10.8602 13.924ZM14.6525 17.2787L10.6799 21.2511L12.0892 21.103L15.1221 18.07L14.6525 17.2787Z"
                fill="white"
              />
              <circle cx="32" cy="15" r="13.5" fill="#E9FB46" stroke="black" />
              <path
                fill-rule="evenodd"
                clip-rule="evenodd"
                d="M24.1992 7.19971H29.3992V12.3997H34.1659V7.19971H39.7992V23.6664H33.7326V19.9582C34.2583 19.4824 34.5887 18.7946 34.5887 18.0297C34.5887 16.5937 33.4246 15.4297 31.9887 15.4297C30.5527 15.4297 29.3887 16.5937 29.3887 18.0297C29.3887 18.8048 29.7279 19.5007 30.2659 19.977V23.6664H24.1992V7.19971Z"
                fill="#2F3E24"
              />
              <circle cx="52" cy="15" r="13" fill="url(#paint1_linear_13708_10321)" />
              <path
                fill-rule="evenodd"
                clip-rule="evenodd"
                d="M61.2644 14.713V14.7204L61.2685 14.7927C61.2992 15.3283 61.2828 15.8653 61.2196 16.3979L61.1923 16.628L61.1352 17.5796C61.0992 18.1773 60.8001 18.7299 60.3166 19.0926C60.0486 19.3559 59.8628 19.6893 59.7812 20.0534L59.6756 20.5237C59.5614 21.0321 59.1423 21.4192 58.62 21.4985C58.1765 21.566 57.8012 21.857 57.6306 22.2659L57.5758 22.3975L57.4839 22.5899C57.1666 23.2549 56.4408 23.6329 55.7044 23.5168L55.5492 23.4924C54.8018 23.3748 54.0826 23.8251 53.8738 24.5419C53.6725 25.2326 53.0714 25.5974 52.4621 25.6095C51.8527 25.5974 51.2516 25.2326 51.0503 24.5419C50.8415 23.8251 50.1223 23.3748 49.3749 23.4924L49.2198 23.5168C48.4833 23.6329 47.7575 23.2549 47.4402 22.5899L47.3483 22.3975L47.2935 22.2659C47.1229 21.857 46.7476 21.566 46.3041 21.4985C45.7819 21.4192 45.3627 21.0321 45.2485 20.5237L45.1429 20.0534C45.0613 19.6893 44.8755 19.3559 44.6075 19.0926C44.124 18.7299 43.8249 18.1773 43.7889 17.5796L43.7318 16.628L43.7046 16.3979C43.6413 15.8653 43.6249 15.3283 43.6557 14.7927L43.6597 14.7204V14.713C43.6597 13.5425 43.8927 12.407 44.3519 11.3376C44.7952 10.3049 45.4298 9.37774 46.2379 8.58167C47.046 7.78538 47.9874 7.16026 49.0357 6.72357C50.1214 6.2712 51.2741 6.04199 52.4621 6.04199C53.65 6.04199 54.803 6.2712 55.8886 6.72357C56.9369 7.16026 57.8781 7.78538 58.6862 8.58167C59.4943 9.37774 60.1289 10.3049 60.5725 11.3376C61.0317 12.407 61.2644 13.5425 61.2644 14.713ZM52.4621 22.0396C54.4488 22.0396 56.3164 21.2774 57.7214 19.8936C59.1261 18.5098 59.8997 16.6701 59.8997 14.713C59.8997 12.7558 59.1261 10.9159 57.7214 9.53212C56.3164 8.14835 54.4486 7.38633 52.4621 7.38633C50.4755 7.38633 48.6077 8.14835 47.203 9.53212C45.7982 10.9159 45.0244 12.7561 45.0244 14.713C45.0244 16.6699 45.7982 18.5098 47.203 19.8936C48.6077 21.2774 50.4753 22.0396 52.4621 22.0396ZM56.3187 9.46615C55.827 9.15223 55.1678 9.33664 54.9142 9.85645L52.9031 13.976C52.871 14.0423 52.8845 14.1238 52.937 14.1769L53.0046 14.2451C53.0587 14.2982 53.1397 14.3114 53.2074 14.2782L57.3887 12.2973C57.9159 12.0466 58.1019 11.3973 57.7842 10.9124C57.4039 10.333 56.9037 9.83987 56.3156 9.46615H56.3187ZM54.387 13.144L53.9273 13.3367C53.8766 13.3582 53.8277 13.3085 53.8479 13.2588L54.0424 12.807C54.0863 12.7058 54.1893 12.6444 54.2992 12.6509C54.4311 12.6592 54.5357 12.762 54.5442 12.8917C54.551 13.0013 54.4884 13.1026 54.3852 13.1458L54.387 13.1443V13.144ZM53.3043 14.4998C53.2334 14.5247 53.1845 14.5912 53.1845 14.6658V14.7604C53.1845 14.835 53.2318 14.9015 53.3043 14.9264L57.6834 16.439C58.2361 16.6299 58.8343 16.2996 58.9578 15.7366C59.1048 15.0624 59.1048 14.3651 58.9578 13.691C58.8345 13.1263 58.2379 12.7976 57.6834 12.9885L53.3043 14.5011V14.4998ZM55.2395 14.8785C55.1669 14.9598 55.0484 14.988 54.9454 14.9466L54.4823 14.7622C54.4316 14.7422 54.4316 14.6725 54.4823 14.651L54.9454 14.4666C55.0484 14.4252 55.1667 14.4534 55.2395 14.5348C55.3273 14.6327 55.3273 14.7787 55.2395 14.8751V14.8785ZM53.2085 15.1504L57.3898 17.1312L57.3895 17.1315H57.3929C57.9204 17.3822 58.1062 18.0313 57.7885 18.5161C57.4082 19.0958 56.908 19.5889 56.3198 19.9624C55.8279 20.2761 55.1689 20.0919 54.9153 19.5721L52.9042 15.4526C52.8706 15.3845 52.884 15.3047 52.9381 15.2516L53.0057 15.1835C53.0582 15.132 53.141 15.1188 53.2085 15.1504ZM54.2969 16.7676C54.4286 16.7593 54.5334 16.6565 54.5418 16.527L54.5434 16.5285C54.5503 16.419 54.4861 16.3177 54.3847 16.2744L53.925 16.0818C53.8743 16.06 53.8236 16.11 53.8456 16.1597L54.0401 16.6114C54.0822 16.7111 54.1854 16.7743 54.2969 16.7676ZM52.6758 15.5432C52.6506 15.4735 52.5828 15.4254 52.5068 15.4254H52.4106C52.3347 15.4254 52.2669 15.4717 52.2416 15.5432L50.707 19.857C50.5126 20.4017 50.8474 20.9909 51.4203 21.1121C52.1047 21.2582 52.813 21.2582 53.4974 21.1121C54.0703 20.9909 54.4049 20.4014 54.2107 19.857L52.6761 15.5432H52.6758ZM52.6267 17.4493C52.5287 17.5355 52.3799 17.5355 52.2803 17.4493C52.1975 17.3762 52.1689 17.2599 52.2109 17.1587L52.3968 16.7038C52.417 16.6541 52.488 16.6541 52.5082 16.7038L52.694 17.1587C52.7363 17.2599 52.7077 17.3762 52.6247 17.4493H52.6263H52.6267ZM51.735 14.7605C51.735 14.8351 51.6861 14.9017 51.6151 14.9266V14.9252L47.2362 16.4378C46.6817 16.6287 46.0851 16.3 45.9619 15.7354C45.8149 15.0612 45.8149 14.364 45.9619 13.6898C46.0854 13.1269 46.6836 12.7965 47.2362 12.9874L51.6151 14.5C51.6877 14.5248 51.735 14.5914 51.735 14.666V14.7605ZM49.9622 14.4699C49.8592 14.4285 49.7409 14.4567 49.6681 14.5381V14.5383V14.5416C49.5803 14.638 49.5803 14.7841 49.6681 14.882C49.7409 14.9633 49.8592 14.9915 49.9622 14.9501L50.4237 14.7657C50.4744 14.744 50.4744 14.6743 50.4237 14.6543L49.9622 14.4699ZM51.9786 15.2522L51.9111 15.1841C51.8569 15.131 51.776 15.1177 51.7082 15.1509L47.527 17.1318C46.9997 17.3809 46.8137 18.0318 47.1314 18.5165C47.5117 19.0959 48.0119 19.589 48.6001 19.9627C49.0918 20.2766 49.751 20.0923 50.0046 19.5724L52.0141 15.4529C52.048 15.3848 52.0328 15.305 51.9802 15.2519H51.9786V15.2522ZM51.0574 16.1587L50.863 16.6104C50.8191 16.7117 50.716 16.7731 50.6062 16.7666C50.4743 16.7583 50.3696 16.6554 50.3612 16.5259C50.3544 16.4164 50.4169 16.3151 50.52 16.2718L50.9797 16.0792C51.0304 16.0577 51.0793 16.1074 51.059 16.1571L51.0574 16.1587ZM52.2416 13.8821C52.2668 13.9518 52.3346 13.9999 52.4105 13.9999H52.507C52.5829 13.9999 52.6507 13.9536 52.676 13.8821L54.2106 9.56832C54.405 9.02364 54.0702 8.43438 53.4973 8.31315C52.8129 8.16864 52.1046 8.16864 51.4202 8.31315C50.8473 8.43438 50.5127 9.02387 50.7069 9.56832L52.2416 13.8821ZM52.2788 11.966C52.3769 11.8797 52.5256 11.8797 52.6253 11.966C52.708 12.0374 52.7367 12.1553 52.6946 12.2566L52.5088 12.7116C52.4886 12.7613 52.4176 12.7613 52.3974 12.7116L52.2115 12.2566C52.1692 12.1553 52.1981 12.039 52.2809 11.966H52.2793H52.2788ZM51.7098 14.2783L47.5286 12.2974H47.527C46.9995 12.0467 46.8137 11.3974 47.1315 10.9125C47.5118 10.3329 48.0119 9.83975 48.6001 9.46624C49.0921 9.15255 49.751 9.33673 50.0046 9.85655L52.0141 13.976C52.0478 14.0442 52.0344 14.1239 51.9802 14.177L51.9127 14.2451C51.8602 14.2967 51.7774 14.3115 51.7098 14.2783ZM50.6078 12.6494C50.4761 12.6577 50.3713 12.7608 50.3628 12.8903L50.3613 12.8885C50.3544 12.998 50.4186 13.0993 50.52 13.1426L50.9797 13.3353C51.0304 13.357 51.0811 13.307 51.0591 13.2573L50.8646 12.8056C50.8225 12.7059 50.7193 12.6427 50.6078 12.6494Z"
                fill="white"
              />
              <circle cx="71" cy="15" r="13" fill="black" />
              <g filter="url(#filter0_d_13708_10321)">
                <path
                  fill-rule="evenodd"
                  clip-rule="evenodd"
                  d="M70.9821 6.19238C70.1887 6.19238 69.5359 6.79424 69.4553 7.56629C65.7772 8.27896 63 11.5167 63 15.403C63 19.3685 65.8915 22.6587 69.6811 23.2802C69.9527 23.7126 70.4338 24 70.9821 24C71.5303 24 72.0114 23.7127 72.2829 23.2804C76.0732 22.6595 78.9654 19.369 78.9654 15.403C78.9654 11.5162 76.1876 8.27825 72.5089 7.56606C72.4282 6.79412 71.7754 6.19238 70.9821 6.19238Z"
                  fill="#FD6A19"
                />
              </g>
              <circle cx="70.9827" cy="15.4031" r="6.44757" fill="#1B1716" />
              <circle cx="70.9824" cy="15.4033" r="3.07027" fill="#FD6A19" />
              <circle cx="70.9824" cy="7.72752" r="1.53514" fill="#FD6A19" />
              <circle cx="70.9824" cy="22.4648" r="1.53514" fill="#FD6A19" />
              <defs>
                <filter
                  id="filter0_d_13708_10321"
                  x="57"
                  y="0.192383"
                  width="27.9648"
                  height="29.8076"
                  filterUnits="userSpaceOnUse"
                  color-interpolation-filters="sRGB"
                >
                  <feFlood flood-opacity="0" result="BackgroundImageFix" />
                  <feColorMatrix
                    in="SourceAlpha"
                    type="matrix"
                    values="0 0 0 0 0 0 0 0 0 0 0 0 0 0 0 0 0 0 127 0"
                    result="hardAlpha"
                  />
                  <feOffset />
                  <feGaussianBlur stdDeviation="3" />
                  <feComposite in2="hardAlpha" operator="out" />
                  <feColorMatrix type="matrix" values="0 0 0 0 0.992157 0 0 0 0 0.415686 0 0 0 0 0.0980392 0 0 0 1 0" />
                  <feBlend mode="normal" in2="BackgroundImageFix" result="effect1_dropShadow_13708_10321" />
                  <feBlend mode="normal" in="SourceGraphic" in2="effect1_dropShadow_13708_10321" result="shape" />
                </filter>
                <linearGradient
                  id="paint0_linear_13708_10321"
                  x1="1.00002"
                  y1="2"
                  x2="27"
                  y2="28"
                  gradientUnits="userSpaceOnUse"
                >
                  <stop stop-color="#FFB0AB" />
                  <stop offset="0.464" stop-color="#FF6D63" />
                  <stop offset="1" stop-color="#FF4337" />
                </linearGradient>
                <linearGradient
                  id="paint1_linear_13708_10321"
                  x1="124.347"
                  y1="-33.4319"
                  x2="-26.9223"
                  y2="6.83076"
                  gradientUnits="userSpaceOnUse"
                >
                  <stop stop-color="#D188FF" />
                  <stop offset="1" stop-color="#831FD8" />
                </linearGradient>
              </defs>
            </svg>