<svg width="187" height="95" viewBox="0 0 187 95" fill="none" xmlns="http://www.w3.org/2000/svg">
<path d="M13.8332 77.8242C13.4722 77.8954 13.2353 77.6451 13.1226 77.0734C13.0633 76.7726 13.0379 76.1681 13.0465 75.2599C13.0851 74.3459 13.2532 73.375 13.5508 72.3474C13.6784 71.8847 13.8425 71.2898 14.043 70.5626C14.2736 69.8295 14.5012 69.0814 14.7258 68.3182C14.9505 67.555 15.1569 66.8579 15.3451 66.2269C15.5634 65.59 15.7362 65.1184 15.8633 64.812C16.1117 64.1692 16.3934 63.4573 16.7083 62.6763C17.0533 61.8894 17.3892 61.1356 17.716 60.4148C18.0669 59.658 18.3634 59.0213 18.6054 58.5047C18.8775 57.9823 19.0348 57.67 19.0772 57.5678C19.0653 57.5077 19.141 57.3365 19.3041 57.0543C19.4614 56.742 19.6307 56.4116 19.8121 56.0633C20.0177 55.679 20.187 55.3487 20.3201 55.0724C20.4832 54.7902 20.5648 54.6491 20.5648 54.6491C20.831 54.0965 21.1605 53.4689 21.5534 52.7664C21.9705 52.0278 22.3725 51.2922 22.7594 50.5595C23.1765 49.8209 23.5361 49.1874 23.8383 48.659C23.9472 48.4187 24.0988 47.9982 24.2929 47.3973C24.5112 46.7604 24.7049 46.3159 24.874 46.0638C25.049 45.8417 25.2423 45.5536 25.4538 45.1993C25.6894 44.8091 25.9157 44.53 26.1327 44.3622L26.2955 44.2364C24.9775 44.5274 23.7467 44.8638 22.6029 45.2455C21.4833 45.5912 20.4357 45.9852 19.4601 46.4275C19.0025 46.6427 18.6079 46.8612 18.2765 47.0828C17.9392 47.2743 17.5747 47.4868 17.1831 47.7202C16.8458 47.9117 16.4934 48.1062 16.126 48.3037C15.7527 48.471 15.4153 48.6625 15.114 48.8782C13.8003 49.8248 12.8565 50.7453 12.2826 51.6398C11.7388 52.5284 11.5085 53.1833 11.5915 53.6046L11.6182 53.74C11.6597 53.9506 11.7313 54.1553 11.833 54.354C11.9647 54.5468 12.1061 54.5502 12.2569 54.3642C12.3896 54.2443 12.501 54.1755 12.5913 54.1577C12.8621 54.1043 13.0242 54.213 13.0775 54.4838C13.1191 54.6944 13.0343 54.8987 12.8232 55.0965C12.624 55.3546 12.3136 55.6033 11.8919 55.8427C11.4703 56.0821 11.1842 56.2166 11.0338 56.2463C10.4019 56.3708 9.8273 56.4684 9.30988 56.5391C8.78653 56.5798 8.38693 56.4554 8.11108 56.1659C8.03948 55.9612 7.98611 55.6904 7.95097 55.3535C7.94591 55.0107 8.01015 54.623 8.14367 54.1903C8.19199 54.1183 8.18331 53.995 8.11764 53.8204C8.08206 53.6399 8.11258 53.4776 8.20922 53.3335L8.16408 53.3424C8.25479 53.1682 8.37536 53.0663 8.52579 53.0367C8.70039 52.971 8.7968 52.9051 8.81503 52.839C9.48003 51.614 10.7137 50.2612 12.5161 48.7807C14.3126 47.2701 16.8483 45.9421 20.1233 44.7965C20.2678 44.7368 20.4303 44.6891 20.6108 44.6535C20.8214 44.612 20.8515 44.6061 20.7011 44.6357L20.656 44.6446C20.5958 44.6565 20.7403 44.5967 21.0895 44.4654C21.4688 44.3281 21.8631 44.1879 22.2725 44.0447C22.6759 43.8714 22.9077 43.7789 22.9679 43.767C23.5819 43.5522 24.1146 43.4003 24.5659 43.3114C25.1075 43.2046 25.655 43.128 26.2085 43.0814C26.7619 43.0348 27.4929 42.9377 28.4015 42.7898C32.054 42.1325 35.257 41.97 38.0106 42.3025C40.7642 42.635 42.9633 43.4049 44.6078 44.6124C46.2765 45.7838 47.3006 47.3323 47.6801 49.258C47.9114 50.4314 47.8837 51.7184 47.5972 53.1189C47.3407 54.5135 46.7951 56.0275 45.9606 57.6611C44.9447 59.6429 43.7641 61.3447 42.419 62.7663C41.1039 64.182 39.7713 65.4292 38.421 66.508C37.0649 67.5567 35.8412 68.5637 34.7499 69.5289C33.7129 70.4522 32.5288 71.2638 31.1977 71.9638C29.8725 72.6938 28.5989 73.2887 27.3767 73.7483C26.1604 74.2381 25.2181 74.6114 24.5498 74.8681C23.3217 75.2977 22.1059 75.6311 20.9024 75.8683C20.0299 76.0403 19.2387 76.1493 18.5289 76.1955C17.8492 76.2357 17.3231 76.1831 16.9506 76.0377C16.4819 75.88 16.1912 75.5153 16.0786 74.9436C16.0133 74.6127 16.0322 74.312 16.1352 74.0417C16.2683 73.7654 16.4853 73.5976 16.7862 73.5383C17.1773 73.4612 17.64 73.5888 18.1744 73.9211C18.5286 74.1326 18.9704 74.233 19.4997 74.2225C20.0349 74.242 20.5282 74.2073 20.9795 74.1184C21.4609 74.0235 21.7618 73.9642 21.8821 73.9405C22.0084 73.9468 22.1468 73.9352 22.2972 73.9055C22.4476 73.8759 22.5981 73.8462 22.7485 73.8166C23.3804 73.6921 24.1207 73.4836 24.9695 73.1913C25.8484 72.8931 26.7365 72.5617 27.6336 72.1974C28.5308 71.833 29.3497 71.4684 30.0905 71.1036C30.8313 70.7388 31.4065 70.4067 31.8164 70.1071C34.8117 67.8601 37.2502 65.8011 39.1319 63.9299C41.0136 62.0587 42.4205 60.0779 43.3525 57.9876C43.8607 56.9185 44.1706 55.7947 44.2821 54.6162C44.4238 53.4318 44.3849 52.2829 44.1655 51.1697C43.9935 50.2971 43.7221 49.4754 43.3514 48.7046C42.9747 47.9036 42.4565 47.1775 41.7968 46.5261C41.2032 45.8929 40.3175 45.3642 39.1399 44.9399C37.9865 44.4796 36.6703 44.1451 35.1914 43.9365C33.7065 43.6978 32.1581 43.6123 30.5461 43.6799C30.5689 44.113 30.5134 44.6241 30.3794 45.2131C30.2454 45.8021 29.928 46.4117 29.4271 47.0418C29.1312 47.4439 28.7301 47.8668 28.2237 48.3104C27.7414 48.718 27.4125 49.1111 27.237 49.4895C27.0916 49.8619 26.7867 50.2971 26.3222 50.795C25.8878 51.287 25.4475 51.7488 25.0012 52.1806C24.5851 52.6065 24.3075 52.9425 24.1684 53.1887C24.0777 53.3628 23.8934 53.6961 23.6153 54.1885C23.3674 54.675 23.0832 55.2154 22.7628 55.81C22.4725 56.3985 22.2033 56.9361 21.9554 57.4225C21.7074 57.909 21.5381 58.2393 21.4474 58.4135C20.6676 59.8487 20.096 60.9928 19.7328 61.8458C19.3937 62.6628 19.1574 63.2876 19.0239 63.7203C18.9204 64.147 18.8293 64.4775 18.7504 64.7119L18.7053 64.7208C18.5718 65.1534 18.2728 65.6187 17.8083 66.1166C17.3379 66.5844 17.0541 66.9685 16.9571 67.2689C16.8413 67.7918 16.6381 68.4258 16.3473 69.1707C16.0506 69.8856 15.8897 70.4174 15.8647 70.7662C15.816 70.9946 15.6403 71.4511 15.3376 72.1359C15.035 72.8207 14.861 73.7614 14.8155 74.9582C14.7887 75.9324 14.6635 76.6447 14.4397 77.0952C14.246 77.5397 14.0438 77.7827 13.8332 77.8242ZM49.8379 67.4929C49.4768 67.564 49.1552 67.518 48.873 67.3549C48.5908 67.1917 48.4052 66.8844 48.3162 66.4331C48.2925 66.3128 48.2838 66.1895 48.2902 66.0632C48.2665 65.9428 48.2578 65.8195 48.2642 65.6932C48.3092 64.6529 48.4841 63.3994 48.7889 61.9328C49.0937 60.4662 49.5613 58.8737 50.1916 57.1554C50.8519 55.4311 51.7439 53.6925 52.8675 51.9395C53.707 50.6488 54.6841 49.6591 55.7987 48.9706C56.9073 48.252 58.1386 47.7593 59.4926 47.4924L59.5377 47.4835C60.5607 47.2819 61.291 47.4193 61.7287 47.8956C62.1605 48.3419 62.4298 48.8358 62.5365 49.3774C62.661 50.0092 62.6686 50.5235 62.5593 50.9201L62.523 50.9741C62.4264 51.1182 62.2878 51.208 62.1073 51.2436C61.9569 51.2733 61.7946 51.2427 61.6204 51.152C61.4763 51.0554 61.3835 50.9018 61.342 50.6912C61.2827 50.3903 61.1721 50.1464 61.0103 49.9595C60.8785 49.7667 60.7226 49.6099 60.5425 49.4891C60.5005 49.4348 60.4194 49.4196 60.299 49.4433C60.1727 49.4369 60.0344 49.4486 59.8839 49.4782L59.8388 49.4871C59.7486 49.5049 59.6553 49.5077 59.5591 49.4954C59.457 49.453 59.3608 49.4407 59.2705 49.4585C58.1272 49.6838 56.8702 50.7599 55.4996 52.6866C54.1167 54.7095 53.1256 56.4208 52.5262 57.8205C51.9269 59.2201 51.5507 60.4039 51.3977 61.3717C51.2687 62.3036 51.1973 63.1303 51.1832 63.852C51.2006 64.0986 51.2995 64.2042 51.48 64.1686C51.811 64.1034 52.1875 63.8729 52.6096 63.4771C53.0618 63.0754 53.5172 62.6106 53.9758 62.0826C54.4343 61.5546 54.8779 61.0296 55.3063 60.5076C55.7289 59.9555 56.0639 59.5144 56.3114 59.1843C56.4322 59.0042 56.5468 58.8722 56.6553 58.7883C56.7939 58.6985 56.8994 58.5995 56.9719 58.4915C57.0986 58.3415 57.1802 58.2004 57.2167 58.0681C57.2832 57.93 57.3678 57.8039 57.4703 57.69C58.3696 56.5437 59.0969 55.6346 59.6521 54.9626C60.2014 54.2604 60.6239 53.7083 60.9197 53.3062C61.2456 52.8981 61.5203 52.5471 61.7436 52.253C62.0577 51.7848 62.4554 51.5032 62.9368 51.4083C63.6288 51.2719 64.1392 51.562 64.468 52.2787C64.6714 52.6762 64.6254 52.9978 64.33 53.2436C64.0287 53.4592 63.8235 53.6872 63.7146 53.9275C63.5332 54.2758 63.3664 54.7775 63.2142 55.4326C63.0561 56.0577 62.8314 56.8209 62.5402 57.7222C62.3703 58.287 62.2422 58.9062 62.1561 59.5795C62.0942 60.2168 62.123 60.68 62.2425 60.969L62.9119 60.3214C63.2674 60.0638 63.659 59.8303 64.0866 59.621C64.5083 59.3816 64.8488 59.1269 65.1082 58.857C65.2951 58.6952 65.4637 58.5994 65.6142 58.5698C65.8549 58.5223 65.996 58.6039 66.0375 58.8145C66.0849 59.0552 65.9518 59.3315 65.6382 59.6434C64.8902 60.4472 64.2871 61.0349 63.829 61.4065C63.365 61.748 62.9034 62.2609 62.4444 62.9453C62.3478 63.0894 62.1484 63.4256 61.8462 63.954C61.5682 64.4464 61.3628 64.7526 61.2302 64.8725C61.1217 64.9564 60.9922 65.0131 60.8418 65.0428C60.7274 65.0966 60.61 65.1354 60.4896 65.1591C60.0684 65.2421 59.8038 65.2474 59.6957 65.1749C59.6237 65.1266 59.5215 65.0842 59.3893 65.0477C59.2931 65.0354 59.2001 64.96 59.1103 64.8214C59.0027 64.5926 58.9311 64.3879 58.8955 64.2074C58.7888 63.6658 58.7996 63.0073 58.9281 62.2318C59.0807 61.4203 59.3088 60.5158 59.6123 59.5183C59.8552 58.689 60.0254 58.0459 60.1229 57.5891C60.2204 57.1323 60.2876 56.7596 60.3245 56.471C60.3554 56.1524 60.4044 55.8458 60.4714 55.5513C60.1273 56.0254 59.771 56.5176 59.4027 57.0278C59.0344 57.538 58.5998 58.1081 58.0989 58.7382C58.0205 58.8162 57.9179 58.9301 57.7912 59.0801C57.6585 59.2001 57.5651 59.281 57.5109 59.3229L56.5147 60.6914C55.8027 61.5194 55.172 62.2844 54.6228 62.9866C54.0735 63.6887 53.5033 64.3637 52.9121 65.0116C52.3209 65.6595 51.5972 66.3491 50.7412 67.0804C50.4098 67.302 50.1087 67.4395 49.8379 67.4929ZM64.4127 77.2323C64.0818 77.2976 63.8474 77.2187 63.7097 76.9958L63.7186 77.0409C63.647 76.8363 63.5663 76.6646 63.4765 76.5261C63.3566 76.3934 63.2758 76.2218 63.2343 76.0112C63.1869 75.7705 63.1848 75.4427 63.2281 75.0278C63.2472 74.649 63.3419 74.0989 63.5123 73.3777C63.5679 72.8666 63.7472 72.1905 64.0503 71.3494C64.3593 70.5383 64.593 69.7421 64.7516 68.9607C64.8614 68.4077 65.0954 67.5333 65.4536 66.3374C65.7876 65.1776 66.1882 63.8797 66.6553 62.4436C67.1165 60.9774 67.5686 59.5442 68.0115 58.1441C68.4846 56.7381 68.9 55.5154 69.2577 54.4759C69.6154 53.4365 69.8549 52.7485 69.9762 52.412L69.994 52.5023C69.9944 52.3459 70.076 52.2048 70.2387 52.079C70.4315 51.9472 70.5642 51.8273 70.6367 51.7192C70.6129 51.5989 70.5983 51.4455 70.5928 51.259C70.5873 51.0726 70.5878 50.9162 70.5942 50.7899L70.5853 50.7448C70.6522 50.4503 70.7582 50.195 70.9031 49.9789C71.0782 49.7568 71.2532 49.5348 71.4282 49.3128C71.6156 48.9945 71.9504 48.6316 72.4327 48.224C72.945 47.8104 73.5504 47.4723 74.2488 47.2096L74.2037 47.2185C74.288 47.1707 74.4204 47.1289 74.601 47.0933C75.0222 47.0103 75.2654 47.1343 75.3307 47.4653C75.3603 47.6157 75.3508 47.8051 75.302 48.0335C75.2473 48.2318 75.2047 48.4122 75.1742 48.5745C75.192 48.6647 75.1676 48.7789 75.1011 48.9171C75.0587 49.0192 75.0343 49.1334 75.0279 49.2597C75.7942 48.3897 76.7289 47.5023 77.832 46.5972C78.9351 45.6921 80.1101 44.9136 81.3569 44.2615C82.5494 43.6514 83.5218 43.2722 84.274 43.1239C84.966 42.9875 85.5703 43.0404 86.0868 43.2824C86.9877 43.7299 87.5508 44.5254 87.7762 45.6687C87.8295 45.9395 87.8587 46.2463 87.8638 46.5892C87.8629 46.9019 87.85 47.2326 87.8249 47.5814C87.8364 47.7979 87.8177 48.0204 87.7689 48.2488C87.7443 48.4412 87.7045 48.7148 87.6494 49.0694C87.4302 50.0191 87.0367 50.9562 86.4687 51.8808C85.925 52.7694 85.2577 53.7448 84.4668 54.8072C84.3643 54.9211 84.3128 55.0563 84.3123 55.2127C84.336 55.333 84.2633 55.5193 84.0942 55.7714C83.9735 55.9515 83.7804 56.1615 83.5151 56.4013C83.2498 56.6411 83.078 56.8 82.9996 56.878C82.2876 57.7059 81.3647 58.6536 80.2311 59.721C79.1216 60.7523 77.6455 61.6684 75.8029 62.4691L75.7578 62.478C75.2581 62.639 74.6892 62.8449 74.051 63.0957C73.4128 63.3465 72.7778 63.5342 72.1459 63.6588C71.484 63.7892 70.8585 63.7875 70.2695 63.6535C69.7165 63.5437 69.3055 63.2027 69.0364 62.6306C68.8177 63.4239 68.5689 64.2231 68.29 65.0282C68.017 65.8635 67.8351 66.3681 67.7444 66.5423C67.6478 66.6864 67.5387 67.0048 67.417 67.4977C67.2953 67.9905 67.1766 68.4984 67.0609 69.0213C66.9452 69.5442 66.8178 69.9287 66.6788 70.1749L66.7239 70.166C66.5908 70.4423 66.5298 70.7669 66.5408 71.1398C66.5276 71.5488 66.4994 71.9607 66.4561 72.3755C66.3399 73.0548 66.2994 73.5629 66.3346 73.8998C66.3456 74.2727 66.3869 74.5615 66.4584 74.7662C66.5 74.9768 66.4993 75.2114 66.4565 75.4699C66.3594 75.7703 66.0998 76.1184 65.6777 76.5142C65.2255 76.9159 64.8039 77.1552 64.4127 77.2323ZM73.008 61.8479C73.5496 61.7411 74.1637 61.5263 74.8502 61.2035C75.8499 60.7251 76.678 60.3275 77.3344 60.0106C77.9908 59.6937 78.5663 59.2833 79.0609 58.7795C79.5072 58.3477 79.9295 57.8738 80.3279 57.3577C80.4305 57.2437 80.6146 56.9886 80.8803 56.5924C81.1461 56.1962 81.3273 55.926 81.4239 55.782C81.6714 55.4519 81.8797 55.1608 82.0488 54.9086C82.212 54.6264 82.4023 54.3232 82.6197 53.9991C82.7888 53.747 83.0094 53.3597 83.2815 52.8372C83.5778 52.2787 83.8651 51.6751 84.1436 51.0263C84.4462 50.3415 84.6736 49.6716 84.8258 49.0164C84.9721 48.3312 84.9948 47.7329 84.894 47.2214C84.7873 46.6798 84.5116 46.3122 84.0671 46.1185C83.8629 46.0337 83.6495 45.982 83.427 45.9633C83.2287 45.9086 83.0092 45.905 82.7685 45.9524C82.3172 46.0414 81.7813 46.2564 81.1609 46.5975C80.5345 46.9085 80.0769 47.1237 79.7878 47.2432C79.5289 47.3567 79.288 47.4823 79.0651 47.6201C78.8362 47.7277 78.4807 47.9853 77.9984 48.3929C77.8717 48.5429 77.6483 48.837 77.3283 49.2751C77.0325 49.6773 76.8123 49.9082 76.6678 49.9679L76.713 49.959C76.4659 50.1328 76.1493 50.4296 75.7632 50.8495C75.3771 51.2694 75.0544 51.6143 74.7951 51.8842C74.6382 52.0402 74.4482 52.2652 74.2248 52.5593C74.0316 52.8474 73.8595 53.0845 73.7086 53.2705C73.2017 53.8705 72.815 54.525 72.5484 55.2339C72.2818 55.9428 71.9308 56.6997 71.4956 57.5044C71.4714 57.5404 71.3985 57.8048 71.2768 58.2976C71.1492 58.7604 71.0216 59.2231 70.894 59.6858C70.7965 60.1427 70.7236 60.4071 70.6753 60.4791C70.5846 60.6533 70.56 60.8457 70.6015 61.0563C70.6312 61.2067 70.6879 61.3362 70.7718 61.4447C70.8858 61.5472 70.9367 61.6466 70.9244 61.7428C71.0985 61.8335 71.363 61.9064 71.7176 61.9615C72.0965 61.9806 72.5266 61.9427 73.008 61.8479ZM94.7531 61.8755C94.392 61.9467 94.1551 61.6964 94.0425 61.1247C93.9832 60.8239 93.9578 60.2193 93.9663 59.3112C94.005 58.3972 94.1731 57.4263 94.4707 56.3987C94.5983 55.936 94.7623 55.341 94.9628 54.6139C95.1934 53.8808 95.421 53.1326 95.6457 52.3695C95.8704 51.6063 96.0768 50.9092 96.265 50.2782C96.4833 49.6413 96.656 49.1697 96.7832 48.8633C97.0316 48.2205 97.3132 47.5086 97.6281 46.7276C97.9731 45.9407 98.309 45.1869 98.6358 44.4661C98.9868 43.7093 99.2833 43.0726 99.5253 42.556C99.7974 42.0335 99.9546 41.7212 99.997 41.6191C99.9851 41.5589 100.061 41.3878 100.224 41.1055C100.381 40.7932 100.551 40.4629 100.732 40.1146C100.938 39.7303 101.107 39.4 101.24 39.1237C101.403 38.8415 101.485 38.7004 101.485 38.7004C101.751 38.1478 102.08 37.5202 102.473 36.8177C102.89 36.0791 103.292 35.3434 103.679 34.6108C104.096 33.8722 104.456 33.2387 104.758 32.7103C104.867 32.47 105.019 32.0495 105.213 31.4486C105.431 30.8117 105.625 30.3672 105.794 30.115C105.969 29.893 106.162 29.6049 106.374 29.2506C106.609 28.8603 106.836 28.5813 107.053 28.4135L107.215 28.2877C105.897 28.5787 104.667 28.915 103.523 29.2968C102.403 29.6425 101.356 30.0365 100.38 30.4788C99.9223 30.694 99.5278 30.9124 99.1964 31.134C98.859 31.3256 98.4946 31.538 98.103 31.7715C97.7657 31.963 97.4133 32.1575 97.0459 32.3549C96.6725 32.5223 96.3352 32.7138 96.0339 32.9295C94.7201 33.8761 93.7763 34.7966 93.2024 35.6911C92.6587 36.5797 92.4283 37.2346 92.5113 37.6558L92.538 37.7912C92.5795 38.0019 92.6511 38.2065 92.7528 38.4053C92.8846 38.5981 93.0259 38.6015 93.1768 38.4155C93.3094 38.2956 93.4209 38.2267 93.5111 38.2089C93.7819 38.1556 93.944 38.2643 93.9974 38.5351C94.0389 38.7457 93.9541 38.9499 93.7431 39.1478C93.5439 39.4059 93.2335 39.6546 92.8118 39.894C92.3901 40.1334 92.1041 40.2679 91.9536 40.2975C91.3218 40.4221 90.7471 40.5197 90.2297 40.5904C89.7064 40.6311 89.3068 40.5067 89.0309 40.2172C88.9593 40.0125 88.906 39.7417 88.8708 39.4048C88.8658 39.062 88.93 38.6743 89.0635 38.2416C89.1118 38.1696 89.1032 38.0463 89.0375 37.8717C89.0019 37.6911 89.0324 37.5288 89.1291 37.3848L89.0839 37.3937C89.1746 37.2195 89.2952 37.1176 89.4456 37.0879C89.6202 37.0223 89.7167 36.9564 89.7349 36.8903C90.3999 35.6652 91.6336 34.3125 93.436 32.832C95.2324 31.3214 97.7682 29.9934 101.043 28.8478C101.188 28.788 101.35 28.7404 101.531 28.7048C101.741 28.6633 101.771 28.6574 101.621 28.687L101.576 28.6959C101.516 28.7078 101.66 28.648 102.009 28.5167C102.389 28.3794 102.783 28.2392 103.192 28.096C103.596 27.9227 103.828 27.8301 103.888 27.8183C104.502 27.6035 105.034 27.4516 105.486 27.3627C106.027 27.2559 106.575 27.1793 107.128 27.1327C107.682 27.0861 108.413 26.9889 109.321 26.8411C112.974 26.1838 116.177 26.0213 118.93 26.3538C121.684 26.6862 123.883 27.4562 125.528 28.6637C127.196 29.8351 128.22 31.3836 128.6 33.3092C128.831 34.4827 128.804 35.7696 128.517 37.1702C128.26 38.5647 127.715 40.0788 126.88 41.7124C125.865 43.6942 124.684 45.396 123.339 46.8176C122.024 48.2333 120.691 49.4805 119.341 50.5593C117.985 51.608 116.761 52.615 115.67 53.5802C114.633 54.5035 113.449 55.3151 112.118 56.0151C110.792 56.7451 109.519 57.3399 108.297 57.7996C107.08 58.2894 106.138 58.6626 105.47 58.9194C104.242 59.349 103.026 59.6824 101.822 59.9196C100.95 60.0916 100.159 60.2006 99.4487 60.2467C98.769 60.2869 98.2429 60.2343 97.8704 60.089C97.4018 59.9313 97.1111 59.5666 96.9984 58.9949C96.9332 58.664 96.9521 58.3633 97.0551 58.093C97.1881 57.8167 97.4051 57.6489 97.706 57.5896C98.0972 57.5125 98.5599 57.6401 99.0942 57.9724C99.4485 58.1838 99.8902 58.2843 100.42 58.2738C100.955 58.2933 101.448 58.2586 101.899 58.1696C102.381 58.0748 102.682 58.0155 102.802 57.9917C102.928 57.9981 103.067 57.9865 103.217 57.9568C103.367 57.9272 103.518 57.8975 103.668 57.8679C104.3 57.7433 105.041 57.5349 105.889 57.2426C106.768 56.9443 107.656 56.613 108.553 56.2487C109.451 55.8843 110.27 55.5197 111.01 55.1549C111.751 54.7901 112.326 54.4579 112.736 54.1584C115.732 51.9114 118.17 49.8523 120.052 47.9812C121.933 46.11 123.34 44.1292 124.272 42.0389C124.781 40.9697 125.09 39.8459 125.202 38.6675C125.344 37.483 125.305 36.3342 125.085 35.221C124.913 34.3484 124.642 33.5267 124.271 32.7559C123.895 31.9549 123.376 31.2287 122.717 30.5774C122.123 29.9442 121.237 29.4155 120.06 28.9912C118.906 28.5309 117.59 28.1964 116.111 27.9878C114.626 27.7491 113.078 27.6636 111.466 27.7312C111.489 28.1643 111.433 28.6754 111.299 29.2644C111.165 29.8534 110.848 30.463 110.347 31.0931C110.051 31.4952 109.65 31.9181 109.144 32.3617C108.661 32.7693 108.332 33.1623 108.157 33.5407C108.011 33.9132 107.707 34.3484 107.242 34.8463C106.808 35.3382 106.367 35.8001 105.921 36.2319C105.505 36.6577 105.227 36.9938 105.088 37.24C104.998 37.4141 104.813 37.7474 104.535 38.2398C104.287 38.7262 104.003 39.2667 103.683 39.8612C103.392 40.4498 103.123 40.9873 102.875 41.4738C102.627 41.9603 102.458 42.2906 102.367 42.4647C101.587 43.9 101.016 45.0441 100.653 45.8971C100.314 46.7141 100.077 47.3389 99.9437 47.7716C99.8403 48.1983 99.7491 48.5288 99.6703 48.7631L99.6252 48.772C99.4916 49.2047 99.1926 49.67 98.7281 50.1678C98.2577 50.6356 97.974 51.0198 97.8769 51.3202C97.7612 51.8431 97.5579 52.477 97.2672 53.222C96.9705 53.9369 96.8096 54.4687 96.7846 54.8174C96.7358 55.0458 96.5601 55.5024 96.2575 56.1872C95.9549 56.872 95.7808 57.8127 95.7354 59.0094C95.7086 59.9837 95.5833 60.696 95.3595 61.1465C95.1658 61.591 94.9637 61.834 94.7531 61.8755ZM130.758 51.5442C130.397 51.6153 130.075 51.5693 129.793 51.4062C129.511 51.243 129.325 50.9357 129.236 50.4844C129.212 50.3641 129.204 50.2407 129.21 50.1145C129.186 49.9941 129.178 49.8708 129.184 49.7445C129.229 48.7042 129.404 47.4507 129.709 45.9841C130.014 44.5174 130.481 42.925 131.111 41.2067C131.772 39.4824 132.664 37.7438 133.787 35.9908C134.627 34.7001 135.604 33.7104 136.719 33.0219C137.827 32.3033 139.058 31.8106 140.412 31.5437L140.458 31.5348C141.481 31.3332 142.211 31.4706 142.649 31.9469C143.08 32.3932 143.35 32.8871 143.456 33.4287C143.581 34.0605 143.588 34.5748 143.479 34.9714L143.443 35.0254C143.346 35.1695 143.208 35.2593 143.027 35.2949C142.877 35.3246 142.714 35.294 142.54 35.2033C142.396 35.1067 142.303 34.9531 142.262 34.7425C142.203 34.4416 142.092 34.1977 141.93 34.0108C141.798 33.818 141.642 33.6612 141.462 33.5404C141.42 33.4861 141.339 33.4709 141.219 33.4946C141.093 33.4882 140.954 33.4999 140.804 33.5295L140.759 33.5384C140.668 33.5562 140.575 33.5589 140.479 33.5466C140.377 33.5043 140.281 33.492 140.19 33.5098C139.047 33.7351 137.79 34.8111 136.419 36.7379C135.037 38.7608 134.045 40.4721 133.446 41.8718C132.847 43.2714 132.471 44.4552 132.317 45.423C132.189 46.3549 132.117 47.1816 132.103 47.9033C132.12 48.1499 132.219 48.2555 132.4 48.2199C132.731 48.1546 133.107 47.9241 133.529 47.5284C133.982 47.1267 134.437 46.6619 134.896 46.1339C135.354 45.6059 135.798 45.0809 136.226 44.5589C136.649 44.0067 136.984 43.5656 137.231 43.2355C137.352 43.0555 137.467 42.9235 137.575 42.8396C137.714 42.7497 137.819 42.6508 137.892 42.5427C138.018 42.3927 138.1 42.2516 138.137 42.1194C138.203 41.9813 138.288 41.8552 138.39 41.7412C139.289 40.595 140.017 39.6859 140.572 39.0139C141.121 38.3117 141.544 37.7596 141.84 37.3575C142.165 36.9494 142.44 36.5984 142.663 36.3043C142.978 35.836 143.375 35.5545 143.857 35.4596C144.549 35.3232 145.059 35.6133 145.388 36.3299C145.591 36.7274 145.545 37.0491 145.25 37.2948C144.949 37.5105 144.743 37.7385 144.634 37.9787C144.453 38.3271 144.286 38.8288 144.134 39.4839C143.976 40.109 143.751 40.8721 143.46 41.7735C143.29 42.3383 143.162 42.9574 143.076 43.6308C143.014 44.2681 143.043 44.7313 143.162 45.0203L143.832 44.3727C144.187 44.115 144.579 43.8816 145.006 43.6723C145.428 43.4329 145.769 43.1782 146.028 42.9083C146.215 42.7465 146.384 42.6507 146.534 42.621C146.775 42.5736 146.916 42.6552 146.957 42.8658C147.005 43.1065 146.872 43.3828 146.558 43.6947C145.81 44.4985 145.207 45.0862 144.749 45.4578C144.285 45.7993 143.823 46.3122 143.364 46.9966C143.268 47.1406 143.068 47.4769 142.766 48.0053C142.488 48.4977 142.283 48.8038 142.15 48.9237C142.042 49.0076 141.912 49.0644 141.762 49.0941C141.647 49.1479 141.53 49.1866 141.409 49.2104C140.988 49.2934 140.724 49.2987 140.616 49.2262C140.544 49.1779 140.441 49.1355 140.309 49.099C140.213 49.0867 140.12 49.0113 140.03 48.8727C139.923 48.6439 139.851 48.4392 139.815 48.2587C139.709 47.7171 139.719 47.0585 139.848 46.2831C140.001 45.4716 140.229 44.5671 140.532 43.5695C140.775 42.7403 140.945 42.0972 141.043 41.6404C141.14 41.1836 141.207 40.8109 141.244 40.5223C141.275 40.2036 141.324 39.8971 141.391 39.6025C141.047 40.0767 140.691 40.5689 140.323 41.0791C139.954 41.5892 139.52 42.1594 139.019 42.7895C138.94 42.8674 138.838 42.9814 138.711 43.1314C138.578 43.2513 138.485 43.3323 138.431 43.3742L137.435 44.7427C136.723 45.5707 136.092 46.3357 135.543 47.0378C134.993 47.74 134.423 48.415 133.832 49.0629C133.241 49.7108 132.517 50.4004 131.661 51.1317C131.33 51.3533 131.029 51.4908 130.758 51.5442ZM145.333 61.2836C145.002 61.3489 144.767 61.27 144.63 61.0471L144.638 61.0922C144.567 60.8875 144.486 60.7159 144.396 60.5773C144.276 60.4447 144.196 60.2731 144.154 60.0624C144.107 59.8217 144.105 59.494 144.148 59.0791C144.167 58.7002 144.262 58.1502 144.432 57.429C144.488 56.9179 144.667 56.2418 144.97 55.4007C145.279 54.5896 145.513 53.7934 145.671 53.012C145.781 52.459 146.015 51.5845 146.373 50.3887C146.707 49.2289 147.108 47.9309 147.575 46.4948C148.036 45.0286 148.488 43.5955 148.931 42.1954C149.404 40.7894 149.82 39.5667 150.178 38.5272C150.535 37.4878 150.775 36.7998 150.896 36.4633L150.914 36.5536C150.914 36.3972 150.996 36.2561 151.159 36.1303C151.351 35.9985 151.484 35.8786 151.557 35.7705C151.533 35.6502 151.518 35.4968 151.513 35.3103C151.507 35.1239 151.508 34.9675 151.514 34.8412L151.505 34.7961C151.572 34.5016 151.678 34.2463 151.823 34.0302C151.998 33.8081 152.173 33.5861 152.348 33.364C152.535 33.0458 152.87 32.6829 153.353 32.2753C153.865 31.8617 154.47 31.5236 155.169 31.2609L155.124 31.2698C155.208 31.2219 155.34 31.1802 155.521 31.1446C155.942 31.0616 156.185 31.1856 156.25 31.5165C156.28 31.667 156.271 31.8564 156.222 32.0848C156.167 32.2831 156.125 32.4634 156.094 32.6257C156.112 32.716 156.087 32.8302 156.021 32.9683C155.979 33.0705 155.954 33.1847 155.948 33.311C156.714 32.441 157.649 31.5535 158.752 30.6485C159.855 29.7434 161.03 28.9648 162.277 28.3128C163.469 27.7027 164.442 27.3235 165.194 27.1752C165.886 27.0388 166.49 27.0916 167.007 27.3336C167.908 27.7812 168.471 28.5767 168.696 29.72C168.749 29.9908 168.779 30.2976 168.784 30.6404C168.783 30.9532 168.77 31.2839 168.745 31.6327C168.756 31.8492 168.738 32.0717 168.689 32.3001C168.664 32.4925 168.624 32.766 168.569 33.1207C168.35 34.0704 167.956 35.0075 167.389 35.9321C166.845 36.8207 166.178 37.7961 165.387 38.8584C165.284 38.9724 165.233 39.1076 165.232 39.264C165.256 39.3843 165.183 39.5706 165.014 39.8227C164.893 40.0028 164.7 40.2127 164.435 40.4526C164.17 40.6924 163.998 40.8513 163.919 40.9293C163.207 41.7572 162.285 42.7049 161.151 43.7723C160.041 44.8036 158.565 45.7197 156.723 46.5204L156.678 46.5293C156.178 46.6903 155.609 46.8962 154.971 47.147C154.333 47.3978 153.698 47.5855 153.066 47.71C152.404 47.8405 151.778 47.8387 151.189 47.7048C150.636 47.595 150.225 47.254 149.956 46.6819C149.738 47.4752 149.489 48.2744 149.21 49.0795C148.937 49.9147 148.755 50.4194 148.664 50.5936C148.568 50.7377 148.459 51.0561 148.337 51.5489C148.215 52.0418 148.096 52.5496 147.981 53.0726C147.865 53.5955 147.738 53.98 147.599 54.2262L147.644 54.2173C147.511 54.4936 147.45 54.8182 147.461 55.1911C147.447 55.6001 147.419 56.012 147.376 56.4268C147.26 57.1061 147.219 57.6142 147.254 57.9511C147.265 58.324 147.307 58.6128 147.378 58.8175C147.42 59.0281 147.419 59.2627 147.376 59.5211C147.279 59.8216 147.02 60.1697 146.598 60.5655C146.145 60.9671 145.724 61.2065 145.333 61.2836ZM153.928 45.8991C154.469 45.7924 155.083 45.5776 155.77 45.2548C156.77 44.7764 157.598 44.3788 158.254 44.0619C158.911 43.7449 159.486 43.3346 159.981 42.8308C160.427 42.399 160.849 41.925 161.248 41.4089C161.35 41.2949 161.534 41.0399 161.8 40.6437C162.066 40.2475 162.247 39.9773 162.344 39.8333C162.591 39.5032 162.8 39.2121 162.969 38.9599C163.132 38.6777 163.322 38.3745 163.54 38.0504C163.709 37.7982 163.929 37.4109 164.201 36.8885C164.498 36.33 164.785 35.7263 165.063 35.0776C165.366 34.3928 165.593 33.7228 165.746 33.0677C165.892 32.3825 165.915 31.7841 165.814 31.2727C165.707 30.7311 165.431 30.3634 164.987 30.1697C164.783 30.085 164.569 30.0332 164.347 30.0146C164.149 29.9599 163.929 29.9563 163.688 30.0037C163.237 30.0927 162.701 30.3077 162.081 30.6488C161.454 30.9597 160.997 31.175 160.708 31.2945C160.449 31.408 160.208 31.5336 159.985 31.6713C159.756 31.779 159.401 32.0366 158.918 32.4442C158.792 32.5942 158.568 32.8883 158.248 33.3264C157.952 33.7285 157.732 33.9595 157.588 34.0192L157.633 34.0103C157.386 34.184 157.069 34.4809 156.683 34.9008C156.297 35.3207 155.974 35.6656 155.715 35.9355C155.558 36.0915 155.368 36.3165 155.145 36.6105C154.951 36.8987 154.779 37.1358 154.628 37.3218C154.122 37.9218 153.735 38.5763 153.468 39.2852C153.202 39.9941 152.851 40.7509 152.415 41.5556C152.391 41.5917 152.318 41.8561 152.197 42.3489C152.069 42.8116 151.941 43.2744 151.814 43.7371C151.716 44.1939 151.643 44.4584 151.595 44.5304C151.504 44.7046 151.48 44.8969 151.521 45.1076C151.551 45.258 151.608 45.3875 151.692 45.496C151.806 45.5985 151.857 45.6979 151.844 45.7941C152.018 45.8848 152.283 45.9577 152.637 46.0128C153.016 46.0319 153.446 45.994 153.928 45.8991Z" fill="#EBF479"/>
<path d="M186.744 41.0002C142.344 47.4002 60.2439 77.3336 24.7439 91.5002C21.2425 92.8977 22.7398 96.5002 31.7419 91.5002C41.3614 86.1573 134.242 51.0002 186.744 41.0002Z" fill="#EBF479"/>
</svg>
