<svg width="18" height="12" viewBox="0 0 18 12" fill="none" xmlns="http://www.w3.org/2000/svg">
<path d="M9.70929 10.4256L10.7915 2.32983L12.1438 2.69218L11.4036 7.61845L13.3679 3.03054L14.4401 3.31783L13.8789 8.27137L15.6984 3.64463L17.0314 4.00181L13.9304 11.5566L12.5781 11.1943L13.1428 6.03462L11.0906 10.7957L9.70929 10.4256Z" fill="black"/>
<path d="M5.05859 9.17947L7.15503 1.35547L10.5647 2.2691L10.2697 3.37026L8.45375 2.88368L7.89729 4.96042L9.29788 5.3357L9.00024 6.44652L7.59965 6.07123L6.94225 8.52468L8.77751 9.01644L8.48763 10.0983L5.05859 9.17947Z" fill="black"/>
<path d="M1.19469e-06 7.824L2.09644 0L3.20725 0.297642L3.8537 4.83972L4.94592 0.763516L6.25958 1.11551L4.16314 8.93951L3.10062 8.65481L2.52147 3.86159L1.36196 8.18893L1.19469e-06 7.824Z" fill="black"/>
</svg>
