<svg width="103" height="64" viewBox="0 0 103 64" fill="none" xmlns="http://www.w3.org/2000/svg">
<path d="M92.4355 62.5791H101.766V53.2489" stroke="white" stroke-width="2"/>
<path d="M92.4355 62.5791H101.766V53.2489" stroke="white" stroke-width="2"/>
<path d="M10.3301 1H0.999869V10.3302" stroke="white" stroke-width="2"/>
<path d="M10.3301 1H0.999869V10.3302" stroke="white" stroke-width="2"/>
<rect x="53" y="19" width="32" height="33" rx="6" fill="black" stroke="#33C5F4" stroke-width="2"/>
<path fill-rule="evenodd" clip-rule="evenodd" d="M74.6312 32.6738C76.2398 32.6738 77.5438 31.3698 77.5438 29.7612C77.5438 28.1527 76.2398 26.8486 74.6312 26.8486C73.0226 26.8486 71.7186 28.1527 71.7186 29.7612C71.7186 31.3698 73.0226 32.6738 74.6312 32.6738ZM60.9473 29.4225H64.2663V41.1407H74.6297V44.1887H60.9473V29.4225Z" fill="#33C5F4"/>
<rect x="78" y="24" width="22" height="23" rx="6" fill="black" stroke="#33C5F4" stroke-width="2"/>
<path fill-rule="evenodd" clip-rule="evenodd" d="M92.924 33.5302C94.0452 33.5302 94.954 32.6214 94.954 31.5002C94.954 30.3791 94.0452 29.4702 92.924 29.4702C91.8029 29.4702 90.894 30.3791 90.894 31.5002C90.894 32.6214 91.8029 33.5302 92.924 33.5302ZM83.3867 31.264H85.7V39.4312H92.923V41.5556H83.3867V31.264Z" fill="#33C5F4"/>
<rect x="16.8613" y="12.2275" width="50.5903" height="50.5903" rx="6" fill="black" stroke="#33C5F4" stroke-width="2"/>
<path fill-rule="evenodd" clip-rule="evenodd" d="M51.2695 33.2913C53.7804 33.2913 55.8158 31.2559 55.8158 28.745C55.8158 26.2342 53.7804 24.1987 51.2695 24.1987C48.7587 24.1987 46.7232 26.2342 46.7232 28.745C46.7232 31.2559 48.7587 33.2913 51.2695 33.2913ZM29.9102 28.2165H35.0908V46.5074H51.2672V51.2652H29.9102L29.9102 28.2165Z" fill="#33C5F4"/>
</svg>
