<svg width="91" height="47" viewBox="0 0 91 47" fill="none" xmlns="http://www.w3.org/2000/svg">
  <ellipse cx="45.2623" cy="23.0573" rx="45.2623" ry="23.0573" fill="#EBF479"/>
  <path fill-rule="evenodd" clip-rule="evenodd" d="M13.2792 34.6174C10.4586 31.8468 8.87805 28.7402 8.87805 25.459C8.87805 13.8363 28.7096 4.4056 53.2332 4.33133C50.3102 4.01174 47.2643 3.84277 44.1345 3.84277C22.0411 3.84277 4.13086 12.2621 4.13086 22.6479C4.13086 27.1953 7.56436 31.3657 13.2792 34.6174Z" fill="black"/>
  <path fill-rule="evenodd" clip-rule="evenodd" d="M78.4974 12.6648C80.4703 15.0763 81.5523 17.6978 81.5523 20.4388C81.5523 31.6812 63.3511 40.9118 40.1328 41.8916C41.8654 41.9993 43.6329 42.0549 45.428 42.0549C67.5214 42.0549 85.4316 33.6356 85.4316 23.2498C85.4316 19.3244 82.8732 15.68 78.4974 12.6648Z" fill="black"/>
</svg>
