<svg width="91" height="47" viewBox="0 0 91 47" fill="none" xmlns="http://www.w3.org/2000/svg">
<ellipse cx="45.2623" cy="23.0573" rx="45.2623" ry="23.0573" fill="#EBF479"/>
<path fill-rule="evenodd" clip-rule="evenodd" d="M13.2792 34.6174C10.4586 31.8468 8.87805 28.7402 8.87805 25.459C8.87805 13.8363 28.7096 4.4056 53.2332 4.33133C50.3102 4.01174 47.2643 3.84277 44.1345 3.84277C22.0411 3.84277 4.13086 12.2621 4.13086 22.6479C4.13086 27.1953 7.56436 31.3657 13.2792 34.6174Z" fill="black"/>
<path fill-rule="evenodd" clip-rule="evenodd" d="M78.4974 12.6648C80.4703 15.0763 81.5523 17.6978 81.5523 20.4388C81.5523 31.6812 63.3511 40.9118 40.1328 41.8916C41.8654 41.9993 43.6329 42.0549 45.428 42.0549C67.5214 42.0549 85.4316 33.6356 85.4316 23.2498C85.4316 19.3244 82.8732 15.68 78.4974 12.6648Z" fill="black"/>
<path d="M38.2005 11.5867C38.6165 11.6827 38.8885 11.9387 39.0485 12.3547V16.7067C38.8725 17.0107 38.5845 17.2507 38.1845 17.4427H31.0325V18.5627H39.0485V20.9307H28.1365V15.8267C28.2485 15.5867 28.3765 15.4107 28.5365 15.3147C28.6805 15.2187 28.8405 15.1547 29.0325 15.0907H36.1205V13.9547H29.1125V11.5867H38.2005ZM43.2512 13.9547V18.5627H48.4192V13.9547H43.2512ZM41.2192 11.5867H50.4512C50.8512 11.6827 51.1232 11.9387 51.2832 12.3547V20.1627C51.1392 20.5947 50.8672 20.8507 50.4512 20.9307H41.2192C40.7392 20.8187 40.4512 20.5307 40.3392 20.0827V12.4667C40.4672 11.9867 40.7552 11.6987 41.2192 11.5867ZM55.4856 13.9547V18.5627H60.6536V13.9547H55.4856ZM53.4536 11.5867H62.6856C63.0856 11.6827 63.3576 11.9387 63.5176 12.3547V20.1627C63.3736 20.5947 63.1016 20.8507 62.6856 20.9307H53.4536C52.9736 20.8187 52.6856 20.5307 52.5736 20.0827V12.4667C52.7016 11.9867 52.9896 11.6987 53.4536 11.5867ZM28.1361 24.5867H38.2321C38.6321 24.6827 38.9041 24.9387 39.0641 25.3547V29.6907C39.0001 29.9787 38.9041 30.1707 38.7601 30.2827C38.6001 30.3947 38.3441 30.4427 37.9921 30.4427H32.3121V28.0907H36.1841V26.9547H31.0481V33.9307H28.1361V24.5867ZM51.2828 24.5867V26.9547H46.3548V31.5627H48.7548V33.9307H44.3388C43.8428 33.8347 43.5548 33.5627 43.4588 33.0827V26.9547H40.3548V24.5867H51.2828ZM53.4376 24.5867H63.5016V26.9547H55.5016V28.0907H62.6536C62.8456 28.0907 63.0376 28.2027 63.2296 28.3947C63.4056 28.5867 63.5016 28.8107 63.5016 29.0667V33.1627C63.3576 33.5947 63.0856 33.8507 62.6696 33.9307H52.5736V31.5627H60.5896V30.4427H53.4376C53.2136 30.4427 53.0056 30.3627 52.8296 30.1867C52.6536 30.0107 52.5736 29.8027 52.5736 29.5787V25.3547C52.7016 24.9387 52.9896 24.6827 53.4376 24.5867Z" fill="black"/>
</svg>
