<svg width="362" height="76" viewBox="0 0 362 76" fill="none" xmlns="http://www.w3.org/2000/svg">
<g opacity="0.2">
<path d="M249.9 27C249.9 30.5386 248.037 33.9658 244.547 37.1397C241.056 40.3137 235.978 43.1951 229.659 45.6252C217.026 50.4841 199.54 53.5 180.2 53.5C160.86 53.5 143.374 50.4841 130.741 45.6252C124.422 43.1951 119.344 40.3137 115.853 37.1397C112.363 33.9658 110.5 30.5386 110.5 27C110.5 23.4614 112.363 20.0342 115.853 16.8603C119.344 13.6862 124.422 10.8049 130.741 8.37479C143.374 3.51589 160.86 0.5 180.2 0.5C199.54 0.5 217.026 3.51589 229.659 8.37479C235.978 10.8049 241.056 13.6862 244.547 16.8603C248.037 20.0342 249.9 23.4614 249.9 27Z" stroke="black"/>
<path d="M249.9 27C249.9 30.5386 248.037 33.9658 244.547 37.1397C241.056 40.3137 235.978 43.1951 229.659 45.6252C217.026 50.4841 199.54 53.5 180.2 53.5C160.86 53.5 143.374 50.4841 130.741 45.6252C124.422 43.1951 119.344 40.3137 115.853 37.1397C112.363 33.9658 110.5 30.5386 110.5 27C110.5 23.4614 112.363 20.0342 115.853 16.8603C119.344 13.6862 124.422 10.8049 130.741 8.37479C143.374 3.51589 160.86 0.5 180.2 0.5C199.54 0.5 217.026 3.51589 229.659 8.37479C235.978 10.8049 241.056 13.6862 244.547 16.8603C248.037 20.0342 249.9 23.4614 249.9 27Z" stroke="black"/>
<path d="M249.9 27C249.9 30.5386 248.037 33.9658 244.547 37.1397C241.056 40.3137 235.978 43.1951 229.659 45.6252C217.026 50.4841 199.54 53.5 180.2 53.5C160.86 53.5 143.374 50.4841 130.741 45.6252C124.422 43.1951 119.344 40.3137 115.853 37.1397C112.363 33.9658 110.5 30.5386 110.5 27C110.5 23.4614 112.363 20.0342 115.853 16.8603C119.344 13.6862 124.422 10.8049 130.741 8.37479C143.374 3.51589 160.86 0.5 180.2 0.5C199.54 0.5 217.026 3.51589 229.659 8.37479C235.978 10.8049 241.056 13.6862 244.547 16.8603C248.037 20.0342 249.9 23.4614 249.9 27Z" stroke="black"/>
<path d="M249.9 27C249.9 30.5386 248.037 33.9658 244.547 37.1397C241.056 40.3137 235.978 43.1951 229.659 45.6252C217.026 50.4841 199.54 53.5 180.2 53.5C160.86 53.5 143.374 50.4841 130.741 45.6252C124.422 43.1951 119.344 40.3137 115.853 37.1397C112.363 33.9658 110.5 30.5386 110.5 27C110.5 23.4614 112.363 20.0342 115.853 16.8603C119.344 13.6862 124.422 10.8049 130.741 8.37479C143.374 3.51589 160.86 0.5 180.2 0.5C199.54 0.5 217.026 3.51589 229.659 8.37479C235.978 10.8049 241.056 13.6862 244.547 16.8603C248.037 20.0342 249.9 23.4614 249.9 27Z" stroke="black"/>
<path d="M249.9 27C249.9 30.5386 248.037 33.9658 244.547 37.1397C241.056 40.3137 235.978 43.1951 229.659 45.6252C217.026 50.4841 199.54 53.5 180.2 53.5C160.86 53.5 143.374 50.4841 130.741 45.6252C124.422 43.1951 119.344 40.3137 115.853 37.1397C112.363 33.9658 110.5 30.5386 110.5 27C110.5 23.4614 112.363 20.0342 115.853 16.8603C119.344 13.6862 124.422 10.8049 130.741 8.37479C143.374 3.51589 160.86 0.5 180.2 0.5C199.54 0.5 217.026 3.51589 229.659 8.37479C235.978 10.8049 241.056 13.6862 244.547 16.8603C248.037 20.0342 249.9 23.4614 249.9 27Z" stroke="black"/>
<path d="M227.625 27C227.625 34.1954 222.443 40.811 213.843 45.6563C205.258 50.4928 193.365 53.5 180.2 53.5C167.036 53.5 155.143 50.4928 146.558 45.6563C137.957 40.811 132.775 34.1954 132.775 27C132.775 19.8046 137.957 13.189 146.558 8.34374C155.143 3.50722 167.036 0.5 180.2 0.5C193.365 0.5 205.258 3.50722 213.843 8.34374C222.443 13.189 227.625 19.8046 227.625 27Z" stroke="black"/>
<path d="M227.625 27C227.625 34.1954 222.443 40.811 213.843 45.6563C205.258 50.4928 193.365 53.5 180.2 53.5C167.036 53.5 155.143 50.4928 146.558 45.6563C137.957 40.811 132.775 34.1954 132.775 27C132.775 19.8046 137.957 13.189 146.558 8.34374C155.143 3.50722 167.036 0.5 180.2 0.5C193.365 0.5 205.258 3.50722 213.843 8.34374C222.443 13.189 227.625 19.8046 227.625 27Z" stroke="black"/>
<path d="M227.625 27C227.625 34.1954 222.443 40.811 213.843 45.6563C205.258 50.4928 193.365 53.5 180.2 53.5C167.036 53.5 155.143 50.4928 146.558 45.6563C137.957 40.811 132.775 34.1954 132.775 27C132.775 19.8046 137.957 13.189 146.558 8.34374C155.143 3.50722 167.036 0.5 180.2 0.5C193.365 0.5 205.258 3.50722 213.843 8.34374C222.443 13.189 227.625 19.8046 227.625 27Z" stroke="black"/>
<path d="M227.625 27C227.625 34.1954 222.443 40.811 213.843 45.6563C205.258 50.4928 193.365 53.5 180.2 53.5C167.036 53.5 155.143 50.4928 146.558 45.6563C137.957 40.811 132.775 34.1954 132.775 27C132.775 19.8046 137.957 13.189 146.558 8.34374C155.143 3.50722 167.036 0.5 180.2 0.5C193.365 0.5 205.258 3.50722 213.843 8.34374C222.443 13.189 227.625 19.8046 227.625 27Z" stroke="black"/>
<path d="M227.625 27C227.625 34.1954 222.443 40.811 213.843 45.6563C205.258 50.4928 193.365 53.5 180.2 53.5C167.036 53.5 155.143 50.4928 146.558 45.6563C137.957 40.811 132.775 34.1954 132.775 27C132.775 19.8046 137.957 13.189 146.558 8.34374C155.143 3.50722 167.036 0.5 180.2 0.5C193.365 0.5 205.258 3.50722 213.843 8.34374C222.443 13.189 227.625 19.8046 227.625 27Z" stroke="black"/>
<path d="M205.351 27C205.351 41.66 194.067 53.5 180.201 53.5C166.335 53.5 155.051 41.66 155.051 27C155.051 12.34 166.335 0.5 180.201 0.5C194.067 0.5 205.351 12.34 205.351 27Z" stroke="black"/>
<path d="M205.351 27C205.351 41.66 194.067 53.5 180.201 53.5C166.335 53.5 155.051 41.66 155.051 27C155.051 12.34 166.335 0.5 180.201 0.5C194.067 0.5 205.351 12.34 205.351 27Z" stroke="black"/>
<path d="M205.351 27C205.351 41.66 194.067 53.5 180.201 53.5C166.335 53.5 155.051 41.66 155.051 27C155.051 12.34 166.335 0.5 180.201 0.5C194.067 0.5 205.351 12.34 205.351 27Z" stroke="black"/>
<path d="M205.351 27C205.351 41.66 194.067 53.5 180.201 53.5C166.335 53.5 155.051 41.66 155.051 27C155.051 12.34 166.335 0.5 180.201 0.5C194.067 0.5 205.351 12.34 205.351 27Z" stroke="black"/>
<path d="M205.351 27C205.351 41.66 194.067 53.5 180.201 53.5C166.335 53.5 155.051 41.66 155.051 27C155.051 12.34 166.335 0.5 180.201 0.5C194.067 0.5 205.351 12.34 205.351 27Z" stroke="black"/>
<line x1="110.676" y1="26.5" x2="250.401" y2="26.5" stroke="black"/>
<line x1="110.676" y1="26.5" x2="250.401" y2="26.5" stroke="black"/>
<line x1="110.676" y1="26.5" x2="250.401" y2="26.5" stroke="black"/>
<line x1="110.676" y1="26.5" x2="250.401" y2="26.5" stroke="black"/>
<line x1="110.676" y1="26.5" x2="250.401" y2="26.5" stroke="black"/>
</g>
<path opacity="0.2" d="M5.82747 68.992L5.15547 70.768H3.77547L5.04747 74.128L7.03947 68.992H9.54747L6.61947 76H3.52347L0.583469 68.992H5.82747ZM17.1928 73.372H12.4648V74.224H18.4768V76H10.2808V71.62H17.1928V73.372ZM10.2808 70.768V68.992H18.4768V70.768H10.2808ZM24.0288 76H19.4448V68.992H22.0968L25.5768 73.024V68.992H27.7608V76H25.3488L21.6288 71.74V74.224H22.5288L24.0288 76ZM28.7261 68.992H36.1421V70.768H33.5261V76H31.3421V70.768H28.7261V68.992ZM37.105 68.992H39.289V74.224H43.117V68.992H45.301V75.364C45.205 75.724 44.989 75.928 44.641 76H37.765C37.405 75.916 37.189 75.7 37.105 75.364V68.992ZM46.2691 68.992H53.8411C54.1411 69.064 54.3451 69.256 54.4651 69.568V73.732C54.3931 73.948 54.3091 74.104 54.2131 74.188C54.1171 74.272 53.9371 74.308 53.6851 74.308H53.0611L54.4651 76H51.8131L50.3851 74.296H49.4011V72.532H52.3051V70.768H48.4531V76H46.2691V68.992ZM62.3451 73.372H57.6171V74.224H63.6291V76H55.4331V71.62H62.3451V73.372ZM55.4331 70.768V68.992H63.6291V70.768H55.4331ZM69.7534 68.992H71.9374V76H69.7534V68.992ZM77.4898 76H72.9058V68.992H75.5578L79.0378 73.024V68.992H81.2218V76H78.8098L75.0898 71.74V74.224H75.9898L77.4898 76ZM82.187 68.992H89.603V70.768H86.987V76H84.803V70.768H82.187V68.992ZM92.7499 70.768V74.224H96.9979V70.768H92.7499ZM91.2259 68.992H98.4499C98.5939 69.04 98.7379 69.1 98.8579 69.196C98.9779 69.292 99.0739 69.412 99.1459 69.568V75.424C99.0739 75.592 98.9779 75.712 98.8579 75.808C98.7379 75.904 98.5939 75.976 98.4499 76H91.2259C90.8659 75.916 90.6499 75.7 90.5659 75.364V69.652C90.6619 69.292 90.8779 69.076 91.2259 68.992ZM107.445 68.992V74.224H112.233V76H105.945C105.561 75.928 105.345 75.724 105.273 75.364V68.992H107.445ZM113.207 68.992H115.391V76H113.207V68.992ZM120.943 76H116.359V68.992H119.011L122.491 73.024V68.992H124.675V76H122.263L118.543 71.74V74.224H119.443L120.943 76ZM132.552 73.372H127.824V74.224H133.836V76H125.64V71.62H132.552V73.372ZM125.64 70.768V68.992H133.836V70.768H125.64ZM139.808 76H134.564L137.504 68.992H140.6L143.528 76H141.02L139.028 70.888L137.756 74.224H139.136L139.808 76ZM144.25 68.992H146.434V70.768L145.366 71.62H144.25V68.992ZM147.39 76V74.224H151.65L147.714 71.056C147.498 70.756 147.402 70.42 147.402 70.06C147.402 69.952 147.426 69.832 147.498 69.7C147.558 69.58 147.642 69.46 147.738 69.352C147.834 69.256 147.93 69.172 148.05 69.1C148.17 69.028 148.278 68.992 148.398 68.992H154.926V70.768H150.606L154.602 73.972C154.71 74.116 154.794 74.272 154.842 74.44C154.89 74.62 154.914 74.788 154.914 74.944C154.914 75.064 154.89 75.196 154.842 75.316C154.794 75.436 154.722 75.556 154.65 75.652C154.578 75.748 154.494 75.832 154.398 75.904C154.302 75.976 154.206 76 154.11 76H147.39ZM161.703 76C161.343 75.916 161.127 75.7 161.043 75.364V71.62H167.955V73.372H163.227V74.224H169.239V76H161.703ZM161.703 68.992H169.239V70.768H161.043V69.652C161.139 69.292 161.354 69.076 161.703 68.992ZM178.931 68.992L175.811 72.496L178.931 76H176.183L174.455 74.044L172.691 76H169.967L173.075 72.496L169.967 68.992H172.703L174.455 70.96L176.183 68.992H178.931ZM179.652 68.992H187.14C187.284 69.04 187.428 69.1 187.56 69.196C187.692 69.292 187.788 69.412 187.848 69.568V73.732C187.812 73.9 187.74 74.044 187.62 74.14C187.5 74.248 187.32 74.296 187.092 74.296H182.784V72.532H185.688V70.768H181.836V76H179.652V68.992ZM193.257 76H188.013L190.953 68.992H194.049L196.977 76H194.469L192.477 70.888L191.205 74.224H192.585L193.257 76ZM202.283 76H197.699V68.992H200.351L203.831 73.024V68.992H206.015V76H203.603L199.883 71.74V74.224H200.783L202.283 76ZM206.98 76V74.224H211.24L207.304 71.056C207.088 70.756 206.992 70.42 206.992 70.06C206.992 69.952 207.016 69.832 207.088 69.7C207.148 69.58 207.232 69.46 207.328 69.352C207.424 69.256 207.52 69.172 207.64 69.1C207.76 69.028 207.868 68.992 207.988 68.992H214.516V70.768H210.196L214.192 73.972C214.3 74.116 214.384 74.272 214.432 74.44C214.48 74.62 214.504 74.788 214.504 74.944C214.504 75.064 214.48 75.196 214.432 75.316C214.384 75.436 214.312 75.556 214.24 75.652C214.168 75.748 214.084 75.832 213.988 75.904C213.892 75.976 213.796 76 213.7 76H206.98ZM215.476 68.992H217.66V76H215.476V68.992ZM222.108 68.992H227.352L224.412 76H221.316L218.388 68.992H220.896L222.888 74.128L224.16 70.768H222.78L222.108 68.992ZM234.986 73.372H230.258V74.224H236.27V76H228.074V71.62H234.986V73.372ZM228.074 70.768V68.992H236.27V70.768H228.074ZM244.578 70.768V74.224H248.406C248.502 74.2 248.562 74.128 248.61 74.008V71.02C248.562 70.888 248.502 70.804 248.406 70.768H244.578ZM242.394 68.992H249.474C249.606 68.992 249.75 69.04 249.906 69.124C250.05 69.22 250.194 69.328 250.326 69.448C250.458 69.58 250.566 69.712 250.65 69.844C250.734 69.976 250.782 70.084 250.782 70.18V74.848C250.782 74.944 250.734 75.064 250.65 75.196C250.554 75.328 250.446 75.448 250.314 75.568C250.182 75.688 250.038 75.796 249.894 75.88C249.738 75.964 249.606 76 249.486 76H242.394V68.992ZM258.669 73.372H253.941V74.224H259.953V76H251.757V71.62H258.669V73.372ZM251.757 70.768V68.992H259.953V70.768H251.757ZM263.105 76H260.921V71.62H267.473V73.372H263.105V76ZM261.581 68.992H268.757V70.768H260.921V69.652C261.017 69.292 261.233 69.076 261.581 68.992ZM269.722 68.992H271.906V76H269.722V68.992ZM278.691 76C278.331 75.916 278.115 75.7 278.031 75.364V71.62H284.943V73.372H280.215V74.224H286.227V76H278.691ZM278.691 68.992H286.227V70.768H278.031V69.652C278.127 69.292 278.343 69.076 278.691 68.992ZM287.855 68.992H295.391V70.768H289.379V74.224H295.391V76H287.855C287.495 75.916 287.279 75.7 287.195 75.364V69.652C287.291 69.292 287.507 69.076 287.855 68.992ZM298.543 70.768V74.224H302.791V70.768H298.543ZM297.019 68.992H304.243C304.387 69.04 304.531 69.1 304.651 69.196C304.771 69.292 304.867 69.412 304.939 69.568V75.424C304.867 75.592 304.771 75.712 304.651 75.808C304.531 75.904 304.387 75.976 304.243 76H297.019C296.659 75.916 296.443 75.7 296.359 75.364V69.652C296.455 69.292 296.671 69.076 297.019 68.992ZM305.91 76V74.224H310.17L306.234 71.056C306.018 70.756 305.922 70.42 305.922 70.06C305.922 69.952 305.946 69.832 306.018 69.7C306.078 69.58 306.162 69.46 306.258 69.352C306.354 69.256 306.45 69.172 306.57 69.1C306.69 69.028 306.798 68.992 306.918 68.992H313.446V70.768H309.126L313.122 73.972C313.23 74.116 313.314 74.272 313.362 74.44C313.41 74.62 313.434 74.788 313.434 74.944C313.434 75.064 313.41 75.196 313.362 75.316C313.314 75.436 313.242 75.556 313.17 75.652C313.098 75.748 313.014 75.832 312.918 75.904C312.822 75.976 312.726 76 312.63 76H305.91ZM314.406 68.992H316.602V71.62H320.418V68.992H322.602V72.748C322.506 73.108 322.29 73.312 321.942 73.384H319.614V76H317.43V73.384H315.066C314.706 73.288 314.49 73.084 314.406 72.748V68.992ZM323.57 76V74.224H327.83L323.894 71.056C323.678 70.756 323.582 70.42 323.582 70.06C323.582 69.952 323.606 69.832 323.678 69.7C323.738 69.58 323.822 69.46 323.918 69.352C324.014 69.256 324.11 69.172 324.23 69.1C324.35 69.028 324.458 68.992 324.578 68.992H331.106V70.768H326.786L330.782 73.972C330.89 74.116 330.974 74.272 331.022 74.44C331.07 74.62 331.094 74.788 331.094 74.944C331.094 75.064 331.07 75.196 331.022 75.316C330.974 75.436 330.902 75.556 330.83 75.652C330.758 75.748 330.674 75.832 330.578 75.904C330.482 75.976 330.386 76 330.29 76H323.57ZM332.066 68.992H339.482V70.768H336.866V76H334.682V70.768H332.066V68.992ZM347.357 73.372H342.629V74.224H348.641V76H340.445V71.62H347.357V73.372ZM340.445 70.768V68.992H348.641V70.768H340.445ZM356.593 76L358.093 74.224H358.981V71.74L355.381 76L351.793 71.74V74.224H352.693L354.181 76H349.609V68.992H352.261L355.381 72.748L358.525 68.992H361.165V76H356.593Z" fill="black"/>
</svg>
