<svg width="18" height="22" viewBox="0 0 18 22" fill="none" xmlns="http://www.w3.org/2000/svg">
  <path d="M14.9825 11.7312C14.9825 8.98166 17.2685 7.60692 17.3599 7.51527C16.0798 5.59063 14.0681 5.40733 13.3366 5.31568C11.5993 5.13238 10.0448 6.32382 9.1304 6.32382C8.30745 6.32382 6.93586 5.31568 5.47283 5.40733C3.64405 5.40733 1.90671 6.50712 0.900877 8.15682C-1.01935 11.4562 0.443682 16.4969 2.3639 19.2464C3.2783 20.6212 4.37557 22.0876 5.83859 21.9959C7.21018 21.9043 7.75881 21.0794 9.40472 21.0794C11.0506 21.0794 11.5993 21.9959 13.0623 21.9959C14.5253 21.9959 15.5311 20.6212 16.4455 19.3381C17.5428 17.78 17.9086 16.3136 18 16.222C17.8171 16.1303 14.9825 15.0305 14.9825 11.7312ZM12.1479 3.48269C12.8794 2.56619 13.428 1.28309 13.2452 0C12.1479 0 10.7763 0.733197 10.0448 1.64969C9.31328 2.47454 8.67321 3.75764 8.85608 5.04073C10.1362 5.13238 11.4164 4.39918 12.1479 3.48269Z" fill="#040000"/>
</svg>
