<svg width="301" height="100" viewBox="0 0 301 100" fill="none" xmlns="http://www.w3.org/2000/svg">
  <path d="M73.4375 91.1732L80.5927 78.7593L87.2307 91.1732H73.4375Z" fill="#474E6D"/>
  <path d="M251.485 19.2303L255.517 0.586233L269.065 5.8885L251.485 19.2303Z" fill="#474E6D"/>
  <path d="M34.0477 99.2308L38.0796 80.5867L51.6273 85.889L34.0477 99.2308Z" fill="#474E6D"/>
  <path fill-rule="evenodd" clip-rule="evenodd" d="M281.27 74.7554L273.436 83.4289C272.903 84.0183 272.072 84.2396 271.324 83.9734C259.844 79.8899 247.831 72.091 237 63.2131L250.348 62.9595L250.14 49.6985L264.55 45.8547L262.641 36.3369L272.21 31.3633C281.254 39.9861 290.904 47.0973 299.306 50.4164C300.677 50.9582 301.167 52.7261 300.179 53.8205L292.498 62.3246C291.187 61.498 289.634 61.0197 287.97 61.0197C283.274 61.0197 279.468 64.8259 279.468 69.5212C279.468 71.4954 280.141 73.3124 281.27 74.7554Z" fill="#474E6D"/>
  <path fill-rule="evenodd" clip-rule="evenodd" d="M18.9606 74.7212L13.3056 62.9484C15.3077 61.8995 16.9325 60.1189 17.7403 57.818C19.4329 52.9962 16.8962 47.7153 12.0744 46.0226C9.77352 45.2149 7.36803 45.3703 5.2978 46.2774L0.65501 36.6119C0.00894431 35.2669 1.00609 33.6937 2.49523 33.5992C15.3126 32.7865 34.5427 26.1229 49.5431 17.4319L50.9642 27.3903L58.7794 29.0616L55.8029 38.5428L67.8478 43.7904L64.3776 55.432C47.5846 68.5689 33.2107 73.1417 21.1755 75.8056C20.2748 76.005 19.36 75.5528 18.9606 74.7212Z" fill="#474E6D"/>
</svg>
