<svg width="25" height="26" viewBox="0 0 25 26" fill="none" xmlns="http://www.w3.org/2000/svg">
  <g clip-path="url(#clip0_21038_3268)">
    <path d="M20.6416 16.0811C21.6637 18.5172 22.6478 20.9691 23.5935 23.4358C23.3852 23.6321 23.3342 23.7459 23.2315 23.7858C23.1825 23.8042 23.1283 23.8025 23.0805 23.7811L18.4398 21.7071L16.3852 25.4015C16.3416 25.4797 16.2763 25.5436 16.1971 25.5854C16.1179 25.6273 16.0284 25.6453 15.9392 25.6372C15.85 25.6292 15.7651 25.5955 15.6947 25.5402C15.6243 25.4849 15.5715 25.4103 15.5426 25.3256L13.6852 19.8571C16.6666 20.0441 18.9842 18.7858 20.6416 16.0811ZM4.36942 16.0219C5.98053 18.7756 8.29627 20.0534 11.3166 19.8571L9.45923 25.3256C9.43033 25.4103 9.37748 25.4849 9.30709 25.5402C9.23669 25.5955 9.15176 25.6292 9.0626 25.6372C8.97343 25.6453 8.88384 25.6273 8.80469 25.5854C8.72554 25.5436 8.66022 25.4797 8.61664 25.4015L6.56108 21.7071L1.92867 23.7784C1.87828 23.8008 1.82104 23.8025 1.76942 23.783C1.66108 23.7422 1.60645 23.6219 1.41016 23.4237C2.21942 21.2784 3.20553 18.8108 4.36942 16.0219ZM12.3203 0.921875C17.0953 0.921875 20.9676 4.85058 20.9676 9.69595C20.9676 14.5422 17.0953 18.47 12.3194 18.47C7.54441 18.47 3.67312 14.5422 3.67312 9.69595C3.67312 4.85058 7.54441 0.921875 12.3203 0.921875ZM11.9472 4.47743L11.9037 4.54873L10.5815 7.26725L7.61016 7.70521C7.53194 7.71663 7.45795 7.74789 7.39524 7.79601C7.33253 7.84412 7.28318 7.9075 7.25189 7.98009C7.22061 8.05268 7.20843 8.13207 7.21653 8.2107C7.22462 8.28933 7.25271 8.36458 7.29812 8.42928L7.35275 8.49317L9.50645 10.6228L8.99997 13.6228C8.98667 13.7011 8.99376 13.7816 9.02054 13.8563C9.04732 13.9311 9.0929 13.9978 9.15289 14.0499C9.21287 14.102 9.28526 14.1377 9.36307 14.1537C9.44088 14.1698 9.52151 14.1655 9.59719 14.1413L9.67404 14.1089L12.3203 12.6978L14.9666 14.1089C15.0367 14.1462 15.1151 14.1649 15.1945 14.1631C15.2738 14.1614 15.3513 14.1393 15.4197 14.0989C15.488 14.0586 15.5448 14.0014 15.5847 13.9327C15.6245 13.8641 15.646 13.7864 15.6472 13.7071L15.6407 13.6237L15.1333 10.6237L17.2879 8.49317C17.3443 8.43769 17.3855 8.3687 17.4076 8.29278C17.4297 8.21687 17.432 8.13655 17.4142 8.0595C17.3965 7.98244 17.3593 7.91121 17.3063 7.85259C17.2532 7.79398 17.186 7.74993 17.1111 7.72465L17.0296 7.70613L14.0592 7.26725L12.7361 4.54873C12.7011 4.47716 12.6483 4.41582 12.5827 4.37063C12.5172 4.32544 12.441 4.29793 12.3617 4.29077C12.2824 4.2836 12.2026 4.29701 12.13 4.32971C12.0574 4.36241 11.9944 4.41329 11.9472 4.47743Z" fill="url(#paint0_linear_21038_3268)"/>
  </g>
  <defs>
    <linearGradient id="paint0_linear_21038_3268" x1="12.5018" y1="0.921875" x2="12.5018" y2="25.6391" gradientUnits="userSpaceOnUse">
      <stop stop-color="#D8E7FF"/>
      <stop offset="1" stop-color="#85628A"/>
    </linearGradient>
    <clipPath id="clip0_21038_3268">
      <rect width="25" height="25" fill="white" transform="translate(0 0.921875)"/>
    </clipPath>
  </defs>
</svg>
