<svg width="209" height="99" viewBox="0 0 209 99" fill="none" xmlns="http://www.w3.org/2000/svg">
  <path d="M79 82.0212L84.1875 73.0212L89 82.0212H79Z" fill="#474E6D"/>
  <path d="M173.441 29.863L176.364 16.3462L186.186 20.1903L173.441 29.863Z" fill="#474E6D"/>
  <path d="M50.4409 87.863L53.364 74.3462L63.186 78.1903L50.4409 87.863Z" fill="#474E6D"/>
  <path fill-rule="evenodd" clip-rule="evenodd" d="M195.036 70.1188L189.598 76.1396C189.066 76.7291 188.235 76.9513 187.488 76.6796C179.268 73.6877 170.688 68.0995 162.941 61.7501L172.619 61.5662L172.468 51.9521L182.915 49.1653L181.531 42.265L188.468 38.6591C194.736 44.6351 201.405 49.6096 207.302 52.1385C208.658 52.7197 209.147 54.4965 208.158 55.5909L203.177 61.1063C202.226 60.5068 201.1 60.1599 199.893 60.1599C196.489 60.1599 193.73 62.9195 193.73 66.3235C193.73 67.755 194.218 69.0725 195.036 70.1188Z" fill="#474E6D"/>
  <path fill-rule="evenodd" clip-rule="evenodd" d="M39.3175 69.7043L35.4043 61.5577C36.855 60.7971 38.0322 59.5066 38.6175 57.8392C39.8447 54.3434 38.0056 50.5147 34.5098 49.2876C32.8424 48.7023 31.0992 48.8145 29.5988 49.4715L26.6212 43.2725C25.9751 41.9275 26.9745 40.3448 28.4608 40.2123C37.7368 39.3851 51.1448 34.6615 61.6768 28.5594L62.7071 35.7793L68.3731 36.9909L66.2151 43.8647L74.9476 47.6692L72.4317 56.1093C60.4527 65.4804 50.1715 68.8406 41.5327 70.7858C40.6327 70.9885 39.7169 70.5358 39.3175 69.7043Z" fill="#474E6D"/>
</svg>
