<svg width="228" height="209" viewBox="0 0 228 209" fill="none" xmlns="http://www.w3.org/2000/svg">
  <path opacity="0.5" fill-rule="evenodd" clip-rule="evenodd" d="M140.216 0.380859H145.916V6.08085H140.216V0.380859ZM69.5401 6.08078H58.1401V17.4808H69.5401V6.08078ZM51.2993 7.22167H45.5993V12.9217H51.2993V7.22167ZM34.1995 12.9216H39.8995V24.3214H45.5994V30.0213H51.2993V41.4213H45.5994V47.1212H39.8994V41.4212H45.5993V30.0214H39.8994V24.3216H34.1996V30.0214H28.4996V24.3214H34.1995V12.9216ZM70.6801 30.0213H58.1401V35.7213H70.6801V30.0213ZM17.0998 35.719H29.6397V41.419H17.0998V35.719ZM22.7989 55.1005H15.9589V49.4006H10.2589V55.1005V55.1006V60.8005H22.7989V55.1005ZM209.76 64.2209H197.22V69.9208H209.76V64.2209ZM198.361 112.1H204.061V106.4H209.761V112.1L209.76 112.1V117.8H197.22V112.1L192.661 112.1V106.4H198.361V112.1ZM198.36 123.5H185.82V129.2H198.36V123.5ZM4.55903 140.602H11.399V152.002H4.55903V140.602ZM22.7997 163.401H28.4997L28.4996 169.101H34.1996L34.1995 174.799H46.7395V180.499H34.1995L34.1996 174.801L28.4997 174.801H22.7997V163.401ZM22.7997 157.701V152.002H18.2406V140.602L11.3998 140.602V134.902H29.6398V140.602L25.0806 140.602V152.001L35.3404 152.001L35.3405 146.302L41.0404 146.301V152.001L36.4797 152.001V157.701H41.0403L41.0404 152.001L46.7403 152.001V157.701L42.1796 157.701V163.401L47.8795 163.401V169.101L52.4402 169.101L52.4402 174.799H69.5399V169.101L75.2398 169.101L75.2399 174.801H69.5401V180.499H52.4402L52.4402 174.801H46.7402V169.101H34.1996L34.1995 163.401H28.4997L28.4996 157.701L22.7997 157.701ZM75.2399 163.401L75.2398 169.101H80.9398V163.401L75.2399 163.401ZM52.4402 152.001V157.701L47.8811 157.701V163.401L55.8583 163.401V169.101H69.5383V163.401L66.1211 163.401V157.701H69.5399V163.401H75.2399V157.701L80.9398 157.701V152.001H75.2398L75.2399 157.701L69.5401 157.701V152.001H52.4402ZM46.7403 146.302L52.4402 146.301L52.4402 152.001H46.7403V146.302ZM41.0404 140.602V146.301L46.7403 146.302V140.602L41.0404 140.602ZM35.3404 140.602L35.3405 146.302H29.6405V140.602L35.3404 140.602ZM35.3404 140.602H41.0404V134.902H35.3404V140.602ZM22.7997 157.701L18.2398 157.701V146.301H11.3998V157.701H17.0998V163.401L22.7997 163.401V157.701ZM52.4412 180.501H42.1812V186.201L51.2993 186.201V197.601H58.1393H63.84H69.5399V203.301L80.9398 203.301H86.6397L86.6397 209.001H92.3397V203.301H86.6397V191.901H92.3397V186.201L98.0396 186.201V193.039H92.3396V203.299H98.0396L98.0395 199.881H103.739V191.901H110.58L110.58 197.601H104.88V203.301L99.1804 203.301V209.001H140.22V204.439H158.456V198.739L169.861 198.739V193.039L181.26 193.04V187.34L193.801 187.34V181.64L199.501 181.64V175.942H204.061V170.242L209.761 170.242V164.542H204.061L204.061 170.242H198.361V175.94H181.261V181.64L175.561 181.64V187.34H164.161V181.64L175.56 181.64V175.94H164.161V170.242L151.621 170.242V164.542H145.921V170.242H151.621V175.94H145.921V181.64H151.621L151.621 187.34L163.02 187.34V193.04L151.621 193.039V198.739H141.361V193.04H145.916L151.619 193.04V187.34H145.916V181.64H140.216V193.039H128.821V198.739L140.216 198.739V203.301L128.82 203.301V197.601H116.28L116.28 191.901H116.28V186.201L121.98 186.201L121.98 191.901H127.68V186.201L133.38 186.201V180.501H127.68L127.68 186.201L121.98 186.201V180.501H121.979V175.94H103.739V181.64H116.28V186.201L110.58 186.201H103.739H99.1804L98.0396 186.201V180.501H92.3396L92.3397 186.201H86.6397V191.901H80.9398V186.201L75.2399 186.201V180.501H69.5399V186.201H63.8401V180.501H58.1401V186.201H63.8401L63.84 191.901H58.1393V186.201L52.4412 186.201V180.501ZM75.2399 186.201L75.2398 191.901H80.9398L80.9398 197.601H70.68V186.201L75.2399 186.201ZM151.621 181.64H163.02V175.942H151.621L151.621 181.64ZM86.6397 169.101H99.1797V174.801H86.6397L86.6397 186.199H80.9398V174.799H86.6397L86.6397 169.101ZM99.1804 158.84L92.3396 158.84V164.54H104.88V158.84L104.88 158.84V153.14H99.1804V158.84ZM110.58 199.881L110.58 203.301H116.28L116.28 199.881H110.58ZM185.82 164.542H198.36V170.242H185.82V164.542ZM0 83.6003H5.69992V89.3H0V100.7H5.69999V89.3001H18.2399V83.6002H22.7997V77.9002H17.0998V83.6001H5.69999V72.2003H0V83.6003ZM22.7997 49.4006H35.3397V55.1006H22.7997V49.4006ZM193.801 134.902H181.261V140.602L175.561 140.602V146.302L169.861 146.301L169.861 140.602H164.161V146.302L169.861 146.301V152.001H175.561L175.561 146.302H181.261L181.261 140.602H193.801V134.902ZM163.02 129.199H175.56V134.899H163.02V129.199ZM117.42 134.902H104.88V140.602H117.42V134.902ZM228.001 123.5L221.161 123.5V117.8H215.461V123.5V129.2H228.001V123.5ZM47.8795 129.2L53.5802 129.199V140.599H46.7402V129.199H35.3388V134.899H21.6588V129.199L4.55903 129.2V123.5H11.3998V117.8H0V112.1V112.1V106.4H11.3998V100.702H22.7997V95.0022H28.4997V100.702H46.7396V106.402H28.4997V112.1H22.7997V117.8H17.0998V123.5H22.799V129.2H34.1995V123.5H29.6405V117.8H35.3404V112.1H41.0404V117.8H35.3405V123.5H42.1812V117.8H46.7402V112.1H52.4402V106.4H58.1402V112.1H52.4402V117.8H47.8812V123.5H47.8795V129.2ZM28.4996 100.702V106.4H22.7998V100.702H28.4996ZM18.24 106.402H22.7997V112.1H18.24V106.402ZM17.0998 117.8H11.4V112.1H17.0998V117.8ZM63.8401 117.8H58.1401V129.2H63.8401L63.84 134.899H69.54V129.199H63.84L63.8401 117.8ZM204.061 129.199H198.361V140.599H204.061V129.199ZM192.661 88.1614H198.361V99.5614H192.661V88.1614ZM145.916 83.6001H140.216V95.0001H145.916V83.6001ZM151.621 83.6001H157.321V95.0001H151.621V83.6001ZM192.661 147.44H198.361V164.54H192.661V147.44ZM215.456 123.5H209.756V146.301H204.061V152.001H209.761V147.44H215.456V123.5ZM60.4202 95.0022H46.7402V100.702H60.4202V95.0022ZM79.7989 93.8613H93.4788V99.5613H79.7989V93.8613ZM93.4788 76.7616H79.7989V82.4616H93.4788V76.7616ZM115.139 99.5613H128.819V105.261H115.139V99.5613ZM69.5401 146.302V140.602H58.1401V146.302H69.5401ZM93.4806 123.5H99.1805V117.8H93.4805V123.5H82.0806V129.2H93.4806V123.5ZM34.1996 89.3001H39.8995V83.6001H34.1995V89.3H28.4996V95H34.1996V89.3001ZM75.2398 140.602H80.9398V146.302H75.2398V140.602ZM69.5399 117.8H75.2398V112.1H69.5399V106.4H75.2399V112.1H80.9398V106.4H86.6397V112.1H80.9398V117.8H75.2399V123.5H69.5399V117.8ZM87.7806 134.902H93.4805V140.602H87.7806V134.902ZM110.58 153.14H116.28V158.84H110.58V153.14ZM121.98 164.542H116.28V170.242H121.98V164.542ZM127.68 147.44H133.38V153.14H127.68V147.44ZM145.916 147.44H140.216V153.14H145.916V147.44ZM145.921 154.281H151.621V159.981H145.921V154.281ZM168.72 158.84H163.02V164.54H168.72V158.84ZM174.42 164.542H180.12V170.242H174.42V164.542ZM185.82 153.14H180.12V158.84H185.82V153.14ZM157.321 129.199H151.621V134.899H157.321V129.199ZM163.02 117.8H168.72V123.5H163.02V117.8ZM185.82 112.1H180.12V117.8H185.82V112.1ZM17.0998 66.5004H11.3998V72.2004H17.0998V66.5004ZM28.4997 66.5004H22.7997V72.2004H28.4997V66.5004ZM34.1995 35.719H39.8995V41.419H34.1995V35.719ZM52.4402 18.6215H58.1402V24.3215H52.4402V18.6215ZM63.84 47.1211H69.54V52.8211H63.84V47.1211ZM58.1402 58.5209H52.4402V64.2209H58.1402V58.5209ZM58.1401 69.9208H63.8401V75.6208H58.1401V69.9208ZM52.4402 82.4615H46.7402V88.1615H52.4402V82.4615ZM69.5399 69.9208H75.2399V75.6208H69.5399V69.9208ZM75.2399 93.8613H69.5399V99.5613H75.2399V93.8613ZM99.1805 99.5613H104.88V93.8613H99.1804V99.5613H93.4805V105.261H99.1805V99.5613ZM104.88 82.4615H110.58V88.1615H104.88V82.4615ZM127.68 88.1614H121.98V93.8614H127.68V88.1614ZM121.98 76.7616H127.68V82.4616H121.98V76.7616ZM116.28 71.0617H110.58V76.7617H116.28V71.0617ZM104.88 58.5209H110.58V64.2209H104.88V58.5209ZM98.0396 35.719H92.3396V41.419H98.0396V35.719ZM86.6397 42.5598H92.3397V48.2598H86.6397V42.5598ZM86.6397 35.719H80.9398V41.419H86.6397V35.719ZM76.3807 18.6215H82.0807V24.3215H76.3807V18.6215ZM93.4805 24.3214H87.7806V30.0214H93.4805V24.3214ZM99.1804 11.7807H104.88V17.4807H99.1804V11.7807ZM116.28 6.08078H110.58V11.7808H116.28V6.08078ZM163.02 0.380859H157.32V6.08085H163.02V0.380859ZM168.72 11.7807H174.42V17.4807H168.72V11.7807ZM181.261 24.3214H175.561V30.0214H181.261V24.3214ZM204.061 30.0213H209.761V35.7213H204.061V30.0213ZM215.456 47.1211H209.756V52.8211H215.456V47.1211ZM215.461 52.821H221.161V58.521H215.461V52.821ZM226.86 82.4615H221.16V88.1615L215.461 88.1614V93.8614H221.161L221.16 88.1615H226.86V82.4615ZM228.001 99.5613H222.301V105.261H228.001V99.5613ZM221.935 135.762H227.635V141.462H221.935V135.762ZM209.761 93.8613H204.061V99.5613H209.761V93.8613ZM204.061 82.4615H209.761V88.1615H204.061V82.4615ZM204.061 76.7616L204.061 82.4615L198.361 82.4616V76.7616H204.061ZM186.961 76.7616H192.661V82.4616H186.961V76.7616ZM186.961 88.1614H181.261V93.8614L175.561 93.8613V99.5613L169.861 99.5613V105.261H175.561L175.561 99.5613H181.261L181.261 93.8614H186.961V88.1614ZM163.02 76.7616H157.32L157.321 71.0617H151.621V76.7617L157.32 76.7616V82.4616H163.02V76.7616ZM139.08 71.0617H133.38V76.7617H139.08V71.0617ZM140.216 58.5209H145.916V64.2209H140.216V58.5209ZM151.621 48.2597H145.921V53.9597H151.621V48.2597ZM128.821 52.821H134.521V58.521H128.821V52.821ZM128.821 30.0213H123.121V35.7213H128.821V30.0213ZM174.42 58.5209H180.12V64.2209H174.42V58.5209ZM180.12 69.9208L180.12 64.2209L185.82 64.2209V69.9208H180.12ZM169.861 71.0617H175.561V76.7617H169.861V71.0617ZM174.42 83.6001H168.72V89.3001H174.42V83.6001ZM145.916 99.5613H140.216V105.261H145.916V99.5613ZM151.621 99.5613H163.021V105.261H151.621V99.5613ZM116.28 41.4212H104.88V47.1212H116.28V41.4212ZM39.8995 66.5004H34.1995V72.2004H39.8995V66.5004ZM110.58 117.8H116.28V123.5H110.58V129.2H104.88V123.5H110.58V117.8ZM140.221 117.8H134.521V123.5L128.821 123.5V129.2H134.521L134.521 123.5H140.221V117.8ZM145.921 134.902H151.621V140.602H145.921V134.902ZM140.22 164.542H127.68V177.082H140.22V164.542Z" fill="#DFFE00"/>
</svg>
