<svg width="44" height="206" viewBox="0 0 44 206" fill="none" xmlns="http://www.w3.org/2000/svg" xmlns:xlink="http://www.w3.org/1999/xlink">
<path d="M15.9459 3.25189C15.9459 3.25189 16.1622 -8.71894e-09 22 0C27.8378 8.71894e-09 28.4865 3.25189 28.4865 3.25189L30 39H14L15.9459 3.25189Z" fill="url(#paint0_linear_10869_6420)"/>
<path d="M9.01351 38.7895C9.01351 38.7895 9.45946 34 21.5 34C33.5405 34 34.8784 38.7895 34.8784 38.7895L38 73H5L9.01351 38.7895Z" fill="url(#paint1_linear_10869_6420)"/>
<rect x="13" y="136" width="17" height="70" fill="url(#paint2_linear_10869_6420)"/>
<path d="M7.5 134.185C7.5 134.185 8 141.185 21.5 141.185C35 141.185 36.5 134.185 36.5 134.185L40 84.1846H3L7.5 134.185Z" fill="url(#paint3_linear_10869_6420)"/>
<path d="M14 140C14 140 15 141.185 21.5 141.185C28 141.185 29.5 140 29.5 140L31 101.815L37.5 96L40 84.1846H3L5.5 95.8154L12.5 101.815L14 140Z" fill="url(#paint4_linear_10869_6420)"/>
<circle cx="22" cy="77.1846" r="21" fill="black" stroke="url(#paint5_linear_10869_6420)" stroke-width="2"/>
<rect x="7" y="62.1846" width="30" height="30" fill="url(#pattern0_10869_6420)"/>
<rect x="7" y="62.1846" width="30" height="30" fill="url(#pattern1_10869_6420)"/>
<defs>
<pattern id="pattern0_10869_6420" patternContentUnits="objectBoundingBox" width="1" height="1">
<use xlink:href="#image0_10869_6420" transform="scale(0.00416667)"/>
</pattern>
<pattern id="pattern1_10869_6420" patternContentUnits="objectBoundingBox" width="1" height="1">
<use xlink:href="#image1_10869_6420" transform="scale(0.000976562)"/>
</pattern>
<linearGradient id="paint0_linear_10869_6420" x1="22" y1="0" x2="22" y2="38.9998" gradientUnits="userSpaceOnUse">
<stop stop-color="#0E101C"/>
<stop offset="1" stop-color="#565A74"/>
</linearGradient>
<linearGradient id="paint1_linear_10869_6420" x1="21.5" y1="34" x2="21.5" y2="73" gradientUnits="userSpaceOnUse">
<stop stop-color="#979ABE"/>
<stop offset="1" stop-color="#464758"/>
</linearGradient>
<linearGradient id="paint2_linear_10869_6420" x1="21.5" y1="136" x2="21.5" y2="206" gradientUnits="userSpaceOnUse">
<stop stop-color="#1C1D2A"/>
<stop offset="1" stop-color="#262836"/>
</linearGradient>
<linearGradient id="paint3_linear_10869_6420" x1="21.5" y1="84.1846" x2="21.5" y2="141.185" gradientUnits="userSpaceOnUse">
<stop stop-color="#43455C"/>
<stop offset="1" stop-color="#2E2F43"/>
</linearGradient>
<linearGradient id="paint4_linear_10869_6420" x1="21.5" y1="141.185" x2="21.5" y2="84.1846" gradientUnits="userSpaceOnUse">
<stop stop-color="#464758"/>
<stop offset="1" stop-color="#555775"/>
</linearGradient>
<linearGradient id="paint5_linear_10869_6420" x1="22" y1="57.1846" x2="22" y2="97.1846" gradientUnits="userSpaceOnUse">
<stop stop-color="#979ABE"/>
<stop offset="1" stop-color="#464758"/>
</linearGradient>
</defs>
</svg>
