<svg width="13" height="13" viewBox="0 0 13 13" fill="none" xmlns="http://www.w3.org/2000/svg">
<circle cx="6.5" cy="6.5" r="6" stroke="#979ABE"/>
<path d="M5.82 10V4.66H7.07V10H5.82ZM6.45 3.78C6.21667 3.78 6.02333 3.70667 5.87 3.56C5.72333 3.41333 5.65 3.23667 5.65 3.03C5.65 2.81667 5.72333 2.64 5.87 2.5C6.02333 2.35333 6.21667 2.28 6.45 2.28C6.68333 2.28 6.87333 2.35 7.02 2.49C7.17333 2.62333 7.25 2.79333 7.25 3C7.25 3.22 7.17667 3.40667 7.03 3.56C6.88333 3.70667 6.69 3.78 6.45 3.78Z" fill="#979ABE"/>
</svg>
