<svg width="148" height="108" viewBox="0 0 148 108" fill="none" xmlns="http://www.w3.org/2000/svg">
<path d="M128.728 16.1719H118.378V80.2127H114.497V95.7377H109.322V103.5H143.606V84.094H139.725V63.3939H136.49V42.6939H132.609V21.9938H128.728V16.1719Z" fill="#845132"/>
<path d="M43.9872 7.7625V11.6438V15.525H68.5685H120.319V3.88124H47.8685V7.7625H43.9872Z" fill="#C7AC5D"/>
<path fill-rule="evenodd" clip-rule="evenodd" d="M47.868 0H77.6243V3.88126H47.868V0ZM43.9865 3.8813H47.8677V7.76256H43.9865V3.8813ZM40.105 7.7626H43.9862V14.2314H40.105V7.7626ZM81.5053 3.8813H77.624V7.76256H81.5053V3.8813ZM53.0423 3.8813H56.9235V7.76256H53.0423V3.8813ZM68.568 3.8813H64.6867V7.76256H68.568V3.8813ZM49.1608 7.7626H53.042V16.8189H49.1608V7.7626ZM64.6865 7.7626H60.8052V16.8189H64.6865V7.7626ZM73.7425 7.7626H77.6238V16.8189H73.7425V7.7626ZM91.8554 7.7626H87.9742V16.8189H91.8554V7.7626ZM103.499 7.7626H107.38V16.8189H103.499V7.7626ZM95.7369 3.8813H91.8556V7.76256H95.7369V3.8813ZM107.38 3.8813H111.261V7.76256H107.38V3.8813ZM124.199 3.8813H120.317V12.9376H124.199V3.8813ZM91.8555 0H81.5055V3.88126H91.8555V0ZM95.7371 0H107.381V3.88126H95.7371V0ZM120.318 0H111.262V3.88126H120.318V0Z" fill="black"/>
<rect width="11.6438" height="3.88126" transform="matrix(1 0 0 -1 119.025 16.8187)" fill="black"/>
<rect width="3.88126" height="9.05627" transform="matrix(1 0 0 -1 128.081 21.9938)" fill="black"/>
<rect width="3.88126" height="20.7" transform="matrix(1 0 0 -1 131.963 42.6939)" fill="black"/>
<rect width="3.88126" height="20.7" transform="matrix(1 0 0 -1 135.844 63.3938)" fill="black"/>
<rect width="3.88126" height="20.7" transform="matrix(1 0 0 -1 139.726 84.0938)" fill="black"/>
<rect width="3.88126" height="19.4063" transform="matrix(1 0 0 -1 143.606 103.5)" fill="black"/>
<rect width="36.2251" height="3.88126" transform="matrix(1 0 0 -1 107.381 107.381)" fill="black"/>
<path d="M76.3326 28.4626H49.1638V32.3438H45.2825V40.1063H41.4013V49.1626H38.8138V71.1564H34.9325V84.0939H31.0512V99.619H27.17V103.5H107.383V95.7377H111.264V80.2127H115.145V62.1001H119.026V43.9876H122.908V32.3438H76.3326V28.4626Z" fill="#F3F1DC"/>
<rect x="45.2831" y="23.2877" width="31.0501" height="5.17501" fill="black"/>
<rect x="45.2831" y="27.1688" width="3.88126" height="5.17501" fill="black"/>
<rect x="41.4016" y="31.0501" width="3.88126" height="9.05627" fill="black"/>
<rect x="37.5201" y="40.1065" width="3.88126" height="9.05627" fill="black"/>
<rect x="34.933" y="49.1626" width="3.88126" height="21.9938" fill="black"/>
<rect x="31.0515" y="71.1565" width="3.88126" height="12.9375" fill="black"/>
<path d="M27.17 84.0939H31.0512V99.619H27.17V84.0939Z" fill="black"/>
<rect x="107.382" y="95.7378" width="3.88126" height="7.76252" fill="black"/>
<rect x="111.264" y="80.2128" width="3.88126" height="15.525" fill="black"/>
<rect x="115.145" y="62.1003" width="3.88126" height="18.1125" fill="black"/>
<rect x="119.027" y="43.9877" width="3.88126" height="18.1125" fill="black"/>
<rect x="122.908" y="27.1688" width="3.88126" height="16.8188" fill="black"/>
<rect x="23.2885" y="99.619" width="3.88126" height="3.88126" fill="black"/>
<rect x="27.17" y="103.5" width="80.2127" height="3.88126" fill="black"/>
<rect x="76.332" y="27.1688" width="47.8689" height="5.17501" fill="black"/>
<path d="M75.038 20.6998H47.8692V24.5811H43.9879V32.3436H40.1067V41.3999H37.5192V49.1624H33.6379V55.6312H29.7566V64.6874H25.8754V72.45H21.9941V76.3312H18.1129V80.2125H14.2316V84.0937H10.3503V87.975H51.7504V91.8563H71.1567V95.7375H90.563V87.975H94.4443V80.2125H98.3255V72.45H102.207V63.3937H106.088V54.3374H109.969V45.2811H113.851V36.2249H117.732V27.1686H121.613V24.5811H75.038V20.6998Z" fill="#F3F1DC"/>
<rect x="43.9879" y="15.5248" width="31.0501" height="5.17501" fill="black"/>
<rect x="43.9879" y="19.4061" width="3.88126" height="5.17501" fill="black"/>
<rect x="40.1064" y="23.2874" width="3.88126" height="9.05627" fill="black"/>
<rect x="36.2249" y="32.3436" width="3.88126" height="9.05627" fill="black"/>
<rect x="33.6378" y="40.1062" width="3.88126" height="9.05627" fill="black"/>
<rect x="29.7563" y="49.1623" width="3.88126" height="6.46876" fill="black"/>
<rect x="25.8748" y="55.6312" width="3.88126" height="9.05627" fill="black"/>
<rect x="21.9933" y="64.6873" width="3.88126" height="7.76252" fill="black"/>
<rect x="18.1133" y="72.4499" width="3.88126" height="3.88126" fill="black"/>
<rect x="14.2319" y="76.3312" width="3.88126" height="3.88126" fill="black"/>
<rect x="10.3503" y="80.2125" width="3.88126" height="3.88126" fill="black"/>
<rect x="94.4442" y="80.2125" width="3.88126" height="7.76252" fill="black"/>
<rect x="90.5627" y="87.975" width="3.88126" height="7.76252" fill="black"/>
<rect x="98.3257" y="72.4499" width="3.88126" height="7.76252" fill="black"/>
<rect x="102.207" y="63.3936" width="3.88126" height="9.05627" fill="black"/>
<rect x="106.089" y="54.3374" width="3.88126" height="9.05627" fill="black"/>
<rect x="109.969" y="45.281" width="3.88126" height="9.05627" fill="black"/>
<rect x="113.85" y="36.2249" width="3.88126" height="9.05627" fill="black"/>
<rect x="117.732" y="27.1685" width="3.88126" height="9.05627" fill="black"/>
<rect x="121.613" y="19.4061" width="3.88126" height="9.05627" fill="black"/>
<rect x="6.46887" y="84.0937" width="3.88126" height="3.88126" fill="black"/>
<rect x="6.46887" y="87.975" width="45.2813" height="3.88126" fill="black"/>
<rect x="51.7509" y="91.8562" width="19.4063" height="3.88126" fill="black"/>
<rect x="71.1568" y="95.7375" width="19.4063" height="3.88126" fill="black"/>
<rect x="75.0383" y="19.4061" width="47.8689" height="5.17501" fill="black"/>
<path d="M68.5691 16.8187H41.4003V20.6999H37.519V28.4625H33.6378V37.5187H31.0503V45.2812H27.169V51.75H23.2878V55.6313H19.4065V59.5125H15.5252V63.3938H11.644V67.275H7.76273V71.1563H3.88147V76.3313H45.2816V80.2126H64.6879V84.0938H80.2129V80.2126H84.0942V76.3313H87.9754V72.4501H91.8567V68.5688H95.7379V59.5125H99.6192V50.4563H103.5V41.4H107.382V32.3437H111.263V23.2874H115.144V20.6999H68.5691V16.8187Z" fill="#F3F1DC"/>
<rect x="37.519" y="11.6436" width="31.0501" height="5.17501" fill="black"/>
<rect x="37.519" y="15.5249" width="3.88126" height="5.17501" fill="black"/>
<rect x="33.6376" y="19.4062" width="3.88126" height="9.05627" fill="black"/>
<rect x="29.756" y="28.4624" width="3.88126" height="9.05627" fill="black"/>
<rect x="27.1689" y="36.225" width="3.88126" height="9.05627" fill="black"/>
<rect x="23.2874" y="45.2812" width="3.88126" height="6.46876" fill="black"/>
<rect x="19.4059" y="51.75" width="3.88126" height="3.88126" fill="black"/>
<rect x="15.5245" y="55.6313" width="3.88126" height="3.88126" fill="black"/>
<rect x="11.6445" y="59.5126" width="3.88126" height="3.88126" fill="black"/>
<rect x="7.763" y="63.3937" width="3.88126" height="3.88126" fill="black"/>
<rect x="3.88147" y="67.275" width="3.88126" height="3.88126" fill="black"/>
<rect x="84.0939" y="76.3314" width="3.88126" height="3.88126" fill="black"/>
<rect x="87.9753" y="72.4501" width="3.88126" height="3.88126" fill="black"/>
<rect x="91.8569" y="68.5688" width="3.88126" height="3.88126" fill="black"/>
<rect x="95.7383" y="59.5126" width="3.88126" height="9.05627" fill="black"/>
<rect x="99.6183" y="50.4562" width="3.88126" height="9.05627" fill="black"/>
<rect x="103.5" y="41.4001" width="3.88126" height="9.05627" fill="black"/>
<rect x="107.381" y="32.3437" width="3.88126" height="9.05627" fill="black"/>
<rect x="111.263" y="23.2875" width="3.88126" height="9.05627" fill="black"/>
<rect x="115.144" y="15.5249" width="3.88126" height="9.05627" fill="black"/>
<rect y="71.1563" width="3.88126" height="9.05627" fill="black"/>
<rect x="80.2124" y="80.2127" width="3.88126" height="7.76252" fill="black"/>
<rect y="76.3314" width="45.2813" height="3.88126" fill="black"/>
<rect x="45.282" y="80.2127" width="19.4063" height="3.88126" fill="black"/>
<rect x="64.6879" y="84.0938" width="19.4063" height="3.88126" fill="black"/>
<rect x="68.5695" y="15.5249" width="47.8689" height="5.17501" fill="black"/>
</svg>
