<svg width="29" height="27" viewBox="0 0 29 27" fill="none" xmlns="http://www.w3.org/2000/svg">
<path d="M11.509 26.6666L-0.000120871 15.7779V10.8891L11.509 0.000341098H16.6764L28.1855 10.8891V15.7779L16.6764 26.6666H11.509Z" fill="#F4DC27"/>
<path d="M23.4879 12.7305L14.7302 4.44481L16.6764 0.000428155L28.1855 10.8892L23.4879 12.7305Z" fill="#ED9B0D"/>
<path d="M11.5089 26.6666L-0.000289761 15.7779L4.69732 13.9366L13.4551 22.2222L11.5089 26.6666Z" fill="#F1B600"/>
<path d="M16.6758 26.6666L14.73 22.2222H13.4546L11.5084 26.6666H16.6758Z" fill="#F1F50E"/>
<path d="M16.6758 0.000931157L14.7296 4.44531H13.4551L11.5084 0.000931157H16.6758Z" fill="#EDC102"/>
<path d="M4.69727 12.7303V13.936L-0.000345666 15.7773V10.8885L4.69727 12.7303Z" fill="#F6CA18"/>
<path d="M23.4879 12.7298L28.1855 10.8885V15.7773L23.4879 13.9365V12.7298Z" fill="#F1B600"/>
<path d="M11.5089 -1.39742e-05L13.4551 4.44437L4.69732 12.7305L-0.000289761 10.8887L11.5089 -1.39742e-05Z" fill="#EFB000"/>
<path d="M23.4879 13.9366L28.1855 15.7779L16.6764 26.6666L14.7302 22.2222L23.4879 13.9366Z" fill="#F0CC00"/>
</svg>
