<svg width="988" height="706" viewBox="0 0 988 706" fill="none" xmlns="http://www.w3.org/2000/svg">
<path d="M13.0464 2.00008L11.0464 2.00008V4.00008V6.51772H8.52363H6.52363V8.51772V11.5836H4.00086H2.00086L2.00086 13.5836L2 692.9L2 694.9H4H5.93982V696.966V698.966H7.93982H9.94451L9.94502 702L9.94536 704H11.945L974.99 704H976.99V702V700H979.495H981.495V698V695.416H984H986V693.416V13.5835V11.5835H984H981.495V8.51764V6.51764H979.495H976.99V4V2L974.99 2L13.0464 2.00008Z" fill="white" stroke="black" stroke-width="4"/>
<path d="M974.989 4L13.0455 4.00008V8.51772H8.52277V13.5836H4V65.531L983.999 65.5309L984 13.5835H979.494V8.51764H974.989V4Z" fill="#D9D9D9"/>
</svg>
