<svg width="33" height="33" viewBox="0 0 33 33" fill="none" xmlns="http://www.w3.org/2000/svg">
<path d="M2.00232 17.9154L2.00232 17.9154L5.25153 21.1593L5.24777 25.7506C5.24687 26.8564 6.14356 27.7531 7.24941 27.7522L11.8407 27.7485L15.0846 30.9977C15.8659 31.7803 17.1341 31.7803 17.9154 30.9977L21.1593 27.7485L25.7506 27.7522C26.8564 27.7531 27.7531 26.8564 27.7522 25.7506L27.7485 21.1593L30.9977 17.9154C31.7803 17.1341 31.7803 15.8659 30.9977 15.0846L27.7485 11.8407L27.7522 7.24941C27.7531 6.14356 26.8564 5.24687 25.7506 5.24777L21.1593 5.25153L17.9154 2.00232C17.1341 1.21972 15.8659 1.21972 15.0846 2.00232L15.0846 2.00232L11.8407 5.25153L7.24941 5.24777C6.14356 5.24687 5.24687 6.14356 5.24777 7.24941L5.25153 11.8407L2.00232 15.0846L2.00232 15.0846C1.21972 15.8659 1.21972 17.1341 2.00232 17.9154Z" fill="#F6B350" stroke="black" stroke-width="2"/>
<path d="M17.0054 21.2143H18.3983V22.6071H17.0054V21.2143ZM17.0054 22.6071H18.3983V24H17.0054V22.6071ZM15.6126 22.6071H17.0054V24H15.6126V22.6071ZM15.6126 21.2143H17.0054V22.6071H15.6126V21.2143ZM15.6126 19.8214H17.0054V21.2143H15.6126V19.8214ZM15.6126 18.4286H17.0054V19.8214H15.6126V18.4286ZM15.6126 17.0357H17.0054V18.4286H15.6126V17.0357ZM15.6126 15.6429H17.0054V17.0357H15.6126V15.6429ZM15.6126 14.25H17.0054V15.6429H15.6126V14.25ZM15.6126 12.8571H17.0054V14.25H15.6126V12.8571ZM17.0054 14.25H18.3983V15.6429H17.0054V14.25ZM17.0054 15.6429H18.3983V17.0357H17.0054V15.6429ZM17.0054 17.0357H18.3983V18.4286H17.0054V17.0357ZM17.0054 18.4286H18.3983V19.8214H17.0054V18.4286ZM17.0054 19.8214H18.3983V21.2143H17.0054V19.8214ZM17.0054 12.8571H18.3983V14.25H17.0054V12.8571ZM17.0054 11.4643H18.3983V12.8571H17.0054V11.4643ZM15.6126 10.0714H17.0054V11.4643H15.6126V10.0714ZM17.0054 10.0714H18.3983V11.4643H17.0054V10.0714ZM15.6126 11.4643H17.0054V12.8571H15.6126V11.4643ZM14.2197 10.0714H15.6126V11.4643H14.2197V10.0714ZM14.2197 11.4643H15.6126V12.8571H14.2197V11.4643Z" fill="black"/>
</svg>
