<svg width="33" height="33" viewBox="0 0 33 33" fill="none" xmlns="http://www.w3.org/2000/svg">
<path d="M2.00232 17.9154L2.00232 17.9154L5.25153 21.1593L5.24777 25.7506C5.24687 26.8564 6.14356 27.7531 7.24941 27.7522L11.8407 27.7485L15.0846 30.9977C15.8659 31.7803 17.1341 31.7803 17.9154 30.9977L21.1593 27.7485L25.7506 27.7522C26.8564 27.7531 27.7531 26.8564 27.7522 25.7506L27.7485 21.1593L30.9977 17.9154C31.7803 17.1341 31.7803 15.8659 30.9977 15.0846L27.7485 11.8407L27.7522 7.24941C27.7531 6.14356 26.8564 5.24687 25.7506 5.24777L21.1593 5.25153L17.9154 2.00232C17.1341 1.21972 15.8659 1.21972 15.0846 2.00232L15.0846 2.00232L11.8407 5.25153L7.24941 5.24777C6.14356 5.24687 5.24687 6.14356 5.24777 7.24941L5.25153 11.8407L2.00232 15.0846L2.00232 15.0846C1.21972 15.8659 1.21972 17.1341 2.00232 17.9154Z" fill="#DBA782" stroke="black" stroke-width="2"/>
<path d="M11.4268 10.4643H12.8196V11.8571H11.4268V10.4643ZM12.8196 10.4643H14.2125V11.8571H12.8196V10.4643ZM12.8196 11.8571H14.2125V13.25H12.8196V11.8571ZM11.4268 11.8571H12.8196V13.25H11.4268V11.8571ZM12.8196 9.07143H14.2125V10.4643H12.8196V9.07143ZM14.2125 10.4643H15.6053V11.8571H14.2125V10.4643ZM15.6053 10.4643H16.9982V11.8571H15.6053V10.4643ZM16.9982 10.4643H18.391V11.8571H16.9982V10.4643ZM18.391 10.4643H19.7839V11.8571H18.391V10.4643ZM18.391 9.07143H19.7839V10.4643H18.391V9.07143ZM16.9982 9.07143H18.391V10.4643H16.9982V9.07143ZM15.6053 9.07143H16.9982V10.4643H15.6053V9.07143ZM14.2125 9.07143H15.6053V10.4643H14.2125V9.07143ZM19.7839 10.4643H21.1768V11.8571H19.7839V10.4643ZM19.7839 11.8571H21.1768V13.25H19.7839V11.8571ZM19.7839 13.25H21.1768V14.6429H19.7839V13.25ZM18.391 13.25H19.7839V14.6429H18.391V13.25ZM18.391 11.8571H19.7839V13.25H18.391V11.8571ZM18.391 14.6429H19.7839V16.0357H18.391V14.6429ZM16.9982 14.6429H18.391V16.0357H16.9982V14.6429ZM15.6053 14.6429H16.9982V16.0357H15.6053V14.6429ZM14.2125 14.6429H15.6053V16.0357H14.2125V14.6429ZM14.2125 16.0357H15.6053V17.4286H14.2125V16.0357ZM15.6053 16.0357H16.9982V17.4286H15.6053V16.0357ZM16.9982 16.0357H18.391V17.4286H16.9982V16.0357ZM18.391 16.0357H19.7839V17.4286H18.391V16.0357ZM18.391 17.4286H19.7839V18.8214H18.391V17.4286ZM18.391 18.8214H19.7839V20.2143H18.391V18.8214ZM19.7839 18.8214H21.1768V20.2143H19.7839V18.8214ZM19.7839 17.4286H21.1768V18.8214H19.7839V17.4286ZM19.7839 20.2143H21.1768V21.6071H19.7839V20.2143ZM18.391 20.2143H19.7839V21.6071H18.391V20.2143ZM18.391 21.6071H19.7839V23H18.391V21.6071ZM16.9982 20.2143H18.391V21.6071H16.9982V20.2143ZM15.6053 20.2143H16.9982V21.6071H15.6053V20.2143ZM14.2125 21.6071H15.6053V23H14.2125V21.6071ZM12.8196 21.6071H14.2125V23H12.8196V21.6071ZM12.8196 20.2143H14.2125V21.6071H12.8196V20.2143ZM14.2125 20.2143H15.6053V21.6071H14.2125V20.2143ZM15.6053 21.6071H16.9982V23H15.6053V21.6071ZM16.9982 21.6071H18.391V23H16.9982V21.6071ZM12.8196 18.8214H14.2125V20.2143H12.8196V18.8214ZM11.4268 18.8214H12.8196V20.2143H11.4268V18.8214ZM11.4268 20.2143H12.8196V21.6071H11.4268V20.2143Z" fill="black"/>
</svg>
