<svg width="34" height="34" viewBox="0 0 34 34" fill="none" xmlns="http://www.w3.org/2000/svg">
<path d="M27.6066 27.6066C26.2137 28.9995 24.5601 30.1044 22.7403 30.8582C20.9204 31.612 18.9698 32 17 32C15.0302 32 13.0796 31.612 11.2597 30.8582C9.43987 30.1044 7.78628 28.9995 6.3934 27.6066C5.00052 26.2137 3.89563 24.5601 3.14181 22.7403C2.38799 20.9204 2 18.9698 2 17C2 13.0218 3.58035 9.20644 6.3934 6.3934M27.6066 27.6066C28.9995 26.2137 30.1044 24.5601 30.8582 22.7403C31.612 20.9204 32 18.9698 32 17C32 13.0218 30.4196 9.20644 27.6066 6.3934C24.7936 3.58035 20.9782 2 17 2C13.0218 2 9.20644 3.58035 6.3934 6.3934M27.6066 27.6066L6.3934 6.3934" stroke="black" stroke-width="3"/>
<path d="M25.8131 8.20598C25.848 8.32793 25.8657 8.45414 25.8656 8.58098V11.1992C25.8655 11.4953 25.769 11.7834 25.5906 12.0198C25.4122 12.2562 25.1617 12.4282 24.877 12.5096L18.3656 14.3696V22.4546C18.3657 23.6921 17.885 24.8812 17.0251 25.7711C16.1652 26.661 14.9933 27.1822 13.7565 27.2246L13.5929 27.2273C12.8437 27.2273 12.1051 27.0509 11.4368 26.7125C10.7684 26.374 10.1891 25.883 9.74579 25.2791C9.30244 24.6752 9.00748 23.9754 8.88477 23.2364C8.76206 22.4973 8.81505 21.7398 9.03945 21.025C9.26385 20.3102 9.65336 19.6583 10.1765 19.1221C10.6996 18.5858 11.3416 18.1801 12.0505 17.938C12.7595 17.6959 13.5155 17.6241 14.2574 17.7283C14.9992 17.8326 15.7061 18.1101 16.3209 18.5382L16.3202 10.1819H16.3645C16.4248 9.95299 16.5436 9.74373 16.7093 9.57469C16.875 9.40565 17.0819 9.28265 17.3095 9.2178L24.1277 7.26916C24.4754 7.16991 24.8483 7.21286 25.1644 7.38854C25.4805 7.56422 25.7138 7.85826 25.8131 8.20598Z" fill="black"/>
</svg>
