<svg width="29" height="27" viewBox="0 0 29 27" fill="none" xmlns="http://www.w3.org/2000/svg">
<path d="M11.998 12.8763C11.6002 12.8763 11.2188 13.0343 10.9375 13.3156L3.14562 21.1059C2.20053 22.0508 2.86974 23.6667 4.20617 23.6667L16.7169 23.6667C17.1147 23.6667 17.4961 23.5087 17.7774 23.2274L25.5693 15.4371C26.5144 14.4922 25.8452 12.8763 24.5087 12.8763L11.998 12.8763Z" fill="#EBF479" stroke="#16181D"/>
<path d="M11.998 3.432C11.6002 3.432 11.2188 3.59 10.9375 3.87124L3.14562 11.6616C2.20053 12.6065 2.86974 14.2223 4.20617 14.2223L16.7169 14.2223C17.1147 14.2223 17.4961 14.0643 17.7774 13.7831L25.5693 5.99277C26.5144 5.04786 25.8452 3.432 24.5087 3.432L11.998 3.432Z" fill="#EBF479" stroke="#16181D"/>
</svg>
