<svg width="200" height="200" viewBox="0 0 200 200" fill="none" xmlns="http://www.w3.org/2000/svg">
  <rect width="200" height="200" rx="30" fill="#F37326"/>
  <path fill-rule="evenodd" clip-rule="evenodd" d="M135.374 122.361V113.711C140.698 111.885 144.575 106.214 144.575 99.5025C144.575 92.7907 140.698 87.1041 135.374 85.294V76.644C140.388 74.93 144.127 69.7879 144.541 63.5728H138.441V66.2158C138.441 68.2502 137.201 70.0443 135.374 70.9413V69.7079C135.374 67.8978 133.789 66.4241 131.842 66.4241H131.532C129.585 66.4241 127.999 67.8978 127.999 69.7079V70.9413C126.173 70.0443 124.932 68.2662 124.932 66.2158V63.5728H118.833C119.246 69.7879 122.985 74.93 127.999 76.644V85.294C122.692 87.1041 118.798 92.7747 118.798 99.5025C118.798 106.23 122.675 111.901 127.999 113.711V122.361C122.985 124.075 119.246 129.217 118.833 135.432H124.932V132.789C124.932 130.755 126.173 128.96 127.999 128.064V129.297C127.999 131.107 129.585 132.581 131.532 132.581H131.842C133.789 132.581 135.374 131.107 135.374 129.297V128.064C137.201 128.96 138.441 130.739 138.441 132.789V135.432H144.541C144.127 129.217 140.388 124.075 135.374 122.361ZM124.932 103.283V95.7061C124.932 93.6717 126.173 91.8776 127.999 90.9806V92.214C127.999 94.0241 129.585 95.4978 131.532 95.4978H131.842C133.789 95.4978 135.374 94.0241 135.374 92.214V90.9806C137.201 91.8776 138.441 93.6557 138.441 95.7061V103.283C138.441 105.317 137.201 107.111 135.374 108.008V106.775C135.374 104.965 133.789 103.491 131.842 103.491H131.532C129.585 103.491 127.999 104.965 127.999 106.775V108.008C126.19 107.111 124.932 105.333 124.932 103.283ZM172.799 104.1V94.8891C178.123 93.063 182 87.3924 182 80.6806C182 73.9688 178.123 68.2822 172.799 66.4721V63.5728H165.441V66.4721C160.117 68.2982 156.24 73.9688 156.24 80.6806C156.24 87.3924 160.117 93.079 165.441 94.8891V104.1C160.117 105.926 156.24 111.597 156.24 118.308C156.24 125.02 160.117 130.707 165.441 132.517V135.416H172.799V132.517C178.123 130.691 182 125.02 182 118.308C182 111.597 178.123 105.926 172.799 104.1ZM162.357 84.461V76.8842C162.357 74.8498 163.598 73.0558 165.424 72.1587V73.3921C165.424 75.2023 167.01 76.676 168.957 76.676H169.249C171.196 76.676 172.781 75.2023 172.781 73.3921V72.1587C174.608 73.0558 175.849 74.8338 175.849 76.8842V84.461C175.849 86.4954 174.608 88.2895 172.781 89.1865V87.9531C172.781 86.143 171.196 84.6692 169.249 84.6692H168.939C166.992 84.6692 165.407 86.143 165.407 87.9531V89.1865C163.615 88.2895 162.357 86.5114 162.357 84.461ZM175.866 122.105C175.866 124.139 174.625 125.933 172.799 126.83V125.02C172.799 123.21 171.214 121.736 169.267 121.736H168.974C167.027 121.736 165.441 123.21 165.441 125.02V126.83C163.615 125.933 162.374 124.155 162.374 122.105V114.528C162.374 112.494 163.615 110.7 165.441 109.802V110.459C165.441 112.269 167.027 113.743 168.974 113.743H169.284C171.231 113.743 172.816 112.269 172.816 110.459V109.802C174.643 110.7 175.883 112.478 175.883 114.528V122.105H175.866ZM92.9188 91.1094C93.0566 91.4458 93.1428 91.7982 93.2118 92.1666C93.6676 94.7103 95.1958 96.5508 96.8597 98.5547C99.3452 101.548 102.133 104.906 102.102 111.517C102.102 122.778 93.9522 131.652 77.3078 131.652H70.4845C70.4673 131.7 67.6587 135.401 61.8864 135.401C58.9918 135.497 57.7339 135.369 57.7339 135.369C52.4978 135.169 49.859 131.931 49.6338 131.655C49.6248 131.644 49.6196 131.638 49.6183 131.636H42.795C26.1503 131.636 18.0002 122.762 18.0002 111.501C18.0002 104.887 20.7953 101.531 23.284 98.543C24.9541 96.5377 26.4862 94.6981 26.9429 92.1506C27.0118 91.7982 27.1152 91.4458 27.2358 91.0934C27.1841 91.0293 15.7603 76.1961 26.3399 67.0334C36.8232 57.9541 49.0492 69.6052 49.3377 69.8801C49.3403 69.8826 49.342 69.8842 49.3426 69.8847C51.2897 69.3241 53.254 68.9717 55.201 68.8115C55.201 68.8115 60.8526 68.1868 64.8846 68.8115H64.9018C66.8661 68.9717 68.8476 69.3241 70.8119 69.9008C70.8125 69.9002 70.8141 69.8987 70.8167 69.8962C71.1022 69.6241 83.3302 57.969 93.815 67.0495C104.188 76.0188 93.4433 90.4068 92.9369 91.0849C92.926 91.0995 92.9199 91.1077 92.9188 91.1094Z" fill="black"/>
</svg>
