<svg width="164" height="73" viewBox="0 0 164 73" fill="none" xmlns="http://www.w3.org/2000/svg">
  <path fill-rule="evenodd" clip-rule="evenodd" d="M117.374 59.361V50.711C122.698 48.8849 126.575 43.2143 126.575 36.5025C126.575 29.7907 122.698 24.1041 117.374 22.294V13.644C122.388 11.93 126.127 6.78795 126.541 0.572754H120.441V3.21583C120.441 5.25019 119.201 7.04425 117.374 7.94132V6.70788C117.374 4.89778 115.789 3.42406 113.842 3.42406H113.532C111.585 3.42406 109.999 4.89778 109.999 6.70788V7.94132C108.173 7.04425 106.932 5.26621 106.932 3.21583V0.572754H100.833C101.246 6.78795 104.985 11.93 109.999 13.644V22.294C104.692 24.1041 100.798 29.7747 100.798 36.5025C100.798 43.2303 104.675 48.9009 109.999 50.711V59.361C104.985 61.075 101.246 66.2172 100.833 72.4321H106.932V69.7891C106.932 67.7547 108.173 65.9605 109.999 65.0637V66.2972C109.999 68.1074 111.585 69.581 113.532 69.581H113.842C115.789 69.581 117.374 68.1074 117.374 66.2972V65.0637C119.201 65.9605 120.441 67.7387 120.441 69.7891V72.4321H126.541C126.127 66.2172 122.388 61.075 117.374 59.361ZM106.932 40.2829V32.7061C106.932 30.6717 108.173 28.8776 109.999 27.9806V29.214C109.999 31.0241 111.585 32.4978 113.532 32.4978H113.842C115.789 32.4978 117.374 31.0241 117.374 29.214V27.9806C119.201 28.8776 120.441 30.6557 120.441 32.7061V40.2829C120.441 42.3172 119.201 44.1114 117.374 45.0084V43.775C117.374 41.9648 115.789 40.4912 113.842 40.4912H113.532C111.585 40.4912 109.999 41.9648 109.999 43.775V45.0084C108.19 44.1114 106.932 42.3333 106.932 40.2829ZM154.799 41.0998V31.8891C160.123 30.063 164 24.3924 164 17.6806C164 10.9688 160.123 5.28222 154.799 3.47212V0.572754H147.441V3.47212C142.117 5.29824 138.24 10.9688 138.24 17.6806C138.24 24.3924 142.117 30.079 147.441 31.8891V41.0998C142.117 42.9259 138.24 48.5966 138.24 55.3084C138.24 62.0202 142.117 67.7067 147.441 69.517V72.4161H154.799V69.517C160.123 67.6907 164 62.0202 164 55.3084C164 48.5966 160.123 42.9259 154.799 41.0998ZM144.357 21.461V13.8842C144.357 11.8498 145.598 10.0558 147.424 9.1587V10.3921C147.424 12.2023 149.01 13.676 150.957 13.676H151.249C153.196 13.676 154.781 12.2023 154.781 10.3921V9.1587C156.608 10.0558 157.849 11.8338 157.849 13.8842V21.461C157.849 23.4954 156.608 25.2895 154.781 26.1865V24.9531C154.781 23.143 153.196 21.6692 151.249 21.6692H150.939C148.992 21.6692 147.407 23.143 147.407 24.9531V26.1865C145.615 25.2895 144.357 23.5114 144.357 21.461ZM157.866 59.1047C157.866 61.1391 156.625 62.9334 154.799 63.8302V62.0202C154.799 60.21 153.214 58.7363 151.267 58.7363H150.974C149.027 58.7363 147.441 60.21 147.441 62.0202V63.8302C145.615 62.9334 144.374 61.1551 144.374 59.1047V51.5279C144.374 49.4936 145.615 47.6995 147.441 46.8024V47.4592C147.441 49.2693 149.027 50.743 150.974 50.743H151.284C153.231 50.743 154.816 49.2693 154.816 47.4592V46.8024C156.643 47.6995 157.883 49.4776 157.883 51.5279V59.1047H157.866ZM74.9188 28.1094C75.0566 28.4458 75.1428 28.7982 75.2118 29.1666C75.6676 31.7103 77.1958 33.5508 78.8597 35.5547C81.3452 38.5481 84.1334 41.906 84.1024 48.5171C84.1024 59.7782 75.9522 68.6523 59.3078 68.6523H52.4845C52.4673 68.7003 49.6587 72.4008 43.8864 72.4008C40.9918 72.4968 39.7339 72.3688 39.7339 72.3688C34.4978 72.1687 31.859 68.9312 31.6338 68.6548C31.6248 68.6438 31.6196 68.6375 31.6183 68.6363H24.795C8.15028 68.6363 0.000244141 59.7622 0.000244141 48.5011C0.000244141 41.887 2.79531 38.531 5.28395 35.543C6.95408 33.5377 8.4862 31.6981 8.94289 29.1506C9.01183 28.7982 9.11523 28.4458 9.23582 28.0934C9.18411 28.0293 -2.23973 13.1961 8.33986 4.03344C18.8232 -5.04591 31.0492 6.60516 31.3377 6.88007C31.3403 6.88259 31.342 6.88416 31.3426 6.88474C33.2897 6.32411 35.254 5.9717 37.201 5.81151C37.201 5.81151 42.8526 5.18678 46.8846 5.81151H46.9018C48.8661 5.9717 50.8476 6.32411 52.8119 6.9008C52.8125 6.90023 52.8141 6.8987 52.8167 6.89624C53.1022 6.62413 65.3302 -5.03103 75.815 4.04946C86.1877 13.0188 75.4433 27.4068 74.9369 28.0849C74.926 28.0995 74.9199 28.1077 74.9188 28.1094Z" fill="white"/>
</svg>
