<svg xmlns="http://www.w3.org/2000/svg" width="21" height="18" viewBox="0 0 21 18" fill="none">
  <path d="M18.3846 18.0023H2.61607C1.55862 18.0023 0.709131 17.5761 0.284885 16.8326C-0.139477 16.0891 -0.0878445 15.1179 0.427057 14.1689L8.38317 1.50385C8.90105 0.547928 9.67117 2.38419e-07 10.4951 2.38419e-07C11.3191 2.38419e-07 12.0885 0.547241 12.6078 1.50232L20.5722 14.1704C21.087 15.1194 21.1403 16.0899 20.7151 16.8333C20.2916 17.5767 19.4414 18.0023 18.3846 18.0023ZM10.4959 1.53921C10.2339 1.53921 9.93383 1.80625 9.69057 2.25345L1.73449 14.92C1.48521 15.3803 1.42685 15.7936 1.57575 16.0544C1.72479 16.3146 2.10415 16.464 2.61607 16.464H18.3846C18.8974 16.464 19.276 16.3154 19.4249 16.0544C19.573 15.7943 19.5155 15.3811 19.2655 14.9209L11.3012 2.25343C11.0586 1.80625 10.7571 1.53921 10.4959 1.53921ZM10.5004 11.0589C10.0873 11.0589 9.75202 10.7148 9.75202 10.2892V5.36271C9.75202 4.93784 10.0873 4.59305 10.5004 4.59305C10.9135 4.59305 11.2488 4.93786 11.2488 5.36271V10.2892C11.2488 10.7148 10.9135 11.0589 10.5004 11.0589ZM10.495 14.8209C11.139 14.8209 11.6611 14.283 11.6611 13.6195C11.6611 12.9561 11.139 12.4182 10.495 12.4182C9.85098 12.4182 9.32889 12.9561 9.32889 13.6196C9.32889 14.283 9.85098 14.8209 10.495 14.8209Z" fill="#979ABE"/>
</svg>