<svg width="25" height="24" viewBox="0 0 25 24" fill="none" xmlns="http://www.w3.org/2000/svg">
<path d="M24.9931 12.0638C24.8519 5.20374 19.0452 -0.229909 12.0651 0.00749302C5.24689 0.238756 -0.1445 5.86066 0.00295387 12.5837C0.113025 17.5507 3.19085 21.7667 7.53346 23.6208C8.15029 22.8493 8.66322 21.4637 8.91867 20.6901C9.17412 20.0598 9.4441 19.4438 9.72657 18.8462C10.9955 19.2821 12.7006 18.8687 13.6309 17.87L13.6684 17.829H13.6642C12.5344 17.3399 10.9789 17.5937 9.9529 18.3755C10.3019 17.6612 10.6715 16.9715 11.0599 16.3084C12.308 16.7996 14.0256 16.466 15.0037 15.5123L15.0432 15.4734H15.0391C13.9508 14.9414 12.416 15.1071 11.3548 15.8132C11.741 15.1808 12.1419 14.5709 12.5614 13.9876C13.8532 14.3826 15.5562 13.8955 16.4471 12.8497L16.4824 12.8088H16.4782C15.4253 12.4077 14.0422 12.6431 13.0577 13.3204C13.0931 13.2754 13.1263 13.2284 13.1616 13.1833C13.4129 12.86 13.6704 12.5468 13.9321 12.2398C15.4585 11.8142 16.8188 10.2813 17.0369 8.69725L17.0452 8.63377H17.039C15.4606 8.94486 13.9985 10.4757 13.7057 12.0945C13.4544 12.3893 13.2073 12.6901 12.9664 12.9991C13.361 11.9452 13.2904 10.664 12.7151 9.77989V9.77577L12.6777 9.81875C11.8075 10.8993 11.6684 12.6635 12.3434 13.8321C11.9466 14.3847 11.5645 14.9598 11.1969 15.5553C11.4275 14.358 11.0391 12.9684 10.1855 12.1846H10.1814L10.1586 12.2317C9.5957 13.4801 9.89689 15.2033 10.8252 16.1734C10.4597 16.8016 10.1087 17.4505 9.77643 18.1238C9.97993 16.8794 9.52719 15.4407 8.62167 14.6589L8.61755 14.6548L8.5968 14.706C8.08381 16.0158 8.47838 17.7902 9.47524 18.7377C9.25925 19.1982 9.04953 19.6669 8.84807 20.1478C8.79821 20.0987 8.73592 20.0598 8.66531 20.0393C8.40574 19.9636 8.04645 19.8306 7.64973 19.5952C7.38807 19.4417 7.10978 19.3149 6.82109 19.2207C5.6934 18.8564 5.85956 18.3202 5.27181 17.2478C5.23443 17.1782 4.76715 16.6994 4.66746 16.6134C4.64254 16.5929 4.34556 16.421 4.19395 16.1079C4.0548 15.8193 3.97796 15.5532 3.94889 15.2913C3.9115 14.9414 3.76405 14.7121 3.4193 14.5955C1.75993 14.0306 2.50343 11.9083 2.56158 11.6259C2.61142 11.3844 2.39751 10.8605 2.31859 10.5719C2.31028 10.5371 2.30198 10.4941 2.29159 10.443C2.17114 9.874 2.44112 9.39309 2.6405 9.19457C2.83987 8.99606 3.52729 8.68085 3.67267 8.49462C3.81389 8.31251 3.92812 8.10371 4.07349 7.92571C4.26664 7.68828 4.85853 7.2237 5.65602 6.8021C6.13784 6.54833 6.22507 5.88118 6.40782 5.67854C6.72347 5.32858 7.1991 5.32858 7.5542 5.01341C7.73283 4.85378 7.99241 4.77601 8.1586 4.60819C8.98096 3.77728 10.0817 3.44164 11.172 3.24108C11.9051 3.106 12.7234 3.31476 13.4897 3.44164C13.6019 3.46006 13.7099 3.48667 13.8137 3.51736C15.5354 3.57467 17.6101 3.92873 18.3577 4.64912C18.8251 5.09936 19.0535 5.5885 19.1656 5.92621C19.2903 6.30272 19.4626 6.66295 19.6724 7.00061L20.1334 7.73942C20.4242 8.20605 20.5218 8.76885 20.3951 9.30303C20.3245 9.60795 20.2871 9.9272 20.3785 10.1053C20.5218 10.3815 20.9642 10.8338 21.23 11.0917C21.3587 11.2166 21.5 11.3271 21.6537 11.4233C22.0088 11.6443 22.6796 12.068 22.6817 12.1048C22.6817 12.1539 22.7377 12.3647 22.4407 12.6185C22.1438 12.8723 21.583 13.2775 21.583 13.2775C21.583 13.2775 21.6121 13.4637 21.691 13.6111C21.77 13.7584 21.9631 13.9795 21.905 14.178C21.8468 14.3765 21.4335 14.5361 21.5519 14.7571C21.6703 14.9782 21.961 15.0478 21.878 15.2483C21.7928 15.4489 21.3837 15.7927 21.4252 15.9421C21.4668 16.0915 21.7969 17.4647 21.0327 17.7042C20.4553 17.8843 18.8728 17.9866 18.1293 18.0255C17.8074 18.0419 17.5188 18.222 17.3651 18.4983C17.2488 18.707 17.1366 18.9935 17.0785 19.3762C16.9352 20.3484 15.959 22.5832 15.959 22.5832C15.959 22.5832 15.93 22.6405 15.8863 22.7327C15.8012 22.9332 15.6808 23.2504 15.6974 23.3773C15.7078 23.4612 15.8241 23.6229 15.9923 23.8214C16.1252 23.979 16.3454 24.0404 16.5426 23.9728C21.554 22.2865 25.1115 17.5589 24.9973 12.0638" fill="#00DACC"/>
</svg>
