<svg width="22" height="22" viewBox="0 0 22 22" fill="none" xmlns="http://www.w3.org/2000/svg">
<path d="M10.134 1.5C10.5189 0.833333 11.4811 0.833333 11.866 1.5L19.6603 15C20.0452 15.6667 19.564 16.5 18.7942 16.5H3.20577C2.43597 16.5 1.95485 15.6667 2.33975 15L10.134 1.5Z" fill="currentColor"/>
<path d="M9.996 12.084L9.624 6.6H11.856L11.484 12.084H9.996ZM10.74 15.096C10.404 15.096 10.128 14.988 9.912 14.772C9.696 14.556 9.588 14.3 9.588 14.004C9.588 13.7 9.696 13.448 9.912 13.248C10.128 13.04 10.404 12.936 10.74 12.936C11.084 12.936 11.36 13.04 11.568 13.248C11.784 13.448 11.892 13.7 11.892 14.004C11.892 14.3 11.784 14.556 11.568 14.772C11.36 14.988 11.084 15.096 10.74 15.096Z" fill="#101115"/>
</svg>
