<svg xmlns="http://www.w3.org/2000/svg" width="65" height="65" viewBox="0 0 65 65" fill="none">
  <path d="M32.5 65C14.5507 65 0 50.4493 0 32.5C0 14.5507 14.5507 0 32.5 0C50.4493 0 65 14.5507 65 32.5C65 50.4493 50.4493 65 32.5 65Z" fill="#191919"/>
  <path d="M32.4997 61.5176C16.4736 61.5176 3.48186 48.5259 3.48186 32.4998C3.48186 16.4737 16.4736 3.48193 32.4997 3.48193C48.5258 3.48193 61.5176 16.4737 61.5176 32.4998C61.5176 48.5259 48.5258 61.5176 32.4997 61.5176Z" fill="#F0F0F0"/>
  <path d="M32.4997 53.3926C20.9609 53.3926 11.6069 44.0386 11.6069 32.4998C11.6069 20.961 20.9609 11.6069 32.4997 11.6069C44.0385 11.6069 53.3926 20.961 53.3926 32.4998C53.3926 44.0386 44.0385 53.3926 32.4997 53.3926Z" fill="#191919"/>
</svg>