<svg xmlns="http://www.w3.org/2000/svg" width="71" height="71" viewBox="0 0 71 71" fill="none">
  <rect x="1.5" y="1.5" width="68" height="68" rx="13.5" fill="#CCE209" stroke="black" stroke-width="3"/>
  <path fill-rule="evenodd" clip-rule="evenodd" d="M15 14.0814C15 13.4842 15.477 13 16.0654 13H27.9346C28.523 13 29 13.4842 29 14.0814V26.1291C29 26.7263 29.477 27.2105 30.0654 27.2105H40.7679C41.3563 27.2105 41.8333 26.7263 41.8333 26.1291V14.0814C41.8333 13.4842 42.3103 13 42.8988 13H55.9346C56.523 13 57 13.4842 57 14.0814V56.9186C57 57.5158 56.523 58 55.9346 58H41.7321C41.1437 58 40.6667 57.5158 40.6667 56.9186V48.3497C40.6667 48.0439 40.7974 47.7555 41.0068 47.5357C42.225 46.2571 42.9745 44.5157 42.9745 42.5966C42.9745 38.6725 39.8405 35.4914 35.9745 35.4914C32.1086 35.4914 28.9745 38.6725 28.9745 42.5966C28.9745 44.5384 29.7419 46.2983 30.9857 47.5808C31.1996 47.8013 31.3333 48.0928 31.3333 48.4022V56.9186C31.3333 57.5158 30.8563 58 30.2679 58H16.0654C15.477 58 15 57.5158 15 56.9186V14.0814Z" fill="black"/>
</svg>