<svg xmlns="http://www.w3.org/2000/svg" width="71" height="71" viewBox="0 0 71 71" fill="none">
  <rect x="1.5" y="1.5" width="68" height="68" rx="13.5" fill="black" stroke="black" stroke-width="3"/>
  <path fill-rule="evenodd" clip-rule="evenodd" d="M45.1 10L41 13.9427L56.8346 30L61 25.9738L45.1 10ZM19.371 57.4862C22.828 59.7852 26.8889 61.008 31.0405 61C33.8032 61 36.5387 60.4539 39.0896 59.3929C41.6404 58.332 43.9564 56.7772 45.9042 54.818C47.8521 52.8588 49.3934 50.5338 50.4394 47.9768C51.4855 45.4197 52.0158 42.6811 51.9996 39.9185C51.9835 35.7668 50.7372 31.7131 48.4181 28.2696C46.099 24.826 42.8113 22.1471 38.9703 20.5714C35.1293 18.9956 30.9074 18.5938 26.8381 19.4165C22.7688 20.2393 19.0347 22.2498 16.1076 25.194C13.1805 28.1382 11.1918 31.884 10.3927 35.958C9.59358 40.032 10.02 44.2515 11.618 48.0833C13.2161 51.9151 15.914 55.1872 19.371 57.4862ZM30.7785 55.2769C22.4531 55.1605 15.6181 48.2148 15.7461 40.0233C15.7408 36.9888 16.6389 34.0214 18.326 31.4992C20.0131 28.977 22.4128 27.0141 25.2195 25.8606C28.0262 24.7071 31.1127 24.4153 34.0858 25.0223C37.0589 25.6292 39.784 27.1076 41.914 29.2689C44.0439 31.4302 45.4823 34.1766 46.0457 37.1583C46.6092 40.14 46.2723 43.2219 45.078 46.0115C43.8836 48.801 41.8859 51.1718 39.3393 52.8219C36.7927 54.472 33.8126 55.3266 30.7785 55.2769Z" fill="url(#paint0_linear_13353_5568)"/>
  <defs>
    <linearGradient id="paint0_linear_13353_5568" x1="30" y1="17.5" x2="55.5" y2="39" gradientUnits="userSpaceOnUse">
      <stop stop-color="#F15266"/>
      <stop offset="0.52" stop-color="#BC74ED"/>
      <stop offset="1" stop-color="#1ABEE9"/>
    </linearGradient>
  </defs>
</svg>