<svg xmlns="http://www.w3.org/2000/svg" width="71" height="71" viewBox="0 0 71 71" fill="none">
  <circle cx="35.5" cy="35.5" r="34" fill="white" stroke="black" stroke-width="3"/>
  <path d="M46.5022 17.1464C45.0563 16.216 43.1181 16.7625 42.3724 18.3033L36.459 30.5139C36.3646 30.7105 36.4041 30.9522 36.5585 31.1097L36.7572 31.3116C36.9164 31.4689 37.1545 31.5081 37.3538 31.4097L49.6481 25.5383C51.1985 24.7952 51.7455 22.8705 50.8112 21.4333C49.693 19.7159 48.2223 18.2542 46.4928 17.1464H46.5029H46.5022ZM40.8221 28.048L39.4706 28.6191C39.3214 28.6829 39.1775 28.5354 39.237 28.388L39.8089 27.0492C39.938 26.749 40.2409 26.567 40.5639 26.5862C40.9519 26.6109 41.2596 26.9157 41.2842 27.3003C41.3043 27.625 41.1204 27.9252 40.8168 28.0534L40.8221 28.0486V28.048Z" fill="url(#paint0_linear_13353_5590)"/>
  <path d="M37.6376 32.0688C37.4289 32.1425 37.2852 32.3398 37.2852 32.5609V32.8412C37.2852 33.0623 37.4243 33.2596 37.6376 33.3333L50.5138 37.8168C52.1389 38.3827 53.8978 37.4037 54.261 35.7348C54.693 33.7364 54.693 31.6697 54.261 29.6713C53.8985 27.9978 52.1442 27.0235 50.5138 27.5892L37.6376 32.0728V32.0682V32.0688ZM43.3277 33.1913C43.1142 33.4323 42.7659 33.516 42.4628 33.3932L41.1013 32.8465C40.9521 32.7875 40.9521 32.5808 41.1013 32.517L42.4628 31.9705C42.7659 31.8477 43.1136 31.9312 43.3277 32.1724C43.5857 32.4626 43.5857 32.8956 43.3277 33.1812V33.1913Z" fill="url(#paint1_linear_13353_5590)"/>
  <path d="M49.6591 39.8692L37.3648 33.9977C37.1662 33.904 36.9228 33.9431 36.7682 34.0959L36.5697 34.2978C36.4105 34.4553 36.371 34.6917 36.47 34.8936L42.3834 47.1042C43.1291 48.6449 45.0666 49.1908 46.5132 48.2611C48.2426 47.154 49.7134 45.6923 50.8315 43.9741C51.7658 42.537 51.2195 40.613 49.6685 39.8698H49.6584L49.6591 39.8692ZM41.2852 38.078C41.2605 38.4619 40.9521 38.7667 40.5649 38.7913C40.2373 38.8112 39.9337 38.624 39.8098 38.3283L39.238 36.9896C39.1732 36.8421 39.3224 36.694 39.4715 36.7584L40.823 37.3296C41.1214 37.4578 41.31 37.7579 41.2899 38.0827L41.2852 38.078Z" fill="url(#paint2_linear_13353_5590)"/>
  <path d="M35.7941 35.1648C35.7199 34.9583 35.5206 34.8154 35.2973 34.8154H35.0144C34.7909 34.8154 34.5916 34.9529 34.5174 35.1648L30.0051 47.9512C29.4333 49.5656 30.4178 51.3123 32.1023 51.6717C34.1148 52.1045 36.1974 52.1045 38.2098 51.6717C39.8946 51.3123 40.8784 49.5649 40.3072 47.9512L35.7948 35.1648H35.7941ZM35.6497 40.8144C35.3614 41.0702 34.9241 41.0702 34.631 40.8144C34.3876 40.5979 34.3034 40.2533 34.4271 39.9531L34.9736 38.605C35.0331 38.4575 35.2416 38.4575 35.3012 38.605L35.8477 39.9531C35.972 40.2533 35.8878 40.5979 35.6437 40.8144H35.6483H35.6497Z" fill="url(#paint3_linear_13353_5590)"/>
  <path d="M32.6773 33.3339C32.886 33.2602 33.0297 33.0629 33.0297 32.8418V32.5615C33.0297 32.3404 32.8906 32.1431 32.6773 32.0694L19.8017 27.5859C18.1766 27.02 16.4177 27.9996 16.0545 29.668C15.6225 31.6663 15.6225 33.7331 16.0545 35.7314C16.417 37.4049 18.1712 38.3792 19.8017 37.8133L32.6773 33.33V33.3345V33.3339ZM26.9525 32.1822C27.1664 31.9412 27.5143 31.8575 27.8172 31.9803L29.1742 32.527C29.3233 32.586 29.3233 32.7926 29.1742 32.8569L27.8172 33.4036C27.5143 33.5264 27.1664 33.4427 26.9525 33.2017C26.6943 32.9115 26.6943 32.4785 26.9525 32.1929V32.1829V32.1822Z" fill="url(#paint4_linear_13353_5590)"/>
  <path d="M33.7519 34.298L33.5532 34.0961C33.394 33.9388 33.1559 33.8997 32.9567 33.998L20.6623 39.8694C19.112 40.608 18.5649 42.5373 19.4992 43.9738C20.6175 45.6912 22.0881 47.1529 23.8176 48.2607C25.2635 49.1911 27.2016 48.6446 27.9475 47.1038L33.8561 34.8932C33.9558 34.6913 33.9111 34.4549 33.7565 34.2975H33.7519V34.298ZM31.0432 36.9851L30.4714 38.324C30.3423 38.6242 30.0394 38.8062 29.7164 38.787C29.3284 38.7623 29.0209 38.4575 28.996 38.0736C28.976 37.7489 29.1598 37.4487 29.4629 37.3205L30.8145 36.7493C30.9636 36.6856 31.1075 36.833 31.048 36.9805L31.0432 36.9851Z" fill="url(#paint5_linear_13353_5590)"/>
  <path d="M61.0393 32.7236V32.7017C61.0393 29.2322 60.3552 25.8665 59.0049 22.6966C57.7008 19.6356 55.8348 16.8875 53.4586 14.5279C51.0823 12.1676 48.315 10.3146 45.2325 9.02027C42.0403 7.6794 38.6503 7 35.1572 7C31.6641 7 28.2747 7.6794 25.0825 9.02027C22 10.3146 19.2319 12.1676 16.8557 14.5279C14.4795 16.8875 12.6136 19.6356 11.3101 22.6966C9.95981 25.8665 9.27497 29.2322 9.27497 32.7017V32.7236L9.26294 32.9381C9.17265 34.5253 9.2208 36.1172 9.40672 37.6958L9.48698 38.3778L9.65485 41.1984C9.76051 42.9704 10.64 44.608 12.0618 45.6833C12.8497 46.4636 13.3961 47.4519 13.6362 48.5311L13.9465 49.9251C14.2822 51.4319 15.5148 52.5795 17.0503 52.8146C18.3545 53.0146 19.458 53.8773 19.9596 55.0893L20.1207 55.4792L20.3909 56.0496C21.3239 58.0208 23.458 59.1412 25.6236 58.7971L26.0797 58.7246C28.2773 58.3761 30.392 59.7109 31.006 61.8355C31.5979 63.8829 33.3655 64.9641 35.1572 65C36.9489 64.9641 38.7164 63.8829 39.3083 61.8355C39.9224 59.7109 42.0371 58.3761 44.2346 58.7246L44.6908 58.7971C46.8563 59.1412 48.9904 58.0208 49.9234 56.0496L50.1936 55.4792L50.3547 55.0893C50.8563 53.8773 51.9598 53.0146 53.264 52.8146C54.7996 52.5795 56.0321 51.4319 56.3678 49.9251L56.6782 48.5311C56.9182 47.4519 57.4647 46.4636 58.2526 45.6833C59.6743 44.608 60.5539 42.9704 60.6595 41.1984L60.8274 38.3778L60.9076 37.6958C61.0935 36.1172 61.1417 34.5253 61.0514 32.9381L61.0393 32.7236ZM50.6216 48.0575C46.4905 52.1592 40.999 54.4185 35.1572 54.4185C29.3153 54.4185 23.8238 52.1592 19.6934 48.0575C15.5629 43.9559 13.2877 38.5022 13.2877 32.7017C13.2877 26.9011 15.5629 21.4467 19.6934 17.3451C23.8238 13.2434 29.316 10.9848 35.1572 10.9848C40.9983 10.9848 46.4905 13.2434 50.6216 17.3451C54.752 21.4467 57.0266 26.9005 57.0266 32.7017C57.0266 38.5027 54.752 43.9559 50.6216 48.0575Z" fill="url(#paint6_linear_13353_5590)"/>
  <path d="M34.521 30.2388C34.5954 30.4453 34.7947 30.5881 35.018 30.5881H35.3016C35.5249 30.5881 35.7243 30.4506 35.7986 30.2388L40.3108 17.4523C40.8827 15.8379 39.8982 14.0912 38.2135 13.7319C36.2012 13.3036 34.1185 13.3036 32.1061 13.7319C30.4214 14.0912 29.4376 15.8385 30.0088 17.4523L34.521 30.2388ZM34.6308 24.5592C34.9191 24.3034 35.3565 24.3034 35.6494 24.5592C35.8928 24.771 35.9772 25.1203 35.8533 25.4205L35.307 26.7693C35.2475 26.9168 35.0388 26.9168 34.9793 26.7693L34.4328 25.4205C34.3084 25.1203 34.3933 24.7756 34.6369 24.5592H34.6321H34.6308Z" fill="url(#paint7_linear_13353_5590)"/>
  <path d="M20.6554 25.5375L32.9497 31.409C33.1484 31.5073 33.3918 31.4636 33.5462 31.3108L33.7449 31.1089C33.9041 30.9514 33.9436 30.715 33.8446 30.5131L27.9359 18.3025C27.19 16.7618 25.2526 16.2159 23.806 17.1456C22.0766 18.2527 20.6059 19.7145 19.4877 21.4326C18.5534 22.8697 19.0998 24.7944 20.6507 25.5375H20.6554ZM28.9892 27.2949C29.0139 26.911 29.3223 26.6055 29.7094 26.5808C30.0371 26.5609 30.3408 26.7482 30.4646 27.0438L31.0364 28.3826C31.1012 28.53 30.9521 28.6782 30.8029 28.6137L29.4514 28.0426C29.153 27.9145 28.9644 27.6143 28.9845 27.2894L28.9892 27.2949Z" fill="url(#paint8_linear_13353_5590)"/>
  <defs>
    <linearGradient id="paint0_linear_13353_5590" x1="67.8392" y1="-3.44008" x2="-18.5947" y2="19.7179" gradientUnits="userSpaceOnUse">
      <stop stop-color="#D188FF"/>
      <stop offset="1" stop-color="#831FD8"/>
    </linearGradient>
    <linearGradient id="paint1_linear_13353_5590" x1="67.8401" y1="-3.43991" x2="-18.5938" y2="19.718" gradientUnits="userSpaceOnUse">
      <stop stop-color="#D188FF"/>
      <stop offset="1" stop-color="#831FD8"/>
    </linearGradient>
    <linearGradient id="paint2_linear_13353_5590" x1="67.8402" y1="-3.44034" x2="-18.5938" y2="19.7176" gradientUnits="userSpaceOnUse">
      <stop stop-color="#D188FF"/>
      <stop offset="1" stop-color="#831FD8"/>
    </linearGradient>
    <linearGradient id="paint3_linear_13353_5590" x1="67.8398" y1="-3.44009" x2="-18.5941" y2="19.7179" gradientUnits="userSpaceOnUse">
      <stop stop-color="#D188FF"/>
      <stop offset="1" stop-color="#831FD8"/>
    </linearGradient>
    <linearGradient id="paint4_linear_13353_5590" x1="67.8389" y1="-3.44001" x2="-18.595" y2="19.7179" gradientUnits="userSpaceOnUse">
      <stop stop-color="#D188FF"/>
      <stop offset="1" stop-color="#831FD8"/>
    </linearGradient>
    <linearGradient id="paint5_linear_13353_5590" x1="67.8401" y1="-3.44007" x2="-18.5939" y2="19.7179" gradientUnits="userSpaceOnUse">
      <stop stop-color="#D188FF"/>
      <stop offset="1" stop-color="#831FD8"/>
    </linearGradient>
    <linearGradient id="paint6_linear_13353_5590" x1="67.8396" y1="-3.44" x2="-18.5944" y2="19.718" gradientUnits="userSpaceOnUse">
      <stop stop-color="#D188FF"/>
      <stop offset="1" stop-color="#831FD8"/>
    </linearGradient>
    <linearGradient id="paint7_linear_13353_5590" x1="67.8396" y1="-3.43965" x2="-18.5944" y2="19.7183" gradientUnits="userSpaceOnUse">
      <stop stop-color="#D188FF"/>
      <stop offset="1" stop-color="#831FD8"/>
    </linearGradient>
    <linearGradient id="paint8_linear_13353_5590" x1="67.8385" y1="-3.4402" x2="-18.5954" y2="19.7178" gradientUnits="userSpaceOnUse">
      <stop stop-color="#D188FF"/>
      <stop offset="1" stop-color="#831FD8"/>
    </linearGradient>
  </defs>
</svg>