<svg width="188" height="95" viewBox="0 0 188 95" fill="none" xmlns="http://www.w3.org/2000/svg">
<g opacity="0.6" filter="url(#filter0_b_15_11)">
<path d="M2 32C2 20.9543 10.9543 12 22 12H135.502C143.149 12 150.126 16.3604 153.478 23.2337L173.472 64.2337C179.951 77.5192 170.277 93 155.496 93H22C10.9543 93 2 84.0457 2 73V32Z" fill="black"/>
<path d="M2 32C2 20.9543 10.9543 12 22 12H135.502C143.149 12 150.126 16.3604 153.478 23.2337L173.472 64.2337C179.951 77.5192 170.277 93 155.496 93H22C10.9543 93 2 84.0457 2 73V32Z" stroke="url(#paint0_linear_15_11)" stroke-width="3"/>
</g>
<g filter="url(#filter1_b_15_11)">
<path d="M9 66.5C9 57.6634 16.1634 50.5 25 50.5H156C164.837 50.5 172 57.6634 172 66.5V67C172 75.8366 164.837 83 156 83H25C16.1634 83 9 75.8366 9 67V66.5Z" fill="url(#paint1_linear_15_11)"/>
<path d="M9 66.5C9 57.6634 16.1634 50.5 25 50.5H156C164.837 50.5 172 57.6634 172 66.5V67C172 75.8366 164.837 83 156 83H25C16.1634 83 9 75.8366 9 67V66.5Z" stroke="url(#paint2_linear_15_11)"/>
</g>
<g filter="url(#filter2_b_15_11)">
<path d="M9 17C9 8.16344 16.1634 1 25 1H139.773C146.009 1 151.676 4.62237 154.294 10.2813L170.488 45.2813C175.394 55.8846 167.651 68 155.967 68H25C16.1634 68 9 60.8366 9 52V17Z" fill="url(#paint3_linear_15_11)"/>
<path d="M9 17C9 8.16344 16.1634 1 25 1H139.773C146.009 1 151.676 4.62237 154.294 10.2813L170.488 45.2813C175.394 55.8846 167.651 68 155.967 68H25C16.1634 68 9 60.8366 9 52V17Z" stroke="url(#paint4_linear_15_11)"/>
</g>
<path d="M23.6048 38V24H27.4848L33.0848 33.14H31.0448L36.4848 24H40.3648L40.4048 38H36.1048L36.0648 30.48H36.7448L33.0248 36.74H30.9448L27.0648 30.48H27.9048V38H23.6048ZM44.9469 42.08C44.3469 42.08 43.7335 41.9867 43.1069 41.8C42.4935 41.6267 42.0002 41.3933 41.6269 41.1L43.1269 38C43.3535 38.1733 43.6069 38.3133 43.8869 38.42C44.1802 38.5267 44.4602 38.58 44.7269 38.58C45.1269 38.58 45.4335 38.4933 45.6469 38.32C45.8602 38.16 46.0335 37.9133 46.1669 37.58L46.6269 36.42L46.9469 35.98L50.4469 27.06H54.7269L50.2269 38.22C49.8269 39.22 49.3602 40 48.8269 40.56C48.3069 41.12 47.7202 41.5133 47.0669 41.74C46.4269 41.9667 45.7202 42.08 44.9469 42.08ZM46.0069 38.5L41.2469 27.06H45.8869L49.1669 35.58L46.0069 38.5ZM61.5541 38V24H68.2941C69.6007 24 70.7274 24.2133 71.6741 24.64C72.6341 25.0667 73.3741 25.68 73.8941 26.48C74.4141 27.2667 74.6741 28.2 74.6741 29.28C74.6741 30.36 74.4141 31.2933 73.8941 32.08C73.3741 32.8533 72.6341 33.4467 71.6741 33.86C70.7274 34.2733 69.6007 34.48 68.2941 34.48H64.1741L66.2741 32.54V38H61.5541ZM69.9341 38L66.4941 32.9H71.4941L74.9741 38H69.9341ZM66.2741 33.06L64.1741 30.92H67.9941C68.6474 30.92 69.1274 30.7733 69.4341 30.48C69.7541 30.1867 69.9141 29.7867 69.9141 29.28C69.9141 28.7733 69.7541 28.3733 69.4341 28.08C69.1274 27.7867 68.6474 27.64 67.9941 27.64H64.1741L66.2741 25.5V33.06ZM82.3564 38.2C81.0231 38.2 79.8564 37.9533 78.8564 37.46C77.8697 36.9667 77.1031 36.2933 76.5564 35.44C76.0097 34.5733 75.7364 33.6 75.7364 32.52C75.7364 31.4133 76.0031 30.4333 76.5364 29.58C77.0831 28.7267 77.8231 28.06 78.7564 27.58C79.7031 27.1 80.7631 26.86 81.9364 26.86C83.0164 26.86 84.0097 27.0733 84.9164 27.5C85.8364 27.9267 86.5697 28.56 87.1164 29.4C87.6764 30.24 87.9564 31.28 87.9564 32.52C87.9564 32.68 87.9497 32.86 87.9364 33.06C87.9231 33.2467 87.9097 33.42 87.8964 33.58H79.4764V31.4H85.4964L83.7964 31.98C83.7964 31.5533 83.7164 31.1933 83.5564 30.9C83.4097 30.5933 83.2031 30.36 82.9364 30.2C82.6697 30.0267 82.3497 29.94 81.9764 29.94C81.6031 29.94 81.2764 30.0267 80.9964 30.2C80.7297 30.36 80.5231 30.5933 80.3764 30.9C80.2297 31.1933 80.1564 31.5533 80.1564 31.98V32.66C80.1564 33.1267 80.2497 33.5267 80.4364 33.86C80.6231 34.1933 80.8897 34.4467 81.2364 34.62C81.5831 34.78 82.0031 34.86 82.4964 34.86C83.0031 34.86 83.4164 34.7933 83.7364 34.66C84.0697 34.5267 84.4164 34.3267 84.7764 34.06L87.1364 36.44C86.6031 37.0133 85.9431 37.4533 85.1564 37.76C84.3831 38.0533 83.4497 38.2 82.3564 38.2ZM91.8675 38L88.0675 27.06H92.3475L95.2275 35.94H93.1675L96.1875 27.06H100.028L102.908 35.94H100.908L103.888 27.06H107.848L104.048 38H99.6475L97.3475 30.96H98.6675L96.2675 38H91.8675ZM114.948 38V36.06L114.628 35.54V31.86C114.628 31.3267 114.461 30.92 114.128 30.64C113.808 30.36 113.281 30.22 112.548 30.22C112.055 30.22 111.555 30.3 111.048 30.46C110.541 30.6067 110.108 30.8133 109.748 31.08L108.308 28.1C108.948 27.7 109.715 27.3933 110.608 27.18C111.501 26.9667 112.375 26.86 113.228 26.86C115.108 26.86 116.561 27.28 117.588 28.12C118.628 28.96 119.148 30.2933 119.148 32.12V38H114.948ZM111.848 38.2C110.955 38.2 110.208 38.0467 109.608 37.74C109.008 37.4333 108.555 37.0267 108.248 36.52C107.941 36 107.788 35.4267 107.788 34.8C107.788 34.0933 107.968 33.4933 108.328 33C108.688 32.5067 109.235 32.1333 109.968 31.88C110.715 31.6267 111.655 31.5 112.788 31.5H115.068V33.68H113.508C113.028 33.68 112.675 33.76 112.448 33.92C112.235 34.0667 112.128 34.2933 112.128 34.6C112.128 34.8533 112.221 35.0667 112.408 35.24C112.608 35.4 112.875 35.48 113.208 35.48C113.515 35.48 113.795 35.4 114.048 35.24C114.315 35.0667 114.508 34.8 114.628 34.44L115.208 35.78C115.035 36.5933 114.668 37.2 114.108 37.6C113.548 38 112.795 38.2 111.848 38.2ZM121.102 38V27.06H125.402V30.36L124.702 29.42C125.035 28.5667 125.568 27.9267 126.302 27.5C127.035 27.0733 127.915 26.86 128.942 26.86V30.86C128.742 30.8333 128.562 30.8133 128.402 30.8C128.255 30.7867 128.102 30.78 127.942 30.78C127.262 30.78 126.702 30.96 126.262 31.32C125.835 31.6667 125.622 32.2733 125.622 33.14V38H121.102ZM134.925 38.2C133.978 38.2 133.098 37.9733 132.285 37.52C131.485 37.0533 130.845 36.4 130.365 35.56C129.885 34.7067 129.645 33.6933 129.645 32.52C129.645 31.3467 129.885 30.34 130.365 29.5C130.845 28.6467 131.485 27.9933 132.285 27.54C133.098 27.0867 133.978 26.86 134.925 26.86C135.885 26.86 136.672 27.0667 137.285 27.48C137.898 27.88 138.352 28.5 138.645 29.34C138.938 30.1667 139.085 31.2267 139.085 32.52C139.085 33.8267 138.945 34.9 138.665 35.74C138.398 36.58 137.958 37.2 137.345 37.6C136.745 38 135.938 38.2 134.925 38.2ZM136.005 34.68C136.338 34.68 136.638 34.6 136.905 34.44C137.172 34.28 137.385 34.04 137.545 33.72C137.705 33.3867 137.785 32.9867 137.785 32.52C137.785 32.04 137.705 31.6467 137.545 31.34C137.385 31.02 137.172 30.78 136.905 30.62C136.638 30.46 136.338 30.38 136.005 30.38C135.672 30.38 135.372 30.46 135.105 30.62C134.838 30.78 134.625 31.02 134.465 31.34C134.305 31.6467 134.225 32.04 134.225 32.52C134.225 32.9867 134.305 33.3867 134.465 33.72C134.625 34.04 134.838 34.28 135.105 34.44C135.372 34.6 135.672 34.68 136.005 34.68ZM137.925 38V36.52L137.905 32.52L137.705 28.52V23.16H142.225V38H137.925ZM148.507 38.2C147.573 38.2 146.653 38.1 145.747 37.9C144.84 37.7 144.107 37.44 143.547 37.12L144.787 34.14C145.307 34.4467 145.907 34.6867 146.587 34.86C147.28 35.0333 147.953 35.12 148.607 35.12C149.153 35.12 149.52 35.0733 149.707 34.98C149.907 34.8867 150.007 34.76 150.007 34.6C150.007 34.44 149.893 34.3267 149.667 34.26C149.44 34.18 149.14 34.12 148.767 34.08C148.393 34.04 147.98 33.9933 147.527 33.94C147.087 33.8733 146.64 33.78 146.187 33.66C145.733 33.54 145.32 33.36 144.947 33.12C144.573 32.88 144.273 32.56 144.047 32.16C143.82 31.7467 143.707 31.2267 143.707 30.6C143.707 29.9067 143.913 29.28 144.327 28.72C144.753 28.16 145.38 27.7133 146.207 27.38C147.047 27.0333 148.08 26.86 149.307 26.86C150.107 26.86 150.907 26.9333 151.707 27.08C152.507 27.2267 153.193 27.4533 153.767 27.76L152.527 30.74C151.967 30.4333 151.413 30.2267 150.867 30.12C150.333 30 149.833 29.94 149.367 29.94C148.793 29.94 148.4 29.9933 148.187 30.1C147.987 30.2067 147.887 30.3267 147.887 30.46C147.887 30.62 148 30.74 148.227 30.82C148.453 30.9 148.753 30.96 149.127 31C149.5 31.04 149.907 31.0933 150.347 31.16C150.8 31.2133 151.247 31.3067 151.687 31.44C152.14 31.56 152.553 31.74 152.927 31.98C153.3 32.22 153.6 32.5467 153.827 32.96C154.053 33.36 154.167 33.8733 154.167 34.5C154.167 35.1533 153.96 35.7667 153.547 36.34C153.133 36.9 152.507 37.3533 151.667 37.7C150.827 38.0333 149.773 38.2 148.507 38.2Z" fill="#636363"/>
<defs>
<filter id="filter0_b_15_11" x="-19.5" y="-9.5" width="216.523" height="124" filterUnits="userSpaceOnUse" color-interpolation-filters="sRGB">
<feFlood flood-opacity="0" result="BackgroundImageFix"/>
<feGaussianBlur in="BackgroundImageFix" stdDeviation="10"/>
<feComposite in2="SourceAlpha" operator="in" result="effect1_backgroundBlur_15_11"/>
<feBlend mode="normal" in="SourceGraphic" in2="effect1_backgroundBlur_15_11" result="shape"/>
</filter>
<filter id="filter1_b_15_11" x="-11.5" y="30" width="204" height="73.5" filterUnits="userSpaceOnUse" color-interpolation-filters="sRGB">
<feFlood flood-opacity="0" result="BackgroundImageFix"/>
<feGaussianBlur in="BackgroundImageFix" stdDeviation="10"/>
<feComposite in2="SourceAlpha" operator="in" result="effect1_backgroundBlur_15_11"/>
<feBlend mode="normal" in="SourceGraphic" in2="effect1_backgroundBlur_15_11" result="shape"/>
</filter>
<filter id="filter2_b_15_11" x="-11.5" y="-19.5" width="203.987" height="108" filterUnits="userSpaceOnUse" color-interpolation-filters="sRGB">
<feFlood flood-opacity="0" result="BackgroundImageFix"/>
<feGaussianBlur in="BackgroundImageFix" stdDeviation="10"/>
<feComposite in2="SourceAlpha" operator="in" result="effect1_backgroundBlur_15_11"/>
<feBlend mode="normal" in="SourceGraphic" in2="effect1_backgroundBlur_15_11" result="shape"/>
</filter>
<linearGradient id="paint0_linear_15_11" x1="117.296" y1="12" x2="117.296" y2="93" gradientUnits="userSpaceOnUse">
<stop stop-color="#191A20"/>
<stop offset="1" stop-color="#39393E"/>
</linearGradient>
<linearGradient id="paint1_linear_15_11" x1="95" y1="12" x2="95" y2="83" gradientUnits="userSpaceOnUse">
<stop stop-color="#17181C"/>
<stop offset="1" stop-color="#191A1F"/>
</linearGradient>
<linearGradient id="paint2_linear_15_11" x1="95" y1="12" x2="95" y2="83" gradientUnits="userSpaceOnUse">
<stop stop-color="#66676D"/>
<stop offset="1" stop-opacity="0"/>
</linearGradient>
<linearGradient id="paint3_linear_15_11" x1="95" y1="1" x2="95" y2="68" gradientUnits="userSpaceOnUse">
<stop stop-color="#34363E"/>
<stop offset="1" stop-color="#25272F"/>
</linearGradient>
<linearGradient id="paint4_linear_15_11" x1="95" y1="1" x2="95" y2="68" gradientUnits="userSpaceOnUse">
<stop stop-color="#66676D"/>
<stop offset="1" stop-opacity="0"/>
</linearGradient>
</defs>
</svg>
