<svg width="187" height="69" viewBox="0 0 187 69" fill="none" xmlns="http://www.w3.org/2000/svg">
<path d="M60.2942 6.35621H14.7299C14.2068 6.35621 13.7046 6.56112 13.3308 6.92701L0.600939 19.3884C0.216609 19.7646 0 20.2798 0 20.8176L4.17875e-06 62.5C4.50439e-06 65.8137 2.68629 68.5 6 68.5H166.857C167.288 68.5 167.707 68.3608 168.053 68.1032L186.196 54.5714C186.702 54.1939 187 53.5996 187 52.9682V6C187 2.68629 184.314 0 181 0H69.9919C69.5542 0 69.1286 0.143584 68.7804 0.40873L61.5057 5.94748C61.1575 6.21263 60.7318 6.35621 60.2942 6.35621Z" fill="#FDFE03"/>
<path d="M181 34H6C2.68629 34 0 36.6863 0 40L3.93909e-06 62.5C4.39709e-06 65.8137 2.68629 68.5 6 68.5H166.857C167.288 68.5 167.707 68.3608 168.053 68.1032L186.196 54.5714C186.702 54.1939 187 53.5996 187 52.9682V40C187 36.6863 184.314 34 181 34Z" fill="black"/>
<path d="M80.0568 11.9518L96.3326 12.0171C97.0079 12.2018 97.3961 12.6454 97.4452 13.3736L95.4153 20.3335C95.1532 20.8525 94.8658 21.1893 94.553 21.3961C94.2402 21.6028 93.7459 21.6788 93.1219 21.6763L83.8919 21.6393L85.0785 17.51L91.2405 17.5348L91.662 16.1584L83.9141 16.1274L80.6979 27.1385L75.6539 27.1183L80.0568 11.9518ZM99.6836 12.0306L115.959 12.0959C116.635 12.2806 117.023 12.7241 117.072 13.4524L114.462 22.36C114.305 22.6193 114.148 22.8527 114.018 23.0082C113.861 23.1895 113.704 23.3189 113.548 23.4223C113.392 23.5257 113.209 23.6029 113.001 23.6541C112.793 23.7053 112.533 23.7042 112.221 23.703L111.337 23.6994L113.273 27.2692L107.137 27.2446L105.149 23.6486L102.965 23.6398L104.152 19.5106L110.314 19.5353L111.289 16.2372L103.541 16.2061L100.325 27.2173L95.2807 27.197L99.6836 12.0306ZM119.258 12.1091L124.25 12.1291L119.847 27.2956L114.855 27.2756L119.258 12.1091ZM137.964 27.3683L121.636 27.3028L122.348 24.8876C122.453 24.524 122.611 24.1347 122.846 23.7456C123.056 23.3824 123.343 23.0196 123.656 22.7088L133.77 16.3274L124.878 16.2917L126.065 12.1364L142.367 12.2018L141.681 14.6431C141.444 15.3701 140.999 16.0964 140.32 16.8216L130.285 23.1774L139.176 23.2131L137.964 27.3683ZM156.452 21.9044L146.442 21.8642L146.047 23.2407L158.761 23.2917L157.548 27.4468L139.79 27.3756L142.585 17.7407L157.639 17.8011L156.452 21.9044ZM143.006 16.3644L144.193 12.2091L161.951 12.2804L160.764 16.4357L143.006 16.3644Z" fill="black"/>
<path d="M82.1581 41.9605L98.434 42.0258C99.1092 42.2105 99.4974 42.6541 99.5465 43.3823L97.5166 50.3422C97.2545 50.8611 96.9671 51.198 96.6543 51.4047C96.3415 51.6115 95.8472 51.6875 95.2232 51.685L85.9933 51.648L87.1798 47.5187L93.3418 47.5434L93.7633 46.1671L86.0154 46.136L82.7992 57.1472L77.7552 57.127L82.1581 41.9605ZM103.345 42.0455L119.699 42.1111C120.01 42.2164 120.27 42.3994 120.503 42.6083C120.71 42.8172 120.865 43.1298 120.915 43.52L117.303 55.8816C117.016 56.2965 116.703 56.6072 116.338 56.8398C115.973 57.0723 115.634 57.2269 115.296 57.2776L98.942 57.212C98.1628 57.0008 97.8008 56.5054 97.8039 55.7254L101.363 43.5716C101.808 42.7673 102.46 42.25 103.345 42.0455ZM105.642 46.2148L103.639 53.0708L113.155 53.109L115.158 46.2529L105.642 46.2148ZM124.724 42.1313L141.077 42.1969C141.389 42.3021 141.648 42.4852 141.881 42.6941C142.089 42.9029 142.243 43.2156 142.294 43.6058L138.682 55.9674C138.395 56.3822 138.081 56.693 137.716 56.9255C137.351 57.1581 137.013 57.3127 136.675 57.3633L120.321 57.2977C119.542 57.0866 119.18 56.5912 119.183 55.8112L122.741 43.6573C123.187 42.8531 123.839 42.3357 124.724 42.1313ZM127.021 46.3005L125.017 53.1565L134.533 53.1947L136.537 46.3387L127.021 46.3005ZM149.534 42.2308L146.344 53.2421L156.432 53.2826L155.219 57.4377L141.699 57.3835C140.868 57.1982 140.506 56.7027 140.561 55.8969L144.542 42.2108L149.534 42.2308Z" fill="#FDFE03"/>
<circle cx="34.4076" cy="37.4076" r="23.9076" fill="url(#paint0_linear_13708_65)" stroke="black" stroke-width="3"/>
<path fill-rule="evenodd" clip-rule="evenodd" d="M36.7645 26.5536C36.9415 26.4654 37.1406 26.4318 37.3367 26.4568L44.8059 27.4095C45.1317 27.451 45.4163 27.6499 45.5674 27.9415L49.4057 35.3514C49.622 35.769 49.5181 36.281 49.156 36.5812L34.2176 48.9663C33.9416 49.1952 33.5642 49.2587 33.2285 49.1329L19.9499 44.1577C19.6948 44.0621 19.4897 43.8665 19.3821 43.6162C19.2745 43.3659 19.2737 43.0825 19.3798 42.8315L23.3219 33.5162C23.4149 33.2964 23.5835 33.1172 23.7971 33.0108L36.7645 26.5536ZM37.3845 28.4791L27.1442 33.5783L31.9678 34.7441L41.6575 29.0241L37.3845 28.4791ZM44.2776 29.7999L33.196 36.3415L34.3582 46.2518L47.2592 35.5558L44.2776 29.7999ZM32.3953 46.6849L31.215 36.6197L24.833 35.0774L21.6281 42.6507L32.3953 46.6849Z" fill="black"/>
<defs>
<linearGradient id="paint0_linear_13708_65" x1="12" y1="37.4076" x2="56.8152" y2="37.4076" gradientUnits="userSpaceOnUse">
<stop stop-color="#FDF621"/>
<stop offset="0.595" stop-color="#FDFCC3"/>
<stop offset="1" stop-color="#FDF973"/>
</linearGradient>
</defs>
</svg>
