<svg width="196" height="95" viewBox="0 0 196 95" fill="none" xmlns="http://www.w3.org/2000/svg">
<g opacity="0.6" filter="url(#filter0_b_16_12)">
<path d="M192.728 34.4505C194.201 22.5233 184.897 12 172.879 12H51.9983C44.3513 12 37.3736 16.3604 34.0218 23.2337L14.028 64.2337C7.54928 77.5192 17.2234 93 32.0044 93H167.817C177.915 93 186.429 85.4725 187.667 75.4505L192.728 34.4505Z" fill="black"/>
<path d="M192.728 34.4505C194.201 22.5233 184.897 12 172.879 12H51.9983C44.3513 12 37.3736 16.3604 34.0218 23.2337L14.028 64.2337C7.54928 77.5192 17.2234 93 32.0044 93H167.817C177.915 93 186.429 85.4725 187.667 75.4505L192.728 34.4505Z" stroke="url(#paint0_linear_16_12)" stroke-width="3"/>
</g>
<g filter="url(#filter1_b_16_12)">
<path d="M188.5 66.5C188.5 57.6634 181.337 50.5 172.5 50.5H31.5C22.6634 50.5 15.5 57.6634 15.5 66.5V67C15.5 75.8366 22.6634 83 31.5 83H172.5C181.337 83 188.5 75.8366 188.5 67V66.5Z" fill="url(#paint1_linear_16_12)"/>
<path d="M188.5 66.5C188.5 57.6634 181.337 50.5 172.5 50.5H31.5C22.6634 50.5 15.5 57.6634 15.5 66.5V67C15.5 75.8366 22.6634 83 31.5 83H172.5C181.337 83 188.5 75.8366 188.5 67V66.5Z" stroke="url(#paint2_linear_16_12)"/>
</g>
<g filter="url(#filter2_b_16_12)">
<path d="M185.759 19.3619C187.203 9.69182 179.712 1 169.935 1H47.7267C41.4913 1 35.824 4.62237 33.2057 10.2813L17.0116 45.2813C12.1056 55.8846 19.8494 68 31.5326 68H164.711C172.635 68 179.366 62.1995 180.536 54.3619L185.759 19.3619Z" fill="url(#paint3_linear_16_12)"/>
<path d="M185.759 19.3619C187.203 9.69182 179.712 1 169.935 1H47.7267C41.4913 1 35.824 4.62237 33.2057 10.2813L17.0116 45.2813C12.1056 55.8846 19.8494 68 31.5326 68H164.711C172.635 68 179.366 62.1995 180.536 54.3619L185.759 19.3619Z" stroke="url(#paint4_linear_16_12)"/>
</g>
<path d="M68.3744 38V24H75.1144C76.421 24 77.5477 24.2133 78.4944 24.64C79.4544 25.0667 80.1944 25.68 80.7144 26.48C81.2344 27.2667 81.4944 28.2 81.4944 29.28C81.4944 30.36 81.2344 31.2933 80.7144 32.08C80.1944 32.8533 79.4544 33.4467 78.4944 33.86C77.5477 34.2733 76.421 34.48 75.1144 34.48H70.9944L73.0944 32.54V38H68.3744ZM76.7544 38L73.3144 32.9H78.3144L81.7944 38H76.7544ZM73.0944 33.06L70.9944 30.92H74.8144C75.4677 30.92 75.9477 30.7733 76.2544 30.48C76.5744 30.1867 76.7344 29.7867 76.7344 29.28C76.7344 28.7733 76.5744 28.3733 76.2544 28.08C75.9477 27.7867 75.4677 27.64 74.8144 27.64H70.9944L73.0944 25.5V33.06ZM89.9767 38.32C87.8301 38.32 86.1567 37.74 84.9567 36.58C83.7567 35.42 83.1567 33.7933 83.1567 31.7V24H87.8767V31.56C87.8767 32.6267 88.0701 33.3867 88.4567 33.84C88.8434 34.28 89.3634 34.5 90.0167 34.5C90.6834 34.5 91.2034 34.28 91.5767 33.84C91.9634 33.3867 92.1567 32.6267 92.1567 31.56V24H96.7967V31.7C96.7967 33.7933 96.1967 35.42 94.9967 36.58C93.7967 37.74 92.1234 38.32 89.9767 38.32ZM98.9603 38V24H103.68V34.34H110V38H98.9603ZM115.624 29.2H121.864V32.6H115.624V29.2ZM115.944 34.44H122.944V38H111.304V24H122.684V27.56H115.944V34.44ZM129.981 38.32C128.808 38.32 127.674 38.1867 126.581 37.92C125.488 37.6533 124.588 37.3067 123.881 36.88L125.401 33.44C126.068 33.8267 126.808 34.14 127.621 34.38C128.448 34.6067 129.248 34.72 130.021 34.72C130.474 34.72 130.828 34.6933 131.081 34.64C131.348 34.5733 131.541 34.4867 131.661 34.38C131.781 34.26 131.841 34.12 131.841 33.96C131.841 33.7067 131.701 33.5067 131.421 33.36C131.141 33.2133 130.768 33.0933 130.301 33C129.848 32.8933 129.348 32.7867 128.801 32.68C128.254 32.56 127.701 32.4067 127.141 32.22C126.594 32.0333 126.088 31.7867 125.621 31.48C125.168 31.1733 124.801 30.7733 124.521 30.28C124.241 29.7733 124.101 29.1467 124.101 28.4C124.101 27.5333 124.341 26.7467 124.821 26.04C125.314 25.32 126.041 24.7467 127.001 24.32C127.974 23.8933 129.181 23.68 130.621 23.68C131.568 23.68 132.501 23.78 133.421 23.98C134.341 24.18 135.168 24.4867 135.901 24.9L134.481 28.32C133.788 27.9733 133.114 27.7133 132.461 27.54C131.821 27.3667 131.194 27.28 130.581 27.28C130.128 27.28 129.768 27.32 129.501 27.4C129.234 27.48 129.041 27.5867 128.921 27.72C128.814 27.8533 128.761 28 128.761 28.16C128.761 28.4 128.901 28.5933 129.181 28.74C129.461 28.8733 129.828 28.9867 130.281 29.08C130.748 29.1733 131.254 29.2733 131.801 29.38C132.361 29.4867 132.914 29.6333 133.461 29.82C134.008 30.0067 134.508 30.2533 134.961 30.56C135.428 30.8667 135.801 31.2667 136.081 31.76C136.361 32.2533 136.501 32.8667 136.501 33.6C136.501 34.4533 136.254 35.24 135.761 35.96C135.281 36.6667 134.561 37.24 133.601 37.68C132.641 38.1067 131.434 38.32 129.981 38.32Z" fill="#636363"/>
<defs>
<filter id="filter0_b_16_12" x="-9.52254" y="-9.5" width="223.905" height="124" filterUnits="userSpaceOnUse" color-interpolation-filters="sRGB">
<feFlood flood-opacity="0" result="BackgroundImageFix"/>
<feGaussianBlur in="BackgroundImageFix" stdDeviation="10"/>
<feComposite in2="SourceAlpha" operator="in" result="effect1_backgroundBlur_16_12"/>
<feBlend mode="normal" in="SourceGraphic" in2="effect1_backgroundBlur_16_12" result="shape"/>
</filter>
<filter id="filter1_b_16_12" x="-5" y="30" width="214" height="73.5" filterUnits="userSpaceOnUse" color-interpolation-filters="sRGB">
<feFlood flood-opacity="0" result="BackgroundImageFix"/>
<feGaussianBlur in="BackgroundImageFix" stdDeviation="10"/>
<feComposite in2="SourceAlpha" operator="in" result="effect1_backgroundBlur_16_12"/>
<feBlend mode="normal" in="SourceGraphic" in2="effect1_backgroundBlur_16_12" result="shape"/>
</filter>
<filter id="filter2_b_16_12" x="-4.98688" y="-19.5" width="211.425" height="108" filterUnits="userSpaceOnUse" color-interpolation-filters="sRGB">
<feFlood flood-opacity="0" result="BackgroundImageFix"/>
<feGaussianBlur in="BackgroundImageFix" stdDeviation="10"/>
<feComposite in2="SourceAlpha" operator="in" result="effect1_backgroundBlur_16_12"/>
<feBlend mode="normal" in="SourceGraphic" in2="effect1_backgroundBlur_16_12" result="shape"/>
</filter>
<linearGradient id="paint0_linear_16_12" x1="70.2044" y1="12" x2="70.2044" y2="93" gradientUnits="userSpaceOnUse">
<stop stop-color="#191A20"/>
<stop offset="1" stop-color="#39393E"/>
</linearGradient>
<linearGradient id="paint1_linear_16_12" x1="92.5" y1="12" x2="92.5" y2="83" gradientUnits="userSpaceOnUse">
<stop stop-color="#17181C"/>
<stop offset="1" stop-color="#191A1F"/>
</linearGradient>
<linearGradient id="paint2_linear_16_12" x1="92.5" y1="12" x2="92.5" y2="83" gradientUnits="userSpaceOnUse">
<stop stop-color="#66676D"/>
<stop offset="1" stop-opacity="0"/>
</linearGradient>
<linearGradient id="paint3_linear_16_12" x1="92.5" y1="1" x2="92.5" y2="68" gradientUnits="userSpaceOnUse">
<stop stop-color="#34363E"/>
<stop offset="1" stop-color="#25272F"/>
</linearGradient>
<linearGradient id="paint4_linear_16_12" x1="92.5" y1="1" x2="92.5" y2="68" gradientUnits="userSpaceOnUse">
<stop stop-color="#66676D"/>
<stop offset="1" stop-opacity="0"/>
</linearGradient>
</defs>
</svg>
