<svg width="119" height="55" viewBox="0 0 119 55" fill="none" xmlns="http://www.w3.org/2000/svg">
<path d="M21.9881 17.892C22.5863 15.7237 24.5588 14.2217 26.8081 14.2217L112.435 14.2217C115.737 14.2217 118.133 17.3673 117.255 20.5513L112.013 39.5513C111.415 41.7197 109.443 43.2217 107.193 43.2217H21.5667C18.2638 43.2217 15.8684 40.076 16.7467 36.892L21.9881 17.892Z" fill="url(#paint0_linear_5_2)"/>
<circle cx="48" cy="29.2217" r="11.5" fill="url(#paint1_linear_5_2)" stroke="black"/>
<path fill-rule="evenodd" clip-rule="evenodd" d="M49.1301 24.2659C49.2014 24.2287 49.2816 24.2145 49.3607 24.2251L52.8532 24.6914C52.9845 24.709 53.0992 24.7928 53.16 24.9159L54.9548 28.5431C55.042 28.7193 55.0001 28.9353 54.8542 29.0619L47.8691 35.1246C47.7579 35.2211 47.6058 35.2479 47.4705 35.1949L41.2616 32.7594C41.1588 32.7191 41.0761 32.6366 41.0328 32.531C40.9894 32.4254 40.9891 32.3058 41.0319 32.2L42.8751 27.64C42.9126 27.5473 42.9805 27.4717 43.0666 27.4268L49.1301 24.2659ZM49.3799 25.0782L44.4154 27.6662L46.8687 28.2869L51.5844 25.3726L49.3799 25.0782ZM52.6403 25.6999L47.3636 28.9608L47.9258 33.9794L54.0898 28.6293L52.6403 25.6999ZM47.1348 34.1621L46.5653 29.0782L43.4841 28.2986L41.9379 32.1237L47.1348 34.1621Z" fill="black"/>
<path d="M14.2157 34.4263L7.66743 32.7216L5.75658 26.7217L7.66743 27.2872L27.7582 5.7215L29.1783 9.20585L25.2559 24.7216L31.4491 26.2216L31.4491 31.3519L11.2559 51.2216L9.25586 46.7216L14.2157 34.4263Z" fill="#5B6209" stroke="black"/>
<path d="M5.66684 27.287L28.5238 4.18193L23.1394 24.2768L30.7946 26.328L8.49735 48.3011L13.5613 29.4023L5.66684 27.287Z" fill="#FDFE03" stroke="black"/>
<defs>
<linearGradient id="paint0_linear_5_2" x1="25.0006" y1="28.7217" x2="115.001" y2="28.7217" gradientUnits="userSpaceOnUse">
<stop stop-color="#979802"/>
<stop offset="1" stop-color="#FDFE03"/>
</linearGradient>
<linearGradient id="paint1_linear_5_2" x1="37" y1="29.2217" x2="59" y2="29.2217" gradientUnits="userSpaceOnUse">
<stop stop-color="#FDF621"/>
<stop offset="0.595" stop-color="#FDFCC3"/>
<stop offset="1" stop-color="#FDF973"/>
</linearGradient>
</defs>
</svg>
