<svg width="115" height="55" viewBox="0 0 115 55" fill="none" xmlns="http://www.w3.org/2000/svg">
<path d="M21.9875 17.892C22.5857 15.7237 24.5581 14.2217 26.8075 14.2217L108.434 14.2217C111.737 14.2217 114.132 17.3673 113.254 20.5513L108.013 39.5513C107.414 41.7197 105.442 43.2217 103.193 43.2217H21.5661C18.2632 43.2217 15.8678 40.076 16.7461 36.892L21.9875 17.892Z" fill="url(#paint0_linear_0_3)"/>
<path d="M14.2151 34.4263L7.6668 32.7216L5.75594 26.7218L7.6668 27.2872L27.7576 5.72151L29.1777 9.20586L25.2552 24.7216L31.4485 26.2216L31.4485 31.3519L11.2552 51.2216L9.25523 46.7216L14.2151 34.4263Z" fill="#5B6209" stroke="black"/>
<path d="M5.66618 27.287L28.5232 4.18193L23.1388 24.2768L30.794 26.328L8.49669 48.3011L13.5606 29.4023L5.66618 27.287Z" fill="#FDFE03" stroke="black"/>
<defs>
<linearGradient id="paint0_linear_0_3" x1="25" y1="28.7217" x2="115" y2="28.7217" gradientUnits="userSpaceOnUse">
<stop stop-color="#979802"/>
<stop offset="1" stop-color="#FDFE03"/>
</linearGradient>
</defs>
</svg>
