<svg width="99" height="101" viewBox="0 0 99 101" fill="none" xmlns="http://www.w3.org/2000/svg">
<path fill-rule="evenodd" clip-rule="evenodd" d="M47 0H52V3H54V6H56V9H59V12H61V15H63V18H65V21H66V24H67V37H66H65V40H64V43H63V46H61V49H59V52H40V49H38V46H36V43H35V40H34V37H33H32V24H33V21H34V18H36V15H38V12H40V9H43V6H45V3H47V0Z" fill="#EBF479"/>
<path fill-rule="evenodd" clip-rule="evenodd" d="M24 59H75V63H67V66H56V76H61V79H64V82H67V85H69V88H71V91H72V94H73V97V98V101H26V98V97V94H27V91H28V88H30V85H32V82H35V79H38V76H43V66H32V63H24V59Z" fill="#3C445E"/>
<rect x="8" y="10" width="5" height="4" fill="#EBF479"/>
<rect x="8" y="13" width="7" height="4" fill="#EBF479"/>
<rect x="6" y="16" width="10" height="4" fill="#EBF479"/>
<rect x="4" y="19" width="13" height="4" fill="#EBF479"/>
<rect x="2" y="22" width="16" height="4" fill="#EBF479"/>
<rect x="1" y="29" width="20" height="7" fill="#EBF479"/>
<rect x="3" y="34" width="20" height="7" fill="#EBF479"/>
<rect y="26" width="19" height="4" fill="#EBF479"/>
<rect x="6" y="40" width="18" height="4" fill="#EBF479"/>
<rect x="11" y="43" width="16" height="4" fill="#EBF479"/>
<rect x="15" y="45" width="14" height="4" fill="#EBF479"/>
<rect x="19" y="47" width="13" height="4" fill="#EBF479"/>
<rect width="5" height="4" transform="matrix(-1 0 0 1 91 10)" fill="#EBF479"/>
<rect width="7" height="4" transform="matrix(-1 0 0 1 91 13)" fill="#EBF479"/>
<rect width="10" height="4" transform="matrix(-1 0 0 1 93 16)" fill="#EBF479"/>
<rect width="13" height="4" transform="matrix(-1 0 0 1 95 19)" fill="#EBF479"/>
<rect width="16" height="4" transform="matrix(-1 0 0 1 97 22)" fill="#EBF479"/>
<rect width="20" height="7" transform="matrix(-1 0 0 1 98 29)" fill="#EBF479"/>
<rect width="20" height="7" transform="matrix(-1 0 0 1 96 34)" fill="#EBF479"/>
<rect width="19" height="4" transform="matrix(-1 0 0 1 99 26)" fill="#EBF479"/>
<rect width="18" height="4" transform="matrix(-1 0 0 1 93 40)" fill="#EBF479"/>
<rect width="16" height="4" transform="matrix(-1 0 0 1 88 43)" fill="#EBF479"/>
<rect width="14" height="4" transform="matrix(-1 0 0 1 84 45)" fill="#EBF479"/>
<rect width="13" height="4" transform="matrix(-1 0 0 1 80 47)" fill="#EBF479"/>
</svg>
