<svg width="311" height="104" viewBox="0 0 311 104" fill="none" xmlns="http://www.w3.org/2000/svg">
<path d="M83.4375 95.1732L90.5927 82.7593L97.2307 95.1732H83.4375Z" fill="#474E6D"/>
<path d="M261.485 23.2303L265.517 4.58623L279.065 9.8885L261.485 23.2303Z" fill="#474E6D"/>
<path d="M44.0477 103.231L48.0796 84.5867L61.6273 89.889L44.0477 103.231Z" fill="#474E6D"/>
<path fill-rule="evenodd" clip-rule="evenodd" d="M291.27 78.7554L283.436 87.4289C282.903 88.0183 282.072 88.2396 281.324 87.9734C269.844 83.8899 257.831 76.091 247 67.2131L260.348 66.9595L260.14 53.6985L274.55 49.8547L272.641 40.3369L282.21 35.3633C291.254 43.9861 300.904 51.0973 309.306 54.4164C310.677 54.9582 311.167 56.7261 310.179 57.8205L302.498 66.3246C301.187 65.498 299.634 65.0197 297.97 65.0197C293.274 65.0197 289.468 68.8259 289.468 73.5212C289.468 75.4954 290.141 77.3124 291.27 78.7554Z" fill="#474E6D"/>
<path fill-rule="evenodd" clip-rule="evenodd" d="M28.9606 78.7212L23.3056 66.9484C25.3077 65.8995 26.9325 64.1189 27.7403 61.818C29.4329 56.9962 26.8962 51.7153 22.0744 50.0226C19.7735 49.2149 17.368 49.3703 15.2978 50.2774L10.655 40.6119C10.0089 39.2669 11.0061 37.6937 12.4952 37.5992C25.3126 36.7865 44.5427 30.1229 59.5431 21.4319L60.9642 31.3903L68.7794 33.0616L65.8029 42.5428L77.8478 47.7904L74.3776 59.432C57.5846 72.5689 43.2107 77.1417 31.1755 79.8056C30.2748 80.005 29.36 79.5528 28.9606 78.7212Z" fill="#474E6D"/>
</svg>
