<svg width="384" height="80" viewBox="0 0 384 80" fill="none" xmlns="http://www.w3.org/2000/svg">
<path d="M75 79.5102L79.9052 71L84.4558 79.5102H75Z" fill="#474E6D"/>
<path d="M349.93 19.9257L352.694 7.14441L361.982 10.7793L349.93 19.9257Z" fill="#474E6D"/>
<path d="M20.1448 73.9255L22.9088 61.1442L32.1964 64.7791L20.1448 73.9255Z" fill="#474E6D"/>
<path fill-rule="evenodd" clip-rule="evenodd" d="M370.349 57.9903L365.254 63.6315C364.721 64.221 363.89 64.4434 363.144 64.1706C355.392 61.3355 347.304 56.0645 340 50.0779L349.151 49.904L349.008 40.813L358.886 38.1779L357.578 31.6531L364.138 28.2434C370.008 33.8401 376.25 38.5079 381.787 40.92C383.139 41.509 383.629 43.2881 382.64 44.3825L378.046 49.4686C377.148 48.902 376.083 48.5742 374.942 48.5742C371.724 48.5742 369.114 51.1836 369.114 54.4024C369.114 55.7556 369.575 57.0011 370.349 57.9903Z" fill="#474E6D"/>
<path fill-rule="evenodd" clip-rule="evenodd" d="M19.8537 48.4405L15.977 40.3698C17.3495 39.6507 18.4634 38.43 19.0171 36.8527C20.1775 33.5471 18.4385 29.9268 15.133 28.7664C13.5556 28.2127 11.9065 28.3192 10.4873 28.9411L7.30447 22.3149C6.86156 21.3929 7.54515 20.3144 8.56602 20.2496C17.3529 19.6925 30.536 15.1243 40.8193 9.16625L41.7936 15.9932L47.1512 17.1389L45.1107 23.6387L53.368 27.2361L50.989 35.2169C39.4767 44.2229 29.6228 47.3577 21.3722 49.1839C20.7547 49.3206 20.1275 49.0106 19.8537 48.4405Z" fill="#474E6D"/>
</svg>
