<svg width="112" height="112" viewBox="0 0 112 112" fill="none" xmlns="http://www.w3.org/2000/svg">
<path opacity="0.5" d="M53.25 2.16506C54.9517 1.18258 57.0483 1.18258 58.75 2.16506L101.247 26.701C102.949 27.6834 103.997 29.4991 103.997 31.4641V80.5359C103.997 82.5009 102.949 84.3166 101.247 85.299L58.75 109.835C57.0483 110.817 54.9517 110.817 53.25 109.835L10.7526 85.299C9.05087 84.3166 8.00258 82.5009 8.00258 80.5359V31.4641C8.00258 29.4991 9.05087 27.6834 10.7526 26.701L53.25 2.16506Z" fill="black" stroke="white"/>
<g filter="url(#filter0_d_22795_198)">
<path d="M75.9883 54.2813V57.1313H78.857V74.2875H75.9883V77.1375H81.707V57.1313H84.5758V48.5625H81.707V54.2813H75.9883Z" fill="#EBF479"/>
<path d="M81.7055 34.2749H78.8555V42.8624H81.7055V34.2749Z" fill="#EBF479"/>
<path d="M30.2773 45.7123V48.5623H35.9961V45.7123H44.5648V48.5623H35.9961V51.4311H38.8648V57.1311H35.9961V59.9998H38.8648V77.1373H35.9961V80.0061H41.7148V82.8561H47.4336V65.7186H53.1336V62.8498H47.4336V57.1311H53.1336V54.2811H47.4336V51.4311H64.5711V54.2811H58.8523V57.1311H64.5711V62.8498H58.8523V65.7186H64.5711V80.0061H61.7211V82.8561H58.8523V85.7061H64.5711V82.8561H70.2898V80.0061H75.9898V77.1373H73.1398V59.9998H75.9898V57.1311H73.1398V51.4311H75.9898V48.5623H67.4211V45.7123H75.9898V48.5623H81.7086V45.7123H78.8586V42.8623H75.9898V37.1436H70.2898V39.9936H64.5711V42.8623H61.7211V37.1436H58.8523V42.8623H53.1336V37.1436H50.2836V45.7123H47.4336V39.9936H41.7148V37.1436H35.9961V42.8623H33.1461V45.7123H30.2773ZM53.1336 45.7123H58.8523V48.5623H53.1336V45.7123Z" fill="#EBF479"/>
<path d="M78.8555 31.4248H67.418V34.2748H78.8555V31.4248Z" fill="#EBF479"/>
<path d="M67.4188 34.2749H61.7188V37.1437H67.4188V34.2749Z" fill="#EBF479"/>
<path d="M58.8516 34.2749H53.1328V37.1437H58.8516V34.2749Z" fill="#EBF479"/>
<path d="M58.8516 85.7061H53.1328V88.5748H58.8516V85.7061Z" fill="#EBF479"/>
<path d="M58.8516 65.7188H53.1328V68.5688H58.8516V65.7188Z" fill="#EBF479"/>
<path d="M58.8516 57.1309H53.1328V59.9996H58.8516V57.1309Z" fill="#EBF479"/>
<path d="M53.1336 82.856H47.4336V85.706H53.1336V82.856Z" fill="#EBF479"/>
<path d="M50.2812 34.2749H44.5625V37.1437H50.2812V34.2749Z" fill="#EBF479"/>
<path d="M44.5633 31.4248H33.1445V34.2748H44.5633V31.4248Z" fill="#EBF479"/>
<path d="M33.1445 74.2875V57.1313H35.9945V54.2813H30.2758V48.5625H27.4258V57.1313H30.2758V77.1375H35.9945V74.2875H33.1445Z" fill="#EBF479"/>
<path d="M33.1461 34.2749H30.2773V42.8624H33.1461V34.2749Z" fill="#EBF479"/>
</g>
<defs>
<filter id="filter0_d_22795_198" x="7.42578" y="11.4248" width="97.1484" height="97.1499" filterUnits="userSpaceOnUse" color-interpolation-filters="sRGB">
<feFlood flood-opacity="0" result="BackgroundImageFix"/>
<feColorMatrix in="SourceAlpha" type="matrix" values="0 0 0 0 0 0 0 0 0 0 0 0 0 0 0 0 0 0 127 0" result="hardAlpha"/>
<feOffset/>
<feGaussianBlur stdDeviation="10"/>
<feComposite in2="hardAlpha" operator="out"/>
<feColorMatrix type="matrix" values="0 0 0 0 0.921569 0 0 0 0 0.956863 0 0 0 0 0.47451 0 0 0 0.6 0"/>
<feBlend mode="normal" in2="BackgroundImageFix" result="effect1_dropShadow_22795_198"/>
<feBlend mode="normal" in="SourceGraphic" in2="effect1_dropShadow_22795_198" result="shape"/>
</filter>
</defs>
</svg>
