<svg width="675" height="39" viewBox="0 0 675 39" fill="none" xmlns="http://www.w3.org/2000/svg">
<path fill-rule="evenodd" clip-rule="evenodd" d="M281.089 15.2158L274.556 19.5306C274.367 19.6593 274.367 19.9393 274.556 20.068L281.15 24.4207C281.483 24.6402 281.687 25.0187 281.687 25.4199V32.2554C281.687 32.5279 281.377 32.6945 281.15 32.5355L269.484 24.398C269.182 24.186 269 23.8454 269 23.4744V16.1317C269 15.7608 269.182 15.4202 269.484 15.2082L281.15 7.06311C281.377 6.90415 281.687 7.06311 281.687 7.34319V14.1106C281.687 14.5572 281.46 14.9736 281.089 15.2234V15.2158ZM382.66 24.0347L385.711 28.3495C385.824 28.5084 386.014 28.6069 386.211 28.6069H391.244C391.744 28.6069 392.032 28.0467 391.744 27.6379L386.264 19.9016L391.358 11.9382C391.623 11.5294 391.328 10.9919 390.843 10.9919H386.021C385.802 10.9919 385.605 11.1055 385.491 11.2947L383.084 15.3976L380.155 11.2569C380.041 11.0979 379.852 10.9995 379.655 10.9995H374.621C374.122 10.9995 373.834 11.5597 374.122 11.9684L379.481 19.5307L374.288 27.6682C374.023 28.077 374.318 28.6144 374.803 28.6144H379.625C379.844 28.6144 380.041 28.5009 380.155 28.3116L382.66 24.0347ZM309.271 24.4283H313.98C314.32 24.4283 314.593 24.7008 314.593 25.0415V27.9937C314.593 28.3343 314.32 28.6068 313.98 28.6068H304.366C304.025 28.6068 303.753 28.3343 303.753 27.9937V11.6126C303.753 11.272 304.025 10.9995 304.366 10.9995H308.658C308.999 10.9995 309.271 11.272 309.271 11.6126V24.4283ZM334.532 11.8927L328.673 23.2625V27.9937C328.673 28.3343 328.4 28.6068 328.059 28.6068H323.767C323.427 28.6068 323.154 28.3343 323.154 27.9937V23.2625L317.295 11.8927C317.083 11.4839 317.378 10.9995 317.84 10.9995H322.753C322.995 10.9995 323.215 11.1433 323.313 11.3628L325.963 17.2446L328.612 11.3628C328.71 11.1433 328.93 10.9995 329.172 10.9995H333.987C334.448 10.9995 334.744 11.4839 334.532 11.8927ZM349.679 28.6068H354.251C354.591 28.6068 354.864 28.3343 354.864 27.9937V11.6126C354.864 11.272 354.591 10.9995 354.251 10.9995H349.959C349.618 10.9995 349.346 11.272 349.346 11.6126V20.0075L343.683 11.2796C343.57 11.1055 343.381 10.9995 343.169 10.9995H338.596C338.256 10.9995 337.983 11.272 337.983 11.6126V28.0012C337.983 28.3419 338.256 28.6144 338.596 28.6144H342.889C343.229 28.6144 343.502 28.3419 343.502 28.0012V19.7577L349.164 28.3343C349.277 28.5009 349.474 28.6068 349.679 28.6068ZM364.622 15.3975V17.5625H369.482C369.822 17.5625 370.095 17.835 370.095 18.1756V21.0976C370.095 21.4382 369.822 21.7107 369.482 21.7107H364.622V24.2012H370.223C370.564 24.2012 370.837 24.4737 370.837 24.8144V27.9861C370.837 28.3267 370.564 28.5993 370.223 28.5993H359.709C359.368 28.5993 359.096 28.3267 359.096 27.9861V11.6126C359.096 11.272 359.368 10.9995 359.709 10.9995H370.223C370.564 10.9995 370.837 11.272 370.837 11.6126V14.7844C370.837 15.125 370.564 15.3975 370.223 15.3975H364.622ZM296.781 23.4745V16.1318C296.781 15.7609 296.6 15.4202 296.297 15.2083L284.624 7.06319C284.397 6.90423 284.087 7.07076 284.087 7.34327V14.1107C284.087 14.5573 284.314 14.9736 284.685 15.2234L291.218 19.5382C291.407 19.6669 291.407 19.947 291.218 20.0757L284.624 24.4283C284.291 24.6478 284.087 25.0263 284.087 25.4275V32.2631C284.087 32.5431 284.397 32.7021 284.624 32.5431L296.297 24.398C296.6 24.1861 296.781 23.8454 296.781 23.4745Z" fill="white"/>
<g clip-path="url(#clip0_14_2)">
<path fill-rule="evenodd" clip-rule="evenodd" d="M16.7487 9.84787C14.2423 9.84787 12.2103 11.8922 12.2103 14.4139V18.7114C12.2103 21.2331 14.2423 23.2775 16.7487 23.2775C19.2551 23.2775 21.2871 21.2331 21.2871 18.7114V14.4139C21.2871 11.8922 19.2551 9.84787 16.7487 9.84787ZM16.7487 16.5627C17.9282 16.5627 18.8844 15.6006 18.8844 14.4139C18.8844 13.2273 17.9282 12.2652 16.7487 12.2652C15.5692 12.2652 14.613 13.2273 14.613 14.4139C14.613 15.6006 15.5692 16.5627 16.7487 16.5627Z" fill="#D22B25"/>
<path fill-rule="evenodd" clip-rule="evenodd" d="M16.2159 14.6836C16.6582 14.6836 17.0167 14.3229 17.0167 13.8778C17.0167 13.6728 16.9407 13.4857 16.8153 13.3435C17.375 13.3771 17.8186 13.8445 17.8186 14.416C17.8186 15.0093 17.3405 15.4903 16.7507 15.4903C16.1826 15.4903 15.7182 15.0441 15.6848 14.481C15.8261 14.6071 16.0121 14.6836 16.2159 14.6836Z" fill="white"/>
<path fill-rule="evenodd" clip-rule="evenodd" d="M11.0872 9.11227C11.0176 9.23111 10.8891 9.31085 10.742 9.31085C10.5208 9.31085 10.3416 9.13046 10.3416 8.90796C10.3416 8.68545 10.5208 8.50507 10.742 8.50507C10.8894 8.50507 11.0181 8.58511 11.0876 8.70432C12.5938 8.72356 13.5253 9.30135 14.0637 10.0469C14.6033 10.7943 14.7298 11.6852 14.6824 12.2815L14.2782 12.2489C14.3198 11.7261 14.206 10.9382 13.7357 10.2867C13.2815 9.65772 12.4774 9.13113 11.0872 9.11227Z" fill="white"/>
<path fill-rule="evenodd" clip-rule="evenodd" d="M11.0872 9.11227C11.0176 9.23111 10.8891 9.31085 10.742 9.31085C10.5208 9.31085 10.3416 9.13046 10.3416 8.90796C10.3416 8.68545 10.5208 8.50507 10.742 8.50507C10.8894 8.50507 11.0181 8.58511 11.0876 8.70432C12.5938 8.72356 13.5253 9.30135 14.0637 10.0469C14.6033 10.7943 14.7298 11.6852 14.6824 12.2815L14.2782 12.2489C14.3198 11.7261 14.206 10.9382 13.7357 10.2867C13.2815 9.65772 12.4774 9.13113 11.0872 9.11227Z" fill="white"/>
<path fill-rule="evenodd" clip-rule="evenodd" d="M22.484 9.11227C22.5536 9.23111 22.6821 9.31085 22.8292 9.31085C23.0503 9.31085 23.2296 9.13046 23.2296 8.90796C23.2296 8.68545 23.0503 8.50507 22.8292 8.50507C22.6818 8.50507 22.5531 8.58511 22.4835 8.70432C20.9774 8.72356 20.0459 9.30135 19.5075 10.0469C18.9679 10.7943 18.8414 11.6852 18.8888 12.2815L19.2929 12.2489C19.2514 11.7261 19.3652 10.9382 19.8355 10.2867C20.2896 9.65772 21.0938 9.13113 22.484 9.11227Z" fill="white"/>
<path fill-rule="evenodd" clip-rule="evenodd" d="M22.484 9.11227C22.5536 9.23111 22.6821 9.31085 22.8292 9.31085C23.0503 9.31085 23.2296 9.13046 23.2296 8.90796C23.2296 8.68545 23.0503 8.50507 22.8292 8.50507C22.6818 8.50507 22.5531 8.58511 22.4835 8.70432C20.9774 8.72356 20.0459 9.30135 19.5075 10.0469C18.9679 10.7943 18.8414 11.6852 18.8888 12.2815L19.2929 12.2489C19.2514 11.7261 19.3652 10.9382 19.8355 10.2867C20.2896 9.65772 21.0938 9.13113 22.484 9.11227Z" fill="white"/>
<path fill-rule="evenodd" clip-rule="evenodd" d="M16.4823 4.88014C10.5038 4.88014 5.67032 9.71399 5.67032 15.6604C5.67032 16.9368 5.95657 18.4811 6.37787 19.6849C6.709 19.5616 7.05183 19.4603 7.40633 19.3845C11.8112 18.444 20.7546 18.4448 25.2929 19.1164C25.7497 19.184 26.1911 19.2896 26.6164 19.4271C27.0546 18.2556 27.2944 16.9869 27.2944 15.6604C27.2944 9.71399 22.461 4.88014 16.4823 4.88014ZM3.80157 15.6604C3.80157 17.2384 4.1623 19.1064 4.70007 20.5438C2.59212 21.93 1.1092 24.1178 0.258109 25.6309C0.0870416 25.935 0.259661 26.3093 0.602428 26.3657C1.70619 26.5475 3.75718 26.7746 6.90786 26.9421L4.41961 32.6364C4.15259 33.2475 4.4285 33.9606 5.03588 34.2293C5.64326 34.498 6.3521 34.2204 6.61912 33.6093L9.48319 27.0549C11.2777 27.1181 13.3383 27.1613 15.6822 27.1724V34.425C15.6822 35.0925 16.22 35.6336 16.8835 35.6336C17.547 35.6336 18.0849 35.0925 18.0849 34.425V27.173C20.4086 27.162 22.4442 27.1187 24.2118 27.0562L27.0753 33.6093C27.3423 34.2204 28.0511 34.498 28.6585 34.2293C29.2658 33.9606 29.5418 33.2475 29.2748 32.6364L26.7867 26.9424C29.9595 26.7715 31.9658 26.5379 33.0006 26.3543C33.3092 26.2994 33.4789 25.9809 33.3476 25.6946C32.6153 24.0965 30.8603 21.6286 28.3283 20.1872C28.8679 18.7804 29.1632 17.2539 29.1632 15.6604C29.1632 8.66094 23.4784 3 16.4823 3C9.48628 3 3.80157 8.66094 3.80157 15.6604Z" fill="white"/>
</g>
<path d="M58.7614 19.5455C58.7614 21.5829 58.3797 23.3279 57.6165 24.7805C56.8594 26.227 55.8253 27.335 54.5142 28.1044C53.2093 28.8738 51.7289 29.2585 50.0732 29.2585C48.4174 29.2585 46.9339 28.8738 45.6229 28.1044C44.3179 27.3288 43.2839 26.2178 42.5206 24.7713C41.7635 23.3187 41.3849 21.5767 41.3849 19.5455C41.3849 17.508 41.7635 15.7661 42.5206 14.3196C43.2839 12.867 44.3179 11.7559 45.6229 10.9865C46.9339 10.2171 48.4174 9.83239 50.0732 9.83239C51.7289 9.83239 53.2093 10.2171 54.5142 10.9865C55.8253 11.7559 56.8594 12.867 57.6165 14.3196C58.3797 15.7661 58.7614 17.508 58.7614 19.5455ZM55.3175 19.5455C55.3175 18.1113 55.0928 16.9018 54.6435 15.9169C54.2003 14.9259 53.5848 14.178 52.7969 13.6733C52.009 13.1624 51.1011 12.907 50.0732 12.907C49.0452 12.907 48.1373 13.1624 47.3494 13.6733C46.5616 14.178 45.9429 14.9259 45.4936 15.9169C45.0504 16.9018 44.8288 18.1113 44.8288 19.5455C44.8288 20.9796 45.0504 22.1922 45.4936 23.1832C45.9429 24.1681 46.5616 24.916 47.3494 25.4268C48.1373 25.9316 49.0452 26.1839 50.0732 26.1839C51.1011 26.1839 52.009 25.9316 52.7969 25.4268C53.5848 24.916 54.2003 24.1681 54.6435 23.1832C55.0928 22.1922 55.3175 20.9796 55.3175 19.5455ZM61.8521 29V14.8182H65.0929V17.1818H65.2406C65.4991 16.3632 65.9423 15.7322 66.5701 15.2891C67.2041 14.8397 67.9274 14.6151 68.7399 14.6151C68.9245 14.6151 69.1307 14.6243 69.3585 14.6428C69.5924 14.6551 69.7863 14.6766 69.9402 14.7074V17.782C69.7986 17.7327 69.5739 17.6896 69.2662 17.6527C68.9645 17.6096 68.6722 17.5881 68.389 17.5881C67.7797 17.5881 67.2318 17.7204 66.7456 17.9851C66.2654 18.2436 65.8869 18.6037 65.6099 19.0653C65.3329 19.527 65.1944 20.0594 65.1944 20.6626V29H61.8521ZM72.3084 29V10.0909H75.6507V17.1634H75.7892C75.9616 16.8187 76.2047 16.4524 76.5186 16.0646C76.8326 15.6707 77.2573 15.3352 77.7928 15.0582C78.3283 14.7751 79.0115 14.6335 79.8425 14.6335C80.9382 14.6335 81.9261 14.9136 82.8063 15.4737C83.6927 16.0277 84.3944 16.8494 84.9114 17.9389C85.4346 19.0223 85.6962 20.3518 85.6962 21.9276C85.6962 23.4848 85.4408 24.8082 84.9299 25.8977C84.419 26.9872 83.7234 27.8182 82.8432 28.3906C81.963 28.9631 80.9659 29.2493 79.8517 29.2493C79.0392 29.2493 78.3652 29.1139 77.8297 28.843C77.2942 28.5722 76.8633 28.246 76.5371 27.8643C76.217 27.4766 75.9677 27.1103 75.7892 26.7656H75.5953V29H72.3084ZM75.5861 21.9091C75.5861 22.8262 75.7154 23.6295 75.9739 24.3189C76.2386 25.0083 76.6171 25.5469 77.1096 25.9347C77.6081 26.3163 78.2114 26.5071 78.9192 26.5071C79.6578 26.5071 80.2765 26.3101 80.775 25.9162C81.2736 25.5161 81.6491 24.9714 81.9015 24.282C82.16 23.5864 82.2892 22.7955 82.2892 21.9091C82.2892 21.0289 82.1631 20.2472 81.9107 19.5639C81.6583 18.8807 81.2828 18.3452 80.7843 17.9574C80.2857 17.5696 79.664 17.3757 78.9192 17.3757C78.2052 17.3757 77.5989 17.5634 77.1003 17.9389C76.6017 18.3144 76.2232 18.8407 75.9647 19.5178C75.7123 20.1948 75.5861 20.992 75.5861 21.9091ZM88.5376 29V14.8182H91.88V29H88.5376ZM90.218 12.8054C89.6887 12.8054 89.2332 12.63 88.8516 12.2791C88.4699 11.9221 88.2791 11.4943 88.2791 10.9957C88.2791 10.491 88.4699 10.0632 88.8516 9.71236C89.2332 9.35535 89.6887 9.17685 90.218 9.17685C90.7536 9.17685 91.209 9.35535 91.5845 9.71236C91.9661 10.0632 92.157 10.491 92.157 10.9957C92.157 11.4943 91.9661 11.9221 91.5845 12.2791C91.209 12.63 90.7536 12.8054 90.218 12.8054ZM102.399 14.8182V17.4034H94.2459V14.8182H102.399ZM96.2587 11.4205H99.601V24.7344C99.601 25.1837 99.6687 25.5284 99.8042 25.7685C99.9457 26.0024 100.13 26.1624 100.358 26.2486C100.586 26.3348 100.838 26.3778 101.115 26.3778C101.325 26.3778 101.515 26.3625 101.688 26.3317C101.866 26.3009 102.002 26.2732 102.094 26.2486L102.657 28.8615C102.479 28.9231 102.223 28.9908 101.891 29.0646C101.565 29.1385 101.164 29.1816 100.691 29.1939C99.8534 29.2185 99.0994 29.0923 98.4284 28.8153C97.7575 28.5322 97.2251 28.0952 96.8311 27.5043C96.4434 26.9134 96.2525 26.1747 96.2587 25.2884V11.4205ZM111.32 29.277C109.898 29.277 108.67 28.9815 107.636 28.3906C106.608 27.7936 105.817 26.9503 105.263 25.8608C104.709 24.7652 104.432 23.4756 104.432 21.9922C104.432 20.5334 104.709 19.2531 105.263 18.1513C105.823 17.0433 106.605 16.1816 107.608 15.5661C108.612 14.9444 109.79 14.6335 111.145 14.6335C112.019 14.6335 112.843 14.7751 113.619 15.0582C114.401 15.3352 115.09 15.7661 115.687 16.3509C116.29 16.9356 116.764 17.6804 117.109 18.5852C117.454 19.4839 117.626 20.5549 117.626 21.7983V22.8232H106.002V20.5703H114.422C114.416 19.9302 114.278 19.3608 114.007 18.8622C113.736 18.3575 113.357 17.9605 112.871 17.6712C112.391 17.3819 111.831 17.2372 111.191 17.2372C110.507 17.2372 109.907 17.4034 109.39 17.7358C108.873 18.062 108.47 18.4929 108.181 19.0284C107.898 19.5578 107.753 20.1394 107.747 20.7734V22.7401C107.747 23.5649 107.898 24.2727 108.199 24.8636C108.501 25.4484 108.922 25.8977 109.464 26.2116C110.006 26.5194 110.64 26.6733 111.366 26.6733C111.852 26.6733 112.292 26.6056 112.686 26.4702C113.08 26.3286 113.422 26.1224 113.711 25.8516C114.001 25.5807 114.219 25.2453 114.367 24.8452L117.488 25.196C117.291 26.0208 116.915 26.741 116.361 27.3565C115.813 27.9659 115.112 28.4399 114.256 28.7784C113.4 29.1108 112.422 29.277 111.32 29.277ZM120.454 29V14.8182H123.694V17.1818H123.842C124.101 16.3632 124.544 15.7322 125.172 15.2891C125.806 14.8397 126.529 14.6151 127.341 14.6151C127.526 14.6151 127.732 14.6243 127.96 14.6428C128.194 14.6551 128.388 14.6766 128.542 14.7074V17.782C128.4 17.7327 128.175 17.6896 127.868 17.6527C127.566 17.6096 127.274 17.5881 126.991 17.5881C126.381 17.5881 125.833 17.7204 125.347 17.9851C124.867 18.2436 124.488 18.6037 124.211 19.0653C123.934 19.527 123.796 20.0594 123.796 20.6626V29H120.454ZM137.359 29V10.0909H149.473V12.9624H140.785V18.0959H148.642V20.9673H140.785V29H137.359ZM152.446 29V14.8182H155.788V29H152.446ZM154.126 12.8054C153.597 12.8054 153.141 12.63 152.76 12.2791C152.378 11.9221 152.187 11.4943 152.187 10.9957C152.187 10.491 152.378 10.0632 152.76 9.71236C153.141 9.35535 153.597 9.17685 154.126 9.17685C154.662 9.17685 155.117 9.35535 155.493 9.71236C155.874 10.0632 156.065 10.491 156.065 10.9957C156.065 11.4943 155.874 11.9221 155.493 12.2791C155.117 12.63 154.662 12.8054 154.126 12.8054ZM162.567 20.6903V29H159.225V14.8182H162.42V17.228H162.586C162.912 16.4339 163.432 15.803 164.146 15.3352C164.866 14.8674 165.756 14.6335 166.815 14.6335C167.793 14.6335 168.646 14.8428 169.372 15.2614C170.105 15.6799 170.671 16.2862 171.071 17.0803C171.477 17.8743 171.677 18.8376 171.671 19.9702V29H168.329V20.4872C168.329 19.5393 168.083 18.7976 167.59 18.2621C167.104 17.7266 166.43 17.4588 165.568 17.4588C164.983 17.4588 164.463 17.5881 164.008 17.8466C163.558 18.099 163.205 18.4652 162.946 18.9453C162.694 19.4254 162.567 20.0071 162.567 20.6903ZM179.15 29.2862C178.251 29.2862 177.442 29.1262 176.722 28.8061C176.008 28.4799 175.441 27.9998 175.023 27.3658C174.61 26.7318 174.404 25.95 174.404 25.0206C174.404 24.2204 174.552 23.5587 174.847 23.0355C175.143 22.5123 175.546 22.0938 176.057 21.7798C176.568 21.4659 177.143 21.2289 177.783 21.0689C178.43 20.9027 179.098 20.7827 179.787 20.7088C180.618 20.6226 181.292 20.5457 181.809 20.478C182.326 20.4041 182.701 20.2933 182.935 20.1456C183.175 19.9917 183.295 19.7547 183.295 19.4347V19.3793C183.295 18.6837 183.089 18.1451 182.677 17.7635C182.264 17.3819 181.67 17.1911 180.895 17.1911C180.076 17.1911 179.427 17.3696 178.947 17.7266C178.473 18.0836 178.153 18.5052 177.987 18.9915L174.866 18.5483C175.112 17.6866 175.518 16.9664 176.085 16.3878C176.651 15.803 177.343 15.366 178.162 15.0767C178.981 14.7812 179.885 14.6335 180.876 14.6335C181.56 14.6335 182.24 14.7135 182.917 14.8736C183.594 15.0336 184.213 15.2983 184.773 15.6676C185.333 16.0308 185.782 16.5263 186.121 17.1541C186.465 17.782 186.638 18.5668 186.638 19.5085V29H183.425V27.0518H183.314C183.111 27.4458 182.825 27.8151 182.455 28.1598C182.092 28.4983 181.634 28.7723 181.08 28.9815C180.532 29.1847 179.888 29.2862 179.15 29.2862ZM180.018 26.8303C180.689 26.8303 181.27 26.6979 181.763 26.4332C182.255 26.1624 182.634 25.8054 182.898 25.3622C183.169 24.919 183.305 24.4358 183.305 23.9126V22.2415C183.2 22.3277 183.022 22.4077 182.769 22.4815C182.523 22.5554 182.246 22.62 181.938 22.6754C181.63 22.7308 181.326 22.7801 181.024 22.8232C180.723 22.8662 180.461 22.9032 180.239 22.9339C179.741 23.0017 179.295 23.1125 178.901 23.2663C178.507 23.4202 178.196 23.6357 177.968 23.9126C177.74 24.1835 177.626 24.5343 177.626 24.9652C177.626 25.5807 177.851 26.0455 178.3 26.3594C178.75 26.6733 179.322 26.8303 180.018 26.8303ZM193.341 20.6903V29H189.999V14.8182H193.193V17.228H193.359C193.686 16.4339 194.206 15.803 194.92 15.3352C195.64 14.8674 196.529 14.6335 197.588 14.6335C198.567 14.6335 199.419 14.8428 200.146 15.2614C200.878 15.6799 201.444 16.2862 201.844 17.0803C202.251 17.8743 202.451 18.8376 202.445 19.9702V29H199.102V20.4872C199.102 19.5393 198.856 18.7976 198.364 18.2621C197.877 17.7266 197.203 17.4588 196.342 17.4588C195.757 17.4588 195.237 17.5881 194.781 17.8466C194.332 18.099 193.978 18.4652 193.719 18.9453C193.467 19.4254 193.341 20.0071 193.341 20.6903ZM212.028 29.277C210.613 29.277 209.397 28.9661 208.381 28.3445C207.372 27.7228 206.593 26.8641 206.045 25.7685C205.504 24.6667 205.233 23.3987 205.233 21.9645C205.233 20.5241 205.51 19.2531 206.064 18.1513C206.618 17.0433 207.4 16.1816 208.409 15.5661C209.425 14.9444 210.625 14.6335 212.01 14.6335C213.161 14.6335 214.18 14.8459 215.066 15.2706C215.959 15.6892 216.67 16.2831 217.199 17.0526C217.728 17.8158 218.03 18.7083 218.104 19.7301H214.909C214.78 19.0469 214.472 18.4775 213.986 18.022C213.506 17.5604 212.862 17.3295 212.056 17.3295C211.373 17.3295 210.773 17.5142 210.256 17.8835C209.739 18.2467 209.335 18.7699 209.046 19.4531C208.763 20.1364 208.621 20.955 208.621 21.9091C208.621 22.8755 208.763 23.7064 209.046 24.402C209.329 25.0914 209.726 25.6238 210.237 25.9993C210.754 26.3686 211.361 26.5533 212.056 26.5533C212.549 26.5533 212.989 26.4609 213.376 26.2763C213.77 26.0855 214.1 25.8116 214.364 25.4545C214.629 25.0975 214.811 24.6636 214.909 24.1527H218.104C218.024 25.156 217.728 26.0455 217.217 26.821C216.706 27.5904 216.011 28.1937 215.131 28.6307C214.25 29.0616 213.216 29.277 212.028 29.277ZM227.127 29.277C225.705 29.277 224.477 28.9815 223.443 28.3906C222.415 27.7936 221.624 26.9503 221.07 25.8608C220.516 24.7652 220.239 23.4756 220.239 21.9922C220.239 20.5334 220.516 19.2531 221.07 18.1513C221.63 17.0433 222.412 16.1816 223.415 15.5661C224.418 14.9444 225.597 14.6335 226.951 14.6335C227.825 14.6335 228.65 14.7751 229.426 15.0582C230.207 15.3352 230.897 15.7661 231.494 16.3509C232.097 16.9356 232.571 17.6804 232.916 18.5852C233.26 19.4839 233.433 20.5549 233.433 21.7983V22.8232H221.808V20.5703H230.229C230.223 19.9302 230.084 19.3608 229.813 18.8622C229.543 18.3575 229.164 17.9605 228.678 17.6712C228.198 17.3819 227.637 17.2372 226.997 17.2372C226.314 17.2372 225.714 17.4034 225.197 17.7358C224.68 18.062 224.277 18.4929 223.987 19.0284C223.704 19.5578 223.56 20.1394 223.553 20.7734V22.7401C223.553 23.5649 223.704 24.2727 224.006 24.8636C224.307 25.4484 224.729 25.8977 225.271 26.2116C225.812 26.5194 226.446 26.6733 227.173 26.6733C227.659 26.6733 228.099 26.6056 228.493 26.4702C228.887 26.3286 229.229 26.1224 229.518 25.8516C229.807 25.5807 230.026 25.2453 230.173 24.8452L233.294 25.196C233.097 26.0208 232.722 26.741 232.168 27.3565C231.62 27.9659 230.918 28.4399 230.063 28.7784C229.207 29.1108 228.228 29.277 227.127 29.277Z" fill="white"/>
<path d="M472 19C472 27.2843 465.284 34 457 34C448.716 34 442 27.2843 442 19C442 10.7157 448.716 4 457 4C465.284 4 472 10.7157 472 19Z" fill="white"/>
<path fill-rule="evenodd" clip-rule="evenodd" d="M469.14 22.5266C469.439 22.5987 469.613 22.91 469.509 23.1993C467.681 28.2489 462.844 31.8574 457.163 31.8574C451.53 31.8574 446.726 28.3089 444.864 23.3253C444.757 23.0372 444.928 22.724 445.226 22.6489C449.132 21.6654 453.22 21.1431 457.431 21.1431C461.464 21.1431 465.385 21.6222 469.14 22.5266Z" fill="#070F1E"/>
<path fill-rule="evenodd" clip-rule="evenodd" d="M444.143 19.0001C444.143 11.8993 449.9 6.14294 457.001 6.14294C464.101 6.14294 469.858 11.8993 469.858 19.0001C469.858 19.0952 469.81 19.1775 469.737 19.225L464.085 14.8018L462.773 15.589L463.56 17.9505L457.734 11.8912C457.336 11.4771 456.671 11.4829 456.28 11.9039L450.178 18.4753L452.015 14.8018L450.965 14.0147L444.265 19.2258C444.192 19.1785 444.143 19.0957 444.143 19.0001Z" fill="#39CDFF"/>
<path d="M500.656 14.96C501.765 14.96 502.745 15.1767 503.594 15.61C504.461 16.0433 505.137 16.7107 505.622 17.612C506.107 18.496 506.35 19.64 506.35 21.044V29H503.1V21.46C503.1 20.2293 502.831 19.3107 502.294 18.704C501.757 18.0973 500.985 17.794 499.98 17.794C499.269 17.794 498.637 17.95 498.082 18.262C497.545 18.574 497.12 19.0333 496.808 19.64C496.513 20.2467 496.366 21.018 496.366 21.954V29H493.116V21.46C493.116 20.2293 492.847 19.3107 492.31 18.704C491.773 18.0973 491.001 17.794 489.996 17.794C489.285 17.794 488.653 17.95 488.098 18.262C487.561 18.574 487.136 19.0333 486.824 19.64C486.529 20.2467 486.382 21.018 486.382 21.954V29H483.132V15.116H486.226V18.808L485.68 17.716C486.148 16.8147 486.824 16.13 487.708 15.662C488.609 15.194 489.632 14.96 490.776 14.96C492.076 14.96 493.203 15.2807 494.156 15.922C495.127 16.5633 495.768 17.534 496.08 18.834L494.806 18.392C495.257 17.352 496.002 16.52 497.042 15.896C498.082 15.272 499.287 14.96 500.656 14.96ZM517.054 29.182C515.512 29.182 514.16 28.8787 512.998 28.272C511.854 27.648 510.962 26.7987 510.32 25.724C509.696 24.6493 509.384 23.4273 509.384 22.058C509.384 20.6713 509.688 19.4493 510.294 18.392C510.918 17.3173 511.768 16.4767 512.842 15.87C513.934 15.2633 515.174 14.96 516.56 14.96C517.912 14.96 519.117 15.2547 520.174 15.844C521.232 16.4333 522.064 17.2653 522.67 18.34C523.277 19.4147 523.58 20.68 523.58 22.136C523.58 22.2747 523.572 22.4307 523.554 22.604C523.554 22.7773 523.546 22.942 523.528 23.098H511.958V20.94H521.812L520.538 21.616C520.556 20.8187 520.391 20.1167 520.044 19.51C519.698 18.9033 519.221 18.4267 518.614 18.08C518.025 17.7333 517.34 17.56 516.56 17.56C515.763 17.56 515.061 17.7333 514.454 18.08C513.865 18.4267 513.397 18.912 513.05 19.536C512.721 20.1427 512.556 20.862 512.556 21.694V22.214C512.556 23.046 512.747 23.7827 513.128 24.424C513.51 25.0653 514.047 25.5593 514.74 25.906C515.434 26.2527 516.231 26.426 517.132 26.426C517.912 26.426 518.614 26.3047 519.238 26.062C519.862 25.8193 520.417 25.438 520.902 24.918L522.644 26.92C522.02 27.648 521.232 28.2113 520.278 28.61C519.342 28.9913 518.268 29.182 517.054 29.182ZM534.58 14.96C535.69 14.96 536.678 15.1767 537.544 15.61C538.428 16.0433 539.122 16.7107 539.624 17.612C540.127 18.496 540.378 19.64 540.378 21.044V29H537.128V21.46C537.128 20.2293 536.834 19.3107 536.244 18.704C535.672 18.0973 534.866 17.794 533.826 17.794C533.064 17.794 532.388 17.95 531.798 18.262C531.209 18.574 530.75 19.042 530.42 19.666C530.108 20.2727 529.952 21.044 529.952 21.98V29H526.702V15.116H529.796V18.86L529.25 17.716C529.736 16.832 530.438 16.156 531.356 15.688C532.292 15.2027 533.367 14.96 534.58 14.96ZM550.403 29.182C549.068 29.182 547.863 28.8873 546.789 28.298C545.731 27.6913 544.899 26.8593 544.293 25.802C543.686 24.7447 543.383 23.4967 543.383 22.058C543.383 20.6193 543.686 19.3713 544.293 18.314C544.899 17.2567 545.731 16.4333 546.789 15.844C547.863 15.2547 549.068 14.96 550.403 14.96C551.564 14.96 552.604 15.22 553.523 15.74C554.441 16.2427 555.169 17.014 555.707 18.054C556.244 19.094 556.513 20.4287 556.513 22.058C556.513 23.67 556.253 25.0047 555.733 26.062C555.213 27.102 554.493 27.882 553.575 28.402C552.656 28.922 551.599 29.182 550.403 29.182ZM550.793 26.4C551.573 26.4 552.266 26.2267 552.873 25.88C553.497 25.5333 553.991 25.0307 554.355 24.372C554.736 23.7133 554.927 22.942 554.927 22.058C554.927 21.1567 554.736 20.3853 554.355 19.744C553.991 19.0853 553.497 18.5827 552.873 18.236C552.266 17.8893 551.573 17.716 550.793 17.716C550.013 17.716 549.311 17.8893 548.687 18.236C548.08 18.5827 547.586 19.0853 547.205 19.744C546.841 20.3853 546.659 21.1567 546.659 22.058C546.659 22.942 546.841 23.7133 547.205 24.372C547.586 25.0307 548.08 25.5333 548.687 25.88C549.311 26.2267 550.013 26.4 550.793 26.4ZM555.005 29V25.724L555.135 22.032L554.875 18.34V9.708H558.099V29H555.005ZM562.376 29V15.116H565.626V29H562.376ZM564.014 12.828C563.407 12.828 562.905 12.6373 562.506 12.256C562.125 11.8747 561.934 11.4153 561.934 10.878C561.934 10.3233 562.125 9.864 562.506 9.5C562.905 9.11867 563.407 8.928 564.014 8.928C564.621 8.928 565.115 9.11 565.496 9.474C565.895 9.82067 566.094 10.2627 566.094 10.8C566.094 11.372 565.903 11.8573 565.522 12.256C565.141 12.6373 564.638 12.828 564.014 12.828ZM577.519 29V14.336C577.519 12.88 577.944 11.7187 578.793 10.852C579.66 9.968 580.891 9.526 582.485 9.526C583.057 9.526 583.595 9.58667 584.097 9.708C584.617 9.82933 585.051 10.02 585.397 10.28L584.513 12.724C584.271 12.5333 583.993 12.3947 583.681 12.308C583.369 12.204 583.049 12.152 582.719 12.152C582.043 12.152 581.532 12.3427 581.185 12.724C580.839 13.088 580.665 13.6427 580.665 14.388V15.948L580.769 17.404V29H577.519ZM575.231 17.82V15.22H584.487V17.82H575.231ZM586.775 29V15.116H590.025V29H586.775ZM588.413 12.828C587.807 12.828 587.304 12.6373 586.905 12.256C586.524 11.8747 586.333 11.4153 586.333 10.878C586.333 10.3233 586.524 9.864 586.905 9.5C587.304 9.11867 587.807 8.928 588.413 8.928C589.02 8.928 589.514 9.11 589.895 9.474C590.294 9.82067 590.493 10.2627 590.493 10.8C590.493 11.372 590.303 11.8573 589.921 12.256C589.54 12.6373 589.037 12.828 588.413 12.828ZM602.17 14.96C603.279 14.96 604.267 15.1767 605.134 15.61C606.018 16.0433 606.711 16.7107 607.214 17.612C607.717 18.496 607.968 19.64 607.968 21.044V29H604.718V21.46C604.718 20.2293 604.423 19.3107 603.834 18.704C603.262 18.0973 602.456 17.794 601.416 17.794C600.653 17.794 599.977 17.95 599.388 18.262C598.799 18.574 598.339 19.042 598.01 19.666C597.698 20.2727 597.542 21.044 597.542 21.98V29H594.292V15.116H597.386V18.86L596.84 17.716C597.325 16.832 598.027 16.156 598.946 15.688C599.882 15.2027 600.957 14.96 602.17 14.96ZM620.645 29V26.192L620.463 25.594V20.68C620.463 19.7267 620.177 18.99 619.605 18.47C619.033 17.9327 618.166 17.664 617.005 17.664C616.225 17.664 615.454 17.7853 614.691 18.028C613.946 18.2707 613.313 18.6087 612.793 19.042L611.519 16.676C612.264 16.104 613.148 15.6793 614.171 15.402C615.211 15.1073 616.286 14.96 617.395 14.96C619.406 14.96 620.957 15.4453 622.049 16.416C623.158 17.3693 623.713 18.8513 623.713 20.862V29H620.645ZM616.277 29.182C615.237 29.182 614.327 29.0087 613.547 28.662C612.767 28.298 612.16 27.804 611.727 27.18C611.311 26.5387 611.103 25.8193 611.103 25.022C611.103 24.242 611.285 23.54 611.649 22.916C612.03 22.292 612.646 21.798 613.495 21.434C614.344 21.07 615.471 20.888 616.875 20.888H620.905V23.046H617.109C616 23.046 615.254 23.228 614.873 23.592C614.492 23.9387 614.301 24.372 614.301 24.892C614.301 25.4813 614.535 25.9493 615.003 26.296C615.471 26.6427 616.121 26.816 616.953 26.816C617.75 26.816 618.461 26.634 619.085 26.27C619.726 25.906 620.186 25.3687 620.463 24.658L621.009 26.608C620.697 27.4227 620.134 28.0553 619.319 28.506C618.522 28.9567 617.508 29.182 616.277 29.182ZM635.762 14.96C636.871 14.96 637.859 15.1767 638.726 15.61C639.61 16.0433 640.303 16.7107 640.806 17.612C641.309 18.496 641.56 19.64 641.56 21.044V29H638.31V21.46C638.31 20.2293 638.015 19.3107 637.426 18.704C636.854 18.0973 636.048 17.794 635.008 17.794C634.245 17.794 633.569 17.95 632.98 18.262C632.391 18.574 631.931 19.042 631.602 19.666C631.29 20.2727 631.134 21.044 631.134 21.98V29H627.884V15.116H630.978V18.86L630.432 17.716C630.917 16.832 631.619 16.156 632.538 15.688C633.474 15.2027 634.549 14.96 635.762 14.96ZM652.078 29.182C650.622 29.182 649.322 28.8787 648.178 28.272C647.052 27.648 646.168 26.7987 645.526 25.724C644.885 24.6493 644.564 23.4273 644.564 22.058C644.564 20.6713 644.885 19.4493 645.526 18.392C646.168 17.3173 647.052 16.4767 648.178 15.87C649.322 15.2633 650.622 14.96 652.078 14.96C653.43 14.96 654.618 15.2373 655.64 15.792C656.68 16.3293 657.469 17.1267 658.006 18.184L655.51 19.64C655.094 18.9813 654.583 18.496 653.976 18.184C653.387 17.872 652.746 17.716 652.052 17.716C651.255 17.716 650.536 17.8893 649.894 18.236C649.253 18.5827 648.75 19.0853 648.386 19.744C648.022 20.3853 647.84 21.1567 647.84 22.058C647.84 22.9593 648.022 23.7393 648.386 24.398C648.75 25.0393 649.253 25.5333 649.894 25.88C650.536 26.2267 651.255 26.4 652.052 26.4C652.746 26.4 653.387 26.244 653.976 25.932C654.583 25.62 655.094 25.1347 655.51 24.476L658.006 25.932C657.469 26.972 656.68 27.778 655.64 28.35C654.618 28.9047 653.43 29.182 652.078 29.182ZM667.138 29.182C665.596 29.182 664.244 28.8787 663.082 28.272C661.938 27.648 661.046 26.7987 660.404 25.724C659.78 24.6493 659.468 23.4273 659.468 22.058C659.468 20.6713 659.772 19.4493 660.378 18.392C661.002 17.3173 661.852 16.4767 662.926 15.87C664.018 15.2633 665.258 14.96 666.644 14.96C667.996 14.96 669.201 15.2547 670.258 15.844C671.316 16.4333 672.148 17.2653 672.754 18.34C673.361 19.4147 673.664 20.68 673.664 22.136C673.664 22.2747 673.656 22.4307 673.638 22.604C673.638 22.7773 673.63 22.942 673.612 23.098H662.042V20.94H671.896L670.622 21.616C670.64 20.8187 670.475 20.1167 670.128 19.51C669.782 18.9033 669.305 18.4267 668.698 18.08C668.109 17.7333 667.424 17.56 666.644 17.56C665.847 17.56 665.145 17.7333 664.538 18.08C663.949 18.4267 663.481 18.912 663.134 19.536C662.805 20.1427 662.64 20.862 662.64 21.694V22.214C662.64 23.046 662.831 23.7827 663.212 24.424C663.594 25.0653 664.131 25.5593 664.824 25.906C665.518 26.2527 666.315 26.426 667.216 26.426C667.996 26.426 668.698 26.3047 669.322 26.062C669.946 25.8193 670.501 25.438 670.986 24.918L672.728 26.92C672.104 27.648 671.316 28.2113 670.362 28.61C669.426 28.9913 668.352 29.182 667.138 29.182Z" fill="white"/>
<defs>
<clipPath id="clip0_14_2">
<rect width="34" height="34" fill="white" transform="translate(0 2)"/>
</clipPath>
</defs>
</svg>
