<svg width="65" height="65" viewBox="0 0 65 65" fill="none" xmlns="http://www.w3.org/2000/svg">
<g clip-path="url(#clip0_22795_302)">
<path d="M65.0016 52.6296H61.9141V61.9125H65.0016V52.6296Z" fill="white"/>
<path d="M65.0016 27.8687H61.9141V37.1515H65.0016V27.8687Z" fill="white"/>
<path d="M65.0016 3.10791H61.9141V12.3907H65.0016V3.10791Z" fill="white"/>
<path d="M61.9125 37.1516H58.8047V40.2391H61.9125V37.1516Z" fill="white"/>
<path d="M61.9125 24.761H58.8047V27.8688H61.9125V24.761Z" fill="white"/>
<path d="M61.9117 0H52.6289V3.10781H61.9117V0Z" fill="white"/>
<path d="M61.9117 61.9126H52.6289V65.0001H61.9117V61.9126Z" fill="white"/>
<path d="M58.8063 40.239H55.7188V43.3468H58.8063V40.239Z" fill="white"/>
<path d="M58.8063 21.6733H55.7188V24.7608H58.8063V21.6733Z" fill="white"/>
<path d="M55.7188 43.3469H49.5234V46.4344H55.7188V43.3469Z" fill="white"/>
<path d="M55.7188 18.5859H49.5234V21.6734H55.7188V18.5859Z" fill="white"/>
<path d="M49.5227 46.4343H43.3477V49.5218H49.5227V46.4343Z" fill="white"/>
<path d="M49.5227 15.478H43.3477V18.5858H49.5227V15.478Z" fill="white"/>
<path d="M43.3469 24.7609H40.2391V21.6734H37.1516V18.5859H27.8688V21.6734H24.7609V24.7609H21.6734V27.8688H18.5859V37.1516H21.6734V40.2391H24.7609V43.3469H27.8688V46.4344H37.1516V43.3469H40.2391V40.2391H43.3469V37.1516H46.4344V27.8688H43.3469V24.7609ZM37.1516 34.0641H34.0438V37.1516H30.9563V34.0641H27.8688V30.9563H30.9563V27.8688H34.0438V30.9563H37.1516V34.0641Z" fill="white"/>
<path d="M43.3453 49.522H21.6719V52.6298H43.3453V49.522Z" fill="white"/>
<path d="M43.3453 12.3906H21.6719V15.4781H43.3453V12.3906Z" fill="white"/>
<path d="M21.6719 46.4343H15.4766V49.5218H21.6719V46.4343Z" fill="white"/>
<path d="M21.6719 15.478H15.4766V18.5858H21.6719V15.478Z" fill="white"/>
<path d="M15.4766 43.3469H9.28125V46.4344H15.4766V43.3469Z" fill="white"/>
<path d="M15.4766 18.5859H9.28125V21.6734H15.4766V18.5859Z" fill="white"/>
<path d="M12.3922 61.9126H3.10938V65.0001H12.3922V61.9126Z" fill="white"/>
<path d="M9.28281 40.239H6.19531V43.3468H9.28281V40.239Z" fill="white"/>
<path d="M9.28281 21.6733H6.19531V24.7608H9.28281V21.6733Z" fill="white"/>
<path d="M12.3922 0H3.10938V3.10781H12.3922V0Z" fill="white"/>
<path d="M6.19687 37.1516H3.10938V40.2391H6.19687V37.1516Z" fill="white"/>
<path d="M6.19687 24.761H3.10938V27.8688H6.19687V24.761Z" fill="white"/>
<path d="M3.10781 52.6296H0V61.9125H3.10781V52.6296Z" fill="white"/>
<path d="M3.10781 27.8687H0V37.1515H3.10781V27.8687Z" fill="white"/>
<path d="M3.10781 3.10791H0V12.3907H3.10781V3.10791Z" fill="white"/>
</g>
<defs>
<clipPath id="clip0_22795_302">
<rect width="65" height="65" fill="white"/>
</clipPath>
</defs>
</svg>
