<svg width="112" height="112" viewBox="0 0 112 112" fill="none" xmlns="http://www.w3.org/2000/svg">
<path opacity="0.5" d="M53.25 2.16506C54.9517 1.18258 57.0483 1.18258 58.75 2.16506L101.247 26.701C102.949 27.6834 103.997 29.4991 103.997 31.4641V80.5359C103.997 82.5009 102.949 84.3166 101.247 85.299L58.75 109.835C57.0483 110.817 54.9517 110.817 53.25 109.835L10.7526 85.299C9.05087 84.3166 8.00258 82.5009 8.00258 80.5359V31.4641C8.00258 29.4991 9.05087 27.6834 10.7526 26.701L53.25 2.16506Z" fill="black" stroke="white"/>
<g filter="url(#filter0_d_22795_265)">
<path d="M81.2234 38.5721V36H32.5553V38.5721H30V71.8749H32.5553V74.4302H81.2234V71.8749H83.7955V38.5721H81.2234ZM81.2234 66.7475H78.6681V69.3028H76.1129V71.8749H37.6827V69.3028H35.1274V66.7475H32.5553V43.6995H35.1274V41.1274H37.6827V38.5721H76.1129V41.1274H78.6681V43.6995H81.2234V66.7475Z" fill="#EBF479"/>
<path d="M70.985 48.8101H68.4297V61.6201H70.985V48.8101Z" fill="#EBF479"/>
<path d="M68.4315 61.6206H65.8594V64.1927H68.4315V61.6206Z" fill="#EBF479"/>
<path d="M68.4315 46.2549H65.8594V48.8102H68.4315V46.2549Z" fill="#EBF479"/>
<path d="M65.86 64.1924H63.3047V66.7477H65.86V64.1924Z" fill="#EBF479"/>
<path d="M65.86 43.6997H63.3047V46.255H65.86V43.6997Z" fill="#EBF479"/>
<path d="M63.3026 56.4927H60.7305V59.0648H63.3026V56.4927Z" fill="#EBF479"/>
<path d="M63.3022 66.7476H50.4922V69.3028H63.3022V66.7476Z" fill="#EBF479"/>
<path d="M60.7335 53.9375H53.0508V56.4928H60.7335V53.9375Z" fill="#EBF479"/>
<path d="M53.0508 59.0654V61.6207H55.6229V64.1928H58.1782V61.6207H60.7335V59.0654H53.0508Z" fill="#EBF479"/>
<path d="M60.7335 51.3823V48.8102H58.1782V46.2549H55.6229V48.8102H53.0508V51.3823H60.7335Z" fill="#EBF479"/>
<path d="M63.3022 41.127H50.4922V43.6991H63.3022V41.127Z" fill="#EBF479"/>
<path d="M53.0475 51.3818H50.4922V53.9371H53.0475V51.3818Z" fill="#EBF479"/>
<path d="M50.494 64.1924H47.9219V66.7477H50.494V64.1924Z" fill="#EBF479"/>
<path d="M50.494 43.6997H47.9219V46.255H50.494V43.6997Z" fill="#EBF479"/>
<path d="M47.9225 61.6206H45.3672V64.1927H47.9225V61.6206Z" fill="#EBF479"/>
<path d="M47.9225 46.2549H45.3672V48.8102H47.9225V46.2549Z" fill="#EBF479"/>
<path d="M45.3639 48.8101H42.8086V61.6201H45.3639V48.8101Z" fill="#EBF479"/>
</g>
<defs>
<filter id="filter0_d_22795_265" x="10" y="16" width="93.7969" height="78.4302" filterUnits="userSpaceOnUse" color-interpolation-filters="sRGB">
<feFlood flood-opacity="0" result="BackgroundImageFix"/>
<feColorMatrix in="SourceAlpha" type="matrix" values="0 0 0 0 0 0 0 0 0 0 0 0 0 0 0 0 0 0 127 0" result="hardAlpha"/>
<feOffset/>
<feGaussianBlur stdDeviation="10"/>
<feComposite in2="hardAlpha" operator="out"/>
<feColorMatrix type="matrix" values="0 0 0 0 0.921569 0 0 0 0 0.956863 0 0 0 0 0.47451 0 0 0 0.6 0"/>
<feBlend mode="normal" in2="BackgroundImageFix" result="effect1_dropShadow_22795_265"/>
<feBlend mode="normal" in="SourceGraphic" in2="effect1_dropShadow_22795_265" result="shape"/>
</filter>
</defs>
</svg>
