<svg width="204" height="74" viewBox="0 0 204 74" fill="none" xmlns="http://www.w3.org/2000/svg">
<path d="M1.62576e-07 55.9889L-1.57378e-06 37.9961L-2.5552e-06 15.5439L16.5308 -3.71512e-06L50.9493 -5.2196e-06L101.899 -7.44667e-06L188.747 -1.12429e-05L203.797 15.5439L203.797 37.9961L203.797 55.9888L188.747 74L101.899 74L16.5308 74L1.62576e-07 55.9889Z" fill="#641516"/>
<path d="M6.9068 51.5752L6.9068 20.2317L21.5163 6.41493L56.8692 6.41493L101.897 6.41493L183.586 6.41492L196.887 20.2317L196.887 51.5752L183.586 67.5851L101.897 67.5851L21.5163 67.5851L6.9068 51.5752Z" fill="#641516" stroke="#9DA0C2" stroke-opacity="0.35"/>
<rect x="38.3351" y="56.2005" width="27.9141" height="27.9141" transform="rotate(-135 38.3351 56.2005)" stroke="#9DA0C2" stroke-opacity="0.35"/>
<rect x="70.6577" y="56.2005" width="27.9141" height="27.9141" transform="rotate(-135 70.6577 56.2005)" stroke="#9DA0C2" stroke-opacity="0.35"/>
<rect opacity="0.5" x="102.98" y="56.2005" width="27.9141" height="27.9141" transform="rotate(-135 102.98 56.2005)" stroke="#9DA0C2" stroke-opacity="0.35"/>
<rect x="135.305" y="56.2005" width="27.9141" height="27.9141" transform="rotate(-135 135.305 56.2005)" stroke="#9DA0C2" stroke-opacity="0.35"/>
<rect x="167.626" y="56.2005" width="27.9141" height="27.9141" transform="rotate(-135 167.626 56.2005)" stroke="#9DA0C2" stroke-opacity="0.35"/>
</svg>
