<svg width="61" height="59" viewBox="0 0 61 59" fill="none" xmlns="http://www.w3.org/2000/svg">
<path fill-rule="evenodd" clip-rule="evenodd" d="M22.592 0H27.1105V18.074H22.5938V22.5925H18.0753V4.51857H22.592V0ZM18.0729 6.77745H13.5544V11.2963H9.03767V47.4442H13.5544V51.9624H18.0729V31.6292H13.5562V27.1107H18.0729V6.77745ZM4.51849 20.3329H0V38.4069H4.51849V20.3329ZM22.5938 36.1477H18.0753V54.2217H22.592V58.7403H27.1105V40.6663H22.5938V36.1477ZM9.03732 15.8149H4.51883V42.9258H9.03732V15.8149ZM38.408 0H33.8895V18.074H38.4062V22.5925H42.9247V4.51857H38.408V0ZM42.9271 6.77745H47.4456V11.2963H51.9623V47.4442H47.4456V51.9624H42.9271V31.6292H47.4438V27.1107H42.9271V6.77745ZM56.4815 20.3329H61V38.4069H56.4815V20.3329ZM38.4062 36.1477H42.9247V54.2217H38.408V58.7403H33.8895V40.6663H38.4062V36.1477ZM51.9627 15.8149H56.4812V42.9258H51.9627V15.8149Z" fill="white"/>
</svg>
