<svg width="112" height="112" viewBox="0 0 112 112" fill="none" xmlns="http://www.w3.org/2000/svg">
<path opacity="0.5" d="M53.25 2.16506C54.9517 1.18258 57.0483 1.18258 58.75 2.16506L101.247 26.701C102.949 27.6834 103.997 29.4991 103.997 31.4641V80.5359C103.997 82.5009 102.949 84.3166 101.247 85.299L58.75 109.835C57.0483 110.817 54.9517 110.817 53.25 109.835L10.7526 85.299C9.05087 84.3166 8.00258 82.5009 8.00258 80.5359V31.4641C8.00258 29.4991 9.05087 27.6834 10.7526 26.701L53.25 2.16506Z" fill="black" stroke="white"/>
<g filter="url(#filter0_d_22795_229)">
<path d="M61.89 33.7866H68.4222V37.0419H71.6775V40.3187H74.9543V46.8509H78.2097V63.1492H74.9543V69.6813H71.6775V72.9581H68.4222V76.2135H61.89V79.4689H45.5703V82.7457H68.4222V79.4689H74.9543V76.2135H78.2097V72.9581H81.4865V69.6813H84.7419V63.1492H87.9972V46.8509H84.7419V40.3187H81.4865V37.0419H78.2097V33.7866H74.9543V30.5312H68.4222V27.2544H45.5703V30.5312H61.89V33.7866Z" fill="#EBF479"/>
<path d="M74.9565 46.8511H71.6797V63.1494H74.9565V46.8511Z" fill="#EBF479"/>
<path d="M71.6772 63.1489H68.4219V66.4257H71.6772V63.1489Z" fill="#EBF479"/>
<path d="M71.6772 43.5742H68.4219V46.851H71.6772V43.5742Z" fill="#EBF479"/>
<path d="M68.4233 66.4263H65.168V69.6816H68.4233V66.4263Z" fill="#EBF479"/>
<path d="M68.4233 40.3184H65.168V43.5737H68.4233V40.3184Z" fill="#EBF479"/>
<path d="M65.1674 69.6812H61.8906V72.9579H65.1674V69.6812Z" fill="#EBF479"/>
<path d="M65.1674 37.042H61.8906V40.3188H65.1674V37.042Z" fill="#EBF479"/>
<path d="M61.89 72.958H45.5703V76.2134H61.89V72.958Z" fill="#EBF479"/>
<path d="M61.8921 56.6387H58.6367V63.1494H61.8921V56.6387Z" fill="#EBF479"/>
<path d="M61.8921 46.8511H58.6367V50.1064H61.8921V46.8511Z" fill="#EBF479"/>
<path d="M61.89 33.7866H45.5703V37.042H61.89V33.7866Z" fill="#EBF479"/>
<path d="M52.103 66.4256V69.681H55.3584V66.4256H58.6352V63.1488H55.3584V56.6381H58.6352V53.3613H55.3584V46.8505H58.6352V43.5737H55.3584V40.3184H52.103V43.5737H48.8477V46.8505H52.103V53.3613H48.8477V56.6381H52.103V63.1488H48.8477V66.4256H52.103Z" fill="#EBF479"/>
<path d="M48.8471 59.894H45.5703V63.1494H48.8471V59.894Z" fill="#EBF479"/>
<path d="M48.8471 46.8511H45.5703V53.3618H48.8471V46.8511Z" fill="#EBF479"/>
<path d="M45.5732 76.2134H39.0625V79.4687H45.5732V76.2134Z" fill="#EBF479"/>
<path d="M45.5718 69.6812H42.3164V72.9579H45.5718V69.6812Z" fill="#EBF479"/>
<path d="M45.5718 37.042H42.3164V40.3188H45.5718V37.042Z" fill="#EBF479"/>
<path d="M45.5732 30.5312H39.0625V33.7866H45.5732V30.5312Z" fill="#EBF479"/>
<path d="M42.3179 66.4263H39.0625V69.6816H42.3179V66.4263Z" fill="#EBF479"/>
<path d="M42.3179 40.3184H39.0625V43.5737H42.3179V40.3184Z" fill="#EBF479"/>
<path d="M39.0619 72.958H35.7852V76.2134H39.0619V72.958Z" fill="#EBF479"/>
<path d="M39.0619 63.1489H35.7852V66.4257H39.0619V63.1489Z" fill="#EBF479"/>
<path d="M39.0619 43.5742H35.7852V46.851H39.0619V43.5742Z" fill="#EBF479"/>
<path d="M39.0619 33.7866H35.7852V37.042H39.0619V33.7866Z" fill="#EBF479"/>
<path d="M35.7827 69.6812H32.5273V72.9579H35.7827V69.6812Z" fill="#EBF479"/>
<path d="M35.7827 46.8511H32.5273V63.1494H35.7827V46.8511Z" fill="#EBF479"/>
<path d="M35.7827 37.042H32.5273V40.3188H35.7827V37.042Z" fill="#EBF479"/>
<path d="M32.5307 63.1489H29.2539V69.6811H32.5307V63.1489Z" fill="#EBF479"/>
<path d="M32.5307 40.3184H29.2539V46.8505H32.5307V40.3184Z" fill="#EBF479"/>
<path d="M29.2515 46.8511H25.9961V63.1494H29.2515V46.8511Z" fill="#EBF479"/>
</g>
<defs>
<filter id="filter0_d_22795_229" x="5.99609" y="7.25439" width="102" height="95.4912" filterUnits="userSpaceOnUse" color-interpolation-filters="sRGB">
<feFlood flood-opacity="0" result="BackgroundImageFix"/>
<feColorMatrix in="SourceAlpha" type="matrix" values="0 0 0 0 0 0 0 0 0 0 0 0 0 0 0 0 0 0 127 0" result="hardAlpha"/>
<feOffset/>
<feGaussianBlur stdDeviation="10"/>
<feComposite in2="hardAlpha" operator="out"/>
<feColorMatrix type="matrix" values="0 0 0 0 0.921569 0 0 0 0 0.956863 0 0 0 0 0.47451 0 0 0 0.6 0"/>
<feBlend mode="normal" in2="BackgroundImageFix" result="effect1_dropShadow_22795_229"/>
<feBlend mode="normal" in="SourceGraphic" in2="effect1_dropShadow_22795_229" result="shape"/>
</filter>
</defs>
</svg>
