<svg width="159" height="175" viewBox="0 0 159 175" fill="none" xmlns="http://www.w3.org/2000/svg">
<path d="M96.4405 56.9565C105.187 44.8485 109.273 39.7947 109.957 25.7317C109.968 25.5057 110.003 25.2774 110.063 25.0591C111.157 21.0662 113.111 13.2001 112.828 11.2159C112.536 9.176 111.249 7.20928 110.642 6.48091C110.642 2.83831 108.093 1.74545 107.728 4.29527C107.364 6.84509 103.357 15.2227 101.172 15.2227C98.9862 15.2227 99.3507 14.4942 97.8717 11.2159C96.3927 7.93755 93.887 10.4873 94.2512 15.2227C94.467 18.0283 95.7536 20.5711 96.8475 22.1813C97.4319 23.0416 97.7047 24.1156 97.3973 25.1091C94.4289 34.7026 90.438 39.2686 85.7198 43.5409C83.4173 45.6258 88.4492 53.4384 92.5756 57.4612C93.7206 58.5775 95.5041 58.2528 96.4405 56.9565Z" fill="#F4E079"/>
<path d="M110.642 6.48091C110.642 2.83831 108.093 1.74545 107.728 4.29527C107.364 6.84509 103.357 15.2227 101.172 15.2227C98.9862 15.2227 99.3507 14.4942 97.8717 11.2159C96.3927 7.93755 93.887 10.4873 94.2512 15.2227C94.467 18.0283 95.7536 20.5711 96.8475 22.1813C97.4319 23.0416 97.7047 24.1156 97.3973 25.1091C94.4289 34.7026 90.438 39.2686 85.7198 43.5409C83.4173 45.6258 88.4492 53.4384 92.5756 57.4612C93.7206 58.5775 95.5041 58.2528 96.4405 56.9565C105.187 44.8485 109.273 39.7947 109.957 25.7317C109.968 25.5057 110.003 25.2774 110.063 25.0591C111.157 21.0662 113.111 13.2001 112.828 11.2159C112.536 9.176 111.249 7.20928 110.642 6.48091ZM110.642 6.48091C110.642 9.39499 110.196 13.523 109.973 15.2227L110.642 6.48091Z" stroke="black" stroke-linecap="round" stroke-linejoin="round"/>
<path d="M48.8533 97.5277L48.8526 97.5094L48.8506 97.4911L39.3798 11.1614L38.3832 11.1971L37.7326 28.4365C37.6798 29.8375 37.7341 31.2406 37.8952 32.6334L48.9497 128.201L49.946 128.126L48.8533 97.5277Z" fill="#E2CB51" stroke="black"/>
<path d="M38.4863 13.5588L48.9464 97.5768V126.319C48.9464 129.244 52.3219 130.879 54.6168 129.065L87.2867 103.24C87.6762 102.932 88.1486 102.747 88.6436 102.709L127.148 99.7215C129.005 99.5775 130.423 98.0056 130.377 96.1445L129.757 71.3738C129.729 70.2562 129.169 69.2193 128.25 68.5832L43.9511 10.2483C41.4643 8.52744 38.1127 10.5578 38.4863 13.5588Z" fill="#907900" stroke="black"/>
<path d="M40.1087 13.9404L50.2975 93.541C50.5781 95.7332 53.0524 96.8797 54.9063 95.6766L84.4918 76.4775C84.9194 76.2 85.4107 76.0361 85.9193 76.0011L124.395 73.3577C127.217 73.1639 128.228 69.5302 125.911 67.9075L44.8054 11.1022C42.6716 9.60774 39.7779 11.3563 40.1087 13.9404Z" fill="#EBF479"/>
<path d="M112.312 83.8304C99.8523 77.6636 89.5214 87.594 89.8894 93.4353C89.9118 93.7907 90.0436 94.1216 90.2379 94.42C94.0621 100.295 109.405 116.142 117.564 116.851C123.735 117.388 134.91 112.201 141.76 109.48C142.785 109.073 143.942 109.306 144.804 109.993C155.859 118.809 160.768 111.595 157.268 107.745C153.625 103.738 150.711 93.6048 144.883 93.2405C140.221 92.9491 139.055 96.0886 139.055 97.6116C126.67 97.6116 124.12 100.161 122.011 100.161C118.465 100.161 115.827 88.7769 113.272 84.6739C113.043 84.3058 112.701 84.0227 112.312 83.8304Z" fill="#F4E079"/>
<path d="M139.055 97.6116C126.67 97.6116 124.12 100.161 122.011 100.161C118.465 100.161 115.827 88.7769 113.272 84.6739C113.043 84.3058 112.701 84.0227 112.312 83.8304C99.8523 77.6636 89.5214 87.594 89.8894 93.4353C89.9118 93.7907 90.0436 94.1216 90.2379 94.42C94.0621 100.295 109.405 116.142 117.564 116.851C123.735 117.388 134.91 112.201 141.76 109.48C142.785 109.073 143.942 109.306 144.804 109.993C155.859 118.809 160.768 111.595 157.268 107.745C153.625 103.738 150.711 93.6048 144.883 93.2405C140.221 92.9491 139.055 96.0886 139.055 97.6116ZM139.055 97.6116V99.7312" stroke="black"/>
<path d="M143.79 95.8C144.081 93.7602 145.611 93.493 146.34 93.6145C149.982 94.3433 154.354 103.814 155.446 105.271C157.42 107.903 159.817 111.828 156.175 112.556C152.532 113.285 143.426 98.3499 143.79 95.8Z" fill="black" fill-opacity="0.56"/>
<path d="M112.904 84.1346C99.7907 77.1408 88.8628 88.141 89.9553 93.9692C91.2997 96.21 94.7756 100.339 98.9864 104.48C99.8363 100.008 97.5293 89.608 105.907 87.7867C110.179 86.8582 114.546 89.8509 116.68 92.5221C115.351 89.2166 114.123 85.7408 112.904 84.1346Z" fill="black" fill-opacity="0.56"/>
<path d="M96.1284 123.851C93.0885 118.6 89.2398 101.837 86.9863 96.0813C86.7681 95.5239 86.3544 95.0663 85.8282 94.7812C72.3286 87.4685 60.7839 102.597 61.4983 106.17C62.0811 109.085 69.0518 119.238 73.1801 125.673C81.1938 135.508 98.6814 144.587 103.751 163.723C108.821 182.859 120.143 171.736 118.686 165.544C117.229 159.351 118.686 156.073 116.864 150.973C115.407 146.894 111.886 146.36 110.308 146.602C106.665 136.403 99.3339 129.388 96.1284 123.851Z" fill="#F4E079"/>
<path d="M110.308 146.602C106.665 136.403 99.3339 129.388 96.1284 123.851C93.0885 118.6 89.2398 101.837 86.9863 96.0813C86.7681 95.5239 86.3544 95.0663 85.8282 94.7812C72.3286 87.4685 60.7839 102.597 61.4983 106.17C62.0811 109.085 69.0518 119.238 73.1801 125.673C81.1938 135.508 98.6814 144.587 103.751 163.723C108.821 182.859 120.143 171.736 118.686 165.544C117.229 159.351 118.686 156.073 116.864 150.973C115.407 146.894 111.886 146.36 110.308 146.602ZM110.308 146.602C109.943 146.602 108.924 146.894 107.758 148.059" stroke="black"/>
<path d="M91.3361 110.007C91.3361 110.007 88.8183 99.9779 86.6328 95.2425C72.7909 86.8645 60.7698 102.526 61.4983 106.17C62.0811 109.085 63.8952 111.221 68.0235 117.656C66.9307 93.9791 86.6328 93.2506 91.3361 110.007Z" fill="black" fill-opacity="0.56"/>
<path d="M11.7247 64.3524C21.6376 74.2643 28.0622 75.2699 42.6445 78.3684C44.2088 78.7007 45.7488 77.7444 45.8483 76.1483C46.2069 70.3966 44.6931 61.228 41.5868 61.228C35.4909 61.228 29.7087 60.5805 21.6414 56.0291C20.2238 55.2294 19.7352 53.3374 19.7974 51.711C19.8777 49.6122 19.4102 47.152 19.1283 45.4428C18.7002 42.8472 16.1319 42.8466 16.1319 45.0101C16.1319 47.1736 14.3213 50.4697 13.1354 48.4718C11.8512 46.3082 10.9951 41.9811 9.28285 40.2503C7.5706 38.5195 6.71447 40.683 7.14253 43.2793C7.48498 45.3563 8.99747 49.6256 9.28285 50.6353C8.56941 49.7698 6.11518 45.9618 5.43028 44.5772C4.57416 42.8463 4.14609 41.9809 2.86191 42.8463C1.83456 43.5387 2.71943 46.5962 3.29029 48.0384C2.29148 47.173 0.465077 46.3941 1.14998 50.202C1.80567 53.8474 8.26756 61.8823 11.0711 63.8266C11.3008 63.9859 11.527 64.1547 11.7247 64.3524Z" fill="#F4E079"/>
<path d="M3.29029 48.0384C2.29148 47.173 0.465077 46.3941 1.14998 50.202C1.80567 53.8474 8.26756 61.8823 11.0711 63.8266C11.3008 63.9859 11.527 64.1547 11.7247 64.3524C21.6376 74.2643 28.0622 75.2699 42.6445 78.3684C44.2088 78.7007 45.7488 77.7444 45.8483 76.1483C46.2069 70.3966 44.6931 61.228 41.5868 61.228C35.4909 61.228 29.7087 60.5805 21.6414 56.0291C20.2238 55.2294 19.7352 53.3374 19.7974 51.711C19.8777 49.6122 19.4102 47.152 19.1283 45.4428C18.7002 42.8472 16.1319 42.8466 16.1319 45.0101C16.1319 47.1736 14.3213 50.4697 13.1354 48.4718C11.8512 46.3082 10.9951 41.9811 9.28285 40.2503C7.5706 38.5195 6.71447 40.683 7.14253 43.2793C7.48498 45.3563 8.99747 49.6256 9.28285 50.6353C8.56941 49.7698 6.11518 45.9618 5.43028 44.5772C4.57416 42.8463 4.14609 41.9809 2.86191 42.8463C1.83456 43.5387 2.71943 46.5962 3.29029 48.0384ZM3.29029 48.0384C3.57556 48.7597 6.28641 52.3661 6.28641 52.3661" stroke="black" stroke-linecap="round" stroke-linejoin="round"/>
<path d="M111.59 152.034C113.267 150.357 115.484 150.836 116.382 152.633C117.88 156.228 116.776 157.758 117.88 164.015C118.778 169.107 113.986 172.701 111.59 170.904C109.447 169.297 109.493 154.131 111.59 152.034Z" fill="black" fill-opacity="0.56"/>
</svg>
