<svg width="116" height="26" viewBox="0 0 116 26" fill="none" xmlns="http://www.w3.org/2000/svg">
<g clip-path="url(#clip0_9947_12522)">
<path d="M35.416 5.32224H38.3486V17.875H45.5575V20.6778H35.416V5.32224ZM58.3775 5.32224H61.3101V20.6778H58.3775V5.32224ZM75.3487 5.32224H80.2363C81.2451 5.32224 82.207 5.53284 83.1194 5.95534C84.0317 6.36224 84.8385 6.91474 85.5384 7.61284C86.2408 8.31418 86.8045 9.14107 87.2002 10.0503C87.6082 10.9772 87.8115 11.96 87.8115 13C87.8115 14.04 87.6082 15.0228 87.2002 15.9497C86.8045 16.859 86.2408 17.6859 85.5384 18.3872C84.8379 19.0856 84.0189 19.6547 83.1194 20.0681C82.207 20.475 81.2451 20.6791 80.2363 20.6791H75.3487V5.32224ZM80.2363 17.875C80.8385 17.875 81.4172 17.745 81.9698 17.485C82.5407 17.225 83.0386 16.8753 83.4609 16.4372C83.9014 15.9978 84.2429 15.4856 84.4879 14.9019C84.7486 14.3 84.8789 13.6669 84.8789 13C84.8789 12.3344 84.7486 11.7078 84.4879 11.1228C84.2548 10.5389 83.9054 10.0082 83.4609 9.56284C83.0352 9.1227 82.5297 8.76714 81.9711 8.51504C81.4292 8.25774 80.8365 8.12449 80.2363 8.12504H78.2813V17.875H80.2363ZM107.605 20.8C106.613 20.8039 105.631 20.6048 104.72 20.215C103.833 19.815 103.03 19.2528 102.351 18.5575C101.673 17.8281 101.127 16.9872 100.737 16.0719C100.34 15.0967 100.141 14.0525 100.152 13C100.152 11.9106 100.347 10.8953 100.738 9.95284C101.12 9.03346 101.667 8.19118 102.352 7.46724C103.022 6.76185 103.828 6.19817 104.721 5.80974C105.628 5.4046 106.611 5.19676 107.605 5.20004C108.591 5.19497 109.566 5.40297 110.464 5.80974C111.376 6.19974 112.166 6.75224 112.834 7.46724C113.529 8.1827 114.077 9.02714 114.447 9.95284C114.854 10.8953 115.058 11.9106 115.058 13C115.058 14.105 114.854 15.1281 114.446 16.0719C114.068 16.9934 113.522 17.8365 112.834 18.5575C112.161 19.2599 111.355 19.8231 110.464 20.215C109.567 20.605 108.613 20.8 107.605 20.8ZM107.605 17.9972C108.207 17.9972 108.785 17.875 109.339 17.6319C109.886 17.3935 110.376 17.0447 110.781 16.6075C111.197 16.1401 111.527 15.6038 111.758 15.0228C112.003 14.4053 112.126 13.7319 112.126 13C112.126 12.2681 112.003 11.6025 111.758 11.0019C111.535 10.417 111.203 9.87907 110.781 9.41594C110.381 8.97022 109.892 8.61379 109.344 8.37003C108.797 8.12627 108.204 8.0007 107.605 8.00154C106.999 8.00005 106.399 8.12492 105.845 8.36814C105.304 8.61461 104.82 8.97208 104.427 9.41724C104.005 9.87997 103.673 10.4175 103.449 11.0019C103.199 11.6381 103.075 12.3167 103.084 13C103.084 13.7319 103.206 14.4053 103.449 15.0228C103.694 15.6247 104.02 16.1525 104.427 16.6075C104.835 17.0469 105.307 17.3875 105.845 17.6306C106.399 17.8751 106.999 18 107.605 17.9972Z" fill="white"/>
<path fill-rule="evenodd" clip-rule="evenodd" d="M9.13072 0L15.5811 10.0724L9.13072 13.8216L2.68164 10.0724L9.13072 0ZM4.65625 9.5953L9.13072 2.6065L13.6065 9.5953L9.13072 12.1979L4.65625 9.5953Z" fill="#00A3FF"/>
<path d="M9.12099 16.0355L1.63964 11.687L1.43501 12.0055C0.554164 13.3806 0.0603065 14.9667 0.00518082 16.5976C-0.0499448 18.2285 0.33569 19.8442 1.12168 21.2754C1.90768 22.7066 3.0651 23.9006 4.47269 24.7323C5.88028 25.5641 7.48623 26.0029 9.12229 26.0029C10.7584 26.0029 12.3643 25.5641 13.7719 24.7323C15.1795 23.9006 16.3369 22.7066 17.1229 21.2754C17.9089 19.8442 18.2945 18.2285 18.2394 16.5976C18.1843 14.9667 17.6904 13.3806 16.8096 12.0055L16.6049 11.687L9.12099 16.0368V16.0355Z" fill="#00A3FF"/>
</g>
<defs>
<clipPath id="clip0_9947_12522">
<rect width="116" height="26" fill="white"/>
</clipPath>
</defs>
</svg>
