<svg width="919" height="183" viewBox="0 0 919 183" fill="none" xmlns="http://www.w3.org/2000/svg">
<path d="M80.7832 104.25C81.1217 104.25 81.3333 103.996 81.418 103.488C81.2487 103.319 81.1641 103.192 81.1641 103.107C81.1641 102.938 81.1217 102.854 81.0371 102.854C80.6986 102.854 80.5293 103.234 80.5293 103.996C80.5293 104.165 80.6139 104.25 80.7832 104.25ZM74.8164 137.893C75.0703 137.893 75.1973 137.681 75.1973 137.258L75.3242 137.004L75.0703 136.623C74.7318 136.623 74.5625 136.835 74.5625 137.258C74.5625 137.681 74.6471 137.893 74.8164 137.893ZM72.1504 149.445L73.4199 142.336C72.4889 144.029 72.0234 145.848 72.0234 147.795L72.1504 149.445ZM64.4062 163.283C64.6602 162.945 65.1257 160.575 65.8027 156.174C66.4798 151.35 67.4108 146.61 68.5957 141.955C68.5957 141.193 68.3418 140.812 67.834 140.812C66.9876 141.743 66.4375 142.886 66.1836 144.24L65.5488 147.287C64.1947 151.773 63.5176 156.597 63.5176 161.76C63.5176 162.775 63.8138 163.283 64.4062 163.283ZM23.9082 109.582L24.0352 109.455V108.439C23.9505 108.609 23.9082 108.99 23.9082 109.582ZM24.0352 108.059L24.9238 107.043L24.7969 106.789C24.6276 106.789 24.5007 106.916 24.416 107.17C24.3314 107.424 24.2044 107.72 24.0352 108.059ZM13.1172 133.957C13.3711 133.788 13.5827 133.407 13.752 132.814L14.1328 129.006C16.5872 116.988 20.0996 105.435 24.6699 94.3477C25.0085 93.4167 25.4316 92.4857 25.9395 91.5547C26.5319 90.5391 27.0397 89.4388 27.4629 88.2539C29.6634 82.8372 32.2871 77.7168 35.334 72.8926L47.7754 52.9609C54.8848 41.6198 59.9629 34.4258 63.0098 31.3789C63.179 31.2096 63.2637 30.998 63.2637 30.7441C63.2637 30.321 63.1367 30.1094 62.8828 30.1094L62.502 30.2363C59.709 32.1829 57.3392 34.5951 55.3926 37.4727C54.2077 39.0807 50.653 44.5397 44.7285 53.8496C40.5814 60.6204 37.6615 65.2331 35.9688 67.6875C34.6146 69.5495 32.6257 73.2734 30.002 78.8594C28.3939 82.3294 26.6589 85.7148 24.7969 89.0156C24.3737 89.7773 24.0352 90.5814 23.7812 91.4277C23.0195 94.2207 22.0885 96.9714 20.9883 99.6797C18.026 106.704 15.5293 114.406 13.498 122.785C12.7363 125.07 12.3555 128.413 12.3555 132.814C12.3555 133.576 12.6094 133.957 13.1172 133.957ZM70.7539 174.963L70.2461 174.836C67.707 173.228 65.0833 171.874 62.375 170.773C60.513 169.927 58.6934 169.038 56.916 168.107C53.2767 166.076 51.3724 162.775 51.2031 158.205V152.365C51.2031 149.911 50.7799 148.684 49.9336 148.684C49.2565 148.684 45.4479 150.165 38.5078 153.127C34.7839 154.65 30.9753 155.412 27.082 155.412C24.2044 155.412 21.7923 154.608 19.8457 153C16.0371 149.868 11.9746 146.949 7.6582 144.24C2.91862 141.024 0.548828 136.369 0.548828 130.275C0.548828 126.213 0.802734 122.827 1.31055 120.119C4.86523 102.684 10.7474 86.4342 18.957 71.3691C20.2266 69.084 22.2578 65.5716 25.0508 60.832C32.3294 48.306 37.2383 40.3079 39.7773 36.8379C44.0938 30.6595 49.0026 25.2852 54.5039 20.7148C60.5977 15.806 66.3105 13.3516 71.6426 13.3516C75.2819 13.3516 78.498 14.3672 81.291 16.3984C85.6921 19.8685 88.4004 21.8997 89.416 22.4922C91.3626 23.7617 92.3359 25.6237 92.3359 28.0781C92.3359 30.194 91.9128 31.252 91.0664 31.252C90.8971 31.252 90.6855 31.125 90.4316 30.8711C89.5007 29.7708 88.4004 29.1784 87.1309 29.0938C85.3535 28.9245 83.7454 28.2474 82.3066 27.0625C81.5449 26.4701 80.7409 26.1738 79.8945 26.1738C79.3021 26.1738 78.6673 26.3431 77.9902 26.6816C74.5202 28.3743 71.3887 30.7441 68.5957 33.791C65.8027 36.8379 60.2591 44.709 51.9648 57.4043C47.056 64.8522 44.39 68.9993 43.9668 69.8457C39.9889 77.2936 37.5768 81.6947 36.7305 83.0488C33.5143 88.5501 31.5254 92.7819 30.7637 95.7441C23.2311 113.518 19.2109 127.609 18.7031 138.02C18.7031 139.035 19.2109 139.543 20.2266 139.543C20.6497 139.543 21.0306 139.501 21.3691 139.416C21.7923 139.247 22.2578 139.12 22.7656 139.035C32.1602 135.988 43.1204 130.529 55.6465 122.658C57.3392 121.727 58.6087 120.204 59.4551 118.088C61.7402 110.979 64.4486 104.081 67.5801 97.3945C67.834 96.8867 67.9609 96.4635 67.9609 96.125C67.9609 95.4479 67.5801 95.1094 66.8184 95.1094C66.5645 95.1094 66.2259 95.1517 65.8027 95.2363C65.4642 95.321 64.9987 95.3633 64.4062 95.3633C62.4596 95.3633 60.5977 94.6016 58.8203 93.0781C57.3815 91.9779 55.0117 90.4121 51.7109 88.3809C50.4414 87.6191 49.8066 86.7728 49.8066 85.8418C49.8066 84.9954 50.0605 84.5723 50.5684 84.5723L51.584 84.6992C52.9382 84.6992 54.4616 84.1068 56.1543 82.9219C62.0788 79.9596 67.707 77.6322 73.0391 75.9395C77.1862 74.9238 80.8678 73.2734 84.084 70.9883C84.5072 70.6497 84.9303 70.4805 85.3535 70.4805C86.5384 70.4805 87.8926 71.4538 89.416 73.4004C89.416 73.485 89.4583 73.5273 89.543 73.5273C91.2357 76.0664 92.9284 77.5898 94.6211 78.0977C95.4674 78.4362 95.8906 79.1133 95.8906 80.1289C95.8906 81.0599 95.5521 81.9062 94.875 82.668C94.1979 83.3451 93.8594 83.8952 93.8594 84.3184C93.8594 84.7415 94.071 85.207 94.4941 85.7148C95.0866 86.7305 95.3828 87.6615 95.3828 88.5078C95.2982 89.4388 93.8171 93.0358 90.9395 99.2988C87.7233 106.154 86.1152 110.428 86.1152 112.121C86.1152 113.814 85.6921 115.845 84.8457 118.215L85.6074 118.342C86.1999 118.342 86.7923 118.003 87.3848 117.326C87.9772 116.649 88.6966 116.311 89.543 116.311C90.5586 116.311 91.151 117.199 91.3203 118.977C91.3203 120.5 90.3047 122.108 88.2734 123.801L81.1641 129.514C79.3867 130.868 78.1172 132.772 77.3555 135.227C74.4779 145.214 72.7428 150.207 72.1504 150.207L72.4043 149.699L72.1504 149.572C71.2194 150.249 70.7539 151.053 70.7539 151.984C70.7539 152.408 70.8385 152.873 71.0078 153.381C71.3464 154.396 71.5156 155.412 71.5156 156.428C71.5156 157.189 71.431 158.036 71.2617 158.967C70.9232 161.844 70.7539 164.595 70.7539 167.219C70.7539 168.996 71.1771 170.646 72.0234 172.17C72.1927 172.508 72.2773 172.805 72.2773 173.059C72.2773 173.143 72.235 173.312 72.1504 173.566C72.0658 173.82 71.8542 174.117 71.5156 174.455C71.2617 174.794 71.0078 174.963 70.7539 174.963ZM149.465 103.742C148.534 103.742 147.984 102.557 147.814 100.188L147.941 99.1719C147.941 98.1562 147.772 97.3522 147.434 96.7598L146.799 95.7441L145.529 97.7754C144.598 99.8913 143.794 101.203 143.117 101.711C142.694 101.965 142.186 102.092 141.594 102.092C141.086 102.092 140.536 102.007 139.943 101.838C136.558 100.992 134.865 99.1719 134.865 96.3789C134.95 95.2786 135.119 94.0091 135.373 92.5703C135.458 92.4857 135.5 92.3587 135.5 92.1895C136.177 88.8887 137.15 87.2383 138.42 87.2383C139.351 87.2383 140.832 88.0846 142.863 89.7773C145.572 91.8086 147.688 93.1204 149.211 93.7129C150.819 94.2207 151.623 95.0247 151.623 96.125C151.623 99.5951 151.115 102.007 150.1 103.361C149.846 103.615 149.634 103.742 149.465 103.742ZM181.711 99.5527L181.584 99.2988V99.5527H181.711ZM130.422 127.863C131.184 127.863 132.199 127.609 133.469 127.102L133.977 126.975C134.484 126.805 134.992 126.551 135.5 126.213C148.026 119.188 157.463 109.286 163.811 96.5059C165.926 92.2741 166.984 88.2116 166.984 84.3184C166.984 81.1022 166.18 77.8438 164.572 74.543L164.064 73.6543C163.049 71.5384 161.822 69.7188 160.383 68.1953C159.198 67.0104 157.548 66.418 155.432 66.418L153.654 66.5449C153.231 66.5449 152.469 66.291 151.369 65.7832C149.169 64.7676 147.518 64.2598 146.418 64.2598C146.164 64.2598 145.699 64.3444 145.021 64.5137C144.429 64.6829 143.413 65.8255 141.975 67.9414C135.204 77.082 130.718 87.2383 128.518 98.4102L128.391 98.918C127.206 103.742 126.613 108.651 126.613 113.645L126.867 116.818C127.036 119.188 127.29 121.643 127.629 124.182C127.967 126.636 128.898 127.863 130.422 127.863ZM119.885 112.756C120.308 111.74 120.562 110.682 120.646 109.582C121.408 97.3099 124.37 85.6302 129.533 74.543L131.057 71.1152C129.449 72.0462 128.264 73.3581 127.502 75.0508C123.439 83.0911 120.689 91.5124 119.25 100.314C118.996 101.923 118.869 103.531 118.869 105.139C118.869 107.678 119.208 110.217 119.885 112.756ZM131.184 71.1152L131.311 70.8613H131.184C131.184 71.0306 131.141 71.1152 131.057 71.1152H131.184ZM131.438 70.7344C133.977 68.5339 135.458 66.2064 135.881 63.752C132.834 65.5293 131.311 67.7721 131.311 70.4805L131.438 70.7344ZM161.145 128.498C161.398 128.329 161.695 128.202 162.033 128.117C162.372 128.033 162.668 127.906 162.922 127.736C170.878 121.219 176.844 113.264 180.822 103.869C181.161 102.938 181.372 101.923 181.457 100.822C181.457 100.399 181.499 100.018 181.584 99.6797L181.076 99.9336C180.484 100.103 180.103 100.399 179.934 100.822C176.04 109.878 170.412 117.622 163.049 124.055C161.695 125.24 161.018 126.34 161.018 127.355L161.145 128.498ZM181.584 99.2988C182.854 97.9447 183.488 96.2943 183.488 94.3477C183.488 93.1628 183.234 91.8086 182.727 90.2852C181.796 92.7396 181.33 94.9401 181.33 96.8867C181.33 97.7331 181.415 98.5371 181.584 99.2988ZM144.514 139.162C139.52 139.162 134.823 138.908 130.422 138.4C130.253 138.062 129.237 137.427 127.375 136.496C122.974 134.296 120.266 132.984 119.25 132.561C109.686 128.667 104.735 121.389 104.396 110.725L104.27 105.9C104.27 86.7728 110.871 69.888 124.074 55.2461C125.259 54.0612 126.571 52.9609 128.01 51.9453C131.311 49.3216 134.061 47.9674 136.262 47.8828C138.462 47.8828 141.382 48.9831 145.021 51.1836C148.407 53.0456 151.708 55.0768 154.924 57.2773C159.41 60.4935 164.191 63.3288 169.27 65.7832C175.109 68.4915 180.188 72.3848 184.504 77.4629C188.482 82.2025 190.471 87.5768 190.471 93.5859C190.471 103.404 187.212 111.783 180.695 118.723L180.949 118.088C180.949 117.919 180.907 117.749 180.822 117.58C180.738 117.411 180.611 117.326 180.441 117.326C179.595 117.495 178.96 117.919 178.537 118.596C178.114 119.188 177.648 120.373 177.141 122.15L179.172 120.881C176.887 123.928 174.39 126.763 171.682 129.387C169.481 131.587 168.381 132.772 168.381 132.941C164.064 137.089 156.109 139.162 144.514 139.162ZM227.922 138.908C230.715 138.57 233.762 137.766 237.062 136.496C240.448 135.142 243.156 133.745 245.188 132.307C238.586 133.153 232.831 135.354 227.922 138.908ZM196.564 160.998C198.765 159.898 201.092 158.163 203.547 155.793C206.086 153.423 207.863 151.18 208.879 149.064C204.986 151.604 202.193 153.635 200.5 155.158C198.807 156.682 197.495 158.628 196.564 160.998ZM192.375 168.742C194.491 166.711 195.803 164.257 196.311 161.379C193.602 162.733 192.248 164.807 192.248 167.6L192.375 168.742ZM203.42 134.084C204.605 132.899 205.367 131.63 205.705 130.275C206.044 128.921 206.298 127.398 206.467 125.705C208.667 108.524 215.1 84.7839 225.764 54.4844C225.848 54.1458 225.975 53.8496 226.145 53.5957C226.568 52.6647 226.779 51.7337 226.779 50.8027C226.779 50.2103 226.568 49.5755 226.145 48.8984L225.383 48.7715C224.621 48.7715 224.156 49.1947 223.986 50.041C221.701 57.8275 219.289 65.5716 216.75 73.2734C213.788 82.4987 210.995 91.7663 208.371 101.076C205.747 110.301 203.716 119.696 202.277 129.26L202.15 130.656C202.15 131.926 202.574 133.068 203.42 134.084ZM223.732 141.828C224.494 141.828 225.129 141.617 225.637 141.193C226.398 140.516 226.991 139.797 227.414 139.035L226.525 139.289C224.748 139.289 223.436 140.093 222.59 141.701L223.732 141.828ZM197.58 181.564C196.903 181.564 196.353 181.353 195.93 180.93C190.005 175.598 185.943 171.916 183.742 169.885C181.457 167.938 180.314 165.653 180.314 163.029C180.314 161.59 180.695 160.067 181.457 158.459C183.827 153.296 187.17 148.895 191.486 145.256C191.486 145.171 191.529 145.129 191.613 145.129C193.137 143.775 193.898 142.674 193.898 141.828C193.898 141.066 193.179 140.135 191.74 139.035C190.217 137.935 189.455 135.988 189.455 133.195L189.582 129.895C191.359 111.19 197.03 89.0579 206.594 63.498C209.302 55.9655 211.841 48.4329 214.211 40.9004C215.057 38.0228 215.988 35.1029 217.004 32.1406C218.189 28.1628 219.543 26.1738 221.066 26.1738C222.251 26.1738 224.071 26.9355 226.525 28.459C228.133 29.39 229.784 30.2363 231.477 30.998C234.1 32.0983 235.412 33.5371 235.412 35.3145C235.412 35.9915 235.285 36.7956 235.031 37.7266C234.862 38.5729 234.693 39.5039 234.523 40.5195C234.1 43.8203 233.254 47.0365 231.984 50.168C230.207 54.3997 228.811 58.7161 227.795 63.1172C226.864 66.9258 225.721 70.6497 224.367 74.2891C222.251 79.0286 220.601 83.6413 219.416 88.127C218.231 93.459 216.792 98.6641 215.1 103.742C212.561 111.529 211.206 117.03 211.037 120.246V120.881C211.037 122.827 210.656 124.859 209.895 126.975C209.641 127.567 209.514 128.075 209.514 128.498C209.514 129.26 209.81 129.895 210.402 130.402C210.995 130.826 211.672 131.037 212.434 131.037C213.026 131.037 213.703 130.91 214.465 130.656C221.236 127.863 228.091 125.493 235.031 123.547C237.486 122.785 239.813 122.404 242.014 122.404C243.283 122.404 245.018 122.658 247.219 123.166C249.419 123.589 251.704 125.578 254.074 129.133C254.836 130.064 255.767 130.91 256.867 131.672C258.645 132.857 259.533 133.999 259.533 135.1V135.48C259.11 136.411 258.264 136.877 256.994 136.877C242.521 137.554 229.657 142.421 218.4 151.477C212.137 155.878 206.636 160.575 201.896 165.568C198.342 169.123 196.564 172.297 196.564 175.09C196.564 176.867 197.368 178.814 198.977 180.93C198.469 181.353 198.003 181.564 197.58 181.564ZM278.703 130.402C280.988 111.783 284.924 92.9512 290.51 73.9082C291.441 70.3535 292.583 65.5293 293.938 59.4355C294.784 56.2194 295.207 54.2305 295.207 53.4688C295.207 52.4531 294.742 51.6068 293.811 50.9297C292.626 51.6914 292.033 52.9609 292.033 54.7383C292.033 58.1237 291.441 61.5091 290.256 64.8945C288.732 68.7878 287.59 73.1465 286.828 77.9707C285.643 83.9798 284.374 89.5658 283.02 94.7285C281.158 102.43 279.507 110.259 278.068 118.215C277.73 119.908 277.561 121.6 277.561 123.293C277.561 125.747 277.941 128.117 278.703 130.402ZM321.74 110.852C324.956 108.566 328.299 104.462 331.77 98.5371C335.324 92.6126 338.329 86.3919 340.783 79.875C342.984 73.9505 344.084 68.8301 344.084 64.5137C342.391 71.1999 340.021 77.5898 336.975 83.6836C333.928 89.6927 330.627 95.6595 327.072 101.584C325.21 104.631 323.433 107.72 321.74 110.852ZM316.662 119.23C316.747 119.23 316.916 119.104 317.17 118.85C317.424 118.511 317.551 118.257 317.551 118.088C317.466 118.003 317.297 117.961 317.043 117.961C316.535 118.215 316.281 118.469 316.281 118.723C316.281 119.061 316.408 119.23 316.662 119.23ZM289.113 151.857L289.367 151.73C294.191 149.445 301.089 141.997 310.061 129.387C310.653 128.794 310.949 128.202 310.949 127.609C310.949 127.355 310.822 126.975 310.568 126.467C307.014 130.106 303.628 133.872 300.412 137.766C298.296 140.559 295.884 143.352 293.176 146.145C291.314 147.922 289.96 149.826 289.113 151.857ZM287.336 154.777C288.013 154.439 288.563 153.592 288.986 152.238C288.817 152.238 288.563 152.323 288.225 152.492C287.971 152.661 287.717 152.873 287.463 153.127C287.294 153.381 287.209 153.677 287.209 154.016L287.336 154.777ZM280.354 167.854H279.846C278.999 167.854 278.153 167.557 277.307 166.965C274.937 165.357 272.44 163.96 269.816 162.775C267.785 161.844 265.839 160.829 263.977 159.729C261.691 158.29 260.549 156.809 260.549 155.285C260.549 154.608 260.718 153.804 261.057 152.873C262.157 149.488 263.892 146.483 266.262 143.859C267.193 142.59 268.208 141.955 269.309 141.955C270.07 141.955 270.874 142.251 271.721 142.844C272.99 143.69 274.09 144.113 275.021 144.113C275.529 144.113 276.037 143.944 276.545 143.605C278.83 142.167 280.565 140.262 281.75 137.893L281.877 137.258C281.877 136.835 281.665 136.369 281.242 135.861C280.904 135.354 279.38 134.846 276.672 134.338C271.932 133.576 268.758 132.053 267.15 129.768C266.135 128.329 265.627 126.424 265.627 124.055C266.473 111.359 270.197 94.0938 276.799 72.2578C278.407 66.6719 280.015 61.0436 281.623 55.373C282.469 51.9876 282.977 48.5176 283.146 44.9629C283.231 42.3392 284.077 41.0273 285.686 41.0273C286.532 41.0273 287.59 41.4082 288.859 42.1699C291.822 43.4395 293.938 44.582 295.207 45.5977C296.561 46.5286 297.408 47.7559 297.746 49.2793C297.831 50.2949 297.873 52.3685 297.873 55.5C297.873 57.7852 297.746 59.224 297.492 59.8164C295.63 65.3177 294.403 70.9036 293.811 76.5742C293.218 82.1602 292.076 87.6615 290.383 93.0781C289.621 95.3633 289.071 97.6908 288.732 100.061C288.394 102.43 287.928 104.673 287.336 106.789C286.32 110.09 285.686 113.433 285.432 116.818C285.178 119.611 284.712 122.404 284.035 125.197C283.866 125.959 283.781 126.763 283.781 127.609C283.781 128.879 283.951 130.106 284.289 131.291C284.628 132.476 285.093 133.068 285.686 133.068C286.701 133.068 289.875 129.683 295.207 122.912C306.04 109.54 315.604 95.3633 323.898 80.3828C329.061 71.3268 331.812 62.6094 332.15 54.2305C332.15 48.6445 330.5 43.4818 327.199 38.7422C326.268 37.3034 324.872 36.3724 323.01 35.9492C316.831 34.5104 310.738 33.791 304.729 33.791C303.374 33.791 300.497 33.9603 296.096 34.2988C291.695 34.5527 285.939 36.3301 278.83 39.6309C276.545 40.4772 275.021 41.4082 274.26 42.4238C273.583 43.4395 273.033 45.2168 272.609 47.7559C269.309 46.4863 266.135 45.0898 263.088 43.5664C260.803 42.2122 259.66 40.6465 259.66 38.8691C259.66 37.515 260.295 36.0762 261.564 34.5527C262.834 33.1139 264.4 32.0137 266.262 31.252C276.503 26.4277 286.32 24.0156 295.715 24.0156C301.978 24.0156 308.283 25.0736 314.631 27.1895C323.941 30.4902 332.404 35.3568 340.021 41.7891C346.792 47.4596 350.178 54.7383 350.178 63.625C350.178 67.4336 349.416 71.2845 347.893 75.1777C347.639 76.278 347.385 77.3783 347.131 78.4785C346.792 80.9329 345.734 83.6836 343.957 86.7305C342.603 88.8464 341.63 91.1315 341.037 93.5859C339.26 94.7708 337.906 96.2096 336.975 97.9023C336.128 99.5951 335.367 101.372 334.689 103.234C334.097 105.012 333.335 106.747 332.404 108.439C326.226 118.934 319.074 128.921 310.949 138.4C304.686 146.356 297.788 153.508 290.256 159.855C286.955 162.225 284.501 164.383 282.893 166.33C282.3 167.176 281.454 167.684 280.354 167.854ZM579.074 109.201C580.598 106.916 581.359 103.7 581.359 99.5527C581.359 97.6908 581.529 95.8711 581.867 94.0938C583.221 88.5924 583.898 85.0801 583.898 83.5566C583.898 82.541 583.56 81.3561 582.883 80.002L582.756 79.6211C581.656 82.0755 580.725 85.2917 579.963 89.2695C578.947 94.5169 578.439 99.4258 578.439 103.996C578.439 106.197 578.651 107.932 579.074 109.201ZM598.117 110.979C600.487 109.54 602.941 106.916 605.48 103.107C608.02 99.2142 610.178 94.8555 611.955 90.0312C608.654 93.0781 605.607 96.6751 602.814 100.822C600.106 104.969 598.54 108.355 598.117 110.979ZM618.303 138.4C617.88 137.3 617.16 136.411 616.145 135.734C610.051 131.926 603.999 127.313 597.99 121.896C595.79 119.95 594.055 118.977 592.785 118.977L591.77 119.104C592.277 120.712 593.589 122.277 595.705 123.801L596.213 124.182C602.222 128.498 608.273 132.688 614.367 136.75C614.79 137.004 615.171 137.3 615.51 137.639C616.441 138.146 617.372 138.4 618.303 138.4ZM626.682 142.59C624.058 140.051 621.392 138.739 618.684 138.654L619.191 139.162C621.138 141.447 623.296 142.59 625.666 142.59H626.682ZM588.977 98.4102C589.569 98.4102 590.204 97.9023 590.881 96.8867C591.812 95.6172 593.674 92.528 596.467 87.6191C604.338 74.9238 609.501 65.5293 611.955 59.4355C613.986 54.2728 615.002 49.2793 615.002 44.4551C615.002 40.3079 613.098 38.2344 609.289 38.2344C608.02 38.2344 606.411 38.4883 604.465 38.9961C601.587 39.5885 598.71 40.4772 595.832 41.6621C594.478 42.2546 593.801 43.0163 593.801 43.9473C593.801 44.4551 594.055 45.0052 594.562 45.5977C595.409 46.6133 595.874 47.6289 595.959 48.6445C595.959 49.7448 595.832 50.8451 595.578 51.9453L593.166 64.8945C591.643 74.8815 589.484 84.7415 586.691 94.4746C586.522 94.9824 586.438 95.4479 586.438 95.8711C586.438 96.8021 586.903 97.5215 587.834 98.0293C588.257 98.2832 588.638 98.4102 588.977 98.4102ZM612.336 89.2695L614.24 86.7305C617.202 83.599 619.064 79.875 619.826 75.5586C615.34 79.1133 612.844 83.6836 612.336 89.2695ZM619.953 75.1777C623.169 72.8079 625.539 68.6608 627.062 62.7363C627.232 61.9746 627.528 60.959 627.951 59.6895C628.882 57.3197 629.348 55.3307 629.348 53.7227C629.348 52.5378 629.094 51.3105 628.586 50.041C627.74 50.2949 627.316 50.8027 627.316 51.5645C626.47 58.0814 624.523 64.3021 621.477 70.2266C621.392 70.2266 621.35 70.2689 621.35 70.3535C620.419 71.877 619.953 73.485 619.953 75.1777ZM637.854 158.078C636.33 158.078 634.807 157.867 633.283 157.443C622.873 154.396 613.225 149.826 604.338 143.732C600.952 141.532 597.609 139.247 594.309 136.877C590.077 133.745 587.58 132.18 586.818 132.18C585.803 132.18 585.253 133.238 585.168 135.354V137.512L585.295 142.082C585.549 145.129 585.676 146.991 585.676 147.668C585.676 148.176 585.591 148.811 585.422 149.572C585.253 150.249 584.406 150.588 582.883 150.588C581.613 150.588 580.767 150.08 580.344 149.064C579.582 147.202 579.117 143.182 578.947 137.004V135.861C578.947 132.984 578.355 130.191 577.17 127.482C576.831 129.344 576.662 131.206 576.662 133.068C576.662 134.846 576.831 136.665 577.17 138.527C577.508 140.982 577.678 143.098 577.678 144.875C577.678 146.737 577.339 148.007 576.662 148.684C576.07 149.361 574.969 149.699 573.361 149.699C569.637 149.699 567.014 148.98 565.49 147.541C563.036 145.34 561.809 138.527 561.809 127.102C561.809 120.5 562.359 112.671 563.459 103.615L563.84 100.695C565.617 84.0221 568.833 67.6452 573.488 51.5645C573.827 50.6335 573.996 49.8294 573.996 49.1523C573.996 47.7982 573.277 46.7402 571.838 45.9785C570.484 45.1322 569.807 44.2858 569.807 43.4395C569.807 42.5085 570.399 41.4505 571.584 40.2656C574.208 37.8958 577.212 36.1185 580.598 34.9336C588.807 31.5482 595.451 29.8555 600.529 29.8555C605.523 29.8555 613.352 32.0137 624.016 36.3301C628.163 38.1921 631.083 41.1966 632.775 45.3438C633.706 47.5443 634.172 49.8717 634.172 52.3262C634.172 56.6426 632.31 62.5247 628.586 69.9727C627.401 72.2578 626.512 74.6699 625.92 77.209C625.835 78.0553 625.539 78.8171 625.031 79.4941C622.661 82.4564 620.63 85.5879 618.938 88.8887C618.091 90.4967 617.202 92.0625 616.271 93.5859C612.378 99.4258 608.781 105.308 605.48 111.232L603.83 113.518C602.053 115.295 601.164 116.903 601.164 118.342C601.164 118.426 601.164 118.765 601.164 119.357C601.249 119.865 602.137 120.712 603.83 121.896C615.087 130.36 627.062 137.723 639.758 143.986C641.874 145.087 643.99 145.637 646.105 145.637C647.967 145.637 649.829 145.256 651.691 144.494C652.961 143.817 654.315 143.267 655.754 142.844L658.039 141.955C658.378 141.786 658.758 141.659 659.182 141.574C659.52 141.574 659.859 141.743 660.197 142.082C660.536 142.421 660.705 142.801 660.705 143.225C660.705 143.648 660.62 144.029 660.451 144.367C659.859 146.991 658.378 148.895 656.008 150.08L645.217 156.174C642.847 157.443 640.393 158.078 637.854 158.078ZM658.293 118.85L664.895 67.6875C664.556 67.5182 664.175 67.3913 663.752 67.3066C662.059 70.0996 661.213 73.1888 661.213 76.5742C661.128 77.9284 660.959 79.2826 660.705 80.6367C658.928 90.1159 658.039 99.722 658.039 109.455C658.039 112.587 658.124 115.718 658.293 118.85ZM708.947 125.832C708.27 120.077 707.932 114.279 707.932 108.439L708.059 101.076C708.059 97.2676 707.932 93.459 707.678 89.6504C706.747 93.8822 706.281 98.7487 706.281 104.25C706.281 105.858 706.366 109.032 706.535 113.771C706.704 118.426 707.508 122.447 708.947 125.832ZM692.062 99.8066C692.824 99.0449 693.29 98.4102 693.459 97.9023C693.459 97.6484 693.332 97.4792 693.078 97.3945C692.909 97.3099 692.824 97.2676 692.824 97.2676C692.316 97.2676 692.062 97.8177 692.062 98.918V99.8066ZM673.781 129.387C675.389 128.964 676.87 127.567 678.225 125.197C683.811 117.411 688.339 109.074 691.809 100.188C689.862 101.626 688.381 103.488 687.365 105.773C686.857 106.789 686.265 107.762 685.588 108.693C682.456 113.264 679.494 117.961 676.701 122.785L674.416 126.721C674.077 127.229 673.908 127.863 673.908 128.625L673.781 129.387ZM672.131 131.545C672.639 131.545 673.104 130.995 673.527 129.895V129.641L673.273 129.768C672.427 130.021 671.962 130.402 671.877 130.91C671.877 131.164 671.962 131.376 672.131 131.545ZM717.453 153C716.945 153 716.438 152.788 715.93 152.365C713.645 150.757 711.19 149.488 708.566 148.557C706.874 147.964 705.266 147.245 703.742 146.398C699.003 143.859 696.167 135.988 695.236 122.785C695.236 119.908 694.686 116.691 693.586 113.137C688.846 120.246 685.419 125.493 683.303 128.879C681.695 131.841 679.748 134.38 677.463 136.496C675.178 138.612 672.808 139.67 670.354 139.67C668.492 139.67 666.545 139.077 664.514 137.893C660.79 135.607 656.939 133.576 652.961 131.799C648.391 129.768 645.852 126.044 645.344 120.627C645.174 118.003 645.09 115.422 645.09 112.883C645.09 107.72 645.471 102.557 646.232 97.3945C646.232 96.9714 646.275 96.5905 646.359 96.252C647.883 82.7949 650.21 69.5495 653.342 56.5156C654.104 53.2995 655.077 51.6914 656.262 51.6914C657.447 51.6914 659.351 52.834 661.975 55.1191C663.752 56.8965 665.783 58.1237 668.068 58.8008C669.338 59.0547 669.973 60.028 669.973 61.7207L669.846 62.7363C669.423 65.2754 669.169 67.8568 669.084 70.4805L669.211 72.0039C669.211 76.5742 668.111 80.9329 665.91 85.0801C665.741 85.4186 665.656 85.7148 665.656 85.9688L665.783 89.0156C665.783 91.724 665.572 94.4323 665.148 97.1406C664.725 99.7643 664.514 102.303 664.514 104.758C664.514 107.805 664.725 109.836 665.148 110.852C665.233 111.19 665.572 111.359 666.164 111.359C666.587 111.359 667.095 110.936 667.688 110.09C667.688 109.921 667.73 109.794 667.814 109.709C676.193 96.7598 683.26 82.9642 689.016 68.3223C693.586 56.2194 696.59 50.168 698.029 50.168C698.96 50.168 701.034 51.2259 704.25 53.3418C706.451 54.8652 708.736 56.2194 711.105 57.4043C713.306 58.2507 714.406 59.9857 714.406 62.6094C714.406 63.1172 714.322 63.6673 714.152 64.2598C713.137 69.5072 712.629 74.7969 712.629 80.1289C712.629 82.3294 712.714 84.5299 712.883 86.7305L713.01 95.1094V100.188C713.01 112.629 713.814 125.028 715.422 137.385C715.93 141.532 716.945 145.637 718.469 149.699C718.807 150.292 719.019 150.799 719.104 151.223C719.104 151.73 718.892 152.154 718.469 152.492C718.13 152.831 717.792 153 717.453 153ZM764.68 42.2969C767.811 39.25 769.377 37.388 769.377 36.7109L768.742 36.457C766.796 37.8958 765.145 39.6732 763.791 41.7891V41.916C764.045 42.1699 764.257 42.2969 764.426 42.2969H764.68ZM755.158 141.447C756.089 141.447 757.147 140.516 758.332 138.654C757.062 138.824 755.962 139.331 755.031 140.178C754.777 140.432 754.65 140.643 754.65 140.812C754.65 141.236 754.82 141.447 755.158 141.447ZM762.395 136.242L762.648 136.115C766.118 133.83 769.165 131.122 771.789 127.99L771.916 127.736C771.577 127.398 771.366 127.229 771.281 127.229C768.911 128.837 766.753 130.656 764.807 132.688C763.791 133.703 762.733 134.634 761.633 135.48V135.861C761.887 136.115 762.141 136.242 762.395 136.242ZM774.074 132.941C774.159 132.941 774.243 132.899 774.328 132.814C774.497 132.645 774.582 132.476 774.582 132.307C774.497 132.307 774.455 132.264 774.455 132.18C774.032 132.18 773.82 132.391 773.82 132.814C773.82 132.899 773.905 132.941 774.074 132.941ZM770.139 137.893C769.969 137.385 769.842 136.835 769.758 136.242L768.615 137.766C768.954 137.85 769.462 137.893 770.139 137.893ZM731.418 91.3008C732.603 90.793 733.407 89.9043 733.83 88.6348C734.253 87.2806 734.507 86.4766 734.592 86.2227C739.416 76.4896 744.367 68.5762 749.445 62.4824C751.561 59.7741 753.465 56.8542 755.158 53.7227C754.143 53.9766 753.254 54.696 752.492 55.8809C745.975 64.0059 741.532 70.2266 739.162 74.543C738.654 75.5586 738.104 76.5319 737.512 77.4629C734.634 81.6947 732.603 86.3073 731.418 91.3008ZM755.412 53.3418C755.666 53.1725 755.878 52.9609 756.047 52.707L755.92 52.4531C755.581 52.4531 755.412 52.7493 755.412 53.3418ZM758.332 49.2793C759.263 48.5176 759.94 47.9674 760.363 47.6289C760.871 47.2057 761.21 46.8249 761.379 46.4863C761.548 46.0632 761.675 45.513 761.76 44.8359C760.067 45.9362 758.924 47.4173 758.332 49.2793ZM747.414 72.8926L748.938 72.1309V70.7344L748.684 70.6074C748.514 70.6921 748.345 70.9883 748.176 71.4961C748.007 71.9193 747.753 72.3848 747.414 72.8926ZM734.338 156.682C732.899 156.682 731.63 156.005 730.529 154.65C729.429 153.296 727.144 151.223 723.674 148.43C720.204 145.552 718.469 143.605 718.469 142.59C718.469 141.151 719.104 140.432 720.373 140.432C725.451 140.347 729.768 139.12 733.322 136.75C744.748 131.672 753.973 125.367 760.998 117.834C761.421 117.411 761.633 117.03 761.633 116.691C761.633 116.099 760.448 115.507 758.078 114.914C747.16 113.391 739.882 110.852 736.242 107.297C732.688 103.658 729.09 100.061 725.451 96.5059C722.489 94.0514 721.008 91.0046 721.008 87.3652C721.008 86.5189 721.092 85.7148 721.262 84.9531C722.701 77.3359 727.567 67.8991 735.861 56.6426C743.817 45.2168 752.661 34.4681 762.395 24.3965C770.689 16.1022 775.809 11.9551 777.756 11.9551L778.645 12.082C779.745 12.2513 781.734 14.4941 784.611 18.8105C785.627 20.1647 786.939 21.3919 788.547 22.4922C790.24 23.5078 791.086 24.8197 791.086 26.4277C791.086 27.3587 789.689 30.4479 786.896 35.6953C786.389 36.5417 785.754 37.6842 784.992 39.123C784.23 40.4772 783.68 41.4505 783.342 42.043C783.003 42.6354 782.58 42.9316 782.072 42.9316C779.787 42.5085 778.56 40.8158 778.391 37.8535C777.967 38.5306 777.417 39.0384 776.74 39.377C774.624 40.4772 772.847 42.043 771.408 44.0742C766.838 49.4062 762.479 54.8229 758.332 60.3242C753.254 67.0951 750.122 71.0306 748.938 72.1309C747.245 75.347 746.06 77.4629 745.383 78.4785C742.674 82.8796 740.22 87.4499 738.02 92.1895C737.173 93.9668 736.75 95.1517 736.75 95.7441C736.75 96.5905 737.258 97.1829 738.273 97.5215C739.882 98.0293 742.505 98.5794 746.145 99.1719C750.376 99.9336 754.566 100.865 758.713 101.965C762.945 103.065 766.542 105.223 769.504 108.439C772.128 111.656 774.921 114.618 777.883 117.326C779.914 118.934 780.93 120.923 780.93 123.293C780.93 124.986 780.337 126.721 779.152 128.498C776.783 132.307 773.778 135.48 770.139 138.02C768.446 140.305 765.695 142.505 761.887 144.621C755.031 149.361 748.049 152.788 740.939 154.904C737.131 156.089 734.93 156.682 734.338 156.682ZM823.078 50.2949C823.501 49.2793 823.755 48.5176 823.84 48.0098C824.009 47.4173 824.051 46.8672 823.967 46.3594L823.713 44.0742L823.459 45.8516C823.12 46.7826 822.951 47.7982 822.951 48.8984L823.078 50.2949ZM865.48 76.0664C865.904 76.0664 866.242 75.6855 866.496 74.9238C867.342 73.485 867.766 71.9193 867.766 70.2266L867.639 68.957C867.639 68.026 867.85 67.1374 868.273 66.291C869.12 64.5137 869.543 62.694 869.543 60.832C869.543 58.8854 869.924 57.0658 870.686 55.373C870.77 55.2884 870.812 55.1615 870.812 54.9922L870.686 54.6113L870.559 53.0879C870.559 52.0723 870.728 51.1413 871.066 50.2949C871.405 49.3639 871.828 46.9518 872.336 43.0586C873.436 33.2409 875.002 23.4232 877.033 13.6055V13.2246C877.033 12.3783 876.652 11.9551 875.891 11.9551C875.552 11.9551 875.256 12.209 875.002 12.7168C874.41 14.4941 874.113 15.9753 874.113 17.1602C873.352 23.8464 872.294 30.4902 870.939 37.0918C870.178 40.4772 869.501 43.8626 868.908 47.248C868.739 48.3483 868.527 49.4909 868.273 50.6758C868.104 51.776 867.977 52.834 867.893 53.8496C867.808 55.627 867.469 57.362 866.877 59.0547C866.115 62.0169 865.607 64.9792 865.354 67.9414C865.1 69.8034 864.803 71.623 864.465 73.4004C864.465 74.5007 864.507 75.2201 864.592 75.5586C864.761 75.8971 865.057 76.0664 865.48 76.0664ZM870.559 76.5742V76.4473C870.812 76.4473 871.024 76.3626 871.193 76.1934C871.278 75.7702 871.32 75.3047 871.32 74.7969C871.32 74.7122 871.278 74.6699 871.193 74.6699C871.109 74.5853 870.982 74.4583 870.812 74.2891L870.559 74.416C870.305 74.7546 870.178 75.1354 870.178 75.5586C870.178 75.8971 870.305 76.2357 870.559 76.5742ZM857.99 157.951C858.16 156.851 858.371 152.831 858.625 145.891C858.625 143.859 858.667 141.87 858.752 139.924V139.162C858.752 135.861 859.26 132.645 860.275 129.514C860.614 128.667 860.868 127.44 861.037 125.832C861.376 123.632 861.545 121.727 861.545 120.119C861.545 118.85 861.46 117.58 861.291 116.311L861.164 114.66L862.434 103.234C863.026 98.0716 863.322 94.8978 863.322 93.7129L862.814 93.0781C862.391 93.0781 862.18 93.2051 862.18 93.459C861.926 93.7975 861.799 94.1784 861.799 94.6016L859.26 109.709C859.006 113.01 858.286 115.76 857.102 117.961C856.848 118.299 856.721 118.638 856.721 118.977C856.721 119.23 856.805 119.527 856.975 119.865C857.482 121.389 857.736 122.954 857.736 124.562L857.609 128.879C857.609 133.618 856.763 138.189 855.07 142.59C854.901 142.844 854.816 143.098 854.816 143.352C854.816 143.775 854.986 144.156 855.324 144.494C856.086 145.425 856.467 146.525 856.467 147.795V149.953C856.467 151.561 856.594 153.127 856.848 154.65C856.932 154.904 856.975 155.158 856.975 155.412C856.975 155.751 857.017 156.132 857.102 156.555C857.271 157.062 857.567 157.528 857.99 157.951ZM839.709 87.6191C840.048 87.6191 840.217 87.5345 840.217 87.3652C840.217 87.196 840.217 87.069 840.217 86.9844C840.217 86.7305 840.048 86.5612 839.709 86.4766H839.455C839.286 86.5612 839.159 86.6882 839.074 86.8574C839.074 86.9421 839.074 87.0267 839.074 87.1113C839.074 87.4499 839.286 87.6191 839.709 87.6191ZM835.012 89.1426C835.435 89.0579 835.689 88.8464 835.773 88.5078C835.604 88.0846 835.35 87.873 835.012 87.873C834.504 87.873 834.25 88.0846 834.25 88.5078C834.335 88.931 834.589 89.1426 835.012 89.1426ZM829.934 90.5391C830.526 90.5391 830.822 90.2005 830.822 89.5234C830.653 89.1849 830.441 89.0156 830.188 89.0156C829.595 89.0156 829.299 89.3118 829.299 89.9043C829.299 90.1582 829.341 90.3275 829.426 90.4121C829.51 90.4967 829.637 90.5391 829.807 90.5391H829.934ZM821.428 93.8398C823.374 93.6706 824.982 92.8242 826.252 91.3008L826.379 90.666C826.464 90.4967 826.379 90.2852 826.125 90.0312C825.956 89.7773 825.702 89.6504 825.363 89.6504C823.417 90.1582 821.851 91.1738 820.666 92.6973C820.581 92.7819 820.539 92.9089 820.539 93.0781C820.539 93.2474 820.581 93.3743 820.666 93.459C820.751 93.5436 820.878 93.6283 821.047 93.7129C821.216 93.7129 821.343 93.7552 821.428 93.8398ZM811.906 78.2246C812.668 78.0553 813.176 77.4629 813.43 76.4473L813.557 76.1934C813.895 74.8392 814.064 74.0352 814.064 73.7812C814.234 73.1042 814.488 72.4694 814.826 71.877C815.842 70.8613 816.35 70.0996 816.35 69.5918C816.35 69.084 816.011 68.5339 815.334 67.9414V67.5605C815.842 65.4447 816.096 63.7096 816.096 62.3555C816.096 60.9167 816.265 59.4779 816.604 58.0391C816.688 57.7852 816.73 57.4889 816.73 57.1504C816.73 56.0501 816.392 55.4154 815.715 55.2461C815.207 55.2461 814.784 55.5423 814.445 56.1348C813.514 58.2507 812.88 60.5358 812.541 62.9902C812.541 65.36 811.991 68.026 810.891 70.9883C810.552 71.9193 810.383 73.1042 810.383 74.543C810.383 76.9974 810.848 78.2246 811.779 78.2246H811.906ZM810.51 150.715C810.34 150.376 810.214 149.995 810.129 149.572C809.96 148.726 809.706 147.837 809.367 146.906C808.182 143.605 807.59 140.178 807.59 136.623V134.338C807.59 132.645 807.294 131.037 806.701 129.514C806.447 129.006 806.32 128.54 806.32 128.117C806.32 127.44 806.574 126.763 807.082 126.086C808.69 123.293 809.494 120.415 809.494 117.453C809.494 116.268 809.367 115.083 809.113 113.898C808.605 112.375 808.352 110.132 808.352 107.17V106.281C808.352 105.012 807.886 104.292 806.955 104.123C806.532 104.123 806.193 104.25 805.939 104.504C805.516 105.096 805.22 106.154 805.051 107.678C804.458 111.656 804.12 113.771 804.035 114.025C803.781 115.464 803.612 116.945 803.527 118.469C803.527 121.6 803.273 125.917 802.766 131.418L802.639 133.957C802.639 139.035 803.485 142.632 805.178 144.748L806.447 146.398C807.632 148.007 808.986 149.445 810.51 150.715ZM801.623 115.93L801.75 115.803C801.75 115.718 801.792 115.676 801.877 115.676C801.877 115.591 801.835 115.507 801.75 115.422C801.665 115.337 801.581 115.295 801.496 115.295L801.242 115.549C801.242 115.633 801.285 115.676 801.369 115.676V115.93H801.623ZM800.988 140.432L801.242 140.305L800.988 140.051V140.432ZM833.361 95.4902L833.234 95.3633C833.234 95.4479 833.277 95.4902 833.361 95.4902ZM863.322 168.615C862.814 168.615 862.349 168.446 861.926 168.107C858.71 165.822 856.213 164.468 854.436 164.045C850.881 162.437 848.426 160.66 847.072 158.713C845.21 156.005 844.279 150.038 844.279 140.812C844.279 132.857 845.168 121.727 846.945 107.424C847.792 100.992 848.215 96.7174 848.215 94.6016C848.13 93.0781 846.988 92.3164 844.787 92.3164C844.025 92.3164 843.264 92.4434 842.502 92.6973C841.825 92.9512 841.148 93.0781 840.471 93.0781C840.132 93.0781 839.751 93.0358 839.328 92.9512C838.905 92.8665 838.524 92.8242 838.186 92.8242C837.255 92.8242 836.408 93.2051 835.646 93.9668C834.969 94.7285 834.165 95.194 833.234 95.3633C832.642 94.7708 832.049 94.4746 831.457 94.4746C830.526 94.4746 829.553 95.0247 828.537 96.125C827.521 97.4792 826.506 98.1562 825.49 98.1562L824.855 98.0293C824.263 97.86 823.713 97.7754 823.205 97.7754C821.682 97.7754 820.327 98.3255 819.143 99.4258C817.45 101.034 816.392 103.023 815.969 105.393C815.884 105.562 815.842 105.773 815.842 106.027C815.673 107.382 815.207 108.651 814.445 109.836L814.318 105.9C813.303 106.916 812.795 108.101 812.795 109.455L812.414 111.613C811.314 118.553 810.679 124.901 810.51 130.656C810.51 132.349 810.933 133.576 811.779 134.338C811.949 134.507 811.991 134.719 811.906 134.973C811.906 135.227 811.779 135.48 811.525 135.734C810.679 136.327 810.256 137.173 810.256 138.273C810.256 138.781 810.425 139.204 810.764 139.543C810.848 139.628 811.102 139.67 811.525 139.67L812.16 139.543C812.414 139.628 812.541 139.882 812.541 140.305C812.964 143.775 813.684 146.652 814.699 148.938C815.207 149.868 815.461 150.588 815.461 151.096C815.461 151.434 815.292 151.773 814.953 152.111C814.699 152.365 814.361 152.492 813.938 152.492C813.26 152.492 812.414 152.111 811.398 151.35L810.51 150.715H808.605C800.057 150.715 794.683 149.107 792.482 145.891C789.605 141.743 788.166 136.158 788.166 129.133C788.166 124.986 788.674 118.426 789.689 109.455C790.959 97.0983 792.779 85.0378 795.148 73.2734C795.91 69.2109 796.63 65.1908 797.307 61.2129C797.984 57.1504 798.661 53.1725 799.338 49.2793L801.115 38.4883C801.369 36.6263 801.75 34.7643 802.258 32.9023C802.596 31.6328 803.4 30.998 804.67 30.998C806.363 30.998 808.309 31.4635 810.51 32.3945L815.334 34.5527C816.688 35.2298 818.169 35.5684 819.777 35.5684H820.539C822.74 35.5684 824.305 36.7109 825.236 38.9961C825.575 40.0964 825.744 41.1543 825.744 42.1699C825.744 42.7624 825.702 43.3125 825.617 43.8203C824.771 51.6068 823.671 59.3932 822.316 67.1797L821.809 68.1953C821.301 67.9414 821.047 67.5182 821.047 66.9258L821.301 66.0371L821.936 61.9746C822.274 60.1126 822.443 58.4199 822.443 56.8965C822.274 56.8965 822.147 56.9388 822.062 57.0234C821.978 57.0234 821.893 57.0234 821.809 57.0234C821.724 57.0234 821.682 57.0658 821.682 57.1504L820.92 60.5781C819.396 68.4492 818.635 72.7233 818.635 73.4004C818.635 75.4316 819.904 76.4473 822.443 76.4473C823.205 76.4473 823.967 76.3203 824.729 76.0664C832.092 73.8659 839.667 72.4694 847.453 71.877C850.246 71.877 851.896 70.6074 852.404 68.0684C855.874 46.9941 859.471 26.8509 863.195 7.63867L863.449 6.24219C863.703 4.88802 863.999 3.57617 864.338 2.30664C864.676 1.03711 865.311 0.402344 866.242 0.402344C867.766 0.402344 869.585 1.5026 871.701 3.70312C874.748 6.83464 877.076 8.56966 878.684 8.9082C880.799 9.58529 881.857 10.9818 881.857 13.0977C881.857 14.1979 881.73 15.3828 881.477 16.6523C881.307 17.9219 881.138 19.276 880.969 20.7148C880.884 21.5612 880.588 22.2806 880.08 22.873C879.572 23.4655 879.276 24.1003 879.191 24.7773C879.276 25.3698 879.403 25.9199 879.572 26.4277C879.742 26.9355 879.826 27.4434 879.826 27.9512L879.699 29.0938C879.191 31.6328 878.768 34.2142 878.43 36.8379C877.837 42.0853 876.822 46.0632 875.383 48.7715C874.452 50.3796 873.986 52.0299 873.986 53.7227C873.986 54.3997 874.071 55.1191 874.24 55.8809C874.41 57.235 874.494 58.5469 874.494 59.8164C874.494 62.4401 874.156 65.0215 873.479 67.5605C872.886 70.5228 872.378 73.485 871.955 76.4473L871.32 80.7637L871.193 83.5566V84.6992C871.193 86.2227 870.939 87.7038 870.432 89.1426C870.008 90.2428 869.755 91.4277 869.67 92.6973L868.908 97.3945C868.146 101.88 867.512 106.366 867.004 110.852L866.115 117.58C865.269 123.081 864.719 128.625 864.465 134.211C864.38 136.665 864.126 139.924 863.703 143.986C863.365 147.964 863.195 151.053 863.195 153.254C863.195 157.232 863.618 161.252 864.465 165.314C864.634 165.822 864.719 166.457 864.719 167.219C864.719 167.642 864.549 167.98 864.211 168.234C863.872 168.488 863.576 168.615 863.322 168.615ZM898.488 115.168C899.419 111.529 899.885 107.889 899.885 104.25C899.885 102.811 899.8 101.372 899.631 99.9336C899.631 100.103 899.504 100.23 899.25 100.314C899.081 100.399 898.911 100.526 898.742 100.695C898.658 100.865 898.573 100.992 898.488 101.076L898.361 104.123C898.107 105.816 897.98 107.508 897.98 109.201C897.98 111.148 898.15 113.137 898.488 115.168ZM906.994 170.393C907.502 169.038 907.756 167.727 907.756 166.457C907.756 165.103 907.502 163.791 906.994 162.521V170.393ZM900.52 178.391L901.662 178.264L902.678 164.807C903.016 163.537 903.186 162.225 903.186 160.871C903.186 159.602 902.762 158.332 901.916 157.062C901.747 158.417 901.535 159.729 901.281 160.998C900.52 164.637 900.139 168.277 900.139 171.916C900.139 174.032 900.266 176.19 900.52 178.391ZM899.758 99.5527C900.773 97.6061 901.324 95.5749 901.408 93.459C902.17 88.127 903.228 82.8796 904.582 77.7168C905.767 73.0618 906.74 68.3646 907.502 63.625C907.587 63.2018 907.756 62.7363 908.01 62.2285C908.348 61.6361 908.56 61.0436 908.645 60.4512C908.645 59.9434 908.221 59.5625 907.375 59.3086C906.359 59.3086 905.852 60.1973 905.852 61.9746C905.428 64.2598 904.794 66.9681 903.947 70.0996C902.17 77.209 900.943 84.3607 900.266 91.5547C900.181 92.0625 900.054 92.528 899.885 92.9512C899.377 94.1361 899.123 95.2786 899.123 96.3789C899.123 97.4792 899.335 98.5371 899.758 99.5527ZM906.105 135.227C905.428 135.227 904.878 135.057 904.455 134.719C901.662 132.857 898.658 131.46 895.441 130.529L891.506 128.879C886.428 126.678 883.889 119.527 883.889 107.424C883.889 94.8132 888.924 70.7767 898.996 35.3145C900.266 30.8288 901.704 28.5859 903.312 28.5859C904.667 28.5859 906.698 29.7285 909.406 32.0137C910.76 33.2832 912.326 34.2988 914.104 35.0605C915.965 35.5684 917.108 36.2031 917.531 36.9648C917.954 37.6419 918.166 38.4883 918.166 39.5039C918.166 40.0117 918.081 40.5618 917.912 41.1543C917.827 41.6621 917.743 42.1699 917.658 42.6777C917.066 46.9941 916.304 51.3529 915.373 55.7539C913.003 66.7565 910.845 77.8014 908.898 88.8887C907.883 93.9668 907.375 97.0137 907.375 98.0293C907.29 99.722 906.952 101.33 906.359 102.854C905.852 104.377 905.598 106.197 905.598 108.312C905.767 110.09 905.852 111.698 905.852 113.137C905.852 114.068 905.809 115.083 905.725 116.184C905.64 117.284 905.598 118.765 905.598 120.627C905.598 124.859 906.275 129.175 907.629 133.576C907.629 133.999 907.46 134.38 907.121 134.719C906.783 135.057 906.444 135.227 906.105 135.227ZM906.74 182.453L905.852 182.326C904.159 182.157 902.424 182.03 900.646 181.945C897.684 181.691 894.722 181.268 891.76 180.676C888.459 179.829 886.809 178.094 886.809 175.471V164.426H886.936L887.189 161.506C887.443 159.39 887.655 157.189 887.824 154.904C888.078 151.773 889.305 150.207 891.506 150.207C892.945 150.207 895.145 150.757 898.107 151.857C900.308 152.788 902.72 153.381 905.344 153.635C907.544 153.804 908.645 154.947 908.645 157.062L908.518 160.744L908.645 165.822C908.645 168.531 908.264 171.239 907.502 173.947C907.248 174.794 907.121 175.64 907.121 176.486C907.121 177.756 907.417 178.941 908.01 180.041C908.264 180.549 908.391 180.972 908.391 181.311C908.391 182.072 907.84 182.453 906.74 182.453Z" fill="white"/>
</svg>
