<svg width="16" height="16" viewBox="0 0 16 16" fill="none" xmlns="http://www.w3.org/2000/svg">
<path fill-rule="evenodd" clip-rule="evenodd" d="M7.99922 1.79995C4.57505 1.79995 1.79922 4.57579 1.79922 7.99995C1.79922 11.4241 4.57505 14.2 7.99922 14.2C11.4234 14.2 14.1992 11.4241 14.1992 7.99995C14.1992 7.55812 14.5574 7.19995 14.9992 7.19995C15.441 7.19995 15.7992 7.55812 15.7992 7.99995C15.7992 12.3078 12.307 15.8 7.99922 15.8C3.6914 15.8 0.199219 12.3078 0.199219 7.99995C0.199219 3.69213 3.6914 0.199951 7.99922 0.199951C8.44105 0.199951 8.79922 0.558123 8.79922 0.999951C8.79922 1.44178 8.44105 1.79995 7.99922 1.79995Z" fill="#DFFE00"/>
<path fill-rule="evenodd" clip-rule="evenodd" d="M15.0993 2.30341C15.4117 2.61583 15.4117 3.12236 15.0993 3.43478L7.53359 11.0005L4.16791 7.63478C3.85549 7.32236 3.85549 6.81583 4.16791 6.50341C4.48033 6.19099 4.98686 6.19099 5.29928 6.50341L7.53359 8.73772L13.9679 2.30341C14.2803 1.99099 14.7869 1.99099 15.0993 2.30341Z" fill="#DFFE00"/>
</svg>
