<svg width="17" height="17" viewBox="0 0 17 17" fill="none" xmlns="http://www.w3.org/2000/svg">
<path d="M16.5 0.999999C16.5 0.723857 16.2761 0.5 16 0.499999L11.5 0.5C11.2239 0.5 11 0.723857 11 1C11 1.27614 11.2239 1.5 11.5 1.5L15.5 1.5L15.5 5.5C15.5 5.77614 15.7239 6 16 6C16.2761 6 16.5 5.77614 16.5 5.5L16.5 0.999999ZM10.3536 7.35355L16.3536 1.35355L15.6464 0.646446L9.64645 6.64645L10.3536 7.35355Z" fill="white"/>
<path d="M0.499999 16C0.5 16.2761 0.723857 16.5 0.999999 16.5L5.5 16.5C5.77614 16.5 6 16.2761 6 16C6 15.7239 5.77614 15.5 5.5 15.5L1.5 15.5L1.5 11.5C1.5 11.2239 1.27614 11 1 11C0.723857 11 0.5 11.2239 0.5 11.5L0.499999 16ZM6.64645 9.64645L0.646446 15.6464L1.35355 16.3536L7.35355 10.3536L6.64645 9.64645Z" fill="white"/>
</svg>
