<svg width="1151" height="451" viewBox="0 0 1151 451" fill="none" xmlns="http://www.w3.org/2000/svg">
<path d="M6.94938 161V77H48.3494C57.7094 77 65.9494 78.72 73.0694 82.16C80.1894 85.52 85.7494 90.32 89.7494 96.56C93.7494 102.8 95.7494 110.24 95.7494 118.88C95.7494 127.6 93.7494 135.12 89.7494 141.44C85.7494 147.68 80.1894 152.52 73.0694 155.96C65.9494 159.32 57.7094 161 48.3494 161H6.94938ZM35.2694 138.92H47.1494C51.1494 138.92 54.6294 138.16 57.5894 136.64C60.6294 135.12 62.9894 132.88 64.6694 129.92C66.3494 126.88 67.1894 123.2 67.1894 118.88C67.1894 114.64 66.3494 111.04 64.6694 108.08C62.9894 105.12 60.6294 102.88 57.5894 101.36C54.6294 99.84 51.1494 99.08 47.1494 99.08H35.2694V138.92ZM95.7981 161L132.518 77H160.358L197.078 161H167.798L140.678 90.44H151.718L124.598 161H95.7981ZM117.638 146.36L124.838 125.96H163.478L170.678 146.36H117.638ZM201.598 161V77H242.038C249.878 77 256.638 78.28 262.318 80.84C268.078 83.4 272.518 87.08 275.638 91.88C278.758 96.6 280.318 102.2 280.318 108.68C280.318 115.16 278.758 120.76 275.638 125.48C272.518 130.2 268.078 133.88 262.318 136.52C256.638 139.08 249.878 140.36 242.038 140.36H217.318L229.918 128.24V161H201.598ZM229.918 131.36L217.318 118.52H240.238C244.158 118.52 247.038 117.64 248.878 115.88C250.798 114.12 251.758 111.72 251.758 108.68C251.758 105.64 250.798 103.24 248.878 101.48C247.038 99.72 244.158 98.84 240.238 98.84H217.318L229.918 86V131.36ZM289.606 161V77H331.006C340.366 77 348.606 78.72 355.726 82.16C362.846 85.52 368.406 90.32 372.406 96.56C376.406 102.8 378.406 110.24 378.406 118.88C378.406 127.6 376.406 135.12 372.406 141.44C368.406 147.68 362.846 152.52 355.726 155.96C348.606 159.32 340.366 161 331.006 161H289.606ZM317.926 138.92H329.806C333.806 138.92 337.286 138.16 340.246 136.64C343.286 135.12 345.646 132.88 347.326 129.92C349.006 126.88 349.846 123.2 349.846 118.88C349.846 114.64 349.006 111.04 347.326 108.08C345.646 105.12 343.286 102.88 340.246 101.36C337.286 99.84 333.806 99.08 329.806 99.08H317.926V138.92ZM378.454 161L415.174 77H443.014L479.734 161H450.454L423.334 90.44H434.374L407.254 161H378.454ZM400.294 146.36L407.494 125.96H446.134L453.334 146.36H400.294ZM484.254 161V77H524.694C532.534 77 539.294 78.28 544.974 80.84C550.734 83.4 555.174 87.08 558.294 91.88C561.414 96.6 562.974 102.2 562.974 108.68C562.974 115.16 561.414 120.76 558.294 125.48C555.174 130.2 550.734 133.88 544.974 136.52C539.294 139.08 532.534 140.36 524.694 140.36H499.974L512.574 128.24V161H484.254ZM512.574 131.36L499.974 118.52H522.894C526.814 118.52 529.694 117.64 531.534 115.88C533.454 114.12 534.414 111.72 534.414 108.68C534.414 105.64 533.454 103.24 531.534 101.48C529.694 99.72 526.814 98.84 522.894 98.84H499.974L512.574 86V131.36ZM601.61 161L639.05 108.68L638.93 128.48L602.69 77H634.49L655.61 108.2L642.05 108.32L662.69 77H693.17L656.93 127.4V107.72L694.97 161H662.57L641.45 128.36L654.53 128.24L633.89 161H601.61ZM736.793 161V77H781.673C793.273 77 801.833 79.08 807.353 83.24C812.873 87.32 815.633 92.56 815.633 98.96C815.633 103.2 814.433 107 812.033 110.36C809.713 113.64 806.313 116.24 801.833 118.16C797.353 120.08 791.833 121.04 785.273 121.04L787.673 114.56C794.233 114.56 799.873 115.48 804.593 117.32C809.393 119.16 813.073 121.84 815.633 125.36C818.273 128.8 819.593 132.96 819.593 137.84C819.593 145.12 816.553 150.8 810.473 154.88C804.473 158.96 795.673 161 784.073 161H736.793ZM764.633 141.2H781.673C784.793 141.2 787.113 140.64 788.633 139.52C790.233 138.4 791.033 136.76 791.033 134.6C791.033 132.44 790.233 130.8 788.633 129.68C787.113 128.56 784.793 128 781.673 128H762.713V109.28H777.833C781.033 109.28 783.353 108.76 784.793 107.72C786.313 106.6 787.073 105.04 787.073 103.04C787.073 100.96 786.313 99.4 784.793 98.36C783.353 97.32 781.033 96.8 777.833 96.8H764.633V141.2ZM829.606 161V77H857.926V139.04H895.846V161H829.606ZM895.72 161L932.44 77H960.28L997 161H967.72L940.6 90.44H951.64L924.52 161H895.72ZM917.56 146.36L924.76 125.96H963.4L970.6 146.36H917.56ZM1032.84 162.92C1025.8 162.92 1019 162.12 1012.44 160.52C1005.88 158.92 1000.48 156.84 996.24 154.28L1005.36 133.64C1009.36 135.96 1013.8 137.84 1018.68 139.28C1023.64 140.64 1028.44 141.32 1033.08 141.32C1035.8 141.32 1037.92 141.16 1039.44 140.84C1041.04 140.44 1042.2 139.92 1042.92 139.28C1043.64 138.56 1044 137.72 1044 136.76C1044 135.24 1043.16 134.04 1041.48 133.16C1039.8 132.28 1037.56 131.56 1034.76 131C1032.04 130.36 1029.04 129.72 1025.76 129.08C1022.48 128.36 1019.16 127.44 1015.8 126.32C1012.52 125.2 1009.48 123.72 1006.68 121.88C1003.96 120.04 1001.76 117.64 1000.08 114.68C998.4 111.64 997.56 107.88 997.56 103.4C997.56 98.2 999 93.48 1001.88 89.24C1004.84 84.92 1009.2 81.48 1014.96 78.92C1020.8 76.36 1028.04 75.08 1036.68 75.08C1042.36 75.08 1047.96 75.68 1053.48 76.88C1059 78.08 1063.96 79.92 1068.36 82.4L1059.84 102.92C1055.68 100.84 1051.64 99.28 1047.72 98.24C1043.88 97.2 1040.12 96.68 1036.44 96.68C1033.72 96.68 1031.56 96.92 1029.96 97.4C1028.36 97.88 1027.2 98.52 1026.48 99.32C1025.84 100.12 1025.52 101 1025.52 101.96C1025.52 103.4 1026.36 104.56 1028.04 105.44C1029.72 106.24 1031.92 106.92 1034.64 107.48C1037.44 108.04 1040.48 108.64 1043.76 109.28C1047.12 109.92 1050.44 110.8 1053.72 111.92C1057 113.04 1060 114.52 1062.72 116.36C1065.52 118.2 1067.76 120.6 1069.44 123.56C1071.12 126.52 1071.96 130.2 1071.96 134.6C1071.96 139.72 1070.48 144.44 1067.52 148.76C1064.64 153 1060.32 156.44 1054.56 159.08C1048.8 161.64 1041.56 162.92 1032.84 162.92ZM1097.46 161V98.96H1072.86V77H1150.38V98.96H1125.78V161H1097.46Z" fill="#EBF479"/>
<line x1="576.5" y1="6.55671e-08" x2="576.5" y2="451" stroke="url(#paint0_linear_9613_32285)" stroke-width="3"/>
<line x1="801" y1="226.5" x2="350" y2="226.5" stroke="url(#paint1_linear_9613_32285)" stroke-width="3"/>
<line x1="634.828" y1="7.94243" x2="518.1" y2="443.575" stroke="url(#paint2_linear_9613_32285)" stroke-width="3"/>
<line x1="793.057" y1="284.83" x2="357.425" y2="168.102" stroke="url(#paint3_linear_9613_32285)" stroke-width="3"/>
<line x1="689.084" y1="30.6729" x2="463.584" y2="421.25" stroke="url(#paint4_linear_9613_32285)" stroke-width="3"/>
<line x1="770.258" y1="339.078" x2="379.68" y2="113.578" stroke="url(#paint5_linear_9613_32285)" stroke-width="3"/>
<line x1="735.572" y1="66.6427" x2="416.667" y2="385.548" stroke="url(#paint6_linear_9613_32285)" stroke-width="3"/>
<line x1="734.158" y1="385.549" x2="415.253" y2="66.6438" stroke="url(#paint7_linear_9613_32285)" stroke-width="3"/>
<line x1="771.109" y1="113.492" x2="380.532" y2="338.992" stroke="url(#paint8_linear_9613_32285)" stroke-width="3"/>
<line x1="687.205" y1="421.166" x2="461.705" y2="30.5881" stroke="url(#paint9_linear_9613_32285)" stroke-width="3"/>
<line x1="793.322" y1="168.035" x2="357.689" y2="284.762" stroke="url(#paint10_linear_9613_32285)" stroke-width="3"/>
<line x1="632.645" y1="443.508" x2="515.917" y2="7.87578" stroke="url(#paint11_linear_9613_32285)" stroke-width="3"/>
<g opacity="0.6" filter="url(#filter0_f_9613_32285)">
<circle cx="575" cy="226" r="75" fill="url(#paint12_linear_9613_32285)"/>
</g>
<circle cx="575" cy="226" r="73" fill="url(#paint13_linear_9613_32285)" stroke="black" stroke-width="6"/>
<path d="M545.684 215.231L534.316 241.556L572.607 255.615M545.684 215.231L583.077 196.983L604.616 199.675M545.684 215.231L568.419 220.615M572.607 255.615L615.684 220.615L604.616 199.675M572.607 255.615L568.419 220.615M604.616 199.675L568.419 220.615" stroke="black" stroke-width="6"/>
<path d="M195.783 214.25C196.122 214.25 196.333 213.996 196.418 213.488C196.249 213.319 196.164 213.192 196.164 213.107C196.164 212.938 196.122 212.854 196.037 212.854C195.699 212.854 195.529 213.234 195.529 213.996C195.529 214.165 195.614 214.25 195.783 214.25ZM189.816 247.893C190.07 247.893 190.197 247.681 190.197 247.258L190.324 247.004L190.07 246.623C189.732 246.623 189.562 246.835 189.562 247.258C189.562 247.681 189.647 247.893 189.816 247.893ZM187.15 259.445L188.42 252.336C187.489 254.029 187.023 255.848 187.023 257.795L187.15 259.445ZM179.406 273.283C179.66 272.945 180.126 270.575 180.803 266.174C181.48 261.35 182.411 256.61 183.596 251.955C183.596 251.193 183.342 250.812 182.834 250.812C181.988 251.743 181.438 252.886 181.184 254.24L180.549 257.287C179.195 261.773 178.518 266.597 178.518 271.76C178.518 272.775 178.814 273.283 179.406 273.283ZM138.908 219.582L139.035 219.455V218.439C138.951 218.609 138.908 218.99 138.908 219.582ZM139.035 218.059L139.924 217.043L139.797 216.789C139.628 216.789 139.501 216.916 139.416 217.17C139.331 217.424 139.204 217.72 139.035 218.059ZM128.117 243.957C128.371 243.788 128.583 243.407 128.752 242.814L129.133 239.006C131.587 226.988 135.1 215.435 139.67 204.348C140.008 203.417 140.432 202.486 140.939 201.555C141.532 200.539 142.04 199.439 142.463 198.254C144.663 192.837 147.287 187.717 150.334 182.893L162.775 162.961C169.885 151.62 174.963 144.426 178.01 141.379C178.179 141.21 178.264 140.998 178.264 140.744C178.264 140.321 178.137 140.109 177.883 140.109L177.502 140.236C174.709 142.183 172.339 144.595 170.393 147.473C169.208 149.081 165.653 154.54 159.729 163.85C155.581 170.62 152.661 175.233 150.969 177.688C149.615 179.549 147.626 183.273 145.002 188.859C143.394 192.329 141.659 195.715 139.797 199.016C139.374 199.777 139.035 200.581 138.781 201.428C138.02 204.221 137.089 206.971 135.988 209.68C133.026 216.704 130.529 224.406 128.498 232.785C127.736 235.07 127.355 238.413 127.355 242.814C127.355 243.576 127.609 243.957 128.117 243.957ZM185.754 284.963L185.246 284.836C182.707 283.228 180.083 281.874 177.375 280.773C175.513 279.927 173.693 279.038 171.916 278.107C168.277 276.076 166.372 272.775 166.203 268.205V262.365C166.203 259.911 165.78 258.684 164.934 258.684C164.257 258.684 160.448 260.165 153.508 263.127C149.784 264.65 145.975 265.412 142.082 265.412C139.204 265.412 136.792 264.608 134.846 263C131.037 259.868 126.975 256.949 122.658 254.24C117.919 251.024 115.549 246.369 115.549 240.275C115.549 236.213 115.803 232.827 116.311 230.119C119.865 212.684 125.747 196.434 133.957 181.369C135.227 179.084 137.258 175.572 140.051 170.832C147.329 158.306 152.238 150.308 154.777 146.838C159.094 140.66 164.003 135.285 169.504 130.715C175.598 125.806 181.311 123.352 186.643 123.352C190.282 123.352 193.498 124.367 196.291 126.398C200.692 129.868 203.4 131.9 204.416 132.492C206.363 133.762 207.336 135.624 207.336 138.078C207.336 140.194 206.913 141.252 206.066 141.252C205.897 141.252 205.686 141.125 205.432 140.871C204.501 139.771 203.4 139.178 202.131 139.094C200.354 138.924 198.745 138.247 197.307 137.062C196.545 136.47 195.741 136.174 194.895 136.174C194.302 136.174 193.667 136.343 192.99 136.682C189.52 138.374 186.389 140.744 183.596 143.791C180.803 146.838 175.259 154.709 166.965 167.404C162.056 174.852 159.39 178.999 158.967 179.846C154.989 187.294 152.577 191.695 151.73 193.049C148.514 198.55 146.525 202.782 145.764 205.744C138.231 223.518 134.211 237.609 133.703 248.02C133.703 249.035 134.211 249.543 135.227 249.543C135.65 249.543 136.031 249.501 136.369 249.416C136.792 249.247 137.258 249.12 137.766 249.035C147.16 245.988 158.12 240.529 170.646 232.658C172.339 231.727 173.609 230.204 174.455 228.088C176.74 220.979 179.449 214.081 182.58 207.395C182.834 206.887 182.961 206.464 182.961 206.125C182.961 205.448 182.58 205.109 181.818 205.109C181.564 205.109 181.226 205.152 180.803 205.236C180.464 205.321 179.999 205.363 179.406 205.363C177.46 205.363 175.598 204.602 173.82 203.078C172.382 201.978 170.012 200.412 166.711 198.381C165.441 197.619 164.807 196.773 164.807 195.842C164.807 194.995 165.061 194.572 165.568 194.572L166.584 194.699C167.938 194.699 169.462 194.107 171.154 192.922C177.079 189.96 182.707 187.632 188.039 185.939C192.186 184.924 195.868 183.273 199.084 180.988C199.507 180.65 199.93 180.48 200.354 180.48C201.538 180.48 202.893 181.454 204.416 183.4C204.416 183.485 204.458 183.527 204.543 183.527C206.236 186.066 207.928 187.59 209.621 188.098C210.467 188.436 210.891 189.113 210.891 190.129C210.891 191.06 210.552 191.906 209.875 192.668C209.198 193.345 208.859 193.895 208.859 194.318C208.859 194.742 209.071 195.207 209.494 195.715C210.087 196.73 210.383 197.661 210.383 198.508C210.298 199.439 208.817 203.036 205.939 209.299C202.723 216.154 201.115 220.428 201.115 222.121C201.115 223.814 200.692 225.845 199.846 228.215L200.607 228.342C201.2 228.342 201.792 228.003 202.385 227.326C202.977 226.649 203.697 226.311 204.543 226.311C205.559 226.311 206.151 227.199 206.32 228.977C206.32 230.5 205.305 232.108 203.273 233.801L196.164 239.514C194.387 240.868 193.117 242.772 192.355 245.227C189.478 255.214 187.743 260.207 187.15 260.207L187.404 259.699L187.15 259.572C186.219 260.249 185.754 261.053 185.754 261.984C185.754 262.408 185.839 262.873 186.008 263.381C186.346 264.396 186.516 265.412 186.516 266.428C186.516 267.189 186.431 268.036 186.262 268.967C185.923 271.844 185.754 274.595 185.754 277.219C185.754 278.996 186.177 280.646 187.023 282.17C187.193 282.508 187.277 282.805 187.277 283.059C187.277 283.143 187.235 283.312 187.15 283.566C187.066 283.82 186.854 284.117 186.516 284.455C186.262 284.794 186.008 284.963 185.754 284.963ZM264.465 213.742C263.534 213.742 262.984 212.557 262.814 210.188L262.941 209.172C262.941 208.156 262.772 207.352 262.434 206.76L261.799 205.744L260.529 207.775C259.598 209.891 258.794 211.203 258.117 211.711C257.694 211.965 257.186 212.092 256.594 212.092C256.086 212.092 255.536 212.007 254.943 211.838C251.558 210.992 249.865 209.172 249.865 206.379C249.95 205.279 250.119 204.009 250.373 202.57C250.458 202.486 250.5 202.359 250.5 202.189C251.177 198.889 252.15 197.238 253.42 197.238C254.351 197.238 255.832 198.085 257.863 199.777C260.572 201.809 262.688 203.12 264.211 203.713C265.819 204.221 266.623 205.025 266.623 206.125C266.623 209.595 266.115 212.007 265.1 213.361C264.846 213.615 264.634 213.742 264.465 213.742ZM296.711 209.553L296.584 209.299V209.553H296.711ZM245.422 237.863C246.184 237.863 247.199 237.609 248.469 237.102L248.977 236.975C249.484 236.805 249.992 236.551 250.5 236.213C263.026 229.188 272.463 219.286 278.811 206.506C280.926 202.274 281.984 198.212 281.984 194.318C281.984 191.102 281.18 187.844 279.572 184.543L279.064 183.654C278.049 181.538 276.822 179.719 275.383 178.195C274.198 177.01 272.548 176.418 270.432 176.418L268.654 176.545C268.231 176.545 267.469 176.291 266.369 175.783C264.169 174.768 262.518 174.26 261.418 174.26C261.164 174.26 260.699 174.344 260.021 174.514C259.429 174.683 258.413 175.826 256.975 177.941C250.204 187.082 245.718 197.238 243.518 208.41L243.391 208.918C242.206 213.742 241.613 218.651 241.613 223.645L241.867 226.818C242.036 229.188 242.29 231.643 242.629 234.182C242.967 236.636 243.898 237.863 245.422 237.863ZM234.885 222.756C235.308 221.74 235.562 220.682 235.646 219.582C236.408 207.31 239.37 195.63 244.533 184.543L246.057 181.115C244.449 182.046 243.264 183.358 242.502 185.051C238.439 193.091 235.689 201.512 234.25 210.314C233.996 211.923 233.869 213.531 233.869 215.139C233.869 217.678 234.208 220.217 234.885 222.756ZM246.184 181.115L246.311 180.861H246.184C246.184 181.031 246.141 181.115 246.057 181.115H246.184ZM246.438 180.734C248.977 178.534 250.458 176.206 250.881 173.752C247.834 175.529 246.311 177.772 246.311 180.48L246.438 180.734ZM276.145 238.498C276.398 238.329 276.695 238.202 277.033 238.117C277.372 238.033 277.668 237.906 277.922 237.736C285.878 231.219 291.844 223.264 295.822 213.869C296.161 212.938 296.372 211.923 296.457 210.822C296.457 210.399 296.499 210.018 296.584 209.68L296.076 209.934C295.484 210.103 295.103 210.399 294.934 210.822C291.04 219.878 285.412 227.622 278.049 234.055C276.695 235.24 276.018 236.34 276.018 237.355L276.145 238.498ZM296.584 209.299C297.854 207.945 298.488 206.294 298.488 204.348C298.488 203.163 298.234 201.809 297.727 200.285C296.796 202.74 296.33 204.94 296.33 206.887C296.33 207.733 296.415 208.537 296.584 209.299ZM259.514 249.162C254.52 249.162 249.823 248.908 245.422 248.4C245.253 248.062 244.237 247.427 242.375 246.496C237.974 244.296 235.266 242.984 234.25 242.561C224.686 238.667 219.735 231.389 219.396 220.725L219.27 215.9C219.27 196.773 225.871 179.888 239.074 165.246C240.259 164.061 241.571 162.961 243.01 161.945C246.311 159.322 249.061 157.967 251.262 157.883C253.462 157.883 256.382 158.983 260.021 161.184C263.407 163.046 266.708 165.077 269.924 167.277C274.41 170.493 279.191 173.329 284.27 175.783C290.109 178.492 295.188 182.385 299.504 187.463C303.482 192.202 305.471 197.577 305.471 203.586C305.471 213.404 302.212 221.783 295.695 228.723L295.949 228.088C295.949 227.919 295.907 227.749 295.822 227.58C295.738 227.411 295.611 227.326 295.441 227.326C294.595 227.495 293.96 227.919 293.537 228.596C293.114 229.188 292.648 230.373 292.141 232.15L294.172 230.881C291.887 233.928 289.39 236.763 286.682 239.387C284.481 241.587 283.381 242.772 283.381 242.941C279.064 247.089 271.109 249.162 259.514 249.162ZM342.922 248.908C345.715 248.57 348.762 247.766 352.062 246.496C355.448 245.142 358.156 243.745 360.188 242.307C353.586 243.153 347.831 245.354 342.922 248.908ZM311.564 270.998C313.765 269.898 316.092 268.163 318.547 265.793C321.086 263.423 322.863 261.18 323.879 259.064C319.986 261.604 317.193 263.635 315.5 265.158C313.807 266.682 312.495 268.628 311.564 270.998ZM307.375 278.742C309.491 276.711 310.803 274.257 311.311 271.379C308.602 272.733 307.248 274.807 307.248 277.6L307.375 278.742ZM318.42 244.084C319.605 242.899 320.367 241.63 320.705 240.275C321.044 238.921 321.298 237.398 321.467 235.705C323.667 218.524 330.1 194.784 340.764 164.484C340.848 164.146 340.975 163.85 341.145 163.596C341.568 162.665 341.779 161.734 341.779 160.803C341.779 160.21 341.568 159.576 341.145 158.898L340.383 158.771C339.621 158.771 339.156 159.195 338.986 160.041C336.701 167.827 334.289 175.572 331.75 183.273C328.788 192.499 325.995 201.766 323.371 211.076C320.747 220.301 318.716 229.696 317.277 239.26L317.15 240.656C317.15 241.926 317.574 243.068 318.42 244.084ZM338.732 251.828C339.494 251.828 340.129 251.617 340.637 251.193C341.398 250.516 341.991 249.797 342.414 249.035L341.525 249.289C339.748 249.289 338.436 250.093 337.59 251.701L338.732 251.828ZM312.58 291.564C311.903 291.564 311.353 291.353 310.93 290.93C305.005 285.598 300.943 281.916 298.742 279.885C296.457 277.938 295.314 275.653 295.314 273.029C295.314 271.59 295.695 270.067 296.457 268.459C298.827 263.296 302.17 258.895 306.486 255.256C306.486 255.171 306.529 255.129 306.613 255.129C308.137 253.775 308.898 252.674 308.898 251.828C308.898 251.066 308.179 250.135 306.74 249.035C305.217 247.935 304.455 245.988 304.455 243.195L304.582 239.895C306.359 221.19 312.03 199.058 321.594 173.498C324.302 165.965 326.841 158.433 329.211 150.9C330.057 148.023 330.988 145.103 332.004 142.141C333.189 138.163 334.543 136.174 336.066 136.174C337.251 136.174 339.071 136.936 341.525 138.459C343.133 139.39 344.784 140.236 346.477 140.998C349.1 142.098 350.412 143.537 350.412 145.314C350.412 145.992 350.285 146.796 350.031 147.727C349.862 148.573 349.693 149.504 349.523 150.52C349.1 153.82 348.254 157.036 346.984 160.168C345.207 164.4 343.811 168.716 342.795 173.117C341.864 176.926 340.721 180.65 339.367 184.289C337.251 189.029 335.601 193.641 334.416 198.127C333.231 203.459 331.792 208.664 330.1 213.742C327.561 221.529 326.206 227.03 326.037 230.246V230.881C326.037 232.827 325.656 234.859 324.895 236.975C324.641 237.567 324.514 238.075 324.514 238.498C324.514 239.26 324.81 239.895 325.402 240.402C325.995 240.826 326.672 241.037 327.434 241.037C328.026 241.037 328.703 240.91 329.465 240.656C336.236 237.863 343.091 235.493 350.031 233.547C352.486 232.785 354.813 232.404 357.014 232.404C358.283 232.404 360.018 232.658 362.219 233.166C364.419 233.589 366.704 235.578 369.074 239.133C369.836 240.064 370.767 240.91 371.867 241.672C373.645 242.857 374.533 243.999 374.533 245.1V245.48C374.11 246.411 373.264 246.877 371.994 246.877C357.521 247.554 344.657 252.421 333.4 261.477C327.137 265.878 321.636 270.575 316.896 275.568C313.342 279.123 311.564 282.297 311.564 285.09C311.564 286.867 312.368 288.814 313.977 290.93C313.469 291.353 313.003 291.564 312.58 291.564ZM393.703 240.402C395.988 221.783 399.924 202.951 405.51 183.908C406.441 180.354 407.583 175.529 408.938 169.436C409.784 166.219 410.207 164.23 410.207 163.469C410.207 162.453 409.742 161.607 408.811 160.93C407.626 161.691 407.033 162.961 407.033 164.738C407.033 168.124 406.441 171.509 405.256 174.895C403.732 178.788 402.59 183.146 401.828 187.971C400.643 193.98 399.374 199.566 398.02 204.729C396.158 212.43 394.507 220.259 393.068 228.215C392.73 229.908 392.561 231.6 392.561 233.293C392.561 235.747 392.941 238.117 393.703 240.402ZM436.74 220.852C439.956 218.566 443.299 214.462 446.77 208.537C450.324 202.613 453.329 196.392 455.783 189.875C457.984 183.951 459.084 178.83 459.084 174.514C457.391 181.2 455.021 187.59 451.975 193.684C448.928 199.693 445.627 205.66 442.072 211.584C440.21 214.631 438.433 217.72 436.74 220.852ZM431.662 229.23C431.747 229.23 431.916 229.104 432.17 228.85C432.424 228.511 432.551 228.257 432.551 228.088C432.466 228.003 432.297 227.961 432.043 227.961C431.535 228.215 431.281 228.469 431.281 228.723C431.281 229.061 431.408 229.23 431.662 229.23ZM404.113 261.857L404.367 261.73C409.191 259.445 416.089 251.997 425.061 239.387C425.653 238.794 425.949 238.202 425.949 237.609C425.949 237.355 425.822 236.975 425.568 236.467C422.014 240.106 418.628 243.872 415.412 247.766C413.296 250.559 410.884 253.352 408.176 256.145C406.314 257.922 404.96 259.826 404.113 261.857ZM402.336 264.777C403.013 264.439 403.563 263.592 403.986 262.238C403.817 262.238 403.563 262.323 403.225 262.492C402.971 262.661 402.717 262.873 402.463 263.127C402.294 263.381 402.209 263.677 402.209 264.016L402.336 264.777ZM395.354 277.854H394.846C393.999 277.854 393.153 277.557 392.307 276.965C389.937 275.357 387.44 273.96 384.816 272.775C382.785 271.844 380.839 270.829 378.977 269.729C376.691 268.29 375.549 266.809 375.549 265.285C375.549 264.608 375.718 263.804 376.057 262.873C377.157 259.488 378.892 256.483 381.262 253.859C382.193 252.59 383.208 251.955 384.309 251.955C385.07 251.955 385.874 252.251 386.721 252.844C387.99 253.69 389.09 254.113 390.021 254.113C390.529 254.113 391.037 253.944 391.545 253.605C393.83 252.167 395.565 250.262 396.75 247.893L396.877 247.258C396.877 246.835 396.665 246.369 396.242 245.861C395.904 245.354 394.38 244.846 391.672 244.338C386.932 243.576 383.758 242.053 382.15 239.768C381.135 238.329 380.627 236.424 380.627 234.055C381.473 221.359 385.197 204.094 391.799 182.258C393.407 176.672 395.015 171.044 396.623 165.373C397.469 161.988 397.977 158.518 398.146 154.963C398.231 152.339 399.077 151.027 400.686 151.027C401.532 151.027 402.59 151.408 403.859 152.17C406.822 153.439 408.938 154.582 410.207 155.598C411.561 156.529 412.408 157.756 412.746 159.279C412.831 160.295 412.873 162.368 412.873 165.5C412.873 167.785 412.746 169.224 412.492 169.816C410.63 175.318 409.403 180.904 408.811 186.574C408.218 192.16 407.076 197.661 405.383 203.078C404.621 205.363 404.071 207.691 403.732 210.061C403.394 212.43 402.928 214.673 402.336 216.789C401.32 220.09 400.686 223.433 400.432 226.818C400.178 229.611 399.712 232.404 399.035 235.197C398.866 235.959 398.781 236.763 398.781 237.609C398.781 238.879 398.951 240.106 399.289 241.291C399.628 242.476 400.093 243.068 400.686 243.068C401.701 243.068 404.875 239.683 410.207 232.912C421.04 219.54 430.604 205.363 438.898 190.383C444.061 181.327 446.812 172.609 447.15 164.23C447.15 158.645 445.5 153.482 442.199 148.742C441.268 147.303 439.872 146.372 438.01 145.949C431.831 144.51 425.738 143.791 419.729 143.791C418.374 143.791 415.497 143.96 411.096 144.299C406.695 144.553 400.939 146.33 393.83 149.631C391.545 150.477 390.021 151.408 389.26 152.424C388.583 153.439 388.033 155.217 387.609 157.756C384.309 156.486 381.135 155.09 378.088 153.566C375.803 152.212 374.66 150.646 374.66 148.869C374.66 147.515 375.295 146.076 376.564 144.553C377.834 143.114 379.4 142.014 381.262 141.252C391.503 136.428 401.32 134.016 410.715 134.016C416.978 134.016 423.283 135.074 429.631 137.189C438.941 140.49 447.404 145.357 455.021 151.789C461.792 157.46 465.178 164.738 465.178 173.625C465.178 177.434 464.416 181.285 462.893 185.178C462.639 186.278 462.385 187.378 462.131 188.479C461.792 190.933 460.734 193.684 458.957 196.73C457.603 198.846 456.63 201.132 456.037 203.586C454.26 204.771 452.906 206.21 451.975 207.902C451.128 209.595 450.367 211.372 449.689 213.234C449.097 215.012 448.335 216.747 447.404 218.439C441.226 228.934 434.074 238.921 425.949 248.4C419.686 256.356 412.788 263.508 405.256 269.855C401.955 272.225 399.501 274.383 397.893 276.33C397.3 277.176 396.454 277.684 395.354 277.854ZM694.074 219.201C695.598 216.916 696.359 213.7 696.359 209.553C696.359 207.691 696.529 205.871 696.867 204.094C698.221 198.592 698.898 195.08 698.898 193.557C698.898 192.541 698.56 191.356 697.883 190.002L697.756 189.621C696.656 192.076 695.725 195.292 694.963 199.27C693.947 204.517 693.439 209.426 693.439 213.996C693.439 216.197 693.651 217.932 694.074 219.201ZM713.117 220.979C715.487 219.54 717.941 216.916 720.48 213.107C723.02 209.214 725.178 204.855 726.955 200.031C723.654 203.078 720.607 206.675 717.814 210.822C715.106 214.969 713.54 218.355 713.117 220.979ZM733.303 248.4C732.88 247.3 732.16 246.411 731.145 245.734C725.051 241.926 718.999 237.313 712.99 231.896C710.79 229.95 709.055 228.977 707.785 228.977L706.77 229.104C707.277 230.712 708.589 232.277 710.705 233.801L711.213 234.182C717.222 238.498 723.273 242.688 729.367 246.75C729.79 247.004 730.171 247.3 730.51 247.639C731.441 248.146 732.372 248.4 733.303 248.4ZM741.682 252.59C739.058 250.051 736.392 248.739 733.684 248.654L734.191 249.162C736.138 251.447 738.296 252.59 740.666 252.59H741.682ZM703.977 208.41C704.569 208.41 705.204 207.902 705.881 206.887C706.812 205.617 708.674 202.528 711.467 197.619C719.338 184.924 724.501 175.529 726.955 169.436C728.986 164.273 730.002 159.279 730.002 154.455C730.002 150.308 728.098 148.234 724.289 148.234C723.02 148.234 721.411 148.488 719.465 148.996C716.587 149.589 713.71 150.477 710.832 151.662C709.478 152.255 708.801 153.016 708.801 153.947C708.801 154.455 709.055 155.005 709.562 155.598C710.409 156.613 710.874 157.629 710.959 158.645C710.959 159.745 710.832 160.845 710.578 161.945L708.166 174.895C706.643 184.882 704.484 194.742 701.691 204.475C701.522 204.982 701.438 205.448 701.438 205.871C701.438 206.802 701.903 207.521 702.834 208.029C703.257 208.283 703.638 208.41 703.977 208.41ZM727.336 199.27L729.24 196.73C732.202 193.599 734.064 189.875 734.826 185.559C730.34 189.113 727.844 193.684 727.336 199.27ZM734.953 185.178C738.169 182.808 740.539 178.661 742.062 172.736C742.232 171.975 742.528 170.959 742.951 169.689C743.882 167.32 744.348 165.331 744.348 163.723C744.348 162.538 744.094 161.311 743.586 160.041C742.74 160.295 742.316 160.803 742.316 161.564C741.47 168.081 739.523 174.302 736.477 180.227C736.392 180.227 736.35 180.269 736.35 180.354C735.419 181.877 734.953 183.485 734.953 185.178ZM752.854 268.078C751.33 268.078 749.807 267.867 748.283 267.443C737.873 264.396 728.225 259.826 719.338 253.732C715.952 251.532 712.609 249.247 709.309 246.877C705.077 243.745 702.58 242.18 701.818 242.18C700.803 242.18 700.253 243.238 700.168 245.354V247.512L700.295 252.082C700.549 255.129 700.676 256.991 700.676 257.668C700.676 258.176 700.591 258.811 700.422 259.572C700.253 260.249 699.406 260.588 697.883 260.588C696.613 260.588 695.767 260.08 695.344 259.064C694.582 257.202 694.117 253.182 693.947 247.004V245.861C693.947 242.984 693.355 240.191 692.17 237.482C691.831 239.344 691.662 241.206 691.662 243.068C691.662 244.846 691.831 246.665 692.17 248.527C692.508 250.982 692.678 253.098 692.678 254.875C692.678 256.737 692.339 258.007 691.662 258.684C691.07 259.361 689.969 259.699 688.361 259.699C684.637 259.699 682.014 258.98 680.49 257.541C678.036 255.34 676.809 248.527 676.809 237.102C676.809 230.5 677.359 222.671 678.459 213.615L678.84 210.695C680.617 194.022 683.833 177.645 688.488 161.564C688.827 160.633 688.996 159.829 688.996 159.152C688.996 157.798 688.277 156.74 686.838 155.979C685.484 155.132 684.807 154.286 684.807 153.439C684.807 152.508 685.399 151.451 686.584 150.266C689.208 147.896 692.212 146.118 695.598 144.934C703.807 141.548 710.451 139.855 715.529 139.855C720.523 139.855 728.352 142.014 739.016 146.33C743.163 148.192 746.083 151.197 747.775 155.344C748.706 157.544 749.172 159.872 749.172 162.326C749.172 166.643 747.31 172.525 743.586 179.973C742.401 182.258 741.512 184.67 740.92 187.209C740.835 188.055 740.539 188.817 740.031 189.494C737.661 192.456 735.63 195.588 733.938 198.889C733.091 200.497 732.202 202.062 731.271 203.586C727.378 209.426 723.781 215.308 720.48 221.232L718.83 223.518C717.053 225.295 716.164 226.903 716.164 228.342C716.164 228.426 716.164 228.765 716.164 229.357C716.249 229.865 717.137 230.712 718.83 231.896C730.087 240.36 742.062 247.723 754.758 253.986C756.874 255.087 758.99 255.637 761.105 255.637C762.967 255.637 764.829 255.256 766.691 254.494C767.961 253.817 769.315 253.267 770.754 252.844L773.039 251.955C773.378 251.786 773.758 251.659 774.182 251.574C774.52 251.574 774.859 251.743 775.197 252.082C775.536 252.421 775.705 252.801 775.705 253.225C775.705 253.648 775.62 254.029 775.451 254.367C774.859 256.991 773.378 258.895 771.008 260.08L760.217 266.174C757.847 267.443 755.393 268.078 752.854 268.078ZM773.293 228.85L779.895 177.688C779.556 177.518 779.175 177.391 778.752 177.307C777.059 180.1 776.213 183.189 776.213 186.574C776.128 187.928 775.959 189.283 775.705 190.637C773.928 200.116 773.039 209.722 773.039 219.455C773.039 222.587 773.124 225.718 773.293 228.85ZM823.947 235.832C823.27 230.077 822.932 224.279 822.932 218.439L823.059 211.076C823.059 207.268 822.932 203.459 822.678 199.65C821.747 203.882 821.281 208.749 821.281 214.25C821.281 215.858 821.366 219.032 821.535 223.771C821.704 228.426 822.508 232.447 823.947 235.832ZM807.062 209.807C807.824 209.045 808.29 208.41 808.459 207.902C808.459 207.648 808.332 207.479 808.078 207.395C807.909 207.31 807.824 207.268 807.824 207.268C807.316 207.268 807.062 207.818 807.062 208.918V209.807ZM788.781 239.387C790.389 238.964 791.87 237.567 793.225 235.197C798.811 227.411 803.339 219.074 806.809 210.188C804.862 211.626 803.381 213.488 802.365 215.773C801.857 216.789 801.265 217.762 800.588 218.693C797.456 223.264 794.494 227.961 791.701 232.785L789.416 236.721C789.077 237.229 788.908 237.863 788.908 238.625L788.781 239.387ZM787.131 241.545C787.639 241.545 788.104 240.995 788.527 239.895V239.641L788.273 239.768C787.427 240.021 786.962 240.402 786.877 240.91C786.877 241.164 786.962 241.376 787.131 241.545ZM832.453 263C831.945 263 831.438 262.788 830.93 262.365C828.645 260.757 826.19 259.488 823.566 258.557C821.874 257.964 820.266 257.245 818.742 256.398C814.003 253.859 811.167 245.988 810.236 232.785C810.236 229.908 809.686 226.691 808.586 223.137C803.846 230.246 800.419 235.493 798.303 238.879C796.695 241.841 794.748 244.38 792.463 246.496C790.178 248.612 787.808 249.67 785.354 249.67C783.492 249.67 781.545 249.077 779.514 247.893C775.79 245.607 771.939 243.576 767.961 241.799C763.391 239.768 760.852 236.044 760.344 230.627C760.174 228.003 760.09 225.422 760.09 222.883C760.09 217.72 760.471 212.557 761.232 207.395C761.232 206.971 761.275 206.59 761.359 206.252C762.883 192.795 765.21 179.549 768.342 166.516C769.104 163.299 770.077 161.691 771.262 161.691C772.447 161.691 774.351 162.834 776.975 165.119C778.752 166.896 780.783 168.124 783.068 168.801C784.338 169.055 784.973 170.028 784.973 171.721L784.846 172.736C784.423 175.275 784.169 177.857 784.084 180.48L784.211 182.004C784.211 186.574 783.111 190.933 780.91 195.08C780.741 195.419 780.656 195.715 780.656 195.969L780.783 199.016C780.783 201.724 780.572 204.432 780.148 207.141C779.725 209.764 779.514 212.303 779.514 214.758C779.514 217.805 779.725 219.836 780.148 220.852C780.233 221.19 780.572 221.359 781.164 221.359C781.587 221.359 782.095 220.936 782.688 220.09C782.688 219.921 782.73 219.794 782.814 219.709C791.193 206.76 798.26 192.964 804.016 178.322C808.586 166.219 811.59 160.168 813.029 160.168C813.96 160.168 816.034 161.226 819.25 163.342C821.451 164.865 823.736 166.219 826.105 167.404C828.306 168.251 829.406 169.986 829.406 172.609C829.406 173.117 829.322 173.667 829.152 174.26C828.137 179.507 827.629 184.797 827.629 190.129C827.629 192.329 827.714 194.53 827.883 196.73L828.01 205.109V210.188C828.01 222.629 828.814 235.028 830.422 247.385C830.93 251.532 831.945 255.637 833.469 259.699C833.807 260.292 834.019 260.799 834.104 261.223C834.104 261.73 833.892 262.154 833.469 262.492C833.13 262.831 832.792 263 832.453 263ZM879.68 152.297C882.811 149.25 884.377 147.388 884.377 146.711L883.742 146.457C881.796 147.896 880.145 149.673 878.791 151.789V151.916C879.045 152.17 879.257 152.297 879.426 152.297H879.68ZM870.158 251.447C871.089 251.447 872.147 250.516 873.332 248.654C872.062 248.824 870.962 249.331 870.031 250.178C869.777 250.432 869.65 250.643 869.65 250.812C869.65 251.236 869.82 251.447 870.158 251.447ZM877.395 246.242L877.648 246.115C881.118 243.83 884.165 241.122 886.789 237.99L886.916 237.736C886.577 237.398 886.366 237.229 886.281 237.229C883.911 238.837 881.753 240.656 879.807 242.688C878.791 243.703 877.733 244.634 876.633 245.48V245.861C876.887 246.115 877.141 246.242 877.395 246.242ZM889.074 242.941C889.159 242.941 889.243 242.899 889.328 242.814C889.497 242.645 889.582 242.476 889.582 242.307C889.497 242.307 889.455 242.264 889.455 242.18C889.032 242.18 888.82 242.391 888.82 242.814C888.82 242.899 888.905 242.941 889.074 242.941ZM885.139 247.893C884.969 247.385 884.842 246.835 884.758 246.242L883.615 247.766C883.954 247.85 884.462 247.893 885.139 247.893ZM846.418 201.301C847.603 200.793 848.407 199.904 848.83 198.635C849.253 197.281 849.507 196.477 849.592 196.223C854.416 186.49 859.367 178.576 864.445 172.482C866.561 169.774 868.465 166.854 870.158 163.723C869.143 163.977 868.254 164.696 867.492 165.881C860.975 174.006 856.532 180.227 854.162 184.543C853.654 185.559 853.104 186.532 852.512 187.463C849.634 191.695 847.603 196.307 846.418 201.301ZM870.412 163.342C870.666 163.173 870.878 162.961 871.047 162.707L870.92 162.453C870.581 162.453 870.412 162.749 870.412 163.342ZM873.332 159.279C874.263 158.518 874.94 157.967 875.363 157.629C875.871 157.206 876.21 156.825 876.379 156.486C876.548 156.063 876.675 155.513 876.76 154.836C875.067 155.936 873.924 157.417 873.332 159.279ZM862.414 182.893L863.938 182.131V180.734L863.684 180.607C863.514 180.692 863.345 180.988 863.176 181.496C863.007 181.919 862.753 182.385 862.414 182.893ZM849.338 266.682C847.899 266.682 846.63 266.005 845.529 264.65C844.429 263.296 842.144 261.223 838.674 258.43C835.204 255.552 833.469 253.605 833.469 252.59C833.469 251.151 834.104 250.432 835.373 250.432C840.451 250.347 844.768 249.12 848.322 246.75C859.748 241.672 868.973 235.367 875.998 227.834C876.421 227.411 876.633 227.03 876.633 226.691C876.633 226.099 875.448 225.507 873.078 224.914C862.16 223.391 854.882 220.852 851.242 217.297C847.688 213.658 844.09 210.061 840.451 206.506C837.489 204.051 836.008 201.005 836.008 197.365C836.008 196.519 836.092 195.715 836.262 194.953C837.701 187.336 842.567 177.899 850.861 166.643C858.817 155.217 867.661 144.468 877.395 134.396C885.689 126.102 890.809 121.955 892.756 121.955L893.645 122.082C894.745 122.251 896.734 124.494 899.611 128.811C900.627 130.165 901.939 131.392 903.547 132.492C905.24 133.508 906.086 134.82 906.086 136.428C906.086 137.359 904.689 140.448 901.896 145.695C901.389 146.542 900.754 147.684 899.992 149.123C899.23 150.477 898.68 151.451 898.342 152.043C898.003 152.635 897.58 152.932 897.072 152.932C894.787 152.508 893.56 150.816 893.391 147.854C892.967 148.531 892.417 149.038 891.74 149.377C889.624 150.477 887.847 152.043 886.408 154.074C881.838 159.406 877.479 164.823 873.332 170.324C868.254 177.095 865.122 181.031 863.938 182.131C862.245 185.347 861.06 187.463 860.383 188.479C857.674 192.88 855.22 197.45 853.02 202.189C852.173 203.967 851.75 205.152 851.75 205.744C851.75 206.59 852.258 207.183 853.273 207.521C854.882 208.029 857.505 208.579 861.145 209.172C865.376 209.934 869.566 210.865 873.713 211.965C877.945 213.065 881.542 215.223 884.504 218.439C887.128 221.656 889.921 224.618 892.883 227.326C894.914 228.934 895.93 230.923 895.93 233.293C895.93 234.986 895.337 236.721 894.152 238.498C891.783 242.307 888.778 245.48 885.139 248.02C883.446 250.305 880.695 252.505 876.887 254.621C870.031 259.361 863.049 262.788 855.939 264.904C852.131 266.089 849.93 266.682 849.338 266.682ZM938.078 160.295C938.501 159.279 938.755 158.518 938.84 158.01C939.009 157.417 939.051 156.867 938.967 156.359L938.713 154.074L938.459 155.852C938.12 156.783 937.951 157.798 937.951 158.898L938.078 160.295ZM980.48 186.066C980.904 186.066 981.242 185.686 981.496 184.924C982.342 183.485 982.766 181.919 982.766 180.227L982.639 178.957C982.639 178.026 982.85 177.137 983.273 176.291C984.12 174.514 984.543 172.694 984.543 170.832C984.543 168.885 984.924 167.066 985.686 165.373C985.77 165.288 985.812 165.161 985.812 164.992L985.686 164.611L985.559 163.088C985.559 162.072 985.728 161.141 986.066 160.295C986.405 159.364 986.828 156.952 987.336 153.059C988.436 143.241 990.002 133.423 992.033 123.605V123.225C992.033 122.378 991.652 121.955 990.891 121.955C990.552 121.955 990.256 122.209 990.002 122.717C989.41 124.494 989.113 125.975 989.113 127.16C988.352 133.846 987.294 140.49 985.939 147.092C985.178 150.477 984.501 153.863 983.908 157.248C983.739 158.348 983.527 159.491 983.273 160.676C983.104 161.776 982.977 162.834 982.893 163.85C982.808 165.627 982.469 167.362 981.877 169.055C981.115 172.017 980.607 174.979 980.354 177.941C980.1 179.803 979.803 181.623 979.465 183.4C979.465 184.501 979.507 185.22 979.592 185.559C979.761 185.897 980.057 186.066 980.48 186.066ZM985.559 186.574V186.447C985.812 186.447 986.024 186.363 986.193 186.193C986.278 185.77 986.32 185.305 986.32 184.797C986.32 184.712 986.278 184.67 986.193 184.67C986.109 184.585 985.982 184.458 985.812 184.289L985.559 184.416C985.305 184.755 985.178 185.135 985.178 185.559C985.178 185.897 985.305 186.236 985.559 186.574ZM972.99 267.951C973.16 266.851 973.371 262.831 973.625 255.891C973.625 253.859 973.667 251.87 973.752 249.924V249.162C973.752 245.861 974.26 242.645 975.275 239.514C975.614 238.667 975.868 237.44 976.037 235.832C976.376 233.632 976.545 231.727 976.545 230.119C976.545 228.85 976.46 227.58 976.291 226.311L976.164 224.66L977.434 213.234C978.026 208.072 978.322 204.898 978.322 203.713L977.814 203.078C977.391 203.078 977.18 203.205 977.18 203.459C976.926 203.798 976.799 204.178 976.799 204.602L974.26 219.709C974.006 223.01 973.286 225.76 972.102 227.961C971.848 228.299 971.721 228.638 971.721 228.977C971.721 229.23 971.805 229.527 971.975 229.865C972.482 231.389 972.736 232.954 972.736 234.562L972.609 238.879C972.609 243.618 971.763 248.189 970.07 252.59C969.901 252.844 969.816 253.098 969.816 253.352C969.816 253.775 969.986 254.156 970.324 254.494C971.086 255.425 971.467 256.525 971.467 257.795V259.953C971.467 261.561 971.594 263.127 971.848 264.65C971.932 264.904 971.975 265.158 971.975 265.412C971.975 265.751 972.017 266.132 972.102 266.555C972.271 267.062 972.567 267.528 972.99 267.951ZM954.709 197.619C955.048 197.619 955.217 197.535 955.217 197.365C955.217 197.196 955.217 197.069 955.217 196.984C955.217 196.73 955.048 196.561 954.709 196.477H954.455C954.286 196.561 954.159 196.688 954.074 196.857C954.074 196.942 954.074 197.027 954.074 197.111C954.074 197.45 954.286 197.619 954.709 197.619ZM950.012 199.143C950.435 199.058 950.689 198.846 950.773 198.508C950.604 198.085 950.35 197.873 950.012 197.873C949.504 197.873 949.25 198.085 949.25 198.508C949.335 198.931 949.589 199.143 950.012 199.143ZM944.934 200.539C945.526 200.539 945.822 200.201 945.822 199.523C945.653 199.185 945.441 199.016 945.188 199.016C944.595 199.016 944.299 199.312 944.299 199.904C944.299 200.158 944.341 200.327 944.426 200.412C944.51 200.497 944.637 200.539 944.807 200.539H944.934ZM936.428 203.84C938.374 203.671 939.982 202.824 941.252 201.301L941.379 200.666C941.464 200.497 941.379 200.285 941.125 200.031C940.956 199.777 940.702 199.65 940.363 199.65C938.417 200.158 936.851 201.174 935.666 202.697C935.581 202.782 935.539 202.909 935.539 203.078C935.539 203.247 935.581 203.374 935.666 203.459C935.751 203.544 935.878 203.628 936.047 203.713C936.216 203.713 936.343 203.755 936.428 203.84ZM926.906 188.225C927.668 188.055 928.176 187.463 928.43 186.447L928.557 186.193C928.895 184.839 929.064 184.035 929.064 183.781C929.234 183.104 929.488 182.469 929.826 181.877C930.842 180.861 931.35 180.1 931.35 179.592C931.35 179.084 931.011 178.534 930.334 177.941V177.561C930.842 175.445 931.096 173.71 931.096 172.355C931.096 170.917 931.265 169.478 931.604 168.039C931.688 167.785 931.73 167.489 931.73 167.15C931.73 166.05 931.392 165.415 930.715 165.246C930.207 165.246 929.784 165.542 929.445 166.135C928.514 168.251 927.88 170.536 927.541 172.99C927.541 175.36 926.991 178.026 925.891 180.988C925.552 181.919 925.383 183.104 925.383 184.543C925.383 186.997 925.848 188.225 926.779 188.225H926.906ZM925.51 260.715C925.34 260.376 925.214 259.995 925.129 259.572C924.96 258.726 924.706 257.837 924.367 256.906C923.182 253.605 922.59 250.178 922.59 246.623V244.338C922.59 242.645 922.294 241.037 921.701 239.514C921.447 239.006 921.32 238.54 921.32 238.117C921.32 237.44 921.574 236.763 922.082 236.086C923.69 233.293 924.494 230.415 924.494 227.453C924.494 226.268 924.367 225.083 924.113 223.898C923.605 222.375 923.352 220.132 923.352 217.17V216.281C923.352 215.012 922.886 214.292 921.955 214.123C921.532 214.123 921.193 214.25 920.939 214.504C920.516 215.096 920.22 216.154 920.051 217.678C919.458 221.656 919.12 223.771 919.035 224.025C918.781 225.464 918.612 226.945 918.527 228.469C918.527 231.6 918.273 235.917 917.766 241.418L917.639 243.957C917.639 249.035 918.485 252.632 920.178 254.748L921.447 256.398C922.632 258.007 923.986 259.445 925.51 260.715ZM916.623 225.93L916.75 225.803C916.75 225.718 916.792 225.676 916.877 225.676C916.877 225.591 916.835 225.507 916.75 225.422C916.665 225.337 916.581 225.295 916.496 225.295L916.242 225.549C916.242 225.633 916.285 225.676 916.369 225.676V225.93H916.623ZM915.988 250.432L916.242 250.305L915.988 250.051V250.432ZM948.361 205.49L948.234 205.363C948.234 205.448 948.277 205.49 948.361 205.49ZM978.322 278.615C977.814 278.615 977.349 278.446 976.926 278.107C973.71 275.822 971.213 274.468 969.436 274.045C965.881 272.437 963.426 270.66 962.072 268.713C960.21 266.005 959.279 260.038 959.279 250.812C959.279 242.857 960.168 231.727 961.945 217.424C962.792 210.992 963.215 206.717 963.215 204.602C963.13 203.078 961.988 202.316 959.787 202.316C959.025 202.316 958.264 202.443 957.502 202.697C956.825 202.951 956.148 203.078 955.471 203.078C955.132 203.078 954.751 203.036 954.328 202.951C953.905 202.867 953.524 202.824 953.186 202.824C952.255 202.824 951.408 203.205 950.646 203.967C949.969 204.729 949.165 205.194 948.234 205.363C947.642 204.771 947.049 204.475 946.457 204.475C945.526 204.475 944.553 205.025 943.537 206.125C942.521 207.479 941.506 208.156 940.49 208.156L939.855 208.029C939.263 207.86 938.713 207.775 938.205 207.775C936.682 207.775 935.327 208.326 934.143 209.426C932.45 211.034 931.392 213.023 930.969 215.393C930.884 215.562 930.842 215.773 930.842 216.027C930.673 217.382 930.207 218.651 929.445 219.836L929.318 215.9C928.303 216.916 927.795 218.101 927.795 219.455L927.414 221.613C926.314 228.553 925.679 234.901 925.51 240.656C925.51 242.349 925.933 243.576 926.779 244.338C926.949 244.507 926.991 244.719 926.906 244.973C926.906 245.227 926.779 245.48 926.525 245.734C925.679 246.327 925.256 247.173 925.256 248.273C925.256 248.781 925.425 249.204 925.764 249.543C925.848 249.628 926.102 249.67 926.525 249.67L927.16 249.543C927.414 249.628 927.541 249.882 927.541 250.305C927.964 253.775 928.684 256.652 929.699 258.938C930.207 259.868 930.461 260.588 930.461 261.096C930.461 261.434 930.292 261.773 929.953 262.111C929.699 262.365 929.361 262.492 928.938 262.492C928.26 262.492 927.414 262.111 926.398 261.35L925.51 260.715H923.605C915.057 260.715 909.683 259.107 907.482 255.891C904.605 251.743 903.166 246.158 903.166 239.133C903.166 234.986 903.674 228.426 904.689 219.455C905.959 207.098 907.779 195.038 910.148 183.273C910.91 179.211 911.63 175.191 912.307 171.213C912.984 167.15 913.661 163.173 914.338 159.279L916.115 148.488C916.369 146.626 916.75 144.764 917.258 142.902C917.596 141.633 918.4 140.998 919.67 140.998C921.363 140.998 923.309 141.464 925.51 142.395L930.334 144.553C931.688 145.23 933.169 145.568 934.777 145.568H935.539C937.74 145.568 939.305 146.711 940.236 148.996C940.575 150.096 940.744 151.154 940.744 152.17C940.744 152.762 940.702 153.312 940.617 153.82C939.771 161.607 938.671 169.393 937.316 177.18L936.809 178.195C936.301 177.941 936.047 177.518 936.047 176.926L936.301 176.037L936.936 171.975C937.274 170.113 937.443 168.42 937.443 166.896C937.274 166.896 937.147 166.939 937.062 167.023C936.978 167.023 936.893 167.023 936.809 167.023C936.724 167.023 936.682 167.066 936.682 167.15L935.92 170.578C934.396 178.449 933.635 182.723 933.635 183.4C933.635 185.432 934.904 186.447 937.443 186.447C938.205 186.447 938.967 186.32 939.729 186.066C947.092 183.866 954.667 182.469 962.453 181.877C965.246 181.877 966.896 180.607 967.404 178.068C970.874 156.994 974.471 136.851 978.195 117.639L978.449 116.242C978.703 114.888 978.999 113.576 979.338 112.307C979.676 111.037 980.311 110.402 981.242 110.402C982.766 110.402 984.585 111.503 986.701 113.703C989.748 116.835 992.076 118.57 993.684 118.908C995.799 119.585 996.857 120.982 996.857 123.098C996.857 124.198 996.73 125.383 996.477 126.652C996.307 127.922 996.138 129.276 995.969 130.715C995.884 131.561 995.588 132.281 995.08 132.873C994.572 133.465 994.276 134.1 994.191 134.777C994.276 135.37 994.403 135.92 994.572 136.428C994.742 136.936 994.826 137.443 994.826 137.951L994.699 139.094C994.191 141.633 993.768 144.214 993.43 146.838C992.837 152.085 991.822 156.063 990.383 158.771C989.452 160.38 988.986 162.03 988.986 163.723C988.986 164.4 989.071 165.119 989.24 165.881C989.41 167.235 989.494 168.547 989.494 169.816C989.494 172.44 989.156 175.021 988.479 177.561C987.886 180.523 987.378 183.485 986.955 186.447L986.32 190.764L986.193 193.557V194.699C986.193 196.223 985.939 197.704 985.432 199.143C985.008 200.243 984.755 201.428 984.67 202.697L983.908 207.395C983.146 211.88 982.512 216.366 982.004 220.852L981.115 227.58C980.269 233.081 979.719 238.625 979.465 244.211C979.38 246.665 979.126 249.924 978.703 253.986C978.365 257.964 978.195 261.053 978.195 263.254C978.195 267.232 978.618 271.252 979.465 275.314C979.634 275.822 979.719 276.457 979.719 277.219C979.719 277.642 979.549 277.98 979.211 278.234C978.872 278.488 978.576 278.615 978.322 278.615ZM1013.49 225.168C1014.42 221.529 1014.88 217.889 1014.88 214.25C1014.88 212.811 1014.8 211.372 1014.63 209.934C1014.63 210.103 1014.5 210.23 1014.25 210.314C1014.08 210.399 1013.91 210.526 1013.74 210.695C1013.66 210.865 1013.57 210.992 1013.49 211.076L1013.36 214.123C1013.11 215.816 1012.98 217.508 1012.98 219.201C1012.98 221.148 1013.15 223.137 1013.49 225.168ZM1021.99 280.393C1022.5 279.038 1022.76 277.727 1022.76 276.457C1022.76 275.103 1022.5 273.791 1021.99 272.521V280.393ZM1015.52 288.391L1016.66 288.264L1017.68 274.807C1018.02 273.537 1018.19 272.225 1018.19 270.871C1018.19 269.602 1017.76 268.332 1016.92 267.062C1016.75 268.417 1016.54 269.729 1016.28 270.998C1015.52 274.637 1015.14 278.277 1015.14 281.916C1015.14 284.032 1015.27 286.19 1015.52 288.391ZM1014.76 209.553C1015.77 207.606 1016.32 205.575 1016.41 203.459C1017.17 198.127 1018.23 192.88 1019.58 187.717C1020.77 183.062 1021.74 178.365 1022.5 173.625C1022.59 173.202 1022.76 172.736 1023.01 172.229C1023.35 171.636 1023.56 171.044 1023.64 170.451C1023.64 169.943 1023.22 169.562 1022.38 169.309C1021.36 169.309 1020.85 170.197 1020.85 171.975C1020.43 174.26 1019.79 176.968 1018.95 180.1C1017.17 187.209 1015.94 194.361 1015.27 201.555C1015.18 202.062 1015.05 202.528 1014.88 202.951C1014.38 204.136 1014.12 205.279 1014.12 206.379C1014.12 207.479 1014.33 208.537 1014.76 209.553ZM1021.11 245.227C1020.43 245.227 1019.88 245.057 1019.46 244.719C1016.66 242.857 1013.66 241.46 1010.44 240.529L1006.51 238.879C1001.43 236.678 998.889 229.527 998.889 217.424C998.889 204.813 1003.92 180.777 1014 145.314C1015.27 140.829 1016.7 138.586 1018.31 138.586C1019.67 138.586 1021.7 139.729 1024.41 142.014C1025.76 143.283 1027.33 144.299 1029.1 145.061C1030.97 145.568 1032.11 146.203 1032.53 146.965C1032.95 147.642 1033.17 148.488 1033.17 149.504C1033.17 150.012 1033.08 150.562 1032.91 151.154C1032.83 151.662 1032.74 152.17 1032.66 152.678C1032.07 156.994 1031.3 161.353 1030.37 165.754C1028 176.757 1025.85 187.801 1023.9 198.889C1022.88 203.967 1022.38 207.014 1022.38 208.029C1022.29 209.722 1021.95 211.33 1021.36 212.854C1020.85 214.377 1020.6 216.197 1020.6 218.312C1020.77 220.09 1020.85 221.698 1020.85 223.137C1020.85 224.068 1020.81 225.083 1020.72 226.184C1020.64 227.284 1020.6 228.765 1020.6 230.627C1020.6 234.859 1021.27 239.175 1022.63 243.576C1022.63 243.999 1022.46 244.38 1022.12 244.719C1021.78 245.057 1021.44 245.227 1021.11 245.227ZM1021.74 292.453L1020.85 292.326C1019.16 292.157 1017.42 292.03 1015.65 291.945C1012.68 291.691 1009.72 291.268 1006.76 290.676C1003.46 289.829 1001.81 288.094 1001.81 285.471V274.426H1001.94L1002.19 271.506C1002.44 269.39 1002.65 267.189 1002.82 264.904C1003.08 261.773 1004.31 260.207 1006.51 260.207C1007.94 260.207 1010.15 260.757 1013.11 261.857C1015.31 262.788 1017.72 263.381 1020.34 263.635C1022.54 263.804 1023.64 264.947 1023.64 267.062L1023.52 270.744L1023.64 275.822C1023.64 278.531 1023.26 281.239 1022.5 283.947C1022.25 284.794 1022.12 285.64 1022.12 286.486C1022.12 287.756 1022.42 288.941 1023.01 290.041C1023.26 290.549 1023.39 290.972 1023.39 291.311C1023.39 292.072 1022.84 292.453 1021.74 292.453Z" fill="white"/>
<defs>
<filter id="filter0_f_9613_32285" x="400" y="51" width="350" height="350" filterUnits="userSpaceOnUse" color-interpolation-filters="sRGB">
<feFlood flood-opacity="0" result="BackgroundImageFix"/>
<feBlend mode="normal" in="SourceGraphic" in2="BackgroundImageFix" result="shape"/>
<feGaussianBlur stdDeviation="50" result="effect1_foregroundBlur_9613_32285"/>
</filter>
<linearGradient id="paint0_linear_9613_32285" x1="574.5" y1="-2.18557e-08" x2="574.5" y2="451" gradientUnits="userSpaceOnUse">
<stop stop-color="#F9F925" stop-opacity="0"/>
<stop offset="0.48" stop-color="#F9F925"/>
<stop offset="1" stop-color="#F9F925" stop-opacity="0"/>
</linearGradient>
<linearGradient id="paint1_linear_9613_32285" x1="801" y1="224.5" x2="350" y2="224.5" gradientUnits="userSpaceOnUse">
<stop stop-color="#F9F925" stop-opacity="0"/>
<stop offset="0.48" stop-color="#F9F925"/>
<stop offset="1" stop-color="#F9F925" stop-opacity="0"/>
</linearGradient>
<linearGradient id="paint2_linear_9613_32285" x1="632.896" y1="7.42479" x2="516.169" y2="443.057" gradientUnits="userSpaceOnUse">
<stop stop-color="#F9F925" stop-opacity="0"/>
<stop offset="0.48" stop-color="#F9F925"/>
<stop offset="1" stop-color="#F9F925" stop-opacity="0"/>
</linearGradient>
<linearGradient id="paint3_linear_9613_32285" x1="793.575" y1="282.898" x2="357.942" y2="166.17" gradientUnits="userSpaceOnUse">
<stop stop-color="#F9F925" stop-opacity="0"/>
<stop offset="0.48" stop-color="#F9F925"/>
<stop offset="1" stop-color="#F9F925" stop-opacity="0"/>
</linearGradient>
<linearGradient id="paint4_linear_9613_32285" x1="687.352" y1="29.6729" x2="461.852" y2="420.25" gradientUnits="userSpaceOnUse">
<stop stop-color="#F9F925" stop-opacity="0"/>
<stop offset="0.48" stop-color="#F9F925"/>
<stop offset="1" stop-color="#F9F925" stop-opacity="0"/>
</linearGradient>
<linearGradient id="paint5_linear_9613_32285" x1="771.258" y1="337.346" x2="380.68" y2="111.846" gradientUnits="userSpaceOnUse">
<stop stop-color="#F9F925" stop-opacity="0"/>
<stop offset="0.48" stop-color="#F9F925"/>
<stop offset="1" stop-color="#F9F925" stop-opacity="0"/>
</linearGradient>
<linearGradient id="paint6_linear_9613_32285" x1="734.158" y1="65.2285" x2="415.253" y2="384.134" gradientUnits="userSpaceOnUse">
<stop stop-color="#F9F925" stop-opacity="0"/>
<stop offset="0.48" stop-color="#F9F925"/>
<stop offset="1" stop-color="#F9F925" stop-opacity="0"/>
</linearGradient>
<linearGradient id="paint7_linear_9613_32285" x1="735.572" y1="384.135" x2="416.667" y2="65.2295" gradientUnits="userSpaceOnUse">
<stop stop-color="#F9F925" stop-opacity="0"/>
<stop offset="0.48" stop-color="#F9F925"/>
<stop offset="1" stop-color="#F9F925" stop-opacity="0"/>
</linearGradient>
<linearGradient id="paint8_linear_9613_32285" x1="770.109" y1="111.76" x2="379.532" y2="337.26" gradientUnits="userSpaceOnUse">
<stop stop-color="#F9F925" stop-opacity="0"/>
<stop offset="0.48" stop-color="#F9F925"/>
<stop offset="1" stop-color="#F9F925" stop-opacity="0"/>
</linearGradient>
<linearGradient id="paint9_linear_9613_32285" x1="688.937" y1="420.166" x2="463.437" y2="29.5881" gradientUnits="userSpaceOnUse">
<stop stop-color="#F9F925" stop-opacity="0"/>
<stop offset="0.48" stop-color="#F9F925"/>
<stop offset="1" stop-color="#F9F925" stop-opacity="0"/>
</linearGradient>
<linearGradient id="paint10_linear_9613_32285" x1="792.804" y1="166.103" x2="357.172" y2="282.83" gradientUnits="userSpaceOnUse">
<stop stop-color="#F9F925" stop-opacity="0"/>
<stop offset="0.48" stop-color="#F9F925"/>
<stop offset="1" stop-color="#F9F925" stop-opacity="0"/>
</linearGradient>
<linearGradient id="paint11_linear_9613_32285" x1="634.577" y1="442.991" x2="517.849" y2="7.35814" gradientUnits="userSpaceOnUse">
<stop stop-color="#F9F925" stop-opacity="0"/>
<stop offset="0.48" stop-color="#F9F925"/>
<stop offset="1" stop-color="#F9F925" stop-opacity="0"/>
</linearGradient>
<linearGradient id="paint12_linear_9613_32285" x1="500" y1="226" x2="650" y2="226" gradientUnits="userSpaceOnUse">
<stop stop-color="#FDF621"/>
<stop offset="0.595" stop-color="#FDFCC3"/>
<stop offset="1" stop-color="#FDF973"/>
</linearGradient>
<linearGradient id="paint13_linear_9613_32285" x1="505" y1="226" x2="645" y2="226" gradientUnits="userSpaceOnUse">
<stop stop-color="#FDF621"/>
<stop offset="0.595" stop-color="#FDFCC3"/>
<stop offset="1" stop-color="#FDF973"/>
</linearGradient>
</defs>
</svg>
