<svg width="22" height="22" viewBox="0 0 22 22" fill="none" xmlns="http://www.w3.org/2000/svg">
<circle cx="10.9961" cy="11" r="10.5" fill="#261F34" stroke="black"/>
<path d="M10.9971 20C6.02651 20 1.99707 15.9706 1.99707 11C1.99707 6.02944 6.02651 2 10.9971 2C15.9676 2 19.9971 6.02944 19.9971 11C19.9971 15.9706 15.9676 20 10.9971 20Z" fill="#191919"/>
<path d="M10.9985 19.0351C6.56046 19.0351 2.96275 15.4373 2.96275 10.9993C2.96275 6.56134 6.56046 2.96362 10.9985 2.96362C15.4365 2.96362 19.0342 6.56134 19.0342 10.9993C19.0342 15.4373 15.4365 19.0351 10.9985 19.0351Z" fill="#F0F0F0"/>
<path d="M10.9985 16.786C7.8031 16.786 5.21275 14.1957 5.21275 11.0003C5.21275 7.80495 7.8031 5.2146 10.9985 5.2146C14.1938 5.2146 16.7842 7.80495 16.7842 11.0003C16.7842 14.1957 14.1938 16.786 10.9985 16.786Z" fill="#191919"/>
</svg>
