<svg width="16" height="16" viewBox="0 0 16 16" fill="none" xmlns="http://www.w3.org/2000/svg">
<path fill-rule="evenodd" clip-rule="evenodd" d="M15.5104 5.17402L5.23479 15.5401C4.63381 15.3178 4.06676 15.0254 3.54353 14.6729L14.6295 3.48951C14.9862 4.01008 15.2832 4.57488 15.5104 5.17402ZM8.77178 16.0002C12.6159 15.6398 15.671 12.5632 15.9998 8.70851L8.77178 16.0002ZM12.6395 1.46884C11.3328 0.543667 9.73716 0 8.01457 0C3.58824 0 0 3.58967 0 8.01775C0 9.76506 0.558719 11.3818 1.50718 12.699L12.6395 1.46884ZM2.148 9.33153L9.39088 2.05797C8.96227 1.96185 8.51652 1.91113 8.05892 1.91113C4.71052 1.91113 1.99609 4.62663 1.99609 7.97637C1.99609 8.44222 2.04859 8.89581 2.148 9.33153Z" fill="#C3FF61"/>
</svg>
