<svg width="18" height="18" viewBox="0 0 18 18" fill="none" xmlns="http://www.w3.org/2000/svg">
<circle cx="9" cy="9" r="8.5" fill="#261F34" stroke="black"/>
<path fill-rule="evenodd" clip-rule="evenodd" d="M11.5717 3L10.6873 3.82401L14.103 7.17988L15.0015 6.33842L11.5717 3ZM6.02142 12.9244C6.76712 13.4049 7.64309 13.6605 8.53864 13.6588C9.13458 13.6588 9.72465 13.5447 10.2749 13.3229C10.8251 13.1012 11.3247 12.7763 11.7449 12.3668C12.1651 11.9573 12.4975 11.4714 12.7232 10.937C12.9488 10.4026 13.0632 9.83027 13.0597 9.25289C13.0563 8.38523 12.7874 7.53803 12.2872 6.81834C11.7869 6.09866 11.0777 5.53879 10.2492 5.20947C9.42063 4.88015 8.50993 4.79616 7.63215 4.96811C6.75436 5.14007 5.94888 5.56025 5.31747 6.17557C4.68607 6.79089 4.25708 7.57373 4.0847 8.42518C3.91233 9.27663 4.00431 10.1585 4.34903 10.9593C4.69374 11.7601 5.27572 12.444 6.02142 12.9244ZM8.48213 12.4627C6.68625 12.4384 5.21187 10.9868 5.2395 9.27479C5.23834 8.64061 5.43206 8.02045 5.79599 7.49332C6.15991 6.96619 6.67757 6.55596 7.28299 6.31489C7.88842 6.07382 8.55421 6.01283 9.19554 6.13968C9.83687 6.26653 10.4247 6.57549 10.8842 7.02719C11.3436 7.47889 11.6539 8.05288 11.7754 8.67604C11.897 9.29919 11.8243 9.9433 11.5667 10.5263C11.309 11.1093 10.8781 11.6048 10.3288 11.9496C9.77945 12.2945 9.1366 12.4731 8.48213 12.4627Z" fill="url(#paint0_linear_9613_33083)"/>
<defs>
<linearGradient id="paint0_linear_9613_33083" x1="8.31431" y1="4.56747" x2="13.6697" y2="9.22795" gradientUnits="userSpaceOnUse">
<stop stop-color="#F15266"/>
<stop offset="0.52" stop-color="#BC74ED"/>
<stop offset="1" stop-color="#1ABEE9"/>
</linearGradient>
</defs>
</svg>
