<svg width="208" height="208" viewBox="0 0 208 208" fill="none" xmlns="http://www.w3.org/2000/svg">
<circle cx="104" cy="104" r="104" fill="url(#paint0_radial_9613_32960)"/>
<path d="M120.702 75.8696C118.526 74.4803 115.609 75.2964 114.487 77.5969L105.586 95.8283C105.444 96.1218 105.504 96.4827 105.736 96.7177L106.035 97.0192C106.275 97.2542 106.633 97.3127 106.933 97.1659L125.437 88.3993C127.771 87.2897 128.594 84.4161 127.188 82.2703C125.505 79.7061 123.291 77.5235 120.688 75.8696H120.703H120.702ZM112.153 92.1465L110.119 92.9993C109.894 93.0945 109.678 92.8743 109.768 92.6542L110.628 90.6551C110.822 90.2069 111.278 89.9353 111.765 89.964C112.349 90.0007 112.812 90.4559 112.849 91.03C112.879 91.5149 112.602 91.963 112.145 92.1545L112.153 92.1475V92.1465Z" fill="url(#paint1_linear_9613_32960)"/>
<path d="M107.364 98.1502C107.049 98.2603 106.833 98.5548 106.833 98.885V99.3034C106.833 99.6337 107.042 99.9281 107.364 100.038L126.744 106.732C129.19 107.577 131.837 106.116 132.384 103.624C133.034 100.64 133.034 97.5543 132.384 94.5706C131.838 92.0718 129.198 90.6171 126.744 91.462L107.364 98.1562V98.1492V98.1502ZM115.928 99.826C115.607 100.186 115.082 100.311 114.626 100.127L112.577 99.3113C112.352 99.2231 112.352 98.9147 112.577 98.8196L114.626 98.0034C115.082 97.82 115.606 97.9449 115.928 98.3049C116.316 98.7383 116.316 99.3847 115.928 99.8112V99.826Z" fill="url(#paint2_linear_9613_32960)"/>
<path d="M125.465 109.798L106.96 101.031C106.661 100.891 106.295 100.95 106.062 101.178L105.763 101.479C105.524 101.714 105.464 102.067 105.613 102.369L114.514 120.6C115.636 122.901 118.552 123.716 120.73 122.327C123.333 120.674 125.546 118.492 127.229 115.927C128.636 113.781 127.813 110.908 125.479 109.799H125.464L125.465 109.798ZM112.861 107.123C112.824 107.697 112.36 108.152 111.777 108.188C111.284 108.218 110.827 107.939 110.64 107.497L109.78 105.498C109.682 105.278 109.907 105.057 110.131 105.153L112.165 106.006C112.614 106.197 112.898 106.645 112.868 107.13L112.861 107.123Z" fill="url(#paint3_linear_9613_32960)"/>
<path d="M104.588 102.773C104.476 102.464 104.176 102.251 103.84 102.251H103.414C103.078 102.251 102.778 102.456 102.666 102.773L95.8747 121.864C95.0141 124.274 96.4958 126.882 99.0315 127.419C102.06 128.065 105.195 128.065 108.224 127.419C110.759 126.882 112.24 124.273 111.381 121.864L104.589 102.773H104.588ZM104.371 111.208C103.937 111.59 103.278 111.59 102.837 111.208C102.471 110.885 102.344 110.37 102.53 109.922L103.353 107.909C103.442 107.689 103.756 107.689 103.846 107.909L104.668 109.922C104.856 110.37 104.729 110.885 104.361 111.208H104.369H104.371Z" fill="url(#paint4_linear_9613_32960)"/>
<path d="M99.8878 100.038C100.202 99.9277 100.418 99.6332 100.418 99.3031V98.8846C100.418 98.5544 100.209 98.2599 99.8878 98.1499L80.5086 91.4556C78.0626 90.6107 75.4152 92.0733 74.8686 94.5643C74.2183 97.548 74.2183 100.634 74.8686 103.617C75.4142 106.116 78.0545 107.571 80.5086 106.726L99.8878 100.032V100.039V100.038ZM91.2712 98.3184C91.5934 97.9584 92.1168 97.8335 92.5728 98.0169L94.6152 98.8331C94.8397 98.9213 94.8397 99.2297 94.6152 99.3258L92.5728 100.142C92.1168 100.325 91.5934 100.2 91.2712 99.8405C90.8827 99.4071 90.8827 98.7607 91.2712 98.3342V98.3194V98.3184Z" fill="url(#paint5_linear_9613_32960)"/>
<path d="M101.517 101.48L101.218 101.179C100.978 100.944 100.62 100.885 100.32 101.032L81.8152 109.799C79.4819 110.901 78.6584 113.782 80.0647 115.927C81.7477 118.491 83.9613 120.673 86.5644 122.327C88.7407 123.717 91.6578 122.901 92.7801 120.6L101.674 102.369C101.824 102.067 101.756 101.714 101.524 101.479H101.517V101.48ZM97.4397 105.492L96.5791 107.491C96.3848 107.939 95.9289 108.211 95.4427 108.182C94.8588 108.146 94.3958 107.69 94.3585 107.117C94.3283 106.632 94.6052 106.184 95.0611 105.993L97.0955 105.14C97.32 105.045 97.5364 105.265 97.4468 105.485L97.4397 105.492Z" fill="url(#paint6_linear_9613_32960)"/>
<path d="M142.594 99.1275V99.0948C142.594 93.9147 141.564 88.8893 139.532 84.1565C137.569 79.5862 134.76 75.483 131.184 71.9599C127.607 68.4358 123.442 65.6693 118.803 63.7366C113.998 61.7346 108.895 60.7202 103.638 60.7202C98.3805 60.7202 93.279 61.7346 88.4744 63.7366C83.835 65.6693 79.6686 68.4358 76.0922 71.9599C72.5157 75.483 69.7073 79.5862 67.7454 84.1565C65.713 88.8893 64.6823 93.9147 64.6823 99.0948V99.1275L64.6642 99.4478C64.5283 101.818 64.6007 104.195 64.8806 106.552L65.0014 107.57L65.254 111.781C65.4131 114.427 66.7368 116.872 68.8768 118.477C70.0626 119.643 70.885 121.118 71.2464 122.729L71.7134 124.811C72.2188 127.061 74.0739 128.774 76.3851 129.125C78.348 129.424 80.0089 130.712 80.7639 132.521L81.0064 133.103L81.4131 133.955C82.8174 136.898 86.0294 138.571 89.2888 138.057L89.9753 137.949C93.283 137.429 96.4659 139.422 97.39 142.594C98.2809 145.651 100.941 147.265 103.638 147.319C106.335 147.265 108.995 145.651 109.886 142.594C110.81 139.422 113.993 137.429 117.301 137.949L117.987 138.057C121.247 138.571 124.459 136.898 125.863 133.955L126.27 133.103L126.512 132.521C127.267 130.712 128.928 129.424 130.891 129.125C133.202 128.774 135.057 127.061 135.563 124.811L136.03 122.729C136.391 121.118 137.213 119.643 138.399 118.477C140.539 116.872 141.863 114.427 142.022 111.781L142.275 107.57L142.395 106.552C142.675 104.195 142.748 101.818 142.612 99.4478L142.594 99.1275ZM126.914 122.022C120.696 128.146 112.431 131.52 103.638 131.52C94.8453 131.52 86.58 128.146 80.3632 122.022C74.1464 115.898 70.7219 107.755 70.7219 99.0948C70.7219 90.4342 74.1464 82.2903 80.3632 76.1662C86.58 70.0422 94.8463 66.6698 103.638 66.6698C112.43 66.6698 120.696 70.0422 126.914 76.1662C133.131 82.2903 136.554 90.4332 136.554 99.0948C136.554 107.756 133.131 115.898 126.914 122.022Z" fill="url(#paint7_linear_9613_32960)"/>
<path d="M102.666 95.417C102.778 95.7254 103.078 95.9385 103.414 95.9385H103.841C104.177 95.9385 104.477 95.7333 104.589 95.417L111.38 76.3259C112.241 73.9153 110.759 71.3074 108.223 70.7709C105.195 70.1314 102.06 70.1314 99.0311 70.7709C96.4954 71.3074 95.0147 73.9163 95.8744 76.3259L102.666 95.417ZM102.831 86.9369C103.265 86.5551 103.923 86.5551 104.364 86.9369C104.73 87.2532 104.857 87.7748 104.671 88.223L103.849 90.2369C103.759 90.457 103.445 90.457 103.355 90.2369L102.533 88.223C102.346 87.7748 102.474 87.2602 102.84 86.9369H102.833H102.831Z" fill="url(#paint8_linear_9613_32960)"/>
<path d="M81.8224 88.3988L100.327 97.1655C100.626 97.3123 100.992 97.2468 101.225 97.0188L101.524 96.7174C101.763 96.4823 101.823 96.1293 101.674 95.8278L92.7804 77.5965C91.658 75.296 88.7419 74.4809 86.5646 75.8691C83.9615 77.5221 81.748 79.7046 80.0649 82.2699C78.6587 84.4156 79.481 87.2893 81.8154 88.3988H81.8224ZM94.3658 91.0226C94.403 90.4495 94.8671 89.9934 95.4499 89.9566C95.9431 89.9269 96.4001 90.2066 96.5864 90.6478L97.447 92.6468C97.5447 92.867 97.3202 93.0881 97.0957 92.9919L95.0614 92.1392C94.6124 91.9478 94.3285 91.4996 94.3588 91.0147L94.3658 91.0226Z" fill="url(#paint9_linear_9613_32960)"/>
<defs>
<radialGradient id="paint0_radial_9613_32960" cx="0" cy="0" r="1" gradientUnits="userSpaceOnUse" gradientTransform="translate(12.3442 68.819) rotate(24.7366) scale(160.038)">
<stop stop-color="#B968F3"/>
<stop offset="1"/>
</radialGradient>
<linearGradient id="paint1_linear_9613_32960" x1="152.817" y1="45.1323" x2="22.8648" y2="80.2307" gradientUnits="userSpaceOnUse">
<stop stop-color="#D188FF"/>
<stop offset="1" stop-color="#831FD8"/>
</linearGradient>
<linearGradient id="paint2_linear_9613_32960" x1="152.822" y1="45.1329" x2="22.8696" y2="80.2313" gradientUnits="userSpaceOnUse">
<stop stop-color="#D188FF"/>
<stop offset="1" stop-color="#831FD8"/>
</linearGradient>
<linearGradient id="paint3_linear_9613_32960" x1="152.829" y1="45.1331" x2="22.877" y2="80.2316" gradientUnits="userSpaceOnUse">
<stop stop-color="#D188FF"/>
<stop offset="1" stop-color="#831FD8"/>
</linearGradient>
<linearGradient id="paint4_linear_9613_32960" x1="152.821" y1="45.1324" x2="22.8682" y2="80.2309" gradientUnits="userSpaceOnUse">
<stop stop-color="#D188FF"/>
<stop offset="1" stop-color="#831FD8"/>
</linearGradient>
<linearGradient id="paint5_linear_9613_32960" x1="152.81" y1="45.1315" x2="22.8579" y2="80.2299" gradientUnits="userSpaceOnUse">
<stop stop-color="#D188FF"/>
<stop offset="1" stop-color="#831FD8"/>
</linearGradient>
<linearGradient id="paint6_linear_9613_32960" x1="152.823" y1="45.134" x2="22.871" y2="80.2324" gradientUnits="userSpaceOnUse">
<stop stop-color="#D188FF"/>
<stop offset="1" stop-color="#831FD8"/>
</linearGradient>
<linearGradient id="paint7_linear_9613_32960" x1="152.829" y1="45.1325" x2="22.8766" y2="80.2309" gradientUnits="userSpaceOnUse">
<stop stop-color="#D188FF"/>
<stop offset="1" stop-color="#831FD8"/>
</linearGradient>
<linearGradient id="paint8_linear_9613_32960" x1="152.814" y1="45.1324" x2="22.8618" y2="80.2309" gradientUnits="userSpaceOnUse">
<stop stop-color="#D188FF"/>
<stop offset="1" stop-color="#831FD8"/>
</linearGradient>
<linearGradient id="paint9_linear_9613_32960" x1="152.839" y1="45.1328" x2="22.8863" y2="80.2312" gradientUnits="userSpaceOnUse">
<stop stop-color="#D188FF"/>
<stop offset="1" stop-color="#831FD8"/>
</linearGradient>
</defs>
</svg>
