<svg width="50" height="51" viewBox="0 0 50 51" fill="none" xmlns="http://www.w3.org/2000/svg">
<g filter="url(#filter0_d_9613_32380)">
<path fill-rule="evenodd" clip-rule="evenodd" d="M48.3131 4.74694L45.5443 45.4669L45.4819 45.5277C45.3555 46.4936 45.0062 47.2889 44.4167 47.8784C41.7496 50.5451 34.8697 48.2937 27.0296 42.7593L28.9885 40.8003C30.9758 42.1803 32.878 43.3253 34.6335 44.2077C37.0016 45.3988 38.9605 46.041 40.415 46.2189C41.9109 46.4016 42.3841 46.0528 42.4878 45.949C42.5911 45.8457 42.9399 45.3725 42.7572 43.8767C42.5794 42.4226 41.9372 40.4633 40.7464 38.0951C38.5145 33.6571 34.6076 28.2791 29.4589 22.9679L5.7902 46.6362L6.24357 42.3249L27.5295 21.039C22.2188 15.8903 16.8408 11.983 12.4027 9.7514C10.0346 8.56065 8.07567 7.91848 6.62117 7.74062C5.12534 7.5579 4.65213 7.90673 4.54881 8.01005C4.44509 8.11377 4.09625 8.58699 4.27898 10.0828C4.45725 11.5373 5.09901 13.4962 6.29016 15.8644C7.17259 17.6199 8.31755 19.5221 9.6975 21.5094L7.73859 23.4683C2.20419 15.6281 -0.0472511 8.74824 2.61947 6.08111C3.20937 5.49121 4.0055 5.14197 4.9726 5.01556C4.99151 4.9953 5.01096 4.97545 5.03094 4.956L45.7525 2.18637L48.4999 2L48.3131 4.74694ZM30.902 5.93161L43.4934 5.07512L37.5611 11.0078C35.1667 8.7296 32.8293 7.08265 30.902 5.93121M25.5945 6.29179L13.2588 7.13086C18.0866 9.49048 23.8479 13.6652 29.4589 19.1096L35.6314 12.9371C33.0465 10.4851 30.5406 8.82157 28.6267 7.75278C27.8006 7.2882 26.9508 6.86721 26.0807 6.49153C25.8905 6.4105 25.7285 6.34365 25.5945 6.29179ZM37.5441 14.8827L31.3882 21.0386C36.8343 26.6512 41.0102 32.4141 43.3694 37.2431L44.2348 24.5124C44.1765 24.386 44.1034 24.234 44.0156 24.0566C43.5955 23.2157 43.1386 22.3938 42.6462 21.5932C41.5414 19.7854 39.8806 17.4116 37.5445 14.8823M39.4751 12.9521C41.7318 15.3855 43.399 17.6912 44.5727 19.544L45.4256 7.00122L39.4751 12.9521ZM17.2224 20.415L8.10646 29.531L7.6535 33.8422L19.8211 21.6747L17.2224 20.415ZM28.8236 30.6776L16.671 42.8298L20.9822 42.3768L30.2603 33.0984L28.8236 30.6776Z" fill="url(#paint0_linear_9613_32380)"/>
</g>
<defs>
<filter id="filter0_d_9613_32380" x="0.1875" y="0.6875" width="49.625" height="49.6228" filterUnits="userSpaceOnUse" color-interpolation-filters="sRGB">
<feFlood flood-opacity="0" result="BackgroundImageFix"/>
<feColorMatrix in="SourceAlpha" type="matrix" values="0 0 0 0 0 0 0 0 0 0 0 0 0 0 0 0 0 0 127 0" result="hardAlpha"/>
<feOffset/>
<feGaussianBlur stdDeviation="0.65625"/>
<feComposite in2="hardAlpha" operator="out"/>
<feColorMatrix type="matrix" values="0 0 0 0 1 0 0 0 0 0.426332 0 0 0 0 0.388542 0 0 0 0.8 0"/>
<feBlend mode="normal" in2="BackgroundImageFix" result="effect1_dropShadow_9613_32380"/>
<feBlend mode="normal" in="SourceGraphic" in2="effect1_dropShadow_9613_32380" result="shape"/>
</filter>
<linearGradient id="paint0_linear_9613_32380" x1="1.50003" y1="2" x2="48.4978" y2="48.9998" gradientUnits="userSpaceOnUse">
<stop stop-color="#FFB0AB"/>
<stop offset="0.464" stop-color="#FF6D63"/>
<stop offset="1" stop-color="#FF4337"/>
</linearGradient>
</defs>
</svg>
