<svg width="85" height="85" viewBox="0 0 85 85" fill="none" xmlns="http://www.w3.org/2000/svg">
<path d="M42.5 85C19.0279 85 0 65.9721 0 42.5C0 19.0279 19.0279 0 42.5 0C65.9721 0 85 19.0279 85 42.5C85 65.9721 65.9721 85 42.5 85Z" fill="#191919"/>
<path d="M42.5018 80.4466C21.5446 80.4466 4.55538 63.4574 4.55538 42.5001C4.55538 21.5429 21.5446 4.55371 42.5018 4.55371C63.459 4.55371 80.4482 21.5429 80.4482 42.5001C80.4482 63.4574 63.459 80.4466 42.5018 80.4466Z" fill="#F0F0F0"/>
<path d="M42.5008 69.8213C27.4116 69.8213 15.1794 57.5891 15.1794 42.4999C15.1794 27.4107 27.4116 15.1785 42.5008 15.1785C57.59 15.1785 69.8223 27.4107 69.8223 42.4999C69.8223 57.5891 57.59 69.8213 42.5008 69.8213Z" fill="#191919"/>
</svg>
