<svg width="149" height="57" viewBox="0 0 149 57" fill="none" xmlns="http://www.w3.org/2000/svg">
<path fill-rule="evenodd" clip-rule="evenodd" d="M148.578 15.2221L117.665 28.3034L148.578 41.3848C143.927 50.4314 134.603 56.6068 123.858 56.6068C108.467 56.6068 95.9902 43.935 95.9902 28.3034C95.9902 12.6719 108.467 0 123.858 0C134.603 0 143.927 6.17542 148.578 15.2221Z" fill="#B2E810"/>
<mask id="mask0_9613_32712" style="mask-type:luminance" maskUnits="userSpaceOnUse" x="100" y="4" width="45" height="48">
<path d="M141.983 16.6361C138.149 10.4193 131.348 6.28946 123.598 6.28946C111.627 6.28946 101.923 16.1454 101.923 28.3031C101.923 40.4611 111.627 50.317 123.598 50.317C131.348 50.317 138.149 46.1871 141.983 39.9705L142.439 39.3101L142.672 38.854L144.067 39.4554C143.864 39.8376 143.652 40.2136 143.43 40.583C139.351 47.3637 131.995 51.8893 123.598 51.8893C110.772 51.8893 100.375 41.3295 100.375 28.3031C100.375 15.2769 110.772 4.71704 123.598 4.71704C131.995 4.71704 139.351 9.24283 143.43 16.0236C143.65 16.389 143.86 16.761 144.06 17.1392L142.625 17.7366L142.439 17.2963L141.983 16.6361Z" fill="white"/>
</mask>
<g mask="url(#mask0_9613_32712)">
<path d="M141.981 16.6367L140.669 17.4712L140.691 17.5065L140.714 17.5406L141.981 16.6367ZM141.981 39.9711L140.714 39.0672L140.691 39.1012L140.669 39.1365L141.981 39.9711ZM142.438 17.297L143.861 16.6776L143.797 16.527L143.704 16.393L142.438 17.297ZM142.624 17.7372L141.2 18.3567L141.801 19.7791L143.211 19.1922L142.624 17.7372ZM144.065 39.456L145.429 40.2008L146.233 38.6822L144.67 38.0088L144.065 39.456ZM142.438 39.3107L143.704 40.2146L143.765 40.1277L143.813 40.0332L142.438 39.3107ZM142.67 38.8547L143.275 37.4072L141.954 36.8381L141.295 38.1324L142.67 38.8547ZM144.059 17.1399L144.646 18.5949L146.237 17.9326L145.422 16.3945L144.059 17.1399ZM123.597 7.8625C130.791 7.8625 137.107 11.6945 140.669 17.4712L143.293 15.8022C139.189 9.14546 131.901 4.71768 123.597 4.71768V7.8625ZM103.47 28.3038C103.47 17.0144 112.481 7.8625 123.597 7.8625V4.71768C110.771 4.71768 100.373 15.2776 100.373 28.3038H103.47ZM123.597 48.7452C112.481 48.7452 103.47 39.5934 103.47 28.3038H100.373C100.373 41.3301 110.771 51.89 123.597 51.89V48.7452ZM140.669 39.1365C137.107 44.9133 130.791 48.7452 123.597 48.7452V51.89C131.901 51.89 139.189 47.4622 143.293 40.8057L140.669 39.1365ZM142.107 39.7637C138.298 46.0965 131.432 50.3177 123.597 50.3177V53.4624C132.555 53.4624 140.401 48.6319 144.75 41.4033L142.107 39.7637ZM123.597 50.3177C111.626 50.3177 101.922 40.4617 101.922 28.3038H98.8252C98.8252 42.1987 109.916 53.4624 123.597 53.4624V50.3177ZM101.922 28.3038C101.922 16.146 111.626 6.2901 123.597 6.2901V3.14526C109.916 3.14526 98.8252 14.4092 98.8252 28.3038H101.922ZM123.597 6.2901C131.432 6.2901 138.298 10.5112 142.107 16.844L144.75 15.2044C140.401 7.97572 132.555 3.14526 123.597 3.14526V6.2901ZM140.714 17.5406L141.171 18.2009L143.704 16.393L143.248 15.7328L140.714 17.5406ZM141.015 17.9164L141.2 18.3567L144.047 17.1178L143.861 16.6776L141.015 17.9164ZM142.702 38.7115C142.513 39.0683 142.314 39.4191 142.107 39.7637L144.75 41.4033C144.986 41.0096 145.213 40.6084 145.429 40.2008L142.702 38.7115ZM141.171 38.4068L140.714 39.0672L143.248 40.875L143.704 40.2146L141.171 38.4068ZM144.67 38.0088L143.275 37.4072L142.065 40.3022L143.46 40.9035L144.67 38.0088ZM141.295 38.1324L141.063 38.5883L143.813 40.0332L144.045 39.5771L141.295 38.1324ZM142.107 16.844C142.312 17.1851 142.509 17.5323 142.696 17.8852L145.422 16.3945C145.208 15.9911 144.984 15.5942 144.75 15.2044L142.107 16.844ZM143.472 15.6849L142.037 16.2823L143.211 19.1922L144.646 18.5949L143.472 15.6849Z" fill="black"/>
</g>
<path d="M0 0V56.6068H21.675V39.3104H22.4493C33.1375 39.3104 41.802 30.5105 41.802 19.6551C41.802 8.79991 33.1375 0 22.4493 0H0Z" fill="#B2E810"/>
<path d="M36.9188 6.59795C34.4103 5.39136 31.6055 4.71643 28.6455 4.71643H6.19629V56.6059H21.6785V39.3095H22.4525C33.1409 39.3095 41.8054 30.5096 41.8054 19.6544C41.8054 14.643 39.9587 10.0696 36.9188 6.59795Z" fill="#B2E810"/>
<path d="M35.9698 7.88441C33.7377 6.85985 31.2592 6.28885 28.6455 6.28885H7.7445V55.0337V56.6059H6.19629V4.71643H28.6455C31.6055 4.71643 34.4104 5.39136 36.9188 6.59795C39.2025 9.36111 40.096 11.2122 40.2571 11.7923L35.9698 7.88441Z" fill="black"/>
<path d="M65.7974 0L98.2 57H33.3945L65.7974 0Z" fill="#B2E810"/>
<path fill-rule="evenodd" clip-rule="evenodd" d="M36.1514 52.1498L61.4845 7.58582L86.8177 52.1498H36.1514ZM37.0706 50.5328L48.7742 29.9447L60.2239 8.8945L84.0599 50.5328H37.0706Z" fill="black"/>
</svg>
