<svg width="73" height="66" viewBox="0 0 73 66" fill="none" xmlns="http://www.w3.org/2000/svg">
<path fill-rule="evenodd" clip-rule="evenodd" d="M37.9538 0.448559C37.4228 0.154548 36.8229 0 36.2125 0C35.6021 0 35.0021 0.154548 34.4711 0.448559L4.67219 16.9458C3.09473 17.8188 3.72941 20.1693 5.54227 20.1693H66.882C68.6955 20.1693 69.3302 17.8193 67.7527 16.9458L37.9538 0.448559ZM26.5028 48.2335C24.0356 50.0725 20.8878 51.1747 17.4587 51.1747C9.53627 51.1747 3.1132 45.2888 3.1132 38.0301C3.1132 30.7713 9.53627 24.8854 17.4587 24.8854H55.7135C63.6365 24.8854 70.059 30.7708 70.059 38.0301C70.059 45.2894 63.6365 51.1747 55.7135 51.1747C52.285 51.1747 49.1373 50.0725 46.6695 48.2335C45.5449 47.3955 44.2201 46.7931 42.806 46.7931H30.3663C28.9521 46.7931 27.6273 47.3961 26.5028 48.2335ZM53.6098 37.9928C53.6098 39.3476 52.4108 40.4458 50.9316 40.4458C49.4525 40.4458 48.2541 39.3476 48.2541 37.9922C48.2541 36.6374 49.4525 35.5393 50.9316 35.5393C52.4108 35.5393 53.6098 36.6374 53.6098 37.9922V37.9928ZM61.6431 40.4458C63.1217 40.4458 64.3207 39.3476 64.3207 37.9922C64.3207 36.6374 63.1217 35.5393 61.6431 35.5393C60.164 35.5393 58.965 36.6374 58.965 37.9922C58.965 39.3476 60.164 40.4458 61.6431 40.4458ZM56.2874 35.5387C54.8083 35.5387 53.6098 34.4406 53.6098 33.0852C53.6098 31.7304 54.8083 30.6317 56.2874 30.6317C57.7665 30.6317 58.965 31.7304 58.965 33.0852C58.965 34.4406 57.7665 35.5387 56.2874 35.5387ZM53.6098 42.8999C53.6098 44.2547 54.8083 45.3534 56.2874 45.3534C57.7665 45.3534 58.965 44.2547 58.965 42.8999C58.965 41.5445 57.7665 40.4458 56.2874 40.4458C54.8083 40.4458 53.6098 41.5445 53.6098 42.8999ZM6.05418 55.828H66.9452C68.0918 55.828 69.0215 56.6823 69.0215 57.7357C69.0215 58.789 68.0918 59.6427 66.9452 59.6427H6.05418C4.90818 59.6427 3.97851 58.789 3.97851 57.7357C3.97851 56.6823 4.90818 55.828 6.05418 55.828ZM70.9243 62.1853H2.07507C0.929075 62.1853 0 63.0396 0 64.0929C0 65.1463 0.929671 66 2.07567 66H70.9243C72.0703 66 73 65.1463 73 64.0929C73 63.0396 72.0703 62.1853 70.9243 62.1853ZM19.1512 43.0244C19.1512 43.4684 18.7823 43.8281 18.3282 43.8281H15.5845C15.3663 43.8281 15.1571 43.7435 15.0028 43.5929C14.8484 43.4423 14.7617 43.238 14.7615 43.025V40.078H11.7436C11.5255 40.0778 11.3163 39.9931 11.1621 39.8424C11.0079 39.6917 10.9212 39.4873 10.9212 39.2743V36.5944C10.9212 36.1509 11.2895 35.7913 11.7436 35.7913H14.7615V32.8437C14.7615 32.3996 15.1298 32.0406 15.5845 32.0406H18.3282C18.7823 32.0406 19.1506 32.3996 19.1506 32.8437V35.7907H22.1685C22.6232 35.7907 22.9915 36.1509 22.9915 36.5944V39.2737C22.9915 39.3792 22.9702 39.4836 22.9289 39.581C22.8875 39.6785 22.827 39.767 22.7506 39.8416C22.6742 39.9162 22.5836 39.9753 22.4838 40.0157C22.384 40.056 22.2771 40.0768 22.1691 40.0768H19.15V43.0238L19.1512 43.0244Z" fill="url(#paint0_linear_10714_563)"/>
<defs>
<linearGradient id="paint0_linear_10714_563" x1="26.4301" y1="-8.53043" x2="280.733" y2="151.1" gradientUnits="userSpaceOnUse">
<stop stop-color="#AE6FFF"/>
<stop offset="0.544" stop-color="#5D01D2"/>
</linearGradient>
</defs>
</svg>
