<svg width="213" height="140" viewBox="0 0 213 140" fill="none" xmlns="http://www.w3.org/2000/svg">
<path opacity="0.5" d="M108.853 59.5828C110.713 66.5241 134.762 66.1112 162.568 58.6606C190.374 51.2101 211.407 39.5431 209.547 32.6018C207.687 25.6605 183.639 26.0733 155.833 33.5239C128.027 40.9745 106.993 52.6414 108.853 59.5828Z" fill="url(#paint0_radial_9613_25098)"/>
<path d="M150.338 8.32579C133.177 12.924 122.993 30.5632 127.591 47.724C137.695 47.4762 164.27 43.7988 189.736 31.0724C185.138 13.9116 167.499 3.72757 150.338 8.32579Z" fill="url(#paint1_radial_9613_25098)"/>
<path fill-rule="evenodd" clip-rule="evenodd" d="M163.415 22.729L161.587 24.4864L168.645 31.6434L170.502 29.8488L163.415 22.729ZM151.948 43.8946C153.489 44.9193 155.299 45.4643 157.15 45.4607C158.381 45.4607 159.6 45.2173 160.737 44.7444C161.874 44.2715 162.906 43.5785 163.775 42.7053C164.643 41.832 165.33 40.7957 165.796 39.656C166.262 38.5163 166.499 37.2957 166.491 36.0643C166.484 34.2139 165.929 32.407 164.895 30.8722C163.861 29.3373 162.396 28.1433 160.684 27.441C158.972 26.7386 157.09 26.5595 155.277 26.9262C153.463 27.293 151.798 28.1891 150.494 29.5014C149.189 30.8136 148.303 32.4832 147.947 34.2991C147.59 36.1149 147.78 37.9956 148.493 39.7035C149.205 41.4114 150.407 42.8699 151.948 43.8946ZM157.033 42.9098C153.322 42.858 150.276 39.7621 150.333 36.111C150.33 34.7585 150.731 33.4359 151.483 32.3117C152.234 31.1875 153.304 30.3126 154.555 29.7985C155.806 29.2844 157.182 29.1543 158.507 29.4248C159.832 29.6954 161.047 30.3543 161.996 31.3176C162.945 32.2809 163.587 33.5051 163.838 34.8341C164.089 36.163 163.939 37.5367 163.406 38.7801C162.874 40.0234 161.984 41.0801 160.849 41.8156C159.713 42.5511 158.385 42.932 157.033 42.9098Z" fill="url(#paint2_linear_9613_25098)"/>
<path d="M192.714 119.327C189.794 130.223 145.47 127.814 93.7132 113.946C41.9564 100.078 2.36603 80.0018 5.28571 69.1054C8.20539 58.209 52.5295 60.6181 104.286 74.4863C156.043 88.3545 195.633 108.43 192.714 119.327Z" fill="url(#paint3_radial_9613_25098)"/>
<path fill-rule="evenodd" clip-rule="evenodd" d="M157.635 101.9C140.29 101.306 119.99 98.2349 98.7714 92.5493C77.9699 86.9755 59.1897 79.6675 44.0273 71.6961C44.3514 69.6354 44.7875 67.5714 45.3395 65.5113C53.7871 33.9844 86.1929 15.2749 117.72 23.7225C149.247 32.1701 167.956 64.5759 159.509 96.1028C158.977 98.0871 158.35 100.021 157.635 101.9Z" fill="url(#paint4_radial_9613_25098)"/>
<path fill-rule="evenodd" clip-rule="evenodd" d="M134.371 60.7574L122.717 65.6891L134.371 70.6208C132.617 74.0314 129.102 76.3596 125.051 76.3596C119.249 76.3596 114.545 71.5822 114.545 65.6891C114.545 59.7959 119.249 55.0186 125.051 55.0186C129.102 55.0186 132.617 57.3467 134.371 60.7574Z" fill="#B2E810"/>
<mask id="mask0_9613_25098" style="mask-type:luminance" maskUnits="userSpaceOnUse" x="116" y="56" width="17" height="19">
<path d="M131.885 61.2914C130.44 58.9476 127.876 57.3907 124.954 57.3907C120.441 57.3907 116.783 61.1064 116.783 65.6899C116.783 70.2735 120.441 73.9892 124.954 73.9892C127.876 73.9892 130.44 72.4322 131.885 70.0885L132.058 69.8396L132.145 69.6676L132.671 69.8943C132.595 70.0385 132.515 70.1802 132.431 70.3194C130.893 72.8758 128.12 74.582 124.954 74.582C120.119 74.582 116.199 70.6009 116.199 65.6899C116.199 60.779 120.119 56.7979 124.954 56.7979C128.12 56.7979 130.893 58.5041 132.431 61.0605C132.514 61.1982 132.593 61.3385 132.669 61.4811L132.128 61.7063L132.058 61.5403L131.885 61.2914Z" fill="white"/>
</mask>
<g mask="url(#mask0_9613_25098)">
<path d="M131.883 61.2902L131.389 61.6048L131.397 61.6181L131.406 61.631L131.883 61.2902ZM131.883 70.0873L131.406 69.7466L131.397 69.7594L131.389 69.7727L131.883 70.0873ZM132.055 61.5391L132.592 61.3056L132.568 61.2488L132.533 61.1983L132.055 61.5391ZM132.125 61.7051L131.589 61.9386L131.815 62.4749L132.347 62.2536L132.125 61.7051ZM132.669 69.8932L133.183 70.1739L133.486 69.6014L132.897 69.3475L132.669 69.8932ZM132.055 69.8384L132.533 70.1792L132.556 70.1464L132.574 70.1108L132.055 69.8384ZM132.143 69.6664L132.371 69.1207L131.873 68.9062L131.625 69.3941L132.143 69.6664ZM132.667 61.4799L132.888 62.0284L133.488 61.7787L133.181 61.1989L132.667 61.4799ZM124.952 57.9823C127.664 57.9823 130.046 59.4269 131.389 61.6048L132.378 60.9756C130.83 58.466 128.083 56.7967 124.952 56.7967V57.9823ZM117.364 65.6887C117.364 61.4326 120.762 57.9823 124.952 57.9823V56.7967C120.117 56.7967 116.197 60.7778 116.197 65.6887H117.364ZM124.952 73.3952C120.762 73.3952 117.364 69.9449 117.364 65.6887H116.197C116.197 70.5997 120.117 74.5808 124.952 74.5808V73.3952ZM131.389 69.7727C130.046 71.9506 127.664 73.3952 124.952 73.3952V74.5808C128.083 74.5808 130.83 72.9115 132.378 70.402L131.389 69.7727ZM131.931 70.0091C130.495 72.3967 127.906 73.988 124.952 73.988V75.1736C128.33 75.1736 131.288 73.3525 132.927 70.6273L131.931 70.0091ZM124.952 73.988C120.439 73.988 116.781 70.2723 116.781 65.6887H115.613C115.613 70.9271 119.795 75.1736 124.952 75.1736V73.988ZM116.781 65.6887C116.781 61.1052 120.439 57.3895 124.952 57.3895V56.2039C119.795 56.2039 115.613 60.4504 115.613 65.6887H116.781ZM124.952 57.3895C127.906 57.3895 130.495 58.9809 131.931 61.3683L132.927 60.7502C131.288 58.025 128.33 56.2039 124.952 56.2039V57.3895ZM131.406 61.631L131.578 61.8799L132.533 61.1983L132.361 60.9494L131.406 61.631ZM131.519 61.7726L131.589 61.9386L132.662 61.4716L132.592 61.3056L131.519 61.7726ZM132.155 69.6125C132.084 69.747 132.009 69.8792 131.931 70.0091L132.927 70.6273C133.016 70.4789 133.102 70.3276 133.183 70.1739L132.155 69.6125ZM131.578 69.4976L131.406 69.7466L132.361 70.4281L132.533 70.1792L131.578 69.4976ZM132.897 69.3475L132.371 69.1207L131.915 70.2121L132.441 70.4389L132.897 69.3475ZM131.625 69.3941L131.537 69.566L132.574 70.1108L132.661 69.9388L131.625 69.3941ZM131.931 61.3683C132.008 61.4969 132.082 61.6278 132.153 61.7609L133.181 61.1989C133.1 61.0468 133.015 60.8972 132.927 60.7502L131.931 61.3683ZM132.445 60.9313L131.904 61.1566L132.347 62.2536L132.888 62.0284L132.445 60.9313Z" fill="black"/>
</g>
<path d="M78.3535 55.0186V76.3596H86.5251V69.8387H86.817C90.8465 69.8387 94.113 66.5211 94.113 62.4286C94.113 58.3362 90.8465 55.0186 86.817 55.0186H78.3535Z" fill="#B2E810"/>
<path d="M92.272 57.5065C91.3263 57.0516 90.2688 56.7971 89.1529 56.7971H80.6895V76.3597H86.5263V69.8388H86.8181C90.8477 69.8388 94.1142 66.5212 94.1142 62.4288C94.1142 60.5395 93.418 58.8153 92.272 57.5065Z" fill="#B2E810"/>
<path d="M91.9142 57.9915C91.0727 57.6052 90.1383 57.3899 89.1529 57.3899H81.2731V75.7669V76.3597H80.6895V56.7971H89.1529C90.2688 56.7971 91.3263 57.0516 92.272 57.5065C93.1329 58.5482 93.4698 59.246 93.5305 59.4647L91.9142 57.9915Z" fill="black"/>
<path d="M103.159 55.0186L115.375 76.5078H90.9434L103.159 55.0186Z" fill="#B2E810"/>
<path fill-rule="evenodd" clip-rule="evenodd" d="M91.9824 74.6797L101.533 57.8789L111.084 74.6797H91.9824ZM92.329 74.0701L96.7413 66.3083L101.058 58.3723L110.044 74.0701H92.329Z" fill="black"/>
<defs>
<radialGradient id="paint0_radial_9613_25098" cx="0" cy="0" r="1" gradientUnits="userSpaceOnUse" gradientTransform="translate(159.054 45.9117) rotate(75.1488) scale(15.6121 62.5403)">
<stop offset="0.67219"/>
<stop offset="1" stop-color="#F581A7"/>
</radialGradient>
<radialGradient id="paint1_radial_9613_25098" cx="0" cy="0" r="1" gradientUnits="userSpaceOnUse" gradientTransform="translate(149.315 12.5207) rotate(67.6771) scale(31.4429 48.1741)">
<stop stop-color="#E35B88"/>
<stop offset="1"/>
</radialGradient>
<linearGradient id="paint2_linear_9613_25098" x1="156.685" y1="26.0719" x2="168.051" y2="35.6542" gradientUnits="userSpaceOnUse">
<stop stop-color="#F15266"/>
<stop offset="0.52" stop-color="#BC74ED"/>
<stop offset="1" stop-color="#1ABEE9"/>
</linearGradient>
<radialGradient id="paint3_radial_9613_25098" cx="0" cy="0" r="1" gradientUnits="userSpaceOnUse" gradientTransform="translate(99.2564 93.9397) rotate(104.824) scale(24.5078 116.41)">
<stop offset="0.665"/>
<stop offset="1" stop-color="#EBF479"/>
</radialGradient>
<radialGradient id="paint4_radial_9613_25098" cx="0" cy="0" r="1" gradientUnits="userSpaceOnUse" gradientTransform="translate(117.462 22.7876) rotate(105) scale(72.2227 211.49)">
<stop stop-color="#EBF479"/>
<stop offset="0.75"/>
</radialGradient>
</defs>
</svg>
