<svg width="126" height="126" viewBox="0 0 126 126" fill="none" xmlns="http://www.w3.org/2000/svg">
<circle cx="63" cy="63" r="63" fill="url(#paint0_radial_9715_42101)"/>
<path d="M73.1173 45.9593C71.7989 45.1178 70.0318 45.6122 69.3519 47.0057L63.9603 58.0497C63.8743 58.2275 63.9103 58.4462 64.0512 58.5885L64.2323 58.7712C64.3774 58.9135 64.5945 58.949 64.7762 58.86L75.9856 53.5495C77.3991 52.8773 77.8979 51.1366 77.046 49.8367C76.0265 48.2834 74.6856 46.9613 73.1088 45.9593H73.1179H73.1173ZM67.9385 55.8194L66.7061 56.336C66.5702 56.3937 66.4391 56.2603 66.4933 56.127L67.0147 54.916C67.1323 54.6445 67.4086 54.4799 67.7031 54.4973C68.0568 54.5196 68.3372 54.7953 68.3598 55.143C68.3781 55.4368 68.2104 55.7083 67.9336 55.8243L67.9385 55.82V55.8194Z" fill="url(#paint1_linear_9715_42101)"/>
<path d="M65.0362 59.4563C64.8459 59.5229 64.7148 59.7014 64.7148 59.9014V60.1548C64.7148 60.3549 64.8417 60.5333 65.0362 60.5999L76.7761 64.6551C78.2579 65.1669 79.8616 64.2815 80.1927 62.772C80.5866 60.9645 80.5866 59.0953 80.1927 57.2878C79.8622 55.7741 78.2628 54.8929 76.7761 55.4047L65.0362 59.4599V59.4557V59.4563ZM70.2241 60.4714C70.0296 60.6895 69.7119 60.7651 69.4357 60.654L68.1942 60.1596C68.0583 60.1062 68.0583 59.9194 68.1942 59.8617L69.4357 59.3674C69.7119 59.2562 70.029 59.3319 70.2241 59.55C70.4595 59.8125 70.4595 60.2041 70.2241 60.4624V60.4714Z" fill="url(#paint2_linear_9715_42101)"/>
<path d="M76.0023 66.5119L64.7928 61.2014C64.6117 61.1167 64.3897 61.1521 64.2489 61.2903L64.0678 61.4729C63.9227 61.6152 63.8867 61.8291 63.9769 62.0117L69.3685 73.0557C70.0485 74.4493 71.815 74.943 73.1339 74.1021C74.7108 73.1008 76.0517 71.7787 77.0712 70.2248C77.923 68.9249 77.4249 67.1847 76.0108 66.5126H76.0017L76.0023 66.5119ZM68.3673 64.8919C68.3447 65.2391 68.0636 65.5148 67.7106 65.5371C67.4118 65.5551 67.135 65.3857 67.0222 65.1184L66.5008 63.9074C66.4416 63.7741 66.5776 63.6402 66.7136 63.6984L67.9459 64.215C68.2179 64.3309 68.3898 64.6024 68.3716 64.8962L68.3673 64.8919Z" fill="url(#paint3_linear_9715_42101)"/>
<path d="M63.3549 62.2563C63.2872 62.0695 63.1055 61.9404 62.9018 61.9404H62.6439C62.4402 61.9404 62.2585 62.0647 62.1908 62.2563L58.0766 73.8212C57.5553 75.2814 58.4529 76.8612 59.9889 77.1861C61.8237 77.5778 63.7225 77.5778 65.5573 77.1861C67.0933 76.8612 67.9903 75.2808 67.4696 73.8212L63.3555 62.2563H63.3549ZM63.2232 67.3663C62.9603 67.5976 62.5615 67.5976 62.2944 67.3663C62.0725 67.1705 61.9957 66.8587 62.1085 66.5872L62.6066 65.3679C62.6609 65.2345 62.8512 65.2345 62.9054 65.3679L63.4036 66.5872C63.517 66.8587 63.4402 67.1705 63.2177 67.3663H63.2219H63.2232Z" fill="url(#paint4_linear_9715_42101)"/>
<path d="M60.508 60.5997C60.6982 60.5331 60.8293 60.3546 60.8293 60.1546V59.9012C60.8293 59.7012 60.7025 59.5227 60.508 59.4561L48.7686 55.4009C47.2869 54.8891 45.6832 55.7751 45.3521 57.284C44.9582 59.0915 44.9582 60.9607 45.3521 62.7682C45.6826 64.2819 47.282 65.1631 48.7686 64.6513L60.508 60.5961V60.6003V60.5997ZM55.2883 59.5582C55.4835 59.3401 55.8005 59.2644 56.0768 59.3756L57.314 59.8699C57.45 59.9234 57.45 60.1102 57.314 60.1684L56.0768 60.6628C55.8005 60.7739 55.4835 60.6982 55.2883 60.4802C55.053 60.2177 55.053 59.8261 55.2883 59.5678V59.5588V59.5582Z" fill="url(#paint5_linear_9715_42101)"/>
<path d="M61.4947 61.4735L61.3136 61.291C61.1685 61.1486 60.9514 61.1132 60.7697 61.202L49.5602 66.5126C48.1468 67.1805 47.648 68.9255 48.4998 70.2248C49.5194 71.7781 50.8603 73.1002 52.4371 74.1022C53.7555 74.9437 55.5226 74.4494 56.2025 73.0558L61.5898 62.0117C61.6807 61.8291 61.6398 61.6153 61.499 61.4729H61.4947V61.4735ZM59.0251 63.9039L58.5038 65.1148C58.3861 65.3864 58.1099 65.5509 57.8153 65.5335C57.4617 65.5113 57.1811 65.2355 57.1586 64.8884C57.1403 64.5946 57.308 64.3231 57.5842 64.2072L58.8166 63.6906C58.9526 63.633 59.0837 63.7663 59.0294 63.8997L59.0251 63.9039Z" fill="url(#paint6_linear_9715_42101)"/>
<path d="M86.3785 60.0483V60.0285C86.3785 56.8906 85.7547 53.8463 84.5236 50.9793C83.3345 48.2108 81.6332 45.7252 79.4667 43.591C77.3002 41.4562 74.777 39.7803 71.9665 38.6096C69.0561 37.3969 65.9651 36.7824 62.7803 36.7824C59.5955 36.7824 56.5051 37.3969 53.5947 38.6096C50.7843 39.7803 48.2604 41.4562 46.0939 43.591C43.9274 45.7252 42.2261 48.2108 41.0377 50.9793C39.8065 53.8463 39.1821 56.8906 39.1821 60.0285V60.0483L39.1711 60.2423C39.0888 61.678 39.1327 63.1178 39.3022 64.5456L39.3754 65.1625L39.5285 67.7135C39.6248 69.3161 40.4267 70.7974 41.723 71.7699C42.4414 72.4757 42.9395 73.3695 43.1584 74.3456L43.4414 75.6064C43.7475 76.9694 44.8713 78.0073 46.2713 78.22C47.4604 78.4008 48.4665 79.181 48.9239 80.2773L49.0708 80.6299L49.3172 81.1458C50.1678 82.9287 52.1136 83.942 54.088 83.6309L54.5038 83.5654C56.5076 83.25 58.4357 84.4574 58.9954 86.3789C59.5351 88.2307 61.1467 89.2086 62.7803 89.2411C64.4139 89.2086 66.0255 88.2307 66.5651 86.3789C67.1249 84.4574 69.0531 83.25 71.0567 83.5654L71.4726 83.6309C73.4471 83.942 75.3928 82.9287 76.2435 81.1458L76.4898 80.6299L76.6368 80.2773C77.0941 79.181 78.1002 78.4008 79.2893 78.22C80.6893 78.0073 81.8131 76.9694 82.1192 75.6064L82.4022 74.3456C82.6211 73.3695 83.1193 72.4757 83.8376 71.7699C85.134 70.7974 85.9358 69.3161 86.0321 67.7135L86.1852 65.1625L86.2584 64.5456C86.4279 63.1178 86.4718 61.678 86.3895 60.2423L86.3785 60.0483ZM76.8801 73.9173C73.1135 77.6271 68.1067 79.6706 62.7803 79.6706C57.454 79.6706 52.4471 77.6271 48.6811 73.9173C44.9152 70.2075 42.8408 65.2748 42.8408 60.0285C42.8408 54.7822 44.9152 49.8489 48.6811 46.1391C52.4471 42.4293 57.4546 40.3864 62.7803 40.3864C68.1061 40.3864 73.1135 42.4293 76.8801 46.1391C80.646 49.8489 82.7199 54.7816 82.7199 60.0285C82.7199 65.2754 80.646 70.2075 76.8801 73.9173Z" fill="url(#paint7_linear_9715_42101)"/>
<path d="M62.1906 57.8006C62.2582 57.9874 62.4399 58.1166 62.6436 58.1166H62.9021C63.1058 58.1166 63.2875 57.9922 63.3552 57.8006L67.4694 46.2358C67.9907 44.7756 67.0931 43.1958 65.5571 42.8708C63.7223 42.4834 61.8235 42.4834 59.9887 42.8708C58.4527 43.1958 57.5557 44.7762 58.0764 46.2358L62.1906 57.8006ZM62.2906 52.6636C62.5534 52.4324 62.9521 52.4324 63.2192 52.6636C63.4412 52.8552 63.518 53.1712 63.4052 53.4427L62.907 54.6627C62.8528 54.796 62.6625 54.796 62.6083 54.6627L62.1101 53.4427C61.9966 53.1712 62.0741 52.8595 62.2961 52.6636H62.2918H62.2906Z" fill="url(#paint8_linear_9715_42101)"/>
<path d="M49.5646 53.5492L60.7741 58.8598C60.9552 58.9487 61.1771 58.909 61.318 58.7709L61.4991 58.5883C61.6442 58.4459 61.6802 58.2321 61.5899 58.0495L56.2026 47.0055C55.5227 45.6119 53.7562 45.1181 52.4372 45.9591C50.8604 46.9604 49.5195 48.2825 48.4999 49.8364C47.6481 51.1363 48.1463 52.8771 49.5604 53.5492H49.5646ZM57.163 55.1386C57.1855 54.7914 57.4667 54.5151 57.8197 54.4929C58.1185 54.4749 58.3953 54.6443 58.5082 54.9116L59.0295 56.1225C59.0887 56.2559 58.9527 56.3898 58.8167 56.3316L57.5844 55.815C57.3124 55.699 57.1404 55.4275 57.1587 55.1338L57.163 55.1386Z" fill="url(#paint9_linear_9715_42101)"/>
<defs>
<radialGradient id="paint0_radial_9715_42101" cx="0" cy="0" r="1" gradientUnits="userSpaceOnUse" gradientTransform="translate(7.47774 41.6884) rotate(24.7366) scale(96.9461)">
<stop stop-color="#B968F3"/>
<stop offset="1"/>
</radialGradient>
<linearGradient id="paint1_linear_9715_42101" x1="92.5714" y1="27.3396" x2="13.8503" y2="48.6012" gradientUnits="userSpaceOnUse">
<stop stop-color="#D188FF"/>
<stop offset="1" stop-color="#831FD8"/>
</linearGradient>
<linearGradient id="paint2_linear_9715_42101" x1="92.5735" y1="27.34" x2="13.8524" y2="48.6015" gradientUnits="userSpaceOnUse">
<stop stop-color="#D188FF"/>
<stop offset="1" stop-color="#831FD8"/>
</linearGradient>
<linearGradient id="paint3_linear_9715_42101" x1="92.5789" y1="27.3402" x2="13.8578" y2="48.6017" gradientUnits="userSpaceOnUse">
<stop stop-color="#D188FF"/>
<stop offset="1" stop-color="#831FD8"/>
</linearGradient>
<linearGradient id="paint4_linear_9715_42101" x1="92.5727" y1="27.3397" x2="13.8515" y2="48.6013" gradientUnits="userSpaceOnUse">
<stop stop-color="#D188FF"/>
<stop offset="1" stop-color="#831FD8"/>
</linearGradient>
<linearGradient id="paint5_linear_9715_42101" x1="92.5667" y1="27.3392" x2="13.8456" y2="48.6007" gradientUnits="userSpaceOnUse">
<stop stop-color="#D188FF"/>
<stop offset="1" stop-color="#831FD8"/>
</linearGradient>
<linearGradient id="paint6_linear_9715_42101" x1="92.5748" y1="27.3408" x2="13.8536" y2="48.6023" gradientUnits="userSpaceOnUse">
<stop stop-color="#D188FF"/>
<stop offset="1" stop-color="#831FD8"/>
</linearGradient>
<linearGradient id="paint7_linear_9715_42101" x1="92.5786" y1="27.3398" x2="13.8575" y2="48.6013" gradientUnits="userSpaceOnUse">
<stop stop-color="#D188FF"/>
<stop offset="1" stop-color="#831FD8"/>
</linearGradient>
<linearGradient id="paint8_linear_9715_42101" x1="92.5688" y1="27.3398" x2="13.8477" y2="48.6013" gradientUnits="userSpaceOnUse">
<stop stop-color="#D188FF"/>
<stop offset="1" stop-color="#831FD8"/>
</linearGradient>
<linearGradient id="paint9_linear_9715_42101" x1="92.5841" y1="27.34" x2="13.8629" y2="48.6015" gradientUnits="userSpaceOnUse">
<stop stop-color="#D188FF"/>
<stop offset="1" stop-color="#831FD8"/>
</linearGradient>
</defs>
</svg>
