<svg width="222" height="128" viewBox="0 0 222 128" fill="none" xmlns="http://www.w3.org/2000/svg">
<g opacity="0.5">
<circle cx="40.4613" cy="26.0893" r="14.4261" fill="url(#paint0_radial_9613_26888)"/>
<path d="M40.6692 33.8543C36.4005 33.8543 32.9401 30.3938 32.9401 26.1251C32.9401 21.8563 36.4005 18.3959 40.6692 18.3959C44.938 18.3959 48.3984 21.8563 48.3984 26.1251C48.3984 30.3938 44.938 33.8543 40.6692 33.8543Z" fill="#191919"/>
<path d="M40.6693 33.0253C36.8579 33.0253 33.7682 29.9356 33.7682 26.1242C33.7682 22.3129 36.8579 19.2231 40.6693 19.2231C44.4806 19.2231 47.5703 22.3129 47.5703 26.1242C47.5703 29.9356 44.4806 33.0253 40.6693 33.0253Z" fill="#F0F0F0"/>
<path d="M40.6699 31.0934C37.9257 31.0934 35.7011 28.8688 35.7011 26.1246C35.7011 23.3805 37.9257 21.1559 40.6699 21.1559C43.4141 21.1559 45.6387 23.3805 45.6387 26.1246C45.6387 28.8688 43.4141 31.0934 40.6699 31.0934Z" fill="#191919"/>
</g>
<circle cx="115.663" cy="63.8432" r="63.8432" fill="url(#paint1_radial_9613_26888)"/>
<g filter="url(#filter0_d_9613_26888)">
<path fill-rule="evenodd" clip-rule="evenodd" d="M143.928 39.8006L140.928 83.9196L140.86 83.9854C140.723 85.0319 140.345 85.8936 139.706 86.5323C136.816 89.4216 129.362 86.9823 120.868 80.9859L122.99 78.8635C125.143 80.3586 127.204 81.5991 129.106 82.5552C131.672 83.8458 133.795 84.5416 135.37 84.7343C136.991 84.9323 137.504 84.5543 137.616 84.4419C137.728 84.33 138.106 83.8173 137.908 82.1966C137.715 80.6211 137.02 78.4982 135.73 75.9324C133.311 71.1239 129.078 65.297 123.5 59.5425L97.8554 85.1864L98.3466 80.5153L121.409 57.4526C115.655 51.8741 109.828 47.6406 105.02 45.2228C102.454 43.9326 100.332 43.2369 98.7557 43.0441C97.135 42.8462 96.6223 43.2241 96.5103 43.3361C96.398 43.4484 96.02 43.9612 96.218 45.5819C96.4111 47.1578 97.1065 49.2802 98.397 51.846C99.3531 53.7481 100.594 55.809 102.089 57.9622L99.9664 60.0846C93.97 51.5901 91.5306 44.1359 94.4199 41.2461C95.0591 40.607 95.9217 40.2286 96.9695 40.0916C96.99 40.0697 97.0111 40.0482 97.0327 40.0271L141.153 37.0263L144.13 36.8243L143.928 39.8006ZM125.063 41.0841L138.706 40.1561L132.278 46.584C129.684 44.1157 127.152 42.3313 125.063 41.0837M119.313 41.4744L105.947 42.3835C111.178 44.9401 117.42 49.4633 123.5 55.3622L130.187 48.6744C127.387 46.0178 124.672 44.2153 122.598 43.0573C121.703 42.554 120.782 42.0978 119.84 41.6908C119.634 41.603 119.458 41.5306 119.313 41.4744ZM132.26 50.7824L125.59 57.4521C131.491 63.5332 136.015 69.7772 138.571 75.0093L139.509 61.2159C139.446 61.0789 139.367 60.9143 139.272 60.722C138.816 59.811 138.321 58.9205 137.788 58.0531C136.591 56.0944 134.791 53.5224 132.26 50.7819M134.352 48.6907C136.797 51.3271 138.603 53.8253 139.875 55.8327L140.799 42.243L134.352 48.6907ZM110.242 56.7765L100.365 66.6534L99.8742 71.3245L113.057 58.1413L110.242 56.7765ZM122.811 67.8957L109.644 81.0623L114.316 80.5715L124.368 70.5186L122.811 67.8957Z" fill="url(#paint2_linear_9613_26888)"/>
</g>
<path d="M193.477 68.4149C209.777 78.3092 218.754 88.1698 216.703 95.8232C212.443 111.723 162.206 112.076 104.495 96.6122C46.7837 81.1486 3.45331 55.7239 7.71353 39.8245C9.07353 34.749 15.119 31.2577 24.5974 29.3595" stroke="url(#paint3_linear_9613_26888)"/>
<circle cx="172.75" cy="108.656" r="18.4163" fill="url(#paint4_radial_9613_26888)"/>
<path fill-rule="evenodd" clip-rule="evenodd" d="M165.637 101.225H170.319V104.907C170.319 105.459 170.767 105.907 171.319 105.907H173.611C174.163 105.907 174.611 105.459 174.611 104.907V101.225H179.683V116.052H174.221V112.727C174.702 112.298 175.005 111.674 175.005 110.979C175.005 109.686 173.956 108.638 172.663 108.638C171.37 108.638 170.322 109.686 170.322 110.979C170.322 111.67 170.622 112.292 171.099 112.721V116.052H165.637V101.225Z" fill="#E9FB46"/>
<defs>
<filter id="filter0_d_9613_26888" x="91.8945" y="35.5118" width="53.5488" height="53.5459" filterUnits="userSpaceOnUse" color-interpolation-filters="sRGB">
<feFlood flood-opacity="0" result="BackgroundImageFix"/>
<feColorMatrix in="SourceAlpha" type="matrix" values="0 0 0 0 0 0 0 0 0 0 0 0 0 0 0 0 0 0 127 0" result="hardAlpha"/>
<feOffset/>
<feGaussianBlur stdDeviation="0.65625"/>
<feComposite in2="hardAlpha" operator="out"/>
<feColorMatrix type="matrix" values="0 0 0 0 1 0 0 0 0 0.426332 0 0 0 0 0.388542 0 0 0 0.8 0"/>
<feBlend mode="normal" in2="BackgroundImageFix" result="effect1_dropShadow_9613_26888"/>
<feBlend mode="normal" in="SourceGraphic" in2="effect1_dropShadow_9613_26888" result="shape"/>
</filter>
<radialGradient id="paint0_radial_9613_26888" cx="0" cy="0" r="1" gradientUnits="userSpaceOnUse" gradientTransform="translate(27.7475 21.2093) rotate(24.7366) scale(22.1993)">
<stop stop-color="#9399CA"/>
<stop offset="1"/>
</radialGradient>
<radialGradient id="paint1_radial_9613_26888" cx="0" cy="0" r="1" gradientUnits="userSpaceOnUse" gradientTransform="translate(115.663) rotate(90) scale(127.686)">
<stop stop-color="#FF685E"/>
<stop offset="0.75"/>
</radialGradient>
<linearGradient id="paint2_linear_9613_26888" x1="93.2071" y1="36.8243" x2="144.128" y2="87.7474" gradientUnits="userSpaceOnUse">
<stop stop-color="#FFB0AB"/>
<stop offset="0.464" stop-color="#FF6D63"/>
<stop offset="1" stop-color="#FF4337"/>
</linearGradient>
<linearGradient id="paint3_linear_9613_26888" x1="97.7221" y1="99.4576" x2="113.186" y2="42.4687" gradientUnits="userSpaceOnUse">
<stop stop-color="#E55D54"/>
<stop offset="1"/>
</linearGradient>
<radialGradient id="paint4_radial_9613_26888" cx="0" cy="0" r="1" gradientUnits="userSpaceOnUse" gradientTransform="translate(172.75 90.2395) rotate(90) scale(36.8326)">
<stop stop-color="#E9FB46"/>
<stop offset="0.75"/>
</radialGradient>
</defs>
</svg>
