<svg width="25" height="25" viewBox="0 0 25 25" fill="none" xmlns="http://www.w3.org/2000/svg">
<path d="M20.6416 15.1593C21.6637 17.5953 22.6478 20.0472 23.5935 22.5139C23.3852 22.7102 23.3342 22.8241 23.2315 22.8639C23.1825 22.8823 23.1283 22.8807 23.0805 22.8593L18.4398 20.7852L16.3852 24.4796C16.3416 24.5578 16.2763 24.6217 16.1971 24.6636C16.1179 24.7054 16.0284 24.7234 15.9392 24.7154C15.85 24.7073 15.7651 24.6736 15.6947 24.6183C15.6243 24.563 15.5715 24.4884 15.5426 24.4037L13.6852 18.9352C16.6666 19.1222 18.9842 17.8639 20.6416 15.1593ZM4.36942 15.1C5.98053 17.8537 8.29627 19.1315 11.3166 18.9352L9.45923 24.4037C9.43033 24.4884 9.37748 24.563 9.30709 24.6183C9.23669 24.6736 9.15176 24.7073 9.0626 24.7154C8.97343 24.7234 8.88384 24.7054 8.80469 24.6636C8.72554 24.6217 8.66022 24.5578 8.61664 24.4796L6.56108 20.7852L1.92867 22.8565C1.87828 22.879 1.82104 22.8806 1.76942 22.8611C1.66108 22.8204 1.60645 22.7 1.41016 22.5019C2.21942 20.3565 3.20553 17.8889 4.36942 15.1ZM12.3203 0C17.0953 0 20.9676 3.9287 20.9676 8.77407C20.9676 13.6204 17.0953 17.5481 12.3194 17.5481C7.54441 17.5481 3.67312 13.6204 3.67312 8.77407C3.67312 3.9287 7.54441 0 12.3203 0ZM11.9472 3.55556L11.9037 3.62685L10.5815 6.34537L7.61016 6.78333C7.53194 6.79476 7.45795 6.82601 7.39524 6.87413C7.33253 6.92225 7.28318 6.98562 7.25189 7.05821C7.22061 7.13081 7.20843 7.2102 7.21653 7.28883C7.22462 7.36746 7.25271 7.44271 7.29812 7.50741L7.35275 7.5713L9.50645 9.70093L8.99997 12.7009C8.98667 12.7793 8.99376 12.8597 9.02054 12.9345C9.04732 13.0093 9.0929 13.0759 9.15289 13.128C9.21287 13.1801 9.28526 13.2158 9.36307 13.2319C9.44088 13.2479 9.52151 13.2436 9.59719 13.2194L9.67404 13.187L12.3203 11.7759L14.9666 13.187C15.0367 13.2243 15.1151 13.243 15.1945 13.2413C15.2738 13.2395 15.3513 13.2174 15.4197 13.1771C15.488 13.1367 15.5448 13.0795 15.5847 13.0109C15.6245 12.9422 15.646 12.8645 15.6472 12.7852L15.6407 12.7019L15.1333 9.70185L17.2879 7.5713C17.3443 7.51581 17.3855 7.44683 17.4076 7.37091C17.4297 7.29499 17.432 7.21468 17.4142 7.13762C17.3965 7.06056 17.3593 6.98933 17.3063 6.93072C17.2532 6.8721 17.186 6.82806 17.1111 6.80278L17.0296 6.78426L14.0592 6.34537L12.7361 3.62685C12.7011 3.55529 12.6483 3.49395 12.5827 3.44876C12.5172 3.40357 12.441 3.37606 12.3617 3.36889C12.2824 3.36172 12.2026 3.37514 12.13 3.40784C12.0574 3.44054 11.9944 3.49141 11.9472 3.55556Z" fill="url(#paint0_linear_9626_34068)"/>
<defs>
<linearGradient id="paint0_linear_9626_34068" x1="12.5018" y1="0" x2="12.5018" y2="24.7172" gradientUnits="userSpaceOnUse">
<stop stop-color="#D8E7FF"/>
<stop offset="1" stop-color="#85628A"/>
</linearGradient>
</defs>
</svg>
