<svg width="89" height="89" viewBox="0 0 89 89" fill="none" xmlns="http://www.w3.org/2000/svg">
  <path d="M42.5454 1.67862C43.6696 0.713137 45.3304 0.713135 46.4546 1.67862L52.6054 6.96105C53.3286 7.58216 54.304 7.82257 55.233 7.6087L63.1341 5.78976C64.5782 5.45731 66.0488 6.22909 66.5955 7.60643L69.5869 15.1422C69.9386 16.0283 70.6906 16.6944 71.6126 16.9368L79.454 18.998C80.8872 19.3748 81.8306 20.7415 81.6746 22.2152L80.8213 30.278C80.721 31.226 81.0772 32.1653 81.781 32.8084L87.7663 38.2776C88.8602 39.2772 89.0604 40.9258 88.2375 42.1582L83.735 48.9009C83.2056 49.6937 83.0845 50.691 83.4088 51.5874L86.1668 59.2117C86.6709 60.6052 86.082 62.158 84.7806 62.8668L77.6603 66.7448C76.8231 67.2007 76.2525 68.0275 76.123 68.972L75.022 77.0046C74.8207 78.4728 73.5776 79.5741 72.0959 79.5969L63.9891 79.7217C63.0359 79.7364 62.1464 80.2032 61.5928 80.9793L56.8849 87.5802C56.0244 88.7867 54.412 89.1842 53.0894 88.5158L45.8531 84.8588C45.0023 84.4288 43.9977 84.4288 43.1469 84.8588L35.9106 88.5158C34.588 89.1842 32.9756 88.7867 32.1151 87.5803L27.4072 80.9793C26.8536 80.2032 25.9641 79.7364 25.0109 79.7217L16.9041 79.5969C15.4224 79.5741 14.1793 78.4728 13.978 77.0046L12.877 68.972C12.7475 68.0275 12.1769 67.2007 11.3397 66.7448L4.2194 62.8668C2.91801 62.158 2.3291 60.6052 2.8332 59.2117L5.59125 51.5874C5.91554 50.691 5.79446 49.6937 5.26505 48.9009L0.762532 42.1582C-0.060408 40.9259 0.139771 39.2772 1.23373 38.2776L7.21904 32.8084C7.92279 32.1653 8.27902 31.226 8.17869 30.278L7.32539 22.2152C7.16943 20.7415 8.11283 19.3748 9.54604 18.998L17.3874 16.9368C18.3094 16.6944 19.0614 16.0283 19.4131 15.1422L22.4045 7.60643C22.9513 6.22909 24.4218 5.45731 25.8659 5.78976L33.767 7.6087C34.696 7.82257 35.6714 7.58216 36.3946 6.96105L42.5454 1.67862Z" fill="#979ABE"/>
  <path d="M43.197 8.17602C43.9465 7.53236 45.0536 7.53236 45.8031 8.17602L50.7865 12.4559C51.7508 13.284 53.0513 13.6046 54.29 13.3194L60.6916 11.8457C61.6543 11.6241 62.6347 12.1386 62.9992 13.0568L65.4228 19.1624C65.8918 20.3438 66.8944 21.232 68.1237 21.5551L74.4769 23.2252C75.4323 23.4763 76.0613 24.3875 75.9573 25.37L75.266 31.9025C75.1322 33.1665 75.6071 34.4189 76.5455 35.2763L81.3948 39.7076C82.1241 40.374 82.2576 41.4731 81.709 42.2947L78.061 47.7577C77.3551 48.8147 77.1937 50.1444 77.6261 51.3397L79.8607 57.5169C80.1967 58.4459 79.8041 59.4812 78.9365 59.9537L73.1676 63.0956C72.0513 63.7036 71.2905 64.8059 71.1179 66.0652L70.2258 72.5734C70.0916 73.5522 69.2629 74.2863 68.2751 74.3015L61.7068 74.4026C60.4359 74.4222 59.2499 75.0447 58.5118 76.0795L54.6974 81.4276C54.1238 82.2319 53.0488 82.4969 52.1671 82.0513L46.3042 79.0884C45.1697 78.5151 43.8303 78.5151 42.6959 79.0884L36.833 82.0513C35.9513 82.4969 34.8763 82.2319 34.3026 81.4276L30.4882 76.0795C29.7502 75.0447 28.5642 74.4222 27.2932 74.4026L20.725 74.3015C19.7372 74.2863 18.9085 73.5521 18.7743 72.5734L17.8822 66.0652C17.7096 64.8059 16.9487 63.7036 15.8324 63.0956L15.3542 63.9738L15.8324 63.0956L10.0635 59.9537C9.19595 59.4812 8.80334 58.4459 9.13941 57.5169L11.374 51.3397C11.8064 50.1444 11.6449 48.8147 10.9391 47.7577L7.29109 42.2947C6.74246 41.4731 6.87592 40.374 7.60522 39.7076L12.4546 35.2763C13.3929 34.4189 13.8679 33.1665 13.7341 31.9025L13.0428 25.37C12.9388 24.3875 13.5677 23.4763 14.5232 23.2252L20.8764 21.5551C22.1057 21.232 23.1083 20.3438 23.5772 19.1624L26.0009 13.0568C26.3654 12.1386 27.3457 11.6241 28.3085 11.8457L34.7101 13.3194C35.9488 13.6046 37.2492 13.284 38.2135 12.4559L43.197 8.17602Z" stroke="black" stroke-width="2"/>
  <path d="M26.3381 33.61C25.8036 33.7532 25.2885 33.8015 24.7929 33.7549C24.302 33.7 23.8469 33.5597 23.4274 33.3339C23.0145 33.1064 22.6577 32.8051 22.3571 32.4302C22.0629 32.0535 21.8476 31.6108 21.7113 31.102C21.575 30.5933 21.5401 30.1023 21.6065 29.629C21.6794 29.1539 21.8409 28.7138 22.0912 28.3085C22.3416 27.9033 22.6697 27.5565 23.0756 27.2683C23.4797 26.9737 23.9523 26.7539 24.4932 26.6089C25.0921 26.4485 25.6565 26.4042 26.1865 26.4761C26.723 26.5464 27.2063 26.7274 27.6365 27.0194L26.8804 28.2158C26.5667 28.0238 26.2486 27.9054 25.926 27.8607C25.6017 27.8096 25.2689 27.8298 24.9277 27.9212C24.5992 28.0092 24.3136 28.141 24.0708 28.3165C23.8279 28.492 23.6325 28.703 23.4847 28.9497C23.3433 29.1947 23.2532 29.4638 23.2145 29.7572C23.1822 30.0488 23.2092 30.3556 23.2954 30.6776C23.38 30.9931 23.5091 31.2691 23.6829 31.5055C23.8631 31.7402 24.0766 31.9315 24.3233 32.0793C24.5746 32.219 24.8462 32.305 25.1378 32.3373C25.4358 32.3679 25.7459 32.34 26.0678 32.2537C26.3769 32.1709 26.6634 32.0424 26.9273 31.8681C27.1959 31.6857 27.4368 31.4383 27.6498 31.1258L28.8413 32.0179C28.5484 32.3931 28.1772 32.7204 27.7274 32.9996C27.2842 33.2771 26.821 33.4806 26.3381 33.61ZM27.3574 32.1981L26.6767 29.6577L28.1063 29.2746L28.8413 32.0179L27.3574 32.1981ZM30.4942 32.3721L28.6824 25.6107L31.6092 24.8264C32.2145 24.6643 32.7628 24.6243 33.2542 24.7066C33.7439 24.7824 34.157 24.972 34.4936 25.2752C34.8302 25.5784 35.0667 25.9844 35.203 26.4931C35.3376 26.9954 35.3349 27.462 35.195 27.8928C35.0534 28.3173 34.7895 28.6848 34.4034 28.9953C34.0172 29.3058 33.5215 29.5422 32.9162 29.7044L30.8588 30.2557L31.3705 29.3835L32.059 31.9529L30.4942 32.3721ZM34.7925 31.2204L32.4448 29.2199L34.1158 28.7721L36.4829 30.7675L34.7925 31.2204ZM31.4171 29.5574L30.5249 29.0096L32.4954 28.4816C32.9784 28.3522 33.3114 28.1526 33.4944 27.8826C33.6757 27.6063 33.7172 27.2846 33.6189 26.9175C33.5188 26.5441 33.322 26.2862 33.0285 26.144C32.7351 26.0018 32.3469 25.9954 31.8639 26.1248L29.8934 26.6528L30.3896 25.7226L31.4171 29.5574ZM36.7085 30.707L37.9104 23.138L39.4559 22.7239L44.291 28.6753L42.6489 29.1153L38.5766 23.8084L39.1948 23.6428L38.3119 30.2774L36.7085 30.707ZM37.8271 28.8544L37.9241 27.555L41.4014 26.6233L42.1448 27.6975L37.8271 28.8544ZM44.9925 28.4873L43.1807 21.7259L44.4751 21.379L49.7688 25.1784L49.141 25.3466L47.8365 20.4783L49.382 20.0642L51.1937 26.8257L49.909 27.1699L44.6057 23.3732L45.2335 23.205L46.538 28.0732L44.9925 28.4873ZM52.7935 26.3971L50.9817 19.6356L54.0534 18.8125C54.7875 18.6158 55.4726 18.5841 56.1088 18.7173C56.7432 18.8441 57.2855 19.1164 57.7356 19.5341C58.1857 19.9518 58.5031 20.5052 58.6877 21.1942C58.8706 21.8768 58.8724 22.5148 58.6932 23.108C58.5123 23.6949 58.1796 24.205 57.6953 24.6384C57.2093 25.0655 56.5992 25.3773 55.8651 25.574L52.7935 26.3971ZM54.014 24.6931L55.4436 24.31C55.8944 24.1893 56.2615 24.0012 56.5451 23.7457C56.8333 23.4821 57.0254 23.1684 57.1211 22.8046C57.2233 22.439 57.2175 22.0437 57.1036 21.6187C56.988 21.1873 56.7954 20.842 56.5258 20.5829C56.261 20.3157 55.9387 20.1433 55.559 20.0656C55.184 19.9797 54.7711 19.9971 54.3203 20.1179L52.8908 20.501L54.014 24.6931ZM29.3894 43.0209L27.5776 36.2595L30.5044 35.4752C31.1097 35.313 31.6581 35.2731 32.1494 35.3554C32.6391 35.4312 33.0522 35.6208 33.3888 35.924C33.7254 36.2272 33.9619 36.6332 34.0982 37.1419C34.2328 37.6442 34.2301 38.1107 34.0902 38.5416C33.9503 38.9725 33.6882 39.3465 33.3038 39.6634C32.9176 39.9739 32.4219 40.2103 31.8166 40.3725L29.7592 40.9238L30.2657 40.0323L30.9542 42.6016L29.3894 43.0209ZM30.3123 40.2061L29.4176 39.6487L31.388 39.1207C31.871 38.9913 32.204 38.7917 32.3871 38.5218C32.5701 38.2519 32.6125 37.9334 32.5141 37.5663C32.414 37.1928 32.2172 36.935 31.9238 36.7928C31.6303 36.6505 31.2421 36.6441 30.7591 36.7735L28.7886 37.3015L29.2848 36.3714L30.3123 40.2061ZM36.3697 41.1506L34.558 34.3891L37.4847 33.6049C38.09 33.4427 38.6384 33.4027 39.1298 33.485C39.6194 33.5609 40.0325 33.7504 40.3692 34.0536C40.7058 34.3568 40.9422 34.7628 41.0785 35.2715C41.2131 35.7738 41.2105 36.2404 41.0706 36.6713C40.9289 37.0957 40.665 37.4632 40.2789 37.7737C39.8928 38.0842 39.3971 38.3206 38.7918 38.4828L36.7343 39.0341L37.246 38.1619L37.9345 40.7313L36.3697 41.1506ZM40.6681 39.9988L38.3203 37.9983L39.9914 37.5505L42.3584 39.5459L40.6681 39.9988ZM37.2926 38.3358L36.4005 37.788L38.371 37.26C38.8539 37.1306 39.1869 36.931 39.37 36.6611C39.5513 36.3847 39.5928 36.063 39.4944 35.696C39.3943 35.3225 39.1976 35.0646 38.9041 34.9224C38.6106 34.7802 38.2224 34.7738 37.7394 34.9032L35.7689 35.4312L36.2651 34.5011L37.2926 38.3358ZM43.4727 39.2473L41.6609 32.4858L43.2257 32.0666L45.0375 38.828L43.4727 39.2473ZM46.2074 38.5145L45.9357 37.5003L48.7671 31.3375L49.113 31.8556L44.8146 33.0074L44.473 31.7324L50.1623 30.2079L50.434 31.2221L47.6123 37.3824L47.2664 36.8642L51.7773 35.6556L52.1189 36.9306L46.2074 38.5145ZM53.4798 32.2385L56.735 31.3662L57.0611 32.5833L53.806 33.4555L53.4798 32.2385ZM54.3412 34.9893L58.0213 34.0032L58.3578 35.2589L53.1225 36.6617L51.3107 29.9002L56.4205 28.531L56.757 29.7867L53.2024 30.7392L54.3412 34.9893Z" fill="black"/>
  <path d="M41.5739 72.318L39.0374 62.8519L43.1349 61.754C43.9823 61.5269 44.75 61.471 45.4379 61.5862C46.1234 61.6924 46.7018 61.9577 47.1731 62.3822C47.6443 62.8067 47.9754 63.3751 48.1662 64.0873C48.3546 64.7905 48.3509 65.4437 48.155 66.047C47.9592 66.6502 47.5922 67.1737 47.054 67.6174C46.5134 68.0522 45.8194 68.3831 44.972 68.6101L42.0916 69.3819L42.8007 68.1339L43.7646 71.731L41.5739 72.318ZM42.866 68.3773L41.6133 67.5969L44.372 66.8577C45.0481 66.6765 45.5143 66.397 45.7706 66.0192C46.0269 65.6413 46.0861 65.1954 45.9485 64.6815C45.8084 64.1587 45.5329 63.7977 45.122 63.5985C44.7111 63.3994 44.1676 63.3905 43.4915 63.5716L40.7328 64.3108L41.4274 63.0087L42.866 68.3773ZM53.043 69.2448L50.9849 61.5638L47.9557 62.3754L47.4774 60.5904L55.7265 58.3801L56.2047 60.1651L53.1756 60.9768L55.2337 68.6578L53.043 69.2448ZM62.5293 66.8769C61.772 67.0798 61.0197 67.1751 60.2724 67.1628C59.5227 67.1414 58.8925 67.0252 58.3818 66.8142L58.6835 64.9651C59.1665 65.1449 59.7083 65.2558 60.309 65.2978C60.9162 65.3283 61.5038 65.2675 62.0718 65.1153C62.5045 64.9993 62.8408 64.8658 63.0805 64.7146C63.3268 64.552 63.4925 64.3771 63.5776 64.19C63.6628 64.003 63.6788 63.8102 63.6256 63.6119C63.558 63.3595 63.4057 63.1877 63.1687 63.0966C62.9293 62.9965 62.6352 62.9448 62.2865 62.9417C61.9354 62.9294 61.5506 62.9359 61.1322 62.9611C60.7204 62.9748 60.2993 62.9717 59.8688 62.9518C59.4473 62.9294 59.0477 62.8626 58.67 62.7512C58.2923 62.6398 57.9563 62.4496 57.662 62.1806C57.3767 61.9092 57.1664 61.5211 57.0311 61.0162C56.8862 60.4753 56.8988 59.9453 57.0689 59.4263C57.2456 58.8958 57.592 58.4213 58.1079 58.0029C58.6304 57.573 59.338 57.2385 60.2305 56.9993C60.8255 56.8399 61.4308 56.755 62.0464 56.7446C62.6597 56.7253 63.2246 56.7961 63.7412 56.9572L63.5108 58.8017C63.0014 58.6677 62.5101 58.6012 62.0369 58.6024C61.5614 58.5945 61.1117 58.6474 60.688 58.7609C60.2643 58.8745 59.9305 59.017 59.6866 59.1887C59.4427 59.3603 59.2839 59.543 59.2102 59.7367C59.1341 59.9213 59.1238 60.1173 59.1793 60.3247C59.2446 60.5681 59.3969 60.7399 59.6363 60.84C59.8733 60.9311 60.1661 60.9782 60.5148 60.9814C60.8635 60.9846 61.2438 60.9793 61.6556 60.9656C62.0764 60.9495 62.4964 60.9481 62.9154 60.9614C63.3435 60.9723 63.7464 61.0335 64.1241 61.1448C64.5018 61.2562 64.8333 61.4476 65.1186 61.719C65.4129 61.988 65.6265 62.3704 65.7594 62.8663C65.9019 63.3982 65.8836 63.9248 65.7044 64.4463C65.5253 64.9678 65.1745 65.4435 64.6519 65.8733C64.1384 66.3008 63.4309 66.6353 62.5293 66.8769Z" fill="black"/>
</svg>
