<svg width="109" height="109" viewBox="0 0 109 109" fill="none" xmlns="http://www.w3.org/2000/svg">
  <path d="M52.5454 1.67862C53.6696 0.713136 55.3304 0.713135 56.4546 1.67862L64.6396 8.70805C65.3628 9.32916 66.3382 9.56956 67.2672 9.35569L77.7814 6.9352C79.2255 6.60275 80.696 7.37453 81.2427 8.75187L85.2234 18.7799C85.5752 19.6659 86.3271 20.3321 87.2491 20.5744L97.6838 23.3174C99.117 23.6941 100.06 25.0609 99.9044 26.5346L98.769 37.2638C98.6686 38.2119 99.0248 39.1511 99.7286 39.7942L107.693 47.0722C108.787 48.0719 108.987 49.7205 108.165 50.9529L102.173 59.9255C101.644 60.7183 101.522 61.7155 101.847 62.612L105.517 72.7578C106.021 74.1513 105.432 75.7041 104.131 76.4129L94.6557 81.5733C93.8185 82.0293 93.2478 82.856 93.1184 83.8005L91.6532 94.4898C91.452 95.9579 90.2089 97.0592 88.7272 97.082L77.9392 97.2481C76.986 97.2627 76.0965 97.7296 75.543 98.5057L69.2781 107.29C68.4176 108.496 66.8051 108.894 65.4825 108.225L55.8531 103.359C55.0023 102.929 53.9977 102.929 53.1469 103.359L43.5175 108.225C42.1949 108.894 40.5824 108.496 39.7219 107.29L33.457 98.5057C32.9035 97.7296 32.014 97.2627 31.0608 97.2481L20.2728 97.082C18.7911 97.0592 17.548 95.9579 17.3468 94.4898L15.8816 83.8005C15.7522 82.856 15.1815 82.0293 14.3443 81.5733L4.86924 76.4129C3.56784 75.7041 2.97894 74.1513 3.48304 72.7578L7.15322 62.612C7.47752 61.7155 7.35643 60.7183 6.82702 59.9255L0.835445 50.9529C0.0125052 49.7205 0.212684 48.0719 1.30664 47.0722L9.2714 39.7942C9.97515 39.1511 10.3314 38.2119 10.231 37.2638L9.09555 26.5346C8.93959 25.0609 9.883 23.6941 11.3162 23.3174L21.7509 20.5744C22.6729 20.3321 23.4248 19.6659 23.7766 18.7799L27.7573 8.75187C28.304 7.37453 29.7745 6.60275 31.2186 6.9352L41.7328 9.35569C42.6618 9.56956 43.6372 9.32916 44.3604 8.70805L52.5454 1.67862Z" fill="#BC9BFF"/>
  <path d="M53.1969 9.43725C53.9464 8.79359 55.0536 8.79359 55.803 9.43725L62.5641 15.2438C63.5284 16.0719 64.8289 16.3925 66.0676 16.1073L74.7526 14.1079C75.7154 13.8863 76.6957 14.4008 77.0602 15.319L80.3484 23.6025C80.8174 24.7839 81.82 25.6721 83.0493 25.9952L91.6687 28.261C92.6242 28.5121 93.2531 29.4233 93.1491 30.4058L92.2112 39.2685C92.0774 40.5325 92.5524 41.7849 93.4907 42.6423L100.07 48.6542C100.799 49.3206 100.933 50.4197 100.384 51.2413L95.4347 58.653C94.7289 59.71 94.5674 61.0397 94.9998 62.235L98.0315 70.6157C98.3676 71.5447 97.9749 72.5799 97.1074 73.0524L89.2806 77.3151C88.1644 77.9231 87.4035 79.0254 87.2309 80.2847L86.0206 89.1144C85.8864 90.0932 85.0577 90.8273 84.0699 90.8426L75.1587 90.9797C73.8878 90.9993 72.7018 91.6217 71.9637 92.6566L66.7887 99.9124C66.2151 100.717 65.1401 100.982 64.2584 100.536L56.3042 96.5163C55.1697 95.943 53.8303 95.943 52.6958 96.5163L44.7416 100.536C43.8599 100.982 42.7849 100.717 42.2113 99.9124L37.0363 92.6566C36.2982 91.6217 35.1122 90.9993 33.8413 90.9797L24.9301 90.8426C23.9423 90.8273 23.1136 90.0932 22.9794 89.1144L21.7691 80.2847C21.5965 79.0254 20.8356 77.9231 19.7194 77.3151L11.8926 73.0524C11.025 72.5799 10.6324 71.5447 10.9685 70.6157L14.0002 62.235C14.4326 61.0397 14.2711 59.71 13.5653 58.653L8.61604 51.2413C8.06741 50.4197 8.20086 49.3206 8.93016 48.6542L15.5093 42.6423C16.4477 41.7849 16.9226 40.5325 16.7888 39.2685L15.8509 30.4058C15.7469 29.4233 16.3758 28.5121 17.3313 28.261L25.9507 25.9952C27.18 25.6721 28.1826 24.7839 28.6516 23.6025L31.9398 15.319C32.3043 14.4008 33.2846 13.8863 34.2474 14.1079L42.9324 16.1073C44.1711 16.3925 45.4716 16.0719 46.4359 15.2438L53.1969 9.43725Z" stroke="black" stroke-width="2"/>
  <path d="M27.0287 41.2862C26.2804 41.4867 25.5593 41.5543 24.8655 41.489C24.1782 41.4123 23.541 41.2158 22.9538 40.8997C22.3756 40.5812 21.8761 40.1594 21.4553 39.6344C21.0434 39.1071 20.742 38.4873 20.5512 37.7751C20.3604 37.0629 20.3115 36.3754 20.4045 35.7128C20.5065 35.0477 20.7327 34.4315 21.0831 33.8641C21.4335 33.2968 21.8929 32.8113 22.4612 32.4079C23.027 31.9953 23.6886 31.6876 24.4459 31.4847C25.2843 31.2601 26.0745 31.1981 26.8165 31.2988C27.5676 31.3971 28.2442 31.6506 28.8465 32.0593L27.788 33.7344C27.3488 33.4655 26.9034 33.2998 26.4518 33.2373C25.9978 33.1657 25.5319 33.1939 25.0541 33.3219C24.5943 33.4451 24.1944 33.6295 23.8544 33.8753C23.5144 34.121 23.2409 34.4165 23.0339 34.7618C22.8359 35.1047 22.7098 35.4816 22.6556 35.8923C22.6104 36.3005 22.6482 36.7301 22.769 37.1808C22.8873 37.6226 23.0682 38.0089 23.3115 38.3399C23.5638 38.6685 23.8626 38.9363 24.2079 39.1433C24.5599 39.3388 24.94 39.4592 25.3483 39.5044C25.7656 39.5472 26.1996 39.5082 26.6503 39.3874C27.0831 39.2715 27.4842 39.0915 27.8536 38.8476C28.2297 38.5922 28.5669 38.2458 28.8651 37.8084L30.5332 39.0572C30.1232 39.5826 29.6034 40.0407 28.9738 40.4317C28.3532 40.8202 27.7048 41.105 27.0287 41.2862ZM28.4557 39.3095L27.5027 35.753L29.5041 35.2167L30.5332 39.0572L28.4557 39.3095ZM32.8472 39.5532L30.3108 30.0871L34.4082 28.9892C35.2557 28.7622 36.0233 28.7062 36.7113 28.8214C37.3968 28.9276 37.9752 29.193 38.4464 29.6175C38.9177 30.042 39.2487 30.6103 39.4396 31.3225C39.628 32.0257 39.6243 32.679 39.4284 33.2822C39.2301 33.8764 38.8607 34.3909 38.3201 34.8256C37.7795 35.2604 37.0855 35.5913 36.2381 35.8183L33.3577 36.5901L34.0741 35.3691L35.0379 38.9662L32.8472 39.5532ZM38.8649 37.9408L35.578 35.1401L37.9175 34.5132L41.2314 37.3067L38.8649 37.9408ZM34.1393 35.6125L32.8903 34.8457L35.6489 34.1065C36.3251 33.9253 36.7913 33.6458 37.0476 33.2679C37.3014 32.881 37.3595 32.4307 37.2218 31.9168C37.0817 31.3939 36.8062 31.0329 36.3953 30.8338C35.9845 30.6347 35.441 30.6257 34.7648 30.8069L32.0061 31.5461L32.7008 30.2439L34.1393 35.6125ZM41.5472 37.2221L43.2299 26.6255L45.3936 26.0457L52.1627 34.3776L49.8638 34.9936L44.1626 27.564L45.0281 27.3321L43.792 36.6206L41.5472 37.2221ZM43.1133 34.6284L43.2491 32.8092L48.1173 31.5048L49.158 33.0087L43.1133 34.6284ZM53.1448 34.1145L50.6084 24.6484L52.4205 24.1629L59.8317 29.4819L58.9527 29.7175L57.1265 22.9019L59.2902 22.3221L61.8266 31.7882L60.028 32.2701L52.6033 26.9547L53.4823 26.7192L55.3085 33.5347L53.1448 34.1145ZM64.0662 31.1881L61.5298 21.722L65.8301 20.5698C66.8578 20.2944 67.817 20.25 68.7076 20.4365C69.5958 20.614 70.355 20.9951 70.9852 21.58C71.6154 22.1648 72.0597 22.9395 72.3182 23.9042C72.5742 24.8598 72.5768 25.7529 72.3259 26.5835C72.0726 27.405 71.6069 28.1192 70.9288 28.726C70.2484 29.3239 69.3943 29.7605 68.3665 30.0358L64.0662 31.1881ZM65.775 28.8026L67.7764 28.2663C68.4075 28.0972 68.9215 27.8338 69.3185 27.4762C69.7221 27.1072 69.9909 26.668 70.1249 26.1586C70.268 25.6468 70.2598 25.0934 70.1004 24.4984C69.9386 23.8944 69.6689 23.411 69.2915 23.0483C68.9207 22.6742 68.4695 22.4328 67.9379 22.324C67.4129 22.2038 66.8349 22.2282 66.2038 22.3973L64.2024 22.9336L65.775 28.8026Z" fill="black"/>
  <path d="M31.0812 55.5759L28.5448 46.1098L32.6423 45.0119C33.4897 44.7848 34.2574 44.7289 34.9453 44.8441C35.6308 44.9503 36.2092 45.2156 36.6805 45.6401C37.1517 46.0646 37.4828 46.633 37.6736 47.3452C37.862 48.0484 37.8583 48.7016 37.6624 49.3049C37.4666 49.9081 37.0995 50.4316 36.5614 50.8753C36.0208 51.3101 35.3268 51.641 34.4794 51.868L31.599 52.6398L32.3081 51.3918L33.272 54.9889L31.0812 55.5759ZM32.3733 51.6352L31.1207 50.8548L33.8794 50.1156C34.5555 49.9344 35.0217 49.6549 35.278 49.277C35.5342 48.8992 35.5935 48.4533 35.4558 47.9394C35.3157 47.4165 35.0403 47.0555 34.6294 46.8564C34.2185 46.6573 33.675 46.6484 32.9989 46.8295L30.2402 47.5687L30.9348 46.2666L32.3733 51.6352ZM40.8537 52.9574L38.3173 43.4913L42.4147 42.3934C43.2622 42.1663 44.0298 42.1104 44.7178 42.2256C45.4033 42.3318 45.9817 42.5971 46.4529 43.0216C46.9242 43.4461 47.2552 44.0145 47.4461 44.7267C47.6345 45.4299 47.6308 46.0831 47.4349 46.6863C47.2366 47.2806 46.8672 47.7951 46.3266 48.2298C45.786 48.6645 45.092 48.9954 44.2446 49.2225L41.3642 49.9943L42.0806 48.7732L43.0444 52.3704L40.8537 52.9574ZM46.8714 51.3449L43.5845 48.5442L45.924 47.9173L49.2379 50.7108L46.8714 51.3449ZM42.1458 49.0167L40.8968 48.2498L43.6554 47.5106C44.3316 47.3294 44.7978 47.0499 45.0541 46.6721C45.3079 46.2852 45.366 45.8348 45.2283 45.3209C45.0882 44.798 44.8127 44.437 44.4018 44.2379C43.991 44.0388 43.4475 44.0298 42.7713 44.211L40.0126 44.9502L40.7073 43.648L42.1458 49.0167ZM50.7978 50.2928L48.2614 40.8268L50.4521 40.2398L52.9885 49.7058L50.7978 50.2928ZM54.6265 49.2669L54.246 47.847L58.21 39.2191L58.6943 39.9445L52.6766 41.5569L52.1983 39.7719L60.1633 37.6377L60.5438 39.0576L56.5933 47.6819L56.109 46.9565L62.4243 45.2643L62.9026 47.0494L54.6265 49.2669ZM64.8079 40.4804L69.3651 39.2593L69.8217 40.9632L65.2644 42.1843L64.8079 40.4804ZM66.0137 44.3315L71.166 42.951L71.637 44.709L64.3076 46.6729L61.7712 37.2068L68.9248 35.29L69.3958 37.048L64.4194 38.3814L66.0137 44.3315Z" fill="black"/>
  <path d="M51.5739 88.3179L49.0374 78.8518L53.1349 77.7539C53.9823 77.5268 54.75 77.4709 55.4379 77.5861C56.1234 77.6923 56.7018 77.9576 57.1731 78.3821C57.6443 78.8066 57.9754 79.375 58.1662 80.0872C58.3546 80.7904 58.3509 81.4436 58.155 82.0468C57.9592 82.6501 57.5922 83.1736 57.054 83.6173C56.5134 84.052 55.8194 84.3829 54.972 84.61L52.0916 85.3818L52.8007 84.1337L53.7646 87.7309L51.5739 88.3179ZM52.866 84.3772L51.6133 83.5968L54.372 82.8576C55.0481 82.6764 55.5143 82.3969 55.7706 82.019C56.0269 81.6412 56.0861 81.1953 55.9485 80.6814C55.8084 80.1585 55.5329 79.7975 55.122 79.5984C54.7111 79.3993 54.1676 79.3903 53.4915 79.5715L50.7328 80.3107L51.4274 79.0085L52.866 84.3772ZM63.043 85.2447L60.9849 77.5637L57.9557 78.3753L57.4774 76.5903L65.7265 74.38L66.2047 76.165L63.1756 76.9767L65.2337 84.6577L63.043 85.2447ZM72.5293 82.8768C71.772 83.0797 71.0197 83.175 70.2724 83.1627C69.5227 83.1413 68.8925 83.0251 68.3818 82.8141L68.6835 80.965C69.1665 81.1448 69.7083 81.2557 70.309 81.2976C70.9162 81.3282 71.5038 81.2674 72.0718 81.1152C72.5045 80.9992 72.8408 80.8657 73.0805 80.7145C73.3268 80.5518 73.4925 80.377 73.5776 80.1899C73.6628 80.0028 73.6788 79.8101 73.6256 79.6118C73.558 79.3594 73.4057 79.1876 73.1687 79.0965C72.9293 78.9964 72.6352 78.9447 72.2865 78.9415C71.9354 78.9293 71.5506 78.9358 71.1322 78.9609C70.7204 78.9747 70.2993 78.9716 69.8688 78.9516C69.4473 78.9293 69.0477 78.8624 68.67 78.7511C68.2923 78.6397 67.9563 78.4495 67.662 78.1805C67.3767 77.9091 67.1664 77.521 67.0311 77.0161C66.8862 76.4752 66.8988 75.9452 67.0689 75.4262C67.2456 74.8957 67.592 74.4212 68.1079 74.0028C68.6304 73.5729 69.338 73.2383 70.2305 72.9992C70.8255 72.8398 71.4308 72.7549 72.0464 72.7445C72.6597 72.7251 73.2246 72.796 73.7412 72.9571L73.5108 74.8016C73.0014 74.6676 72.5101 74.6011 72.0369 74.6023C71.5614 74.5944 71.1117 74.6473 70.688 74.7608C70.2643 74.8743 69.9305 75.0169 69.6866 75.1886C69.4427 75.3602 69.2839 75.5429 69.2102 75.7365C69.1341 75.9212 69.1238 76.1172 69.1793 76.3246C69.2446 76.568 69.3969 76.7397 69.6363 76.8399C69.8733 76.931 70.1661 76.9781 70.5148 76.9813C70.8635 76.9845 71.2438 76.9792 71.6556 76.9655C72.0764 76.9494 72.4964 76.948 72.9154 76.9613C73.3435 76.9722 73.7464 77.0333 74.1241 77.1447C74.5018 77.2561 74.8333 77.4475 75.1186 77.7189C75.4129 77.9879 75.6265 78.3703 75.7594 78.8661C75.9019 79.398 75.8836 79.9247 75.7044 80.4462C75.5253 80.9677 75.1745 81.4433 74.6519 81.8732C74.1384 82.3007 73.4309 82.6352 72.5293 82.8768Z" fill="black"/>
</svg>
