<svg width="91" height="91" viewBox="0 0 91 91" fill="none" xmlns="http://www.w3.org/2000/svg">
  <path d="M43.5454 1.67862C44.6696 0.713137 46.3304 0.713135 47.4546 1.67862L53.6054 6.96105C54.3286 7.58216 55.304 7.82257 56.233 7.6087L64.1341 5.78976C65.5782 5.45731 67.0487 6.22909 67.5955 7.60643L70.5869 15.1422C70.9386 16.0283 71.6906 16.6944 72.6126 16.9368L80.454 18.998C81.8872 19.3748 82.8306 20.7415 82.6746 22.2152L81.8213 30.278C81.721 31.226 82.0772 32.1653 82.781 32.8084L88.7663 38.2776C89.8602 39.2772 90.0604 40.9259 89.2375 42.1582L84.735 48.9009C84.2055 49.6937 84.0845 50.691 84.4088 51.5874L87.1668 59.2117C87.6709 60.6052 87.082 62.158 85.7806 62.8668L78.6603 66.7448C77.8231 67.2007 77.2525 68.0275 77.123 68.972L76.022 77.0046C75.8207 78.4728 74.5776 79.5741 73.0959 79.5969L64.9891 79.7217C64.0359 79.7363 63.1464 80.2032 62.5928 80.9793L57.8849 87.5802C57.0244 88.7867 55.412 89.1842 54.0894 88.5158L46.8531 84.8588C46.0023 84.4288 44.9977 84.4288 44.1469 84.8588L36.9106 88.5158C35.588 89.1842 33.9756 88.7867 33.1151 87.5803L28.4072 80.9793C27.8536 80.2032 26.9641 79.7363 26.0109 79.7217L17.9041 79.5969C16.4224 79.5741 15.1793 78.4728 14.978 77.0046L13.877 68.972C13.7475 68.0275 13.1769 67.2007 12.3397 66.7448L5.2194 62.8668C3.91801 62.158 3.3291 60.6052 3.8332 59.2117L6.59125 51.5874C6.91554 50.691 6.79446 49.6937 6.26505 48.9009L1.76253 42.1582C0.939592 40.9259 1.13977 39.2772 2.23373 38.2776L8.21904 32.8084C8.92279 32.1653 9.27902 31.226 9.17869 30.278L8.32539 22.2152C8.16943 20.7415 9.11283 19.3748 10.546 18.998L18.3874 16.9368C19.3094 16.6944 20.0614 16.0283 20.4131 15.1422L23.4045 7.60643C23.9513 6.22909 25.4218 5.45731 26.8659 5.78976L34.767 7.6087C35.696 7.82257 36.6714 7.58216 37.3946 6.96105L43.5454 1.67862Z" fill="#979ABE"/>
  <path d="M46.8031 8.17602L51.7865 12.4559C52.7508 13.284 54.0513 13.6046 55.29 13.3194L61.6916 11.8457C62.6543 11.6241 63.6347 12.1386 63.9992 13.0568L66.4228 19.1624C66.8918 20.3438 67.8944 21.232 69.1237 21.5551L75.4769 23.2252C76.4323 23.4763 77.0613 24.3875 76.9573 25.37L76.266 31.9025C76.1322 33.1665 76.6071 34.4189 77.5455 35.2763L82.3948 39.7076C83.1241 40.374 83.2576 41.4731 82.709 42.2947L79.061 47.7577C78.3551 48.8147 78.1937 50.1444 78.6261 51.3397L80.8607 57.5169C81.1967 58.4459 80.8041 59.4812 79.9365 59.9537L74.1676 63.0956C73.0513 63.7036 72.2905 64.8059 72.1179 66.0652L71.2258 72.5734C71.0916 73.5522 70.2629 74.2863 69.2751 74.3015L62.7068 74.4026C61.4359 74.4222 60.2499 75.0447 59.5118 76.0795L55.6974 81.4276C55.1238 82.2319 54.0488 82.4969 53.1671 82.0513L47.3042 79.0884C46.1697 78.5151 44.8303 78.5151 43.6959 79.0884L37.833 82.0513C36.9513 82.4969 35.8763 82.2319 35.3026 81.4276L31.4882 76.0795C30.7502 75.0447 29.5642 74.4222 28.2932 74.4026L21.725 74.3015C20.7372 74.2863 19.9085 73.5521 19.7743 72.5734L18.8822 66.0652C18.7096 64.8059 17.9487 63.7036 16.8324 63.0956L11.0635 59.9537C10.1959 59.4812 9.80334 58.4459 10.1394 57.5169L12.374 51.3397C12.8064 50.1444 12.6449 48.8147 11.9391 47.7577L8.29109 42.2947C7.74246 41.4731 7.87592 40.374 8.60522 39.7076L13.4546 35.2763C14.3929 34.4189 14.8679 33.1665 14.7341 31.9025L14.0428 25.37C13.9388 24.3875 14.5677 23.4763 15.5232 23.2252L21.8764 21.5551C23.1057 21.232 24.1083 20.3438 24.5772 19.1624L27.0009 13.0568C27.3654 12.1386 28.3457 11.6241 29.3085 11.8457L35.7101 13.3194C36.9488 13.6046 38.2493 13.284 39.2135 12.4559L44.197 8.17602C44.9464 7.53236 46.0536 7.53236 46.8031 8.17602Z" stroke="black" stroke-width="2"/>
  <path d="M27.3381 33.61C26.8036 33.7532 26.2885 33.8015 25.7929 33.7549C25.302 33.7 24.8469 33.5597 24.4274 33.3339C24.0145 33.1064 23.6577 32.8051 23.3571 32.4302C23.0629 32.0535 22.8476 31.6108 22.7113 31.102C22.575 30.5933 22.5401 30.1023 22.6065 29.629C22.6794 29.1539 22.8409 28.7138 23.0912 28.3085C23.3416 27.9033 23.6697 27.5565 24.0756 27.2683C24.4797 26.9737 24.9523 26.7539 25.4932 26.6089C26.0921 26.4485 26.6565 26.4042 27.1865 26.4761C27.723 26.5464 28.2063 26.7274 28.6365 27.0194L27.8804 28.2158C27.5667 28.0238 27.2486 27.9054 26.926 27.8607C26.6017 27.8096 26.2689 27.8298 25.9277 27.9212C25.5992 28.0092 25.3136 28.141 25.0708 28.3165C24.8279 28.492 24.6325 28.703 24.4847 28.9497C24.3433 29.1947 24.2532 29.4638 24.2145 29.7572C24.1822 30.0488 24.2092 30.3556 24.2954 30.6776C24.38 30.9931 24.5091 31.2691 24.6829 31.5055C24.8631 31.7402 25.0766 31.9315 25.3233 32.0793C25.5746 32.219 25.8462 32.305 26.1378 32.3373C26.4358 32.3679 26.7459 32.34 27.0678 32.2537C27.3769 32.1709 27.6634 32.0424 27.9273 31.8681C28.1959 31.6857 28.4368 31.4383 28.6498 31.1258L29.8413 32.0179C29.5484 32.3931 29.1772 32.7204 28.7274 32.9996C28.2842 33.2771 27.821 33.4806 27.3381 33.61ZM28.3574 32.1981L27.6767 29.6577L29.1063 29.2746L29.8413 32.0179L28.3574 32.1981ZM31.4942 32.3721L29.6824 25.6107L32.6092 24.8264C33.2145 24.6643 33.7628 24.6243 34.2542 24.7066C34.7439 24.7824 35.157 24.972 35.4936 25.2752C35.8302 25.5784 36.0667 25.9844 36.203 26.4931C36.3376 26.9954 36.3349 27.462 36.195 27.8928C36.0534 28.3173 35.7895 28.6848 35.4034 28.9953C35.0172 29.3058 34.5215 29.5422 33.9162 29.7044L31.8588 30.2557L32.3705 29.3835L33.059 31.9529L31.4942 32.3721ZM35.7925 31.2204L33.4448 29.2199L35.1158 28.7721L37.4829 30.7675L35.7925 31.2204ZM32.4171 29.5574L31.5249 29.0096L33.4954 28.4816C33.9784 28.3522 34.3114 28.1526 34.4944 27.8826C34.6757 27.6063 34.7172 27.2846 34.6189 26.9175C34.5188 26.5441 34.322 26.2862 34.0285 26.144C33.7351 26.0018 33.3469 25.9954 32.8639 26.1248L30.8934 26.6528L31.3896 25.7226L32.4171 29.5574ZM37.7085 30.707L38.9104 23.138L40.4559 22.7239L45.291 28.6753L43.6489 29.1153L39.5766 23.8084L40.1948 23.6428L39.3119 30.2774L37.7085 30.707ZM38.8271 28.8544L38.9241 27.555L42.4014 26.6233L43.1448 27.6975L38.8271 28.8544ZM45.9925 28.4873L44.1807 21.7259L45.4751 21.379L50.7688 25.1784L50.141 25.3466L48.8365 20.4783L50.382 20.0642L52.1937 26.8257L50.909 27.1699L45.6057 23.3732L46.2335 23.205L47.538 28.0732L45.9925 28.4873ZM53.7935 26.3971L51.9817 19.6356L55.0534 18.8125C55.7875 18.6158 56.4726 18.5841 57.1088 18.7173C57.7432 18.8441 58.2855 19.1164 58.7356 19.5341C59.1857 19.9518 59.5031 20.5052 59.6877 21.1942C59.8706 21.8768 59.8724 22.5148 59.6932 23.108C59.5123 23.6949 59.1796 24.205 58.6953 24.6384C58.2093 25.0655 57.5992 25.3773 56.8651 25.574L53.7935 26.3971ZM55.014 24.6931L56.4436 24.31C56.8944 24.1893 57.2615 24.0012 57.5451 23.7457C57.8333 23.4821 58.0254 23.1684 58.1211 22.8046C58.2233 22.439 58.2175 22.0437 58.1036 21.6187C57.988 21.1873 57.7954 20.842 57.5258 20.5829C57.261 20.3157 56.9387 20.1433 56.559 20.0656C56.184 19.9797 55.7711 19.9971 55.3203 20.1179L53.8908 20.501L55.014 24.6931ZM30.3894 43.0209L28.5776 36.2595L31.5044 35.4752C32.1097 35.313 32.6581 35.2731 33.1494 35.3554C33.6391 35.4312 34.0522 35.6208 34.3888 35.924C34.7254 36.2272 34.9619 36.6332 35.0982 37.1419C35.2328 37.6442 35.2301 38.1107 35.0902 38.5416C34.9503 38.9725 34.6882 39.3465 34.3038 39.6634C33.9176 39.9739 33.4219 40.2103 32.8166 40.3725L30.7592 40.9238L31.2657 40.0323L31.9542 42.6016L30.3894 43.0209ZM31.3123 40.2061L30.4176 39.6487L32.388 39.1207C32.871 38.9913 33.204 38.7917 33.3871 38.5218C33.5701 38.2519 33.6125 37.9334 33.5141 37.5663C33.414 37.1928 33.2172 36.935 32.9238 36.7928C32.6303 36.6505 32.2421 36.6441 31.7591 36.7735L29.7886 37.3015L30.2848 36.3714L31.3123 40.2061ZM37.3697 41.1506L35.558 34.3891L38.4847 33.6049C39.09 33.4427 39.6384 33.4027 40.1298 33.485C40.6194 33.5609 41.0325 33.7504 41.3692 34.0536C41.7058 34.3568 41.9422 34.7628 42.0785 35.2715C42.2131 35.7738 42.2105 36.2404 42.0706 36.6713C41.9289 37.0957 41.665 37.4632 41.2789 37.7737C40.8928 38.0842 40.3971 38.3206 39.7918 38.4828L37.7343 39.0341L38.246 38.1619L38.9345 40.7313L37.3697 41.1506ZM41.6681 39.9988L39.3203 37.9983L40.9914 37.5505L43.3584 39.5459L41.6681 39.9988ZM38.2926 38.3358L37.4005 37.788L39.371 37.26C39.8539 37.1306 40.1869 36.931 40.37 36.6611C40.5513 36.3847 40.5928 36.063 40.4944 35.696C40.3943 35.3225 40.1976 35.0646 39.9041 34.9224C39.6106 34.7802 39.2224 34.7738 38.7394 34.9032L36.7689 35.4312L37.2651 34.5011L38.2926 38.3358ZM44.4727 39.2473L42.6609 32.4858L44.2257 32.0666L46.0375 38.828L44.4727 39.2473ZM47.2074 38.5145L46.9357 37.5003L49.7671 31.3375L50.113 31.8556L45.8146 33.0074L45.473 31.7324L51.1623 30.2079L51.434 31.2221L48.6123 37.3824L48.2664 36.8642L52.7773 35.6556L53.1189 36.9306L47.2074 38.5145ZM54.4798 32.2385L57.735 31.3662L58.0611 32.5833L54.806 33.4555L54.4798 32.2385ZM55.3412 34.9893L59.0213 34.0032L59.3578 35.2589L54.1225 36.6617L52.3107 29.9002L57.4205 28.531L57.757 29.7867L54.2024 30.7392L55.3412 34.9893Z" fill="black"/>
</svg>
