<svg width="169" height="114" viewBox="0 0 169 114" fill="none" xmlns="http://www.w3.org/2000/svg">
<path opacity="0.5" d="M5.27822 93.3855C8.19335 104.265 45.8863 103.618 89.4677 91.9402C133.049 80.2626 166.016 61.9765 163.101 51.0971C160.185 40.2177 122.493 40.8648 78.9111 52.5424C35.3296 64.22 2.36309 82.5061 5.27822 93.3855Z" fill="url(#paint0_radial_9613_32878)"/>
<path d="M70.2977 13.0495C43.4009 20.2565 27.4391 47.9031 34.6461 74.7999C50.4826 74.4115 92.1341 68.6478 132.048 48.7011C124.841 21.8043 97.1946 5.84248 70.2977 13.0495Z" fill="url(#paint1_radial_9613_32878)"/>
<path fill-rule="evenodd" clip-rule="evenodd" d="M90.7972 34L87.933 36.6686L98.9949 47.5369L101.905 44.8117L90.7972 34ZM72.8239 66.1403C75.2389 67.6964 78.0758 68.524 80.9761 68.5186C82.9061 68.5186 84.8171 68.149 86.5991 67.4309C88.3811 66.7128 89.999 65.6604 91.3598 64.3344C92.7205 63.0083 93.7972 61.4346 94.528 59.7039C95.2588 57.9732 95.6292 56.1196 95.618 54.2497C95.6067 51.4397 94.736 48.696 93.1159 46.3653C91.4958 44.0345 89.199 42.2213 86.5158 41.1548C83.8325 40.0883 80.8831 39.8163 78.0403 40.3732C75.1976 40.93 72.5889 42.2908 70.5441 44.2836C68.4992 46.2764 67.1099 48.8116 66.5517 51.5691C65.9934 54.3266 66.2913 57.1825 67.4077 59.776C68.5241 62.3696 70.4089 64.5843 72.8239 66.1403ZM80.793 64.645C74.977 64.5662 70.2021 59.8651 70.2916 54.3207C70.2878 52.2668 70.9152 50.2584 72.0938 48.5512C73.2724 46.8441 74.9488 45.5155 76.9096 44.7348C78.8703 43.9541 81.0265 43.7565 83.1035 44.1674C85.1805 44.5782 87.0842 45.5788 88.5722 47.0416C90.0602 48.5045 91.065 50.3634 91.4586 52.3815C91.8523 54.3997 91.6169 56.4857 90.7825 58.3737C89.9482 60.2618 88.5526 61.8665 86.7735 62.9833C84.9945 64.1002 82.9126 64.6786 80.793 64.645Z" fill="url(#paint2_linear_9613_32878)"/>
<defs>
<radialGradient id="paint0_radial_9613_32878" cx="0" cy="0" r="1" gradientUnits="userSpaceOnUse" gradientTransform="translate(83.9598 71.9583) rotate(75.1488) scale(24.4695 98.022)">
<stop offset="0.67219"/>
<stop offset="1" stop-color="#F581A7"/>
</radialGradient>
<radialGradient id="paint1_radial_9613_32878" cx="0" cy="0" r="1" gradientUnits="userSpaceOnUse" gradientTransform="translate(68.6947 19.6243) rotate(67.6771) scale(49.2817 75.5053)">
<stop stop-color="#E35B88"/>
<stop offset="1"/>
</radialGradient>
<linearGradient id="paint2_linear_9613_32878" x1="80.2489" y1="39.0763" x2="97.5922" y2="54.1688" gradientUnits="userSpaceOnUse">
<stop stop-color="#F15266"/>
<stop offset="0.52" stop-color="#BC74ED"/>
<stop offset="1" stop-color="#1ABEE9"/>
</linearGradient>
</defs>
</svg>
