<svg width="504" height="249" viewBox="0 0 504 249" fill="none" xmlns="http://www.w3.org/2000/svg">
<path d="M488.297 55.9996C488.895 56.8426 489.382 57.7227 489.752 58.64L489.289 58.8274C489.471 59.2768 489.623 59.7353 489.747 60.203C489.87 60.6707 489.963 61.1448 490.027 61.6253L490.522 61.5597C490.652 62.5406 490.663 63.546 490.558 64.5744L490.061 64.5237C489.966 65.456 489.771 66.4118 489.478 67.3903L489.957 67.5336C489.681 68.4582 489.319 69.3991 488.876 70.3551L488.422 70.1445C488.023 71.004 487.555 71.8784 487.018 72.7668L487.446 73.0253C486.941 73.8611 486.377 74.7073 485.757 75.5633L485.352 75.2697C484.785 76.0515 484.169 76.8426 483.504 77.6425L483.888 77.9621C483.27 78.7067 482.61 79.4581 481.91 80.2158L481.543 79.8765C480.878 80.5961 480.176 81.3219 479.438 82.0537L479.79 82.4087C479.091 83.1018 478.36 83.7996 477.598 84.5022L477.259 84.1344C476.541 84.7958 475.795 85.4615 475.02 86.1314L475.347 86.5096C474.591 87.1639 473.809 87.8219 473 88.4835L472.683 88.0965C471.929 88.7134 471.153 89.3336 470.353 89.9568L470.661 90.3511C469.867 90.9698 469.052 91.5913 468.215 92.2155L467.916 91.8147C467.133 92.3983 466.331 92.9844 465.511 93.5728L465.802 93.9791C464.985 94.5655 464.148 95.154 463.294 95.7446L463.01 95.3333C462.201 95.8921 461.377 96.4528 460.535 97.0154L460.813 97.431C459.98 97.9881 459.132 98.5469 458.267 99.1074L457.995 98.6878C457.162 99.2281 456.314 99.7699 455.452 100.313L455.718 100.736C454.876 101.267 454.019 101.799 453.15 102.332L452.888 101.906C452.03 102.433 451.159 102.96 450.274 103.489L450.531 103.918C449.683 104.425 448.822 104.933 447.95 105.442L447.698 105.01C446.828 105.519 445.945 106.028 445.051 106.538L445.299 106.972C444.435 107.465 443.561 107.959 442.675 108.453L442.431 108.017C441.56 108.503 440.679 108.99 439.787 109.478L440.027 109.917C439.137 110.404 438.237 110.891 437.327 111.379L437.091 110.939C436.221 111.406 435.341 111.873 434.452 112.341L434.685 112.783C433.796 113.252 432.897 113.72 431.989 114.19L431.759 113.746C430.865 114.208 429.961 114.671 429.049 115.134L429.276 115.58C428.39 116.03 427.495 116.481 426.593 116.931L426.369 116.484C425.468 116.934 424.559 117.385 423.641 117.836L423.862 118.284C422.959 118.728 422.049 119.172 421.131 119.616L420.913 119.166C420.017 119.599 419.113 120.033 418.203 120.467L418.418 120.918C417.506 121.352 416.588 121.787 415.662 122.221L415.45 121.769C414.539 122.196 413.622 122.623 412.698 123.05L412.908 123.504C412.003 123.923 411.091 124.342 410.173 124.76L409.966 124.305C409.049 124.724 408.125 125.142 407.195 125.561L407.4 126.017C406.479 126.431 405.552 126.845 404.619 127.259L404.416 126.802C403.506 127.206 402.59 127.61 401.668 128.014L401.868 128.472C400.945 128.876 400.017 129.28 399.083 129.684L398.884 129.225C397.953 129.627 397.017 130.03 396.075 130.432L396.271 130.892C395.355 131.283 394.434 131.673 393.508 132.064L393.314 131.603C392.388 131.993 391.458 132.383 390.522 132.773L390.714 133.234C389.778 133.625 388.836 134.014 387.889 134.404L387.699 133.941C386.774 134.322 385.844 134.702 384.909 135.082L385.098 135.546C384.169 135.923 383.236 136.301 382.298 136.678L382.112 136.214C381.174 136.59 380.232 136.967 379.286 137.343L379.47 137.808C378.531 138.18 377.588 138.553 376.64 138.925L376.458 138.46C375.528 138.825 374.594 139.19 373.656 139.554L373.837 140.02C372.898 140.385 371.955 140.749 371.007 141.113L370.828 140.647C369.881 141.01 368.93 141.373 367.975 141.736L368.153 142.204C367.217 142.559 366.276 142.915 365.332 143.269L365.156 142.801C364.217 143.154 363.275 143.507 362.328 143.859L362.502 144.327C361.555 144.679 360.604 145.031 359.649 145.382L359.477 144.913C358.527 145.262 357.573 145.611 356.615 145.96L356.786 146.43C355.847 146.772 354.903 147.113 353.957 147.454L353.787 146.984C352.841 147.324 351.891 147.665 350.938 148.004L351.106 148.475C350.152 148.815 349.195 149.155 348.234 149.493L348.068 149.022C347.117 149.357 346.164 149.692 345.207 150.026L345.372 150.498C344.425 150.828 343.475 151.158 342.523 151.487L342.359 151.014C341.407 151.344 340.451 151.672 339.493 152L339.654 152.473C338.695 152.801 337.733 153.128 336.767 153.455L336.607 152.982C335.655 153.304 334.701 153.625 333.743 153.946L333.902 154.42C332.95 154.739 331.995 155.058 331.037 155.375L330.879 154.901C329.922 155.218 328.962 155.535 327.998 155.852L328.154 156.327C327.191 156.643 326.224 156.959 325.255 157.274L325.1 156.799C324.146 157.109 323.189 157.418 322.23 157.727L322.383 158.203C321.426 158.511 320.466 158.818 319.504 159.125L319.352 158.648C318.391 158.955 317.426 159.26 316.459 159.565L316.61 160.042C315.642 160.347 314.672 160.652 313.7 160.956L313.551 160.478C312.593 160.777 311.633 161.075 310.671 161.373L310.819 161.851C309.858 162.148 308.894 162.444 307.928 162.74L307.782 162.261C306.817 162.557 305.849 162.852 304.879 163.146L305.024 163.624C304.053 163.918 303.08 164.211 302.105 164.504L301.961 164.025C301 164.313 300.036 164.601 299.07 164.888L299.213 165.367C298.248 165.654 297.282 165.939 296.313 166.224L296.172 165.744C295.203 166.029 294.232 166.313 293.26 166.596L293.399 167.076C292.426 167.359 291.451 167.642 290.473 167.923L290.335 167.443C289.369 167.721 288.401 167.998 287.431 168.275L287.568 168.756C286.601 169.031 285.631 169.306 284.659 169.581L284.523 169.099C283.552 169.374 282.579 169.647 281.604 169.919L281.738 170.401C280.762 170.673 279.785 170.945 278.805 171.216L278.672 170.734C277.702 171.002 276.729 171.269 275.755 171.536L275.887 172.018C274.917 172.284 273.944 172.548 272.97 172.812L272.839 172.33C271.866 172.593 270.89 172.856 269.913 173.118L270.042 173.601C269.064 173.863 268.085 174.124 267.103 174.384L266.975 173.901C266.485 174.031 265.994 174.16 265.503 174.29C265.011 174.419 264.521 174.549 264.03 174.677L264.157 175.161C263.175 175.418 262.194 175.674 261.214 175.929L261.088 175.445C260.109 175.699 259.131 175.951 258.153 176.202L258.278 176.686C257.3 176.937 256.324 177.186 255.348 177.434L255.225 176.949C254.247 177.198 253.269 177.445 252.292 177.69L252.414 178.175C251.428 178.422 250.444 178.668 249.461 178.912L249.34 178.427C248.358 178.67 247.376 178.913 246.396 179.153L246.515 179.639C245.535 179.879 244.555 180.118 243.577 180.355L243.46 179.869C242.479 180.107 241.501 180.343 240.523 180.577L240.64 181.063C239.651 181.3 238.663 181.536 237.676 181.769L237.561 181.283C236.575 181.516 235.591 181.748 234.608 181.978L234.722 182.464C233.738 182.694 232.756 182.923 231.776 183.149L231.663 182.662C230.682 182.889 229.702 183.114 228.723 183.337L228.834 183.824C227.842 184.051 226.85 184.275 225.861 184.498L225.751 184.01C224.762 184.233 223.775 184.454 222.79 184.673L222.898 185.161C221.912 185.38 220.928 185.597 219.945 185.812L219.838 185.324C218.854 185.54 217.872 185.754 216.892 185.966L216.997 186.454C216.002 186.67 215.007 186.883 214.015 187.095L213.911 186.606C212.919 186.817 211.93 187.027 210.942 187.234L211.045 187.724C210.057 187.931 209.07 188.137 208.086 188.341L207.985 187.851C206.998 188.056 206.012 188.258 205.03 188.459L205.13 188.949C204.131 189.153 203.134 189.355 202.14 189.555L202.041 189.064C201.047 189.264 200.055 189.462 199.066 189.658L199.163 190.148C198.173 190.344 197.185 190.538 196.199 190.73L196.104 190.239C195.112 190.432 194.123 190.623 193.137 190.812L193.231 191.303C192.23 191.495 191.231 191.685 190.235 191.872L190.142 191.381C189.146 191.569 188.153 191.754 187.162 191.937L187.253 192.429C186.262 192.612 185.273 192.794 184.287 192.973L184.197 192.481C183.2 192.662 182.206 192.841 181.214 193.018L181.301 193.511C180.299 193.69 179.298 193.866 178.301 194.041L178.215 193.548C177.218 193.723 176.224 193.895 175.233 194.065L175.317 194.558C174.325 194.728 173.336 194.896 172.35 195.062L172.267 194.569C171.262 194.738 170.26 194.905 169.262 195.069L169.343 195.563C168.339 195.728 167.338 195.891 166.341 196.052L166.261 195.558C165.264 195.719 164.27 195.877 163.279 196.033L163.357 196.527C162.361 196.684 161.368 196.838 160.378 196.99L160.302 196.496C159.292 196.652 158.285 196.804 157.283 196.955L157.357 197.449C156.353 197.6 155.353 197.748 154.356 197.894L154.284 197.399C153.288 197.544 152.296 197.688 151.307 197.828L151.377 198.323C150.369 198.467 149.365 198.608 148.364 198.746L148.296 198.251C147.287 198.39 146.281 198.527 145.28 198.662L145.347 199.157C144.345 199.292 143.347 199.424 142.353 199.553L142.288 199.057C141.288 199.188 140.291 199.315 139.299 199.44L139.361 199.936C138.346 200.064 137.334 200.19 136.327 200.312L136.267 199.816C135.26 199.938 134.258 200.058 133.261 200.174L133.319 200.671C132.321 200.788 131.327 200.902 130.338 201.014L130.282 200.517C129.264 200.632 128.251 200.743 127.242 200.852L127.296 201.349C126.284 201.459 125.277 201.565 124.275 201.668L124.224 201.171C123.222 201.274 122.226 201.375 121.235 201.472L121.284 201.97C120.268 202.069 119.257 202.166 118.252 202.26L118.205 201.762C117.19 201.857 116.18 201.948 115.176 202.037L115.22 202.535C114.214 202.623 113.215 202.708 112.221 202.79L112.18 202.292C111.165 202.376 110.157 202.456 109.154 202.533L109.192 203.032C108.173 203.11 107.16 203.186 106.152 203.257L106.117 202.758C105.111 202.83 104.111 202.898 103.118 202.963L103.15 203.462C102.133 203.528 101.122 203.591 100.118 203.65L100.088 203.151C99.0679 203.211 98.0546 203.268 97.0484 203.32L97.0746 203.82C96.0673 203.872 95.0671 203.921 94.0742 203.967L94.0514 203.467C93.0295 203.514 92.0154 203.557 91.009 203.596L91.0283 204.095C90.0071 204.134 88.9939 204.17 87.9889 204.201L87.9734 203.701C86.9696 203.732 85.9741 203.76 84.9868 203.783L84.9985 204.282C83.9661 204.307 82.9427 204.326 81.9285 204.341L81.921 203.841C80.9047 203.857 79.8976 203.867 78.8999 203.874L78.9031 204.374C77.8889 204.38 76.8844 204.382 75.8897 204.379L75.8912 203.879C74.8619 203.876 73.8431 203.868 72.8352 203.855L72.8288 204.355C71.8191 204.342 70.8202 204.324 69.8321 204.302L69.8437 203.802C68.8137 203.778 67.7955 203.749 66.7895 203.714L66.7723 204.214C65.7526 204.178 64.7453 204.138 63.7505 204.091L63.7738 203.592C62.7558 203.544 61.751 203.491 60.7597 203.432L60.7299 203.931C59.7015 203.87 58.6875 203.802 57.6881 203.728L57.725 203.23C56.7159 203.155 55.7218 203.074 54.743 202.986L54.6985 203.484C53.664 203.392 52.6464 203.292 51.6459 203.185L51.6991 202.688C50.6951 202.581 49.7087 202.466 48.7401 202.344L48.6777 202.84C47.6416 202.71 46.6257 202.571 45.6303 202.424L45.7033 201.93C44.7006 201.782 43.719 201.625 42.7588 201.46L42.6742 201.953C41.6446 201.776 40.6393 201.59 39.6586 201.393L39.7568 200.903C38.7528 200.702 37.7753 200.491 36.8246 200.269L36.7112 200.756C35.7013 200.521 34.7212 200.275 33.7714 200.016L33.9025 199.534C32.8996 199.261 31.9313 198.976 30.9983 198.677L30.846 199.154C29.8635 198.84 28.9191 198.511 28.0136 198.169L28.1905 197.701C27.2178 197.333 26.2917 196.948 25.4128 196.548L25.2055 197.003C24.2433 196.564 23.3358 196.106 22.4844 195.628L22.7292 195.192C21.8241 194.684 20.9856 194.154 20.2146 193.603L19.9239 194.01C19.0663 193.397 18.2882 192.756 17.5915 192.089L17.9376 191.728C17.2003 191.021 16.56 190.285 16.0175 189.521L15.6098 189.81C15.0113 188.967 14.5251 188.087 14.1543 187.17L14.6179 186.983C14.4363 186.533 14.2836 186.075 14.1603 185.607C14.037 185.139 13.9437 184.665 13.8801 184.185L13.3844 184.25C13.2547 183.269 13.2437 182.264 13.3487 181.236L13.8461 181.286C13.9412 180.354 14.1356 179.398 14.4284 178.42L13.9494 178.276C14.2261 177.352 14.5873 176.411 15.0312 175.455L15.4847 175.665C15.8837 174.806 16.352 173.932 16.8888 173.043L16.4609 172.785C16.9658 171.949 17.5293 171.103 18.1502 170.247L18.5549 170.54C19.122 169.758 19.7382 168.967 20.4029 168.167L20.0184 167.848C20.6372 167.103 21.2969 166.352 21.9968 165.594L22.3641 165.933C23.0287 165.214 23.7304 164.488 24.4685 163.756L24.1164 163.401C24.8154 162.708 25.5465 162.01 26.3091 161.308L26.6479 161.676C27.3658 161.014 28.1121 160.348 28.8865 159.679L28.5593 159.3C29.3157 158.646 30.0983 157.988 30.9068 157.326L31.2234 157.713C31.9775 157.097 32.7543 156.476 33.5536 155.853L33.2462 155.459C34.0397 154.84 34.8552 154.219 35.6923 153.594L35.9912 153.995C36.7738 153.412 37.5755 152.826 38.396 152.237L38.1046 151.831C38.9222 151.245 39.7583 150.656 40.6127 150.065L40.897 150.477C41.7054 149.918 42.5302 149.357 43.3713 148.795L43.0933 148.379C43.9264 147.822 44.7752 147.263 45.6396 146.703L45.9116 147.122C46.7449 146.582 47.5927 146.04 48.455 145.497L48.1885 145.074C49.0311 144.543 49.8874 144.011 50.7571 143.477L51.0185 143.904C51.8766 143.377 52.7479 142.85 53.6323 142.321L53.3758 141.892C54.2241 141.385 55.0843 140.877 55.9563 140.368L56.2084 140.8C57.079 140.291 57.9613 139.782 58.8554 139.272L58.6076 138.838C59.4715 138.345 60.3463 137.851 61.2318 137.357L61.4756 137.793C62.3466 137.307 63.228 136.82 64.1198 136.332L63.8798 135.893C64.7696 135.406 65.6696 134.919 66.5797 134.431L66.816 134.871C67.6863 134.404 68.5658 133.937 69.4544 133.469L69.2215 133.027C70.1112 132.558 71.01 132.09 71.9179 131.62L72.1475 132.064C73.0421 131.602 73.9455 131.139 74.8575 130.676L74.631 130.23C75.5172 129.78 76.4115 129.329 77.3139 128.879L77.5373 129.326C78.4387 128.876 79.3481 128.425 80.2655 127.974L80.0449 127.525C80.9476 127.082 81.858 126.638 82.776 126.194L82.9937 126.644C83.8899 126.211 84.7933 125.777 85.7039 125.343L85.4889 124.892C86.4004 124.458 87.319 124.023 88.2447 123.589L88.4571 124.041C89.3674 123.614 90.2845 123.187 91.2084 122.759L90.9985 122.306C91.9037 121.887 92.8153 121.468 93.7334 121.05L93.9409 121.504C94.8581 121.086 95.7818 120.668 96.7118 120.249L96.5067 119.793C97.4275 119.379 98.3545 118.965 99.2877 118.551L99.4905 119.008C100.401 118.604 101.317 118.2 102.239 117.796L102.039 117.338C102.961 116.934 103.89 116.53 104.824 116.126L105.023 116.585C105.953 116.183 106.89 115.78 107.832 115.378L107.636 114.918C108.552 114.527 109.472 114.137 110.399 113.746L110.593 114.207C111.518 113.817 112.449 113.427 113.385 113.037L113.193 112.575C114.129 112.185 115.071 111.796 116.018 111.406L116.208 111.868C117.133 111.488 118.063 111.108 118.997 110.727L118.809 110.264C119.738 109.887 120.671 109.509 121.609 109.132L121.795 109.596C122.733 109.22 123.675 108.843 124.621 108.467L124.437 108.002C125.375 107.63 126.319 107.257 127.266 106.885L127.449 107.35C128.379 106.985 129.313 106.62 130.251 106.256L130.07 105.79C131.009 105.425 131.952 105.061 132.899 104.697L133.079 105.163C134.025 104.8 134.976 104.436 135.931 104.074L135.754 103.606C136.69 103.251 137.63 102.895 138.575 102.54L138.751 103.009C139.689 102.656 140.632 102.303 141.579 101.951L141.404 101.483C142.352 101.131 143.303 100.779 144.257 100.428L144.43 100.897C145.38 100.548 146.334 100.199 147.291 99.8502L147.12 99.3803C148.06 99.0383 149.003 98.6969 149.95 98.3559L150.12 98.8263C151.066 98.4856 152.016 98.1453 152.969 97.8056L152.801 97.3346C153.755 96.9947 154.712 96.6553 155.673 96.3165L155.839 96.788C156.789 96.4529 157.743 96.1183 158.7 95.7843L158.535 95.3122C159.482 94.9819 160.431 94.6521 161.384 94.3229L161.547 94.7955C162.5 94.4664 163.455 94.138 164.414 93.8101L164.252 93.337C165.212 93.009 166.174 92.6815 167.14 92.3547L167.3 92.8283C168.251 92.5062 169.206 92.1847 170.164 91.8638L170.005 91.3897C170.957 91.0707 171.912 90.7523 172.87 90.4346L173.027 90.9091C173.985 90.5915 174.945 90.2746 175.908 89.9583L175.752 89.4832C176.716 89.1668 177.683 88.851 178.652 88.5359L178.807 89.0114C179.761 88.7012 180.718 88.3918 181.677 88.083L181.524 87.607C182.481 87.2991 183.44 86.9918 184.403 86.6853L184.554 87.1617C185.516 86.8553 186.481 86.5496 187.447 86.2446L187.297 85.7677C188.265 85.4626 189.235 85.1581 190.207 84.8545L190.356 85.3317C191.314 85.0328 192.274 84.7345 193.236 84.437L193.088 83.9593C194.049 83.6623 195.013 83.3659 195.978 83.0704L196.125 83.5485C197.09 83.253 198.058 82.9583 199.028 82.6644L198.883 82.1859C199.854 81.8918 200.826 81.5985 201.802 81.306L201.945 81.7849C202.907 81.4965 203.87 81.209 204.836 80.9222L204.694 80.4428C205.658 80.1565 206.625 79.8708 207.594 79.586L207.735 80.0657C208.704 79.781 209.674 79.4971 210.647 79.2141L210.507 78.734C211.481 78.4508 212.456 78.1684 213.434 77.8868L213.572 78.3673C214.538 78.0891 215.506 77.8118 216.476 77.5353L216.339 77.0544C217.306 76.7785 218.276 76.5035 219.248 76.2293L219.383 76.7105C220.355 76.4364 221.328 76.1631 222.303 75.8907L222.169 75.4092C223.144 75.1367 224.122 74.865 225.101 74.5942L225.235 75.0762C226.205 74.8079 227.177 74.5405 228.152 74.274L228.02 73.7917C228.99 73.5262 229.962 73.2616 230.937 72.9978L231.067 73.4804C232.041 73.2168 233.017 72.954 233.994 72.6922L233.865 72.2092C234.842 71.9473 235.822 71.6862 236.803 71.4261L236.931 71.9094C237.422 71.7794 237.913 71.6496 238.404 71.52C238.895 71.3905 239.386 71.2614 239.877 71.1327L239.75 70.649C240.732 70.3915 241.713 70.1356 242.693 69.8814L242.818 70.3653C243.798 70.1112 244.776 69.8588 245.753 69.608L245.629 69.1237C246.607 68.8728 247.583 68.6236 248.558 68.376L248.681 68.8606C249.66 68.6122 250.638 68.3654 251.614 68.1203L251.493 67.6353C252.478 67.3879 253.463 67.1422 254.446 66.8982L254.567 67.3834C255.549 67.1396 256.531 66.8974 257.511 66.6569L257.392 66.1713C258.372 65.9308 259.352 65.6919 260.329 65.4548L260.447 65.9407C261.427 65.703 262.406 65.4671 263.384 65.2329L263.267 64.7467C264.256 64.5096 265.244 64.2743 266.231 64.0408L266.346 64.5273C267.332 64.2939 268.316 64.0623 269.299 63.8324L269.185 63.3455C270.169 63.1156 271.15 62.8874 272.131 62.6609L272.243 63.1481C273.225 62.9213 274.205 62.6964 275.184 62.4732L275.073 61.9857C276.065 61.7593 277.056 61.5347 278.046 61.312L278.156 61.7998C279.145 61.5771 280.132 61.3563 281.117 61.1374L281.009 60.6493C281.995 60.4302 282.979 60.213 283.962 59.9976L284.069 60.486C285.053 60.2703 286.035 60.0565 287.015 59.8444L286.909 59.3557C287.905 59.1404 288.899 58.9269 289.891 58.7154L289.996 59.2044C290.987 58.9929 291.977 58.7834 292.965 58.5757L292.862 58.0864C293.85 57.8787 294.837 57.6728 295.821 57.4689L295.922 57.9585C296.909 57.754 297.894 57.5515 298.877 57.3508L298.777 56.8609C299.776 56.6571 300.773 56.4552 301.767 56.2553L301.866 56.7455C302.86 56.5458 303.851 56.348 304.841 56.1522L304.744 55.6617C305.734 55.4658 306.722 55.2719 307.707 55.0799L307.803 55.5707C308.794 55.3777 309.783 55.1867 310.77 54.9977L310.676 54.5066C311.677 54.3148 312.676 54.1252 313.672 53.9376L313.765 54.4289C314.76 54.2414 315.754 54.056 316.745 53.8727L316.654 53.381C317.645 53.1976 318.634 53.0162 319.62 52.8369L319.71 53.3289C320.707 53.1476 321.701 52.9685 322.693 52.7915L322.605 52.2993C323.608 52.1203 324.608 51.9436 325.606 51.769L325.692 52.2615C326.689 52.087 327.683 51.9147 328.674 51.7446L328.59 51.2518C329.581 51.0816 330.57 50.9135 331.557 50.7477L331.64 51.2408C332.644 51.0718 333.646 50.905 334.645 50.7406L334.564 50.2472C335.568 50.0819 336.569 49.919 337.566 49.7583L337.646 50.2519C338.643 50.0914 339.637 49.9331 340.627 49.7771L340.55 49.2832C341.546 49.1263 342.539 48.9718 343.529 48.8195L343.605 49.3137C344.615 49.1584 345.621 49.0056 346.624 48.8551L346.55 48.3607C347.554 48.2101 348.554 48.062 349.55 47.9164L349.623 48.4111C350.619 48.2655 351.611 48.1224 352.6 47.9816L352.53 47.4866C353.538 47.3431 354.542 47.2022 355.543 47.0638L355.611 47.5591C356.62 47.4195 357.625 47.2825 358.627 47.1481L358.56 46.6525C359.562 46.518 360.56 46.386 361.554 46.2567L361.618 46.7525C362.619 46.6223 363.616 46.4947 364.608 46.3697L364.545 45.8736C365.561 45.7456 366.573 45.6205 367.58 45.498L367.64 45.9944C368.646 45.872 369.648 45.7524 370.646 45.6355L370.588 45.1389C371.586 45.0219 372.58 44.9077 373.569 44.7962L373.625 45.2931C374.643 45.1784 375.656 45.0666 376.664 44.9578L376.611 44.4607C377.623 44.3514 378.63 44.2451 379.632 44.1417L379.683 44.639C380.684 44.5357 381.681 44.4354 382.672 44.3379L382.623 43.8403C383.639 43.7405 384.65 43.6437 385.655 43.55L385.702 44.0478C386.717 43.9532 387.727 43.8617 388.731 43.7734L388.687 43.2753C389.692 43.1869 390.692 43.1017 391.686 43.0196L391.727 43.5179C392.742 43.4341 393.75 43.3537 394.753 43.2765L394.714 42.778C395.734 42.6995 396.747 42.6244 397.754 42.5528L397.79 43.0515C398.796 42.9799 399.796 42.9117 400.789 42.847L400.757 42.348C401.774 42.2817 402.785 42.2189 403.789 42.1598L403.818 42.6589C404.839 42.5988 405.852 42.5423 406.858 42.4896L406.832 41.9903C407.84 41.9375 408.84 41.8885 409.833 41.8431L409.855 42.3426C410.877 42.2959 411.891 42.2532 412.898 42.2144L412.879 41.7148C413.9 41.6755 414.913 41.6402 415.918 41.609L415.933 42.1087C416.937 42.0776 417.933 42.0504 418.92 42.0274L418.908 41.5275C419.941 41.5034 420.964 41.4838 421.978 41.4686L421.986 41.9685C423.002 41.9533 424.009 41.9425 425.007 41.9362L425.004 41.4362C426.018 41.4298 427.022 41.4281 428.017 41.4309L428.016 41.9309C429.045 41.9339 430.064 41.9418 431.072 41.9547L431.078 41.4547C432.088 41.4676 433.087 41.4855 434.075 41.5084L434.063 42.0083C435.093 42.0321 436.111 42.0614 437.117 42.0961L437.135 41.5964C438.154 41.6316 439.161 41.6723 440.156 41.7187L440.133 42.2181C441.151 42.2655 442.156 42.3188 443.147 42.3779L443.177 41.8788C444.205 41.9402 445.219 42.0078 446.219 42.0818L446.182 42.5804C447.191 42.6551 448.185 42.7362 449.164 42.8237L449.208 42.3257C450.243 42.4182 451.26 42.518 452.261 42.6249L452.208 43.1221C453.212 43.2294 454.198 43.344 455.167 43.4658L455.229 42.9697C456.265 43.1001 457.281 43.2387 458.276 43.3857L458.203 43.8803C459.206 44.0283 460.188 44.1848 461.148 44.3497L461.233 43.857C462.262 44.0338 463.268 44.2204 464.248 44.4167L464.15 44.907C465.154 45.108 466.132 45.3192 467.082 45.5405L467.196 45.0536C468.205 45.2887 469.186 45.5354 470.135 45.7936L470.004 46.2761C471.007 46.5488 471.976 46.8343 472.909 47.1325L473.061 46.6563C474.043 46.9704 474.988 47.2988 475.893 47.6414L475.716 48.1091C476.689 48.4772 477.615 48.8616 478.494 49.2621L478.701 48.8072C479.664 49.2457 480.571 49.704 481.422 50.1822L481.178 50.6181C482.083 51.1263 482.921 51.656 483.692 52.207L483.983 51.8002C484.84 52.4131 485.619 53.0535 486.315 53.7214L485.969 54.0823C486.706 54.7892 487.347 55.5249 487.889 56.2891L488.297 55.9996Z" stroke="url(#paint0_linear_9613_32848)" stroke-dasharray="3 3"/>
<path opacity="0.5" d="M472.006 64.8811C472.659 67.3595 471.992 70.2603 469.839 73.6026C467.688 76.9425 464.123 80.6057 459.224 84.5211C449.433 92.347 434.504 101.031 415.52 110.033C377.568 128.029 323.595 147.208 262.604 163.29C201.613 179.373 145.201 189.3 103.309 192.357C82.3553 193.886 65.0854 193.693 52.7082 191.712C46.5158 190.721 41.6081 189.292 38.0893 187.448C34.5681 185.602 32.5577 183.407 31.9041 180.928C31.2506 178.45 31.9175 175.549 34.0706 172.207C36.2223 168.867 39.7872 165.204 44.6859 161.288C54.4773 153.462 69.4063 144.778 88.39 135.777C126.342 117.781 180.314 98.6013 241.306 82.5189C302.297 66.4366 358.709 56.5094 400.601 53.4521C421.555 51.9228 438.825 52.1166 451.202 54.097C457.394 55.0879 462.302 56.517 465.821 58.3618C469.342 60.2078 471.352 62.4026 472.006 64.8811Z" stroke="url(#paint1_linear_9613_32848)" stroke-width="2"/>
<circle cx="394.114" cy="38.3722" r="38.3722" fill="url(#paint2_radial_9613_32848)"/>
<path fill-rule="evenodd" clip-rule="evenodd" d="M379.3 22.8892H389.056V31.6449C389.056 32.1972 389.503 32.6449 390.056 32.6449H396.998C397.551 32.6449 397.998 32.1972 397.998 31.6449V22.8892H408.567V53.7825H397.185V46.8556C398.188 45.9622 398.819 44.6612 398.819 43.2127C398.819 40.5187 396.635 38.3348 393.941 38.3348C391.247 38.3348 389.063 40.5187 389.063 43.2127C389.063 44.6535 389.688 45.9485 390.682 46.8414V53.7825H379.3V22.8892Z" fill="#E9FB46"/>
<circle cx="162.742" cy="100" r="37" fill="url(#paint3_radial_9613_32848)"/>
<path d="M163.275 117.606C153.603 117.606 145.762 109.764 145.762 100.092C145.762 90.4193 153.603 82.5781 163.275 82.5781C172.948 82.5781 180.789 90.4193 180.789 100.092C180.789 109.764 172.948 117.606 163.275 117.606Z" fill="#191919"/>
<path d="M163.277 115.729C154.641 115.729 147.64 108.728 147.64 100.092C147.64 91.4556 154.641 84.4546 163.277 84.4546C171.913 84.4546 178.914 91.4556 178.914 100.092C178.914 108.728 171.913 115.729 163.277 115.729Z" fill="#F0F0F0"/>
<path d="M163.278 111.35C157.06 111.35 152.019 106.309 152.019 100.091C152.019 93.873 157.06 88.8323 163.278 88.8323C169.496 88.8323 174.537 93.873 174.537 100.091C174.537 106.309 169.496 111.35 163.278 111.35Z" fill="#191919"/>
<circle cx="129.984" cy="189.242" r="59.2419" fill="url(#paint4_radial_9613_32848)"/>
<path fill-rule="evenodd" clip-rule="evenodd" d="M150.44 179.785L121.738 208.728C120.06 208.107 118.476 207.291 117.015 206.307L147.98 175.082C148.976 176.536 149.805 178.113 150.44 179.785ZM131.619 210.012C142.355 209.005 150.887 200.416 151.806 189.655L131.619 210.012ZM111.326 200.796L142.422 169.44C138.772 166.856 134.314 165.337 129.502 165.337C117.138 165.337 107.115 175.36 107.115 187.724C107.115 192.603 108.676 197.118 111.326 200.796ZM113.116 191.39L133.344 171.084C132.148 170.816 130.904 170.675 129.627 170.675C120.274 170.675 112.692 178.257 112.692 187.61C112.692 188.909 112.838 190.174 113.116 191.39Z" fill="#C3FF61"/>
<circle cx="329.242" cy="138.5" r="80.5" fill="url(#paint5_radial_9613_32848)"/>
<g filter="url(#filter0_d_9613_32848)">
<path fill-rule="evenodd" clip-rule="evenodd" d="M364.879 108.185L361.096 163.815L361.011 163.898C360.838 165.217 360.361 166.304 359.556 167.109C355.912 170.752 346.513 167.676 335.802 160.116L338.478 157.439C341.193 159.325 343.792 160.889 346.19 162.094C349.425 163.722 352.102 164.599 354.089 164.842C356.132 165.092 356.779 164.615 356.92 164.473C357.062 164.332 357.538 163.686 357.289 161.642C357.046 159.656 356.168 156.979 354.541 153.744C351.492 147.681 346.155 140.333 339.121 133.078L306.786 165.412L307.405 159.522L336.485 130.442C329.23 123.408 321.883 118.07 315.82 115.022C312.584 113.395 309.908 112.518 307.921 112.275C305.878 112.025 305.231 112.502 305.09 112.643C304.948 112.784 304.472 113.431 304.721 115.474C304.965 117.462 305.842 120.138 307.469 123.373C308.674 125.771 310.239 128.37 312.124 131.085L309.448 133.761C301.887 123.05 298.811 113.651 302.454 110.008C303.26 109.202 304.348 108.725 305.669 108.552C305.695 108.524 305.721 108.497 305.749 108.47L361.381 104.687L365.134 104.432L364.879 108.185ZM341.092 109.803L358.294 108.633L350.19 116.738C346.919 113.626 343.726 111.376 341.092 109.803M333.842 110.295L316.989 111.442C323.585 114.665 331.455 120.369 339.121 127.807L347.554 119.374C344.022 116.024 340.599 113.751 337.984 112.291C336.855 111.657 335.695 111.081 334.506 110.568C334.246 110.458 334.025 110.366 333.842 110.295ZM350.167 122.032L341.757 130.442C349.197 138.109 354.902 145.982 358.125 152.58L359.307 135.187C359.227 135.015 359.128 134.807 359.008 134.565C358.434 133.416 357.81 132.293 357.137 131.199C355.627 128.73 353.359 125.487 350.167 122.031M352.805 119.394C355.888 122.719 358.165 125.869 359.769 128.4L360.934 111.265L352.805 119.394ZM322.404 129.59L309.95 142.044L309.331 147.934L325.954 131.311L322.404 129.59ZM338.253 143.61L321.651 160.212L327.541 159.593L340.216 146.917L338.253 143.61Z" fill="url(#paint6_linear_9613_32848)"/>
</g>
<defs>
<filter id="filter0_d_9613_32848" x="299.612" y="103.12" width="66.834" height="66.8313" filterUnits="userSpaceOnUse" color-interpolation-filters="sRGB">
<feFlood flood-opacity="0" result="BackgroundImageFix"/>
<feColorMatrix in="SourceAlpha" type="matrix" values="0 0 0 0 0 0 0 0 0 0 0 0 0 0 0 0 0 0 127 0" result="hardAlpha"/>
<feOffset/>
<feGaussianBlur stdDeviation="0.65625"/>
<feComposite in2="hardAlpha" operator="out"/>
<feColorMatrix type="matrix" values="0 0 0 0 1 0 0 0 0 0.426332 0 0 0 0 0.388542 0 0 0 0.8 0"/>
<feBlend mode="normal" in2="BackgroundImageFix" result="effect1_dropShadow_9613_32848"/>
<feBlend mode="normal" in="SourceGraphic" in2="effect1_dropShadow_9613_32848" result="shape"/>
</filter>
<linearGradient id="paint0_linear_9613_32848" x1="304.301" y1="160.282" x2="287.332" y2="57.3577" gradientUnits="userSpaceOnUse">
<stop stop-color="#979ABE"/>
<stop offset="1" stop-color="#464758"/>
</linearGradient>
<linearGradient id="paint1_linear_9613_32848" x1="298.867" y1="151.338" x2="284.239" y2="69.3718" gradientUnits="userSpaceOnUse">
<stop stop-color="#979ABE"/>
<stop offset="1" stop-color="#464758"/>
</linearGradient>
<radialGradient id="paint2_radial_9613_32848" cx="0" cy="0" r="1" gradientUnits="userSpaceOnUse" gradientTransform="translate(394.114) rotate(90) scale(76.7443)">
<stop stop-color="#E9FB46"/>
<stop offset="0.75"/>
</radialGradient>
<radialGradient id="paint3_radial_9613_32848" cx="0" cy="0" r="1" gradientUnits="userSpaceOnUse" gradientTransform="translate(130.134 87.4837) rotate(24.7366) scale(56.9366)">
<stop stop-color="#9399CA"/>
<stop offset="1"/>
</radialGradient>
<radialGradient id="paint4_radial_9613_32848" cx="0" cy="0" r="1" gradientUnits="userSpaceOnUse" gradientTransform="translate(129.984 130) rotate(90) scale(118.484)">
<stop stop-color="#C3FF61"/>
<stop offset="0.75"/>
</radialGradient>
<radialGradient id="paint5_radial_9613_32848" cx="0" cy="0" r="1" gradientUnits="userSpaceOnUse" gradientTransform="translate(329.242 58) rotate(90) scale(161)">
<stop stop-color="#FF685E"/>
<stop offset="0.75"/>
</radialGradient>
<linearGradient id="paint6_linear_9613_32848" x1="300.925" y1="104.432" x2="365.131" y2="168.641" gradientUnits="userSpaceOnUse">
<stop stop-color="#FFB0AB"/>
<stop offset="0.464" stop-color="#FF6D63"/>
<stop offset="1" stop-color="#FF4337"/>
</linearGradient>
</defs>
</svg>
