<svg width="246" height="246" viewBox="0 0 246 246" fill="none" xmlns="http://www.w3.org/2000/svg">
<g filter="url(#filter0_d_9613_32919)">
<circle cx="123.001" cy="123.002" r="100.428" transform="rotate(15 123.001 123.002)" fill="black"/>
<circle cx="123.001" cy="123.002" r="99.9285" transform="rotate(15 123.001 123.002)" stroke="#1DDAD9"/>
</g>
<path fill-rule="evenodd" clip-rule="evenodd" d="M148.734 136.027C149.274 134.143 149.802 132.24 150.317 130.319C152.389 122.586 154.131 114.998 155.549 107.664C147.186 106.183 138.546 104.285 129.758 101.961L122.287 129.845C131.24 132.222 140.079 134.281 148.734 136.027ZM148.267 137.641C139.619 135.893 130.792 133.835 121.853 131.462L114.382 159.345C122.605 161.533 130.754 163.51 138.796 165.279C142.197 156.745 145.397 147.464 148.267 137.641ZM120.236 131.03L112.765 158.913C104.386 156.659 96.1832 154.254 88.1848 151.718C89.5056 142.627 91.3748 132.99 93.8012 123.047C102.311 125.907 111.143 128.581 120.236 131.03ZM112.332 160.53C104.023 158.294 95.8845 155.911 87.946 153.398C86.2669 165.489 85.5713 176.571 85.8376 186.065C85.8433 186.266 85.8493 186.466 85.8558 186.665C91.8002 188.452 97.834 190.17 103.949 191.815L112.332 160.53ZM103.516 193.432C97.5736 191.834 91.7077 190.166 85.9256 188.433C86.3125 196.759 87.4787 203.668 89.3613 208.788C91.3153 214.102 93.9063 217.154 96.8757 218.213L103.516 193.432ZM84.1657 186.154C83.8911 176.473 84.6062 165.183 86.3278 152.883C79.0296 150.549 71.9029 148.107 64.9698 145.57C64.4036 158.499 65.5209 170.531 68.1356 180.976C68.1424 181.003 68.1491 181.03 68.1559 181.057C73.4131 182.81 78.7517 184.51 84.1657 186.154ZM68.6636 182.989C73.7774 184.684 78.9674 186.33 84.2276 187.922C84.7679 200.849 87.1462 210.715 91.3201 216.003C80.8498 210.547 73.0144 198.853 68.6636 182.989ZM66.278 180.427C63.7537 169.893 62.713 157.851 63.3219 144.964C56.6205 142.487 50.1033 139.922 43.7908 137.284C44.0832 150.933 46.7725 163.838 51.4972 175.231C56.3453 177.008 61.2741 178.741 66.278 180.427ZM52.4044 177.344C57.1169 179.057 61.9041 180.728 66.761 182.355C70.2142 195.558 76.0663 206.238 83.9721 213.018C70.1911 205.543 59.3421 192.959 52.4044 177.344ZM49.3762 174.449C44.8489 162.994 42.3214 150.123 42.1133 136.579C35.9997 133.997 30.082 131.346 24.3789 128.639C25.1957 142.969 29.1422 156.779 35.706 169.18C40.1844 170.973 44.7428 172.731 49.3762 174.449ZM36.9642 171.483C41.3159 173.207 45.7413 174.898 50.236 176.551C55.9684 190.098 64.5574 201.537 75.4491 209.581C59.049 200.591 45.8536 187.256 36.9642 171.483ZM33.943 169.423L33.6471 170.156C33.9365 170.273 34.2262 170.39 34.5163 170.506C47.082 193.901 68.8415 212.289 96.4361 219.853L96.4357 219.855L96.7057 219.927L96.8243 219.959L97.0065 220.008L97.1753 220.053L97.3076 220.088L98.0525 220.288L98.0539 220.283C125.579 227.347 153.426 222.28 175.876 208.383C176.184 208.427 176.493 208.471 176.801 208.514L176.91 207.734C197.386 194.714 213.231 174.28 220.006 148.994C227.212 122.101 222.789 94.8312 209.82 72.5237L209.862 72.4753L209.721 72.3534C204.297 63.0656 197.389 54.6423 189.222 47.4702C189.204 47.3751 189.184 47.2799 189.161 47.1846L188.952 47.2345C177.888 37.5888 164.53 30.2313 149.43 26.1135C149.308 26.0789 149.186 26.0451 149.063 26.012L148.995 25.9933L148.928 25.9758C148.803 25.9425 148.678 25.91 148.552 25.8783C133.408 21.8925 118.155 21.5876 103.744 24.4133L103.597 24.2753C103.534 24.3418 103.474 24.4095 103.415 24.4783C92.763 26.6041 82.576 30.4412 73.2401 35.7669L73.0207 35.8087L73.0353 35.884C50.6567 48.7192 33.1975 70.1209 25.9929 97.0088C19.218 122.293 22.7218 147.91 33.943 169.423ZM175.509 206.64C187.394 199.181 197.717 189.195 205.59 177.192C199.295 176.684 192.842 176.021 186.254 175.201C179.302 186.826 170.677 196.709 161.028 204.367C165.902 205.196 170.731 205.953 175.509 206.64ZM158.8 203.983C168.589 196.479 177.371 186.647 184.449 174.972C177.665 174.101 170.74 173.064 163.7 171.859C157.784 183.324 150.861 193.233 143.407 201.094C148.582 202.135 153.715 203.098 158.8 203.983ZM142.025 202.522C147.043 203.541 152.023 204.487 156.958 205.36C143.146 215.411 127.463 220.884 111.794 220.47C122.029 218.55 132.435 212.227 142.025 202.522ZM141.466 200.7C141.486 200.68 141.505 200.66 141.524 200.64C149.011 192.902 155.995 183.04 161.969 171.56C154.699 170.291 147.307 168.843 139.821 167.216C135.162 178.729 130.136 188.864 125.058 197.111C130.567 198.394 136.039 199.59 141.466 200.7ZM124.121 198.611C129.47 199.862 134.786 201.031 140.06 202.12C128.363 213.68 115.734 219.889 103.941 219.383C110.198 216.889 117.19 209.534 124.121 198.611ZM122.395 198.205C117.896 205.222 113.432 210.622 109.242 214.115C105.117 217.553 101.513 218.942 98.5068 218.592L105.133 193.864C110.919 195.404 116.676 196.851 122.395 198.205ZM123.339 196.708C117.453 195.32 111.525 193.834 105.566 192.247L113.949 160.962C122.103 163.131 130.185 165.094 138.162 166.853C133.571 178.163 128.632 188.109 123.655 196.198C123.549 196.369 123.444 196.539 123.339 196.708ZM159.233 205.757C163.954 206.573 168.634 207.322 173.268 208.005C157.678 217.223 139.576 222.174 120.871 221.756C134.33 220.237 147.492 214.625 159.233 205.757ZM92.2096 122.509C89.7799 132.446 87.9017 142.091 86.5684 151.203C79.2142 148.847 72.0359 146.38 65.0565 143.819C65.5841 134.261 67.025 124.237 69.453 114.019C76.7236 116.985 84.3255 119.826 92.2096 122.509ZM67.8857 113.375C65.4433 123.588 63.9754 133.624 63.4144 143.213C56.6688 140.712 50.1123 138.122 43.7661 135.459C43.7082 125.351 44.9612 114.856 47.6698 104.283C54.0566 107.411 60.8105 110.452 67.8857 113.375ZM46.1362 103.527C43.4009 114.087 42.0996 124.6 42.0994 134.756C35.9551 132.149 30.0119 129.474 24.2893 126.742C23.9271 117.103 24.9824 107.247 27.6097 97.442C27.9162 96.298 28.2416 95.1641 28.5855 94.0405C34.0477 97.2649 39.9125 100.437 46.1362 103.527ZM164.495 170.297C171.586 171.503 178.557 172.538 185.383 173.404C190.487 164.679 194.649 154.964 197.589 144.454C190.496 143.97 183.128 143.226 175.541 142.221C172.55 152.286 168.804 161.711 164.495 170.297ZM187.178 173.628C193.805 174.444 200.292 175.098 206.616 175.594C211.748 167.428 215.762 158.365 218.389 148.561C218.696 147.416 218.981 146.271 219.245 145.125C212.901 145.187 206.233 145.001 199.296 144.566C196.385 155.078 192.255 164.833 187.178 173.628ZM140.453 165.641C147.998 167.277 155.447 168.729 162.77 170C167.092 161.459 170.856 152.057 173.862 141.994C166.084 140.928 158.082 139.588 149.915 137.97C147.05 147.791 143.855 157.082 140.453 165.641ZM120.67 129.413L128.141 101.529C119.199 99.116 110.609 96.3966 102.483 93.4462C100.044 100.506 97.7589 107.948 95.6871 115.681C95.1722 117.602 94.6777 119.515 94.2034 121.417C102.719 124.281 111.561 126.96 120.67 129.413ZM92.6127 120.878C93.0792 119.011 93.565 117.133 94.0703 115.248C96.1542 107.47 98.4537 99.9801 100.911 92.8704C93.3216 90.0659 86.1503 87.0613 79.492 83.9192C76.0658 91.7229 73.0999 100.124 70.7236 108.992C70.421 110.121 70.1305 111.249 69.852 112.374C77.1192 115.344 84.7226 118.19 92.6127 120.878ZM68.2872 111.73C61.2184 108.804 54.4754 105.761 48.1045 102.632C50.9613 92.0659 55.0493 82.2889 60.0894 73.4953C65.484 76.8189 71.4781 80.0738 77.9802 83.1992C74.5088 91.0992 71.5082 99.5966 69.1068 108.559C68.8231 109.617 68.55 110.675 68.2872 111.73ZM46.5755 101.876C49.4663 91.2916 53.5909 81.4695 58.6756 72.614C53.4426 69.3135 48.8045 65.9508 44.8497 62.5848C38.0805 71.3332 32.693 81.3521 29.1025 92.4017C34.5344 95.6201 40.3734 98.7882 46.5755 101.876ZM174.339 140.37C166.562 139.309 158.556 137.973 150.381 136.356C150.911 134.506 151.429 132.637 151.934 130.752C154.018 122.975 155.771 115.338 157.198 107.952C165.171 109.317 172.882 110.3 180.218 110.908C179.283 119.38 177.651 128.138 175.275 137.007C174.972 138.135 174.66 139.257 174.339 140.37ZM198.039 142.807C190.959 142.331 183.599 141.595 176.016 140.595C176.316 139.55 176.608 138.498 176.892 137.44C179.293 128.477 180.943 119.618 181.887 111.041C189.079 111.585 195.895 111.763 202.228 111.582C202.196 121.717 200.847 132.228 198.039 142.807ZM219.617 143.447C213.301 143.519 206.658 143.343 199.741 142.916C202.529 132.305 203.868 121.737 203.893 111.526C210.077 111.284 215.778 110.691 220.887 109.753C222.375 120.713 222.032 132.083 219.617 143.447ZM157.511 106.307C165.445 107.665 173.11 108.641 180.393 109.243C181.395 99.2265 181.417 89.6308 180.54 80.7517C174.633 80.8091 168.122 80.3968 161.209 79.5013C160.512 87.8541 159.281 96.8671 157.511 106.307ZM182.062 109.375C189.199 109.914 195.955 110.089 202.221 109.908C202.099 98.9849 200.445 88.5214 197.442 78.9071C193.126 79.9636 188.019 80.569 182.324 80.7196L182.219 80.7223C183.093 89.6714 183.065 99.3198 182.062 109.375ZM203.885 109.851C209.997 109.61 215.62 109.022 220.648 108.095C218.782 95.9191 214.654 84.2786 208.596 73.7495C206.328 75.7472 203.138 77.2945 199.265 78.4203L199.193 78.4414L199.056 78.4804C202.089 88.2307 203.756 98.8209 203.885 109.851ZM130.191 100.344C138.947 102.66 147.547 104.548 155.862 106.02C157.631 96.5899 158.857 87.5973 159.548 79.2779C152.383 78.2789 144.811 76.7689 137.054 74.7334L130.191 100.344ZM135.436 74.3022L128.574 99.9122C119.664 97.5077 111.114 94.7999 103.034 91.8656C106.217 82.8151 109.652 74.415 113.212 66.8649C120.053 69.6366 127.526 72.1591 135.436 74.3022ZM111.662 66.2281C108.09 73.81 104.649 82.2301 101.463 91.2897C93.9103 88.4982 86.7827 85.5101 80.1729 82.3897C84.3131 73.2154 89.0906 64.8951 94.2887 57.6448C99.3778 60.6484 105.225 63.5472 111.662 66.2281ZM92.8492 56.78C87.6186 64.0923 82.8196 72.461 78.6615 81.6695C72.2093 78.5664 66.2696 75.3389 60.9323 72.0487C66.4985 62.6519 73.1613 54.4188 80.5671 47.5949C83.7758 50.6659 87.8939 53.7417 92.7473 56.7176L92.8492 56.78ZM79.3823 46.4184C71.8829 53.3454 65.1458 61.6818 59.5197 71.1676C54.3493 67.9039 49.7758 64.5844 45.886 61.2688C53.5864 51.6603 62.9777 43.6456 73.4844 37.5572C74.451 40.4174 76.4382 43.3482 79.2254 46.2556C79.2774 46.3099 79.3297 46.3642 79.3823 46.4184ZM137.487 73.1166C145.149 75.1267 152.619 76.6176 159.68 77.6064C160.158 71.2715 160.318 65.345 160.166 59.9345C160.111 57.9589 160.014 56.0565 159.876 54.2317C154.738 53.5116 149.182 52.4029 143.438 50.9051L137.487 73.1166ZM180.363 79.0794C174.559 79.1273 168.152 78.7163 161.342 77.8308C161.995 69.2171 162.069 61.3379 161.571 54.4572C165.984 55.0119 170.058 55.2691 173.638 55.2289C174.026 55.2246 174.408 55.2167 174.786 55.2054C175.967 58.2777 176.995 61.5569 177.863 65.0228C178.969 69.4415 179.807 74.1445 180.363 79.0794ZM196.928 77.3096C192.784 78.3125 187.842 78.8993 182.28 79.0463L182.045 79.0523C181.068 70.2781 179.21 62.2075 176.544 55.1242C179.478 54.9391 182.013 54.516 184.027 53.8422C184.34 53.7373 184.644 53.6251 184.938 53.5054C189.977 60.4959 194.021 68.5325 196.928 77.3096ZM207.73 72.2754C205.715 74.1455 202.702 75.678 198.798 76.813C198.714 76.8373 198.63 76.8615 198.546 76.8854C195.621 68.0081 191.551 59.859 186.469 52.7488C187.792 51.9544 188.744 50.9292 189.127 49.6272C196.452 56.2396 202.711 63.889 207.73 72.2754ZM74.9704 36.713C75.7823 39.3369 77.6241 42.1666 80.4336 45.0973C80.4959 45.1623 80.5587 45.2273 80.6219 45.2924C87.5957 39.0638 95.1982 34.0397 103.158 30.4225C102.41 29.0739 102.1 27.7115 102.419 26.3938C92.764 28.4588 83.5143 31.9563 74.9704 36.713ZM93.8353 55.4209C93.7641 55.3775 93.6931 55.3341 93.6222 55.2906C88.8821 52.3842 84.8974 49.4069 81.811 46.4683C88.719 40.3179 96.2429 35.3787 104.105 31.8435C104.3 32.095 104.508 32.3454 104.728 32.5941C106.135 34.1842 108.118 35.818 110.566 37.445C104.714 42.2469 99.0694 48.309 93.8353 55.4209ZM112.382 64.7147C106.039 62.0767 100.283 59.229 95.2779 56.2848C98.2277 52.2878 101.306 48.6329 104.474 45.3583C106.959 42.7904 109.489 40.4648 112.048 38.3946C112.37 38.5932 112.698 38.7916 113.032 38.9896C116.113 40.8149 119.771 42.6295 123.871 44.356C120 50.0667 116.124 56.9279 112.382 64.7147ZM113.933 65.351C116.688 59.6254 119.512 54.4119 122.349 49.8014C123.385 48.1184 124.42 46.5195 125.452 45.0082C130.393 47.0067 135.922 48.8704 141.821 50.4744L135.87 72.6854C128.054 70.5678 120.679 68.0796 113.933 65.351ZM173.619 53.5552C173.789 53.5533 173.958 53.5507 174.125 53.5474C169.563 42.494 162.945 34.3064 154.686 30C158.265 34.5358 160.524 42.4393 161.435 52.7525C165.913 53.329 170.029 53.5955 173.619 53.5552ZM183.496 52.2549C183.637 52.2076 183.775 52.1592 183.908 52.11C177.881 44.1292 170.517 37.5968 162.044 32.9961C167.798 37.9362 172.462 44.9429 175.905 53.4844C178.977 53.3241 181.544 52.9082 183.496 52.2549ZM187.539 49.0907C187.606 48.8414 187.637 48.5798 187.631 48.3045C182.426 43.7942 176.709 39.7975 170.538 36.4158C176.155 40.5638 181.16 45.6146 185.477 51.3917C186.655 50.7155 187.314 49.9291 187.539 49.0907ZM104.062 26.7232C104.129 26.4738 104.233 26.2315 104.375 25.9961C111.132 24.6937 118.076 24.091 125.104 24.2464C118.171 25.0306 111.317 26.9011 104.695 29.7433C104.015 28.5701 103.838 27.5607 104.062 26.7232ZM105.982 31.4851C107.345 33.0266 109.36 34.6699 111.939 36.3444C119.193 30.6674 126.738 26.9314 134.193 25.5306C124.552 25.2767 114.906 27.2515 105.694 31.1499C105.786 31.2605 105.882 31.3722 105.982 31.4851ZM113.885 37.5495C116.975 39.3798 120.674 41.2079 124.842 42.948C130.788 34.4704 136.697 28.7543 142.065 26.6163C132.758 26.2141 122.929 29.9955 113.449 37.2891C113.593 37.3758 113.738 37.4626 113.885 37.5495ZM126.431 43.5982C131.21 45.5137 136.55 47.3064 142.254 48.8576L147.982 27.4798C144.882 26.912 141.112 28.2597 136.762 31.8848C133.45 34.6454 129.967 38.5977 126.431 43.5982ZM149.585 27.9667L143.872 49.2883C149.42 50.7346 154.777 51.8106 159.733 52.5209C159.171 46.4227 158.131 41.2583 156.643 37.2118C154.79 32.1719 152.363 29.1665 149.585 27.9667Z" fill="url(#paint0_linear_9613_32919)"/>
<path d="M141.135 123.422C148.474 119.327 155.001 115.596 155.001 115.596L121.957 97.27V133.436C123.133 133.031 126.093 131.571 129.782 129.666L141.216 136.275V123.422H141.135Z" fill="url(#paint1_linear_9613_32919)"/>
<path d="M121.912 97.27L88.8271 114.258C88.8271 114.258 117.736 130.76 121.912 132.139V97.27Z" fill="url(#paint2_linear_9613_32919)"/>
<path d="M141.134 136.234L121.835 125.125L96.5752 139.721L121.875 154.358L147.216 139.721V132.666L141.134 136.234Z" fill="url(#paint3_linear_9613_32919)"/>
<path d="M111.489 113.771V140.045L121.909 146.045V119.812L111.489 113.771Z" fill="url(#paint4_linear_9613_32919)"/>
<path d="M121.957 119.812V146.045L132.377 140.045V113.771L121.957 119.812Z" fill="url(#paint5_linear_9613_32919)"/>
<path d="M106.144 125.936L96.5752 131.45V139.721L112.185 130.72L106.144 125.936Z" fill="url(#paint6_linear_9613_32919)"/>
<path d="M106.626 125.651L96.5709 131.449L86.4346 125.611L96.4898 119.813L106.626 125.651Z" fill="url(#paint7_linear_9613_32919)"/>
<path d="M86.1924 105.825V117.746L121.913 138.343V126.422L86.1924 105.825Z" fill="url(#paint8_linear_9613_32919)"/>
<path d="M96.6125 131.45L86.1924 125.369V145.641L121.913 166.238V154.318L96.6531 139.722L96.6125 131.45Z" fill="url(#paint9_linear_9613_32919)"/>
<path d="M121.913 85.228L86.1924 105.825L96.6125 111.826L121.872 97.2294L141.131 108.298L151.551 102.298L121.913 85.228Z" fill="url(#paint10_linear_9613_32919)"/>
<path d="M111.489 113.772L121.909 119.772L132.248 113.812L121.828 107.812L111.489 113.772Z" fill="url(#paint11_linear_9613_32919)"/>
<path d="M141.128 108.338V136.233L151.548 130.232V102.337L141.128 108.338Z" fill="url(#paint12_linear_9613_32919)"/>
<path d="M121.833 126.422V138.343L147.093 123.746V139.802L121.833 154.399V166.319L157.553 145.722V105.825L121.833 126.422Z" fill="url(#paint13_linear_9613_32919)"/>
<defs>
<filter id="filter0_d_9613_32919" x="2.54785" y="2.54834" width="240.906" height="240.907" filterUnits="userSpaceOnUse" color-interpolation-filters="sRGB">
<feFlood flood-opacity="0" result="BackgroundImageFix"/>
<feColorMatrix in="SourceAlpha" type="matrix" values="0 0 0 0 0 0 0 0 0 0 0 0 0 0 0 0 0 0 127 0" result="hardAlpha"/>
<feOffset/>
<feGaussianBlur stdDeviation="10"/>
<feComposite in2="hardAlpha" operator="out"/>
<feColorMatrix type="matrix" values="0 0 0 0 0.105882 0 0 0 0 0.819608 0 0 0 0 0.831373 0 0 0 0.5 0"/>
<feBlend mode="normal" in2="BackgroundImageFix" result="effect1_dropShadow_9613_32919"/>
<feBlend mode="normal" in="SourceGraphic" in2="effect1_dropShadow_9613_32919" result="shape"/>
</filter>
<linearGradient id="paint0_linear_9613_32919" x1="148.993" y1="25.9928" x2="97.0065" y2="220.008" gradientUnits="userSpaceOnUse">
<stop stop-color="#1DDAD9"/>
<stop offset="1"/>
</linearGradient>
<linearGradient id="paint1_linear_9613_32919" x1="139.034" y1="74.648" x2="137.931" y2="137.855" gradientUnits="userSpaceOnUse">
<stop stop-color="#0098A6"/>
<stop offset="1" stop-color="#002D4D"/>
</linearGradient>
<linearGradient id="paint2_linear_9613_32919" x1="105.37" y1="155.082" x2="105.37" y2="77.6984" gradientUnits="userSpaceOnUse">
<stop stop-color="#0098A6"/>
<stop offset="1" stop-color="#002D4D"/>
</linearGradient>
<linearGradient id="paint3_linear_9613_32919" x1="95.0608" y1="85.1339" x2="133.474" y2="158.224" gradientUnits="userSpaceOnUse">
<stop offset="0.27" stop-color="#0098A6"/>
<stop offset="1" stop-color="#002D4D"/>
</linearGradient>
<linearGradient id="paint4_linear_9613_32919" x1="121.47" y1="104.317" x2="113.04" y2="149.538" gradientUnits="userSpaceOnUse">
<stop stop-color="#0098A6"/>
<stop offset="1" stop-color="#002D4D"/>
</linearGradient>
<linearGradient id="paint5_linear_9613_32919" x1="127.167" y1="85.2094" x2="127.167" y2="146.151" gradientUnits="userSpaceOnUse">
<stop stop-color="#0098A6"/>
<stop offset="1" stop-color="#002D4D"/>
</linearGradient>
<linearGradient id="paint6_linear_9613_32919" x1="130.538" y1="112.463" x2="89.8954" y2="141.397" gradientUnits="userSpaceOnUse">
<stop offset="0.27" stop-color="#0098A6"/>
<stop offset="1" stop-color="#002D4D"/>
</linearGradient>
<linearGradient id="paint7_linear_9613_32919" x1="81.6614" y1="98.6381" x2="125.709" y2="178.602" gradientUnits="userSpaceOnUse">
<stop offset="0.27" stop-color="#0098A6"/>
<stop offset="1" stop-color="#002D4D"/>
</linearGradient>
<linearGradient id="paint8_linear_9613_32919" x1="66.2433" y1="91.7753" x2="180.869" y2="183.662" gradientUnits="userSpaceOnUse">
<stop offset="0.088" stop-color="#26FFED"/>
<stop offset="0.39" stop-color="#18C4CD"/>
<stop offset="0.631" stop-color="#0B90B1"/>
<stop offset="0.869" stop-color="#0370A0"/>
<stop offset="0.994" stop-color="#006499"/>
</linearGradient>
<linearGradient id="paint9_linear_9613_32919" x1="54.8865" y1="120.844" x2="193" y2="190.959" gradientUnits="userSpaceOnUse">
<stop offset="0.098" stop-color="#26FFED"/>
<stop offset="0.381" stop-color="#18C4CD"/>
<stop offset="0.631" stop-color="#0B90B1"/>
<stop offset="0.869" stop-color="#0370A0"/>
<stop offset="0.993" stop-color="#006499"/>
</linearGradient>
<linearGradient id="paint10_linear_9613_32919" x1="129.35" y1="62.7294" x2="96.575" y2="192.014" gradientUnits="userSpaceOnUse">
<stop stop-color="#26FFED"/>
<stop offset="0.315" stop-color="#18C4CD"/>
<stop offset="0.631" stop-color="#0B90B1"/>
<stop offset="0.869" stop-color="#0370A0"/>
<stop offset="1" stop-color="#006499"/>
</linearGradient>
<linearGradient id="paint11_linear_9613_32919" x1="107.507" y1="141.374" x2="183.138" y2="-3.87205" gradientUnits="userSpaceOnUse">
<stop stop-color="#26FFED"/>
<stop offset="0.315" stop-color="#18C4CD"/>
<stop offset="0.631" stop-color="#0B90B1"/>
<stop offset="0.869" stop-color="#0370A0"/>
<stop offset="1" stop-color="#006499"/>
</linearGradient>
<linearGradient id="paint12_linear_9613_32919" x1="147.762" y1="81.9269" x2="145.776" y2="134.03" gradientUnits="userSpaceOnUse">
<stop stop-color="#0098A6"/>
<stop offset="1" stop-color="#002D4D"/>
</linearGradient>
<linearGradient id="paint13_linear_9613_32919" x1="47.6464" y1="152.302" x2="200.894" y2="125.281" gradientUnits="userSpaceOnUse">
<stop stop-color="#26FFED"/>
<stop offset="0.315" stop-color="#18C4CD"/>
<stop offset="0.631" stop-color="#0B90B1"/>
<stop offset="0.869" stop-color="#0370A0"/>
<stop offset="1" stop-color="#006499"/>
</linearGradient>
</defs>
</svg>
