<svg width="91" height="22" viewBox="0 0 91 22" fill="none" xmlns="http://www.w3.org/2000/svg">
<path d="M10.5 21C4.70101 21 0 16.299 0 10.5C0 4.70101 4.70101 0 10.5 0C16.299 0 21 4.70101 21 10.5C21 16.299 16.299 21 10.5 21Z" fill="#191919"/>
<path d="M10.5 19.875C5.32233 19.875 1.125 15.6777 1.125 10.5C1.125 5.32233 5.32233 1.125 10.5 1.125C15.6777 1.125 19.875 5.32233 19.875 10.5C19.875 15.6777 15.6777 19.875 10.5 19.875Z" fill="#F0F0F0"/>
<path d="M10.5 17.25C6.77208 17.25 3.75 14.2279 3.75 10.5C3.75 6.77208 6.77208 3.75 10.5 3.75C14.2279 3.75 17.25 6.77208 17.25 10.5C17.25 14.2279 14.2279 17.25 10.5 17.25Z" fill="#191919"/>
<path d="M28.206 17V4.976H33.372C34.92 4.976 36.072 5.318 36.828 6.002C37.584 6.674 37.962 7.646 37.962 8.918C37.962 10.19 37.584 11.162 36.828 11.834C36.072 12.506 34.92 12.842 33.372 12.842H30.834V17H28.206ZM30.834 10.736H32.94C33.708 10.736 34.296 10.598 34.704 10.322C35.112 10.046 35.316 9.578 35.316 8.918C35.316 8.258 35.112 7.79 34.704 7.514C34.308 7.226 33.72 7.082 32.94 7.082H30.834V10.736ZM41.3089 17.18C40.7329 17.18 40.2049 17.084 39.7249 16.892C39.2569 16.7 38.8849 16.412 38.6089 16.028C38.3449 15.644 38.2129 15.176 38.2129 14.624C38.2129 14.048 38.3509 13.586 38.6269 13.238C38.9029 12.878 39.2749 12.608 39.7429 12.428C40.2109 12.236 40.7329 12.104 41.3089 12.032L44.0269 11.708C43.9429 11.252 43.7329 10.922 43.3969 10.718C43.0609 10.514 42.6709 10.412 42.2269 10.412C41.8549 10.412 41.4589 10.478 41.0389 10.61C40.6309 10.742 40.1509 10.964 39.5989 11.276L38.8249 9.476C39.3649 9.104 39.9409 8.828 40.5529 8.648C41.1649 8.456 41.7769 8.36 42.3889 8.36C43.7329 8.36 44.7589 8.648 45.4669 9.224C46.1869 9.788 46.5469 10.664 46.5469 11.852V17H44.1889V16.046C43.8409 16.454 43.4389 16.748 42.9829 16.928C42.5389 17.096 41.9809 17.18 41.3089 17.18ZM42.0649 15.272C42.4849 15.272 42.8389 15.194 43.1269 15.038C43.4269 14.882 43.6549 14.672 43.8109 14.408C43.9789 14.144 44.0629 13.862 44.0629 13.562V13.31L42.1369 13.562C41.6689 13.622 41.3209 13.724 41.0929 13.868C40.8649 14 40.7509 14.204 40.7509 14.48C40.7509 14.744 40.8589 14.942 41.0749 15.074C41.3029 15.206 41.6329 15.272 42.0649 15.272ZM48.6991 17V8.54H51.0571V9.818C51.2971 9.314 51.6091 8.96 51.9931 8.756C52.3771 8.54 52.8031 8.432 53.2711 8.432C53.4271 8.432 53.5651 8.444 53.6851 8.468C53.8171 8.48 53.9191 8.504 53.9911 8.54V10.916C53.8231 10.88 53.6491 10.85 53.4691 10.826C53.3011 10.802 53.1271 10.79 52.9471 10.79C52.4551 10.79 52.0351 10.97 51.6871 11.33C51.3511 11.69 51.1831 12.218 51.1831 12.914V17H48.6991ZM59.5322 17.108C58.4762 17.108 57.7142 16.88 57.2462 16.424C56.7902 15.968 56.5622 15.266 56.5622 14.318V10.574H54.8522V8.54H56.5622V6.128H59.0642V8.54H61.1162V10.574H59.0642V14.066C59.0642 14.402 59.1482 14.654 59.3162 14.822C59.4962 14.99 59.7542 15.074 60.0902 15.074C60.2342 15.074 60.4082 15.068 60.6122 15.056C60.8162 15.044 60.9842 15.026 61.1162 15.002V16.928C60.9122 16.988 60.6662 17.03 60.3782 17.054C60.1022 17.09 59.8202 17.108 59.5322 17.108ZM62.832 17V8.54H65.316V17H62.832ZM64.074 7.244C63.63 7.244 63.282 7.118 63.03 6.866C62.778 6.602 62.652 6.272 62.652 5.876C62.652 5.48 62.778 5.156 63.03 4.904C63.282 4.652 63.63 4.526 64.074 4.526C64.506 4.526 64.848 4.658 65.1 4.922C65.364 5.174 65.496 5.498 65.496 5.894C65.496 6.29 65.364 6.614 65.1 6.866C64.848 7.118 64.506 7.244 64.074 7.244ZM71.7026 17.18C70.8026 17.18 69.9986 17 69.2906 16.64C68.5946 16.268 68.0486 15.752 67.6526 15.092C67.2566 14.42 67.0586 13.646 67.0586 12.77C67.0586 11.882 67.2566 11.108 67.6526 10.448C68.0486 9.788 68.5946 9.278 69.2906 8.918C69.9986 8.546 70.8026 8.36 71.7026 8.36C72.3026 8.36 72.8546 8.444 73.3586 8.612C73.8746 8.768 74.3606 9.008 74.8166 9.332L73.9526 11.204C73.5566 10.964 73.1786 10.79 72.8186 10.682C72.4586 10.574 72.0866 10.52 71.7026 10.52C71.2826 10.52 70.9106 10.61 70.5866 10.79C70.2746 10.958 70.0286 11.216 69.8486 11.564C69.6806 11.9 69.5966 12.302 69.5966 12.77C69.5966 13.238 69.6806 13.64 69.8486 13.976C70.0286 14.312 70.2746 14.57 70.5866 14.75C70.9106 14.93 71.2826 15.02 71.7026 15.02C72.0866 15.02 72.4586 14.966 72.8186 14.858C73.1786 14.75 73.5566 14.576 73.9526 14.336L74.8166 16.208C74.3606 16.532 73.8746 16.778 73.3586 16.946C72.8546 17.102 72.3026 17.18 71.7026 17.18ZM76.455 17V4.976H78.939V17H76.455ZM85.4516 17.18C84.5756 17.18 83.7776 17.018 83.0576 16.694C82.3376 16.358 81.7616 15.866 81.3296 15.218C80.8976 14.558 80.6816 13.742 80.6816 12.77C80.6816 11.87 80.8796 11.09 81.2756 10.43C81.6716 9.77 82.2056 9.26 82.8776 8.9C83.5496 8.54 84.3056 8.36 85.1456 8.36C85.9976 8.36 86.7416 8.516 87.3776 8.828C88.0256 9.14 88.5296 9.578 88.8896 10.142C89.2496 10.694 89.4296 11.33 89.4296 12.05C89.4296 12.266 89.3996 12.506 89.3396 12.77C89.2796 13.022 89.2016 13.238 89.1056 13.418H83.2196C83.2796 13.802 83.4116 14.126 83.6156 14.39C83.8196 14.642 84.1016 14.834 84.4616 14.966C84.8216 15.098 85.2356 15.164 85.7036 15.164C86.1956 15.164 86.6576 15.092 87.0896 14.948C87.5216 14.792 87.9296 14.588 88.3136 14.336L89.0696 16.082C88.5536 16.442 87.9896 16.718 87.3776 16.91C86.7776 17.09 86.1356 17.18 85.4516 17.18ZM83.2196 11.798H86.8736C86.8856 11.774 86.8916 11.75 86.8916 11.726C86.8916 11.702 86.8916 11.666 86.8916 11.618C86.8916 11.342 86.8316 11.108 86.7116 10.916C86.5916 10.712 86.4056 10.556 86.1536 10.448C85.9136 10.328 85.6016 10.268 85.2176 10.268C84.8696 10.268 84.5516 10.334 84.2636 10.466C83.9876 10.586 83.7596 10.76 83.5796 10.988C83.3996 11.216 83.2796 11.486 83.2196 11.798Z" fill="white"/>
</svg>
