<svg width="72" height="27" viewBox="0 0 72 27" fill="none" xmlns="http://www.w3.org/2000/svg">
<path fill-rule="evenodd" clip-rule="evenodd" d="M15.8294 0L13.9804 1.7781L21.1215 9.01962L23 7.20386L15.8294 0ZM4.22616 21.4156C5.78519 22.4524 7.61656 23.0038 9.48887 23.0002C10.7348 23.0002 11.9684 22.7539 13.1188 22.2755C14.2692 21.797 15.3137 21.0958 16.1921 20.2123C17.0706 19.3287 17.7657 18.2802 18.2374 17.127C18.7092 15.9738 18.9483 14.7388 18.941 13.4929C18.9338 11.6205 18.3717 9.7924 17.3258 8.23942C16.28 6.68643 14.7973 5.4783 13.0651 4.76767C11.3328 4.05705 9.42886 3.87581 7.59368 4.24687C5.7585 4.61793 4.07449 5.52463 2.75442 6.8524C1.43435 8.18018 0.537465 9.86945 0.177089 11.7068C-0.183287 13.5441 0.009018 15.447 0.729706 17.175C1.45039 18.9031 2.66712 20.3788 4.22616 21.4156ZM9.37072 20.4192C5.6161 20.3667 2.53364 17.2344 2.59141 13.5401C2.58898 12.1716 2.994 10.8334 3.75485 9.69593C4.5157 8.55845 5.59795 7.67322 6.8637 7.15303C8.12946 6.63283 9.52142 6.50122 10.8622 6.77495C12.2031 7.04868 13.432 7.71538 14.3926 8.69008C15.3532 9.66479 16.0018 10.9034 16.256 12.2481C16.5101 13.5928 16.3581 14.9827 15.8195 16.2407C15.2809 17.4987 14.3799 18.5679 13.2315 19.3121C12.083 20.0562 10.739 20.4416 9.37072 20.4192Z" fill="url(#paint0_linear_9613_25078)"/>
<path d="M29.494 20V7.4H34.948C36.076 7.4 37.048 7.586 37.864 7.958C38.68 8.318 39.31 8.84 39.754 9.524C40.198 10.208 40.42 11.024 40.42 11.972C40.42 12.908 40.198 13.718 39.754 14.402C39.31 15.074 38.68 15.59 37.864 15.95C37.048 16.31 36.076 16.49 34.948 16.49H31.114L32.41 15.212V20H29.494ZM37.504 20L34.354 15.428H37.468L40.654 20H37.504ZM32.41 15.536L31.114 14.168H34.786C35.686 14.168 36.358 13.976 36.802 13.592C37.246 13.196 37.468 12.656 37.468 11.972C37.468 11.276 37.246 10.736 36.802 10.352C36.358 9.968 35.686 9.776 34.786 9.776H31.114L32.41 8.39V15.536ZM42.5323 20V10.316H45.3403V20H42.5323ZM43.9363 8.966C43.4203 8.966 43.0003 8.816 42.6763 8.516C42.3523 8.216 42.1903 7.844 42.1903 7.4C42.1903 6.956 42.3523 6.584 42.6763 6.284C43.0003 5.984 43.4203 5.834 43.9363 5.834C44.4523 5.834 44.8723 5.978 45.1963 6.266C45.5203 6.542 45.6823 6.902 45.6823 7.346C45.6823 7.814 45.5203 8.204 45.1963 8.516C44.8843 8.816 44.4643 8.966 43.9363 8.966ZM53.8324 10.172C54.6004 10.172 55.2844 10.328 55.8844 10.64C56.4964 10.94 56.9764 11.408 57.3244 12.044C57.6724 12.668 57.8464 13.472 57.8464 14.456V20H55.0384V14.888C55.0384 14.108 54.8644 13.532 54.5164 13.16C54.1804 12.788 53.7004 12.602 53.0764 12.602C52.6324 12.602 52.2304 12.698 51.8704 12.89C51.5224 13.07 51.2464 13.352 51.0424 13.736C50.8504 14.12 50.7544 14.612 50.7544 15.212V20H47.9464V10.316H50.6284V12.998L50.1244 12.188C50.4724 11.54 50.9704 11.042 51.6184 10.694C52.2664 10.346 53.0044 10.172 53.8324 10.172ZM65.016 23.636C64.104 23.636 63.222 23.522 62.37 23.294C61.53 23.078 60.828 22.748 60.264 22.304L61.38 20.288C61.788 20.624 62.304 20.888 62.928 21.08C63.564 21.284 64.188 21.386 64.8 21.386C65.796 21.386 66.516 21.164 66.96 20.72C67.416 20.276 67.644 19.616 67.644 18.74V17.282L67.824 14.852L67.788 12.404V10.316H70.452V18.38C70.452 20.18 69.984 21.506 69.048 22.358C68.112 23.21 66.768 23.636 65.016 23.636ZM64.584 19.532C63.684 19.532 62.868 19.34 62.136 18.956C61.416 18.56 60.834 18.014 60.39 17.318C59.958 16.61 59.742 15.788 59.742 14.852C59.742 13.904 59.958 13.082 60.39 12.386C60.834 11.678 61.416 11.132 62.136 10.748C62.868 10.364 63.684 10.172 64.584 10.172C65.4 10.172 66.12 10.34 66.744 10.676C67.368 11 67.854 11.51 68.202 12.206C68.55 12.89 68.724 13.772 68.724 14.852C68.724 15.92 68.55 16.802 68.202 17.498C67.854 18.182 67.368 18.692 66.744 19.028C66.12 19.364 65.4 19.532 64.584 19.532ZM65.142 17.228C65.634 17.228 66.072 17.132 66.456 16.94C66.84 16.736 67.14 16.454 67.356 16.094C67.572 15.734 67.68 15.32 67.68 14.852C67.68 14.372 67.572 13.958 67.356 13.61C67.14 13.25 66.84 12.974 66.456 12.782C66.072 12.578 65.634 12.476 65.142 12.476C64.65 12.476 64.212 12.578 63.828 12.782C63.444 12.974 63.138 13.25 62.91 13.61C62.694 13.958 62.586 14.372 62.586 14.852C62.586 15.32 62.694 15.734 62.91 16.094C63.138 16.454 63.444 16.736 63.828 16.94C64.212 17.132 64.65 17.228 65.142 17.228Z" fill="white"/>
<defs>
<linearGradient id="paint0_linear_9613_25078" x1="9.01961" y1="3.38235" x2="20.5196" y2="13.0784" gradientUnits="userSpaceOnUse">
<stop stop-color="#F15266"/>
<stop offset="0.52" stop-color="#BC74ED"/>
<stop offset="1" stop-color="#1ABEE9"/>
</linearGradient>
</defs>
</svg>
