<svg width="108" height="22" viewBox="0 0 108 22" fill="none" xmlns="http://www.w3.org/2000/svg">
<path fill-rule="evenodd" clip-rule="evenodd" d="M1 1.84705H4.76274C5.31502 1.84705 5.76274 2.29476 5.76274 2.84705V7.60978H11.0452V2.84705C11.0452 2.29476 11.493 1.84705 12.0452 1.84705H16.2882C16.8405 1.84705 17.2882 2.29476 17.2882 2.84705V19.0957C17.2882 19.648 16.8405 20.0957 16.2882 20.0957H11.565C11.0127 20.0957 10.565 19.648 10.565 19.0957V16.8443C11.4704 16.2287 12.0651 15.1902 12.0651 14.0128C12.0651 12.1231 10.5332 10.5912 8.64345 10.5912C6.75373 10.5912 5.22182 12.1231 5.22182 14.0128C5.22182 15.1908 5.81707 16.2297 6.72319 16.8452V19.0957C6.72319 19.648 6.27548 20.0957 5.72319 20.0957H1C0.447716 20.0957 0 19.648 0 19.0957V2.84705C0 2.29476 0.447715 1.84705 1 1.84705Z" fill="#E9FB46"/>
<path d="M23.2607 17V4.976H25.8887V9.674H31.1807V4.976H33.8087V17H31.1807V11.942H25.8887V17H23.2607ZM37.3318 20.384C36.9238 20.384 36.5098 20.336 36.0898 20.24C35.6698 20.144 35.3218 20.024 35.0458 19.88L35.7118 18.026C35.9278 18.11 36.1558 18.182 36.3958 18.242C36.6478 18.314 36.8938 18.35 37.1338 18.35C37.3378 18.35 37.5298 18.32 37.7098 18.26C37.9018 18.2 38.0758 18.11 38.2318 17.99C38.3998 17.882 38.5438 17.744 38.6638 17.576L35.2438 8.54H37.9078L39.8338 14.678L41.7778 8.54H44.4238L41.2018 17C40.9018 17.816 40.5478 18.47 40.1398 18.962C39.7438 19.466 39.3058 19.826 38.8258 20.042C38.3578 20.27 37.8598 20.384 37.3318 20.384ZM45.7402 20.276V8.54H48.0982V9.62C48.3622 9.236 48.7222 8.93 49.1782 8.702C49.6342 8.474 50.1742 8.36 50.7982 8.36C51.5662 8.36 52.2502 8.54 52.8502 8.9C53.4622 9.248 53.9482 9.752 54.3082 10.412C54.6682 11.072 54.8482 11.858 54.8482 12.77C54.8482 13.682 54.6682 14.468 54.3082 15.128C53.9482 15.788 53.4622 16.298 52.8502 16.658C52.2502 17.006 51.5662 17.18 50.7982 17.18C50.2102 17.18 49.7002 17.084 49.2682 16.892C48.8362 16.688 48.4882 16.418 48.2242 16.082V20.276H45.7402ZM50.2222 15.02C50.6302 15.02 50.9902 14.93 51.3022 14.75C51.6262 14.57 51.8722 14.312 52.0402 13.976C52.2202 13.628 52.3102 13.226 52.3102 12.77C52.3102 12.302 52.2202 11.9 52.0402 11.564C51.8722 11.228 51.6262 10.97 51.3022 10.79C50.9902 10.61 50.6302 10.52 50.2222 10.52C49.8142 10.52 49.4482 10.61 49.1242 10.79C48.8002 10.97 48.5542 11.228 48.3862 11.564C48.2182 11.9 48.1342 12.302 48.1342 12.77C48.1342 13.226 48.2182 13.628 48.3862 13.976C48.5542 14.312 48.7942 14.57 49.1062 14.75C49.4302 14.93 49.8022 15.02 50.2222 15.02ZM60.9243 17.18C60.0483 17.18 59.2503 17.018 58.5303 16.694C57.8103 16.358 57.2343 15.866 56.8023 15.218C56.3703 14.558 56.1543 13.742 56.1543 12.77C56.1543 11.87 56.3523 11.09 56.7483 10.43C57.1443 9.77 57.6783 9.26 58.3503 8.9C59.0223 8.54 59.7783 8.36 60.6183 8.36C61.4703 8.36 62.2143 8.516 62.8503 8.828C63.4983 9.14 64.0023 9.578 64.3623 10.142C64.7223 10.694 64.9023 11.33 64.9023 12.05C64.9023 12.266 64.8723 12.506 64.8123 12.77C64.7523 13.022 64.6743 13.238 64.5783 13.418H58.6923C58.7523 13.802 58.8843 14.126 59.0883 14.39C59.2923 14.642 59.5743 14.834 59.9343 14.966C60.2943 15.098 60.7083 15.164 61.1763 15.164C61.6683 15.164 62.1303 15.092 62.5623 14.948C62.9943 14.792 63.4023 14.588 63.7863 14.336L64.5423 16.082C64.0263 16.442 63.4623 16.718 62.8503 16.91C62.2503 17.09 61.6083 17.18 60.9243 17.18ZM58.6923 11.798H62.3463C62.3583 11.774 62.3643 11.75 62.3643 11.726C62.3643 11.702 62.3643 11.666 62.3643 11.618C62.3643 11.342 62.3043 11.108 62.1843 10.916C62.0643 10.712 61.8783 10.556 61.6263 10.448C61.3863 10.328 61.0743 10.268 60.6903 10.268C60.3423 10.268 60.0243 10.334 59.7363 10.466C59.4603 10.586 59.2323 10.76 59.0523 10.988C58.8723 11.216 58.7523 11.486 58.6923 11.798ZM66.6405 17V8.54H68.9985V9.818C69.2385 9.314 69.5505 8.96 69.9345 8.756C70.3185 8.54 70.7445 8.432 71.2125 8.432C71.3685 8.432 71.5065 8.444 71.6265 8.468C71.7585 8.48 71.8605 8.504 71.9325 8.54V10.916C71.7645 10.88 71.5905 10.85 71.4105 10.826C71.2425 10.802 71.0685 10.79 70.8885 10.79C70.3965 10.79 69.9765 10.97 69.6285 11.33C69.2925 11.69 69.1245 12.218 69.1245 12.914V17H66.6405ZM73.5136 17V4.976H75.9976V17H73.5136ZM82.3842 17.18C81.4842 17.18 80.6802 17 79.9722 16.64C79.2762 16.268 78.7302 15.752 78.3342 15.092C77.9382 14.42 77.7402 13.646 77.7402 12.77C77.7402 11.882 77.9382 11.108 78.3342 10.448C78.7302 9.788 79.2762 9.278 79.9722 8.918C80.6682 8.546 81.4722 8.36 82.3842 8.36C83.2962 8.36 84.1002 8.546 84.7962 8.918C85.4922 9.278 86.0382 9.788 86.4342 10.448C86.8302 11.108 87.0282 11.882 87.0282 12.77C87.0282 13.646 86.8302 14.42 86.4342 15.092C86.0382 15.752 85.4922 16.268 84.7962 16.64C84.1002 17 83.2962 17.18 82.3842 17.18ZM82.3842 15.02C82.8042 15.02 83.1702 14.93 83.4822 14.75C83.8062 14.57 84.0522 14.312 84.2202 13.976C84.4002 13.628 84.4902 13.226 84.4902 12.77C84.4902 12.302 84.4002 11.9 84.2202 11.564C84.0522 11.228 83.8062 10.97 83.4822 10.79C83.1702 10.61 82.8042 10.52 82.3842 10.52C81.9642 10.52 81.5922 10.61 81.2682 10.79C80.9562 10.97 80.7102 11.228 80.5302 11.564C80.3622 11.9 80.2782 12.302 80.2782 12.77C80.2782 13.226 80.3622 13.628 80.5302 13.976C80.7102 14.312 80.9562 14.57 81.2682 14.75C81.5922 14.93 81.9642 15.02 82.3842 15.02ZM93.0014 17.18C92.1014 17.18 91.2974 17 90.5894 16.64C89.8934 16.268 89.3474 15.752 88.9514 15.092C88.5554 14.42 88.3574 13.646 88.3574 12.77C88.3574 11.882 88.5554 11.108 88.9514 10.448C89.3474 9.788 89.8934 9.278 90.5894 8.918C91.2974 8.546 92.1014 8.36 93.0014 8.36C93.6014 8.36 94.1534 8.444 94.6574 8.612C95.1734 8.768 95.6594 9.008 96.1154 9.332L95.2514 11.204C94.8554 10.964 94.4774 10.79 94.1174 10.682C93.7574 10.574 93.3854 10.52 93.0014 10.52C92.5814 10.52 92.2094 10.61 91.8854 10.79C91.5734 10.958 91.3274 11.216 91.1474 11.564C90.9794 11.9 90.8954 12.302 90.8954 12.77C90.8954 13.238 90.9794 13.64 91.1474 13.976C91.3274 14.312 91.5734 14.57 91.8854 14.75C92.2094 14.93 92.5814 15.02 93.0014 15.02C93.3854 15.02 93.7574 14.966 94.1174 14.858C94.4774 14.75 94.8554 14.576 95.2514 14.336L96.1154 16.208C95.6594 16.532 95.1734 16.778 94.6574 16.946C94.1534 17.102 93.6014 17.18 93.0014 17.18ZM97.7538 17V4.976H100.238V11.852L103.37 8.54H106.232L102.92 11.96L106.412 17H103.514L101.246 13.688L100.238 14.75V17H97.7538Z" fill="#E9FB46"/>
</svg>
