<svg width="28" height="16" viewBox="0 0 28 16" fill="none" xmlns="http://www.w3.org/2000/svg">
<path d="M0 4C0 1.79086 1.39289 0 3.11111 0H24.8889C26.6071 0 28 1.79086 28 4V12C28 14.2091 26.6071 16 24.8889 16H3.11111C1.39289 16 0 14.2091 0 12V4Z" fill="#FFAA00"/>
<path d="M20.5056 12.1205C19.9289 12.1205 19.3978 12.0125 18.9125 11.7965C18.4272 11.5805 18.0052 11.2805 17.6465 10.8965C17.2878 10.5045 17.0099 10.0485 16.813 9.52847C16.616 9.00047 16.5176 8.42447 16.5176 7.80047C16.5176 7.17647 16.616 6.60447 16.813 6.08447C17.0099 5.55647 17.2878 5.10047 17.6465 4.71647C18.0052 4.32447 18.4272 4.02047 18.9125 3.80447C19.3978 3.58847 19.9253 3.48047 20.4951 3.48047C21.0718 3.48047 21.5993 3.58847 22.0776 3.80447C22.5629 4.02047 22.985 4.32447 23.3437 4.71647C23.7024 5.10047 23.9802 5.55647 24.1772 6.08447C24.3741 6.60447 24.4726 7.17647 24.4726 7.80047C24.4726 8.42447 24.3741 9.00047 24.1772 9.52847C23.9802 10.0565 23.7024 10.5125 23.3437 10.8965C22.985 11.2805 22.5629 11.5805 22.0776 11.7965C21.5993 12.0125 21.0753 12.1205 20.5056 12.1205ZM20.4951 10.7525C20.8679 10.7525 21.2125 10.6805 21.529 10.5365C21.8455 10.3925 22.1198 10.1885 22.3519 9.92447C22.584 9.65247 22.7634 9.34047 22.89 8.98847C23.0236 8.62847 23.0905 8.23247 23.0905 7.80047C23.0905 7.36847 23.0236 6.97647 22.89 6.62447C22.7634 6.26447 22.584 5.95247 22.3519 5.68847C22.1198 5.41647 21.8455 5.20847 21.529 5.06447C21.2125 4.92047 20.8679 4.84847 20.4951 4.84847C20.1223 4.84847 19.7776 4.92047 19.4611 5.06447C19.1517 5.20847 18.8773 5.41647 18.6382 5.68847C18.4061 5.95247 18.2232 6.26447 18.0896 6.62447C17.963 6.97647 17.8997 7.36847 17.8997 7.80047C17.8997 8.22447 17.963 8.61647 18.0896 8.97647C18.2232 9.33647 18.4061 9.65247 18.6382 9.92447C18.8703 10.1885 19.1446 10.3925 19.4611 10.5365C19.7776 10.6805 20.1223 10.7525 20.4951 10.7525Z" fill="black"/>
<path d="M11.0986 12.912V12H16.3738V12.912H11.0986Z" fill="black"/>
<path d="M6.98804 12.1205C6.41129 12.1205 5.88025 12.0125 5.39494 11.7965C4.90962 11.5805 4.4876 11.2805 4.12889 10.8965C3.77018 10.5045 3.49235 10.0485 3.29541 9.52847C3.09847 9.00047 3 8.42447 3 7.80047C3 7.17647 3.09847 6.60447 3.29541 6.08447C3.49235 5.55647 3.77018 5.10047 4.12889 4.71647C4.4876 4.32447 4.90962 4.02047 5.39494 3.80447C5.88025 3.58847 6.40777 3.48047 6.97749 3.48047C7.55425 3.48047 8.08177 3.58847 8.56005 3.80447C9.04537 4.02047 9.46738 4.32447 9.8261 4.71647C10.1848 5.10047 10.4626 5.55647 10.6596 6.08447C10.8565 6.60447 10.955 7.17647 10.955 7.80047C10.955 8.42447 10.8565 9.00047 10.6596 9.52847C10.4626 10.0565 10.1848 10.5125 9.8261 10.8965C9.46738 11.2805 9.04537 11.5805 8.56005 11.7965C8.08177 12.0125 7.55776 12.1205 6.98804 12.1205ZM6.97749 10.7525C7.35027 10.7525 7.69492 10.6805 8.01143 10.5365C8.32794 10.3925 8.60225 10.1885 8.83436 9.92447C9.06647 9.65247 9.24582 9.34047 9.37243 8.98847C9.50607 8.62847 9.57289 8.23247 9.57289 7.80047C9.57289 7.36847 9.50607 6.97647 9.37243 6.62447C9.24582 6.26447 9.06647 5.95247 8.83436 5.68847C8.60225 5.41647 8.32794 5.20847 8.01143 5.06447C7.69492 4.92047 7.35027 4.84847 6.97749 4.84847C6.60471 4.84847 6.26007 4.92047 5.94356 5.06447C5.63408 5.20847 5.35977 5.41647 5.12063 5.68847C4.88852 5.95247 4.70564 6.26447 4.57201 6.62447C4.4454 6.97647 4.3821 7.36847 4.3821 7.80047C4.3821 8.22447 4.4454 8.61647 4.57201 8.97647C4.70564 9.33647 4.88852 9.65247 5.12063 9.92447C5.35273 10.1885 5.62704 10.3925 5.94356 10.5365C6.26007 10.6805 6.60471 10.7525 6.97749 10.7525Z" fill="black"/>
</svg>
