<svg width="209" height="208" viewBox="0 0 209 208" fill="none" xmlns="http://www.w3.org/2000/svg">
<circle cx="104.412" cy="104" r="104" fill="url(#paint0_radial_9613_32907)"/>
<g filter="url(#filter0_d_9613_32907)">
<path fill-rule="evenodd" clip-rule="evenodd" d="M150.456 64.8343L145.569 136.704L145.459 136.811C145.236 138.516 144.619 139.92 143.579 140.96C138.871 145.667 126.729 141.693 112.891 131.925L116.348 128.467C119.856 130.903 123.213 132.924 126.312 134.481C130.491 136.584 133.949 137.717 136.516 138.031C139.156 138.354 139.991 137.738 140.174 137.555C140.357 137.372 140.972 136.537 140.65 133.897C140.336 131.331 139.202 127.873 137.101 123.693C133.161 115.86 126.266 106.368 117.179 96.9938L75.4041 138.768L76.2043 131.158L113.773 93.5893C104.4 84.502 94.908 77.6057 87.075 73.6671C82.8953 71.5654 79.4379 70.432 76.8707 70.1181C74.2307 69.7956 73.3954 70.4113 73.2131 70.5936C73.03 70.7767 72.4143 71.6119 72.7368 74.252C73.0515 76.8191 74.1842 80.2766 76.2865 84.4562C77.844 87.5547 79.8648 90.912 82.3004 94.4195L78.8429 97.8769C69.0749 84.0393 65.1012 71.8965 69.8079 67.1891C70.849 66.148 72.2542 65.5316 73.9611 65.3084C73.9944 65.2727 74.0288 65.2377 74.064 65.2033L145.936 60.315L150.785 59.9861L150.456 64.8343ZM119.726 66.9253L141.949 65.4136L131.479 75.8845C127.253 71.8636 123.127 68.9568 119.726 66.9245M110.358 67.561L88.5859 69.0419C97.1069 73.2065 107.275 80.5748 117.179 90.1841L128.073 79.2898C123.511 74.9621 119.088 72.0259 115.71 70.1396C114.252 69.3196 112.752 68.5766 111.216 67.9135C110.881 67.7705 110.595 67.6525 110.358 67.561ZM131.449 82.7236L120.584 93.5886C130.196 103.495 137.566 113.666 141.73 122.189L143.258 99.7197C143.155 99.4966 143.026 99.2284 142.871 98.9152C142.129 97.4312 141.323 95.9806 140.454 94.5675C138.504 91.3768 135.573 87.1871 131.449 82.7229M134.857 79.3162C138.84 83.611 141.782 87.6805 143.854 90.9506L145.359 68.8131L134.857 79.3162ZM95.5816 92.4881L79.4922 108.577L78.6928 116.187L100.168 94.7113L95.5816 92.4881ZM116.057 110.601L94.6084 132.049L102.218 131.25L118.593 114.874L116.057 110.601Z" fill="url(#paint1_linear_9613_32907)"/>
</g>
<defs>
<filter id="filter0_d_9613_32907" x="66.5195" y="58.6736" width="85.5781" height="85.5747" filterUnits="userSpaceOnUse" color-interpolation-filters="sRGB">
<feFlood flood-opacity="0" result="BackgroundImageFix"/>
<feColorMatrix in="SourceAlpha" type="matrix" values="0 0 0 0 0 0 0 0 0 0 0 0 0 0 0 0 0 0 127 0" result="hardAlpha"/>
<feOffset/>
<feGaussianBlur stdDeviation="0.65625"/>
<feComposite in2="hardAlpha" operator="out"/>
<feColorMatrix type="matrix" values="0 0 0 0 1 0 0 0 0 0.426332 0 0 0 0 0.388542 0 0 0 0.8 0"/>
<feBlend mode="normal" in2="BackgroundImageFix" result="effect1_dropShadow_9613_32907"/>
<feBlend mode="normal" in="SourceGraphic" in2="effect1_dropShadow_9613_32907" result="shape"/>
</filter>
<radialGradient id="paint0_radial_9613_32907" cx="0" cy="0" r="1" gradientUnits="userSpaceOnUse" gradientTransform="translate(104.412) rotate(90) scale(208)">
<stop stop-color="#FF685E"/>
<stop offset="0.75"/>
</radialGradient>
<linearGradient id="paint1_linear_9613_32907" x1="67.8321" y1="59.9861" x2="150.782" y2="142.939" gradientUnits="userSpaceOnUse">
<stop stop-color="#FFB0AB"/>
<stop offset="0.464" stop-color="#FF6D63"/>
<stop offset="1" stop-color="#FF4337"/>
</linearGradient>
</defs>
</svg>
