<svg width="1453" height="513" viewBox="0 0 1453 513" fill="none" xmlns="http://www.w3.org/2000/svg">
  <g opacity="0.6">
    <rect opacity="0.1" x="1" width="85.3333" height="85.3333" rx="16" stroke="#202329"/>
    <rect opacity="0.1" x="1" y="85.333" width="85.3333" height="85.3333" rx="16" stroke="#202329"/>
    <rect opacity="0.1" x="1" y="170.667" width="85.3333" height="85.3333" rx="16" stroke="#202329"/>
    <rect opacity="0.1" x="1" y="256" width="85.3333" height="85.3333" rx="16" stroke="#202329"/>
    <rect opacity="0.1" x="1" y="341.333" width="85.3333" height="85.3333" rx="16" stroke="#202329"/>
    <rect opacity="0.1" x="1" y="426.666" width="85.3333" height="85.3333" rx="16" stroke="#202329"/>
    <rect opacity="0.2" x="86.3333" width="85.3333" height="85.3333" rx="16" stroke="#202329"/>
    <rect opacity="0.2" x="86.3333" y="85.333" width="85.3333" height="85.3333" rx="16" stroke="#202329"/>
    <rect opacity="0.2" x="86.3333" y="170.667" width="85.3333" height="85.3333" rx="16" stroke="#202329"/>
    <rect opacity="0.2" x="86.3333" y="256" width="85.3333" height="85.3333" rx="16" stroke="#202329"/>
    <rect opacity="0.2" x="86.3333" y="341.333" width="85.3333" height="85.3333" rx="16" stroke="#202329"/>
    <rect opacity="0.2" x="86.3333" y="426.666" width="85.3333" height="85.3333" rx="16" stroke="#202329"/>
    <rect opacity="0.4" x="171.667" width="85.3333" height="85.3333" rx="16" stroke="#202329"/>
    <rect opacity="0.4" x="171.667" y="85.333" width="85.3333" height="85.3333" rx="16" stroke="#202329"/>
    <rect opacity="0.4" x="171.667" y="170.667" width="85.3333" height="85.3333" rx="16" stroke="#202329"/>
    <rect opacity="0.4" x="171.667" y="256" width="85.3333" height="85.3333" rx="16" stroke="#202329"/>
    <rect opacity="0.4" x="171.667" y="341.333" width="85.3333" height="85.3333" rx="16" stroke="#202329"/>
    <rect opacity="0.4" x="171.667" y="426.666" width="85.3333" height="85.3333" rx="16" stroke="#202329"/>
    <rect opacity="0.5" x="257" width="85.3333" height="85.3333" rx="16" stroke="#202329"/>
    <rect opacity="0.5" x="257" y="85.333" width="85.3333" height="85.3333" rx="16" stroke="#202329"/>
    <rect opacity="0.5" x="257" y="170.667" width="85.3333" height="85.3333" rx="16" stroke="#202329"/>
    <rect opacity="0.5" x="257" y="256" width="85.3333" height="85.3333" rx="16" stroke="#202329"/>
    <rect opacity="0.5" x="257" y="341.333" width="85.3333" height="85.3333" rx="16" stroke="#202329"/>
    <rect opacity="0.5" x="257" y="426.666" width="85.3333" height="85.3333" rx="16" stroke="#202329"/>
    <rect opacity="0.5" x="342.333" width="85.3333" height="85.3333" rx="16" stroke="#202329"/>
    <rect opacity="0.5" x="342.333" y="85.333" width="85.3333" height="85.3333" rx="16" stroke="#202329"/>
    <rect opacity="0.5" x="342.333" y="170.667" width="85.3333" height="85.3333" rx="16" stroke="#202329"/>
    <rect opacity="0.5" x="342.333" y="256" width="85.3333" height="85.3333" rx="16" stroke="#202329"/>
    <rect opacity="0.5" x="342.333" y="341.333" width="85.3333" height="85.3333" rx="16" stroke="#202329"/>
    <rect opacity="0.5" x="342.333" y="426.666" width="85.3333" height="85.3333" rx="16" stroke="#202329"/>
    <rect opacity="0.6" x="427.667" width="85.3333" height="85.3333" rx="16" stroke="#202329"/>
    <rect opacity="0.6" x="427.667" y="85.333" width="85.3333" height="85.3333" rx="16" stroke="#202329"/>
    <rect opacity="0.6" x="427.667" y="170.667" width="85.3333" height="85.3333" rx="16" stroke="#202329"/>
    <rect opacity="0.6" x="427.667" y="256" width="85.3333" height="85.3333" rx="16" stroke="#202329"/>
    <rect opacity="0.6" x="427.667" y="341.333" width="85.3333" height="85.3333" rx="16" stroke="#202329"/>
    <rect opacity="0.6" x="427.667" y="426.666" width="85.3333" height="85.3333" rx="16" stroke="#202329"/>
    <rect opacity="0.7" x="513" width="85.3333" height="85.3333" rx="16" stroke="#202329"/>
    <rect opacity="0.7" x="513" y="85.333" width="85.3333" height="85.3333" rx="16" stroke="#202329"/>
    <rect opacity="0.7" x="513" y="170.667" width="85.3333" height="85.3333" rx="16" stroke="#202329"/>
    <rect opacity="0.7" x="513" y="256" width="85.3333" height="85.3333" rx="16" stroke="#202329"/>
    <rect opacity="0.7" x="513" y="341.333" width="85.3333" height="85.3333" rx="16" stroke="#202329"/>
    <rect opacity="0.7" x="513" y="426.666" width="85.3333" height="85.3333" rx="16" stroke="#202329"/>
    <rect opacity="0.8" x="598.333" width="85.3333" height="85.3333" rx="16" stroke="#202329"/>
    <rect opacity="0.8" x="598.333" y="85.333" width="85.3333" height="85.3333" rx="16" stroke="#202329"/>
    <rect opacity="0.8" x="598.333" y="170.667" width="85.3333" height="85.3333" rx="16" stroke="#202329"/>
    <rect opacity="0.8" x="598.333" y="256" width="85.3333" height="85.3333" rx="16" stroke="#202329"/>
    <rect opacity="0.8" x="598.333" y="341.333" width="85.3333" height="85.3333" rx="16" stroke="#202329"/>
    <rect opacity="0.8" x="598.333" y="426.666" width="85.3333" height="85.3333" rx="16" stroke="#202329"/>
    <rect x="683.667" width="85.3333" height="85.3333" rx="16" stroke="#202329"/>
    <rect x="683.667" y="85.333" width="85.3333" height="85.3333" rx="16" stroke="#202329"/>
    <rect x="683.667" y="170.667" width="85.3333" height="85.3333" rx="16" stroke="#202329"/>
    <rect x="683.667" y="256" width="85.3333" height="85.3333" rx="16" stroke="#202329"/>
    <rect x="683.667" y="341.333" width="85.3333" height="85.3333" rx="16" stroke="#202329"/>
    <rect x="683.667" y="426.666" width="85.3333" height="85.3333" rx="16" stroke="#202329"/>
    <rect opacity="0.8" x="769" width="85.3333" height="85.3333" rx="16" stroke="#202329"/>
    <rect opacity="0.8" x="769" y="85.333" width="85.3333" height="85.3333" rx="16" stroke="#202329"/>
    <rect opacity="0.8" x="769" y="170.667" width="85.3333" height="85.3333" rx="16" stroke="#202329"/>
    <rect opacity="0.8" x="769" y="256" width="85.3333" height="85.3333" rx="16" stroke="#202329"/>
    <rect opacity="0.8" x="769" y="341.333" width="85.3333" height="85.3333" rx="16" stroke="#202329"/>
    <rect opacity="0.8" x="769" y="426.666" width="85.3333" height="85.3333" rx="16" stroke="#202329"/>
    <rect opacity="0.7" x="854.333" width="85.3333" height="85.3333" rx="16" stroke="#202329"/>
    <rect opacity="0.7" x="854.333" y="85.333" width="85.3333" height="85.3333" rx="16" stroke="#202329"/>
    <rect opacity="0.7" x="854.333" y="170.667" width="85.3333" height="85.3333" rx="16" stroke="#202329"/>
    <rect opacity="0.7" x="854.333" y="256" width="85.3333" height="85.3333" rx="16" stroke="#202329"/>
    <rect opacity="0.7" x="854.333" y="341.333" width="85.3333" height="85.3333" rx="16" stroke="#202329"/>
    <rect opacity="0.7" x="854.333" y="426.666" width="85.3333" height="85.3333" rx="16" stroke="#202329"/>
    <rect opacity="0.6" x="939.667" width="85.3333" height="85.3333" rx="16" stroke="#202329"/>
    <rect opacity="0.6" x="939.667" y="85.333" width="85.3333" height="85.3333" rx="16" stroke="#202329"/>
    <rect opacity="0.6" x="939.667" y="170.667" width="85.3333" height="85.3333" rx="16" stroke="#202329"/>
    <rect opacity="0.6" x="939.667" y="256" width="85.3333" height="85.3333" rx="16" stroke="#202329"/>
    <rect opacity="0.6" x="939.667" y="341.333" width="85.3333" height="85.3333" rx="16" stroke="#202329"/>
    <rect opacity="0.6" x="939.667" y="426.666" width="85.3333" height="85.3333" rx="16" stroke="#202329"/>
    <rect opacity="0.5" x="1025" width="85.3333" height="85.3333" rx="16" stroke="#202329"/>
    <rect opacity="0.5" x="1025" y="85.333" width="85.3333" height="85.3333" rx="16" stroke="#202329"/>
    <rect opacity="0.5" x="1025" y="170.667" width="85.3333" height="85.3333" rx="16" stroke="#202329"/>
    <rect opacity="0.5" x="1025" y="256" width="85.3333" height="85.3333" rx="16" stroke="#202329"/>
    <rect opacity="0.5" x="1025" y="341.333" width="85.3333" height="85.3333" rx="16" stroke="#202329"/>
    <rect opacity="0.5" x="1025" y="426.666" width="85.3333" height="85.3333" rx="16" stroke="#202329"/>
    <rect opacity="0.4" x="1110.33" width="85.3333" height="85.3333" rx="16" stroke="#202329"/>
    <rect opacity="0.4" x="1110.33" y="85.333" width="85.3333" height="85.3333" rx="16" stroke="#202329"/>
    <rect opacity="0.4" x="1110.33" y="170.667" width="85.3333" height="85.3333" rx="16" stroke="#202329"/>
    <rect opacity="0.4" x="1110.33" y="256" width="85.3333" height="85.3333" rx="16" stroke="#202329"/>
    <rect opacity="0.4" x="1110.33" y="341.333" width="85.3333" height="85.3333" rx="16" stroke="#202329"/>
    <rect opacity="0.4" x="1110.33" y="426.666" width="85.3333" height="85.3333" rx="16" stroke="#202329"/>
    <rect opacity="0.3" x="1195.67" width="85.3333" height="85.3333" rx="16" stroke="#202329"/>
    <rect opacity="0.3" x="1195.67" y="85.333" width="85.3333" height="85.3333" rx="16" stroke="#202329"/>
    <rect opacity="0.3" x="1195.67" y="170.667" width="85.3333" height="85.3333" rx="16" stroke="#202329"/>
    <rect opacity="0.3" x="1195.67" y="256" width="85.3333" height="85.3333" rx="16" stroke="#202329"/>
    <rect opacity="0.3" x="1195.67" y="341.333" width="85.3333" height="85.3333" rx="16" stroke="#202329"/>
    <rect opacity="0.3" x="1195.67" y="426.666" width="85.3333" height="85.3333" rx="16" stroke="#202329"/>
    <rect opacity="0.2" x="1281" width="85.3333" height="85.3333" rx="16" stroke="#202329"/>
    <rect opacity="0.2" x="1281" y="85.333" width="85.3333" height="85.3333" rx="16" stroke="#202329"/>
    <rect opacity="0.2" x="1281" y="170.667" width="85.3333" height="85.3333" rx="16" stroke="#202329"/>
    <rect opacity="0.2" x="1281" y="256" width="85.3333" height="85.3333" rx="16" stroke="#202329"/>
    <rect opacity="0.2" x="1281" y="341.333" width="85.3333" height="85.3333" rx="16" stroke="#202329"/>
    <rect opacity="0.2" x="1281" y="426.666" width="85.3333" height="85.3333" rx="16" stroke="#202329"/>
    <rect opacity="0.1" x="1366.33" width="85.3333" height="85.3333" rx="16" stroke="#202329"/>
    <rect opacity="0.1" x="1366.33" y="85.333" width="85.3333" height="85.3333" rx="16" stroke="#202329"/>
    <rect opacity="0.1" x="1366.33" y="170.667" width="85.3333" height="85.3333" rx="16" stroke="#202329"/>
    <rect opacity="0.1" x="1366.33" y="256" width="85.3333" height="85.3333" rx="16" stroke="#202329"/>
    <rect opacity="0.1" x="1366.33" y="341.333" width="85.3333" height="85.3333" rx="16" stroke="#202329"/>
    <rect opacity="0.1" x="1366.33" y="426.666" width="85.3333" height="85.3333" rx="16" stroke="#202329"/>
    <path d="M598 153L600.628 160.101C602.046 163.933 605.067 166.954 608.899 168.372L616 171L608.899 173.628C605.067 175.046 602.046 178.067 600.628 181.899L598 189L595.372 181.899C593.954 178.067 590.933 175.046 587.101 173.628L580 171L587.101 168.372C590.933 166.954 593.954 163.933 595.372 160.101L598 153Z" fill="#202329"/>
    <path d="M769 153L771.628 160.101C773.046 163.933 776.067 166.954 779.899 168.372L787 171L779.899 173.628C776.067 175.046 773.046 178.067 771.628 181.899L769 189L766.372 181.899C764.954 178.067 761.933 175.046 758.101 173.628L751 171L758.101 168.372C761.933 166.954 764.954 163.933 766.372 160.101L769 153Z" fill="#1F2128"/>
    <path d="M1025 238L1027.63 245.101C1029.05 248.933 1032.07 251.954 1035.9 253.372L1043 256L1035.9 258.628C1032.07 260.046 1029.05 263.067 1027.63 266.899L1025 274L1022.37 266.899C1020.95 263.067 1017.93 260.046 1014.1 258.628L1007 256L1014.1 253.372C1017.93 251.954 1020.95 248.933 1022.37 245.101L1025 238Z" fill="#181A1F"/>
    <path d="M257 323L259.628 330.101C261.046 333.933 264.067 336.954 267.899 338.372L275 341L267.899 343.628C264.067 345.046 261.046 348.067 259.628 351.899L257 359L254.372 351.899C252.954 348.067 249.933 345.046 246.101 343.628L239 341L246.101 338.372C249.933 336.954 252.954 333.933 254.372 330.101L257 323Z" fill="#15161B"/>
    <path d="M684 238L686.628 245.101C688.046 248.933 691.067 251.954 694.899 253.372L702 256L694.899 258.628C691.067 260.046 688.046 263.067 686.628 266.899L684 274L681.372 266.899C679.954 263.067 676.933 260.046 673.101 258.628L666 256L673.101 253.372C676.933 251.954 679.954 248.933 681.372 245.101L684 238Z" fill="#202329"/>
  </g>
</svg>
