<svg width="17" height="16" viewBox="0 0 17 16" fill="none" xmlns="http://www.w3.org/2000/svg">
<g id="metamask 1" clip-path="url(#clip0_16201_1845)">
<path id="Vector" d="M15.405 0.229027L9.15503 4.85303L10.317 2.12803L15.405 0.228027V0.229027Z" fill="#E17726"/>
<path id="Vector_2" d="M0.990881 0.229004L7.18588 4.897L6.07888 2.127L0.990881 0.230004V0.229004ZM13.1539 10.953L11.4909 13.493L15.0519 14.474L16.0719 11.009L13.1539 10.953ZM0.327881 11.007L1.34088 14.472L4.89588 13.492L3.23888 10.952L0.327881 11.007Z" fill="#E27625"/>
<path id="Vector_3" d="M4.70704 6.66007L3.71704 8.15207L7.24104 8.31207L7.12404 4.52007L4.70704 6.66007ZM11.69 6.66007L9.23504 4.47607L9.15504 8.31107L12.679 8.15107L11.689 6.65807L11.69 6.66007ZM4.89704 13.4921L7.02904 12.4621L5.19304 11.0321L4.89704 13.4921ZM9.36704 12.4621L11.493 13.4921L11.203 11.0321L9.36704 12.4621Z" fill="#E27625"/>
<path id="Vector_4" d="M11.493 13.4929L9.36697 12.4629L9.53997 13.8439L9.52097 14.4299L11.493 13.4929ZM4.89697 13.4929L6.87497 14.4299L6.86297 13.8439L7.02897 12.4629L4.89697 13.4929Z" fill="#D5BFB2"/>
<path id="Vector_5" d="M6.91204 10.1189L5.14404 9.59988L6.39304 9.02588L6.91304 10.1179L6.91204 10.1189ZM9.48404 10.1189L10.004 9.02688L11.258 9.60088L9.48404 10.1189Z" fill="#233447"/>
<path id="Vector_6" d="M4.89797 13.4941L5.20697 10.9541L3.24097 11.0091L4.89797 13.4941ZM11.19 10.9511L11.493 13.4911L13.156 11.0071L11.19 10.9511ZM12.679 8.1521L9.15497 8.3121L9.48297 10.1201L10.002 9.0281L11.257 9.6011L12.679 8.1521ZM5.14597 9.6011L6.39397 9.0281L6.91397 10.1191L7.24097 8.3131L3.71797 8.1531L5.14597 9.6001V9.6011Z" fill="#CC6228"/>
<path id="Vector_7" d="M3.71802 8.1521L5.19502 11.0321L5.14502 9.6021L3.71802 8.1521ZM11.258 9.6011L11.203 11.0321L12.68 8.1521L11.258 9.6021V9.6011ZM7.24002 8.3131L6.91202 10.1191L7.32602 12.2531L7.41902 9.4411L7.23902 8.3121L7.24002 8.3131ZM9.15602 8.3131L8.98302 9.4351L9.07002 12.2531L9.48402 10.1191L9.15602 8.3131Z" fill="#E27525"/>
<path id="Vector_8" d="M9.48404 10.1201L9.07004 12.2531L9.36704 12.4631L11.203 11.0331L11.258 9.60205L9.48404 10.1201ZM5.14404 9.60205L5.19404 11.0321L7.03004 12.4621L7.32604 12.2531L6.91204 10.1201L5.14404 9.60205Z" fill="#F5841F"/>
<path id="Vector_9" d="M9.52097 14.4299L9.53897 13.8439L9.37897 13.7079H7.01697L6.86297 13.8439L6.87497 14.4299L4.89697 13.4919L5.58897 14.0589L6.99197 15.0279H9.39697L10.807 14.0589L11.493 13.4919L9.52097 14.4299Z" fill="#C0AC9D"/>
<path id="Vector_10" d="M9.36704 12.4629L9.07004 12.2529H7.32604L7.03004 12.4629L6.86304 13.8449L7.01704 13.7089H9.38004L9.54004 13.8449L9.36804 12.4629H9.36704Z" fill="#161616"/>
<path id="Vector_11" d="M15.673 5.15603L16.198 2.60303L15.407 0.229027L9.36702 4.69903L11.69 6.66003L14.973 7.61603L15.696 6.77103L15.381 6.54303L15.881 6.08703L15.498 5.79103L15.999 5.40803L15.672 5.15603H15.673ZM0.198021 2.60303L0.730021 5.15603L0.390021 5.40803L0.897022 5.79103L0.513021 6.08703L1.01402 6.54303L0.699021 6.77103L1.42202 7.61603L4.70502 6.66003L7.03002 4.70003L0.990021 0.228027L0.197021 2.60303H0.198021Z" fill="#763E1A"/>
<path id="Vector_12" d="M14.9739 7.61595L11.6899 6.65995L12.6799 8.15195L11.2019 11.032L13.1549 11.008H16.0729L14.9729 7.61595H14.9739ZM4.70488 6.65995L1.42188 7.61595L0.327881 11.008H3.23888L5.19288 11.032L3.71588 8.15195L4.70488 6.65995ZM9.15588 8.31195L9.36588 4.69795L10.3189 2.12695H6.07788L7.02988 4.69795L7.23988 8.31195L7.31988 9.44695L7.32588 12.252H9.06988L9.07588 9.44695L9.15588 8.31195Z" fill="#F5841F"/>
</g>
<defs>
<clipPath id="clip0_16201_1845">
<rect width="17" height="16" fill="white"/>
</clipPath>
</defs>
</svg>
