<svg width="16" height="16" viewBox="0 0 16 16" fill="none" xmlns="http://www.w3.org/2000/svg">
  <rect width="16" height="16" rx="4" fill="#ACFCED" />
  <path fill-rule="evenodd" clip-rule="evenodd"
    d="M13.0026 4.01178C13.369 3.93785 13.7099 4.22146 13.7039 4.59516L13.6443 8.28146C13.6363 8.77314 13.0624 9.03658 12.6844 8.72208L11.551 7.77913L8.95289 11.2388C8.79899 11.4367 8.57221 11.5646 8.32327 11.594C8.07433 11.6234 7.82399 11.5518 7.62825 11.3952L5.40078 9.61324L3.40998 12.2352L2 11.0015L4.58105 7.70493C4.91116 7.32765 5.47978 7.27713 5.87124 7.5903L8.05706 9.33896L10.1093 6.57966L9.13006 5.76502C8.75203 5.45051 8.90667 4.83829 9.3887 4.74102L13.0026 4.01178Z"
    fill="black" />
</svg>