<svg width="89" height="89" viewBox="0 0 89 89" fill="none" xmlns="http://www.w3.org/2000/svg">
  <g clip-path="url(#clip0_15811_509)">
    <rect y="18.6348" width="72" height="72" rx="16" transform="rotate(-15 0 18.6348)" fill="#131419"/>
    <path fill-rule="evenodd" clip-rule="evenodd" d="M15.8278 26.817C15.2032 26.9844 14.8326 27.6264 14.9999 28.2509L26.8172 72.3537C26.9846 72.9782 27.6265 73.3488 28.2511 73.1815L48.6062 67.7273L43.7581 49.6339C43.5907 49.0094 43.9614 48.3674 44.5859 48.2001C45.2105 48.0327 45.8524 48.4034 46.0198 49.0279L50.8679 67.1213L72.3538 61.3642C72.9784 61.1968 73.349 60.5548 73.1817 59.9303L67.4245 38.4444L49.3311 43.2925C48.7065 43.4599 48.0646 43.0892 47.8972 42.4647C47.7299 41.8402 48.1005 41.1982 48.7251 41.0308L66.8185 36.1827L61.3644 15.8276C61.197 15.2031 60.5551 14.8324 59.9305 14.9998L38.4446 20.7569L43.2927 38.8503C43.46 39.4748 43.0894 40.1168 42.4649 40.2842C41.8403 40.4515 41.1983 40.0809 41.031 39.4563L36.1829 21.3629L15.8278 26.817Z" fill="#FF4500"/>
  </g>
  <rect x="-1.83712" y="17.5741" width="75" height="75" rx="17.5" transform="rotate(-15 -1.83712 17.5741)" stroke="#202329" stroke-width="3"/>
  <defs>
    <clipPath id="clip0_15811_509">
      <rect y="18.6348" width="72" height="72" rx="16" transform="rotate(-15 0 18.6348)" fill="white"/>
    </clipPath>
  </defs>
</svg>
