<svg width="93" height="93" viewBox="0 0 93 93" fill="none" xmlns="http://www.w3.org/2000/svg">
  <g clip-path="url(#clip0_15811_511)">
    <rect y="25.108" width="72" height="72" rx="16" transform="rotate(-20.4092 0 25.108)" fill="#131419"/>
    <g filter="url(#filter0_d_15811_511)">
      <path fill-rule="evenodd" clip-rule="evenodd" d="M60.0016 19.4831L71.2059 57.2613L71.1699 57.3373C71.3807 58.2539 71.3324 59.0911 70.9975 59.823C69.4819 63.134 62.4985 63.4131 53.5409 61.0448L54.654 58.6127C56.9168 59.1923 59.0235 59.5879 60.9091 59.7954C63.453 60.0759 65.4418 59.9974 66.8178 59.6687C68.2328 59.3304 68.5435 58.8554 68.6025 58.7267C68.6612 58.5984 68.8175 58.0527 68.1486 56.7607C67.498 55.5049 66.2573 53.9481 64.3825 52.2062C60.8687 48.9418 55.5228 45.3909 49.0758 42.3184L35.6275 71.7038L34.5862 67.6501L46.6805 41.2226C40.1416 38.3518 33.9597 36.6269 29.1925 36.1018C26.6488 35.8216 24.66 35.9001 23.284 36.2288C21.869 36.5671 21.5582 37.0421 21.4995 37.1703C21.4406 37.2991 21.2843 37.8448 21.9532 39.1368C22.6042 40.3929 23.8445 41.9494 25.7196 43.6911C27.1091 44.9826 28.7856 46.3183 30.7034 47.6519L29.5903 50.084C21.9428 44.8531 17.5893 39.3857 19.1043 36.0745C19.4395 35.3421 20.0423 34.758 20.8748 34.3181C20.8851 34.2934 20.896 34.2688 20.9076 34.2445L56.8226 18.0282L59.2458 16.9346L60.0016 19.4831ZM44.6458 26.417L55.751 21.4028L52.3805 28.7683C49.4468 27.513 46.7773 26.8097 44.6457 26.4167M39.9645 28.5299L29.0849 33.4423C34.2478 33.952 40.8666 35.7898 47.7768 38.8272L51.2839 31.1638C48.1194 29.8153 45.2918 29.1537 43.2001 28.831C42.2962 28.6887 41.3855 28.5939 40.4717 28.5469C40.2724 28.5376 40.1032 28.5317 39.9645 28.5299ZM53.6697 32.2803L50.172 39.9231C56.9896 43.1681 62.7085 46.9768 66.4691 50.5521L62.966 38.7412C62.8706 38.6464 62.7534 38.5336 62.6142 38.4025C61.951 37.7832 61.2608 37.1933 60.5457 36.6346C58.9373 35.3708 56.6354 33.782 53.6699 32.2798M54.767 29.8832C57.6282 31.3253 59.9131 32.8504 61.599 34.1317L58.1478 22.4951L54.767 29.8832ZM37.144 44.1282L31.9644 55.4461L33.0061 59.4997L39.9195 44.3931L37.144 44.1282ZM51.0966 49.5085L44.1916 64.5961L47.9402 62.7348L53.2117 51.2153L51.0966 49.5085Z" fill="url(#paint0_linear_15811_511)"/>
    </g>
  </g>
  <rect x="-1.92892" y="24.2252" width="75" height="75" rx="17.5" transform="rotate(-20.4092 -1.92892 24.2252)" stroke="#202329" stroke-width="3"/>
  <defs>
    <filter id="filter0_d_15811_511" x="17.4927" y="15.6221" width="55.1165" height="57.3942" filterUnits="userSpaceOnUse" color-interpolation-filters="sRGB">
      <feFlood flood-opacity="0" result="BackgroundImageFix"/>
      <feColorMatrix in="SourceAlpha" type="matrix" values="0 0 0 0 0 0 0 0 0 0 0 0 0 0 0 0 0 0 127 0" result="hardAlpha"/>
      <feOffset/>
      <feGaussianBlur stdDeviation="0.65625"/>
      <feComposite in2="hardAlpha" operator="out"/>
      <feColorMatrix type="matrix" values="0 0 0 0 1 0 0 0 0 0.426332 0 0 0 0 0.388542 0 0 0 0.8 0"/>
      <feBlend mode="normal" in2="BackgroundImageFix" result="effect1_dropShadow_15811_511"/>
      <feBlend mode="normal" in="SourceGraphic" in2="effect1_dropShadow_15811_511" result="shape"/>
    </filter>
    <linearGradient id="paint0_linear_15811_511" x1="16.7173" y1="32.7585" x2="75.0679" y2="59.4638" gradientUnits="userSpaceOnUse">
      <stop stop-color="#FFB0AB"/>
      <stop offset="0.464" stop-color="#FF6D63"/>
      <stop offset="1" stop-color="#FF4337"/>
    </linearGradient>
    <clipPath id="clip0_15811_511">
      <rect y="25.108" width="72" height="72" rx="16" transform="rotate(-20.4092 0 25.108)" fill="white"/>
    </clipPath>
  </defs>
</svg>
