<svg width="18" height="18" viewBox="0 0 18 18" fill="none" xmlns="http://www.w3.org/2000/svg">
  <path fill-rule="evenodd" clip-rule="evenodd" d="M8.07946 0.183769C8.14873 0.112707 8.23441 0.0596512 8.32901 0.0292469C8.42362 -0.00115743 8.52425 -0.00798357 8.62212 0.00936565C11.4308 0.507396 12.5957 2.51164 13.0438 4.28739C13.2665 5.16967 13.3198 6.01464 13.3189 6.63298C13.3189 6.77847 13.3152 6.91277 13.3105 7.03215C13.5229 6.96873 13.87 6.77194 14.19 6.09205C14.3079 5.8393 14.4725 5.57723 14.7205 5.41775C14.8645 5.32377 15.033 5.27384 15.2051 5.27412C15.3857 5.27412 15.5419 5.33288 15.6645 5.40656C15.8918 5.54365 16.0481 5.76096 16.1548 5.94189C16.2689 6.13588 16.3671 6.36158 16.4523 6.59474C16.7797 7.49101 17.0024 8.75474 17.008 9.41598C17.2476 12.3678 16.3653 14.5436 14.7981 15.9724C13.245 17.3882 11.0978 18 8.93087 18C6.73592 18 4.60552 17.2558 3.07205 15.7878C1.53857 14.3198 0.568079 12.0423 0.854638 9.39359C1.1412 6.74493 3.36489 4.92065 5.16783 3.90594L5.38957 3.7819L5.39008 3.78161C6.2319 3.30982 6.92407 2.92191 7.39833 2.45382C7.64253 2.21133 7.80532 1.96884 7.89234 1.7077C7.97841 1.45029 8.00461 1.136 7.92041 0.729364C7.90019 0.63239 7.90411 0.531954 7.93184 0.436842C7.95957 0.34173 8.01025 0.254839 8.07946 0.183769ZM6.90611 10.149V11.1465C6.90611 11.7111 6.45204 12.1689 5.89202 12.1689C5.33201 12.1689 4.87794 11.7111 4.87794 11.1465V10.149C4.87794 9.58442 5.33197 9.12662 5.89202 9.12662C6.45204 9.12662 6.90611 9.58438 6.90611 10.149ZM13.2441 10.1492V11.1466C13.2441 11.7113 12.7901 12.1691 12.23 12.169C11.67 12.169 11.216 11.7113 11.216 11.1466V10.1492C11.216 9.58458 11.67 9.12678 12.23 9.12678C12.7901 9.12678 13.2441 9.58454 13.2441 10.1492ZM7.73602 13.5842C7.40037 13.338 6.92828 13.4074 6.67792 13.7412C6.42589 14.0773 6.49399 14.554 6.83003 14.806L6.8305 14.8064L6.83099 14.8067L6.83201 14.8075L6.83427 14.8092L6.83956 14.8131L6.85332 14.823C6.86388 14.8305 6.87725 14.8398 6.89335 14.8506C6.92553 14.8723 6.96878 14.9 7.02261 14.9318C7.13007 14.9952 7.28087 15.0752 7.47091 15.1539C7.85081 15.3111 8.39356 15.4652 9.06101 15.4652C9.7311 15.4652 10.2513 15.3098 10.6157 15.1417C10.7967 15.0581 10.9377 14.9721 11.0388 14.9021C11.0894 14.8671 11.1301 14.836 11.161 14.811C11.1765 14.7985 11.1895 14.7876 11.2002 14.7784L11.2143 14.766L11.22 14.7608L11.2225 14.7585L11.2237 14.7575L11.2242 14.7569L11.2248 14.7564C11.5334 14.4715 11.5527 13.9904 11.2678 13.6817C10.9865 13.377 10.5138 13.3543 10.2048 13.628C10.201 13.6311 10.1904 13.6394 10.173 13.6515C10.1367 13.6766 10.0718 13.7174 9.97821 13.7605C9.79326 13.8459 9.48952 13.9441 9.06101 13.9441C8.62988 13.9441 8.2853 13.8446 8.05252 13.7483C7.93623 13.7002 7.84935 13.6534 7.79572 13.6218C7.769 13.606 7.75085 13.5942 7.74177 13.5881L7.73602 13.5842Z" fill="#FF79C2"/>
</svg>
