<svg width="88" height="88" viewBox="0 0 88 88" fill="none" xmlns="http://www.w3.org/2000/svg">
  <rect x="-1.81608" y="16.1785" width="75" height="75" rx="17.5" transform="rotate(-13.8823 -1.81608 16.1785)" fill="#131419"/>
  <rect x="-1.81608" y="16.1785" width="75" height="75" rx="17.5" transform="rotate(-13.8823 -1.81608 16.1785)" stroke="#202329" stroke-width="3"/>
  <path fill-rule="evenodd" clip-rule="evenodd" d="M27.3646 68.1966L20.2731 69.9493C17.484 60.8493 17.1034 42.1954 35.2191 34.6073C32.7726 33.6629 29.705 31.1013 30.9612 29.0203C32.2174 26.9394 34.9249 27.7456 36.3302 28.3573C36.1959 26.62 36.4697 23.0114 38.6388 22.4752C40.808 21.9391 42.7313 25.0048 43.4218 26.6047C44.2764 25.2869 46.506 22.9654 48.587 24.2216C50.6679 25.4778 49.1984 29.382 47.5689 31.7436C66.4366 30.6936 74.8711 46.8474 76.7968 55.9796L69.4967 57.7838C67.5027 50.0142 59.3015 35.5163 42.4487 39.6814C25.5958 43.8466 25.3706 60.427 27.3646 68.1966ZM41.5762 54.0611C42.2025 56.5953 41.5896 58.9267 40.2073 59.2683C38.825 59.61 37.1967 57.8325 36.5704 55.2983C35.944 52.764 36.5569 50.4327 37.9392 50.091C39.3215 49.7494 40.9498 51.5269 41.5762 54.0611ZM54.3906 55.763C55.7729 55.4214 56.3857 53.09 55.7594 50.5558C55.1331 48.0215 53.5047 46.2441 52.1224 46.5857C50.7401 46.9273 50.1273 49.2587 50.7536 51.7929C51.3799 54.3272 53.0082 56.1046 54.3906 55.763Z" fill="#FFE806"/>
</svg>
