<svg width="121" height="17" viewBox="0 0 121 17" fill="none" xmlns="http://www.w3.org/2000/svg">
<path id="Union" fill-rule="evenodd" clip-rule="evenodd" d="M63.3694 16.2906C62.4495 16.2906 61.5668 16.2239 60.7211 16.0904C59.8754 15.9568 59.1039 15.7714 58.4066 15.534C57.7241 15.2818 57.1306 15.0073 56.6262 14.7105L58.6514 10.8382C59.23 11.1646 59.8086 11.4391 60.3872 11.6616C60.9807 11.8693 61.5668 12.0251 62.1454 12.129C62.7389 12.2328 63.3249 12.2848 63.9035 12.2848C64.3635 12.2848 64.7418 12.2477 65.0385 12.1735C65.3501 12.0993 65.5801 11.9954 65.7284 11.8619C65.8916 11.7135 65.9733 11.5503 65.9733 11.3723C65.9733 11.1349 65.8397 10.942 65.5727 10.7937C65.3056 10.6453 64.9495 10.5118 64.5044 10.3931C64.0742 10.2744 63.592 10.1557 63.0578 10.037C62.5386 9.90347 62.0119 9.74027 61.4777 9.54739C60.9436 9.33968 60.454 9.08003 60.0089 8.76846C59.5787 8.45689 59.23 8.06372 58.9629 7.58895C58.6959 7.11418 58.5623 6.53555 58.5623 5.85306C58.5623 4.66613 58.8739 3.63498 59.4971 2.75962C60.135 1.88426 61.0401 1.20919 62.2122 0.734414C63.3991 0.244805 64.8086 0 66.4406 0C67.5979 0 68.6735 0.118693 69.6676 0.356079C70.6765 0.578629 71.5444 0.905035 72.2714 1.3353L70.3797 5.16316C69.7566 4.7774 69.0741 4.48809 68.3323 4.29521C67.6053 4.10234 66.8634 4.0059 66.1068 4.0059C65.6023 4.0059 65.1795 4.05783 64.8382 4.16168C64.497 4.2507 64.2374 4.37681 64.0593 4.54002C63.8961 4.70322 63.8145 4.87384 63.8145 5.05188C63.8145 5.28927 63.948 5.48956 64.2151 5.65277C64.4822 5.80113 64.8382 5.93466 65.2833 6.05336C65.7284 6.15721 66.2106 6.27591 66.7299 6.40944C67.264 6.52813 67.7907 6.68391 68.31 6.87679C68.8441 7.05483 69.3337 7.29963 69.7788 7.6112C70.2239 7.90794 70.58 8.29369 70.8471 8.76846C71.1142 9.2284 71.2477 9.79961 71.2477 10.4821C71.2477 11.6394 70.9287 12.6557 70.2907 13.531C69.6527 14.3916 68.7403 15.0666 67.5534 15.5562C66.3813 16.0458 64.9866 16.2906 63.3694 16.2906ZM76.2986 16.0904C77.1443 16.2239 78.0271 16.2906 78.947 16.2906C80.5642 16.2906 81.9588 16.0458 83.1309 15.5562C84.3178 15.0666 85.2303 14.3916 85.8683 13.531C86.5063 12.6557 86.8252 11.6394 86.8252 10.4821C86.8252 9.79961 86.6917 9.2284 86.4247 8.76846C86.1576 8.29369 85.8015 7.90794 85.3564 7.6112C84.9113 7.29963 84.4217 7.05483 83.8876 6.87679C83.3683 6.68391 82.8416 6.52813 82.3075 6.40944C81.7882 6.27591 81.306 6.15721 80.8609 6.05336C80.4158 5.93466 80.0597 5.80113 79.7927 5.65277C79.5256 5.48956 79.3921 5.28927 79.3921 5.05188C79.3921 4.87384 79.4737 4.70322 79.6369 4.54002C79.8149 4.37681 80.0746 4.2507 80.4158 4.16168C80.7571 4.05783 81.1799 4.0059 81.6843 4.0059C82.441 4.0059 83.1828 4.10234 83.9098 4.29521C84.6517 4.48809 85.3342 4.7774 85.9573 5.16316L87.849 1.3353C87.122 0.905035 86.254 0.578629 85.2451 0.356079C84.2511 0.118693 83.1754 0 82.0182 0C80.3861 0 78.9767 0.244805 77.7897 0.734414C76.6176 1.20919 75.7126 1.88426 75.0746 2.75962C74.4515 3.63498 74.1399 4.66613 74.1399 5.85306C74.1399 6.53555 74.2734 7.11418 74.5405 7.58895C74.8076 8.06372 75.1562 8.45689 75.5865 8.76846C76.0316 9.08003 76.5212 9.33968 77.0553 9.54739C77.5894 9.74027 78.1161 9.90347 78.6354 10.037C79.1695 10.1557 79.6517 10.2744 80.082 10.3931C80.5271 10.5118 80.8832 10.6453 81.1502 10.7937C81.4173 10.942 81.5508 11.1349 81.5508 11.3723C81.5508 11.5503 81.4692 11.7135 81.306 11.8619C81.1576 11.9954 80.9277 12.0993 80.6161 12.1735C80.3194 12.2477 79.941 12.2848 79.4811 12.2848C78.9025 12.2848 78.3164 12.2328 77.723 12.129C77.1443 12.0251 76.5583 11.8693 75.9648 11.6616C75.3862 11.4391 74.8075 11.1646 74.2289 10.8382L72.2037 14.7105C72.7082 15.0073 73.3016 15.2818 73.9841 15.534C74.6814 15.7714 75.4529 15.9568 76.2986 16.0904ZM93.7751 11.9732L94.1858 9.92572H100.785L101.542 6.14238H94.9447L95.3107 4.31747H102.811L103.612 0.356079H90.9487L87.833 15.9346H100.785L101.587 11.9732H93.7751ZM106.704 15.9346L107.84 10.2159L103.944 0.356079H109.219L111.336 5.75152L115.673 0.356079H120.947L113.077 10.2908L111.956 15.9346H106.704ZM45.5207 10.2159L44.3844 15.9346H49.6366L50.758 10.2908L58.6276 0.356079H53.3532L49.0163 5.75152L46.8992 0.356079H41.6248L45.5207 10.2159ZM25.8738 6.06951L26.9541 0.667867H33.9867C35.6336 0.667867 37.0505 0.934927 38.2374 1.46905C39.4243 2.00317 40.3368 2.76725 40.9748 3.76131C41.6127 4.74053 41.9317 5.91262 41.9317 7.2776C41.9317 8.65741 41.6869 9.89627 41.1973 10.9942C40.7225 12.0921 40.0475 13.0342 39.1721 13.8206C38.3116 14.6069 37.2878 15.2078 36.1009 15.6232C34.914 16.0386 33.6084 16.2464 32.184 16.2464H23.8384L25.7989 6.44386C25.7581 6.59533 25.7081 6.73343 25.656 6.85485C25.447 7.3422 25.1293 7.75626 24.8306 8.08478C24.2257 8.74988 23.3687 9.41925 22.4069 10.0595C21.7349 10.5069 20.9678 10.9688 20.1245 11.4339C19.6826 12.2775 19.1152 13.0281 18.4222 13.6858C17.5469 14.5166 16.5083 15.162 15.3066 15.6219C14.1048 16.067 12.7917 16.2896 11.3674 16.2896C10.4938 16.2896 9.68295 16.203 8.93488 16.0298C7.97141 16.3027 7.06783 16.521 6.24757 16.6789C5.11294 16.8974 4.03266 17.0216 3.13503 16.972C2.69165 16.9474 2.17476 16.8753 1.68394 16.6746C1.18811 16.4718 0.523414 16.0503 0.187331 15.2299C-0.148753 14.4094 0.0292466 13.6428 0.240343 13.1504C0.449304 12.6631 0.76702 12.249 1.06579 11.9205C1.65028 11.2778 2.4702 10.6311 3.39268 10.0105C3.37409 9.78654 3.36479 9.55806 3.36479 9.32504C3.36479 7.94523 3.60218 6.69154 4.07695 5.56395C4.56656 4.42153 5.24905 3.43489 6.12441 2.60404C6.99977 1.77318 8.03834 1.13521 9.24011 0.690108C10.4419 0.230172 11.7549 0.000204757 13.1792 0.000204757C14.7964 0.000204757 16.1911 0.296938 17.3632 0.890403C18.5102 1.46393 19.4009 2.25222 20.0353 3.25528C21.0278 3.08176 21.9662 2.98934 22.7613 3.03331C23.2047 3.05783 23.7216 3.13 24.2124 3.3307C24.7082 3.53346 25.3729 3.95493 25.709 4.77539C25.898 5.23686 25.9244 5.68131 25.8738 6.06951ZM29.914 12.1514H32.3621C33.2968 12.1514 34.0757 11.9511 34.6989 11.5506C35.3368 11.1351 35.819 10.5862 36.1454 9.90369C36.4718 9.20636 36.635 8.43486 36.635 7.58917C36.635 6.98086 36.5089 6.469 36.2567 6.05357C36.0193 5.63815 35.6558 5.31916 35.1662 5.09661C34.6914 4.87406 34.098 4.76278 33.3858 4.76278H31.3829L29.914 12.1514ZM5.42988 13.3684C5.00615 13.474 4.55416 13.3223 4.32176 12.9526C4.15669 12.6801 4.01298 12.3971 3.89062 12.1037C2.53315 13.0997 1.82428 13.9498 2.03807 14.4718C2.53469 15.6841 7.8219 14.666 13.8474 12.1978C19.8729 9.72957 24.3549 6.74587 23.8583 5.53351C23.6439 5.01016 22.5368 4.90245 20.863 5.1476C20.9084 5.32698 20.9468 5.50993 20.9779 5.69646C21.0864 6.3453 20.7429 6.97108 20.1815 7.31388C18.9181 8.08526 17.514 8.84334 15.9976 9.56582C15.7281 9.69422 15.4261 9.38717 15.516 9.10249C15.6941 8.52386 15.7831 7.91556 15.7831 7.27758C15.7831 6.98493 15.7539 6.71116 15.6955 6.45628C14.537 6.83849 13.3091 7.29126 12.049 7.80746C10.8538 8.29705 9.71932 8.80691 8.67241 9.31921C8.70671 9.78942 8.82176 10.2142 9.01756 10.5936C9.26978 11.0535 9.61844 11.4096 10.0635 11.6618C10.1948 11.7338 10.1907 11.9436 10.0491 11.9924C8.4679 12.5382 6.91836 12.9972 5.42988 13.3684ZM11.2908 5.95672C10.5094 6.27684 9.74979 6.60667 9.0195 6.9418C9.19311 6.47226 9.42985 6.05006 9.72972 5.67522C10.0858 5.23012 10.5161 4.88146 11.0205 4.62924C11.525 4.37702 12.0962 4.25091 12.7341 4.25091C13.3721 4.25091 13.9137 4.37702 14.3588 4.62924C14.4201 4.66288 14.4795 4.69836 14.5368 4.73569C13.4883 5.0941 12.3984 5.50301 11.2908 5.95672Z" fill="url(#paint0_linear_16699_20388)"/>
<defs>
<linearGradient id="paint0_linear_16699_20388" x1="0" y1="8.49142" x2="120.947" y2="8.49142" gradientUnits="userSpaceOnUse">
<stop stop-color="white"/>
<stop offset="1" stop-color="#999999"/>
</linearGradient>
</defs>
</svg>
