<svg width="200" height="200" viewBox="0 0 200 200" fill="none" xmlns="http://www.w3.org/2000/svg">
<rect width="200" height="200" rx="50" fill="url(#paint0_linear_2462_16)"/>
<rect width="200" height="200" rx="50" fill="url(#paint1_linear_2462_16)" fill-opacity="0.2"/>
<path fill-rule="evenodd" clip-rule="evenodd" d="M146.325 84.2042C146.172 62.5278 127.419 45 104.308 45C84.3099 45 67.5748 58.1243 63.3307 75.7042C62.149 75.6076 60.9527 75.5582 59.7442 75.5582C37.2418 75.5582 19 92.6599 19 113.756C19 134.852 37.2418 151.954 59.7442 151.954C71.5998 151.954 82.2727 147.206 89.7183 139.629C95.2801 148.537 105.435 154.5 117.041 154.5C130.282 154.5 141.635 146.738 146.432 135.696C148.829 136.334 151.355 136.674 153.965 136.674C169.436 136.674 181.977 124.703 181.977 109.936C181.977 95.1686 169.436 83.1975 153.965 83.1975C151.316 83.1975 148.753 83.5484 146.325 84.2042Z" fill="black"/>
<defs>
<linearGradient id="paint0_linear_2462_16" x1="62.5" y1="65.2778" x2="130.556" y2="173.611" gradientUnits="userSpaceOnUse">
<stop stop-color="#EEDEF8"/>
<stop offset="1" stop-color="#FEEFD0"/>
</linearGradient>
<linearGradient id="paint1_linear_2462_16" x1="0" y1="100" x2="81.9444" y2="100" gradientUnits="userSpaceOnUse">
<stop stop-color="#FDF3F2"/>
<stop offset="1" stop-color="white" stop-opacity="0"/>
</linearGradient>
</defs>
</svg>
