<svg width="17" height="17" viewBox="0 0 17 17" fill="none" xmlns="http://www.w3.org/2000/svg">
  <path d="M8.5 0C3.8063 0 0 3.8063 0 8.5C0 13.1937 3.8063 17 8.5 17C13.1937 17 17 13.1937 17 8.5C17 3.8063 13.1962 0 8.5 0ZM13.5201 11.2183C13.5002 11.2467 13.4758 11.2717 13.4479 11.2922L9.928 13.8958C9.8791 13.9317 9.82123 13.9534 9.76078 13.9584C9.70033 13.9635 9.63966 13.9517 9.58547 13.9245C9.53129 13.8972 9.4857 13.8555 9.45374 13.8039C9.42178 13.7524 9.40471 13.693 9.4044 13.6323V11.9561H6.528C4.4778 11.968 3.366 10.9539 3.1875 8.91565C3.366 9.10265 4.14375 10.2017 6.528 10.2017C8.1158 10.2017 9.0763 10.1847 9.4044 10.1481V8.53995C9.40441 8.47979 9.42096 8.42079 9.45224 8.3694C9.48352 8.31802 9.52833 8.27622 9.58176 8.24858C9.6352 8.22094 9.6952 8.20853 9.75522 8.21269C9.81523 8.21686 9.87295 8.23744 9.92205 8.2722L13.4402 10.7576C13.5119 10.8081 13.5606 10.885 13.5756 10.9714C13.5905 11.0578 13.5706 11.1466 13.5201 11.2183ZM10.4737 6.79405C8.8859 6.79405 7.92625 6.8119 7.59815 6.8476V8.4558C7.59841 8.51617 7.582 8.57544 7.55074 8.62709C7.51948 8.67874 7.47458 8.72076 7.42097 8.74853C7.36737 8.7763 7.30714 8.78874 7.24692 8.78448C7.18669 8.78022 7.12882 8.75943 7.07965 8.7244L3.5615 6.239C3.51882 6.20925 3.48384 6.16976 3.45947 6.1238C3.4351 6.07783 3.42205 6.02672 3.42138 5.9747C3.42072 5.92268 3.43247 5.87125 3.45565 5.82467C3.47884 5.7781 3.51279 5.73773 3.5547 5.7069L7.07285 3.10335C7.12175 3.06745 7.17962 3.04578 7.24007 3.04072C7.30052 3.03566 7.36119 3.04742 7.41538 3.07469C7.46956 3.10195 7.51515 3.14368 7.54711 3.19524C7.57906 3.2468 7.59614 3.30619 7.59645 3.36685V5.04305H10.4729C12.5231 5.03115 13.6349 6.0452 13.8134 8.0835C13.6349 7.8931 12.8571 6.7932 10.4746 6.7932L10.4737 6.79405Z" fill="#00D1FF"/>
</svg>
