<svg width="17" height="18" viewBox="0 0 17 18" fill="none" xmlns="http://www.w3.org/2000/svg">
<path id="Subtract" fill-rule="evenodd" clip-rule="evenodd" d="M7.2749 0.183769C7.34416 0.112707 7.42985 0.0596512 7.52445 0.0292469C7.61905 -0.00115743 7.71969 -0.00798357 7.81755 0.00936565C10.6263 0.507396 11.7911 2.51164 12.2393 4.28739C12.4619 5.16967 12.5153 6.01464 12.5143 6.63298C12.5143 6.77847 12.5106 6.91277 12.5059 7.03215C12.7183 6.96873 13.0654 6.77194 13.3854 6.09205C13.5033 5.8393 13.668 5.57723 13.9159 5.41775C14.0599 5.32377 14.2284 5.27384 14.4005 5.27412C14.5811 5.27412 14.7374 5.33288 14.8599 5.40656C15.0873 5.54365 15.2435 5.76096 15.3502 5.94189C15.4643 6.13588 15.5626 6.36158 15.6477 6.59474C15.9752 7.49101 16.1979 8.75474 16.2035 9.41598C16.443 12.3678 15.5607 14.5436 13.9935 15.9724C12.4404 17.3882 10.2932 18 8.12631 18C5.93135 18 3.80096 17.2558 2.26748 15.7878C0.734008 14.3198 -0.236486 12.0423 0.0500727 9.39359C0.336632 6.74493 2.56033 4.92065 4.36326 3.90594L4.585 3.7819L4.58552 3.78161C5.42734 3.30982 6.11951 2.92191 6.59377 2.45382C6.83796 2.21133 7.00076 1.96884 7.08777 1.7077C7.17385 1.45029 7.20005 1.136 7.11584 0.729364C7.09562 0.63239 7.09955 0.531954 7.12728 0.436842C7.155 0.34173 7.20569 0.254839 7.2749 0.183769ZM6.10141 10.1494V11.1468C6.10141 11.7114 5.64734 12.1692 5.08733 12.1692C4.52731 12.1692 4.07324 11.7114 4.07324 11.1468V10.1494C4.07324 9.58475 4.52728 9.12695 5.08733 9.12695C5.64734 9.12695 6.10141 9.58471 6.10141 10.1494ZM12.4394 10.1495V11.147C12.4394 11.7116 11.9854 12.1694 11.4254 12.1694C10.8653 12.1694 10.4113 11.7116 10.4113 11.147V10.1495C10.4113 9.58491 10.8653 9.12711 11.4254 9.12711C11.9854 9.12711 12.4394 9.58487 12.4394 10.1495ZM6.93096 13.5847C6.59531 13.3385 6.12322 13.408 5.87286 13.7418C5.62083 14.0778 5.68894 14.5545 6.02497 14.8066L6.02544 14.8069L6.02593 14.8073L6.02696 14.808L6.02921 14.8097L6.03451 14.8136L6.04826 14.8235C6.05883 14.831 6.07219 14.8403 6.08829 14.8512C6.12048 14.8728 6.16373 14.9006 6.21755 14.9323C6.32502 14.9958 6.47581 15.0758 6.66586 15.1544C7.04576 15.3116 7.5885 15.4657 8.25596 15.4657C8.92604 15.4657 9.44625 15.3103 9.81059 15.1422C9.99168 15.0586 10.1327 14.9726 10.2338 14.9027C10.2843 14.8677 10.3251 14.8365 10.356 14.8116C10.3715 14.7991 10.3845 14.7881 10.3951 14.7789L10.4092 14.7665L10.4149 14.7614L10.4174 14.7591L10.4186 14.758L10.4192 14.7575L10.4197 14.757C10.7284 14.4721 10.7476 13.9909 10.4627 13.6822C10.1814 13.3775 9.70877 13.3549 9.39977 13.6286C9.39594 13.6317 9.38531 13.64 9.36793 13.652C9.33169 13.6771 9.26672 13.7179 9.17315 13.7611C8.9882 13.8464 8.68447 13.9446 8.25596 13.9446C7.82482 13.9446 7.48025 13.8452 7.24747 13.7489C7.13118 13.7007 7.0443 13.654 6.99067 13.6223C6.96395 13.6066 6.9458 13.5947 6.93672 13.5886L6.93096 13.5847Z" fill="#FF79C2"/>
</svg>
