<svg width="86" height="86" viewBox="0 0 86 86" fill="none" xmlns="http://www.w3.org/2000/svg">
  <g clip-path="url(#clip0_15811_519)">
    <rect x="15.1047" width="72" height="72" rx="16" transform="rotate(12.1099 15.1047 0)" fill="url(#paint0_linear_15811_519)"/>
    <g clip-path="url(#clip1_15811_519)">
      <path d="M17.2251 34.5071L39.5652 13.4304L45.4808 27.8277L34.0706 38.4433L17.3422 34.854C17.2812 34.8409 17.2812 34.8409 17.2333 34.7663C17.1723 34.7532 17.1855 34.6917 17.1855 34.6917C17.1987 34.6301 17.1987 34.6301 17.2119 34.5686C17.1508 34.5555 17.2119 34.5686 17.2251 34.5071Z" fill="#7F4AFE"/>
      <path d="M68.4482 45.4976L56.7209 17.1113L45.4808 27.8277L51.4574 42.2382L68.1858 45.8275C68.2468 45.8406 68.2468 45.8406 68.3211 45.7921C68.3822 45.8052 68.3954 45.7437 68.3954 45.7437C68.4086 45.6822 68.4086 45.6822 68.4218 45.6207C68.496 45.5723 68.435 45.5592 68.4482 45.4976Z" fill="#7F4AFE"/>
      <path d="M67.9878 49.1314C67.3097 52.5897 65.8989 55.8908 63.9304 58.8148C61.9619 61.7388 59.4356 64.2857 56.4655 66.2226C53.4954 68.1594 50.2036 69.5124 46.8127 70.1363C43.4218 70.7602 39.8444 70.7649 36.3644 70.0182C32.9455 69.2846 29.6718 67.8743 26.7874 65.8396C23.9031 63.805 21.4428 61.2822 19.5898 58.3104C17.7367 55.3387 16.4035 52.028 15.821 48.4923C15.2863 45.0312 15.354 41.4419 16.1542 38.0099L32.6384 41.5467C32.3612 42.8387 32.2804 44.1084 32.518 45.3821C32.7556 46.6558 33.1896 47.9073 33.8595 48.952C34.5162 50.0582 35.47 50.9707 36.5244 51.7118C37.5788 52.4528 38.747 52.9609 40.0291 53.236C41.3112 53.5111 42.5851 53.527 43.8507 53.2837C45.1163 53.0404 46.3126 52.5249 47.4132 51.8601C48.4659 51.1207 49.4229 50.232 50.1011 49.1548C50.8403 48.0907 51.3007 46.838 51.5647 45.6076L67.9878 49.1314Z" fill="#0166FF"/>
    </g>
  </g>
  <defs>
    <linearGradient id="paint0_linear_15811_519" x1="51.1047" y1="0" x2="51.1047" y2="72" gradientUnits="userSpaceOnUse">
      <stop stop-color="#292C47"/>
      <stop offset="1" stop-color="#121425"/>
    </linearGradient>
    <clipPath id="clip0_15811_519">
      <rect x="15.1047" width="72" height="72" rx="16" transform="rotate(12.1099 15.1047 0)" fill="white"/>
    </clipPath>
    <clipPath id="clip1_15811_519">
      <rect width="53.0133" height="56" fill="white" transform="translate(22.2262 9.71008) rotate(12.1099)"/>
    </clipPath>
  </defs>
</svg>
