<svg width="21" height="21" viewBox="0 0 21 21" fill="none" xmlns="http://www.w3.org/2000/svg">
  <path fill-rule="evenodd" clip-rule="evenodd" d="M15.1292 17.9408C19.1359 15.6276 20.4149 10.3419 17.986 6.13492C15.5571 1.92794 10.3401 0.39276 6.3334 2.706C6.00103 2.8979 5.68743 3.11024 5.39316 3.34074C4.97703 3.56262 4.55976 3.79909 4.14191 4.04033C0.135261 6.35357 -1.21892 11.5611 1.20998 15.768C3.63888 19.975 8.93244 21.4341 12.9391 19.1208C13.2845 18.9214 13.6232 18.7346 13.951 18.5538C14.0768 18.4844 14.201 18.4159 14.3234 18.348C14.5965 18.2287 14.8655 18.0931 15.1292 17.9408Z" fill="url(#paint0_linear_15811_1328)"/>
  <ellipse cx="10.7313" cy="10.3226" rx="7.29968" ry="7.70522" transform="rotate(-30 10.7313 10.3226)" fill="black"/>
  <path fill-rule="evenodd" clip-rule="evenodd" d="M10.1919 5.64177L7.13796 6.46007C6.87123 6.53154 6.71294 6.80571 6.78441 7.07244L7.26015 8.84792C7.33162 9.11466 7.60579 9.27295 7.87252 9.20148L10.6767 8.4501C11.5873 8.20609 12.5234 8.7465 12.7674 9.65714C13.0114 10.5678 12.471 11.5038 11.5603 11.7478L8.75614 12.4992C8.4894 12.5706 8.33111 12.8448 8.40258 13.1115L8.89078 14.9335C8.96225 15.2003 9.23642 15.3586 9.50316 15.2871L12.5571 14.4688C14.9946 13.8157 16.4412 11.3102 15.788 8.87268C15.1349 6.43516 12.6294 4.98863 10.1919 5.64177Z" fill="#EBF479"/>
  <defs>
    <linearGradient id="paint0_linear_15811_1328" x1="9.6081" y1="20.2163" x2="9.6081" y2="1.62878" gradientUnits="userSpaceOnUse">
      <stop stop-color="#FFA563"/>
      <stop offset="1" stop-color="#EBF479"/>
    </linearGradient>
  </defs>
</svg>
