<svg width="14" height="14" viewBox="0 0 14 14" fill="none" xmlns="http://www.w3.org/2000/svg">
<path d="M1 6.2C0.558172 6.2 0.2 6.55817 0.2 7C0.2 7.44183 0.558172 7.8 1 7.8L1 6.2ZM13.5657 7.56569C13.8781 7.25327 13.8781 6.74674 13.5657 6.43432L8.47452 1.34315C8.1621 1.03073 7.65557 1.03073 7.34315 1.34315C7.03073 1.65557 7.03073 2.1621 7.34315 2.47452L11.8686 7L7.34315 11.5255C7.03073 11.8379 7.03073 12.3444 7.34315 12.6569C7.65556 12.9693 8.1621 12.9693 8.47452 12.6569L13.5657 7.56569ZM1 7.8L13 7.8L13 6.2L1 6.2L1 7.8Z" fill="#979ABE"/>
</svg>
