<svg width="1349" height="261" viewBox="0 0 1349 261" fill="none" xmlns="http://www.w3.org/2000/svg">
<path d="M18.3864 1L1 15.5506V35.9213L9.69318 44.6517V56.2921H1V91.2135L6.5 96V105L1 111.584V230.899L27.0795 257.09H128.5L137.193 239.629H145.886L1246.47 251.27H1255.16L1260.95 230.899H1269.65L1278.34 260H1324.7L1347.89 236.719V216.348L1342.09 210.528V198.888H1347.89V152.326L1336.3 140.685V129.045L1347.89 117.404V70.8427L1342.09 65.0225L1347.89 56.2921V18.4607L1330.5 1H105.318L93.7273 7.5L82.1364 1H18.3864Z" fill="#2F2F2F" stroke="white" stroke-opacity="0.2"/>
</svg>
