<svg width="94" height="97" viewBox="0 0 94 97" fill="none" xmlns="http://www.w3.org/2000/svg">
<path d="M2.71081 7.7761L2 8.37541V9.30515V16.2265V17.0481L2.57754 17.6324L4.93182 20.0144V21.1478H4H2V23.1478V35.013V36.0764L2.88162 36.6711L5.92104 38.7212L3.09719 40.1497L2 40.7048V41.9344V82.4737V83.2953L2.57754 83.8796L11.373 92.7785L11.9602 93.3726H12.7955H47H48.2425L48.793 92.2587L51.1743 87.44H51.8566L54.1888 90.5861L54.7884 91.395H55.7955H58.7273H60.2407L60.652 89.9386L62.1588 84.6026L64.628 92.9299L65.0524 94.3613H66.5455H82.1818H83.0171L83.6043 93.7673L91.4225 85.8571L92 85.2728V84.4512V77.5299V76.7083L91.4225 76.1239L90.0455 74.7308V73.5973H92V71.5973V55.7771V54.9555L91.4225 54.3711L88.0909 51.0004V48.6885L91.4225 45.3178L92 44.7335V43.9119V28.0917V27.2701L91.4225 26.6857L90.6074 25.8611L91.6701 24.2483L92 23.7475V23.1478V10.2939V9.47233L91.4225 8.88799L85.5588 2.9554L84.9716 2.36133H84.1364H39.1818H38.3465L37.7594 2.9554L35.2727 5.47128L32.7861 2.9554L32.1989 2.36133H31.3636H9.86364H9.13302L8.57445 2.83228L2.71081 7.7761Z" fill="#1D1D1D" stroke="url(#paint0_linear_18_483)" stroke-width="4"/>
<defs>
<linearGradient id="paint0_linear_18_483" x1="47" y1="4.36133" x2="47" y2="92.3613" gradientUnits="userSpaceOnUse">
<stop stop-color="white"/>
<stop offset="1" stop-color="#999999"/>
</linearGradient>
</defs>
</svg>
