<svg width="88" height="75" viewBox="0 0 88 75" fill="none" xmlns="http://www.w3.org/2000/svg">
<mask id="mask0_497_258" style="mask-type:alpha" maskUnits="userSpaceOnUse" x="0" y="0" width="88" height="75">
<rect width="88" height="75" fill="#D9D9D9"/>
</mask>
<g mask="url(#mask0_497_258)">
<path d="M6.86364 1.36133L1 6.30515V13.2265L3.93182 16.1928V20.1478H1V32.013L6.86364 35.9681L1 38.9344V79.4737L9.79545 88.3726H44L46.9318 82.44H49.8636L52.7955 86.395H55.7273L57.6818 79.4737H60.6136L63.5455 89.3613H79.1818L87 81.4512V74.5299L85.0455 72.5523V68.5973H87V52.7771L83.0909 48.822V44.8669L87 40.9119V25.0917L85.0455 23.1141L87 20.1478V7.29391L81.1364 1.36133H36.1818L32.2727 5.31638L28.3636 1.36133H6.86364Z" fill="black"/>
<path d="M0.677703 5.92289L0.5 6.07271V6.30515V13.2265V13.4319L0.644386 13.578L3.43182 16.3982V19.6478H1H0.5V20.1478V32.013V32.2789L0.720404 32.4275L5.87799 35.9064L0.774297 38.4882L0.5 38.627V38.9344V79.4737V79.6791L0.644386 79.8252L9.43984 88.724L9.58663 88.8726H9.79545H44H44.3106L44.4482 88.5941L47.2424 82.94H49.6119L52.3938 86.6928L52.5437 86.895H52.7955H55.7273H56.1056L56.2085 86.5309L58.0602 79.9737H60.2404L63.0661 89.5035L63.1722 89.8613H63.5455H79.1818H79.3906L79.5374 89.7128L87.3556 81.8027L87.5 81.6566V81.4512V74.5299V74.3245L87.3556 74.1784L85.5455 72.3469V69.0973H87H87.5V68.5973V52.7771V52.5717L87.3556 52.4256L83.5909 48.6166V45.0723L87.3556 41.2634L87.5 41.1173V40.9119V25.0917V24.8863L87.3556 24.7402L85.6859 23.0509L87.4175 20.423L87.5 20.2978V20.1478V7.29391V7.08852L87.3556 6.94243L81.492 1.00985L81.3452 0.861328H81.1364H36.1818H35.973L35.8262 1.00985L32.2727 4.60511L28.7192 1.00985L28.5725 0.861328H28.3636H6.86364H6.68098L6.54134 0.979066L0.677703 5.92289Z" stroke="white" stroke-opacity="0.2"/>
</g>
</svg>
