<svg width="315" height="243" viewBox="0 0 315 243" fill="none" xmlns="http://www.w3.org/2000/svg">
<g filter="url(#filter0_d_32_65)">
<path d="M8.02882 26.5159L43.6167 1H156.424H159.781H273.259L306.833 26.5159V47.3314V99.0346L300.79 105.078V113.135H294.746V126.565H300.79L309.519 131.937V166.853V173.568V214.527V222.585L300.79 233.329H290.046H206.784L195.369 222.585H187.983V233.329H175.225H140.98H128.222V222.585H122.179L111.435 233.329H24.1441H16.0865L5.34294 222.585V214.527V131.937L14.072 126.565H20.1153V113.135H14.072V105.078L8.02882 99.0346V47.3314V26.5159Z" fill="url(#paint0_linear_32_65)"/>
<path d="M8.02882 26.5159L43.6167 1H156.424H159.781H273.259L306.833 26.5159M8.02882 26.5159H69.1326M8.02882 26.5159V47.3314M14.072 105.078L8.02882 99.0346V47.3314M14.072 105.078V113.135H20.1153M14.072 105.078H100.02M300.79 105.078L306.833 99.0346V47.3314M300.79 105.078V113.135H294.746M300.79 105.078H208.127M306.833 26.5159H178.582M306.833 26.5159V47.3314M87.2622 26.5159H128.222M140.98 26.5159H159.781M167.839 26.5159H173.21M8.02882 47.3314H306.833M294.746 113.135V126.565M294.746 113.135H206.784C202.925 88.8238 180.304 70.1614 152.976 70.1614C125.647 70.1614 103.026 88.8238 99.1675 113.135H20.1153M294.746 126.565H300.79L309.519 131.937M294.746 126.565H206.784C202.925 150.876 180.304 170.882 152.976 170.882C125.647 170.882 102.536 150.876 98.6772 126.565H20.1153M20.1153 126.565V113.135M20.1153 126.565H14.072L5.34294 131.937M5.34294 131.937V222.585M5.34294 131.937H100.02M5.34294 222.585L16.0865 233.329H24.1441M5.34294 222.585H64.4323M122.179 222.585L111.435 233.329H24.1441M122.179 222.585H128.222M122.179 222.585H95.9914M128.222 222.585L135.608 210.499H181.268L187.983 222.585M128.222 222.585V233.329H140.98M187.983 222.585H195.369M187.983 222.585V233.329H175.225M187.983 222.585H159.781M195.369 222.585L206.784 233.329H290.046M195.369 222.585H220.213M309.519 131.937V166.853V173.568V214.527M309.519 131.937H204.769M4 214.527H14.072V222.585L24.1441 233.329M309.519 214.527V222.585L300.79 233.329H290.046M309.519 214.527H300.79V222.585M300.79 222.585L290.046 233.329M300.79 222.585H259.159M71.147 222.585H87.2622M144.337 222.585H153.738M140.98 233.329V227.285H175.225V233.329M140.98 233.329H175.225" stroke="white" stroke-opacity="0.2"/>
<path d="M14.072 127.236H20.1153H98.6772C98.9656 129.053 99.3615 130.845 99.8587 132.608C106.014 154.426 127.69 171.553 152.976 171.553C178.262 171.553 199.518 154.426 205.61 132.608C206.102 130.845 206.495 129.053 206.784 127.236H294.746H300.79L309.519 132.608V167.524V174.239V215.198V223.256L300.79 234H290.046H206.784L195.369 223.256H187.983V234H175.225H140.98H128.222V223.256H122.179L111.435 234H24.1441H16.0865L5.34294 223.256V215.198V132.608L14.072 127.236Z" fill="url(#paint1_linear_32_65)"/>
<path d="M5.34294 132.608L14.072 127.236H20.1153H98.6772C102.536 151.547 125.647 171.553 152.976 171.553C180.304 171.553 202.925 151.547 206.784 127.236H294.746H300.79L309.519 132.608M5.34294 132.608V223.256M5.34294 132.608H100.02M5.34294 223.256L16.0865 234H24.1441M5.34294 223.256H64.4323M122.179 223.256L111.435 234H24.1441M122.179 223.256H128.222M122.179 223.256H95.9914M128.222 223.256L135.608 211.17H181.268L187.983 223.256M128.222 223.256V234H140.98M187.983 223.256H195.369M187.983 223.256V234H175.225M187.983 223.256H159.781M195.369 223.256L206.784 234H290.046M195.369 223.256H220.213M309.519 132.608V167.524V174.239V215.198M309.519 132.608H204.769M4 215.198H14.072V223.256L24.1441 234M309.519 215.198V223.256L300.79 234H290.046M309.519 215.198H300.79V223.256M300.79 223.256L290.046 234M300.79 223.256H259.159M71.147 223.256H87.2622M144.337 223.256H153.738M140.98 234V227.956H175.225V234M140.98 234H175.225" stroke="white" stroke-opacity="0.2"/>
<path d="M43.6182 1L8.03027 26.5159V47.3314V99.0346L14.0735 105.078V113.135H20.1167H99.1689C103.028 88.8238 125.649 70.1614 152.977 70.1614C180.305 70.1614 202.926 88.8238 206.785 113.135H294.748H300.791V105.078L306.834 99.0346V47.3314V26.5159L273.261 1H159.782H156.425H43.6182Z" fill="url(#paint2_linear_32_65)"/>
<path d="M8.03027 26.5159L43.6182 1H156.425H159.782H273.261L306.834 26.5159M8.03027 26.5159H69.134M8.03027 26.5159V47.3314M14.0735 105.078L8.03027 99.0346V47.3314M14.0735 105.078V113.135H20.1167H99.1689C103.028 88.8238 125.649 70.1614 152.977 70.1614C180.305 70.1614 202.926 88.8238 206.785 113.135H294.748H300.791V105.078M14.0735 105.078H100.022M300.791 105.078L306.834 99.0346V47.3314M300.791 105.078H208.128M306.834 26.5159H178.584M306.834 26.5159V47.3314M87.2637 26.5159H128.223M140.981 26.5159H159.782M167.84 26.5159H173.212M8.03027 47.3314H82.7313M306.834 47.3314H232.133" stroke="white" stroke-opacity="0.2"/>
<path d="M105.486 113.807C105.205 115.784 105.059 117.801 105.059 119.85C105.059 121.438 105.316 124.551 105.316 124.551M105.486 113.807C108.614 91.8184 128.576 74.8619 152.734 74.8619C177.381 74.8619 197.661 92.5126 200.151 115.15M105.486 113.807C102.658 113.359 95.3195 114.479 95.3195 119.85C95.3195 125.222 106.659 124.551 105.316 124.551M105.316 124.551C107.807 147.188 128.086 164.839 152.734 164.839C177.137 164.839 197.258 147.536 200.072 125.222M200.151 115.15C200.321 116.695 200.408 118.263 200.408 119.85C200.408 121.668 200.294 123.461 200.072 125.222M200.151 115.15C203.481 115.15 210.141 116.09 210.141 119.85C210.141 123.611 203.428 124.998 200.072 125.222" stroke="white" stroke-opacity="0.2"/>
<g filter="url(#filter1_i_32_65)">
<path d="M294.745 125.393V111.963H206.783C202.5 86.5 183 65 152.974 65C122.949 65 103.025 87.6517 99.1662 111.963H20.114V125.393H98.676C99.1662 140 114.5 174 152.974 174C191.449 174 206.783 141 206.783 125.393H294.745Z" fill="#EE643A"/>
</g>
<mask id="mask0_32_65" style="mask-type:luminance" maskUnits="userSpaceOnUse" x="105" y="72" width="96" height="96">
<path d="M201 72H105V168H201V72Z" fill="white"/>
</mask>
<g mask="url(#mask0_32_65)">
<path d="M153 168C179.51 168 201 146.51 201 120C201 93.4904 179.51 72 153 72C126.49 72 105 93.4904 105 120C105 146.51 126.49 168 153 168Z" fill="url(#paint3_radial_32_65)"/>
<mask id="mask1_32_65" style="mask-type:alpha" maskUnits="userSpaceOnUse" x="105" y="72" width="96" height="96">
<path d="M153 168C179.51 168 201 146.51 201 120C201 93.4904 179.51 72 153 72C126.49 72 105 93.4904 105 120C105 146.51 126.49 168 153 168Z" fill="url(#paint4_radial_32_65)"/>
</mask>
<g mask="url(#mask1_32_65)">
<path opacity="0.2" d="M103.401 98.4014C103.401 97.3411 104.26 96.4814 105.321 96.4814H131.561C132.621 96.4814 133.481 97.3411 133.481 98.4014V143.041C133.481 144.102 132.621 144.961 131.561 144.961H105.321C104.26 144.961 103.401 144.102 103.401 143.041V98.4014Z" fill="url(#paint5_linear_32_65)"/>
<path opacity="0.2" d="M162.92 137.122C162.92 136.061 163.78 135.202 164.84 135.202H199.08C200.141 135.202 201 136.061 201 137.122V153.762C201 154.822 200.141 155.682 199.08 155.682H164.84C163.78 155.682 162.92 154.822 162.92 153.762V137.122Z" fill="#E74310"/>
<path opacity="0.2" d="M185.161 142.241C186.221 142.241 187.081 143.1 187.081 144.161V176.481C187.081 177.541 186.221 178.401 185.161 178.401H172.521C171.46 178.401 170.601 177.541 170.601 176.481V144.161C170.601 143.1 171.46 142.241 172.521 142.241H185.161Z" fill="#DF3600"/>
<path opacity="0.1" d="M143.881 103.201C144.941 103.201 145.801 104.06 145.801 105.121V130.881C145.801 131.941 144.941 132.801 143.881 132.801H129.641C128.58 132.801 127.721 131.941 127.721 130.881V105.121C127.721 104.06 128.58 103.201 129.641 103.201H143.881Z" fill="url(#paint6_linear_32_65)"/>
<path opacity="0.1" d="M114.12 110.881C114.12 109.821 114.98 108.961 116.04 108.961H139.4C140.46 108.961 141.32 109.821 141.32 110.881V135.361C141.32 136.421 140.46 137.281 139.4 137.281H116.04C114.98 137.281 114.12 136.421 114.12 135.361V110.881Z" fill="url(#paint7_linear_32_65)"/>
<path opacity="0.2" d="M201 85.1217C202.061 85.1217 202.92 85.9814 202.92 87.0417V119.362C202.92 120.422 202.061 121.282 201 121.282H171.24C170.18 121.282 169.32 120.422 169.32 119.362V87.0417C169.32 85.9814 170.18 85.1217 171.24 85.1217H201Z" fill="#FF9776"/>
<path opacity="0.2" d="M182.921 63.681C183.981 63.681 184.841 64.5406 184.841 65.601V101.121C184.841 102.181 183.981 103.041 182.921 103.041H166.281C165.221 103.041 164.361 102.181 164.361 101.121V65.601C164.361 64.5406 165.221 63.681 166.281 63.681H182.921Z" fill="#FFCA8C"/>
<path opacity="0.2" d="M191.56 70.0813C192.621 70.0813 193.48 70.9409 193.48 72.0013V111.521C193.48 112.582 192.621 113.441 191.56 113.441H155.4C154.34 113.441 153.48 112.582 153.48 111.521V72.0013C153.48 70.9409 154.34 70.0813 155.4 70.0813H191.56Z" fill="url(#paint8_linear_32_65)"/>
<path opacity="0.1" d="M138.92 58.8811C139.981 58.8811 140.84 59.7407 140.84 60.8011V87.3611C140.84 88.4214 139.981 89.2811 138.92 89.2811H126.28C125.22 89.2811 124.36 88.4214 124.36 87.3611V60.8011C124.36 59.7407 125.22 58.8811 126.28 58.8811H138.92Z" fill="#DF3600"/>
<path opacity="0.1" d="M140.361 141.281C141.421 141.281 142.281 142.14 142.281 143.201V166.081C142.281 167.141 141.421 168.001 140.361 168.001H108.201C107.14 168.001 106.281 167.141 106.281 166.081L106.281 143.201C106.281 142.14 107.14 141.281 108.201 141.281H140.361Z" fill="#DF3600"/>
<path opacity="0.1" d="M168.681 128.481C169.741 128.481 170.601 129.341 170.601 130.401V166.081C170.601 167.141 169.741 168.001 168.681 168.001H131.881C130.82 168.001 129.961 167.141 129.961 166.081V130.401C129.961 129.341 130.82 128.481 131.881 128.481H168.681Z" fill="#FFD494"/>
<path opacity="0.2" d="M156.521 72.0007C157.581 72.0007 158.441 72.8603 158.441 73.9207V83.2007C158.441 84.2611 157.581 85.1207 156.521 85.1207H118.121C117.06 85.1207 116.201 84.2611 116.201 83.2007V73.9207C116.201 72.8603 117.06 72.0007 118.121 72.0007L156.521 72.0007Z" fill="#FFD494"/>
<path opacity="0.1" d="M126.24 167.066L198.146 95.1608L195.68 92.6947L123.774 164.6L126.24 167.066Z" fill="#DF3600"/>
<path opacity="0.1" d="M120.846 161.832L192.752 89.9269L189.541 86.7161L117.635 158.622L120.846 161.832Z" fill="#DF3600"/>
<path opacity="0.1" d="M117.811 158.477L189.717 86.5719L186.506 83.3611L114.601 155.267L117.811 158.477Z" fill="#F45C2C"/>
<path opacity="0.2" d="M114.931 154.958L186.837 83.0525L184.194 80.4099L112.289 152.315L114.931 154.958Z" fill="#F45C2C"/>
<path opacity="0.1" d="M112.283 152.309L184.188 80.4033L181.546 77.7607L109.64 149.666L112.283 152.309Z" fill="#FFBC6E"/>
<path opacity="0.1" d="M110.523 148.789L182.428 76.8838L179.786 74.2413L107.881 146.147L110.523 148.789Z" fill="#DF3600"/>
<path opacity="0.09" d="M102.043 127.669L158.741 70.9707L156.099 68.3281L99.4006 125.026L102.043 127.669Z" fill="#FFD5A4"/>
<path opacity="0.08" d="M99.0029 124.461L155.701 67.7631L153.058 65.1205L96.3604 121.819L99.0029 124.461Z" fill="#FFD5A4"/>
<path opacity="0.05" d="M96.2829 120.782L152.981 64.0842L150.338 61.4417L93.6403 118.14L96.2829 120.782Z" fill="#FFD5A4"/>
<path opacity="0.2" d="M106.523 135.375L172.374 69.5231L169.732 66.8806L103.88 132.732L106.523 135.375Z" fill="#FFD5A4"/>
<path opacity="0.2" d="M108.283 139.536L174.134 73.6842L171.492 71.0417L105.64 136.893L108.283 139.536Z" fill="#FFD5A4"/>
<path opacity="0.1" d="M105.403 130.549L163.849 72.1039L161.206 69.4614L102.761 127.907L105.403 130.549Z" fill="#FFD5A4"/>
<path opacity="0.1" d="M126.134 167.12L198.04 95.2144L192.768 89.9424L120.862 161.848L126.134 167.12Z" fill="#DF3600"/>
<path opacity="0.1" d="M126.134 167.12L198.04 95.2144L192.741 89.9156L120.836 161.821L126.134 167.12Z" fill="#DF3600"/>
</g>
<path d="M152.929 130.358L134.667 119.554L152.929 89.2594L171.175 119.554L152.929 130.358Z" fill="white"/>
<path d="M152.929 148.751L134.667 123.03L152.929 133.816L171.191 123.03L152.929 148.751Z" fill="white"/>
</g>
<g filter="url(#filter2_i_32_65)">
<rect x="140.982" y="227.957" width="34.9164" height="5.37176" fill="#CB4900"/>
</g>
<g filter="url(#filter3_i_32_65)">
<rect x="20.114" y="35.9162" width="34.9164" height="5.37176" fill="#CB4900"/>
</g>
<g filter="url(#filter4_i_32_65)">
<rect x="259.157" y="35.9162" width="34.9164" height="5.37176" fill="#CB4900"/>
</g>
</g>
<defs>
<filter id="filter0_d_32_65" x="0" y="0.5" width="314.019" height="242" filterUnits="userSpaceOnUse" color-interpolation-filters="sRGB">
<feFlood flood-opacity="0" result="BackgroundImageFix"/>
<feColorMatrix in="SourceAlpha" type="matrix" values="0 0 0 0 0 0 0 0 0 0 0 0 0 0 0 0 0 0 127 0" result="hardAlpha"/>
<feOffset dy="4"/>
<feGaussianBlur stdDeviation="2"/>
<feComposite in2="hardAlpha" operator="out"/>
<feColorMatrix type="matrix" values="0 0 0 0 0 0 0 0 0 0 0 0 0 0 0 0 0 0 0.25 0"/>
<feBlend mode="normal" in2="BackgroundImageFix" result="effect1_dropShadow_32_65"/>
<feBlend mode="normal" in="SourceGraphic" in2="effect1_dropShadow_32_65" result="shape"/>
</filter>
<filter id="filter1_i_32_65" x="20.114" y="65" width="274.631" height="113" filterUnits="userSpaceOnUse" color-interpolation-filters="sRGB">
<feFlood flood-opacity="0" result="BackgroundImageFix"/>
<feBlend mode="normal" in="SourceGraphic" in2="BackgroundImageFix" result="shape"/>
<feColorMatrix in="SourceAlpha" type="matrix" values="0 0 0 0 0 0 0 0 0 0 0 0 0 0 0 0 0 0 127 0" result="hardAlpha"/>
<feOffset dy="4"/>
<feGaussianBlur stdDeviation="2"/>
<feComposite in2="hardAlpha" operator="arithmetic" k2="-1" k3="1"/>
<feColorMatrix type="matrix" values="0 0 0 0 0 0 0 0 0 0 0 0 0 0 0 0 0 0 0.25 0"/>
<feBlend mode="normal" in2="shape" result="effect1_innerShadow_32_65"/>
</filter>
<filter id="filter2_i_32_65" x="140.982" y="227.957" width="34.9164" height="9.37177" filterUnits="userSpaceOnUse" color-interpolation-filters="sRGB">
<feFlood flood-opacity="0" result="BackgroundImageFix"/>
<feBlend mode="normal" in="SourceGraphic" in2="BackgroundImageFix" result="shape"/>
<feColorMatrix in="SourceAlpha" type="matrix" values="0 0 0 0 0 0 0 0 0 0 0 0 0 0 0 0 0 0 127 0" result="hardAlpha"/>
<feOffset dy="4"/>
<feGaussianBlur stdDeviation="2"/>
<feComposite in2="hardAlpha" operator="arithmetic" k2="-1" k3="1"/>
<feColorMatrix type="matrix" values="0 0 0 0 0 0 0 0 0 0 0 0 0 0 0 0 0 0 0.25 0"/>
<feBlend mode="normal" in2="shape" result="effect1_innerShadow_32_65"/>
</filter>
<filter id="filter3_i_32_65" x="20.114" y="35.9162" width="34.9164" height="9.37177" filterUnits="userSpaceOnUse" color-interpolation-filters="sRGB">
<feFlood flood-opacity="0" result="BackgroundImageFix"/>
<feBlend mode="normal" in="SourceGraphic" in2="BackgroundImageFix" result="shape"/>
<feColorMatrix in="SourceAlpha" type="matrix" values="0 0 0 0 0 0 0 0 0 0 0 0 0 0 0 0 0 0 127 0" result="hardAlpha"/>
<feOffset dy="4"/>
<feGaussianBlur stdDeviation="2"/>
<feComposite in2="hardAlpha" operator="arithmetic" k2="-1" k3="1"/>
<feColorMatrix type="matrix" values="0 0 0 0 0 0 0 0 0 0 0 0 0 0 0 0 0 0 0.25 0"/>
<feBlend mode="normal" in2="shape" result="effect1_innerShadow_32_65"/>
</filter>
<filter id="filter4_i_32_65" x="259.157" y="35.9162" width="34.9164" height="9.37177" filterUnits="userSpaceOnUse" color-interpolation-filters="sRGB">
<feFlood flood-opacity="0" result="BackgroundImageFix"/>
<feBlend mode="normal" in="SourceGraphic" in2="BackgroundImageFix" result="shape"/>
<feColorMatrix in="SourceAlpha" type="matrix" values="0 0 0 0 0 0 0 0 0 0 0 0 0 0 0 0 0 0 127 0" result="hardAlpha"/>
<feOffset dy="4"/>
<feGaussianBlur stdDeviation="2"/>
<feComposite in2="hardAlpha" operator="arithmetic" k2="-1" k3="1"/>
<feColorMatrix type="matrix" values="0 0 0 0 0 0 0 0 0 0 0 0 0 0 0 0 0 0 0.25 0"/>
<feBlend mode="normal" in2="shape" result="effect1_innerShadow_32_65"/>
</filter>
<linearGradient id="paint0_linear_32_65" x1="156.759" y1="1" x2="156.759" y2="233.329" gradientUnits="userSpaceOnUse">
<stop stop-color="#ADABCF"/>
<stop offset="1"/>
</linearGradient>
<linearGradient id="paint1_linear_32_65" x1="156.759" y1="1.67099" x2="156.759" y2="234" gradientUnits="userSpaceOnUse">
<stop stop-color="#ADABCF"/>
<stop offset="0.9" stop-color="#1E1E1E"/>
<stop offset="1" stop-color="#5B2B17"/>
</linearGradient>
<linearGradient id="paint2_linear_32_65" x1="156.761" y1="1" x2="156.761" y2="113.807" gradientUnits="userSpaceOnUse">
<stop stop-color="#9296C0"/>
<stop offset="0.335" stop-color="#323446"/>
<stop offset="0.775" stop-color="#333545"/>
<stop offset="1" stop-color="#583928"/>
</linearGradient>
<radialGradient id="paint3_radial_32_65" cx="0" cy="0" r="1" gradientUnits="userSpaceOnUse" gradientTransform="translate(136.36 94.96) rotate(54.1675) scale(79.5331)">
<stop stop-color="#FFD794"/>
<stop offset="1" stop-color="#ED5A37"/>
</radialGradient>
<radialGradient id="paint4_radial_32_65" cx="0" cy="0" r="1" gradientUnits="userSpaceOnUse" gradientTransform="translate(136.36 94.96) rotate(54.1675) scale(79.5331)">
<stop stop-color="#FFD794"/>
<stop offset="1" stop-color="#ED5A37"/>
</radialGradient>
<linearGradient id="paint5_linear_32_65" x1="118.441" y1="96.4814" x2="118.441" y2="144.961" gradientUnits="userSpaceOnUse">
<stop stop-color="#FFE090"/>
<stop offset="1" stop-color="#FFE090" stop-opacity="0"/>
</linearGradient>
<linearGradient id="paint6_linear_32_65" x1="136.681" y1="103.201" x2="136.681" y2="130.561" gradientUnits="userSpaceOnUse">
<stop stop-color="#DF3600"/>
<stop offset="1" stop-color="#DF3600" stop-opacity="0"/>
</linearGradient>
<linearGradient id="paint7_linear_32_65" x1="114.12" y1="123.246" x2="139.262" y2="123.246" gradientUnits="userSpaceOnUse">
<stop stop-color="#DF3600"/>
<stop offset="1" stop-color="#DF3600" stop-opacity="0"/>
</linearGradient>
<linearGradient id="paint8_linear_32_65" x1="173.48" y1="70.0813" x2="173.48" y2="113.441" gradientUnits="userSpaceOnUse">
<stop stop-color="#DF3600"/>
<stop offset="1" stop-color="#DF3600" stop-opacity="0"/>
</linearGradient>
</defs>
</svg>
