<svg width="315" height="243" viewBox="0 0 315 243" fill="none" xmlns="http://www.w3.org/2000/svg">
<g filter="url(#filter0_d_1_2)">
<path d="M8.02882 26.5159L43.6167 1H156.424H159.781H273.259L306.833 26.5159V47.3314V99.0346L300.79 105.078V113.135H294.746V126.565H300.79L309.519 131.937V166.853V173.568V214.527V222.585L300.79 233.329H290.046H206.784L195.369 222.585H187.983V233.329H175.225H140.98H128.222V222.585H122.179L111.435 233.329H24.1441H16.0865L5.34294 222.585V214.527V131.937L14.072 126.565H20.1153V113.135H14.072V105.078L8.02882 99.0346V47.3314V26.5159Z" fill="url(#paint0_linear_1_2)"/>
<path d="M8.02882 26.5159L43.6167 1H156.424H159.781H273.259L306.833 26.5159M8.02882 26.5159H69.1326M8.02882 26.5159V47.3314M14.072 105.078L8.02882 99.0346V47.3314M14.072 105.078V113.135H20.1153M14.072 105.078H100.02M300.79 105.078L306.833 99.0346V47.3314M300.79 105.078V113.135H294.746M300.79 105.078H208.127M306.833 26.5159H178.582M306.833 26.5159V47.3314M87.2622 26.5159H128.222M140.98 26.5159H159.781M167.839 26.5159H173.21M8.02882 47.3314H306.833M294.746 113.135V126.565M294.746 113.135H206.784C202.925 88.8238 180.304 70.1614 152.976 70.1614C125.647 70.1614 103.026 88.8238 99.1675 113.135H20.1153M294.746 126.565H300.79L309.519 131.937M294.746 126.565H206.784C202.925 150.876 180.304 170.882 152.976 170.882C125.647 170.882 102.536 150.876 98.6772 126.565H20.1153M20.1153 126.565V113.135M20.1153 126.565H14.072L5.34294 131.937M5.34294 131.937V222.585M5.34294 131.937H100.02M5.34294 222.585L16.0865 233.329H24.1441M5.34294 222.585H64.4323M122.179 222.585L111.435 233.329H24.1441M122.179 222.585H128.222M122.179 222.585H95.9914M128.222 222.585L135.608 210.499H181.268L187.983 222.585M128.222 222.585V233.329H140.98M187.983 222.585H195.369M187.983 222.585V233.329H175.225M187.983 222.585H159.781M195.369 222.585L206.784 233.329H290.046M195.369 222.585H220.213M309.519 131.937V166.853V173.568V214.527M309.519 131.937H204.769M4 214.527H14.072V222.585L24.1441 233.329M309.519 214.527V222.585L300.79 233.329H290.046M309.519 214.527H300.79V222.585M300.79 222.585L290.046 233.329M300.79 222.585H259.159M71.147 222.585H87.2622M144.337 222.585H153.738M140.98 233.329V227.285H175.225V233.329M140.98 233.329H175.225" stroke="white" stroke-opacity="0.2"/>
<path d="M14.072 127.236H20.1153H98.6772C98.9656 129.053 99.3615 130.845 99.8587 132.608C106.014 154.426 127.69 171.553 152.976 171.553C178.262 171.553 199.518 154.426 205.61 132.608C206.102 130.845 206.495 129.053 206.784 127.236H294.746H300.79L309.519 132.608V167.524V174.239V215.198V223.256L300.79 234H290.046H206.784L195.369 223.256H187.983V234H175.225H140.98H128.222V223.256H122.179L111.435 234H24.1441H16.0865L5.34294 223.256V215.198V132.608L14.072 127.236Z" fill="url(#paint1_linear_1_2)"/>
<path d="M5.34294 132.608L14.072 127.236H20.1153H98.6772C102.536 151.548 125.647 171.553 152.976 171.553C180.304 171.553 202.925 151.548 206.784 127.236H294.746H300.79L309.519 132.608M5.34294 132.608V223.256M5.34294 132.608H100.02M5.34294 223.256L16.0865 234H24.1441M5.34294 223.256H64.4323M122.179 223.256L111.435 234H24.1441M122.179 223.256H128.222M122.179 223.256H95.9914M128.222 223.256L135.608 211.17H181.268L187.983 223.256M128.222 223.256V234H140.98M187.983 223.256H195.369M187.983 223.256V234H175.225M187.983 223.256H159.781M195.369 223.256L206.784 234H290.046M195.369 223.256H220.213M309.519 132.608V167.524V174.239V215.198M309.519 132.608H204.769M4 215.198H14.072V223.256L24.1441 234M309.519 215.198V223.256L300.79 234H290.046M309.519 215.198H300.79V223.256M300.79 223.256L290.046 234M300.79 223.256H259.159M71.147 223.256H87.2622M144.337 223.256H153.738M140.98 234V227.956H175.225V234M140.98 234H175.225" stroke="white" stroke-opacity="0.2"/>
<path d="M43.6182 1L8.03027 26.5159V47.3314V99.0346L14.0735 105.078V113.135H20.1167H99.1689C103.028 88.8238 125.649 70.1614 152.977 70.1614C180.305 70.1614 202.926 88.8238 206.785 113.135H294.748H300.791V105.078L306.834 99.0346V47.3314V26.5159L273.261 1H159.782H156.425H43.6182Z" fill="url(#paint2_linear_1_2)"/>
<path d="M8.03027 26.5159L43.6182 1H156.425H159.782H273.261L306.834 26.5159M8.03027 26.5159H69.134M8.03027 26.5159V47.3314M14.0735 105.078L8.03027 99.0346V47.3314M14.0735 105.078V113.135H20.1167H99.1689C103.028 88.8238 125.649 70.1614 152.977 70.1614C180.305 70.1614 202.926 88.8238 206.785 113.135H294.748H300.791V105.078M14.0735 105.078H100.022M300.791 105.078L306.834 99.0346V47.3314M300.791 105.078H208.128M306.834 26.5159H178.584M306.834 26.5159V47.3314M87.2637 26.5159H128.223M140.981 26.5159H159.782M167.84 26.5159H173.212M8.03027 47.3314H82.7313M306.834 47.3314H232.133" stroke="white" stroke-opacity="0.2"/>
<path d="M105.486 113.807C105.205 115.784 105.059 117.801 105.059 119.85C105.059 121.438 105.316 124.551 105.316 124.551M105.486 113.807C108.614 91.8183 128.576 74.8619 152.734 74.8619C177.381 74.8619 197.661 92.5126 200.151 115.15M105.486 113.807C102.658 113.359 95.3195 114.479 95.3195 119.85C95.3195 125.222 106.659 124.551 105.316 124.551M105.316 124.551C107.807 147.188 128.086 164.839 152.734 164.839C177.137 164.839 197.258 147.536 200.072 125.222M200.151 115.15C200.321 116.695 200.408 118.263 200.408 119.85C200.408 121.668 200.294 123.461 200.072 125.222M200.151 115.15C203.481 115.15 210.141 116.09 210.141 119.85C210.141 123.611 203.428 124.998 200.072 125.222" stroke="white" stroke-opacity="0.2"/>
<g filter="url(#filter1_i_1_2)">
<path d="M294.745 125.893V112.463H206.783C202.5 87 183 65.5 152.974 65.5C122.949 65.5 103.025 88.1517 99.1662 112.463H20.114V125.893H98.6759C99.1662 140.5 114.5 174.5 152.974 174.5C191.449 174.5 206.783 141.5 206.783 125.893H294.745Z" fill="#00A3FF"/>
</g>
<circle cx="153" cy="120" r="46.5" fill="white" stroke="#66C8FF" stroke-width="3"/>
<path d="M152.236 106.064V121.739L166.302 113.902L152.236 106.064Z" fill="#CCEDFF"/>
<path d="M168.939 116.514L152.236 126.093V147.217L168.939 116.514Z" fill="#CCEDFF"/>
<path d="M152.169 106.064V121.739L138.103 113.902L152.169 106.064Z" fill="#66C8FF"/>
<path d="M135.466 116.514L152.169 126.093V147.217L135.466 116.514Z" fill="#66C8FF"/>
<path d="M152.236 93V106.062L166.302 113.899L152.236 93Z" fill="#66C8FF"/>
<path d="M168.939 139.152C175.268 130.793 171.576 120.575 168.939 116.512L152.236 147.215C158.379 147.376 164.679 144.779 168.939 139.152Z" fill="#66C8FF"/>
<path d="M138.171 113.899L152.237 93V106.062L138.171 113.899Z" fill="#00A3FF"/>
<path d="M136.413 116.512C132.896 123.478 130.259 132.186 138.171 140.894C141.822 144.913 146.972 147.077 152.237 147.215L136.413 116.512Z" fill="#00A3FF"/>
<g filter="url(#filter2_i_1_2)">
<rect x="140.982" y="227.957" width="34.9164" height="5.37176" fill="#00A3FF"/>
</g>
<g filter="url(#filter3_i_1_2)">
<rect x="20.114" y="35.9162" width="34.9164" height="5.37176" fill="#00A3FF"/>
</g>
<g filter="url(#filter4_i_1_2)">
<rect x="259.157" y="35.9162" width="34.9164" height="5.37176" fill="#00A3FF"/>
</g>
</g>
<path opacity="0.5" d="M20.812 202V193.866C20.812 193.511 20.9007 193.189 21.078 192.9C21.2553 192.601 21.4887 192.363 21.778 192.186C22.0767 192.009 22.4033 191.92 22.758 191.92H28.932C29.2867 191.92 29.6133 192.009 29.912 192.186C30.2107 192.363 30.4487 192.601 30.626 192.9C30.8033 193.189 30.892 193.511 30.892 193.866V202H29.03V198.612H22.66V202H20.812ZM22.66 196.764H29.03V193.95C29.03 193.903 29.0113 193.866 28.974 193.838C28.9367 193.801 28.8947 193.782 28.848 193.782H22.828C22.7813 193.782 22.7393 193.801 22.702 193.838C22.674 193.866 22.66 193.903 22.66 193.95V196.764ZM32.4871 202V191.934H40.6071C40.9618 191.934 41.2885 192.023 41.5871 192.2C41.8858 192.377 42.1238 192.615 42.3011 192.914C42.4785 193.203 42.5671 193.525 42.5671 193.88V196.596C42.5671 196.951 42.4785 197.277 42.3011 197.576C42.1238 197.875 41.8858 198.113 41.5871 198.29C41.2885 198.458 40.9618 198.542 40.6071 198.542L34.3351 198.556V202H32.4871ZM34.5031 196.68H40.5231C40.5698 196.68 40.6118 196.666 40.6491 196.638C40.6865 196.61 40.7051 196.573 40.7051 196.526V193.95C40.7051 193.903 40.6865 193.866 40.6491 193.838C40.6118 193.801 40.5698 193.782 40.5231 193.782H34.5031C34.4565 193.782 34.4145 193.801 34.3771 193.838C34.3491 193.866 34.3351 193.903 34.3351 193.95V196.526C34.3351 196.573 34.3491 196.61 34.3771 196.638C34.4145 196.666 34.4565 196.68 34.5031 196.68ZM51.5973 202L48.5593 198.374H50.9813L53.6133 201.482V202H51.5973ZM43.5613 202V191.934H51.6813C52.036 191.934 52.3627 192.023 52.6613 192.2C52.96 192.377 53.198 192.615 53.3753 192.914C53.5527 193.203 53.6413 193.525 53.6413 193.88V196.596C53.6413 196.951 53.5527 197.277 53.3753 197.576C53.198 197.875 52.96 198.113 52.6613 198.29C52.3627 198.458 52.036 198.542 51.6813 198.542L45.4093 198.556V202H43.5613ZM45.5773 196.68H51.5973C51.644 196.68 51.686 196.666 51.7233 196.638C51.7607 196.61 51.7793 196.573 51.7793 196.526V193.95C51.7793 193.903 51.7607 193.866 51.7233 193.838C51.686 193.801 51.644 193.782 51.5973 193.782H45.5773C45.5307 193.782 45.4887 193.801 45.4513 193.838C45.4233 193.866 45.4093 193.903 45.4093 193.95V196.526C45.4093 196.573 45.4233 196.61 45.4513 196.638C45.4887 196.666 45.5307 196.68 45.5773 196.68ZM67.4294 202L64.3914 198.374H66.8134L69.4454 201.482V202H67.4294ZM59.3934 202V191.934H67.5134C67.868 191.934 68.1947 192.023 68.4934 192.2C68.792 192.377 69.03 192.615 69.2074 192.914C69.3847 193.203 69.4734 193.525 69.4734 193.88V196.596C69.4734 196.951 69.3847 197.277 69.2074 197.576C69.03 197.875 68.792 198.113 68.4934 198.29C68.1947 198.458 67.868 198.542 67.5134 198.542L61.2414 198.556V202H59.3934ZM61.4094 196.68H67.4294C67.476 196.68 67.518 196.666 67.5554 196.638C67.5927 196.61 67.6114 196.573 67.6114 196.526V193.95C67.6114 193.903 67.5927 193.866 67.5554 193.838C67.518 193.801 67.476 193.782 67.4294 193.782H61.4094C61.3627 193.782 61.3207 193.801 61.2834 193.838C61.2554 193.866 61.2414 193.903 61.2414 193.95V196.526C61.2414 196.573 61.2554 196.61 61.2834 196.638C61.3207 196.666 61.3627 196.68 61.4094 196.68ZM70.9741 202V193.866C70.9741 193.511 71.0628 193.189 71.2401 192.9C71.4174 192.601 71.6508 192.363 71.9401 192.186C72.2388 192.009 72.5654 191.92 72.9201 191.92H79.0941C79.4488 191.92 79.7754 192.009 80.0741 192.186C80.3728 192.363 80.6108 192.601 80.7881 192.9C80.9654 193.189 81.0541 193.511 81.0541 193.866V202H79.1921V198.612H72.8221V202H70.9741ZM72.8221 196.764H79.1921V193.95C79.1921 193.903 79.1734 193.866 79.1361 193.838C79.0988 193.801 79.0568 193.782 79.0101 193.782H72.9901C72.9434 193.782 72.9014 193.801 72.8641 193.838C72.8361 193.866 72.8221 193.903 72.8221 193.95V196.764ZM82.6492 202V191.92H84.6792L90.8672 199.284V191.92H92.7292V202H90.6992L84.4972 194.622V202H82.6492ZM96.2437 202C95.889 202 95.5623 201.911 95.2637 201.734C94.9743 201.557 94.741 201.323 94.5637 201.034C94.3863 200.735 94.2977 200.409 94.2977 200.054V193.866C94.2977 193.511 94.3863 193.189 94.5637 192.9C94.741 192.601 94.9743 192.363 95.2637 192.186C95.5623 192.009 95.889 191.92 96.2437 191.92H102.418C102.772 191.92 103.099 192.009 103.398 192.186C103.696 192.363 103.934 192.601 104.112 192.9C104.289 193.189 104.378 193.511 104.378 193.866V194.65H102.516V193.95C102.516 193.903 102.497 193.866 102.46 193.838C102.422 193.801 102.38 193.782 102.334 193.782H96.3137C96.267 193.782 96.225 193.801 96.1877 193.838C96.1597 193.866 96.1457 193.903 96.1457 193.95V199.97C96.1457 200.017 96.1597 200.059 96.1877 200.096C96.225 200.124 96.267 200.138 96.3137 200.138H102.334C102.38 200.138 102.422 200.124 102.46 200.096C102.497 200.059 102.516 200.017 102.516 199.97V198.15H100.234V196.288H104.378V200.054C104.378 200.409 104.289 200.735 104.112 201.034C103.934 201.323 103.696 201.557 103.398 201.734C103.099 201.911 102.772 202 102.418 202H96.2437ZM105.947 202V191.92H115.229V193.782H107.809V196.022H113.773V197.898H107.809V200.138H115.229V202H105.947Z" fill="white"/>
<defs>
<filter id="filter0_d_1_2" x="0" y="0.5" width="314.019" height="242" filterUnits="userSpaceOnUse" color-interpolation-filters="sRGB">
<feFlood flood-opacity="0" result="BackgroundImageFix"/>
<feColorMatrix in="SourceAlpha" type="matrix" values="0 0 0 0 0 0 0 0 0 0 0 0 0 0 0 0 0 0 127 0" result="hardAlpha"/>
<feOffset dy="4"/>
<feGaussianBlur stdDeviation="2"/>
<feComposite in2="hardAlpha" operator="out"/>
<feColorMatrix type="matrix" values="0 0 0 0 0 0 0 0 0 0 0 0 0 0 0 0 0 0 0.25 0"/>
<feBlend mode="normal" in2="BackgroundImageFix" result="effect1_dropShadow_1_2"/>
<feBlend mode="normal" in="SourceGraphic" in2="effect1_dropShadow_1_2" result="shape"/>
</filter>
<filter id="filter1_i_1_2" x="20.114" y="65.5" width="274.631" height="113" filterUnits="userSpaceOnUse" color-interpolation-filters="sRGB">
<feFlood flood-opacity="0" result="BackgroundImageFix"/>
<feBlend mode="normal" in="SourceGraphic" in2="BackgroundImageFix" result="shape"/>
<feColorMatrix in="SourceAlpha" type="matrix" values="0 0 0 0 0 0 0 0 0 0 0 0 0 0 0 0 0 0 127 0" result="hardAlpha"/>
<feOffset dy="4"/>
<feGaussianBlur stdDeviation="2"/>
<feComposite in2="hardAlpha" operator="arithmetic" k2="-1" k3="1"/>
<feColorMatrix type="matrix" values="0 0 0 0 0 0 0 0 0 0 0 0 0 0 0 0 0 0 0.25 0"/>
<feBlend mode="normal" in2="shape" result="effect1_innerShadow_1_2"/>
</filter>
<filter id="filter2_i_1_2" x="140.982" y="227.957" width="34.9164" height="9.37176" filterUnits="userSpaceOnUse" color-interpolation-filters="sRGB">
<feFlood flood-opacity="0" result="BackgroundImageFix"/>
<feBlend mode="normal" in="SourceGraphic" in2="BackgroundImageFix" result="shape"/>
<feColorMatrix in="SourceAlpha" type="matrix" values="0 0 0 0 0 0 0 0 0 0 0 0 0 0 0 0 0 0 127 0" result="hardAlpha"/>
<feOffset dy="4"/>
<feGaussianBlur stdDeviation="2"/>
<feComposite in2="hardAlpha" operator="arithmetic" k2="-1" k3="1"/>
<feColorMatrix type="matrix" values="0 0 0 0 0 0 0 0 0 0 0 0 0 0 0 0 0 0 0.25 0"/>
<feBlend mode="normal" in2="shape" result="effect1_innerShadow_1_2"/>
</filter>
<filter id="filter3_i_1_2" x="20.114" y="35.9162" width="34.9164" height="9.37176" filterUnits="userSpaceOnUse" color-interpolation-filters="sRGB">
<feFlood flood-opacity="0" result="BackgroundImageFix"/>
<feBlend mode="normal" in="SourceGraphic" in2="BackgroundImageFix" result="shape"/>
<feColorMatrix in="SourceAlpha" type="matrix" values="0 0 0 0 0 0 0 0 0 0 0 0 0 0 0 0 0 0 127 0" result="hardAlpha"/>
<feOffset dy="4"/>
<feGaussianBlur stdDeviation="2"/>
<feComposite in2="hardAlpha" operator="arithmetic" k2="-1" k3="1"/>
<feColorMatrix type="matrix" values="0 0 0 0 0 0 0 0 0 0 0 0 0 0 0 0 0 0 0.25 0"/>
<feBlend mode="normal" in2="shape" result="effect1_innerShadow_1_2"/>
</filter>
<filter id="filter4_i_1_2" x="259.157" y="35.9162" width="34.9164" height="9.37176" filterUnits="userSpaceOnUse" color-interpolation-filters="sRGB">
<feFlood flood-opacity="0" result="BackgroundImageFix"/>
<feBlend mode="normal" in="SourceGraphic" in2="BackgroundImageFix" result="shape"/>
<feColorMatrix in="SourceAlpha" type="matrix" values="0 0 0 0 0 0 0 0 0 0 0 0 0 0 0 0 0 0 127 0" result="hardAlpha"/>
<feOffset dy="4"/>
<feGaussianBlur stdDeviation="2"/>
<feComposite in2="hardAlpha" operator="arithmetic" k2="-1" k3="1"/>
<feColorMatrix type="matrix" values="0 0 0 0 0 0 0 0 0 0 0 0 0 0 0 0 0 0 0.25 0"/>
<feBlend mode="normal" in2="shape" result="effect1_innerShadow_1_2"/>
</filter>
<linearGradient id="paint0_linear_1_2" x1="156.759" y1="1" x2="156.759" y2="233.329" gradientUnits="userSpaceOnUse">
<stop stop-color="#ADABCF"/>
<stop offset="1"/>
</linearGradient>
<linearGradient id="paint1_linear_1_2" x1="156.759" y1="1.671" x2="156.759" y2="234" gradientUnits="userSpaceOnUse">
<stop stop-color="#ADABCF"/>
<stop offset="0.9" stop-color="#1E1E1E"/>
<stop offset="1" stop-color="#005484"/>
</linearGradient>
<linearGradient id="paint2_linear_1_2" x1="156.761" y1="1" x2="156.761" y2="113.807" gradientUnits="userSpaceOnUse">
<stop stop-color="#9296C0"/>
<stop offset="0.335" stop-color="#323446"/>
<stop offset="0.775" stop-color="#333545"/>
<stop offset="1" stop-color="#284758"/>
</linearGradient>
</defs>
</svg>
