<svg width="315" height="243" viewBox="0 0 315 243" fill="none" xmlns="http://www.w3.org/2000/svg">
<g filter="url(#filter0_d_32_21)">
<path d="M8.02882 26.5159L43.6167 1H156.424H159.781H273.259L306.833 26.5159V47.3314V99.0346L300.79 105.078V113.135H294.746V126.565H300.79L309.519 131.937V166.853V173.568V214.527V222.585L300.79 233.329H290.046H206.784L195.369 222.585H187.983V233.329H175.225H140.98H128.222V222.585H122.179L111.435 233.329H24.1441H16.0865L5.34294 222.585V214.527V131.937L14.072 126.565H20.1153V113.135H14.072V105.078L8.02882 99.0346V47.3314V26.5159Z" fill="url(#paint0_linear_32_21)"/>
<path d="M8.02882 26.5159L43.6167 1H156.424H159.781H273.259L306.833 26.5159M8.02882 26.5159H69.1326M8.02882 26.5159V47.3314M14.072 105.078L8.02882 99.0346V47.3314M14.072 105.078V113.135H20.1153M14.072 105.078H100.02M300.79 105.078L306.833 99.0346V47.3314M300.79 105.078V113.135H294.746M300.79 105.078H208.127M306.833 26.5159H178.582M306.833 26.5159V47.3314M87.2622 26.5159H128.222M140.98 26.5159H159.781M167.839 26.5159H173.21M8.02882 47.3314H306.833M294.746 113.135V126.565M294.746 113.135H206.784C202.925 88.8238 180.304 70.1614 152.976 70.1614C125.647 70.1614 103.026 88.8238 99.1675 113.135H20.1153M294.746 126.565H300.79L309.519 131.937M294.746 126.565H206.784C202.925 150.876 180.304 170.882 152.976 170.882C125.647 170.882 102.536 150.876 98.6772 126.565H20.1153M20.1153 126.565V113.135M20.1153 126.565H14.072L5.34294 131.937M5.34294 131.937V222.585M5.34294 131.937H100.02M5.34294 222.585L16.0865 233.329H24.1441M5.34294 222.585H64.4323M122.179 222.585L111.435 233.329H24.1441M122.179 222.585H128.222M122.179 222.585H95.9914M128.222 222.585L135.608 210.499H181.268L187.983 222.585M128.222 222.585V233.329H140.98M187.983 222.585H195.369M187.983 222.585V233.329H175.225M187.983 222.585H159.781M195.369 222.585L206.784 233.329H290.046M195.369 222.585H220.213M309.519 131.937V166.853V173.568V214.527M309.519 131.937H204.769M4 214.527H14.072V222.585L24.1441 233.329M309.519 214.527V222.585L300.79 233.329H290.046M309.519 214.527H300.79V222.585M300.79 222.585L290.046 233.329M300.79 222.585H259.159M71.147 222.585H87.2622M144.337 222.585H153.738M140.98 233.329V227.285H175.225V233.329M140.98 233.329H175.225" stroke="white" stroke-opacity="0.2"/>
<path d="M14.072 127.236H20.1153H98.6772C98.9656 129.053 99.3615 130.845 99.8587 132.608C106.014 154.426 127.69 171.553 152.976 171.553C178.262 171.553 199.518 154.426 205.61 132.608C206.102 130.845 206.495 129.053 206.784 127.236H294.746H300.79L309.519 132.608V167.524V174.239V215.198V223.256L300.79 234H290.046H206.784L195.369 223.256H187.983V234H175.225H140.98H128.222V223.256H122.179L111.435 234H24.1441H16.0865L5.34294 223.256V215.198V132.608L14.072 127.236Z" fill="url(#paint1_linear_32_21)"/>
<path d="M5.34294 132.608L14.072 127.236H20.1153H98.6772C102.536 151.547 125.647 171.553 152.976 171.553C180.304 171.553 202.925 151.547 206.784 127.236H294.746H300.79L309.519 132.608M5.34294 132.608V223.256M5.34294 132.608H100.02M5.34294 223.256L16.0865 234H24.1441M5.34294 223.256H64.4323M122.179 223.256L111.435 234H24.1441M122.179 223.256H128.222M122.179 223.256H95.9914M128.222 223.256L135.608 211.17H181.268L187.983 223.256M128.222 223.256V234H140.98M187.983 223.256H195.369M187.983 223.256V234H175.225M187.983 223.256H159.781M195.369 223.256L206.784 234H290.046M195.369 223.256H220.213M309.519 132.608V167.524V174.239V215.198M309.519 132.608H204.769M4 215.198H14.072V223.256L24.1441 234M309.519 215.198V223.256L300.79 234H290.046M309.519 215.198H300.79V223.256M300.79 223.256L290.046 234M300.79 223.256H259.159M71.147 223.256H87.2622M144.337 223.256H153.738M140.98 234V227.956H175.225V234M140.98 234H175.225" stroke="white" stroke-opacity="0.2"/>
<path d="M43.6182 1L8.03027 26.5159V47.3314V99.0346L14.0735 105.078V113.135H20.1167H99.1689C103.028 88.8238 125.649 70.1614 152.977 70.1614C180.305 70.1614 202.926 88.8238 206.785 113.135H294.748H300.791V105.078L306.834 99.0346V47.3314V26.5159L273.261 1H159.782H156.425H43.6182Z" fill="url(#paint2_linear_32_21)"/>
<path d="M8.03027 26.5159L43.6182 1H156.425H159.782H273.261L306.834 26.5159M8.03027 26.5159H69.134M8.03027 26.5159V47.3314M14.0735 105.078L8.03027 99.0346V47.3314M14.0735 105.078V113.135H20.1167H99.1689C103.028 88.8238 125.649 70.1614 152.977 70.1614C180.305 70.1614 202.926 88.8238 206.785 113.135H294.748H300.791V105.078M14.0735 105.078H100.022M300.791 105.078L306.834 99.0346V47.3314M300.791 105.078H208.128M306.834 26.5159H178.584M306.834 26.5159V47.3314M87.2637 26.5159H128.223M140.981 26.5159H159.782M167.84 26.5159H173.212M8.03027 47.3314H82.7313M306.834 47.3314H232.133" stroke="white" stroke-opacity="0.2"/>
<path d="M105.486 113.807C105.205 115.784 105.059 117.801 105.059 119.85C105.059 121.438 105.316 124.551 105.316 124.551M105.486 113.807C108.614 91.8183 128.576 74.8619 152.734 74.8619C177.381 74.8619 197.661 92.5126 200.151 115.15M105.486 113.807C102.658 113.359 95.3195 114.479 95.3195 119.85C95.3195 125.222 106.659 124.551 105.316 124.551M105.316 124.551C107.807 147.188 128.086 164.839 152.734 164.839C177.137 164.839 197.258 147.536 200.072 125.222M200.151 115.15C200.321 116.695 200.408 118.263 200.408 119.85C200.408 121.668 200.294 123.461 200.072 125.222M200.151 115.15C203.481 115.15 210.141 116.09 210.141 119.85C210.141 123.611 203.428 124.998 200.072 125.222" stroke="white" stroke-opacity="0.2"/>
<g filter="url(#filter1_i_32_21)">
<path d="M294.745 125.893V112.463H206.783C202.5 87 183 65.5 152.974 65.5C122.949 65.5 103.025 88.1517 99.1662 112.463H20.114V125.893H98.676C99.1662 140.5 114.5 174.5 152.974 174.5C191.449 174.5 206.783 141.5 206.783 125.893H294.745Z" fill="#A81C2E"/>
</g>
<circle cx="153" cy="120" r="46.5" fill="white" stroke="#FF596E" stroke-width="3"/>
<path d="M139.691 113.216L153.426 106.996V90L139.691 113.216Z" fill="#FF596E"/>
<path d="M153.427 106.995V120.541L167.161 113.216L153.427 106.995Z" fill="#FF596E"/>
<path d="M153.426 106.995V120.541L139.694 113.216L153.426 106.995Z" fill="#800010"/>
<path d="M167.161 113.216L153.427 106.996V90L167.161 113.216Z" fill="#800010"/>
<path d="M153.426 125.77V140.205L139.427 118.303L153.426 125.77Z" fill="#FF596E"/>
<path d="M153.427 125.77V140.205L167.428 118.303L153.427 125.77Z" fill="#800010"/>
<path d="M169.736 121.608L172.909 130.297L179.854 118.971L169.736 121.608Z" fill="#800010"/>
<path d="M172.91 130.297L179.855 128.289V118.971L172.91 130.297Z" fill="#FF596E"/>
<path d="M179.855 128.289L169.736 144.786L162.051 148L172.91 130.298L179.855 128.289Z" fill="#800010"/>
<path d="M127 128.289L137.119 144.786L144.804 148L133.945 130.298L127 128.289Z" fill="#FF596E"/>
<path d="M153.425 148L137.118 121.609L133.944 130.297L144.803 148H153.425Z" fill="#800010"/>
<path d="M137.119 121.608L133.945 130.297L127 118.971L137.119 121.608Z" fill="#FF596E"/>
<path d="M133.945 130.297L127 128.289V118.971L133.945 130.297Z" fill="#800010"/>
<path d="M153.427 148L169.736 121.609L172.91 130.297L162.051 148H153.427Z" fill="#FF596E"/>
<g filter="url(#filter2_i_32_21)">
<rect x="140.982" y="227.957" width="34.9164" height="5.37176" fill="#A11B2C"/>
</g>
<g filter="url(#filter3_i_32_21)">
<rect x="20.114" y="35.9162" width="34.9164" height="5.37176" fill="#A11B2C"/>
</g>
<g filter="url(#filter4_i_32_21)">
<rect x="259.157" y="35.9162" width="34.9164" height="5.37176" fill="#A11B2C"/>
</g>
</g>
<defs>
<filter id="filter0_d_32_21" x="0" y="0.5" width="314.019" height="242" filterUnits="userSpaceOnUse" color-interpolation-filters="sRGB">
<feFlood flood-opacity="0" result="BackgroundImageFix"/>
<feColorMatrix in="SourceAlpha" type="matrix" values="0 0 0 0 0 0 0 0 0 0 0 0 0 0 0 0 0 0 127 0" result="hardAlpha"/>
<feOffset dy="4"/>
<feGaussianBlur stdDeviation="2"/>
<feComposite in2="hardAlpha" operator="out"/>
<feColorMatrix type="matrix" values="0 0 0 0 0 0 0 0 0 0 0 0 0 0 0 0 0 0 0.25 0"/>
<feBlend mode="normal" in2="BackgroundImageFix" result="effect1_dropShadow_32_21"/>
<feBlend mode="normal" in="SourceGraphic" in2="effect1_dropShadow_32_21" result="shape"/>
</filter>
<filter id="filter1_i_32_21" x="20.114" y="65.5" width="274.631" height="113" filterUnits="userSpaceOnUse" color-interpolation-filters="sRGB">
<feFlood flood-opacity="0" result="BackgroundImageFix"/>
<feBlend mode="normal" in="SourceGraphic" in2="BackgroundImageFix" result="shape"/>
<feColorMatrix in="SourceAlpha" type="matrix" values="0 0 0 0 0 0 0 0 0 0 0 0 0 0 0 0 0 0 127 0" result="hardAlpha"/>
<feOffset dy="4"/>
<feGaussianBlur stdDeviation="2"/>
<feComposite in2="hardAlpha" operator="arithmetic" k2="-1" k3="1"/>
<feColorMatrix type="matrix" values="0 0 0 0 0 0 0 0 0 0 0 0 0 0 0 0 0 0 0.25 0"/>
<feBlend mode="normal" in2="shape" result="effect1_innerShadow_32_21"/>
</filter>
<filter id="filter2_i_32_21" x="140.982" y="227.957" width="34.9164" height="9.37177" filterUnits="userSpaceOnUse" color-interpolation-filters="sRGB">
<feFlood flood-opacity="0" result="BackgroundImageFix"/>
<feBlend mode="normal" in="SourceGraphic" in2="BackgroundImageFix" result="shape"/>
<feColorMatrix in="SourceAlpha" type="matrix" values="0 0 0 0 0 0 0 0 0 0 0 0 0 0 0 0 0 0 127 0" result="hardAlpha"/>
<feOffset dy="4"/>
<feGaussianBlur stdDeviation="2"/>
<feComposite in2="hardAlpha" operator="arithmetic" k2="-1" k3="1"/>
<feColorMatrix type="matrix" values="0 0 0 0 0 0 0 0 0 0 0 0 0 0 0 0 0 0 0.25 0"/>
<feBlend mode="normal" in2="shape" result="effect1_innerShadow_32_21"/>
</filter>
<filter id="filter3_i_32_21" x="20.114" y="35.9162" width="34.9164" height="9.37177" filterUnits="userSpaceOnUse" color-interpolation-filters="sRGB">
<feFlood flood-opacity="0" result="BackgroundImageFix"/>
<feBlend mode="normal" in="SourceGraphic" in2="BackgroundImageFix" result="shape"/>
<feColorMatrix in="SourceAlpha" type="matrix" values="0 0 0 0 0 0 0 0 0 0 0 0 0 0 0 0 0 0 127 0" result="hardAlpha"/>
<feOffset dy="4"/>
<feGaussianBlur stdDeviation="2"/>
<feComposite in2="hardAlpha" operator="arithmetic" k2="-1" k3="1"/>
<feColorMatrix type="matrix" values="0 0 0 0 0 0 0 0 0 0 0 0 0 0 0 0 0 0 0.25 0"/>
<feBlend mode="normal" in2="shape" result="effect1_innerShadow_32_21"/>
</filter>
<filter id="filter4_i_32_21" x="259.157" y="35.9162" width="34.9164" height="9.37177" filterUnits="userSpaceOnUse" color-interpolation-filters="sRGB">
<feFlood flood-opacity="0" result="BackgroundImageFix"/>
<feBlend mode="normal" in="SourceGraphic" in2="BackgroundImageFix" result="shape"/>
<feColorMatrix in="SourceAlpha" type="matrix" values="0 0 0 0 0 0 0 0 0 0 0 0 0 0 0 0 0 0 127 0" result="hardAlpha"/>
<feOffset dy="4"/>
<feGaussianBlur stdDeviation="2"/>
<feComposite in2="hardAlpha" operator="arithmetic" k2="-1" k3="1"/>
<feColorMatrix type="matrix" values="0 0 0 0 0 0 0 0 0 0 0 0 0 0 0 0 0 0 0.25 0"/>
<feBlend mode="normal" in2="shape" result="effect1_innerShadow_32_21"/>
</filter>
<linearGradient id="paint0_linear_32_21" x1="156.759" y1="1" x2="156.759" y2="233.329" gradientUnits="userSpaceOnUse">
<stop stop-color="#ADABCF"/>
<stop offset="1"/>
</linearGradient>
<linearGradient id="paint1_linear_32_21" x1="156.759" y1="1.67099" x2="156.759" y2="234" gradientUnits="userSpaceOnUse">
<stop stop-color="#ADABCF"/>
<stop offset="0.9" stop-color="#1E1E1E"/>
<stop offset="1" stop-color="#610000"/>
</linearGradient>
<linearGradient id="paint2_linear_32_21" x1="156.761" y1="1" x2="156.761" y2="113.807" gradientUnits="userSpaceOnUse">
<stop stop-color="#9296C0"/>
<stop offset="0.335" stop-color="#323446"/>
<stop offset="0.775" stop-color="#333545"/>
<stop offset="1" stop-color="#284758"/>
</linearGradient>
</defs>
</svg>
