<svg width="11" height="12" viewBox="0 0 11 12" fill="none" xmlns="http://www.w3.org/2000/svg">
<path d="M2.62573 4.80337L5.46738 3.5163V0L2.62573 4.80337Z" fill="#FF596E"/>
<path d="M5.46753 3.51624V6.31877L8.30919 4.8033L5.46753 3.51624Z" fill="#FF596E"/>
<path d="M5.46752 3.51624V6.31877L2.62634 4.8033L5.46752 3.51624Z" fill="#800010"/>
<path d="M8.30919 4.80337L5.46753 3.5163V0L8.30919 4.80337Z" fill="#800010"/>
<path d="M5.46734 7.40056V10.3871L2.57104 5.85571L5.46734 7.40056Z" fill="#FF596E"/>
<path d="M5.46753 7.40056V10.3871L8.36428 5.85571L5.46753 7.40056Z" fill="#800010"/>
<path d="M8.8418 6.53964L9.49837 8.33737L10.9354 5.9939L8.8418 6.53964Z" fill="#800010"/>
<path d="M9.49854 8.33737L10.9355 7.92182V5.9939L9.49854 8.33737Z" fill="#FF596E"/>
<path d="M10.9355 7.92188L8.84194 11.3351L7.25195 11.9999L9.49851 8.33742L10.9355 7.92188Z" fill="#800010"/>
<path d="M0 7.92188L2.09356 11.3351L3.68354 11.9999L1.43697 8.33742L0 7.92188Z" fill="#FF596E"/>
<path d="M5.46725 11.9999L2.09336 6.53967L1.43677 8.33737L3.68334 11.9999H5.46725Z" fill="#800010"/>
<path d="M2.09356 6.53964L1.43697 8.33737L0 5.9939L2.09356 6.53964Z" fill="#FF596E"/>
<path d="M1.43697 8.33737L0 7.92182V5.9939L1.43697 8.33737Z" fill="#800010"/>
<path d="M5.46753 11.9999L8.84191 6.53967L9.49848 8.33737L7.25192 11.9999H5.46753Z" fill="#FF596E"/>
</svg>
