<svg width="9" height="12" viewBox="0 0 9 12" fill="none" xmlns="http://www.w3.org/2000/svg">
<path fill-rule="evenodd" clip-rule="evenodd" d="M7.17168 4.64828L4.20261 0L1.23414 4.64828L4.20261 6.37849L7.17168 4.64828ZM4.20261 1.20287L2.14304 4.42811L4.20261 5.62917L6.26278 4.42811L4.20261 1.20287ZM0.754716 5.39339L4.19833 7.40017V7.40077L7.64315 5.39339L7.73734 5.54038C8.14279 6.17498 8.37011 6.90695 8.39548 7.65959C8.42086 8.41223 8.24335 9.15784 7.88156 9.81831C7.51977 10.4788 6.98702 11.0298 6.33912 11.4136C5.69121 11.7975 4.952 12 4.19893 12C3.44587 12 2.70666 11.7975 2.05875 11.4136C1.41085 11.0298 0.878091 10.4788 0.516304 9.81831C0.154516 9.15784 -0.0229893 8.41223 0.0023847 7.65959C0.0277587 6.90695 0.255078 6.17498 0.660527 5.54038L0.754716 5.39339Z" fill="#00A3FF"/>
</svg>
