<svg width="198" height="197" viewBox="0 0 198 197" fill="none" xmlns="http://www.w3.org/2000/svg">
<g filter="url(#filter0_f_540_5793)">
<path d="M122.415 176.866L153.069 156.308L175.715 117.084L153.069 52.5439L49.2295 22.2228L26.5834 61.447L49.2295 126.209L122.415 176.866Z" fill="url(#paint0_linear_540_5793)"/>
</g>
<path d="M122.415 176.866L153.069 156.308L175.715 117.084L153.069 52.5439L49.2295 22.2228L26.5834 61.447L49.2295 126.209L122.415 176.866Z" fill="url(#paint1_linear_540_5793)"/>
<path d="M26.5834 61.447L49.2295 22.2228M26.5834 61.447L115.051 108.693M26.5834 61.447L49.2295 126.209M122.415 176.866L153.069 156.308M122.415 176.866L49.2295 126.209M122.415 176.866L115.051 108.693M153.069 156.308L175.715 117.084M153.069 156.308L115.051 108.693M175.715 117.084L153.069 52.5439M175.715 117.084L115.051 108.693M153.069 52.5439L49.2295 22.2228M153.069 52.5439L115.051 108.693M49.2295 22.2228L115.051 108.693M115.051 108.693L49.2295 126.209" stroke="url(#paint2_linear_540_5793)" stroke-linejoin="bevel"/>
<defs>
<filter id="filter0_f_540_5793" x="6.58301" y="2.22281" width="189.132" height="194.643" filterUnits="userSpaceOnUse" color-interpolation-filters="sRGB">
<feFlood flood-opacity="0" result="BackgroundImageFix"/>
<feBlend mode="normal" in="SourceGraphic" in2="BackgroundImageFix" result="shape"/>
<feGaussianBlur stdDeviation="10" result="effect1_foregroundBlur_540_5793"/>
</filter>
<linearGradient id="paint0_linear_540_5793" x1="91.5358" y1="153.6" x2="65.4291" y2="21.5719" gradientUnits="userSpaceOnUse">
<stop stop-color="#FF888A"/>
<stop offset="0.55" stop-color="#FF878B"/>
<stop offset="1" stop-color="#FFC197"/>
</linearGradient>
<linearGradient id="paint1_linear_540_5793" x1="91.5358" y1="153.6" x2="65.4291" y2="21.5719" gradientUnits="userSpaceOnUse">
<stop stop-color="#FF888A"/>
<stop offset="0.55" stop-color="#FF878B"/>
<stop offset="1" stop-color="#FFC197"/>
</linearGradient>
<linearGradient id="paint2_linear_540_5793" x1="119.063" y1="144" x2="46.5635" y2="21.5" gradientUnits="userSpaceOnUse">
<stop stop-color="#FFB682"/>
<stop offset="1" stop-color="white"/>
</linearGradient>
</defs>
</svg>
