<svg width="140" height="102" viewBox="0 0 140 102" fill="none" xmlns="http://www.w3.org/2000/svg">
<g filter="url(#filter0_f_534_3709)">
<path d="M86.4117 72.6064L119.744 54.0959L84.1409 32.9876L56.8891 20.8831L21.3981 38.3982L20.8873 63.4981L48.1725 81.5133L86.4117 72.6064Z" fill="url(#paint0_linear_534_3709)"/>
</g>
<path d="M86.4117 72.6064L119.744 54.0959L84.1409 32.9876L56.8891 20.8831L21.3981 38.3982L20.8873 63.4981L48.1725 81.5133L86.4117 72.6064Z" fill="url(#paint1_linear_534_3709)"/>
<path d="M20.8873 63.4981L21.3981 38.3982M20.8873 63.4981L59.9475 51.3017M20.8873 63.4981L48.1725 81.5133M86.4117 72.6064L119.744 54.0959M86.4117 72.6064L48.1725 81.5133M86.4117 72.6064L59.9475 51.3017M119.744 54.0959L84.1409 32.9876M119.744 54.0959L59.9475 51.3017M84.1409 32.9876L56.8891 20.8831M84.1409 32.9876L59.9475 51.3017M56.8891 20.8831L21.3981 38.3982M56.8891 20.8831L59.9475 51.3017M21.3981 38.3982L59.9475 51.3017M59.9475 51.3017L48.1725 81.5133" stroke="url(#paint2_linear_534_3709)" stroke-linejoin="round"/>
<defs>
<filter id="filter0_f_534_3709" x="0.887695" y="0.883102" width="138.855" height="100.63" filterUnits="userSpaceOnUse" color-interpolation-filters="sRGB">
<feFlood flood-opacity="0" result="BackgroundImageFix"/>
<feBlend mode="normal" in="SourceGraphic" in2="BackgroundImageFix" result="shape"/>
<feGaussianBlur stdDeviation="10" result="effect1_foregroundBlur_534_3709"/>
</filter>
<linearGradient id="paint0_linear_534_3709" x1="32.2743" y1="65.3456" x2="68.4167" y2="12.5308" gradientUnits="userSpaceOnUse">
<stop stop-color="#800010"/>
<stop offset="1" stop-color="#FF596E"/>
</linearGradient>
<linearGradient id="paint1_linear_534_3709" x1="32.2743" y1="65.3456" x2="68.4167" y2="12.5308" gradientUnits="userSpaceOnUse">
<stop stop-color="#800010"/>
<stop offset="1" stop-color="#FF596E"/>
</linearGradient>
<linearGradient id="paint2_linear_534_3709" x1="106.895" y1="34.2444" x2="39.7891" y2="91.1003" gradientUnits="userSpaceOnUse">
<stop stop-color="white"/>
<stop offset="1" stop-color="#F65367"/>
</linearGradient>
</defs>
</svg>
