<svg width="108" height="104" viewBox="0 0 108 104" fill="none" xmlns="http://www.w3.org/2000/svg">
<g filter="url(#filter0_f_540_5809)">
<path d="M87.6817 77.4802L86.529 60.337L75.9869 42.0775L37.374 20.6379L20.3621 62.2449L30.9042 80.5044L48.3107 83.0787L87.6817 77.4802Z" fill="url(#paint0_linear_540_5809)"/>
</g>
<path d="M87.6817 77.4802L86.529 60.337L75.9869 42.0775L37.374 20.6379L20.3621 62.2449L30.9042 80.5044L48.3107 83.0787L87.6817 77.4802Z" fill="url(#paint1_linear_540_5809)"/>
<path d="M30.9042 80.5044L20.3621 62.2449M30.9042 80.5044L58.4843 64.581M30.9042 80.5044L48.3107 83.0787M87.6817 77.4802L86.529 60.337M87.6817 77.4802L48.3107 83.0787M87.6817 77.4802L58.4843 64.581M86.529 60.337L75.9869 42.0775M86.529 60.337L58.4843 64.581M75.9869 42.0775L37.374 20.6379M75.9869 42.0775L58.4843 64.581M37.374 20.6379L20.3621 62.2449M37.374 20.6379L58.4843 64.581M20.3621 62.2449L58.4843 64.581M58.4843 64.581L48.3107 83.0787" stroke="url(#paint2_linear_540_5809)" stroke-linejoin="round"/>
<defs>
<filter id="filter0_f_540_5809" x="0.362305" y="0.637892" width="107.319" height="102.441" filterUnits="userSpaceOnUse" color-interpolation-filters="sRGB">
<feFlood flood-opacity="0" result="BackgroundImageFix"/>
<feBlend mode="normal" in="SourceGraphic" in2="BackgroundImageFix" result="shape"/>
<feGaussianBlur stdDeviation="10" result="effect1_foregroundBlur_540_5809"/>
</filter>
<linearGradient id="paint0_linear_540_5809" x1="68.4559" y1="73.5601" x2="21.3314" y2="48.3703" gradientUnits="userSpaceOnUse">
<stop stop-color="#C8C8C8"/>
<stop offset="1" stop-color="#595959"/>
</linearGradient>
<linearGradient id="paint1_linear_540_5809" x1="68.4559" y1="73.5601" x2="21.3314" y2="48.3703" gradientUnits="userSpaceOnUse">
<stop stop-color="#FDC487"/>
<stop offset="1" stop-color="#F2794F"/>
</linearGradient>
<linearGradient id="paint2_linear_540_5809" x1="35.7635" y1="16.1499" x2="62.7063" y2="89.482" gradientUnits="userSpaceOnUse">
<stop stop-color="#FDC487"/>
<stop offset="1" stop-color="white"/>
</linearGradient>
</defs>
</svg>
