<svg width="296" height="303" viewBox="0 0 296 303" fill="none" xmlns="http://www.w3.org/2000/svg">
<g filter="url(#filter0_f_90_4585)">
<path d="M122.835 60.5603L86.8074 84.7214L60.1915 130.821L86.8073 206.675L208.849 242.311L235.465 196.211L208.849 120.096L122.835 60.5603Z" fill="url(#paint0_linear_90_4585)"/>
</g>
<path d="M122.835 60.5603L86.8074 84.7214L60.1915 130.821L86.8073 206.675L208.849 242.311L235.465 196.211L208.849 120.096L122.835 60.5603Z" fill="url(#paint1_linear_90_4585)"/>
<path d="M235.465 196.211L208.849 242.311M235.465 196.211L131.489 140.683M235.465 196.211L208.849 120.096M122.835 60.5603L86.8074 84.7214M122.835 60.5603L208.849 120.096M122.835 60.5603L131.489 140.683M86.8074 84.7214L60.1915 130.821M86.8074 84.7214L131.489 140.683M60.1915 130.821L86.8073 206.675M60.1915 130.821L131.489 140.683M86.8073 206.675L208.849 242.311M86.8073 206.675L131.489 140.683M208.849 242.311L131.489 140.683M131.489 140.683L208.849 120.096" stroke="url(#paint2_linear_90_4585)" stroke-linejoin="bevel"/>
<defs>
<filter id="filter0_f_90_4585" x="0.191528" y="0.560333" width="295.273" height="301.751" filterUnits="userSpaceOnUse" color-interpolation-filters="sRGB">
<feFlood flood-opacity="0" result="BackgroundImageFix"/>
<feBlend mode="normal" in="SourceGraphic" in2="BackgroundImageFix" result="shape"/>
<feGaussianBlur stdDeviation="30" result="effect1_foregroundBlur_90_4585"/>
</filter>
<linearGradient id="paint0_linear_90_4585" x1="159.127" y1="87.9041" x2="145.666" y2="223.45" gradientUnits="userSpaceOnUse">
<stop stop-color="#66C8FF"/>
<stop offset="1" stop-color="#026EF4"/>
</linearGradient>
<linearGradient id="paint1_linear_90_4585" x1="159.127" y1="87.9041" x2="145.666" y2="223.45" gradientUnits="userSpaceOnUse">
<stop stop-color="#66C8FF"/>
<stop offset="1" stop-color="#026EF4"/>
</linearGradient>
<linearGradient id="paint2_linear_90_4585" x1="186.161" y1="97.1216" x2="113.885" y2="222.308" gradientUnits="userSpaceOnUse">
<stop stop-color="white"/>
<stop offset="1" stop-color="#009DFA"/>
</linearGradient>
</defs>
</svg>
