<svg width="142" height="142" viewBox="0 0 142 142" fill="none" xmlns="http://www.w3.org/2000/svg">
<path opacity="0.3" d="M10.6552 1L1 10.4382V19.8764L4.37931 23.2069V27.6114L1 30.8876V49.764L4.37931 55.5517L1 60.7753V131.345L10.6552 141H71L74.8621 137.138H81.1379L85.3182 141H90.0909L93.7445 137.138H98.5172L102.818 141H131.345L141 131.345V117.404L137.818 114.258V107.966H141V79.9012L136.567 76.5056V70.2135L141 65.8524V38.7528L137.818 34.7931L141 30.8876V10.4382L131.345 1H57L52.6552 4.37931L48.3103 1H10.6552Z" fill="#2F2F2F" stroke="white" stroke-opacity="0.2"/>
</svg>
