<svg width="308" height="308" viewBox="0 0 308 308" fill="none" xmlns="http://www.w3.org/2000/svg">
<path d="M2.60195 22.7945L2 23.3829V24.2247V44.4494V45.2864L2.59611 45.8739L9.24138 52.4232V60.1778L2.60785 66.609L2 67.1983V68.0449V108.494V109.036L2.27285 109.503L8.89407 120.843L2.32077 131.004L2 131.499V132.09V283.31V284.139L2.58579 284.725L23.2754 305.414L23.8612 306H24.6897H154H154.828L155.414 305.414L163.104 297.724H174.942L183.325 305.469L183.899 306H184.682H194.909H195.77L196.362 305.374L203.599 297.724H212.199L220.846 305.488L221.416 306H222.182H283.31H284.139L284.725 305.414L305.414 284.725L306 284.139V283.31V253.438V252.603L305.406 252.016L299.182 245.862V235.213H304H306V233.213V173.074V172.087L305.216 171.486L296.502 164.81V153.153L305.403 144.395L306 143.807V142.969V84.8989V84.1949L305.559 83.6461L299.754 76.4225L305.551 69.3082L306 68.7565V68.0449V24.2247V23.3829L305.398 22.7945L284.708 2.56981L284.125 2H283.31H124H123.314L122.772 2.4213L114.69 8.70765L106.607 2.4213L106.066 2H105.379H24.6897H23.8745L23.2916 2.56981L2.60195 22.7945Z" fill="#1D1D1D" stroke="url(#paint0_linear_29_4)" stroke-width="4"/>
<defs>
<linearGradient id="paint0_linear_29_4" x1="154" y1="4" x2="154" y2="304" gradientUnits="userSpaceOnUse">
<stop stop-color="white"/>
<stop offset="1" stop-color="#999999"/>
</linearGradient>
</defs>
</svg>
