<svg width="140" height="140" viewBox="0 0 140 140" fill="none" xmlns="http://www.w3.org/2000/svg">
<path d="M53.3 48L40 50.8065V67.6452L45.7 76.0645L64.7 77L76.1 67.6452L78 62.0323L64.7 48H53.3Z" fill="#1B1B1B"/>
<path d="M55.2 42L40 50.4194L41.9 61.6452L47.6 70.0645L66.6 71L78 61.6452L66.6 42H55.2Z" fill="#232323"/>
<path d="M85.35 81.974L78 83.5249V92.8305L81.15 97.4833L91.65 98.0003L97.95 92.8305L99 89.7287L91.65 81.974H85.35Z" fill="#1B1B1B"/>
<path d="M86.4 78.6582L78 83.311L79.05 89.5147L82.2 94.1675L92.7 94.6845L99 89.5147L92.7 78.6582H86.4Z" fill="#232323"/>
</svg>
