<svg width="1544" height="545" viewBox="0 0 1544 545" fill="none" xmlns="http://www.w3.org/2000/svg">
<g opacity="0.3">
<path d="M-166 543.987C-166 543.987 -132.969 500.304 -94.738 433.607C-94.738 433.607 -79.4187 403.688 -41.9327 380.857C0.0602302 355.282 83.4514 219.678 151.006 145.488C195.05 97.1356 204.72 121.488 272.065 44.3329C272.065 44.3329 401.693 -21.8955 540.782 9.41663C679.872 40.7287 741.76 54.7137 869.026 39.3888C996.305 24.0654 1068.01 -3.90453 1268.1 36.2666C1268.1 36.2666 1310.84 70.7267 1326.79 79.4568C1342.73 88.1855 1363.97 104.173 1406.47 163.779C1448.99 223.386 1528.68 308.293 1528.68 308.293C1528.68 308.293 1633.24 425.49 1661.33 476.38C1689.42 527.276 1710.06 543.987 1710.06 543.987" stroke="#A7A1A1" stroke-width="0.8" stroke-miterlimit="10"/>
<path d="M-141.703 509.358C-141.703 509.358 -19.9585 486.658 137.52 529.271L194.318 543.986" stroke="#A7A1A1" stroke-width="0.8" stroke-miterlimit="10"/>
<path d="M134.395 543.987C134.395 543.987 166.066 354.632 184.606 361.422C203.144 368.212 214.715 381.429 225.431 363.945C234.612 348.972 253.142 303.689 281.894 223.204C281.894 223.204 296.555 188.821 328.076 164.234C363.995 136.226 424.295 2.87354 424.295 2.87354" stroke="#A7A1A1" stroke-width="0.8" stroke-miterlimit="10"/>
<path d="M59.9805 543.986C59.9805 543.986 98.5511 353.083 116.751 347.515C129.992 343.457 138.223 362.085 147.826 366.963C157.427 371.842 159.899 384.578 208.792 276.084C208.792 276.084 243.299 191.54 281.906 161.957C314.785 136.759 386.176 8.18115 386.176 8.18115" stroke="#A7A1A1" stroke-width="0.8" stroke-miterlimit="10"/>
<path d="M-109.977 459.494C-109.977 459.494 14.5917 408.383 89.5216 416.8C164.45 425.216 258.272 483.08 258.272 483.08C258.272 483.08 340.713 533.384 403.973 543.973" stroke="#A7A1A1" stroke-width="0.8" stroke-miterlimit="10"/>
<path d="M642.785 543.986C642.785 543.986 751.534 496.635 897.941 543.986" stroke="#A7A1A1" stroke-width="0.8" stroke-miterlimit="10"/>
<path d="M516.988 543.986C516.988 543.986 558.216 538.285 634.263 522.945C710.323 507.588 747.981 491.263 906.482 515.778C1064.97 540.281 1120.41 533.479 1183.67 517.135C1246.92 500.798 1392.63 435.442 1461.56 437.484C1530.51 439.527 1655.12 465.948 1655.12 465.948" stroke="#A7A1A1" stroke-width="0.8" stroke-miterlimit="10"/>
<path d="M1367.74 543.987C1367.74 543.987 1475.07 509.645 1613.67 509.645H1681.64" stroke="#A7A1A1" stroke-width="0.8" stroke-miterlimit="10"/>
<path d="M-82.4453 415.863C-82.4453 415.863 71.297 345.46 116.754 347.502C138.349 348.478 169.409 363.49 196.057 378.996C220.502 393.215 243.6 409.41 265.47 427.077C299.828 454.838 364.336 513.266 438.429 521.221C438.429 521.221 482.127 526.787 638.402 506.495C638.402 506.495 752.717 489.597 874.349 493.278C891.413 493.799 922.527 493.539 939.618 493.019C1003.68 491.041 1082.96 494.033 1168.11 470.019C1253.27 446.005 1344 383.406 1432.09 381.428C1493.63 380.05 1625.97 424.982 1625.97 424.982" stroke="#A7A1A1" stroke-width="0.8" stroke-miterlimit="10"/>
<path d="M-54.6562 389.469C-54.6562 389.469 46.5521 353.031 116.755 347.515C186.958 342 340.851 440.814 355.58 447.37C370.323 453.927 415.975 493.76 577.002 466.286C577.002 466.286 720.775 442.883 788.27 447.319C833.597 450.297 954.726 448.139 1029.4 446.382C1085.06 445.082 1140.36 437.406 1194 423.109C1225.75 414.641 1261.29 403.427 1295.16 389.001C1390.46 348.439 1500.97 369.358 1500.97 369.358L1600.1 392.279" stroke="#A7A1A1" stroke-width="0.8" stroke-miterlimit="10"/>
<path d="M-34.3945 375.484C-34.3945 375.484 143.252 356.908 213.903 372.597C284.557 388.285 362.002 408.709 362.002 408.709C362.002 408.709 459.769 432.774 582.325 399.537C704.893 366.3 780.94 351.444 894.645 376.903C1008.35 402.36 1117.63 418.621 1236.5 383.264C1355.38 347.905 1461.89 348.322 1581.23 369.33" stroke="#A7A1A1" stroke-width="0.8" stroke-miterlimit="10"/>
<path d="M-16.8867 358.781L305.286 366.429C305.286 366.429 448.109 369.305 468.512 366.429C550.166 354.904 609.801 331.202 665.336 314.369C722.242 297.12 782.909 294.361 841.241 306.447C872.517 312.925 912.116 322.954 954.782 338.174C1054.25 373.65 1128.31 374.964 1210.62 359.197C1292.92 343.431 1430.65 326.818 1562.59 347.28" stroke="#A7A1A1" stroke-width="0.8" stroke-miterlimit="10"/>
<path d="M-16.8867 543.986C-16.8867 543.986 33.1331 365.572 46.457 360.289C72.2482 350.065 80.9809 368.368 91.0319 368.85C101.081 369.33 126.425 333.335 142.153 302.778C142.153 302.778 190.652 209.44 220.802 177.634C250.959 145.826 284.598 102.716 303.386 83.0459C322.187 63.3771 349.147 16.4673 349.147 16.4673" stroke="#A7A1A1" stroke-width="0.8" stroke-miterlimit="10"/>
<path d="M-89.9023 543.986C-89.9023 543.986 -33.2403 374.769 1.59584 372.231C36.432 369.696 40.8466 367.145 50.1224 354.853C59.3982 342.559 189.075 142.067 235.59 110.338C282.111 78.6109 312.275 27.8105 312.275 27.8105" stroke="#A7A1A1" stroke-width="0.8" stroke-miterlimit="10"/>
<path d="M209.676 543.986C209.676 543.986 230.986 397.495 257.756 393.307C284.526 389.117 298.834 333.947 298.834 333.947C298.834 333.947 338.038 171.988 368.65 168.67C399.261 165.352 433.335 61.3354 433.335 61.3354C433.335 61.3354 447.67 20.5779 462.195 1" stroke="#A7A1A1" stroke-width="0.8" stroke-miterlimit="10"/>
<path d="M283.438 543.987C283.438 543.987 303.284 452.991 321.447 427.949C339.624 402.907 366.788 299.045 366.788 299.045C366.788 299.045 390.286 181.041 403.97 174.316C417.667 167.591 429.79 170.83 442.903 143.004C456.03 115.178 488.882 12.8253 503.38 3.19922" stroke="#A7A1A1" stroke-width="0.8" stroke-miterlimit="10"/>
<path d="M7.13672 330.746H424.309C424.309 330.746 506.6 332.048 592.611 302.817C678.623 273.586 763.969 263.608 803.499 267.602C843.043 271.596 1007.45 326.076 1007.45 326.076C1007.45 326.076 1104.46 355.203 1232.58 330.382C1394.24 299.07 1536.41 317.061 1536.41 317.061" stroke="#A7A1A1" stroke-width="0.8" stroke-miterlimit="10"/>
<path d="M28.3125 303.572C28.3125 303.572 142.41 303.311 171.814 301.62C201.217 299.93 381.535 277.75 428.043 280.234C474.551 282.718 727.698 262.541 756.653 262.126C785.609 261.709 820.279 259.186 912.847 286.921C1005.42 314.654 1067.91 346.761 1289.68 303.572C1289.68 303.572 1388.01 283.551 1514.8 293.268" stroke="#A7A1A1" stroke-width="0.8" stroke-miterlimit="10"/>
<path d="M45.832 280.234C45.832 280.234 147.87 276.683 173.675 273.43C199.479 270.177 361.064 238.007 412.065 235.184C466.555 232.166 542.358 236.33 662.184 252.083C662.184 252.083 741.517 259.953 798.179 259.472C854.841 258.99 1001.98 308.983 1051.2 310.896C1100.43 312.808 1184.92 312.795 1283.34 288.039C1381.75 263.283 1496.31 272.805 1496.31 272.805" stroke="#A7A1A1" stroke-width="0.8" stroke-miterlimit="10"/>
<path d="M357.047 543.986C357.047 543.986 396.496 436.573 409.894 367.704C423.306 298.837 439.868 182.472 457.23 171.897C474.593 161.321 479.072 175.891 496.639 122.671C519.947 52.0598 540.798 9.43018 540.798 9.43018" stroke="#A7A1A1" stroke-width="0.8" stroke-miterlimit="10"/>
<path d="M577.112 17.5601C577.112 17.5601 552.188 95.1833 532.749 148.741C530.346 155.349 526.192 161.23 520.681 165.821C513.228 172.039 502.612 183.539 498.906 200.633C498.906 200.633 446.955 508.03 432.145 543.973" stroke="#A7A1A1" stroke-width="0.8" stroke-miterlimit="10"/>
<path d="M1235.46 30.1143C1235.46 30.1143 1258.7 56.0533 1289.27 71.742C1319.84 87.4306 1376.08 184.189 1376.08 184.189C1376.08 184.189 1402.29 226.573 1439.96 271.023C1477.65 315.474 1475.14 310.076 1496.31 339.97C1517.5 369.864 1539.35 379.126 1546.45 385.995C1553.55 392.864 1579.87 422.719 1613.67 509.643L1625.97 543.986" stroke="#A7A1A1" stroke-width="0.8" stroke-miterlimit="10"/>
<path d="M65.375 253.878C65.375 253.878 142.858 257.871 227.008 237.396C311.163 216.92 403.5 188.925 477.239 197.198C550.965 205.472 683.606 244.914 771.07 248.102C858.534 251.289 944.233 272.936 944.233 272.936C944.233 272.936 1090.38 316.177 1205.97 283.733C1321.56 251.289 1478.76 252.955 1478.76 252.955" stroke="#A7A1A1" stroke-width="0.8" stroke-miterlimit="10"/>
<path d="M1460.23 231.476C1460.23 231.476 1371.53 224.334 1198.68 257.012C1025.83 289.691 1049.22 240.466 762.23 222.657C762.23 222.657 665.996 213.667 609.932 199.475C559.704 186.752 447.317 161.75 327.314 191.93C207.326 222.111 136.308 233.037 83.7891 229.122" stroke="#A7A1A1" stroke-width="0.8" stroke-miterlimit="10"/>
<path d="M99.75 208.035C99.75 208.035 188.233 210.806 308.623 182.616C429.006 154.426 592.626 182.616 592.626 182.616C592.626 182.616 735.068 200.984 796.278 200.437C857.487 199.891 1081.18 214.136 1081.18 214.136C1081.18 214.136 1157.5 218.702 1237.17 212.432C1316.85 206.162 1441.14 208.62 1441.14 208.62" stroke="#A7A1A1" stroke-width="0.8" stroke-miterlimit="10"/>
<path d="M115.914 187.26C115.914 187.26 260.651 179.701 317.652 173.249C374.654 166.797 484.475 166.133 530.956 168.241C577.423 170.348 747.274 177.764 772.863 177.62C798.452 177.478 1051.83 161.88 1093.45 161.88C1135.08 161.88 1323.02 182.914 1349.56 183.552C1376.1 184.19 1424.07 187.26 1424.07 187.26" stroke="#A7A1A1" stroke-width="0.8" stroke-miterlimit="10"/>
<path d="M1197.95 24.1289C1197.95 24.1289 1227.86 53.7115 1249.96 64.5091C1272.06 75.3066 1284.28 98.7343 1303.08 133.404C1321.87 168.071 1340.02 225.168 1384.32 272.949C1428.6 320.73 1431.54 333.101 1441.16 344.146C1450.75 355.191 1468.37 360.329 1479.14 368.85C1486.62 374.768 1505.85 376.915 1555.97 543.986" stroke="#A7A1A1" stroke-width="0.8" stroke-miterlimit="10"/>
<path d="M499.348 543.986C499.348 543.986 515.692 483.873 521.339 412.064C526.986 340.257 550.308 205.927 570.06 169.984C580.988 150.08 617.437 26.3145 617.437 26.3145" stroke="#A7A1A1" stroke-width="0.8" stroke-miterlimit="10"/>
<path d="M564.746 543.986C564.746 543.986 573.705 521.655 577.018 466.286C580.33 410.92 599.81 242.703 620.471 172.144L655.916 33.873" stroke="#A7A1A1" stroke-width="0.8" stroke-miterlimit="10"/>
<path d="M694.141 39.9995C694.141 39.9995 658.845 230.618 655.886 268.434C652.927 306.251 649.167 316.541 642.786 456.933C642.786 456.933 639.705 501.904 634.248 522.945C634.248 522.945 630.487 534.66 629.809 543.986" stroke="#A7A1A1" stroke-width="0.8" stroke-miterlimit="10"/>
<path d="M700.26 543.986C700.26 543.986 699.934 522.646 703.083 508.876C706.246 495.1 708.079 449.868 708.079 449.868C708.079 449.868 709.844 276.071 713.862 264.531C717.88 252.992 721.885 176.203 721.885 176.203C721.885 176.203 729.106 59.5528 733.097 44.0977" stroke="#A7A1A1" stroke-width="0.8" stroke-miterlimit="10"/>
<path d="M772.723 45.6196L772.004 543.986" stroke="#A7A1A1" stroke-width="0.8" stroke-miterlimit="10"/>
<path d="M131.816 167.629L399.78 164.169L623.089 161.88C623.089 161.88 788.351 159.993 818.827 155.831C849.303 151.667 1032.47 114.124 1095.12 117.363C1166.82 121.071 1320.75 157.197 1348.2 161.88C1367.35 165.158 1409.24 167.629 1409.24 167.629" stroke="#A7A1A1" stroke-width="0.8" stroke-miterlimit="10"/>
<path d="M146.688 150.302C146.688 150.302 427.283 157.847 454.853 157.339C482.424 156.833 706.805 141.495 754.644 142.406C802.496 143.316 1020.27 87.196 1045.66 84.386C1071.05 81.576 1126.56 70.3236 1299 125.897C1299 125.897 1366.84 144.487 1393.96 146.646" stroke="#A7A1A1" stroke-width="0.8" stroke-miterlimit="10"/>
<path d="M809.363 44.71C809.363 44.71 820.617 104.967 818.825 155.831C817.033 206.695 831.26 261.345 831.26 273.586C831.26 285.828 835.291 448.684 835.291 448.684C835.291 448.684 836.473 498.078 839.934 507.055C843.409 516.035 843.409 543.973 843.409 543.973" stroke="#A7A1A1" stroke-width="0.8" stroke-miterlimit="10"/>
<path d="M912.997 543.987C912.997 543.987 902.531 492.265 901.852 475.847C901.173 459.429 892.634 301.594 890.49 289.34C888.345 277.086 881.449 278.633 880.824 260.044C880.2 241.454 868.783 108.453 858.806 77.7655C857.625 74.1098 856.471 70.454 855.48 66.7467L848.801 41.6533" stroke="#A7A1A1" stroke-width="0.8" stroke-miterlimit="10"/>
<path d="M886.375 37.1909C886.375 37.1909 895.212 61.7644 902.027 71.8588C908.828 81.9532 912.914 88.0945 915.385 113.24C917.855 138.386 932.842 281.249 943.431 296.391C954.019 311.534 959.68 390.236 959.68 390.236C959.68 390.236 965.572 486.735 980.273 543.973" stroke="#A7A1A1" stroke-width="0.8" stroke-miterlimit="10"/>
<path d="M926.5 31.415C926.5 31.415 928.604 44.6967 947.595 62.142C966.6 79.5859 974.908 170.089 974.908 170.089C974.908 170.089 982.483 280.376 995.827 301.308C1009.16 322.239 1014.18 356.128 1014.18 356.128L1047.85 544" stroke="#A7A1A1" stroke-width="0.8" stroke-miterlimit="10"/>
<path d="M964.621 25.6646C964.621 25.6646 972.277 42.784 987.183 49.471C1002.07 56.1581 1008.1 65.29 1012.24 91.1382C1016.4 116.986 1030.32 211.041 1030.32 211.041C1030.32 211.041 1035.32 281.834 1051.2 310.921C1067.07 340.009 1062.46 321.185 1073.9 366.613C1085.33 412.039 1117.07 544 1117.07 544" stroke="#A7A1A1" stroke-width="0.8" stroke-miterlimit="10"/>
<path d="M163.324 132.961C163.324 132.961 273.898 135.811 302.976 139.374C332.067 142.939 549.104 142.796 630.5 131.661C630.5 131.661 714.203 124.024 772.616 123.66C831.03 123.296 944.734 86.8837 944.734 86.8837C944.734 86.8837 1030.68 50.1077 1117.05 59.0319C1182.49 65.7964 1258.26 91.6065 1291.15 103.73C1303.7 108.349 1316.43 112.382 1329.38 115.816L1380.56 129.41" stroke="#A7A1A1" stroke-width="0.8" stroke-miterlimit="10"/>
<path d="M180.031 119.444C180.031 119.444 385.853 124.974 406.731 125.468C427.609 125.962 613.587 118.808 680.837 113.461C748.074 108.115 805.822 117.103 909.807 85.5436C1013.79 53.9844 1075.83 31.8436 1182.66 57.6538C1289.49 83.4625 1266.15 89.9148 1366.43 112.798" stroke="#A7A1A1" stroke-width="0.8" stroke-miterlimit="10"/>
<path d="M1003.57 20.4868C1003.57 20.4868 1007.54 36.371 1035.87 44.0327C1064.21 51.6958 1070.38 128.942 1070.38 128.942L1092.9 274.392C1092.9 274.392 1093.58 297.691 1117.04 324.671C1117.04 324.671 1128.5 337.732 1139.04 377.045L1168.08 470.005C1168.08 470.005 1185.17 523.38 1187.72 544" stroke="#A7A1A1" stroke-width="0.8" stroke-miterlimit="10"/>
<path d="M1040.83 17.0522C1040.83 17.0522 1053.14 35.278 1074.42 37.1907C1095.68 39.1021 1103.48 66.3688 1103.48 66.3688L1143.73 265.482C1143.73 265.482 1147.25 294.803 1174.25 321.081C1174.25 321.081 1186.08 330.122 1195.42 361.941C1200.79 380.232 1210.49 398.575 1217.78 410.855C1226.66 425.84 1234.07 441.582 1239.98 457.856C1248.94 482.494 1259.53 516.755 1260.91 544" stroke="#A7A1A1" stroke-width="0.8" stroke-miterlimit="10"/>
<path d="M1082.14 15.5698C1082.14 15.5698 1096.01 31.792 1124.44 41.6393C1152.87 51.4866 1163.14 111.041 1163.14 111.041C1163.14 111.041 1184.81 222.566 1201.52 271.882C1204.15 279.661 1208.2 286.92 1213.45 293.373C1217.88 298.823 1224.07 306.082 1231.47 313.77C1246.82 329.693 1256.65 354.853 1256.65 354.853C1256.65 354.853 1267.36 378.802 1285.39 393.072C1300.98 405.404 1314.73 453.589 1324.41 494.345L1335.15 543.986" stroke="#A7A1A1" stroke-width="0.8" stroke-miterlimit="10"/>
<path d="M1119.51 16.4277C1119.51 16.4277 1125.01 27.2253 1156.79 40.3645C1188.55 53.5038 1194.83 72.3011 1201.88 91.8274C1208.94 111.354 1250.52 251.874 1250.52 251.874C1250.52 251.874 1260.05 280.182 1281.05 295.818C1302.05 311.455 1318.01 346.994 1318.86 348.92C1319.72 350.845 1327.78 363.23 1351.9 374.794C1376.04 386.359 1383.23 437.418 1383.23 437.418L1407.94 543.973" stroke="#A7A1A1" stroke-width="0.8" stroke-miterlimit="10"/>
<path d="M1157.46 19.2515C1157.46 19.2515 1180.84 44.1507 1203.02 50.888C1225.2 57.6266 1240.56 86.5848 1240.56 86.5848C1240.56 86.5848 1292.26 243.952 1329.45 278.907C1366.61 313.862 1376.95 339.19 1376.95 339.19C1376.95 339.19 1383.11 351.952 1393.38 355.815C1401.87 359.001 1413.49 356.426 1426.41 370.229C1431.27 375.419 1434.88 381.547 1437.34 388.102C1445.74 410.503 1472.35 484.901 1478.76 544" stroke="#A7A1A1" stroke-width="0.8" stroke-miterlimit="10"/>
<path d="M195.918 109.688L772.724 99.541C772.724 99.541 814.399 99.8274 861.518 88.3538C908.65 76.8802 1016.52 42.9006 1086.65 41.6395C1156.79 40.377 1265.66 75.6707 1265.66 75.6707L1352.55 98.5527" stroke="#A7A1A1" stroke-width="0.8" stroke-miterlimit="10"/>
<path d="M208.277 102.404C208.277 102.404 382.891 87.6382 424.295 86.0906C465.685 84.5417 683.252 92.8415 727.845 91.9048C772.453 90.9681 787.291 96.8488 911.583 70.4413C911.583 70.4413 1039.76 38.0623 1082.14 39.1673C1140.74 40.7026 1179.76 43.1353 1297.76 77.5696L1342.29 89.6934" stroke="#A7A1A1" stroke-width="0.8" stroke-miterlimit="10"/>
<path d="M218.395 95.6651C218.395 95.6651 381.368 67.7224 430.93 68.3468C480.492 68.9713 644.193 79.5475 644.193 79.5475C644.193 79.5475 770.862 85.5966 814.872 81.9924C869.267 77.5439 1029.61 38.3487 1074.43 37.1908C1074.43 37.1908 1127.99 33.079 1200.04 49.8482L1326.81 79.443" stroke="#A7A1A1" stroke-width="0.8" stroke-miterlimit="10"/>
<path d="M230.922 85.909C230.922 85.909 396.089 50.3425 436.895 51.8249C477.715 53.3086 668.173 70.7797 668.173 70.7797C668.173 70.7797 770.311 85.909 856.621 70.7797C922.283 59.2667 1048.68 31.4271 1107.61 34.3675C1107.61 34.3675 1161.28 34.5113 1316.72 73.1078" stroke="#A7A1A1" stroke-width="0.8" stroke-miterlimit="10"/>
<path d="M240.25 77.6349C240.25 77.6349 384.226 36.6044 443.101 36.7483C501.962 36.8909 698.623 65.8097 729.982 68.112C761.326 70.4143 820.065 77.6471 978.744 44.1114C978.744 44.1114 1082.69 22.9073 1143.23 34.1596C1143.23 34.1596 1232.3 46.8821 1304.65 64.4956" stroke="#A7A1A1" stroke-width="0.8" stroke-miterlimit="10"/>
<path d="M251.961 66.201C251.961 66.201 383.068 21.7496 449.857 22.074C449.857 22.074 523.787 27.4864 612.133 44.0981C704.538 61.4646 793.142 72.0287 892.199 52.0857C1013.91 27.591 1094.02 24.0655 1132.91 28.2412C1171.79 32.4169 1295.48 57.627 1295.48 57.627" stroke="#A7A1A1" stroke-width="0.8" stroke-miterlimit="10"/>
<path d="M263.242 54.2452C263.242 54.2452 399.454 9.4165 456.672 9.4165C520.258 9.4165 675.61 56.6521 772.726 54.2452C772.726 54.2452 814.876 56.4824 889.579 45.6197C964.296 34.7583 1046.47 15.4397 1124.59 22.0738C1202.73 28.7093 1280.8 46.3093 1280.8 46.3093" stroke="#A7A1A1" stroke-width="0.8" stroke-miterlimit="10"/>
</g>
</svg>
