<svg width="99" height="139" viewBox="0 0 99 139" fill="none" xmlns="http://www.w3.org/2000/svg">
<rect x="23.0508" y="62.7808" width="33.2198" height="65.4466" rx="16.6099" fill="url(#paint0_linear_14642_530)" stroke="url(#paint1_linear_14642_530)" stroke-width="2"/>
<rect x="27.0781" y="67.8076" width="26.1843" height="54.3828" rx="13.0922" fill="url(#paint2_linear_14642_530)"/>
<rect x="57.9961" y="24.6646" width="20.1418" height="68.482" rx="10.0709" transform="rotate(27.5194 57.9961 24.6646)" fill="url(#paint3_linear_14642_530)"/>
<ellipse cx="40.5562" cy="79.9288" rx="10.0709" ry="11.4137" transform="rotate(27.5194 40.5562 79.9288)" fill="url(#paint4_radial_14642_530)"/>
<path fill-rule="evenodd" clip-rule="evenodd" d="M68.824 30.598C72.3084 33.5762 73.4122 38.6638 71.2038 42.9026L52.0994 79.5715C51.9642 79.5039 51.8292 79.4351 51.6946 79.3649C44.7274 75.735 40.0825 69.402 38.3754 62.3209L53.341 33.5961C53.6837 32.9383 54.0889 32.3341 54.5456 31.787C59.0401 30.0939 63.9865 29.6387 68.824 30.598Z" fill="black" fill-opacity="0.42"/>
<ellipse cx="60.5037" cy="40.2133" rx="26.1052" ry="26.1052" transform="rotate(27.5194 60.5037 40.2133)" fill="url(#paint5_radial_14642_530)"/>
<defs>
<linearGradient id="paint0_linear_14642_530" x1="39.6607" y1="63.7808" x2="39.6607" y2="127.227" gradientUnits="userSpaceOnUse">
<stop stop-color="#16181C"/>
<stop offset="1" stop-color="#3B3E49"/>
</linearGradient>
<linearGradient id="paint1_linear_14642_530" x1="39.6607" y1="63.7808" x2="39.6607" y2="127.227" gradientUnits="userSpaceOnUse">
<stop stop-color="#0B0D13"/>
<stop offset="1" stop-color="#4B4E58"/>
</linearGradient>
<linearGradient id="paint2_linear_14642_530" x1="40.1703" y1="87.1175" x2="40.1703" y2="122.19" gradientUnits="userSpaceOnUse">
<stop/>
<stop offset="1" stop-color="#1C1D1F"/>
</linearGradient>
<linearGradient id="paint3_linear_14642_530" x1="57.9961" y1="62.7101" x2="78.1379" y2="62.7101" gradientUnits="userSpaceOnUse">
<stop stop-color="#797979"/>
<stop offset="0.517656" stop-color="#B1B1B1"/>
<stop offset="1" stop-color="#686868"/>
</linearGradient>
<radialGradient id="paint4_radial_14642_530" cx="0" cy="0" r="1" gradientUnits="userSpaceOnUse" gradientTransform="translate(40.251 88.9214) rotate(-90) scale(20.4063 18.0055)">
<stop stop-color="#BDBDBD"/>
<stop offset="1" stop-color="#818181" stop-opacity="0"/>
</radialGradient>
<radialGradient id="paint5_radial_14642_530" cx="0" cy="0" r="1" gradientUnits="userSpaceOnUse" gradientTransform="translate(60.5037 29.5507) rotate(90) scale(36.7678 36.7678)">
<stop stop-color="#FFABA5"/>
<stop offset="1" stop-color="#B20B00"/>
</radialGradient>
</defs>
</svg>
