<svg width="100" height="24" viewBox="0 0 100 24" fill="none" xmlns="http://www.w3.org/2000/svg">
<path fill-rule="evenodd" clip-rule="evenodd" d="M53.8771 16.8196V0.913867H56.9233V24L40.6042 7.31097V22.9991H37.5579V0L53.8771 16.8196ZM15.2965 12.0546C16.0798 10.8797 16.4714 9.55233 16.4714 8.11631C16.4714 6.81075 16.1451 5.61401 15.514 4.5043C14.8613 3.3946 13.9909 2.52426 12.8812 1.87149C11.7715 1.24048 10.553 0.914095 9.26924 0.914095H0V3.96033H9.26924C10.4225 3.96033 11.4016 4.37375 12.2284 5.17883C13.0336 5.98391 13.447 6.96306 13.447 8.13806C13.447 9.31301 13.0336 10.2704 12.2284 11.0973C11.4234 11.9023 10.4443 12.3157 9.26924 12.3157H0V22.9558H3.04624V15.362H9.26924H9.37806H9.48689L13.447 22.9776H16.4932L12.2067 14.7309C13.4905 14.1217 14.5132 13.2513 15.2965 12.0546ZM19.7308 10.4227V13.469H35.2449V10.4227H19.7308ZM19.7308 19.9966L18.1424 22.9776H35.2666V19.9966H19.7308ZM18.1424 0.914095L19.7308 3.96033H35.2449V0.914095H18.1424ZM65.3645 14.8398L70.7824 11.6412C72.175 10.8144 73.2847 9.70466 74.0898 8.29038C74.8949 6.87602 75.2866 5.3529 75.2866 3.72099V0.914095H59.4461V3.96033H72.262V4.00385C72.262 5.04827 72.0009 6.02742 71.4787 6.9413C70.9565 7.85516 70.2385 8.57321 69.3464 9.09543L63.9937 12.2505C62.5794 13.0773 61.4914 14.187 60.6646 15.6013C59.8595 17.0157 59.4461 18.5388 59.4461 20.1707V22.9558H75.2866V19.9095H62.4705C62.4705 18.8652 62.7317 17.886 63.2539 16.9939C63.7543 16.08 64.4724 15.362 65.3645 14.8398ZM99.766 12.9685V12.9033L89.8 22.9558H89.9088C95.0658 22.4336 99.2875 18.2777 99.766 12.9685ZM93.5606 1.91561L93.5605 1.91555C93.2778 1.78502 92.9951 1.65449 92.7116 1.54571C92.1461 1.32813 91.5589 1.15405 90.9499 1.02349C90.2096 0.871182 89.4701 0.784152 88.6864 0.784152C88.3167 0.784152 87.9469 0.805909 87.5771 0.827667C85.0091 1.08877 82.7246 2.19847 80.9622 3.89566L80.6141 4.2438C78.9386 6.00627 77.8504 8.33446 77.6111 10.8803L77.6111 10.8808C77.5894 11.207 77.5676 11.5332 77.5676 11.8811C77.5676 12.708 77.6546 13.5131 77.8287 14.2964C77.9592 14.8839 78.1339 15.4496 78.3514 16.0154L78.3524 16.0177C78.4826 16.3215 78.6127 16.6253 78.7429 16.9075C79.0039 17.4079 79.2866 17.8866 79.6129 18.3435L81.4407 16.494L93.1909 4.6137L95.0186 2.7642C94.5836 2.45958 94.0826 2.17671 93.5606 1.91561ZM80.3749 13.9918C80.3531 13.9265 80.3314 13.8395 80.3314 13.7742C80.2009 13.1649 80.1357 12.5339 80.1357 11.9029C80.1357 9.70524 80.9622 7.63816 82.4636 6.04979L82.7682 5.74517C84.3784 4.20029 86.4672 3.35169 88.7082 3.35169C89.2962 3.35169 89.8834 3.41697 90.4489 3.52576L90.7099 3.59104L80.3749 13.9918ZM84.0545 22.0204C84.3155 22.1293 84.5765 22.238 84.8593 22.3468L99.0898 7.98598C98.981 7.70315 98.8505 7.42026 98.72 7.13739C98.4808 6.59342 98.1762 6.09297 97.8493 5.61428L82.4878 21.1283C82.988 21.4765 83.5108 21.7594 84.0545 22.0204Z" fill="#ACE631"/>
</svg>
