<svg width="71" height="71" viewBox="0 0 71 71" fill="none" xmlns="http://www.w3.org/2000/svg">
<rect x="1.5" y="1.5" width="68" height="68" rx="13.5" fill="#202329" stroke="black" stroke-width="3"/>
<g opacity="0.6" filter="url(#filter0_f_14573_2511)">
<path d="M55.8708 25.3486C55.8708 24.2169 55.1918 23.6511 53.8338 23.6511C52.4984 23.6511 51.8308 24.2169 51.8308 25.3486V45.6512C51.8308 46.7829 52.4984 47.3487 53.8338 47.3487C55.1918 47.3487 55.8708 46.7829 55.8708 45.6512V25.3486ZM46.7383 25.077C46.7383 23.2211 47.3381 21.7499 48.5376 20.6635C49.7372 19.5545 51.5026 19 53.8338 19C56.165 19 57.9304 19.5545 59.13 20.6635C60.3522 21.7499 60.9633 23.2211 60.9633 25.077V45.9228C60.9633 47.7788 60.3522 49.2612 59.13 50.3703C57.9304 51.4567 56.165 51.9999 53.8338 51.9999C51.5026 51.9999 49.7372 51.4567 48.5376 50.3703C47.3381 49.2612 46.7383 47.7788 46.7383 45.9228L46.7383 25.077Z" fill="white"/>
<path d="M39.0983 19.4077H44.1907V45.923C44.1907 47.7789 43.591 49.2614 42.3914 50.3704C41.2145 51.4568 39.4604 52 37.1292 52C34.8206 52 33.0665 51.4568 31.867 50.3704C30.69 49.284 30.1016 47.8015 30.1016 45.923V19.4077H35.194V45.6514C35.194 46.783 35.8391 47.3489 37.1292 47.3489C38.4419 47.3489 39.0983 46.783 39.0983 45.6514V19.4077Z" fill="white"/>
<path d="M20.9288 24.7039C20.9288 24.2965 20.827 23.9909 20.6233 23.7872C20.4422 23.5609 20.0801 23.4477 19.5369 23.4477H17.0925V47.2808H19.5369C20.4648 47.2808 20.9288 46.7603 20.9288 45.7192V24.7039ZM12 19.2719H20.2498C22.0831 19.2719 23.4977 19.7132 24.4935 20.5959C25.512 21.4786 26.0213 22.78 26.0213 24.5002V46.1265C26.0213 49.8158 24.1993 51.6604 20.5554 51.6604H12V19.2719Z" fill="white"/>
</g>
<path d="M55.8708 25.3486C55.8708 24.2169 55.1918 23.6511 53.8338 23.6511C52.4984 23.6511 51.8308 24.2169 51.8308 25.3486V45.6512C51.8308 46.7829 52.4984 47.3487 53.8338 47.3487C55.1918 47.3487 55.8708 46.7829 55.8708 45.6512V25.3486ZM46.7383 25.077C46.7383 23.2211 47.3381 21.7499 48.5376 20.6635C49.7372 19.5545 51.5026 19 53.8338 19C56.165 19 57.9304 19.5545 59.13 20.6635C60.3522 21.7499 60.9633 23.2211 60.9633 25.077V45.9228C60.9633 47.7788 60.3522 49.2612 59.13 50.3703C57.9304 51.4567 56.165 51.9999 53.8338 51.9999C51.5026 51.9999 49.7372 51.4567 48.5376 50.3703C47.3381 49.2612 46.7383 47.7788 46.7383 45.9228L46.7383 25.077Z" fill="white"/>
<path d="M39.0983 19.4077H44.1907V45.923C44.1907 47.7789 43.591 49.2614 42.3914 50.3704C41.2145 51.4568 39.4604 52 37.1292 52C34.8206 52 33.0665 51.4568 31.867 50.3704C30.69 49.284 30.1016 47.8015 30.1016 45.923V19.4077H35.194V45.6514C35.194 46.783 35.8391 47.3489 37.1292 47.3489C38.4419 47.3489 39.0983 46.783 39.0983 45.6514V19.4077Z" fill="white"/>
<path d="M20.9288 24.7039C20.9288 24.2965 20.827 23.9909 20.6233 23.7872C20.4422 23.5609 20.0801 23.4477 19.5369 23.4477H17.0925V47.2808H19.5369C20.4648 47.2808 20.9288 46.7603 20.9288 45.7192V24.7039ZM12 19.2719H20.2498C22.0831 19.2719 23.4977 19.7132 24.4935 20.5959C25.512 21.4786 26.0213 22.78 26.0213 24.5002V46.1265C26.0213 49.8158 24.1993 51.6604 20.5554 51.6604H12V19.2719Z" fill="white"/>
<defs>
<filter id="filter0_f_14573_2511" x="2" y="9" width="68.9648" height="53" filterUnits="userSpaceOnUse" color-interpolation-filters="sRGB">
<feFlood flood-opacity="0" result="BackgroundImageFix"/>
<feBlend mode="normal" in="SourceGraphic" in2="BackgroundImageFix" result="shape"/>
<feGaussianBlur stdDeviation="5" result="effect1_foregroundBlur_14573_2511"/>
</filter>
</defs>
</svg>
