<svg width="73" height="73" viewBox="0 0 73 73" fill="none" xmlns="http://www.w3.org/2000/svg">
<circle cx="36.5" cy="36.5" r="34.5" fill="#FA0227" stroke="black" stroke-width="4"/>
<path fill-rule="evenodd" clip-rule="evenodd" d="M54.5981 19.7523C55.1317 19.2186 55.1317 18.3534 54.5981 17.8197C54.0644 17.286 53.1991 17.286 52.6655 17.8197L37.5738 32.9113L37.5738 18.7862C37.5738 18.0315 36.962 17.4197 36.2073 17.4197C35.4526 17.4197 34.8407 18.0315 34.8407 18.7862L34.8407 32.5688L25.0949 22.8229C24.5612 22.2892 23.6959 22.2892 23.1623 22.8229C22.6286 23.3566 22.6286 24.2218 23.1623 24.7555L32.9083 34.5017L19.1274 34.5016C18.3727 34.5016 17.7608 35.1134 17.7608 35.8682C17.7608 36.6229 18.3727 37.2347 19.1274 37.2347L33.2504 37.2348L17.8182 52.6669C17.2846 53.2006 17.2846 54.0659 17.8182 54.5995C18.3519 55.1332 19.2172 55.1332 19.7508 54.5995L34.8407 39.5097L34.8406 52.9503C34.8406 53.705 35.4525 54.3168 36.2072 54.3168C36.9619 54.3168 37.5737 53.705 37.5738 52.9503L37.5738 39.1671L47.3198 48.9132C47.8535 49.4469 48.7187 49.4469 49.2524 48.9132C49.7861 48.3795 49.7861 47.5143 49.2524 46.9806L39.5067 37.2348L53.2914 37.2348C54.0462 37.2348 54.658 36.623 54.658 35.8683C54.658 35.1135 54.0462 34.5017 53.2914 34.5017L39.8487 34.5017L54.5981 19.7523Z" fill="white"/>
</svg>
