<svg width="77" height="75" viewBox="0 0 77 75" fill="none" xmlns="http://www.w3.org/2000/svg">
<g filter="url(#filter0_d_14528_1836)">
<rect y="12.7246" width="61.8" height="61.8" rx="16" transform="rotate(-11.8824 0 12.7246)" fill="url(#paint0_linear_14528_1836)"/>
</g>
<path fill-rule="evenodd" clip-rule="evenodd" d="M50.1309 17.3608L54.4116 47.8489L54.375 47.9034C54.4317 48.636 54.2974 49.2773 53.9538 49.8041C52.3993 52.1868 46.9711 51.5934 40.3242 48.7258L41.4659 46.9756C43.1472 47.6856 44.7291 48.2353 46.1621 48.614C48.0951 49.1254 49.6409 49.2952 50.7422 49.2006C51.8747 49.1031 52.1699 48.7721 52.2303 48.6795C52.2905 48.5872 52.4745 48.1837 52.1073 47.1079C51.7502 46.0621 50.9718 44.7156 49.725 43.1525C47.3882 40.2231 43.6689 36.8601 39.0434 33.7393L25.2481 54.8865L24.9132 51.6337L37.3196 32.615C32.5997 29.6393 28.023 27.5904 24.4004 26.6324C22.4674 26.1213 20.9216 25.9515 19.8203 26.0461C18.6878 26.1436 18.3927 26.4746 18.3324 26.5669C18.272 26.6595 18.088 27.063 18.4552 28.1388C18.8127 29.1848 19.5907 30.5311 20.8378 32.0942C21.7618 33.253 22.9024 34.4793 24.2297 35.7319L23.088 37.4822C17.785 32.5545 15.0544 27.8256 16.6087 25.4427C16.9525 24.9156 17.4859 24.5341 18.1802 24.2906C18.191 24.2727 18.2022 24.2551 18.214 24.2376L47.8431 15.8683L49.8421 15.304L50.1309 17.3608ZM37.4626 20.9395L46.6241 18.3516L43.1666 23.6523C41.0452 22.3425 39.0641 21.4898 37.4626 20.9392M33.6008 22.0297L24.6253 24.5651C28.5555 25.557 33.4567 27.7438 38.4441 30.8912L42.0418 25.3762C39.7529 23.9677 37.6447 23.1289 36.0659 22.6372C35.384 22.4226 34.6913 22.2438 33.9907 22.1017C33.8377 22.0714 33.7077 22.0472 33.6008 22.0297ZM43.7559 26.5152L40.1679 32.0154C45.0598 35.3126 49.0374 38.9179 51.5289 42.1161L50.1904 32.5843C50.1277 32.5001 50.0502 32.3993 49.9578 32.2819C49.5171 31.7265 49.0522 31.1908 48.5643 30.6763C47.468 29.5134 45.8734 28.0191 43.7561 26.5149M44.8814 24.7902C46.9252 26.2359 48.5139 27.679 49.6681 28.8643L48.3495 19.4733L44.8814 24.7902ZM29.6144 33.7554L24.3012 41.9003L24.6364 45.1531L31.7283 34.2815L29.6144 33.7554ZM39.7719 39.5289L32.6888 50.3868L35.8008 49.3828L41.2084 41.0927L39.7719 39.5289Z" fill="white"/>
<defs>
<filter id="filter0_d_14528_1836" x="2.94922" y="2.94824" width="73.3047" height="71.3037" filterUnits="userSpaceOnUse" color-interpolation-filters="sRGB">
<feFlood flood-opacity="0" result="BackgroundImageFix"/>
<feColorMatrix in="SourceAlpha" type="matrix" values="0 0 0 0 0 0 0 0 0 0 0 0 0 0 0 0 0 0 127 0" result="hardAlpha"/>
<feOffset dx="6" dy="4"/>
<feComposite in2="hardAlpha" operator="out"/>
<feColorMatrix type="matrix" values="0 0 0 0 0 0 0 0 0 0 0 0 0 0 0 0 0 0 0.25 0"/>
<feBlend mode="normal" in2="BackgroundImageFix" result="effect1_dropShadow_14528_1836"/>
<feBlend mode="normal" in="SourceGraphic" in2="effect1_dropShadow_14528_1836" result="shape"/>
</filter>
<linearGradient id="paint0_linear_14528_1836" x1="3.84162e-05" y1="12.7246" x2="61.8" y2="74.5245" gradientUnits="userSpaceOnUse">
<stop stop-color="#FF4337"/>
<stop offset="0.536" stop-color="#FF6D63"/>
<stop offset="1" stop-color="#FFB0AB"/>
</linearGradient>
</defs>
</svg>
