<svg width="67" height="67" viewBox="0 0 67 67" fill="none" xmlns="http://www.w3.org/2000/svg">
<path d="M33.5 67C14.9985 67 0 52.0015 0 33.5C0 14.9985 14.9985 0 33.5 0C52.0015 0 67 14.9985 67 33.5C67 52.0015 52.0015 67 33.5 67Z" fill="#191919"/>
<path d="M33.4994 63.4103C16.9802 63.4103 3.58873 50.0188 3.58873 33.4996C3.58873 16.9803 16.9802 3.58887 33.4994 3.58887C50.0187 3.58887 63.4102 16.9803 63.4102 33.4996C63.4102 50.0188 50.0187 63.4103 33.4994 63.4103Z" fill="#F0F0F0"/>
<path d="M33.4994 55.0353C21.6056 55.0353 11.9637 45.3934 11.9637 33.4996C11.9637 21.6057 21.6056 11.9639 33.4994 11.9639C45.3933 11.9639 55.0352 21.6057 55.0352 33.4996C55.0352 45.3934 45.3933 55.0353 33.4994 55.0353Z" fill="#191919"/>
</svg>
