<svg width="111" height="111" viewBox="0 0 111 111" fill="none" xmlns="http://www.w3.org/2000/svg">
<path d="M53.5454 1.67862C54.6696 0.713136 56.3304 0.713135 57.4546 1.67862L65.6396 8.70805C66.3628 9.32916 67.3381 9.56956 68.2672 9.35569L78.7814 6.9352C80.2255 6.60275 81.696 7.37453 82.2427 8.75187L86.2234 18.7799C86.5752 19.6659 87.3271 20.3321 88.2491 20.5744L98.6838 23.3174C100.117 23.6941 101.06 25.0609 100.904 26.5346L99.769 37.2638C99.6686 38.2119 100.025 39.1511 100.729 39.7942L108.693 47.0722C109.787 48.0719 109.987 49.7205 109.165 50.9529L103.173 59.9255C102.644 60.7183 102.522 61.7155 102.847 62.612L106.517 72.7578C107.021 74.1513 106.432 75.7041 105.131 76.4129L95.6557 81.5733C94.8185 82.0293 94.2478 82.856 94.1184 83.8005L92.6532 94.4898C92.4519 95.9579 91.2089 97.0592 89.7272 97.082L78.9392 97.2481C77.986 97.2627 77.0965 97.7296 76.543 98.5057L70.2781 107.29C69.4176 108.496 67.8051 108.894 66.4825 108.225L56.8531 103.359C56.0023 102.929 54.9977 102.929 54.1469 103.359L44.5175 108.225C43.1949 108.894 41.5824 108.496 40.7219 107.29L34.457 98.5057C33.9035 97.7296 33.014 97.2627 32.0608 97.2481L21.2728 97.082C19.7911 97.0592 18.5481 95.9579 18.3468 94.4898L16.8816 83.8005C16.7522 82.856 16.1815 82.0293 15.3443 81.5733L5.86924 76.4129C4.56784 75.7041 3.97894 74.1513 4.48304 72.7578L8.15322 62.612C8.47752 61.7155 8.35643 60.7183 7.82702 59.9255L1.83545 50.9529C1.01251 49.7205 1.21268 48.0719 2.30664 47.0722L10.2714 39.7942C10.9752 39.1511 11.3314 38.2119 11.231 37.2638L10.0956 26.5346C9.93959 25.0609 10.883 23.6941 12.3162 23.3174L22.7509 20.5744C23.6729 20.3321 24.4248 19.6659 24.7766 18.7799L28.7573 8.75187C29.304 7.37453 30.7745 6.60275 32.2186 6.9352L42.7328 9.35569C43.6618 9.56956 44.6372 9.32916 45.3604 8.70805L53.5454 1.67862Z" fill="#979ABE"/>
<path d="M56.803 9.43725L63.5641 15.2438C64.5284 16.0719 65.8289 16.3925 67.0676 16.1073L75.7526 14.1079C76.7154 13.8863 77.6957 14.4008 78.0602 15.319L81.3484 23.6025C81.8174 24.7839 82.82 25.6721 84.0493 25.9952L92.6687 28.261C93.6242 28.5121 94.2531 29.4233 94.1491 30.4058L93.2112 39.2685C93.0774 40.5325 93.5524 41.7849 94.4907 42.6423L101.07 48.6542C101.799 49.3206 101.933 50.4197 101.384 51.2413L96.4347 58.653C95.7289 59.71 95.5674 61.0397 95.9998 62.235L99.0315 70.6157C99.3676 71.5447 98.975 72.5799 98.1074 73.0524L90.2806 77.3151C89.1644 77.9231 88.4035 79.0254 88.2309 80.2847L87.0206 89.1144C86.8864 90.0932 86.0577 90.8273 85.0699 90.8425L76.1587 90.9797C74.8878 90.9993 73.7018 91.6217 72.9637 92.6566L67.7887 99.9124C67.2151 100.717 66.1401 100.982 65.2584 100.536L57.3042 96.5163C56.1697 95.943 54.8303 95.943 53.6958 96.5163L45.7416 100.536C44.8599 100.982 43.7849 100.717 43.2113 99.9124L38.0363 92.6566C37.2982 91.6217 36.1122 90.9993 34.8413 90.9797L25.9301 90.8425C24.9423 90.8273 24.1136 90.0932 23.9794 89.1144L22.7691 80.2847C22.5965 79.0254 21.8356 77.9231 20.7194 77.3151L12.8926 73.0524C12.025 72.5799 11.6324 71.5447 11.9685 70.6157L15.0002 62.235C15.4326 61.0397 15.2711 59.71 14.5653 58.653L9.61604 51.2413C9.06741 50.4197 9.20086 49.3206 9.93016 48.6542L16.5093 42.6423C17.4477 41.7849 17.9226 40.5325 17.7888 39.2685L16.8509 30.4058C16.7469 29.4233 17.3758 28.5121 18.3313 28.261L26.9507 25.9952C28.18 25.6721 29.1826 24.7839 29.6516 23.6025L32.9398 15.319C33.3043 14.4008 34.2846 13.8863 35.2474 14.1079L43.9324 16.1073C45.1711 16.3925 46.4716 16.0719 47.4359 15.2438L54.1969 9.43725C54.9464 8.79359 56.0536 8.79359 56.803 9.43725Z" stroke="black" stroke-width="2"/>
<path d="M28.194 40.0679L25.6576 30.6019L29.7551 29.504C30.6025 29.2769 31.3702 29.221 32.0581 29.3362C32.7436 29.4424 33.322 29.7077 33.7933 30.1322C34.2645 30.5567 34.5956 31.125 34.7864 31.8373C34.9748 32.5404 34.9711 33.1937 34.7752 33.7969C34.5793 34.4002 34.2123 34.9237 33.6742 35.3674C33.1336 35.8021 32.4396 36.133 31.5922 36.3601L28.7118 37.1319L29.4209 35.8838L30.3848 39.4809L28.194 40.0679ZM29.4861 36.1272L28.2335 35.3469L30.9922 34.6077C31.6683 34.4265 32.1345 34.147 32.3908 33.7691C32.647 33.3912 32.7063 32.9454 32.5686 32.4315C32.4285 31.9086 32.153 31.5476 31.7422 31.3485C31.3313 31.1494 30.7878 31.1404 30.1117 31.3216L27.353 32.0608L28.0476 30.7586L29.4861 36.1272ZM37.9665 37.4494L35.4301 27.9833L39.5275 26.8854C40.375 26.6584 41.1426 26.6024 41.8306 26.7176C42.5161 26.8238 43.0945 27.0892 43.5657 27.5137C44.037 27.9382 44.368 28.5065 44.5589 29.2187C44.7473 29.9219 44.7435 30.5751 44.5477 31.1784C44.3494 31.7726 43.98 32.2871 43.4394 32.7218C42.8988 33.1566 42.2048 33.4875 41.3574 33.7145L38.477 34.4863L39.1934 33.2653L40.1572 36.8624L37.9665 37.4494ZM43.9842 35.837L40.6973 33.0362L43.0368 32.4094L46.3507 35.2029L43.9842 35.837ZM39.2586 33.5087L38.0095 32.7419L40.7682 32.0027C41.4444 31.8215 41.9106 31.542 42.1669 31.1641C42.4207 30.7772 42.4788 30.3269 42.3411 29.813C42.201 29.2901 41.9255 28.9291 41.5146 28.73C41.1038 28.5309 40.5603 28.5219 39.8841 28.7031L37.1254 29.4423L37.8201 28.1401L39.2586 33.5087ZM47.9106 34.7849L45.3742 25.3188L47.5649 24.7318L50.1013 34.1979L47.9106 34.7849ZM51.7393 33.759L51.3588 32.3391L55.3228 23.7111L55.8071 24.4365L49.7894 26.049L49.3111 24.2639L57.2761 22.1297L57.6565 23.5496L53.7061 32.174L53.2218 31.4486L59.5371 29.7564L60.0154 31.5414L51.7393 33.759ZM61.9207 24.9725L66.4779 23.7514L66.9345 25.4553L62.3772 26.6764L61.9207 24.9725ZM63.1265 28.8236L68.2788 27.4431L68.7498 29.201L61.4204 31.165L58.8839 21.6989L66.0376 19.7821L66.5086 21.5401L61.5322 22.8735L63.1265 28.8236Z" fill="black"/>
<path d="M33.2707 54.2571L30.7343 44.791L34.8318 43.6931C35.6792 43.466 36.4469 43.4101 37.1348 43.5253C37.8203 43.6315 38.3987 43.8968 38.87 44.3213C39.3412 44.7458 39.6723 45.3142 39.8631 46.0264C40.0515 46.7296 40.0478 47.3828 39.8519 47.986C39.6561 48.5893 39.289 49.1128 38.7509 49.5565C38.2103 49.9913 37.5163 50.3221 36.6689 50.5492L33.7885 51.321L34.4976 50.073L35.4615 53.6701L33.2707 54.2571ZM34.5628 50.3164L33.3102 49.536L36.0689 48.7968C36.745 48.6156 37.2112 48.3361 37.4675 47.9582C37.7238 47.5804 37.783 47.1345 37.6453 46.6206C37.5052 46.0977 37.2298 45.7367 36.8189 45.5376C36.408 45.3385 35.8645 45.3295 35.1884 45.5107L32.4297 46.2499L33.1243 44.9477L34.5628 50.3164ZM47.8165 50.5335C47.0683 50.7339 46.3415 50.7982 45.6362 50.7263C44.9399 50.652 44.2981 50.4568 43.711 50.1407C43.1328 49.8221 42.6333 49.4004 42.2125 48.8754C41.8006 48.348 41.5004 47.7327 41.312 47.0295C41.1236 46.3264 41.0759 45.6434 41.1689 44.9808C41.2709 44.3157 41.4971 43.6995 41.8476 43.1321C42.198 42.5648 42.6561 42.0748 43.222 41.6623C43.7878 41.2498 44.4404 40.9445 45.1796 40.7464C45.9279 40.546 46.6457 40.4841 47.333 40.5608C48.0292 40.6351 48.6665 40.8316 49.2446 41.1501C49.8318 41.4662 50.3358 41.8868 50.7567 42.4117C51.1751 42.9277 51.4798 43.5418 51.6706 44.254C51.859 44.9572 51.9035 45.6458 51.8039 46.3199C51.7018 46.9849 51.4756 47.6012 51.1252 48.1685C50.7814 48.7245 50.3265 49.2087 49.7607 49.6212C49.2038 50.0313 48.5558 50.3354 47.8165 50.5335ZM47.303 48.6709C47.7267 48.5574 48.095 48.3814 48.408 48.1429C48.7299 47.902 48.9899 47.6101 49.1879 47.2672C49.3859 46.9243 49.5075 46.5487 49.5527 46.1404C49.6069 45.7297 49.5736 45.299 49.4529 44.8482C49.3321 44.3975 49.1455 44.0078 48.8932 43.6792C48.6499 43.3483 48.3568 43.0838 48.0139 42.8858C47.68 42.6854 47.3134 42.5614 46.9141 42.5137C46.5149 42.4661 46.1034 42.4991 45.6797 42.6126C45.2559 42.7262 44.8831 42.9034 44.5611 43.1442C44.2482 43.3827 43.9927 43.6734 43.7947 44.0163C43.5968 44.3592 43.4706 44.736 43.4164 45.1467C43.3712 45.555 43.409 45.9845 43.5298 46.4353C43.6482 46.8771 43.8302 47.2679 44.0759 47.6079C44.3282 47.9365 44.6213 48.201 44.9552 48.4014C45.2981 48.5994 45.6692 48.7222 46.0685 48.7698C46.4678 48.8174 46.8793 48.7844 47.303 48.6709ZM59.2265 47.4762C58.4783 47.6766 57.7515 47.7409 57.0462 47.669C56.3499 47.5947 55.7081 47.3995 55.121 47.0834C54.5428 46.7648 54.0433 46.3431 53.6225 45.8181C53.2106 45.2907 52.9104 44.6754 52.722 43.9722C52.5336 43.2691 52.4859 42.5861 52.5789 41.9235C52.6809 41.2584 52.9071 40.6422 53.2576 40.0748C53.608 39.5075 54.0661 39.0175 54.632 38.605C55.1978 38.1925 55.8504 37.8872 56.5896 37.6891C57.3379 37.4887 58.0557 37.4268 58.743 37.5035C59.4392 37.5778 60.0765 37.7743 60.6546 38.0928C61.2418 38.4089 61.7458 38.8295 62.1667 39.3544C62.5851 39.8704 62.8898 40.4845 63.0806 41.1967C63.269 41.8999 63.3134 42.5885 63.2139 43.2626C63.1118 43.9276 62.8856 44.5439 62.5352 45.1112C62.1914 45.6672 61.7365 46.1514 61.1707 46.5639C60.6138 46.974 59.9658 47.2781 59.2265 47.4762ZM58.713 45.6136C59.1367 45.5001 59.505 45.3241 59.818 45.0856C60.1399 44.8447 60.3999 44.5528 60.5979 44.2099C60.7959 43.867 60.9175 43.4914 60.9627 43.0831C61.0169 42.6724 60.9836 42.2417 60.8629 41.7909C60.7421 41.3402 60.5555 40.9505 60.3032 40.6219C60.0599 40.291 59.7668 40.0265 59.4239 39.8285C59.09 39.6281 58.7234 39.5041 58.3241 39.4564C57.9249 39.4088 57.5134 39.4418 57.0897 39.5553C56.6659 39.6689 56.2931 39.8461 55.9711 40.0869C55.6582 40.3254 55.4027 40.6161 55.2047 40.959C55.0067 41.3019 54.8806 41.6787 54.8264 42.0894C54.7812 42.4977 54.819 42.9272 54.9398 43.378C55.0582 43.8198 55.2402 44.2106 55.4859 44.5506C55.7382 44.8792 56.0313 45.1437 56.3652 45.3441C56.7081 45.5421 57.0792 45.6649 57.4785 45.7125C57.8778 45.7601 58.2893 45.7271 58.713 45.6136ZM65.9953 45.4886L63.4588 36.0225L65.6495 35.4355L67.7077 43.1165L72.4542 41.8447L72.9325 43.6297L65.9953 45.4886Z" fill="black"/>
<path d="M43.1051 87.748C42.3748 87.9436 41.6628 88.0088 40.9689 87.9435C40.2816 87.8668 39.6489 87.6692 39.0708 87.3506C38.4926 87.032 37.9931 86.6103 37.5722 86.0853C37.1604 85.558 36.859 84.9382 36.6682 84.226C36.4773 83.5138 36.4284 82.8263 36.5214 82.1637C36.6234 81.4986 36.8451 80.8836 37.1866 80.3187C37.537 79.7513 37.9918 79.2671 38.5511 78.866C39.1079 78.4559 39.756 78.1518 40.4952 77.9537C41.3156 77.7339 42.0935 77.6801 42.8289 77.7922C43.5709 77.8929 44.241 78.1579 44.8391 78.587L43.7806 80.2621C43.357 79.9794 42.9227 79.8011 42.4777 79.727C42.0303 79.644 41.5722 79.6653 41.1034 79.7909C40.6617 79.9093 40.2753 80.0901 39.9443 80.3334C39.6134 80.5767 39.3489 80.8698 39.1509 81.2127C38.9529 81.5556 38.8268 81.9325 38.7726 82.3432C38.7274 82.7514 38.7652 83.181 38.8859 83.6317C39.0067 84.0825 39.1888 84.4734 39.432 84.8043C39.6844 85.1329 39.982 85.3962 40.3249 85.5942C40.6678 85.7921 41.0434 85.9137 41.4517 85.9589C41.86 86.0042 42.285 85.9676 42.7267 85.8492C43.1955 85.7236 43.6041 85.5175 43.9525 85.2309C44.2984 84.9353 44.5829 84.5547 44.806 84.0891L46.5603 85.0104C46.2569 85.6811 45.8102 86.2501 45.2204 86.7174C44.6396 87.1822 43.9345 87.5257 43.1051 87.748ZM48.3004 86.182L46.3509 78.9066L48.3659 78.3667L48.9166 80.4222L48.4732 79.9033C48.5519 79.3315 48.7951 78.8508 49.2029 78.4613C49.6082 78.0628 50.1535 77.7718 50.8386 77.5882L51.3604 79.5355C51.2678 79.5507 51.1855 79.5679 51.1134 79.5872C51.0388 79.5975 50.961 79.6135 50.8799 79.6353C50.3029 79.7899 49.8788 80.0823 49.6075 80.5125C49.3429 80.9312 49.3036 81.4877 49.4896 82.1819L50.41 85.6167L48.3004 86.182ZM57.6582 83.7905C56.8288 84.0128 56.0551 84.0461 55.337 83.8907C54.628 83.7328 54.0273 83.4203 53.535 82.9531C53.0402 82.477 52.6962 81.8783 52.5029 81.1571C52.3073 80.4268 52.3013 79.7375 52.4851 79.0892C52.6755 78.4294 53.0215 77.8633 53.5229 77.3907C54.0219 76.9092 54.6411 76.5693 55.3803 76.3713C56.0925 76.1804 56.7737 76.1622 57.4238 76.3165C58.0805 76.4594 58.6517 76.7702 59.1375 77.2487C59.6208 77.7183 59.9675 78.3453 60.1777 79.1296C60.1995 79.2107 60.2203 79.3066 60.2403 79.4172C60.2578 79.5188 60.2742 79.6159 60.2893 79.7084L54.3798 81.2919L54.0501 80.0613L58.8507 78.775L58.1372 79.3575C58.0357 78.9789 57.8709 78.6703 57.6428 78.4319C57.4146 78.1935 57.1448 78.0339 56.8333 77.9531C56.5193 77.8633 56.182 77.8667 55.8214 77.9633C55.4608 78.06 55.1625 78.2269 54.9265 78.464C54.6971 78.6898 54.5444 78.9674 54.4685 79.297C54.3901 79.6175 54.4029 79.9716 54.5067 80.3593L54.5937 80.6838C54.7 81.0805 54.8798 81.4091 55.1333 81.6697C55.3933 81.9189 55.7028 82.0824 56.0618 82.1601C56.4274 82.2264 56.8266 82.2016 57.2594 82.0856C57.647 81.9818 57.9694 81.8326 58.2265 81.6381C58.4926 81.4412 58.7159 81.1929 58.8965 80.8933L60.3451 81.8096C60.1129 82.2776 59.7722 82.683 59.3229 83.0256C58.8712 83.3592 58.3163 83.6142 57.6582 83.7905ZM65.7025 81.6351C65.0173 81.8186 64.3587 81.8309 63.7266 81.6717C63.0921 81.5035 62.5377 81.1834 62.0634 80.7114C61.5981 80.237 61.264 79.6212 61.0611 78.8639C60.8557 78.0976 60.836 77.3927 61.0017 76.7492C61.1765 76.1033 61.4978 75.5534 61.9656 75.0995C62.4334 74.6457 63.0099 74.3269 63.6951 74.1433C64.3081 73.9791 64.8807 73.9706 65.413 74.1178C65.9452 74.2651 66.4113 74.5799 66.811 75.0622C67.2108 75.5445 67.5255 76.2138 67.7549 77.0703C67.982 77.9177 68.0487 78.6535 67.9551 79.2777C67.859 79.8929 67.6173 80.3973 67.23 80.7909C66.8517 81.1822 66.3425 81.4635 65.7025 81.6351ZM65.6038 79.8063C65.9464 79.7145 66.2356 79.55 66.4716 79.3129C66.7076 79.0757 66.8669 78.7866 66.9495 78.4456C67.0386 78.0932 67.0276 77.7097 66.9165 77.2949C66.803 76.8712 66.6207 76.5336 66.3697 76.282C66.1277 76.0279 65.8452 75.8572 65.5223 75.7698C65.1993 75.6824 64.8666 75.6846 64.524 75.7764C64.1724 75.8707 63.8786 76.0363 63.6426 76.2735C63.4066 76.5107 63.2428 76.8009 63.1512 77.1443C63.0687 77.4853 63.0842 77.8677 63.1977 78.2914C63.3088 78.7061 63.4866 79.045 63.731 79.308C63.982 79.5596 64.269 79.7291 64.5919 79.8165C64.9149 79.9039 65.2522 79.9005 65.6038 79.8063ZM67.9453 80.9181L67.5467 79.4306L67.0076 77.2561L66.2962 75.1421L65.1621 70.9095L67.2716 70.3442L69.9602 80.3782L67.9453 80.9181ZM71.9127 79.8551L69.9633 72.5797L72.0729 72.0145L74.0223 79.2898L71.9127 79.8551ZM70.7463 71.2829C70.3587 71.3867 70.0129 71.3586 69.7091 71.1984C69.4053 71.0383 69.2087 70.7914 69.1194 70.4578C69.03 70.1243 69.0768 69.8122 69.2598 69.5216C69.4429 69.231 69.7282 69.0337 70.1159 68.9299C70.5035 68.826 70.848 68.8496 71.1494 69.0008C71.4484 69.1429 71.6426 69.3808 71.7319 69.7143C71.8262 70.0659 71.783 70.3915 71.6024 70.6911C71.4283 70.9793 71.143 71.1766 70.7463 71.2829ZM78.9842 78.0762C78.1278 78.3057 77.4027 78.2681 76.8089 77.9634C76.2127 77.6497 75.7987 77.0601 75.5668 76.1946L73.8565 69.8118L75.9661 69.2465L77.6691 75.6023C77.7512 75.9088 77.8964 76.126 78.1046 76.2538C78.3103 76.3726 78.5529 76.3945 78.8324 76.3197C79.166 76.2303 79.4258 76.064 79.6119 75.8209L80.5784 77.1563C80.4031 77.3675 80.1731 77.5547 79.8883 77.718C79.6101 77.8699 79.3088 77.9893 78.9842 78.0762ZM73.6436 73.5068L73.2088 71.884L78.2528 70.5325L78.6876 72.1552L73.6436 73.5068ZM84.3335 76.6429C83.7114 76.8096 83.0926 76.8981 82.477 76.9084C81.8679 76.9074 81.3664 76.8388 80.9725 76.7028L81.2699 74.9998C81.659 75.1178 82.097 75.184 82.584 75.1985C83.0776 75.2015 83.5453 75.1438 83.9871 75.0254C84.4739 74.895 84.8008 74.7446 84.9677 74.5743C85.1437 74.4015 85.2039 74.2114 85.1483 74.0041C85.1024 73.8328 84.9874 73.7283 84.8034 73.6907C84.626 73.6416 84.4005 73.6295 84.127 73.6545C83.8535 73.6795 83.5529 73.7117 83.2253 73.7512C82.9067 73.7882 82.58 73.813 82.2451 73.8254C81.9078 73.8288 81.588 73.7889 81.2854 73.7057C80.9829 73.6225 80.7155 73.4719 80.4832 73.2539C80.2599 73.0336 80.0927 72.716 79.9815 72.3013C79.8583 71.8415 79.8804 71.4008 80.0476 70.9792C80.2238 70.5551 80.5378 70.1763 80.9895 69.8427C81.4388 69.5 82.0151 69.2345 82.7183 69.0461C83.2141 68.9132 83.7335 68.832 84.2763 68.8025C84.8192 68.773 85.2897 68.816 85.6878 68.9316L85.3868 70.6211C84.9797 70.5079 84.5861 70.4636 84.2062 70.4881C83.8329 70.5012 83.4794 70.5524 83.1458 70.6418C82.677 70.7674 82.3514 70.9223 82.1688 71.1065C81.9863 71.2907 81.9216 71.482 81.9747 71.6803C82.023 71.8606 82.1359 71.9753 82.3133 72.0244C82.4997 72.071 82.7309 72.0864 83.0069 72.0704C83.2828 72.0545 83.5801 72.028 83.8987 71.9909C84.2239 71.9424 84.5551 71.9165 84.8924 71.9131C85.2297 71.9097 85.545 71.9508 85.8385 72.0364C86.1386 72.1106 86.4048 72.2567 86.6372 72.4746C86.8671 72.6836 87.0376 72.9954 87.1487 73.4101C87.2695 73.8609 87.2418 74.2983 87.0655 74.7223C86.8869 75.1374 86.5672 75.5129 86.1064 75.849C85.6547 76.1826 85.0637 76.4472 84.3335 76.6429Z" fill="black"/>
</svg>
