<svg width="111" height="111" viewBox="0 0 111 111" fill="none" xmlns="http://www.w3.org/2000/svg">
<path d="M53.5454 1.67862C54.6696 0.713136 56.3304 0.713135 57.4546 1.67862L65.6396 8.70805C66.3628 9.32916 67.3381 9.56956 68.2672 9.35569L78.7814 6.9352C80.2255 6.60275 81.696 7.37453 82.2427 8.75187L86.2234 18.7799C86.5752 19.6659 87.3271 20.3321 88.2491 20.5744L98.6838 23.3174C100.117 23.6941 101.06 25.0609 100.904 26.5346L99.769 37.2638C99.6686 38.2119 100.025 39.1511 100.729 39.7942L108.693 47.0722C109.787 48.0719 109.987 49.7205 109.165 50.9529L103.173 59.9255C102.644 60.7183 102.522 61.7155 102.847 62.612L106.517 72.7578C107.021 74.1513 106.432 75.7041 105.131 76.4129L95.6557 81.5733C94.8185 82.0293 94.2478 82.856 94.1184 83.8005L92.6532 94.4898C92.4519 95.9579 91.2089 97.0592 89.7272 97.082L78.9392 97.2481C77.986 97.2627 77.0965 97.7296 76.543 98.5057L70.2781 107.29C69.4176 108.496 67.8051 108.894 66.4825 108.225L56.8531 103.359C56.0023 102.929 54.9977 102.929 54.1469 103.359L44.5175 108.225C43.1949 108.894 41.5824 108.496 40.7219 107.29L34.457 98.5057C33.9035 97.7296 33.014 97.2627 32.0608 97.2481L21.2728 97.082C19.7911 97.0592 18.5481 95.9579 18.3468 94.4898L16.8816 83.8005C16.7522 82.856 16.1815 82.0293 15.3443 81.5733L5.86924 76.4129C4.56784 75.7041 3.97894 74.1513 4.48304 72.7578L8.15322 62.612C8.47752 61.7155 8.35643 60.7183 7.82702 59.9255L1.83545 50.9529C1.01251 49.7205 1.21268 48.0719 2.30664 47.0722L10.2714 39.7942C10.9752 39.1511 11.3314 38.2119 11.231 37.2638L10.0956 26.5346C9.93959 25.0609 10.883 23.6941 12.3162 23.3174L22.7509 20.5744C23.6729 20.3321 24.4248 19.6659 24.7766 18.7799L28.7573 8.75187C29.304 7.37453 30.7745 6.60275 32.2186 6.9352L42.7328 9.35569C43.6618 9.56956 44.6372 9.32916 45.3604 8.70805L53.5454 1.67862Z" fill="#FF7970"/>
<path d="M56.803 9.43725L63.5641 15.2438C64.5284 16.0719 65.8289 16.3925 67.0676 16.1073L75.7526 14.1079C76.7154 13.8863 77.6957 14.4008 78.0602 15.319L81.3484 23.6025C81.8174 24.7839 82.82 25.6721 84.0493 25.9952L92.6687 28.261C93.6242 28.5121 94.2531 29.4233 94.1491 30.4058L93.2112 39.2685C93.0774 40.5325 93.5524 41.7849 94.4907 42.6423L101.07 48.6542C101.799 49.3206 101.933 50.4197 101.384 51.2413L96.4347 58.653C95.7289 59.71 95.5674 61.0397 95.9998 62.235L99.0315 70.6157C99.3676 71.5447 98.975 72.5799 98.1074 73.0524L90.2806 77.3151C89.1644 77.9231 88.4035 79.0254 88.2309 80.2847L87.0206 89.1144C86.8864 90.0932 86.0577 90.8273 85.0699 90.8425L76.1587 90.9797C74.8878 90.9993 73.7018 91.6217 72.9637 92.6566L67.7887 99.9124C67.2151 100.717 66.1401 100.982 65.2584 100.536L57.3042 96.5163C56.1697 95.943 54.8303 95.943 53.6958 96.5163L45.7416 100.536C44.8599 100.982 43.7849 100.717 43.2113 99.9124L38.0363 92.6566C37.2982 91.6217 36.1122 90.9993 34.8413 90.9797L25.9301 90.8425C24.9423 90.8273 24.1136 90.0932 23.9794 89.1144L22.7691 80.2847C22.5965 79.0254 21.8356 77.9231 20.7194 77.3151L12.8926 73.0524C12.025 72.5799 11.6324 71.5447 11.9685 70.6157L15.0002 62.235C15.4326 61.0397 15.2711 59.71 14.5653 58.653L9.61604 51.2413C9.06741 50.4197 9.20086 49.3206 9.93016 48.6542L16.5093 42.6423C17.4477 41.7849 17.9226 40.5325 17.7888 39.2685L16.8509 30.4058C16.7469 29.4233 17.3758 28.5121 18.3313 28.261L26.9507 25.9952C28.18 25.6721 29.1826 24.7839 29.6516 23.6025L32.9398 15.319C33.3043 14.4008 34.2846 13.8863 35.2474 14.1079L43.9324 16.1073C45.1711 16.3925 46.4716 16.0719 47.4359 15.2438L54.1969 9.43725C54.9464 8.79359 56.0536 8.79359 56.803 9.43725Z" stroke="black" stroke-width="2"/>
<path d="M28.194 39.515L25.6576 30.0489L29.7551 28.951C30.6025 28.7239 31.3702 28.668 32.0581 28.7832C32.7436 28.8894 33.322 29.1547 33.7933 29.5792C34.2645 30.0037 34.5956 30.5721 34.7864 31.2843C34.9748 31.9875 34.9711 32.6407 34.7752 33.2439C34.5793 33.8472 34.2123 34.3707 33.6742 34.8144C33.1336 35.2492 32.4396 35.58 31.5922 35.8071L28.7118 36.5789L29.4209 35.3309L30.3848 38.928L28.194 39.515ZM29.4861 35.5743L28.2335 34.7939L30.9922 34.0547C31.6683 33.8735 32.1345 33.594 32.3908 33.2161C32.647 32.8383 32.7063 32.3924 32.5686 31.8785C32.4285 31.3556 32.153 30.9946 31.7422 30.7955C31.3313 30.5964 30.7878 30.5874 30.1117 30.7686L27.353 31.5078L28.0476 30.2056L29.4861 35.5743ZM37.9665 36.8964L35.4301 27.4304L39.5275 26.3325C40.375 26.1054 41.1426 26.0495 41.8306 26.1647C42.5161 26.2709 43.0945 26.5362 43.5657 26.9607C44.037 27.3852 44.368 27.9535 44.5589 28.6658C44.7473 29.3689 44.7435 30.0222 44.5477 30.6254C44.3494 31.2197 43.98 31.7341 43.4394 32.1689C42.8988 32.6036 42.2048 32.9345 41.3574 33.1616L38.477 33.9333L39.1934 32.7123L40.1572 36.3094L37.9665 36.8964ZM43.9842 35.284L40.6973 32.4833L43.0368 31.8564L46.3507 34.6499L43.9842 35.284ZM39.2586 32.9557L38.0095 32.1889L40.7682 31.4497C41.4444 31.2685 41.9106 30.989 42.1669 30.6111C42.4207 30.2243 42.4788 29.7739 42.3411 29.26C42.201 28.7371 41.9255 28.3761 41.5146 28.177C41.1038 27.9779 40.5603 27.9689 39.8841 28.1501L37.1254 28.8893L37.8201 27.5871L39.2586 32.9557ZM47.9106 34.2319L45.3742 24.7658L47.5649 24.1788L50.1013 33.6449L47.9106 34.2319ZM51.7393 33.206L51.3588 31.7861L55.3228 23.1582L55.8071 23.8836L49.7894 25.496L49.3111 23.711L57.2761 21.5767L57.6565 22.9967L53.7061 31.621L53.2218 30.8956L59.5371 29.2034L60.0154 30.9885L51.7393 33.206ZM61.9207 24.4195L66.4779 23.1984L66.9345 24.9023L62.3772 26.1234L61.9207 24.4195ZM63.1265 28.2706L68.2788 26.8901L68.7498 28.6481L61.4204 30.612L58.8839 21.1459L66.0376 19.2291L66.5086 20.9871L61.5322 22.3205L63.1265 28.2706Z" fill="black"/>
<path d="M33.2706 53.7043L30.7342 44.2383L34.8316 43.1403C35.6791 42.9133 36.4468 42.8573 37.1347 42.9726C37.8202 43.0787 38.3986 43.3441 38.8698 43.7686C39.3411 44.1931 39.6722 44.7614 39.863 45.4736C40.0514 46.1768 40.0477 46.8301 39.8518 47.4333C39.6559 48.0366 39.2889 48.5601 38.7508 49.0038C38.2102 49.4385 37.5162 49.7694 36.6687 49.9965L33.7884 50.7683L34.4975 49.5202L35.4613 53.1173L33.2706 53.7043ZM34.5627 49.7636L33.3101 48.9833L36.0687 48.2441C36.7449 48.0629 37.2111 47.7834 37.4674 47.4055C37.7236 47.0276 37.7829 46.5818 37.6452 46.0679C37.5051 45.545 37.2296 45.184 36.8188 44.9849C36.4079 44.7858 35.8644 44.7768 35.1882 44.958L32.4296 45.6972L33.1242 44.395L34.5627 49.7636ZM47.8164 49.9807C47.0681 50.1812 46.3414 50.2455 45.6361 50.1736C44.9398 50.0993 44.298 49.9041 43.7109 49.5879C43.1327 49.2694 42.6332 48.8476 42.2123 48.3227C41.8005 47.7953 41.5003 47.18 41.3119 46.4768C41.1235 45.7736 41.0758 45.0907 41.1688 44.4281C41.2708 43.763 41.497 43.1468 41.8474 42.5794C42.1979 42.012 42.656 41.5221 43.2219 41.1096C43.7877 40.6971 44.4403 40.3918 45.1795 40.1937C45.9278 39.9932 46.6456 39.9313 47.3328 40.0081C48.0291 40.0824 48.6663 40.2788 49.2445 40.5974C49.8317 40.9135 50.3357 41.3341 50.7566 41.859C51.175 42.375 51.4797 42.989 51.6705 43.7012C51.8589 44.4044 51.9033 45.0931 51.8037 45.7671C51.7017 46.4322 51.4755 47.0484 51.1251 47.6158C50.7812 48.1717 50.3264 48.6559 49.7606 49.0685C49.2037 49.4785 48.5557 49.7826 47.8164 49.9807ZM47.3029 48.1182C47.7266 48.0046 48.0949 47.8286 48.4079 47.5902C48.7298 47.3493 48.9898 47.0574 49.1878 46.7145C49.3858 46.3716 49.5074 45.996 49.5526 45.5877C49.6068 45.177 49.5735 44.7463 49.4527 44.2955C49.3319 43.8447 49.1454 43.4551 48.8931 43.1265C48.6498 42.7955 48.3567 42.531 48.0138 42.333C47.6799 42.1326 47.3133 42.0086 46.914 41.961C46.5148 41.9134 46.1033 41.9463 45.6795 42.0599C45.2558 42.1734 44.883 42.3506 44.561 42.5915C44.2481 42.8299 43.9926 43.1206 43.7946 43.4636C43.5966 43.8065 43.4705 44.1833 43.4163 44.594C43.3711 45.0023 43.4089 45.4318 43.5297 45.8826C43.648 46.3243 43.8301 46.7152 44.0758 47.0552C44.3281 47.3837 44.6212 47.6482 44.9551 47.8486C45.298 48.0466 45.6691 48.1694 46.0684 48.217C46.4676 48.2647 46.8791 48.2317 47.3029 48.1182ZM59.2264 46.9234C58.4781 47.1239 57.7514 47.1882 57.046 47.1163C56.3498 47.042 55.708 46.8468 55.1209 46.5306C54.5427 46.2121 54.0432 45.7903 53.6223 45.2654C53.2105 44.738 52.9103 44.1227 52.7219 43.4195C52.5335 42.7163 52.4858 42.0334 52.5788 41.3708C52.6808 40.7057 52.907 40.0895 53.2574 39.5221C53.6079 38.9547 54.066 38.4648 54.6318 38.0523C55.1977 37.6398 55.8503 37.3345 56.5895 37.1364C57.3378 36.9359 58.0556 36.874 58.7428 36.9508C59.4391 37.0251 60.0763 37.2215 60.6545 37.5401C61.2417 37.8562 61.7457 38.2768 62.1665 38.8017C62.585 39.3177 62.8897 39.9317 63.0805 40.6439C63.2689 41.3471 63.3133 42.0358 63.2137 42.7098C63.1117 43.3749 62.8855 43.9911 62.5351 44.5585C62.1912 45.1144 61.7364 45.5986 61.1706 46.0112C60.6137 46.4212 59.9657 46.7253 59.2264 46.9234ZM58.7129 45.0609C59.1366 44.9473 59.5049 44.7713 59.8179 44.5329C60.1398 44.292 60.3998 44.0001 60.5978 43.6572C60.7958 43.3143 60.9174 42.9387 60.9626 42.5304C61.0168 42.1197 60.9835 41.689 60.8627 41.2382C60.7419 40.7874 60.5554 40.3978 60.3031 40.0692C60.0598 39.7382 59.7667 39.4737 59.4238 39.2757C59.0899 39.0753 58.7233 38.9513 58.324 38.9037C57.9248 38.8561 57.5133 38.889 57.0895 39.0026C56.6658 39.1161 56.293 39.2933 55.971 39.5342C55.6581 39.7726 55.4026 40.0633 55.2046 40.4063C55.0066 40.7492 54.8805 41.126 54.8263 41.5367C54.7811 41.945 54.8189 42.3745 54.9397 42.8253C55.058 43.267 55.2401 43.6579 55.4858 43.9979C55.7381 44.3264 56.0312 44.5909 56.3651 44.7913C56.708 44.9893 57.0791 45.1121 57.4784 45.1597C57.8776 45.2074 58.2891 45.1744 58.7129 45.0609ZM65.9951 44.9358L63.4587 35.4697L65.6494 34.8827L67.7076 42.5638L72.4541 41.2919L72.9324 43.077L65.9951 44.9358Z" fill="black"/>
<path d="M43.1117 87.7462C42.3814 87.9419 41.6694 88.0071 40.9755 87.9418C40.2882 87.865 39.6555 87.6674 39.0774 87.3488C38.4992 87.0303 37.9997 86.6085 37.5788 86.0836C37.167 85.5562 36.8656 84.9364 36.6748 84.2242C36.4839 83.512 36.435 82.8246 36.528 82.1619C36.63 81.4968 36.8517 80.8818 37.1932 80.3169C37.5436 79.7495 37.9984 79.2653 38.5577 78.8642C39.1145 78.4541 39.7626 78.15 40.5018 77.952C41.3222 77.7321 42.1001 77.6783 42.8355 77.7905C43.5775 77.8912 44.2476 78.1561 44.8457 78.5853L43.7872 80.2603C43.3636 79.9776 42.9293 79.7993 42.4843 79.7253C42.0369 79.6422 41.5788 79.6635 41.11 79.7891C40.6683 79.9075 40.2819 80.0883 39.9509 80.3316C39.62 80.5749 39.3555 80.868 39.1575 81.2109C38.9595 81.5539 38.8334 81.9307 38.7792 82.3414C38.734 82.7497 38.7718 83.1792 38.8925 83.6299C39.0133 84.0807 39.1954 84.4716 39.4387 84.8026C39.691 85.1311 39.9886 85.3944 40.3315 85.5924C40.6744 85.7904 41.05 85.912 41.4583 85.9572C41.8666 86.0024 42.2916 85.9658 42.7333 85.8474C43.2021 85.7218 43.6107 85.5157 43.9591 85.2291C44.305 84.9335 44.5895 84.5529 44.8126 84.0873L46.5669 85.0087C46.2635 85.6794 45.8169 86.2484 45.227 86.7156C44.6462 87.1804 43.9411 87.524 43.1117 87.7462ZM48.307 86.1802L46.3575 78.9049L48.3725 78.365L48.9232 80.4205L48.4798 79.9015C48.5585 79.3297 48.8017 78.849 49.2095 78.4596C49.6148 78.0611 50.1601 77.77 50.8452 77.5864L51.367 79.5337C51.2744 79.5489 51.1921 79.5661 51.12 79.5854C51.0454 79.5958 50.9676 79.6118 50.8865 79.6335C50.3095 79.7881 49.8854 80.0805 49.6141 80.5107C49.3495 80.9295 49.3102 81.4859 49.4962 82.1801L50.4166 85.615L48.307 86.1802ZM57.6516 83.7923C56.8222 84.0145 56.0485 84.0479 55.3304 83.8925C54.6214 83.7346 54.0207 83.4221 53.5284 82.9549C53.0336 82.4787 52.6896 81.88 52.4963 81.1588C52.3007 80.4286 52.2947 79.7393 52.4785 79.091C52.6689 78.4312 53.0149 77.8651 53.5163 77.3925C54.0153 76.9109 54.6345 76.5711 55.3737 76.373C56.0859 76.1822 56.7671 76.1639 57.4172 76.3183C58.0739 76.4612 58.6451 76.7719 59.1309 77.2505C59.6142 77.7201 59.9609 78.347 60.1711 79.1314C60.1928 79.2125 60.2137 79.3084 60.2337 79.419C60.2512 79.5206 60.2676 79.6176 60.2827 79.7102L54.3732 81.2937L54.0435 80.0631L58.8441 78.7767L58.1306 79.3593C58.0291 78.9806 57.8643 78.6721 57.6362 78.4337C57.408 78.1953 57.1382 78.0357 56.8267 77.9549C56.5127 77.8651 56.1754 77.8685 55.8148 77.9651C55.4542 78.0617 55.1559 78.2286 54.9199 78.4658C54.6905 78.6915 54.5378 78.9692 54.4619 79.2987C54.3835 79.6193 54.3963 79.9734 54.5001 80.361L54.5871 80.6856C54.6934 81.0822 54.8732 81.4109 55.1267 81.6715C55.3867 81.9207 55.6962 82.0842 56.0552 82.1619C56.4208 82.2282 56.82 82.2034 57.2527 82.0874C57.6404 81.9835 57.9628 81.8344 58.2199 81.6399C58.486 81.4429 58.7093 81.1947 58.8899 80.8951L60.3384 81.8114C60.1063 82.2794 59.7656 82.6847 59.3163 83.0273C58.8646 83.361 58.3097 83.6159 57.6516 83.7923ZM65.6959 81.6368C65.0107 81.8204 64.3521 81.8326 63.72 81.6735C63.0855 81.5053 62.5311 81.1852 62.0568 80.7132C61.5915 80.2388 61.2574 79.623 61.0545 78.8657C60.8491 78.0994 60.8294 77.3945 60.9951 76.751C61.1699 76.1051 61.4912 75.5552 61.959 75.1013C62.4268 74.6474 63.0033 74.3287 63.6885 74.1451C64.3015 73.9808 64.8741 73.9723 65.4064 74.1196C65.9386 74.2669 66.4047 74.5816 66.8044 75.0639C67.2042 75.5462 67.5189 76.2156 67.7483 77.0721C67.9754 77.9195 68.0421 78.6553 67.9485 79.2795C67.8524 79.8946 67.6107 80.399 67.2234 80.7927C66.8451 81.1839 66.3359 81.4653 65.6959 81.6368ZM65.5972 79.8081C65.9397 79.7163 66.229 79.5518 66.465 79.3146C66.701 79.0775 66.8603 78.7884 66.9429 78.4474C67.032 78.095 67.021 77.7114 66.9099 77.2967C66.7964 76.873 66.6141 76.5353 66.3631 76.2837C66.1211 76.0297 65.8386 75.859 65.5157 75.7716C65.1927 75.6842 64.86 75.6864 64.5174 75.7782C64.1658 75.8724 63.872 76.0381 63.636 76.2753C63.4 76.5124 63.2362 76.8027 63.1446 77.1461C63.0621 77.4871 63.0776 77.8695 63.1911 78.2932C63.3022 78.7079 63.48 79.0467 63.7244 79.3098C63.9754 79.5614 64.2624 79.7309 64.5853 79.8183C64.9083 79.9057 65.2456 79.9023 65.5972 79.8081ZM67.9387 80.9199L67.5401 79.4324L67.001 77.2578L66.2896 75.1439L65.1554 70.9112L67.265 70.346L69.9536 80.38L67.9387 80.9199ZM71.9061 79.8568L69.9567 72.5815L72.0663 72.0162L74.0157 79.2916L71.9061 79.8568ZM70.7397 71.2846C70.3521 71.3885 70.0063 71.3604 69.7025 71.2002C69.3987 71.04 69.2021 70.7932 69.1128 70.4596C69.0234 70.126 69.0702 69.814 69.2532 69.5234C69.4362 69.2327 69.7216 69.0355 70.1092 68.9316C70.4969 68.8278 70.8414 68.8514 71.1428 69.0025C71.4418 69.1447 71.636 69.3825 71.7253 69.7161C71.8196 70.0677 71.7764 70.3933 71.5958 70.6929C71.4217 70.9811 71.1364 71.1783 70.7397 71.2846ZM78.9776 78.078C78.1212 78.3075 77.3961 78.2699 76.8023 77.9652C76.2061 77.6514 75.7921 77.0618 75.5602 76.1964L73.8499 69.8135L75.9595 69.2483L77.6625 75.6041C77.7446 75.9106 77.8898 76.1278 78.098 76.2556C78.3037 76.3744 78.5463 76.3963 78.8258 76.3214C79.1594 76.232 79.4192 76.0658 79.6053 75.8227L80.5718 77.158C80.3965 77.3693 80.1665 77.5565 79.8817 77.7198C79.6035 77.8716 79.3022 77.991 78.9776 78.078ZM73.637 73.5085L73.2022 71.8858L78.2462 70.5342L78.681 72.157L73.637 73.5085ZM84.3269 76.6447C83.7048 76.8113 83.086 76.8999 82.4704 76.9102C81.8613 76.9091 81.3598 76.8406 80.9659 76.7046L81.2633 75.0016C81.6524 75.1196 82.0904 75.1858 82.5774 75.2002C83.071 75.2032 83.5387 75.1456 83.9805 75.0272C84.4673 74.8968 84.7942 74.7464 84.9611 74.576C85.1371 74.4033 85.1973 74.2132 85.1417 74.0059C85.0958 73.8346 84.9808 73.7301 84.7968 73.6924C84.6194 73.6433 84.3939 73.6313 84.1204 73.6563C83.8469 73.6812 83.5463 73.7135 83.2187 73.7529C82.9001 73.79 82.5734 73.8147 82.2385 73.8272C81.9012 73.8306 81.5814 73.7907 81.2788 73.7075C80.9763 73.6243 80.7089 73.4737 80.4766 73.2557C80.2533 73.0353 80.0861 72.7178 79.9749 72.3031C79.8517 71.8433 79.8738 71.4026 80.041 70.9809C80.2172 70.5569 80.5312 70.178 80.9829 69.8444C81.4322 69.5018 82.0085 69.2363 82.7117 69.0479C83.2075 68.915 83.7269 68.8338 84.2697 68.8043C84.8126 68.7748 85.2831 68.8178 85.6812 68.9334L85.3802 70.6228C84.9731 70.5097 84.5795 70.4654 84.1996 70.4899C83.8263 70.503 83.4728 70.5542 83.1392 70.6436C82.6704 70.7692 82.3448 70.9241 82.1622 71.1083C81.9797 71.2925 81.915 71.4837 81.9681 71.6821C82.0164 71.8624 82.1293 71.9771 82.3067 72.0261C82.4931 72.0728 82.7243 72.0882 83.0003 72.0722C83.2762 72.0562 83.5735 72.0297 83.8921 71.9927C84.2173 71.9442 84.5485 71.9183 84.8858 71.9148C85.2231 71.9114 85.5384 71.9525 85.8319 72.0382C86.132 72.1124 86.3982 72.2584 86.6306 72.4764C86.8605 72.6853 87.031 72.9972 87.1421 73.4119C87.2629 73.8626 87.2352 74.3 87.0589 74.7241C86.8803 75.1392 86.5606 75.5147 86.0998 75.8507C85.6481 76.1843 85.0571 76.449 84.3269 76.6447Z" fill="black"/>
</svg>
