<svg width="71" height="71" viewBox="0 0 71 71" fill="none" xmlns="http://www.w3.org/2000/svg">
<rect x="1.5" y="1.5" width="68" height="68" rx="13.5" fill="black" stroke="black" stroke-width="3"/>
<path fill-rule="evenodd" clip-rule="evenodd" d="M28.8627 21.679C28.6893 20.3129 29.4835 19.0107 30.7645 18.561L52.2031 11.0357C52.5821 10.9027 52.986 11.1555 53.0399 11.5594L53.974 18.5716C54.1577 19.9509 53.3533 21.2689 52.0559 21.7141L30.5693 29.0885C30.1896 29.2188 29.7874 28.9635 29.7361 28.5594L28.8627 21.679ZM19.0237 51.5911C18.8473 50.2018 19.6714 48.8824 20.9833 48.4535L42.3214 41.4774C42.8861 41.2928 43.4777 41.6719 43.5573 42.2694L44.4358 48.8645C44.6227 50.2669 43.7882 51.602 42.46 52.0261L20.713 58.97C20.3359 59.0904 19.9433 58.8352 19.8927 58.4367L19.0237 51.5911ZM32.2977 31.276C31.1144 31.6615 30.3117 32.7798 30.3117 34.0427L30.3117 41.3807C30.3117 41.8146 30.7244 42.1249 31.1326 41.9981L40.742 39.0131C41.9522 38.6371 42.7752 37.4971 42.7648 36.2109L42.7051 28.7651C42.7016 28.3298 42.2839 28.0227 41.876 28.1556L32.2977 31.276Z" fill="#5D60EE"/>
</svg>
