<svg width="71" height="71" viewBox="0 0 71 71" fill="none" xmlns="http://www.w3.org/2000/svg">
<circle cx="35.5" cy="35.5" r="34" fill="url(#paint0_linear_14573_2488)" stroke="black" stroke-width="3"/>
<path fill-rule="evenodd" clip-rule="evenodd" d="M53.0614 20.0061L50.7987 53.2834L50.7477 53.333C50.6444 54.1224 50.359 54.7723 49.8772 55.2541C47.6976 57.4334 42.0751 55.5935 35.668 51.0706L37.2689 49.4697C38.8929 50.5975 40.4475 51.5332 41.8821 52.2543C43.8174 53.2277 45.4183 53.7525 46.6069 53.8979C47.8293 54.0472 48.2161 53.7621 48.3008 53.6774C48.3853 53.5929 48.6703 53.2062 48.521 51.9838C48.3757 50.7955 47.8509 49.1943 46.8778 47.259C45.0537 43.6321 41.8609 39.2371 37.6533 34.8967L18.3107 54.2389L18.6812 50.7157L36.0766 33.3203C31.7365 29.1127 27.3415 25.9195 23.7146 24.0958C21.7793 23.1227 20.1785 22.5979 18.9898 22.4526C17.7674 22.3033 17.3807 22.5883 17.2962 22.6728C17.2115 22.7575 16.9264 23.1443 17.0757 24.3667C17.2214 25.5553 17.7459 27.1562 18.7193 29.0915C19.4405 30.5262 20.3761 32.0807 21.5039 33.7047L19.903 35.3056C15.3802 28.8985 13.5402 23.276 15.7195 21.0964C16.2016 20.6143 16.8522 20.3289 17.6426 20.2256C17.658 20.2091 17.6739 20.1928 17.6903 20.1769L50.9688 17.9135L53.214 17.7612L53.0614 20.0061ZM38.8327 20.9742L49.1226 20.2743L44.2747 25.1226C42.3178 23.2608 40.4077 21.9149 38.8327 20.9739M34.4953 21.2686L24.4142 21.9543C28.3596 23.8826 33.0679 27.2943 37.6533 31.7436L42.6976 26.6993C40.5852 24.6955 38.5373 23.336 36.9732 22.4625C36.2981 22.0829 35.6036 21.7388 34.8926 21.4318C34.7372 21.3656 34.6047 21.311 34.4953 21.2686ZM44.2607 28.2892L39.23 33.32C43.6807 37.9067 47.0933 42.6163 49.0213 46.5627L49.7285 36.1588C49.6809 36.0555 49.6212 35.9314 49.5494 35.7863C49.2061 35.0992 48.8327 34.4275 48.4303 33.7733C47.5274 32.2959 46.1702 30.356 44.2611 28.2889M45.8388 26.7115C47.683 28.7001 49.0455 30.5844 50.0047 32.0985L50.7016 21.8483L45.8388 26.7115ZM27.6534 32.8104L20.2036 40.2602L19.8335 43.7834L29.7771 33.8398L27.6534 32.8104ZM37.1341 41.1972L27.2028 51.1282L30.726 50.7581L38.3082 43.1755L37.1341 41.1972Z" fill="white"/>
<defs>
<linearGradient id="paint0_linear_14573_2488" x1="3.00004" y1="3" x2="68" y2="68" gradientUnits="userSpaceOnUse">
<stop stop-color="#FFB0AB"/>
<stop offset="0.464" stop-color="#FF6D63"/>
<stop offset="1" stop-color="#FF4337"/>
</linearGradient>
</defs>
</svg>
