<svg width="74" height="73" viewBox="0 0 74 73" fill="none" xmlns="http://www.w3.org/2000/svg">
<rect x="1.5" y="1.5" width="71" height="70" rx="17.5" fill="#131419"/>
<rect x="1.5" y="1.5" width="71" height="70" rx="17.5" stroke="#202329" stroke-width="3"/>
<g filter="url(#filter0_d_14528_1871)">
<path fill-rule="evenodd" clip-rule="evenodd" d="M59.0171 18.584L56.4021 56.4762L56.3431 56.5327C56.2237 57.4316 55.8939 58.1716 55.3372 58.7202C52.8182 61.2017 46.3205 59.1066 38.9159 53.9566L40.766 52.1337C42.6429 53.4178 44.4394 54.4833 46.0974 55.3044C48.334 56.4129 50.1841 57.0104 51.5578 57.1759C52.9705 57.346 53.4174 57.0214 53.5154 56.9248C53.613 56.8287 53.9424 56.3884 53.7698 54.9964C53.6019 53.6433 52.9954 51.82 51.8708 49.6164C49.7628 45.4865 46.0729 40.482 41.2103 35.5396L18.8565 57.5643L19.2847 53.5524L39.3881 33.7447C34.3724 28.9535 29.2932 25.3176 25.1017 23.2409C22.8651 22.1329 21.015 21.5353 19.6413 21.3698C18.2286 21.1998 17.7817 21.5244 17.6841 21.6205C17.5862 21.717 17.2567 22.1574 17.4293 23.5493C17.5976 24.9028 18.2038 26.7257 19.3287 28.9294C20.1621 30.563 21.2435 32.3331 22.5468 34.1824L20.6967 36.0053C15.4698 28.7096 13.3434 22.3074 15.862 19.8255C16.4191 19.2766 17.171 18.9516 18.0844 18.834C18.1022 18.8151 18.1206 18.7967 18.1395 18.7786L56.5987 16.2013L59.1935 16.0278L59.0171 18.584ZM42.5733 19.6864L54.4651 18.8894L48.8624 24.4101C46.601 22.2901 44.3935 20.7575 42.5733 19.686M37.5606 20.0216L25.9102 20.8024C30.4698 22.9981 35.911 26.8829 41.2103 31.9493L47.0399 26.2054C44.5986 23.9237 42.2319 22.3757 40.4243 21.3811C39.6442 20.9488 38.8415 20.557 38.0198 20.2075C37.8402 20.132 37.6871 20.0698 37.5606 20.0216ZM48.8463 28.0159L43.0324 33.7443C48.176 38.9671 52.1199 44.3298 54.348 48.8235L55.1653 36.9768C55.1102 36.8592 55.0412 36.7178 54.9583 36.5527C54.5616 35.7703 54.1301 35.0054 53.665 34.2604C52.6215 32.5782 51.0531 30.3692 48.8467 28.0155M50.67 26.2194C52.8014 28.4837 54.376 30.6294 55.4845 32.3535L56.2899 20.6817L50.67 26.2194ZM29.6536 33.164L21.0441 41.647L20.6163 45.6588L32.1079 34.3362L29.6536 33.164ZM40.6103 42.7139L29.1329 54.0222L33.2046 53.6007L41.9672 44.9666L40.6103 42.7139Z" fill="url(#paint0_linear_14528_1871)"/>
</g>
<defs>
<filter id="filter0_d_14528_1871" x="13.4922" y="14.7153" width="47.0156" height="46.3591" filterUnits="userSpaceOnUse" color-interpolation-filters="sRGB">
<feFlood flood-opacity="0" result="BackgroundImageFix"/>
<feColorMatrix in="SourceAlpha" type="matrix" values="0 0 0 0 0 0 0 0 0 0 0 0 0 0 0 0 0 0 127 0" result="hardAlpha"/>
<feOffset/>
<feGaussianBlur stdDeviation="0.65625"/>
<feComposite in2="hardAlpha" operator="out"/>
<feColorMatrix type="matrix" values="0 0 0 0 1 0 0 0 0 0.426332 0 0 0 0 0.388542 0 0 0 0.8 0"/>
<feBlend mode="normal" in2="BackgroundImageFix" result="effect1_dropShadow_14528_1871"/>
<feBlend mode="normal" in="SourceGraphic" in2="effect1_dropShadow_14528_1871" result="shape"/>
</filter>
<linearGradient id="paint0_linear_14528_1871" x1="14.8047" y1="16.0278" x2="58.534" y2="60.4117" gradientUnits="userSpaceOnUse">
<stop stop-color="#FFB0AB"/>
<stop offset="0.464" stop-color="#FF6D63"/>
<stop offset="1" stop-color="#FF4337"/>
</linearGradient>
</defs>
</svg>
