<svg width="161" height="81" viewBox="0 0 161 81" fill="none" xmlns="http://www.w3.org/2000/svg">
<g opacity="0.6" filter="url(#filter0_b_7041_85926)">
<path d="M2.24823 32.358C0.775738 20.4308 10.0798 9.90747 22.0975 9.90747H119.842C127.489 9.90747 134.466 14.2679 137.818 21.1412L151.954 50.128C158.432 63.4135 148.758 78.8943 133.977 78.8943H25.6762C15.5781 78.8943 7.06413 71.3668 5.82685 61.3448L2.24823 32.358Z" fill="black"/>
<path d="M2.24823 32.358C0.775738 20.4308 10.0798 9.90747 22.0975 9.90747H119.842C127.489 9.90747 134.466 14.2679 137.818 21.1412L151.954 50.128C158.432 63.4135 148.758 78.8943 133.977 78.8943H25.6762C15.5781 78.8943 7.06413 71.3668 5.82685 61.3448L2.24823 32.358Z" stroke="url(#paint0_linear_7041_85926)" stroke-width="3"/>
</g>
<g filter="url(#filter1_b_7041_85926)">
<path d="M7.59338 16.941C8.05824 8.45729 15.073 1.81641 23.5694 1.81641H124.151C130.435 1.81641 136.137 5.49429 138.728 11.2187L151.36 39.1264C152.298 41.1993 152.783 43.4486 152.783 45.7241V54.3773C152.783 63.2139 145.62 70.3773 136.783 70.3773H26.0647C18.1313 70.3773 11.3959 64.5639 10.2365 56.7156L6.95502 34.5024C6.79791 33.4389 6.74838 32.3622 6.8072 31.2887L7.59338 16.941Z" fill="url(#paint1_linear_7041_85926)"/>
<path d="M7.59338 16.941C8.05824 8.45729 15.073 1.81641 23.5694 1.81641H124.151C130.435 1.81641 136.137 5.49429 138.728 11.2187L151.36 39.1264C152.298 41.1993 152.783 43.4486 152.783 45.7241V54.3773C152.783 63.2139 145.62 70.3773 136.783 70.3773H26.0647C18.1313 70.3773 11.3959 64.5639 10.2365 56.7156L6.95502 34.5024C6.79791 33.4389 6.74838 32.3622 6.8072 31.2887L7.59338 16.941Z" stroke="url(#paint2_linear_7041_85926)"/>
</g>
<g filter="url(#filter2_b_7041_85926)">
<path d="M8.18199 18.9007C6.7387 9.23067 14.2295 0.538818 24.0067 0.538818H123.82C130.055 0.538818 135.722 4.16119 138.341 9.82015L149.937 34.8833C154.843 45.4865 147.099 57.602 135.416 57.602H27.7475C19.8231 57.602 13.0925 51.8014 11.9228 43.9639L8.18199 18.9007Z" fill="url(#paint3_linear_7041_85926)"/>
<path d="M8.18199 18.9007C6.7387 9.23067 14.2295 0.538818 24.0067 0.538818H123.82C130.055 0.538818 135.722 4.16119 138.341 9.82015L149.937 34.8833C154.843 45.4865 147.099 57.602 135.416 57.602H27.7475C19.8231 57.602 13.0925 51.8014 11.9228 43.9639L8.18199 18.9007Z" stroke="url(#paint4_linear_7041_85926)"/>
</g>
<path d="M34.007 32L36.247 20.8H40.807C42.2043 20.8 43.2816 21.104 44.039 21.712C44.807 22.32 45.191 23.1733 45.191 24.272C45.191 25.2107 44.967 26.0267 44.519 26.72C44.0816 27.4027 43.4523 27.9307 42.631 28.304C41.8203 28.6773 40.8603 28.864 39.751 28.864H36.103L37.463 27.728L36.615 32H34.007ZM41.207 32L38.919 27.936H41.639L43.943 32H41.207ZM37.399 28.032L36.503 26.8H39.847C40.711 26.8 41.3776 26.608 41.847 26.224C42.327 25.8293 42.567 25.2587 42.567 24.512C42.567 23.968 42.3803 23.568 42.007 23.312C41.6443 23.0453 41.1323 22.912 40.471 22.912H37.319L38.679 21.648L37.399 28.032ZM49.5006 25.312H54.8926L54.4926 27.328H49.1006L49.5006 25.312ZM48.7646 29.92H54.8766L54.4446 32H45.7726L48.0126 20.8H56.4766L56.0446 22.88H50.1726L48.7646 29.92ZM59.0387 32L57.6147 20.8H60.1747L61.4227 30.704H60.0787L65.3747 20.8H67.7747L68.9747 30.704H67.6947L72.9587 20.8H75.5347L69.6147 32H66.8467L65.7267 23.296H66.5107L61.8227 32H59.0387ZM72.8787 32L80.1107 20.8H82.6867L85.4387 32H82.8467L80.6707 22.08H81.6947L75.6467 32H72.8787ZM75.8707 29.6L76.9267 27.632H82.7027L83.0067 29.6H75.8707ZM86.6007 32L88.8407 20.8H93.4007C94.7981 20.8 95.8754 21.104 96.6327 21.712C97.4007 22.32 97.7847 23.1733 97.7847 24.272C97.7847 25.2107 97.5607 26.0267 97.1127 26.72C96.6754 27.4027 96.0461 27.9307 95.2247 28.304C94.4141 28.6773 93.4541 28.864 92.3447 28.864H88.6967L90.0567 27.728L89.2087 32H86.6007ZM93.8007 32L91.5127 27.936H94.2327L96.5367 32H93.8007ZM89.9927 28.032L89.0967 26.8H92.4407C93.3047 26.8 93.9714 26.608 94.4407 26.224C94.9207 25.8293 95.1607 25.2587 95.1607 24.512C95.1607 23.968 94.9741 23.568 94.6007 23.312C94.2381 23.0453 93.7261 22.912 93.0647 22.912H89.9127L91.2727 21.648L89.9927 28.032ZM98.3663 32L100.606 20.8H105.294C106.446 20.8 107.433 20.992 108.254 21.376C109.086 21.7493 109.721 22.288 110.158 22.992C110.596 23.6853 110.814 24.512 110.814 25.472C110.814 26.464 110.644 27.36 110.302 28.16C109.972 28.96 109.497 29.648 108.878 30.224C108.26 30.7893 107.524 31.2267 106.67 31.536C105.817 31.8453 104.873 32 103.838 32H98.3663ZM101.39 29.872H103.918C104.825 29.872 105.593 29.6853 106.222 29.312C106.862 28.9387 107.348 28.432 107.678 27.792C108.02 27.152 108.19 26.4267 108.19 25.616C108.19 25.0613 108.073 24.5867 107.838 24.192C107.604 23.7867 107.246 23.4773 106.766 23.264C106.297 23.04 105.71 22.928 105.006 22.928H102.782L101.39 29.872ZM115.489 32.192C114.881 32.192 114.289 32.1333 113.713 32.016C113.148 31.9093 112.63 31.76 112.161 31.568C111.702 31.376 111.313 31.168 110.993 30.944L112.049 28.944C112.401 29.1893 112.774 29.4027 113.169 29.584C113.574 29.7547 113.996 29.888 114.433 29.984C114.87 30.0693 115.308 30.112 115.745 30.112C116.225 30.112 116.636 30.0587 116.977 29.952C117.329 29.8453 117.596 29.696 117.777 29.504C117.969 29.312 118.065 29.0773 118.065 28.8C118.065 28.544 117.964 28.336 117.761 28.176C117.558 28.016 117.292 27.8827 116.961 27.776C116.641 27.6587 116.284 27.5467 115.889 27.44C115.494 27.3333 115.094 27.2107 114.689 27.072C114.294 26.9227 113.932 26.7413 113.601 26.528C113.281 26.304 113.02 26.0213 112.817 25.68C112.614 25.3387 112.513 24.912 112.513 24.4C112.513 23.632 112.721 22.9653 113.137 22.4C113.564 21.8347 114.161 21.3973 114.929 21.088C115.697 20.768 116.598 20.608 117.633 20.608C118.39 20.608 119.105 20.6933 119.777 20.864C120.449 21.024 121.025 21.2587 121.505 21.568L120.529 23.552C120.102 23.264 119.628 23.0507 119.105 22.912C118.582 22.7627 118.044 22.688 117.489 22.688C116.988 22.688 116.556 22.7467 116.193 22.864C115.841 22.9813 115.569 23.1467 115.377 23.36C115.196 23.5627 115.105 23.7973 115.105 24.064C115.105 24.3307 115.201 24.5493 115.393 24.72C115.596 24.88 115.862 25.0187 116.193 25.136C116.524 25.2427 116.886 25.3493 117.281 25.456C117.676 25.5627 118.07 25.6853 118.465 25.824C118.86 25.9627 119.222 26.1387 119.553 26.352C119.884 26.5653 120.15 26.8373 120.353 27.168C120.556 27.488 120.657 27.8933 120.657 28.384C120.657 29.152 120.444 29.824 120.017 30.4C119.59 30.9653 118.988 31.408 118.209 31.728C117.441 32.0373 116.534 32.192 115.489 32.192Z" fill="white"/>
<defs>
<filter id="filter0_b_7041_85926" x="-19.4062" y="-11.5925" width="194.91" height="111.987" filterUnits="userSpaceOnUse" color-interpolation-filters="sRGB">
<feFlood flood-opacity="0" result="BackgroundImageFix"/>
<feGaussianBlur in="BackgroundImageFix" stdDeviation="10"/>
<feComposite in2="SourceAlpha" operator="in" result="effect1_backgroundBlur_7041_85926"/>
<feBlend mode="normal" in="SourceGraphic" in2="effect1_backgroundBlur_7041_85926" result="shape"/>
</filter>
<filter id="filter1_b_7041_85926" x="-13.7148" y="-18.6836" width="187" height="109.561" filterUnits="userSpaceOnUse" color-interpolation-filters="sRGB">
<feFlood flood-opacity="0" result="BackgroundImageFix"/>
<feGaussianBlur in="BackgroundImageFix" stdDeviation="10"/>
<feComposite in2="SourceAlpha" operator="in" result="effect1_backgroundBlur_7041_85926"/>
<feBlend mode="normal" in="SourceGraphic" in2="effect1_backgroundBlur_7041_85926" result="shape"/>
</filter>
<filter id="filter2_b_7041_85926" x="-12.4961" y="-19.9612" width="184.434" height="98.0632" filterUnits="userSpaceOnUse" color-interpolation-filters="sRGB">
<feFlood flood-opacity="0" result="BackgroundImageFix"/>
<feGaussianBlur in="BackgroundImageFix" stdDeviation="10"/>
<feComposite in2="SourceAlpha" operator="in" result="effect1_backgroundBlur_7041_85926"/>
<feBlend mode="normal" in="SourceGraphic" in2="effect1_backgroundBlur_7041_85926" result="shape"/>
</filter>
<linearGradient id="paint0_linear_7041_85926" x1="106.189" y1="9.90747" x2="106.189" y2="78.8943" gradientUnits="userSpaceOnUse">
<stop stop-color="#191A20"/>
<stop offset="1" stop-color="#39393E"/>
</linearGradient>
<linearGradient id="paint1_linear_7041_85926" x1="86.3987" y1="39.6367" x2="86.3987" y2="70.3773" gradientUnits="userSpaceOnUse">
<stop stop-color="#282626"/>
<stop offset="1" stop-color="#141313"/>
</linearGradient>
<linearGradient id="paint2_linear_7041_85926" x1="86.3987" y1="8.97715" x2="86.3987" y2="70.3773" gradientUnits="userSpaceOnUse">
<stop stop-color="#66676D"/>
<stop offset="1" stop-opacity="0"/>
</linearGradient>
<linearGradient id="paint3_linear_7041_85926" x1="87.2035" y1="0.538818" x2="87.2035" y2="57.602" gradientUnits="userSpaceOnUse">
<stop stop-color="#4E4B4B"/>
<stop offset="1" stop-color="#373535"/>
</linearGradient>
<linearGradient id="paint4_linear_7041_85926" x1="87.2035" y1="0.538818" x2="87.2035" y2="57.602" gradientUnits="userSpaceOnUse">
<stop stop-color="#66676D"/>
<stop offset="1" stop-opacity="0"/>
</linearGradient>
</defs>
</svg>
