<svg width="161" height="82" viewBox="0 0 161 82" fill="none" xmlns="http://www.w3.org/2000/svg">
<g opacity="0.6" filter="url(#filter0_b_7041_85926)">
<path d="M158.533 33.358C160.006 21.4308 150.701 10.9075 138.684 10.9075H40.9395C33.2925 10.9075 26.3149 15.2679 22.9631 22.1412L8.82756 51.128C2.34882 64.4135 12.023 79.8943 26.804 79.8943H135.105C145.203 79.8943 153.717 72.3668 154.954 62.3448L158.533 33.358Z" fill="black"/>
<path d="M158.533 33.358C160.006 21.4308 150.701 10.9075 138.684 10.9075H40.9395C33.2925 10.9075 26.3149 15.2679 22.9631 22.1412L8.82756 51.128C2.34882 64.4135 12.023 79.8943 26.804 79.8943H135.105C145.203 79.8943 153.717 72.3668 154.954 62.3448L158.533 33.358Z" stroke="url(#paint0_linear_7041_85926)" stroke-width="3"/>
</g>
<g filter="url(#filter1_b_7041_85926)">
<path d="M153.418 14.3325C152.069 6.68675 145.426 1.11304 137.662 1.11304H36.5619C30.0986 1.11304 24.2701 5.0017 21.7884 10.9696L9.2281 41.174C8.41846 43.121 8.00166 45.2088 8.00166 47.3175V55.3773C8.00166 64.2139 15.1651 71.3774 24.0017 71.3774H135.82C143.831 71.3774 150.607 65.4538 151.677 57.5153L154.698 35.1109C154.844 34.0246 154.879 32.9262 154.801 31.833L153.64 15.5917L153.418 14.3325Z" fill="url(#paint1_linear_7041_85926)"/>
<path d="M153.418 14.3325C152.069 6.68675 145.426 1.11304 137.662 1.11304H36.5619C30.0986 1.11304 24.2701 5.0017 21.7884 10.9696L9.2281 41.174C8.41846 43.121 8.00166 45.2088 8.00166 47.3175V55.3773C8.00166 64.2139 15.1651 71.3774 24.0017 71.3774H135.82C143.831 71.3774 150.607 65.4538 151.677 57.5153L154.698 35.1109C154.844 34.0246 154.879 32.9262 154.801 31.833L153.64 15.5917L153.418 14.3325Z" stroke="url(#paint2_linear_7041_85926)"/>
</g>
<g filter="url(#filter2_b_7041_85926)">
<path d="M152.603 19.9007C154.046 10.2307 146.556 1.53882 136.778 1.53882H36.9654C30.7301 1.53882 25.0627 5.16119 22.4444 10.8201L10.848 35.8833C5.94206 46.4865 13.6858 58.602 25.369 58.602H133.038C140.962 58.602 147.693 52.8014 148.862 44.9639L152.603 19.9007Z" fill="url(#paint3_linear_7041_85926)"/>
<path d="M152.603 19.9007C154.046 10.2307 146.556 1.53882 136.778 1.53882H36.9654C30.7301 1.53882 25.0627 5.16119 22.4444 10.8201L10.848 35.8833C5.94206 46.4865 13.6858 58.602 25.369 58.602H133.038C140.962 58.602 147.693 52.8014 148.862 44.9639L152.603 19.9007Z" stroke="url(#paint4_linear_7041_85926)"/>
</g>
<path d="M54.7492 33L56.9892 21.8H61.5492C62.9465 21.8 64.0238 22.104 64.7812 22.712C65.5492 23.32 65.9332 24.1733 65.9332 25.272C65.9332 26.2107 65.7092 27.0267 65.2612 27.72C64.8238 28.4027 64.1945 28.9307 63.3732 29.304C62.5625 29.6773 61.6025 29.864 60.4932 29.864H56.8452L58.2052 28.728L57.3572 33H54.7492ZM61.9492 33L59.6612 28.936H62.3812L64.6852 33H61.9492ZM58.1412 29.032L57.2452 27.8H60.5892C61.4532 27.8 62.1198 27.608 62.5892 27.224C63.0692 26.8293 63.3092 26.2587 63.3092 25.512C63.3092 24.968 63.1225 24.568 62.7492 24.312C62.3865 24.0453 61.8745 23.912 61.2132 23.912H58.0612L59.4212 22.648L58.1412 29.032ZM71.7948 33.192C70.7068 33.192 69.8001 32.9787 69.0748 32.552C68.3494 32.1253 67.8374 31.5333 67.5388 30.776C67.2508 30.008 67.2081 29.1067 67.4108 28.072L68.6588 21.8H71.2668L70.0188 28.024C69.9228 28.5253 69.8961 28.9627 69.9388 29.336C69.9814 29.7093 70.0881 30.0187 70.2588 30.264C70.4401 30.5093 70.6854 30.6907 70.9948 30.808C71.3041 30.9253 71.6668 30.984 72.0828 30.984C72.6054 30.984 73.0588 30.8827 73.4428 30.68C73.8268 30.4773 74.1468 30.1573 74.4028 29.72C74.6588 29.2827 74.8561 28.7173 74.9948 28.024L76.2428 21.8H78.7868L77.5228 28.184C77.1921 29.8373 76.5468 31.0853 75.5868 31.928C74.6268 32.7707 73.3628 33.192 71.7948 33.192ZM79.1242 33L81.3642 21.8H83.9722L82.1482 30.888H87.7642L87.3322 33H79.1242ZM92.5084 26.312H97.9004L97.5004 28.328H92.1084L92.5084 26.312ZM91.7724 30.92H97.8844L97.4524 33H88.7804L91.0204 21.8H99.4844L99.0524 23.88H93.1804L91.7724 30.92ZM103.419 33.192C102.811 33.192 102.219 33.1333 101.643 33.016C101.077 32.9093 100.56 32.76 100.091 32.568C99.6321 32.376 99.2428 32.168 98.9228 31.944L99.9788 29.944C100.331 30.1893 100.704 30.4027 101.099 30.584C101.504 30.7547 101.925 30.888 102.363 30.984C102.8 31.0693 103.237 31.112 103.675 31.112C104.155 31.112 104.565 31.0587 104.907 30.952C105.259 30.8453 105.525 30.696 105.707 30.504C105.899 30.312 105.995 30.0773 105.995 29.8C105.995 29.544 105.893 29.336 105.691 29.176C105.488 29.016 105.221 28.8827 104.891 28.776C104.571 28.6587 104.213 28.5467 103.819 28.44C103.424 28.3333 103.024 28.2107 102.619 28.072C102.224 27.9227 101.861 27.7413 101.531 27.528C101.211 27.304 100.949 27.0213 100.747 26.68C100.544 26.3387 100.443 25.912 100.443 25.4C100.443 24.632 100.651 23.9653 101.067 23.4C101.493 22.8347 102.091 22.3973 102.859 22.088C103.627 21.768 104.528 21.608 105.563 21.608C106.32 21.608 107.035 21.6933 107.707 21.864C108.379 22.024 108.955 22.2587 109.435 22.568L108.459 24.552C108.032 24.264 107.557 24.0507 107.035 23.912C106.512 23.7627 105.973 23.688 105.419 23.688C104.917 23.688 104.485 23.7467 104.123 23.864C103.771 23.9813 103.499 24.1467 103.307 24.36C103.125 24.5627 103.035 24.7973 103.035 25.064C103.035 25.3307 103.131 25.5493 103.323 25.72C103.525 25.88 103.792 26.0187 104.123 26.136C104.453 26.2427 104.816 26.3493 105.211 26.456C105.605 26.5627 106 26.6853 106.395 26.824C106.789 26.9627 107.152 27.1387 107.483 27.352C107.813 27.5653 108.08 27.8373 108.283 28.168C108.485 28.488 108.587 28.8933 108.587 29.384C108.587 30.152 108.373 30.824 107.947 31.4C107.52 31.9653 106.917 32.408 106.139 32.728C105.371 33.0373 104.464 33.192 103.419 33.192Z" fill="white"/>
<defs>
<filter id="filter0_b_7041_85926" x="-14.7227" y="-10.5925" width="194.91" height="111.987" filterUnits="userSpaceOnUse" color-interpolation-filters="sRGB">
<feFlood flood-opacity="0" result="BackgroundImageFix"/>
<feGaussianBlur in="BackgroundImageFix" stdDeviation="10"/>
<feComposite in2="SourceAlpha" operator="in" result="effect1_backgroundBlur_7041_85926"/>
<feBlend mode="normal" in="SourceGraphic" in2="effect1_backgroundBlur_7041_85926" result="shape"/>
</filter>
<filter id="filter1_b_7041_85926" x="-12.5" y="-19.387" width="187.84" height="111.264" filterUnits="userSpaceOnUse" color-interpolation-filters="sRGB">
<feFlood flood-opacity="0" result="BackgroundImageFix"/>
<feGaussianBlur in="BackgroundImageFix" stdDeviation="10"/>
<feComposite in2="SourceAlpha" operator="in" result="effect1_backgroundBlur_7041_85926"/>
<feBlend mode="normal" in="SourceGraphic" in2="effect1_backgroundBlur_7041_85926" result="shape"/>
</filter>
<filter id="filter2_b_7041_85926" x="-11.1523" y="-18.9612" width="184.434" height="98.0632" filterUnits="userSpaceOnUse" color-interpolation-filters="sRGB">
<feFlood flood-opacity="0" result="BackgroundImageFix"/>
<feGaussianBlur in="BackgroundImageFix" stdDeviation="10"/>
<feComposite in2="SourceAlpha" operator="in" result="effect1_backgroundBlur_7041_85926"/>
<feBlend mode="normal" in="SourceGraphic" in2="effect1_backgroundBlur_7041_85926" result="shape"/>
</filter>
<linearGradient id="paint0_linear_7041_85926" x1="54.5919" y1="10.9075" x2="54.5919" y2="79.8943" gradientUnits="userSpaceOnUse">
<stop stop-color="#191A20"/>
<stop offset="1" stop-color="#39393E"/>
</linearGradient>
<linearGradient id="paint1_linear_7041_85926" x1="74.4249" y1="39.873" x2="74.4249" y2="71.3773" gradientUnits="userSpaceOnUse">
<stop stop-color="#282626"/>
<stop offset="1" stop-color="#141313"/>
</linearGradient>
<linearGradient id="paint2_linear_7041_85926" x1="74.4248" y1="8.45169" x2="74.4248" y2="71.3773" gradientUnits="userSpaceOnUse">
<stop stop-color="#66676D"/>
<stop offset="1" stop-opacity="0"/>
</linearGradient>
<linearGradient id="paint3_linear_7041_85926" x1="73.5816" y1="1.53882" x2="73.5816" y2="58.602" gradientUnits="userSpaceOnUse">
<stop stop-color="#4E4B4B"/>
<stop offset="1" stop-color="#373535"/>
</linearGradient>
<linearGradient id="paint4_linear_7041_85926" x1="73.5816" y1="1.53882" x2="73.5816" y2="58.602" gradientUnits="userSpaceOnUse">
<stop stop-color="#66676D"/>
<stop offset="1" stop-opacity="0"/>
</linearGradient>
</defs>
</svg>
