<svg width="495" height="424" viewBox="0 0 495 424" fill="none" xmlns="http://www.w3.org/2000/svg">
<path opacity="0.6" fill-rule="evenodd" clip-rule="evenodd" d="M460.134 53.7938C527.929 171.217 487.697 321.366 370.273 389.16C304.554 427.103 228.584 431.208 162.537 406.881C221.21 425.498 286.774 420.492 343.775 387.583C452.472 324.826 488.866 184.367 425.064 73.8582C361.262 -36.6506 221.423 -75.3616 112.726 -12.6053C57.1126 19.5032 20.4259 71.952 6.40199 130.323C19.3823 62.772 60.5212 1.02555 124.768 -36.0674C242.191 -103.862 392.34 -63.6296 460.134 53.7938ZM3.08101 153.487C12.16 86.3574 50.6678 24.3788 113.226 -11.7392C221.432 -74.2117 360.664 -35.6859 424.198 74.3582C487.732 184.402 451.48 324.244 343.275 386.717C279.297 423.654 204.473 425.284 140.863 397.699C113.302 384.438 88.028 365.948 66.6839 342.669C131.014 407.358 233.329 423.362 316.335 375.439C415.174 318.374 449.204 192.274 392.343 93.7875C335.482 -4.69929 209.261 -38.2781 110.421 18.787C25.2157 67.9806 -11.8271 168.477 16.0022 258.36C3.85187 224.101 -0.234988 188.321 3.08101 153.487ZM1.0186 181.455C1.65884 215.134 9.22362 249.078 24.2887 281.138C25.1279 284.786 26.2128 288.407 27.5493 291.978C9.09109 256.709 0.540964 218.738 1.0186 181.455ZM2.08653 153.381C-4.55967 202.57 4.52601 254.509 31.4366 301.119C32.0295 302.146 32.6289 303.167 33.2349 304.181C33.3837 304.445 33.534 304.709 33.6859 304.972C34.7075 306.741 35.7822 308.461 36.907 310.13C62.7869 350.709 99.2728 380.747 140.438 398.605C211.392 432.742 297.439 432.366 370.773 390.026C488.675 321.956 529.071 171.196 461.001 53.2938C392.93 -64.6079 242.17 -105.004 124.268 -36.9334C52.4521 4.5295 9.39264 76.6721 2.08653 153.381ZM115.74 384.929C92.1263 370.024 70.8024 350.937 52.9877 327.995C50.2738 325.721 47.6842 323.265 45.2386 320.633C64.542 347.425 88.7089 369.041 115.74 384.929ZM44.479 316.35C46.2277 318.896 48.0176 321.4 49.847 323.861C45.3739 319.633 41.3045 314.864 37.7422 309.58C36.5035 307.637 35.2892 305.67 34.1 303.68C31.4615 298.997 29.3129 294.169 27.6381 289.256C29.2708 293.053 31.1438 296.796 33.2621 300.465C36.5702 306.195 40.3334 311.496 44.479 316.35ZM33.3778 298.644C33.5976 299.029 33.8186 299.414 34.0408 299.799C34.1192 299.935 34.1978 300.071 34.2765 300.207C34.3208 300.284 34.3651 300.361 34.4098 300.439L34.4639 300.532L34.568 300.711L34.6022 300.771C34.6471 300.849 34.6923 300.928 34.7375 301.007C34.5327 300.661 34.3295 300.314 34.1281 299.965C33.8743 299.525 33.6243 299.085 33.3778 298.644ZM391.477 94.2875C448.061 192.293 414.199 317.782 315.835 374.573C234.302 421.646 134.052 406.74 69.9074 344.448C128.084 397.511 215.887 409.571 287.467 368.244C376.07 317.089 406.262 203.507 354.903 114.551C303.545 25.5957 190.084 -5.04801 101.481 46.1068C34.3613 84.8583 0.760965 159.434 10.7393 231.99C-3.19304 149.835 34.2898 63.8963 110.921 19.6531C209.286 -37.1376 334.894 -3.71808 391.477 94.2875ZM286.967 367.378C375.088 316.501 405.122 203.532 354.037 115.051C302.953 26.5707 190.102 -3.90397 101.981 46.9729C28.7049 89.2787 -4.40624 174.518 15.8889 252.911C0.477106 183.42 30.8218 109.06 95.736 71.5815C175.867 25.318 278.33 52.7728 324.593 132.904C370.857 213.034 343.402 315.497 263.271 361.761C202.272 396.979 128.332 389.477 76.0929 348.539C133.89 397.185 218.002 407.195 286.967 367.378ZM43.1577 310.776C40.5097 307.846 38.1015 304.627 35.9816 301.131C35.7697 300.774 35.5588 300.415 35.3489 300.055C32.406 294.833 30.3822 289.338 29.2269 283.759C31.2959 288.529 33.6583 293.231 36.3202 297.841C40.1371 304.453 44.4242 310.624 49.1155 316.338C47.0149 314.645 45.0222 312.789 43.1577 310.776ZM96.236 72.4476C175.888 26.4602 277.74 53.7511 323.727 133.404C369.714 213.056 342.424 314.907 262.771 360.895C199.727 397.293 122.777 387.786 70.6261 342.746C117.875 380.707 185.445 387.944 241.09 355.817C313.455 314.038 338.249 221.505 296.469 149.14C254.689 76.7755 162.156 51.9815 89.7916 93.7613C34.1514 125.885 6.63429 188.013 15.8781 247.908C2.95513 180.229 33.1973 108.843 96.236 72.4476ZM240.59 354.951C312.476 313.448 337.106 221.527 295.603 149.64C254.099 77.7538 162.178 53.1236 90.2916 94.6273C30.112 129.372 3.05037 199.45 20.1819 263.528C17.3316 250.206 16.6993 236.666 18.1481 223.427C20.2138 178.074 44.7566 134.608 87.1443 110.135C153.086 72.0639 237.243 94.3772 275.115 159.973C312.987 225.569 290.232 309.608 224.291 347.68C190.337 367.283 151.554 370.876 116.747 360.795C98.6385 356.806 81.4194 348.838 66.4962 337.272C65.7488 336.857 65.0069 336.431 64.2709 335.994C111.351 378.846 182.509 388.484 240.59 354.951ZM60.9632 332.725C60.7791 332.602 60.5956 332.478 60.4124 332.354C60.0266 331.977 59.6427 331.597 59.2605 331.216C59.8241 331.725 60.3917 332.228 60.9632 332.725ZM274.249 160.473C311.842 225.587 289.258 309.016 223.791 346.814C194.515 363.716 161.624 368.629 130.844 363.073C156.168 365.707 182.486 360.677 206.172 347.002C266.182 312.355 286.578 235.334 251.727 174.972C216.877 114.609 139.977 93.7617 79.9673 128.408C48.636 146.498 28.1032 176.137 20.5936 208.926C26.6847 169.321 50.1204 132.666 87.6443 111.001C153.112 73.2036 236.655 95.3598 274.249 160.473ZM19.1461 223.499C23.3261 185.406 44.8732 149.825 80.4673 129.274C139.994 94.9067 216.284 115.582 250.861 175.472C285.438 235.361 265.199 311.768 205.672 346.136C177.787 362.235 146.224 366.256 116.994 359.825C107.531 357.082 98.364 353.32 89.6733 348.588C120.832 361.231 157.289 359.886 188.665 341.77C242.674 310.588 261.179 241.527 229.997 187.518C198.815 133.51 129.754 115.005 75.7453 146.187C40.9519 166.275 20.8932 202.083 19.3612 239.46C18.9748 234.132 18.9056 228.803 19.1461 223.499ZM100.92 355.147C94.0497 352.212 87.4056 348.712 81.0647 344.669C79.0921 343.669 77.1466 342.611 75.2309 341.494C74.1263 341.034 73.0305 340.552 71.9445 340.046C80.9578 346.362 90.7118 351.422 100.92 355.147ZM76.9512 340.722C78.0659 341.292 79.19 341.84 80.3227 342.368C86.1775 344.409 92.2448 345.813 98.4103 346.548C89.2804 344.753 80.4311 341.621 72.1775 337.235C73.7457 338.434 75.3374 339.597 76.9512 340.722ZM66.5149 333.97C67.6958 334.966 68.8919 335.94 70.1023 336.892C68.7408 336.061 67.3964 335.198 66.0704 334.303C63.9435 332.748 61.8659 331.112 59.8424 329.398C62.0066 331.022 64.2333 332.547 66.5149 333.97ZM67.1062 333.16C80.227 341.33 95.1815 346.114 110.53 347.125C124.352 346.8 138.291 343.103 151.109 335.703C191.919 312.141 205.902 259.957 182.34 219.146C158.778 178.336 106.594 164.353 65.7833 187.915C39.6164 203.023 24.4788 229.897 23.1952 257.995C23.3026 260.459 23.5082 262.925 23.8134 265.387C24.0949 266.412 24.389 267.436 24.6958 268.458C22.5749 239.986 36.4939 211.458 62.8753 196.227C99.5872 175.032 146.531 187.61 167.726 224.322C188.922 261.034 176.343 307.977 139.631 329.173C114.773 343.524 85.2245 342.392 62.1541 328.767C63.7727 330.275 65.424 331.74 67.1062 333.16ZM57.9533 326.098C58.8854 327.032 59.8295 327.951 60.7851 328.854C58.2034 326.935 55.7103 324.874 53.3186 322.674C54.8245 323.877 56.3707 325.019 57.9533 326.098ZM52.661 318.973C70.0607 330.874 93.4436 332.527 112.919 321.283C139.975 305.662 149.245 271.067 133.624 244.011C118.004 216.955 83.4078 207.685 56.3522 223.306C36.024 235.042 25.7363 257.491 28.5025 279.405C30.9203 285.5 33.8106 291.495 37.1862 297.341C41.7149 305.185 46.9105 312.406 52.661 318.973ZM25.2255 273.395C25.1707 273.234 25.1162 273.073 25.062 272.911C25.1541 273.353 25.2495 273.794 25.3481 274.235C25.3057 273.955 25.2648 273.675 25.2255 273.395ZM18.4434 240.579C18.6146 242.712 18.8363 244.845 19.1091 246.975C19.0983 248.276 19.1117 249.578 19.1494 250.881C18.7711 247.448 18.5365 244.011 18.4434 240.579ZM21.3752 259.772C21.5977 261.337 21.854 262.9 22.1444 264.461C22.1284 263.923 22.1174 263.386 22.1114 262.849C21.8537 261.825 21.6083 260.799 21.3752 259.772ZM20.3663 248.803C20.2642 246.389 20.2407 243.977 20.2948 241.571C22.3162 208.11 40.4524 176.362 71.4977 158.438C120.817 129.964 184.059 147.147 212.748 196.838C241.438 246.53 224.698 309.891 175.379 338.365C148.034 354.153 116.409 355.905 88.7656 345.862C95.8596 347.524 103.168 348.295 110.51 348.126C128.506 349.304 147.035 345.35 163.826 335.656C209.01 309.569 224.491 251.793 198.404 206.609C172.317 161.425 114.541 145.944 69.3567 172.031C37.7937 190.253 20.7247 223.94 22.194 257.995C22.1831 258.236 22.1733 258.477 22.1644 258.717C21.4389 255.424 20.8401 252.117 20.3663 248.803ZM68.3391 337.134C67.9069 336.904 67.4764 336.671 67.0478 336.434C66.2935 335.848 65.5452 335.254 64.8029 334.65C65.0313 334.807 65.2602 334.963 65.4897 335.118C66.4301 335.805 67.3801 336.478 68.3391 337.134ZM229.131 188.018C260.037 241.549 241.696 309.998 188.165 340.904C155.483 359.773 117.239 360.286 85.3741 345.64C113.989 357.052 147.254 355.758 175.879 339.231C225.682 310.478 242.577 246.502 213.615 196.338C184.652 146.175 120.801 128.818 70.9977 157.572C46.5536 171.685 30.037 194.283 22.9792 219.568C29.5762 190.085 48.0186 163.35 76.2453 147.053C129.776 116.147 198.225 134.488 229.131 188.018ZM23.9732 272.582C23.8041 271.747 23.6465 270.91 23.5006 270.072C23.5371 270.45 23.5761 270.828 23.6177 271.205C23.7332 271.664 23.8517 272.124 23.9732 272.582ZM197.538 207.109C223.349 251.814 208.031 308.979 163.326 334.79C149.981 342.495 135.525 346.535 121.125 347.222C131.572 345.674 141.908 342.17 151.609 336.569C192.898 312.731 207.044 259.935 183.206 218.646C159.368 177.358 106.572 163.211 65.2833 187.049C42.1275 200.418 27.5086 222.895 23.3391 247.342C25.4532 217.41 41.9146 189.029 69.8567 172.897C114.562 147.086 171.727 162.403 197.538 207.109ZM166.86 224.822C187.78 261.055 175.365 307.387 139.131 328.307C114.312 342.636 84.7553 341.325 61.8728 327.433C82.3548 338.476 107.916 338.96 129.547 326.471C162.729 307.313 174.098 264.884 154.941 231.702C135.783 198.52 93.3535 187.151 60.1716 206.309C38.5485 218.793 26.1884 241.159 25.5023 264.409C24.9226 237.656 38.5651 211.417 63.3753 197.093C99.6089 176.174 145.941 188.588 166.86 224.822ZM129.047 325.605C161.751 306.723 172.956 264.906 154.075 232.202C135.193 199.498 93.3752 188.293 60.6716 207.175C43.8789 216.87 32.7546 232.613 28.4613 250.064C32.972 234.857 43.0911 221.284 57.9121 212.727C88.623 194.996 127.893 205.518 145.624 236.229C163.355 266.94 152.832 306.21 122.122 323.941C101.613 335.781 77.2876 335.023 58.1085 324.066C78.9217 337.303 106.207 338.792 129.047 325.605ZM144.758 236.729C162.213 266.962 151.854 305.62 121.622 323.075C103.772 333.38 82.9854 333.991 65.3596 326.54C80.693 331.98 98.2246 330.922 113.419 322.149C140.953 306.252 150.387 271.045 134.49 243.511C118.594 215.977 83.3861 206.543 55.8522 222.44C36.6875 233.505 26.2918 253.925 27.1032 274.601C24.7318 250.653 36.2155 226.408 58.4121 213.593C88.6447 196.138 127.303 206.496 144.758 236.729Z" fill="url(#paint0_radial_14642_513)"/>
<defs>
<radialGradient id="paint0_radial_14642_513" cx="0" cy="0" r="1" gradientUnits="userSpaceOnUse" gradientTransform="translate(473 109.5) rotate(155.473) scale(458.908 268.546)">
<stop stop-color="white"/>
<stop offset="1" stop-color="white" stop-opacity="0"/>
</radialGradient>
</defs>
</svg>
