<svg width="220" height="36" viewBox="0 0 220 36" fill="none" xmlns="http://www.w3.org/2000/svg">
  <path d="M12.6693 2.92133C13.6806 2.33742 14.9266 2.33742 15.938 2.92133L26.3987 8.9608C27.41 9.5447 28.033 10.6238 28.033 11.7916V23.8706C28.033 25.0384 27.41 26.1175 26.3987 26.7014L15.938 32.7408C14.9266 33.3247 13.6806 33.3247 12.6693 32.7408L2.20859 26.7014C1.19724 26.1175 0.574219 25.0384 0.574219 23.8706V11.7916C0.574219 10.6238 1.19724 9.5447 2.20859 8.9608L12.6693 2.92133Z" fill="url(#paint0_radial_21537_359)"/>
  <path d="M12.691 15.6789L2.07385 9.44189L0.957031 11.5121L11.5597 17.8164C12.4846 18.3663 13.0513 19.3627 13.0513 20.4387V32.4592H15.4484V20.4446C15.4484 19.3655 16.0186 18.3666 16.9478 17.8178L27.6244 11.5121L26.5893 9.44189L15.7612 15.6907C14.8102 16.2395 13.6377 16.235 12.691 15.6789Z" fill="url(#paint1_radial_21537_359)"/>
  <path fill-rule="evenodd" clip-rule="evenodd" d="M81.7635 9.29395C82.3158 9.29395 82.7635 9.74166 82.7635 10.2939V11.9173C82.7635 12.4696 82.3158 12.9173 81.7635 12.9173H79.8814C79.3291 12.9173 78.8814 12.4696 78.8814 11.9173V10.2939C78.8814 9.74166 79.3291 9.29395 79.8814 9.29395H81.7635ZM92.2243 23.0453C91.9741 23.1742 91.6708 23.2386 91.3144 23.2386C90.9125 23.2386 90.5903 23.1552 90.3477 22.9884C90.105 22.814 89.9193 22.5789 89.7904 22.2832C89.6614 21.9799 89.5743 21.6311 89.5288 21.2369C89.4908 20.835 89.4719 20.4066 89.4719 19.9516V19.6901C89.4719 19.2427 89.4908 18.8219 89.5288 18.4276C89.5743 18.0333 89.6577 17.6845 89.779 17.3812C89.9079 17.0703 90.0936 16.8277 90.3363 16.6533C90.5789 16.4789 90.8974 16.3917 91.2917 16.3917C91.686 16.3917 92.0082 16.4827 92.2584 16.6647C92.5162 16.8391 92.7058 17.0741 92.8271 17.3698C93.0398 17.8882 93.458 18.3707 94.0183 18.3707H95.6104C96.1598 18.3707 96.6182 17.9244 96.5357 17.3812C96.4399 16.7506 96.2425 16.1896 95.9435 15.6979C95.4961 14.9624 94.8781 14.4013 94.0896 14.0146C93.3086 13.6279 92.4063 13.4346 91.3827 13.4346C90.4273 13.4346 89.6932 13.564 88.8454 13.8228C87.9975 14.0816 86.872 14.807 86.3867 15.3757C85.909 15.9368 85.4647 16.6154 85.222 17.3812C84.987 18.1395 84.9536 18.8029 84.9536 19.6901V19.9516C84.9536 20.8388 85.0711 21.6615 85.3062 22.4197C85.5488 23.178 85.909 23.736 86.3867 24.3047C86.872 24.8658 87.6293 25.6161 88.716 25.8576C89.8027 26.0991 90.4424 26.1957 91.4054 26.1957C92.3911 26.1957 93.2745 26.0062 94.0554 25.6271C94.844 25.2404 95.4658 24.702 95.9207 24.012C96.211 23.5742 96.4087 23.0916 96.5138 22.5642C96.6211 22.0257 96.1604 21.5781 95.6113 21.5781H93.9274C93.4172 21.5781 93.0486 22.0287 92.8044 22.4766C92.6755 22.7192 92.4821 22.9088 92.2243 23.0453ZM82.7635 15.2112C82.7635 14.6589 82.3158 14.2112 81.7635 14.2112H79.8814C79.3291 14.2112 78.8814 14.6589 78.8814 15.2112V24.8577C78.8814 25.41 79.3291 25.8577 79.8814 25.8577H81.7635C82.3158 25.8577 82.7635 25.41 82.7635 24.8577V15.2112ZM65.3888 9.94099C64.8365 9.94099 64.3888 10.3887 64.3888 10.941V24.9072C64.3888 25.4595 64.8365 25.9072 65.3888 25.9072H67.1997C67.6937 25.9072 68.1137 25.5464 68.1883 25.058L68.235 24.752C68.5673 25.1304 68.9582 25.4386 69.4076 25.6766C69.9747 25.97 70.6552 26.1167 71.4491 26.1167C72.3241 26.1167 73.0815 25.977 73.7215 25.6976C74.3615 25.4182 74.8922 25.0235 75.3135 24.5135C75.7347 23.9965 76.0466 23.3852 76.2492 22.6797C76.4517 21.9741 76.553 21.1917 76.553 20.3324V20.1123C76.553 19.281 76.4746 18.5646 76.2942 17.7054C76.1137 16.8461 75.7347 16.1518 75.3135 15.6349C74.8922 15.1179 74.3575 14.7162 73.7094 14.4298C73.0694 14.1434 72.3079 14.0001 71.4248 14.0001C70.639 14.0001 69.9625 14.1503 69.3954 14.4507C69.0594 14.6271 68.7556 14.8274 68.484 15.0745V10.941C68.484 10.3887 68.0363 9.94099 67.484 9.94099H65.3888ZM68.484 22.0942V17.9849C68.5179 17.9261 68.5544 17.8703 68.5934 17.8175C68.7716 17.5799 69.0066 17.3983 69.2982 17.2726C69.598 17.1468 69.9666 17.0839 70.404 17.0839C70.8334 17.0839 71.1818 17.1643 71.4491 17.3249C71.7165 17.4856 71.923 17.7057 72.0689 17.9851C72.2147 18.2646 72.316 18.5859 72.3727 18.9492C72.4294 19.3124 72.4577 19.7002 72.4577 20.1123V20.3324L72.4577 20.4034V20.4036C72.4578 20.5936 72.4578 20.6706 72.4518 20.7471C72.4477 20.7992 72.4408 20.8511 72.4292 20.9383L72.429 20.9401C72.4242 20.9764 72.4185 21.0188 72.412 21.0699C72.3634 21.4472 72.2909 21.8327 72.1532 22.1052C72.0154 22.3776 71.761 22.6181 71.4856 22.7648C71.2182 22.9115 70.8658 22.9849 70.4283 22.9849C69.8369 22.9849 69.3711 22.8766 69.0309 22.66C68.8033 22.5152 68.621 22.3266 68.484 22.0942ZM56.6242 25.7283C57.1589 25.4538 57.5978 25.1469 57.966 24.6725L58.0003 25.0831C58.0437 25.6013 58.4769 25.9998 58.9969 25.9998H60.6711C61.2234 25.9998 61.6711 25.5521 61.6711 24.9998V15.2112C61.6711 14.6589 61.2234 14.2112 60.6711 14.2112H58.8268C58.2745 14.2112 57.8268 14.6589 57.8268 15.2112V20.9888V21.0697C57.8268 22.2124 57.2713 22.6226 56.883 22.781C56.4948 22.9395 55.9532 23.0108 55.589 23.0108C55.2248 23.0108 54.6831 22.8814 54.2949 22.6226C53.9067 22.3638 53.728 21.4579 53.728 20.6815V15.2091C53.728 14.6568 53.2803 14.2112 52.728 14.2112H50.7791C50.2268 14.2112 49.7791 14.6589 49.7791 15.2112V21.6551C49.7791 22.4664 49.8777 23.164 50.0748 23.7478C50.2795 24.3241 50.5639 24.798 50.9278 25.1695C51.2918 25.5335 51.724 25.8026 52.2244 25.977C52.7324 26.1438 53.4058 26.2272 54.0123 26.2272C54.7403 26.2272 56.0707 26.0089 56.6242 25.7283ZM35.3672 10.0705C34.8149 10.0705 34.3672 10.5183 34.3672 11.0705V24.8581C34.3672 25.4104 34.8149 25.8581 35.3672 25.8581H37.3943C37.9466 25.8581 38.3943 25.4104 38.3943 24.8581V20.2847H40.8233C40.831 20.3014 40.8392 20.3179 40.8479 20.3344L43.4886 25.3257C43.6619 25.6532 44.002 25.8581 44.3725 25.8581H46.5187C47.2802 25.8581 47.7623 25.041 47.3941 24.3745L44.7612 19.6088C45.1341 19.411 45.4713 19.1538 45.8843 18.7408C46.5314 18.0937 46.7763 17.7149 47.0746 17.1077C47.3729 16.5005 47.522 15.7451 47.522 14.8415C47.522 13.8006 47.262 12.9259 46.7419 12.2175C46.2294 11.5091 45.4989 10.9741 44.5504 10.6127C43.602 10.2513 42.4852 10.0705 41.2002 10.0705H35.3672ZM40.9669 17.086H38.3943V14.1763C38.3943 13.624 38.842 13.1763 39.3943 13.1763H41.2002C41.6974 13.1763 42.261 13.3057 42.6492 13.6939C43.0374 14.0821 43.1668 14.4704 43.1668 15.1174C43.1668 15.7644 43.0374 16.282 42.5198 16.6703C42.0022 17.0585 41.4794 17.086 40.9669 17.086Z" fill="white"/>
  <path d="M203.953 30.7774L206.391 15.3887H210.057L215.301 24.7538H213.601L215.084 15.3887H219.431L216.993 30.7774H213.327L208.082 21.4123H209.783L208.3 30.7774H203.953Z" fill="white"/>
  <path d="M183.293 30.7776L185.602 16.1987H190.102L187.793 30.7776H183.293Z" fill="white"/>
  <path d="M151.138 30.7776L152.583 20.6534H148.709L149.428 16.1987H161.637L160.917 20.6534H157.043L155.598 30.7776H151.138Z" fill="white"/>
  <path d="M174.072 30.7776L175.516 20.6534H171.642L172.362 16.1987H184.57L183.851 20.6534H179.976L178.532 30.7776H174.072Z" fill="white"/>
  <path d="M141.225 31.0475C140.259 31.0475 139.347 30.9123 138.489 30.6418C137.632 30.3714 137.546 30.3596 137.032 29.9269L137.368 25.6517C137.854 26.0438 139.283 26.8079 139.914 27.0513C140.559 27.2812 141.199 27.3962 141.836 27.3962C142.209 27.3962 142.505 27.3691 142.722 27.3151C142.952 27.2474 143.125 27.1595 143.241 27.0513C143.359 26.9296 143.431 26.7876 143.457 26.6254C143.498 26.3684 143.415 26.1656 143.208 26.0168C143 25.868 142.712 25.7463 142.343 25.6517C141.987 25.5435 141.592 25.4353 141.159 25.3271C140.728 25.2054 140.297 25.0499 139.866 24.8605C139.446 24.6712 139.068 24.421 138.733 24.11C138.409 23.7989 138.171 23.3932 138.02 22.8929C137.871 22.379 137.856 21.7434 137.976 20.9861C138.115 20.107 138.439 19.3091 138.948 18.5924C139.47 17.8621 140.161 17.2806 141.02 16.8479C141.89 16.4151 142.918 16.1987 144.104 16.1987C144.883 16.1987 145.636 16.3002 146.361 16.503C147.087 16.7059 147.718 17.0169 148.256 17.4361L147.746 22.4263C147.305 21.6758 145.941 20.4455 144.999 20.1138C144.5 19.938 143.998 19.8501 143.492 19.8501C143.119 19.8501 142.816 19.8906 142.584 19.9718C142.351 20.0529 142.175 20.1611 142.055 20.2964C141.945 20.4316 141.878 20.5803 141.852 20.7426C141.814 20.9861 141.898 21.1821 142.105 21.3309C142.314 21.4661 142.598 21.5811 142.956 21.6758C143.326 21.7704 143.727 21.8718 144.16 21.98C144.604 22.0882 145.036 22.237 145.456 22.4263C145.876 22.6156 146.249 22.8658 146.573 23.1769C146.908 23.4879 147.151 23.8936 147.302 24.394C147.453 24.8943 147.47 25.5164 147.352 26.2602C147.215 27.1257 146.886 27.9236 146.364 28.6539C145.855 29.3706 145.17 29.9521 144.309 30.3984C143.45 30.8312 142.422 31.0475 141.225 31.0475Z" fill="white"/>
  <path d="M183.777 14.8489L186.043 0.540039H192.358C193.786 0.540039 194.997 0.83303 195.99 1.41901C196.985 1.99137 197.704 2.80902 198.146 3.87196C198.588 4.9349 198.692 6.20226 198.459 7.67403C198.224 9.15942 197.716 10.4404 196.935 11.517C196.156 12.5799 195.178 13.4044 193.999 13.9904C192.822 14.5627 191.52 14.8489 190.092 14.8489H183.777ZM188.692 11.0877H190.505C191.115 11.0877 191.666 10.9582 192.159 10.6993C192.663 10.4404 193.084 10.0588 193.42 9.55462C193.758 9.03677 193.986 8.40991 194.102 7.67403C194.217 6.95177 194.186 6.33853 194.009 5.83432C193.833 5.3301 193.533 4.94853 193.111 4.68961C192.7 4.43069 192.19 4.30122 191.579 4.30122H189.767L188.692 11.0877Z" fill="white"/>
  <path d="M172.538 14.8489L174.805 0.540039H179.261L177.587 11.1082H183.553L182.961 14.8489H172.538Z" fill="white"/>
  <path d="M164.365 15.3888C163.31 15.3888 162.364 15.1996 161.528 14.8211C160.704 14.4427 160.021 13.9102 159.479 13.2234C158.94 12.5226 158.56 11.7028 158.341 10.7637C158.134 9.8247 158.118 8.80159 158.293 7.69438C158.471 6.57316 158.811 5.55005 159.313 4.62504C159.83 3.68602 160.468 2.87313 161.227 2.18638C161.989 1.48562 162.842 0.94603 163.785 0.567619C164.741 0.189206 165.741 0 166.784 0C167.84 0 168.779 0.189206 169.603 0.567619C170.427 0.94603 171.108 1.48562 171.648 2.18638C172.19 2.87313 172.564 3.68602 172.771 4.62504C172.993 5.55005 173.015 6.57316 172.838 7.69438C172.662 8.80159 172.316 9.8247 171.799 10.7637C171.295 11.7028 170.661 12.5226 169.9 13.2234C169.141 13.9102 168.289 14.4427 167.346 14.8211C166.402 15.1996 165.408 15.3888 164.365 15.3888ZM164.983 11.3734C165.388 11.3734 165.775 11.2893 166.146 11.1211C166.528 10.9529 166.873 10.7147 167.179 10.4063C167.501 10.084 167.77 9.69857 167.989 9.25008C168.209 8.78758 168.365 8.26901 168.456 7.69438C168.547 7.11976 168.554 6.6082 168.478 6.15971C168.404 5.69721 168.256 5.31179 168.035 5.00345C167.828 4.6811 167.56 4.43583 167.231 4.26765C166.914 4.09947 166.553 4.01537 166.148 4.01537C165.743 4.01537 165.349 4.09947 164.967 4.26765C164.596 4.43583 164.251 4.6811 163.93 5.00345C163.623 5.31179 163.359 5.69721 163.139 6.15971C162.921 6.6082 162.766 7.11976 162.675 7.69438C162.584 8.26901 162.575 8.78758 162.649 9.25008C162.726 9.69857 162.867 10.084 163.074 10.4063C163.295 10.7147 163.564 10.9529 163.881 11.1211C164.21 11.2893 164.578 11.3734 164.983 11.3734Z" fill="white"/>
  <path d="M195.955 30.7774C194.899 30.7774 193.954 30.5882 193.118 30.2098C192.294 29.8314 191.611 29.2988 191.069 28.6121C190.53 27.9113 190.15 27.0914 189.931 26.1524C189.723 25.2134 189.708 24.1903 189.883 23.0831C190.06 21.9618 190.4 20.9387 190.903 20.0137C191.42 19.0747 192.058 18.2618 192.817 17.5751C193.579 16.8743 194.431 16.3347 195.375 15.9563C196.331 15.5779 197.331 15.3887 198.374 15.3887C199.429 15.3887 200.369 15.5779 201.193 15.9563C202.017 16.3347 202.698 16.8743 203.238 17.5751C203.78 18.2618 204.154 19.0747 204.361 20.0137C204.583 20.9387 204.605 21.9618 204.428 23.0831C204.252 24.1903 203.906 25.2134 203.389 26.1524C202.884 27.0914 202.251 27.9113 201.49 28.6121C200.73 29.2988 199.879 29.8314 198.935 30.2098C197.992 30.5882 196.998 30.7774 195.955 30.7774ZM196.573 26.7621C196.978 26.7621 197.365 26.678 197.736 26.5098C198.118 26.3416 198.463 26.1033 198.769 25.795C199.09 25.4727 199.36 25.0872 199.578 24.6388C199.799 24.1762 199.955 23.6577 200.046 23.0831C200.137 22.5084 200.144 21.9969 200.068 21.5484C199.994 21.0859 199.846 20.7005 199.625 20.3921C199.418 20.0698 199.15 19.8245 198.821 19.6563C198.504 19.4881 198.143 19.404 197.738 19.404C197.333 19.404 196.939 19.4881 196.556 19.6563C196.186 19.8245 195.84 20.0698 195.519 20.3921C195.213 20.7005 194.949 21.0859 194.729 21.5484C194.51 21.9969 194.356 22.5084 194.265 23.0831C194.174 23.6577 194.165 24.1762 194.239 24.6388C194.315 25.0872 194.457 25.4727 194.664 25.795C194.885 26.1033 195.154 26.3416 195.471 26.5098C195.8 26.678 196.167 26.7621 196.573 26.7621Z" fill="white"/>
  <path d="M154.082 0.540039H158.362L156.096 14.8489H151.816L154.082 0.540039ZM147.862 14.8489H143.581L145.848 0.540039H150.128L147.862 14.8489ZM152.941 9.57506H148.407L149.035 5.60946H153.569L152.941 9.57506Z" fill="white"/>
  <path d="M156.131 32.3974C141.013 32.3974 134.713 34.7372 133.453 35.9072H199.193C212.476 35.9072 216.606 33.5673 217.011 32.3974H173.275C170.143 26.7819 170.17 19.2585 170.575 16.1987C162.692 16.1987 157.661 26.9979 156.131 32.3974Z" fill="url(#paint2_linear_21537_359)"/>
  <path fill-rule="evenodd" clip-rule="evenodd" d="M120.711 11.2681C120.337 11.2681 119.993 11.4772 119.821 11.8101L117.4 16.5106L114.978 11.8101C114.807 11.4772 114.463 11.2681 114.089 11.2681C113.34 11.2681 112.855 12.0605 113.198 12.726L116.274 18.6966L113.194 24.6746C112.851 25.3402 113.336 26.1326 114.085 26.1326C114.459 26.1326 114.803 25.9234 114.975 25.5905L117.4 20.8826L119.825 25.5905C119.997 25.9234 120.34 26.1326 120.715 26.1326C121.463 26.1326 121.948 25.3402 121.606 24.6746L118.526 18.6966L121.602 12.726C121.945 12.0605 121.46 11.2681 120.711 11.2681Z" fill="white"/>
  <defs>
    <radialGradient id="paint0_radial_21537_359" cx="0" cy="0" r="1" gradientUnits="userSpaceOnUse" gradientTransform="translate(14.3036 17.8311) rotate(90) scale(15.8534 15.8534)">
      <stop offset="0.29" stop-color="white"/>
      <stop offset="0.5" stop-color="#C3F8E4"/>
      <stop offset="0.7" stop-color="#53EBB2"/>
      <stop offset="0.88" stop-color="#00E28D"/>
    </radialGradient>
    <radialGradient id="paint1_radial_21537_359" cx="0" cy="0" r="1" gradientUnits="userSpaceOnUse" gradientTransform="translate(14.2907 20.9506) rotate(90) scale(11.5087 13.3337)">
      <stop stop-color="#00E28D"/>
      <stop offset="1" stop-color="#18E498"/>
    </radialGradient>
    <linearGradient id="paint2_linear_21537_359" x1="133.453" y1="26.0529" x2="217.011" y2="26.0529" gradientUnits="userSpaceOnUse">
      <stop stop-color="#664EFF"/>
      <stop offset="0.37" stop-color="#CA68A5"/>
      <stop offset="0.66" stop-color="#FF817B"/>
      <stop offset="1" stop-color="#FFB893"/>
    </linearGradient>
  </defs>
</svg>
