<svg xmlns="http://www.w3.org/2000/svg" width="1544" height="439" viewBox="0 0 1544 439" fill="none">
  <path opacity="0.2" d="M-102.5 331L-210 438.5H-6.5M-102.5 331H1652M-102.5 331L-22.5 251M1652 331L1759.5 438.5H1505.5M1652 331L1572 251M-22.5 251H1572M-22.5 251L31 197.5M1572 251L1518.5 197.5M31 197.5H1518.5M31 197.5L69.5 159M1518.5 197.5L1480 159M69.5 159H1480M69.5 159L99 129.5M1480 159L1450.5 129.5M99 129.5H1450.5M99 129.5L125.5 103M1450.5 129.5L1424 103M125.5 103H1424M125.5 103L149.5 79M1424 103L1400 79M1400 79H149.5M1400 79L1377.5 56.5M149.5 79L172 56.5M172 56.5H1377.5M172 56.5L191 37.5M1377.5 56.5L1358.5 37.5M1358.5 37.5H191M1358.5 37.5L1342.25 21.25M191 37.5L207.25 21.25M207.25 21.25H1342.25M207.25 21.25L217.375 11.125M1342.25 21.25L1332.12 11.125M1332.12 11.125L1322 1H1221.5M1332.12 11.125H217.375M217.375 11.125L227.5 1H326M-6.5 438.5L326 1M-6.5 438.5H227.5M326 1H449.5M1505.5 438.5L1221.5 1M1505.5 438.5H1299M1221.5 1H1101M227.5 438.5L449.5 1M227.5 438.5H507M449.5 1H587.75M1101 1L1299 438.5M1101 1H953.25M1299 438.5H1034.75M770.5 1V438.5M770.5 1H953.25M770.5 1H587.75M770.5 438.5H1034.75M770.5 438.5H507M1034.75 438.5L953.25 1M587.75 1L507 438.5" stroke="#00FEFF"/>
</svg>