<svg width="587" height="86" viewBox="0 0 587 86" fill="none" xmlns="http://www.w3.org/2000/svg">
<g filter="url(#filter0_b_1_5)">
<path d="M5.9988 30.7606C7.13854 20.6455 15.6939 13 25.873 13H561.875C572.161 13 580.769 20.8016 581.778 31.0377L584.835 62.0377C585.995 73.802 576.753 84 564.931 84H22.3801C10.4475 84 1.16978 73.6182 2.50584 61.7606L5.9988 30.7606Z" fill="url(#paint0_linear_1_5)"/>
<path d="M5.9988 30.7606C7.13854 20.6455 15.6939 13 25.873 13H561.875C572.161 13 580.769 20.8016 581.778 31.0377L584.835 62.0377C585.995 73.802 576.753 84 564.931 84H22.3801C10.4475 84 1.16978 73.6182 2.50584 61.7606L5.9988 30.7606Z" stroke="url(#paint1_linear_1_5)" stroke-width="3"/>
</g>
<g filter="url(#filter1_b_1_5)">
<path d="M7.45558 19.0476C8.91781 9.25068 17.331 2 27.2365 2H559.764C569.669 2 578.082 9.25068 579.544 19.0476L583.574 46.0476C585.378 58.1352 576.015 69 563.793 69H23.2066C10.9851 69 1.62161 58.1352 3.42573 46.0476L7.45558 19.0476Z" fill="#FDFE03"/>
<path d="M7.45558 19.0476C8.91781 9.25068 17.331 2 27.2365 2H559.764C569.669 2 578.082 9.25068 579.544 19.0476L583.574 46.0476C585.378 58.1352 576.015 69 563.793 69H23.2066C10.9851 69 1.62161 58.1352 3.42573 46.0476L7.45558 19.0476Z" stroke="url(#paint2_linear_1_5)" stroke-width="3"/>
</g>
<path d="M258.289 47.576C256.801 47.576 255.373 47.468 254.005 47.252C252.637 47.036 251.389 46.736 250.261 46.352C249.157 45.944 248.197 45.5 247.381 45.02L250.657 38.756C251.593 39.284 252.529 39.728 253.465 40.088C254.425 40.424 255.373 40.676 256.309 40.844C257.269 41.012 258.217 41.096 259.153 41.096C259.897 41.096 260.509 41.036 260.989 40.916C261.493 40.796 261.865 40.628 262.105 40.412C262.369 40.172 262.501 39.908 262.501 39.62C262.501 39.236 262.285 38.924 261.853 38.684C261.421 38.444 260.845 38.228 260.125 38.036C259.429 37.844 258.649 37.652 257.785 37.46C256.945 37.244 256.093 36.98 255.229 36.668C254.365 36.332 253.573 35.912 252.853 35.408C252.157 34.904 251.593 34.268 251.161 33.5C250.729 32.732 250.513 31.796 250.513 30.692C250.513 28.772 251.017 27.104 252.025 25.688C253.057 24.272 254.521 23.18 256.417 22.412C258.337 21.62 260.617 21.224 263.257 21.224C265.129 21.224 266.869 21.416 268.477 21.8C270.109 22.16 271.513 22.688 272.689 23.384L269.629 29.576C268.621 28.952 267.517 28.484 266.317 28.172C265.141 27.86 263.941 27.704 262.717 27.704C261.901 27.704 261.217 27.788 260.665 27.956C260.113 28.1 259.693 28.304 259.405 28.568C259.141 28.832 259.009 29.108 259.009 29.396C259.009 29.78 259.225 30.104 259.657 30.368C260.089 30.608 260.665 30.824 261.385 31.016C262.105 31.184 262.885 31.376 263.725 31.592C264.589 31.784 265.441 32.036 266.281 32.348C267.145 32.636 267.937 33.032 268.657 33.536C269.377 34.016 269.953 34.64 270.385 35.408C270.817 36.152 271.033 37.076 271.033 38.18C271.033 40.052 270.517 41.696 269.485 43.112C268.453 44.504 266.977 45.596 265.057 46.388C263.161 47.18 260.905 47.576 258.289 47.576ZM271.941 47L276.981 21.8H288.177C291.561 21.8 294.165 22.532 295.989 23.996C297.837 25.46 298.761 27.512 298.761 30.152C298.761 32.264 298.233 34.124 297.177 35.732C296.145 37.34 294.669 38.588 292.749 39.476C290.853 40.364 288.609 40.808 286.017 40.808H277.881L282.417 37.1L280.437 47H271.941ZM282.201 38.108L279.213 34.256H286.449C287.625 34.256 288.537 33.968 289.185 33.392C289.833 32.792 290.157 31.964 290.157 30.908C290.157 29.996 289.869 29.348 289.293 28.964C288.741 28.556 287.973 28.352 286.989 28.352H280.401L284.937 24.392L282.201 38.108ZM298.343 47L303.383 21.8H311.879L306.839 47H298.343ZM310.929 47L315.969 21.8H322.953L332.421 37.136H329.469L332.529 21.8H340.809L335.769 47H328.785L319.317 31.664H322.269L319.209 47H310.929Z" fill="black"/>
<defs>
<filter id="filter0_b_1_5" x="-19.1225" y="-8.5" width="625.556" height="114" filterUnits="userSpaceOnUse" color-interpolation-filters="sRGB">
<feFlood flood-opacity="0" result="BackgroundImageFix"/>
<feGaussianBlur in="BackgroundImageFix" stdDeviation="10"/>
<feComposite in2="SourceAlpha" operator="in" result="effect1_backgroundBlur_1_5"/>
<feBlend mode="normal" in="SourceGraphic" in2="effect1_backgroundBlur_1_5" result="shape"/>
</filter>
<filter id="filter1_b_1_5" x="-18.2978" y="-19.5" width="623.596" height="110" filterUnits="userSpaceOnUse" color-interpolation-filters="sRGB">
<feFlood flood-opacity="0" result="BackgroundImageFix"/>
<feGaussianBlur in="BackgroundImageFix" stdDeviation="10"/>
<feComposite in2="SourceAlpha" operator="in" result="effect1_backgroundBlur_1_5"/>
<feBlend mode="normal" in="SourceGraphic" in2="effect1_backgroundBlur_1_5" result="shape"/>
</filter>
<linearGradient id="paint0_linear_1_5" x1="293.5" y1="48" x2="293.5" y2="84" gradientUnits="userSpaceOnUse">
<stop stop-color="#8D943B"/>
<stop offset="1" stop-color="#51551A"/>
</linearGradient>
<linearGradient id="paint1_linear_1_5" x1="293.5" y1="13" x2="293.5" y2="84" gradientUnits="userSpaceOnUse">
<stop stop-color="#EBF479"/>
<stop offset="1" stop-color="#777D2E"/>
</linearGradient>
<linearGradient id="paint2_linear_1_5" x1="293.5" y1="2" x2="293.5" y2="69" gradientUnits="userSpaceOnUse">
<stop stop-color="#EBF479"/>
<stop offset="1" stop-color="white"/>
</linearGradient>
</defs>
</svg>
