<svg width="587" height="85" viewBox="0 0 587 85" fill="none" xmlns="http://www.w3.org/2000/svg">
<g opacity="0.6" filter="url(#filter0_b_13520_21)">
<path d="M5.9988 29.7606C7.13854 19.6455 15.6939 12 25.873 12H561.875C572.161 12 580.769 19.8016 581.778 30.0377L584.835 61.0377C585.995 72.802 576.753 83 564.931 83H22.3801C10.4475 83 1.16978 72.6182 2.50584 60.7606L5.9988 29.7606Z" fill="black"/>
<path d="M5.9988 29.7606C7.13854 19.6455 15.6939 12 25.873 12H561.875C572.161 12 580.769 19.8016 581.778 30.0377L584.835 61.0377C585.995 72.802 576.753 83 564.931 83H22.3801C10.4475 83 1.16978 72.6182 2.50584 60.7606L5.9988 29.7606Z" stroke="url(#paint0_linear_13520_21)" stroke-width="3"/>
</g>
<g filter="url(#filter1_b_13520_21)">
<path d="M7.96446 14.6381C9.13425 6.80054 15.8648 1 23.7892 1H563.211C571.135 1 577.866 6.80055 579.036 14.6381L584.259 49.6381C585.703 59.3082 578.212 68 568.435 68H18.5653C8.78811 68 1.29729 59.3082 2.74058 49.6381L7.96446 14.6381Z" fill="url(#paint1_linear_13520_21)"/>
<path d="M7.96446 14.6381C9.13425 6.80054 15.8648 1 23.7892 1H563.211C571.135 1 577.866 6.80055 579.036 14.6381L584.259 49.6381C585.703 59.3082 578.212 68 568.435 68H18.5653C8.78811 68 1.29729 59.3082 2.74058 49.6381L7.96446 14.6381Z" stroke="url(#paint2_linear_13520_21)"/>
</g>
<path d="M258.289 46.576C256.801 46.576 255.373 46.468 254.005 46.252C252.637 46.036 251.389 45.736 250.261 45.352C249.157 44.944 248.197 44.5 247.381 44.02L250.657 37.756C251.593 38.284 252.529 38.728 253.465 39.088C254.425 39.424 255.373 39.676 256.309 39.844C257.269 40.012 258.217 40.096 259.153 40.096C259.897 40.096 260.509 40.036 260.989 39.916C261.493 39.796 261.865 39.628 262.105 39.412C262.369 39.172 262.501 38.908 262.501 38.62C262.501 38.236 262.285 37.924 261.853 37.684C261.421 37.444 260.845 37.228 260.125 37.036C259.429 36.844 258.649 36.652 257.785 36.46C256.945 36.244 256.093 35.98 255.229 35.668C254.365 35.332 253.573 34.912 252.853 34.408C252.157 33.904 251.593 33.268 251.161 32.5C250.729 31.732 250.513 30.796 250.513 29.692C250.513 27.772 251.017 26.104 252.025 24.688C253.057 23.272 254.521 22.18 256.417 21.412C258.337 20.62 260.617 20.224 263.257 20.224C265.129 20.224 266.869 20.416 268.477 20.8C270.109 21.16 271.513 21.688 272.689 22.384L269.629 28.576C268.621 27.952 267.517 27.484 266.317 27.172C265.141 26.86 263.941 26.704 262.717 26.704C261.901 26.704 261.217 26.788 260.665 26.956C260.113 27.1 259.693 27.304 259.405 27.568C259.141 27.832 259.009 28.108 259.009 28.396C259.009 28.78 259.225 29.104 259.657 29.368C260.089 29.608 260.665 29.824 261.385 30.016C262.105 30.184 262.885 30.376 263.725 30.592C264.589 30.784 265.441 31.036 266.281 31.348C267.145 31.636 267.937 32.032 268.657 32.536C269.377 33.016 269.953 33.64 270.385 34.408C270.817 35.152 271.033 36.076 271.033 37.18C271.033 39.052 270.517 40.696 269.485 42.112C268.453 43.504 266.977 44.596 265.057 45.388C263.161 46.18 260.905 46.576 258.289 46.576ZM271.941 46L276.981 20.8H288.177C291.561 20.8 294.165 21.532 295.989 22.996C297.837 24.46 298.761 26.512 298.761 29.152C298.761 31.264 298.233 33.124 297.177 34.732C296.145 36.34 294.669 37.588 292.749 38.476C290.853 39.364 288.609 39.808 286.017 39.808H277.881L282.417 36.1L280.437 46H271.941ZM282.201 37.108L279.213 33.256H286.449C287.625 33.256 288.537 32.968 289.185 32.392C289.833 31.792 290.157 30.964 290.157 29.908C290.157 28.996 289.869 28.348 289.293 27.964C288.741 27.556 287.973 27.352 286.989 27.352H280.401L284.937 23.392L282.201 37.108ZM298.343 46L303.383 20.8H311.879L306.839 46H298.343ZM310.929 46L315.969 20.8H322.953L332.421 36.136H329.469L332.529 20.8H340.809L335.769 46H328.785L319.317 30.664H322.269L319.209 46H310.929Z" fill="#636363"/>
<defs>
<filter id="filter0_b_13520_21" x="-19.123" y="-9.5" width="625.557" height="114" filterUnits="userSpaceOnUse" color-interpolation-filters="sRGB">
<feFlood flood-opacity="0" result="BackgroundImageFix"/>
<feGaussianBlur in="BackgroundImageFix" stdDeviation="10"/>
<feComposite in2="SourceAlpha" operator="in" result="effect1_backgroundBlur_13520_21"/>
<feBlend mode="normal" in="SourceGraphic" in2="effect1_backgroundBlur_13520_21" result="shape"/>
</filter>
<filter id="filter1_b_13520_21" x="-17.9375" y="-19.5" width="622.875" height="108" filterUnits="userSpaceOnUse" color-interpolation-filters="sRGB">
<feFlood flood-opacity="0" result="BackgroundImageFix"/>
<feGaussianBlur in="BackgroundImageFix" stdDeviation="10"/>
<feComposite in2="SourceAlpha" operator="in" result="effect1_backgroundBlur_13520_21"/>
<feBlend mode="normal" in="SourceGraphic" in2="effect1_backgroundBlur_13520_21" result="shape"/>
</filter>
<linearGradient id="paint0_linear_13520_21" x1="363.863" y1="12" x2="363.863" y2="83" gradientUnits="userSpaceOnUse">
<stop stop-color="#191A20"/>
<stop offset="1" stop-color="#39393E"/>
</linearGradient>
<linearGradient id="paint1_linear_13520_21" x1="293.5" y1="1" x2="293.5" y2="68" gradientUnits="userSpaceOnUse">
<stop stop-color="#34363E"/>
<stop offset="1" stop-color="#25272F"/>
</linearGradient>
<linearGradient id="paint2_linear_13520_21" x1="293.5" y1="1" x2="293.5" y2="68" gradientUnits="userSpaceOnUse">
<stop stop-color="#66676D"/>
<stop offset="1" stop-opacity="0"/>
</linearGradient>
</defs>
</svg>
