<svg width="178" height="95" viewBox="0 0 178 95" fill="none" xmlns="http://www.w3.org/2000/svg">

<g opacity="0.6" filter="url(#filter0_b_0_1)">
<path d="M2 32C2 20.9543 10.9543 12 22 12H135.502C143.149 12 150.126 16.3604 153.478 23.2337L173.472 64.2337C179.951 77.5192 170.277 93 155.496 93H22C10.9543 93 2 84.0457 2 73V32Z" fill="black"/>
<path d="M2 32C2 20.9543 10.9543 12 22 12H135.502C143.149 12 150.126 16.3604 153.478 23.2337L173.472 64.2337C179.951 77.5192 170.277 93 155.496 93H22C10.9543 93 2 84.0457 2 73V32Z" stroke="url(#paint0_linear_0_1)" stroke-width="3"/>
</g>
<g filter="url(#filter1_b_0_1)">
<path d="M9 66.5C9 57.6634 16.1634 50.5 25 50.5H156C164.837 50.5 172 57.6634 172 66.5V67C172 75.8366 164.837 83 156 83H25C16.1634 83 9 75.8366 9 67V66.5Z" fill="url(#paint1_linear_0_1)"/>
<path d="M9 66.5C9 57.6634 16.1634 50.5 25 50.5H156C164.837 50.5 172 57.6634 172 66.5V67C172 75.8366 164.837 83 156 83H25C16.1634 83 9 75.8366 9 67V66.5Z" stroke="url(#paint2_linear_0_1)"/>
</g>
<g filter="url(#filter2_b_0_1)">
<path d="M9 17C9 8.16344 16.1634 1 25 1H139.773C146.009 1 151.676 4.62237 154.294 10.2813L170.488 45.2813C175.394 55.8846 167.651 68 155.967 68H25C16.1634 68 9 60.8366 9 52V17Z" fill="url(#paint3_linear_0_1)"/>
<path d="M9 17C9 8.16344 16.1634 1 25 1H139.773C146.009 1 151.676 4.62237 154.294 10.2813L170.488 45.2813C175.394 55.8846 167.651 68 155.967 68H25C16.1634 68 9 60.8366 9 52V17Z" stroke="url(#paint4_linear_0_1)"/>
</g>
<path d="M21.3213 38L24.1213 24H27.9613L31.7013 33.14H29.6613L36.8613 24H40.8813L38.1213 38H33.8213L35.2813 30.48L35.9613 30.44L31.1213 36.74H29.0413L26.3213 30.42L27.1213 30.48L25.6213 38H21.3213ZM42.0633 42.08C41.4633 42.08 40.8699 41.9933 40.2833 41.82C39.6833 41.6467 39.2033 41.42 38.8433 41.14L40.8033 38C41.0299 38.1733 41.2833 38.3133 41.5633 38.42C41.8433 38.5267 42.1366 38.58 42.4433 38.58C42.8033 38.58 43.0966 38.4933 43.3233 38.32C43.5499 38.16 43.7633 37.9133 43.9633 37.58L44.6633 36.42L45.0033 35.98L50.2233 27.06H54.6433L47.9233 38.22C47.3233 39.22 46.7366 40 46.1633 40.56C45.5899 41.12 44.9699 41.5133 44.3033 41.74C43.6499 41.9667 42.9033 42.08 42.0633 42.08ZM43.6433 38.5L41.1633 27.06H45.6633L47.2833 35.58L43.6433 38.5ZM59.2705 38L62.0705 24H68.3505C70.2038 24 71.6371 24.4067 72.6505 25.22C73.6638 26.02 74.1705 27.1467 74.1705 28.6C74.1705 29.7733 73.8771 30.8 73.2905 31.68C72.7171 32.56 71.8971 33.2467 70.8305 33.74C69.7771 34.2333 68.5305 34.48 67.0905 34.48H62.5705L65.0905 32.5L63.9905 38H59.2705ZM67.8305 38L64.9505 32.9H69.8105L72.7305 38H67.8305ZM64.9705 33.06L63.3105 30.92H67.3305C67.9838 30.92 68.4905 30.76 68.8505 30.44C69.2105 30.1067 69.3905 29.6467 69.3905 29.06C69.3905 28.5533 69.2305 28.1933 68.9105 27.98C68.6038 27.7533 68.1771 27.64 67.6305 27.64H63.9705L66.4905 25.44L64.9705 33.06ZM80.5528 38.2C79.3528 38.2 78.2995 37.9933 77.3928 37.58C76.4995 37.1667 75.7995 36.58 75.2928 35.82C74.7861 35.06 74.5328 34.1667 74.5328 33.14C74.5328 31.94 74.8128 30.8667 75.3728 29.92C75.9328 28.9733 76.7195 28.2267 77.7328 27.68C78.7595 27.1333 79.9528 26.86 81.3128 26.86C82.4861 26.86 83.4861 27.0667 84.3128 27.48C85.1395 27.8933 85.7728 28.46 86.2128 29.18C86.6528 29.9 86.8728 30.7333 86.8728 31.68C86.8728 32.0133 86.8461 32.34 86.7928 32.66C86.7528 32.98 86.6995 33.2867 86.6328 33.58H78.1328L78.5528 31.4H84.5528L82.6728 31.98C82.7795 31.5533 82.7728 31.1933 82.6528 30.9C82.5461 30.5933 82.3595 30.36 82.0928 30.2C81.8261 30.0267 81.4995 29.94 81.1128 29.94C80.5661 29.94 80.1328 30.0867 79.8128 30.38C79.4928 30.6733 79.2595 31.0533 79.1128 31.52C78.9795 31.9867 78.9128 32.4733 78.9128 32.98C78.9128 33.66 79.0928 34.1467 79.4528 34.44C79.8261 34.72 80.3661 34.86 81.0728 34.86C81.4861 34.86 81.8995 34.8 82.3128 34.68C82.7261 34.5467 83.1061 34.3533 83.4528 34.1L85.3328 36.84C84.5861 37.3467 83.8061 37.7 82.9928 37.9C82.1928 38.1 81.3795 38.2 80.5528 38.2ZM89.6063 38L87.8463 27.06H91.9663L93.1863 35.94H91.0463L95.8463 27.06H99.7263L100.966 35.94H98.8463L103.626 27.06H107.826L101.926 38H97.4662L96.3463 30.96H97.6863L94.0463 38H89.6063ZM111.181 38.2C110.461 38.2 109.755 38.0067 109.061 37.62C108.368 37.22 107.795 36.6467 107.341 35.9C106.901 35.14 106.681 34.22 106.681 33.14C106.681 32.2333 106.835 31.4 107.141 30.64C107.448 29.88 107.868 29.22 108.401 28.66C108.948 28.0867 109.568 27.6467 110.261 27.34C110.968 27.02 111.715 26.86 112.501 26.86C113.355 26.86 114.095 27.0333 114.721 27.38C115.348 27.7267 115.795 28.3133 116.061 29.14C116.341 29.9533 116.368 31.08 116.141 32.52C115.955 33.6933 115.635 34.7067 115.181 35.56C114.741 36.4133 114.188 37.0667 113.521 37.52C112.855 37.9733 112.075 38.2 111.181 38.2ZM112.881 34.64C113.281 34.64 113.628 34.54 113.921 34.34C114.215 34.1267 114.441 33.8333 114.601 33.46C114.775 33.0867 114.861 32.6467 114.861 32.14C114.861 31.6333 114.715 31.22 114.421 30.9C114.141 30.58 113.748 30.42 113.241 30.42C112.855 30.42 112.508 30.5267 112.201 30.74C111.908 30.94 111.675 31.2267 111.501 31.6C111.341 31.9733 111.261 32.4133 111.261 32.92C111.261 33.4267 111.401 33.84 111.681 34.16C111.975 34.48 112.375 34.64 112.881 34.64ZM113.941 38L114.241 36.52L114.981 32.52L115.561 28.56L115.861 27.06H120.381L118.201 38H113.941ZM120.185 38L122.365 27.06H126.625L126.005 30.16L125.585 29.28C126.038 28.4133 126.665 27.7933 127.465 27.42C128.278 27.0467 129.205 26.86 130.245 26.86L129.445 30.86C129.258 30.8333 129.085 30.8133 128.925 30.8C128.778 30.7867 128.625 30.78 128.465 30.78C127.718 30.78 127.112 30.9467 126.645 31.28C126.192 31.6133 125.885 32.1667 125.725 32.94L124.705 38H120.185ZM134.309 38.2C133.589 38.2 132.882 38.0067 132.189 37.62C131.495 37.22 130.922 36.6467 130.469 35.9C130.029 35.14 129.809 34.22 129.809 33.14C129.809 32.2333 129.962 31.4 130.269 30.64C130.575 29.88 130.995 29.22 131.529 28.66C132.075 28.0867 132.695 27.6467 133.389 27.34C134.095 27.02 134.842 26.86 135.629 26.86C136.362 26.86 137.009 26.9867 137.569 27.24C138.142 27.48 138.589 27.8933 138.909 28.48C139.242 29.0533 139.409 29.8333 139.409 30.82C139.409 31.7533 139.302 32.66 139.089 33.54C138.875 34.42 138.555 35.2133 138.129 35.92C137.702 36.6133 137.169 37.1667 136.529 37.58C135.889 37.9933 135.149 38.2 134.309 38.2ZM136.009 34.64C136.409 34.64 136.755 34.54 137.049 34.34C137.342 34.1267 137.569 33.8333 137.729 33.46C137.902 33.0867 137.989 32.6467 137.989 32.14C137.989 31.6333 137.842 31.22 137.549 30.9C137.269 30.58 136.875 30.42 136.369 30.42C135.982 30.42 135.635 30.5267 135.329 30.74C135.035 30.94 134.802 31.2267 134.629 31.6C134.469 31.9733 134.389 32.4133 134.389 32.92C134.389 33.4267 134.529 33.84 134.809 34.16C135.102 34.48 135.502 34.64 136.009 34.64ZM137.049 38L137.349 36.52L138.089 32.52L138.669 28.56L139.749 23.16H144.269L141.309 38H137.049ZM147.87 38.2C146.897 38.2 145.97 38.1067 145.09 37.92C144.223 37.72 143.55 37.48 143.07 37.2L144.63 34.12C145.177 34.4533 145.79 34.7067 146.47 34.88C147.163 35.04 147.817 35.12 148.43 35.12C148.937 35.12 149.283 35.0733 149.47 34.98C149.67 34.8733 149.77 34.7467 149.77 34.6C149.77 34.44 149.637 34.3267 149.37 34.26C149.103 34.18 148.757 34.1133 148.33 34.06C147.917 34.0067 147.477 33.9267 147.01 33.82C146.543 33.7133 146.097 33.56 145.67 33.36C145.257 33.1467 144.917 32.8533 144.65 32.48C144.383 32.1067 144.25 31.6133 144.25 31C144.25 30.0533 144.523 29.28 145.07 28.68C145.63 28.0667 146.377 27.6133 147.31 27.32C148.243 27.0133 149.277 26.86 150.41 26.86C151.21 26.86 151.977 26.9333 152.71 27.08C153.457 27.2133 154.117 27.4133 154.69 27.68L153.13 30.76C152.557 30.4267 151.983 30.2067 151.41 30.1C150.85 29.9933 150.337 29.94 149.87 29.94C149.35 29.94 148.99 30 148.79 30.12C148.59 30.2267 148.49 30.3467 148.49 30.48C148.49 30.64 148.623 30.76 148.89 30.84C149.157 30.92 149.497 30.9933 149.91 31.06C150.323 31.1133 150.763 31.1933 151.23 31.3C151.71 31.3933 152.157 31.5467 152.57 31.76C152.983 31.96 153.323 32.2467 153.59 32.62C153.857 32.9933 153.99 33.4867 153.99 34.1C153.99 35.0067 153.71 35.7667 153.15 36.38C152.603 36.9933 151.863 37.4533 150.93 37.76C150.01 38.0533 148.99 38.2 147.87 38.2Z" fill="white"/>
<defs>
<filter id="filter0_b_0_1" x="-19.5" y="-9.5" width="216.523" height="124" filterUnits="userSpaceOnUse" color-interpolation-filters="sRGB">
<feFlood flood-opacity="0" result="BackgroundImageFix"/>
<feGaussianBlur in="BackgroundImageFix" stdDeviation="10"/>
<feComposite in2="SourceAlpha" operator="in" result="effect1_backgroundBlur_0_1"/>
<feBlend mode="normal" in="SourceGraphic" in2="effect1_backgroundBlur_0_1" result="shape"/>
</filter>
<filter id="filter1_b_0_1" x="-11.5" y="30" width="204" height="73.5" filterUnits="userSpaceOnUse" color-interpolation-filters="sRGB">
<feFlood flood-opacity="0" result="BackgroundImageFix"/>
<feGaussianBlur in="BackgroundImageFix" stdDeviation="10"/>
<feComposite in2="SourceAlpha" operator="in" result="effect1_backgroundBlur_0_1"/>
<feBlend mode="normal" in="SourceGraphic" in2="effect1_backgroundBlur_0_1" result="shape"/>
</filter>
<filter id="filter2_b_0_1" x="-11.5" y="-19.5" width="203.987" height="108" filterUnits="userSpaceOnUse" color-interpolation-filters="sRGB">
<feFlood flood-opacity="0" result="BackgroundImageFix"/>
<feGaussianBlur in="BackgroundImageFix" stdDeviation="10"/>
<feComposite in2="SourceAlpha" operator="in" result="effect1_backgroundBlur_0_1"/>
<feBlend mode="normal" in="SourceGraphic" in2="effect1_backgroundBlur_0_1" result="shape"/>
</filter>
<linearGradient id="paint0_linear_0_1" x1="117.296" y1="12" x2="117.296" y2="93" gradientUnits="userSpaceOnUse">
<stop stop-color="#191A20"/>
<stop offset="1" stop-color="#39393E"/>
</linearGradient>
<linearGradient id="paint1_linear_0_1" x1="95" y1="12" x2="95" y2="83" gradientUnits="userSpaceOnUse">
<stop stop-color="#17181C"/>
<stop offset="1" stop-color="#191A1F"/>
</linearGradient>
<linearGradient id="paint2_linear_0_1" x1="95" y1="12" x2="95" y2="83" gradientUnits="userSpaceOnUse">
<stop stop-color="#66676D"/>
<stop offset="1" stop-opacity="0"/>
</linearGradient>
<linearGradient id="paint3_linear_0_1" x1="95" y1="1" x2="95" y2="68" gradientUnits="userSpaceOnUse">
<stop stop-color="#5B5E69"/>
<stop offset="1" stop-color="#3F424E"/>
</linearGradient>
<linearGradient id="paint4_linear_0_1" x1="95" y1="1" x2="95" y2="68" gradientUnits="userSpaceOnUse">
<stop stop-color="#66676D"/>
<stop offset="1" stop-opacity="0"/>
</linearGradient>
</defs>
</svg>
