<svg width="207" height="69" viewBox="0 0 207 69" fill="none" xmlns="http://www.w3.org/2000/svg">
<path d="M50.2942 6.35621H14.7299C14.2068 6.35621 13.7046 6.56112 13.3308 6.92701L0.600939 19.3884C0.216609 19.7646 0 20.2798 0 20.8176L3.9129e-06 62.5C4.21782e-06 65.8137 2.68629 68.5 6 68.5H186.857C187.288 68.5 187.707 68.3608 188.053 68.1032L206.196 54.5714C206.702 54.1939 207 53.5996 207 52.9682V6C207 2.68629 204.314 0 201 0H59.9919C59.5542 0 59.1286 0.143584 58.7804 0.408729L51.5057 5.94748C51.1575 6.21263 50.7318 6.35621 50.2942 6.35621Z" fill="#D8D800"/>
<path d="M201 34H6C2.68629 34 0 36.6863 0 40L3.6885e-06 62.5C4.11736e-06 65.8137 2.6863 68.5 6 68.5H186.857C187.288 68.5 187.707 68.3608 188.053 68.1032L206.196 54.5714C206.702 54.1939 207 53.5996 207 52.9682V40C207 36.6863 204.314 34 201 34Z" fill="black"/>
<path d="M24.2544 14.816H40.4524L39.2824 18.976H26.5684L24.5924 25.84H32.2884L33.8484 20.38H38.8664L36.5264 28.518C36.0584 29.35 35.4084 29.844 34.5504 30H19.9124C19.1324 29.792 18.7684 29.298 18.7684 28.518L22.2784 16.35C22.7464 15.544 23.3964 15.024 24.2544 14.816ZM43.8813 14.816H59.2993C59.6113 14.92 59.8713 15.102 60.1053 15.31C60.3133 15.518 60.4693 15.83 60.5213 16.22L56.9593 28.596C56.6733 29.012 56.3613 29.324 55.9973 29.558C55.6333 29.792 55.2953 29.948 54.9573 30H39.5393C38.7593 29.792 38.3953 29.298 38.3953 28.518L41.9053 16.35C42.3733 15.544 43.0233 15.024 43.8813 14.816ZM46.1953 18.976L44.2193 25.84H52.7993L54.7753 18.976H46.1953ZM67.8042 14.816L64.6582 25.84H74.7202L73.5242 30H58.4442L62.7862 14.816H67.8042ZM91.0317 18.976C91.0057 18.976 90.9797 18.976 90.9797 18.95L91.0317 18.976ZM79.7217 14.816H94.5157C94.8277 14.816 95.1137 14.92 95.3997 15.128C95.6857 15.336 95.9457 15.57 96.1537 15.856C96.3617 16.142 96.5437 16.428 96.6477 16.74C96.7517 17.052 96.7777 17.312 96.7257 17.52L93.8917 27.374C93.8137 27.608 93.6317 27.868 93.3457 28.18C93.0337 28.492 92.6957 28.778 92.3317 29.038C91.9417 29.298 91.5517 29.532 91.1617 29.714C90.7717 29.922 90.4597 30 90.1997 30H75.3797L78.1357 20.354H83.1797L81.6197 25.84H89.0037C89.1597 25.788 89.2897 25.684 89.3937 25.528L91.1877 19.34C91.1877 19.184 91.1357 19.08 91.0317 18.976H78.5517L79.7217 14.816ZM110.521 14.816H126.797C127.473 14.998 127.863 15.44 127.915 16.168L125.887 23.162C125.575 23.682 125.289 24.02 125.003 24.228C124.717 24.436 124.275 24.514 123.677 24.514H120.791L124.197 30H117.905L114.421 24.358L115.565 20.354H121.727L122.143 18.976H114.395L111.223 30H106.179L110.521 14.816ZM130.148 14.816H135.192L132.046 25.84H139.742L142.888 14.816H147.906L143.98 28.518C143.512 29.35 142.862 29.844 142.004 30H127.366C126.586 29.792 126.222 29.298 126.222 28.518L130.148 14.816ZM145.432 30L146.628 25.84H155.26L149.176 19.496C148.916 18.794 148.89 18.04 149.124 17.26C149.176 17 149.332 16.74 149.566 16.454C149.774 16.168 150.034 15.908 150.346 15.648C150.632 15.414 150.944 15.206 151.256 15.05C151.568 14.894 151.854 14.816 152.114 14.816H166.102L164.932 18.976H156.17L162.358 25.372C162.514 25.684 162.592 26.048 162.592 26.438C162.592 26.828 162.54 27.218 162.436 27.582C162.332 27.842 162.202 28.128 162.02 28.414C161.812 28.7 161.604 28.96 161.344 29.194C161.084 29.428 160.824 29.61 160.564 29.766C160.304 29.922 160.044 30 159.836 30H145.432ZM167.929 14.816H172.947L171.361 20.354H178.771L180.357 14.816H185.375L181.033 30H176.015L177.601 24.488H170.191L168.605 30H163.587L167.929 14.816Z" fill="black"/>
<path d="M24.002 40.816H40.278C40.954 40.998 41.344 41.44 41.396 42.168L39.368 49.162C39.056 49.682 38.77 50.02 38.484 50.228C38.198 50.436 37.756 50.514 37.158 50.514H34.272L37.678 56H31.386L27.902 50.358L29.046 46.354H35.208L35.624 44.976H27.876L24.704 56H19.66L24.002 40.816ZM55.9269 50.462H45.9169L45.5269 51.84H58.2409L57.0449 56H39.2869L42.0429 46.354H57.0969L55.9269 50.462ZM42.4589 44.976L43.6289 40.816H61.3869L60.2169 44.976H42.4589ZM68.2739 40.816L65.1279 51.84H75.1899L73.9939 56H58.9139L63.2559 40.816H68.2739ZM81.7514 40.816H97.1694C97.4814 40.92 97.7414 41.102 97.9754 41.31C98.1834 41.518 98.3394 41.83 98.3914 42.22L94.8294 54.596C94.5434 55.012 94.2314 55.324 93.8674 55.558C93.5034 55.792 93.1654 55.948 92.8274 56H77.4094C76.6294 55.792 76.2654 55.298 76.2654 54.518L79.7754 42.35C80.2434 41.544 80.8934 41.024 81.7514 40.816ZM84.0654 44.976L82.0894 51.84H90.6694L92.6454 44.976H84.0654ZM107.061 56H95.3608L106.099 40.816H112.937L114.965 56H109.219L108.127 45.548L103.915 51.84H106.671L107.061 56ZM131.847 44.976C131.821 44.976 131.795 44.976 131.795 44.95L131.847 44.976ZM120.537 40.816H135.331C135.643 40.816 135.929 40.92 136.215 41.128C136.501 41.336 136.761 41.57 136.969 41.856C137.177 42.142 137.359 42.428 137.463 42.74C137.567 43.052 137.593 43.312 137.541 43.52L134.707 53.374C134.629 53.608 134.447 53.868 134.161 54.18C133.849 54.492 133.511 54.778 133.147 55.038C132.757 55.298 132.367 55.532 131.977 55.714C131.587 55.922 131.275 56 131.015 56H116.195L118.951 46.354H123.995L122.435 51.84H129.819C129.975 51.788 130.105 51.684 130.209 51.528L132.003 45.34C132.003 45.184 131.951 45.08 131.847 44.976H119.367L120.537 40.816ZM152.462 50.462H142.452L142.062 51.84H154.776L153.58 56H135.822L138.578 46.354H153.632L152.462 50.462ZM138.994 44.976L140.164 40.816H157.922L156.752 44.976H138.994ZM171.101 44.976C171.075 44.976 171.049 44.976 171.049 44.95L171.101 44.976ZM159.791 40.816H174.585C174.897 40.816 175.183 40.92 175.469 41.128C175.755 41.336 176.015 41.57 176.223 41.856C176.431 42.142 176.613 42.428 176.717 42.74C176.821 43.052 176.847 43.312 176.795 43.52L173.961 53.374C173.883 53.608 173.701 53.868 173.415 54.18C173.103 54.492 172.765 54.778 172.401 55.038C172.011 55.298 171.621 55.532 171.231 55.714C170.841 55.922 170.529 56 170.269 56H155.449L158.205 46.354H163.249L161.689 51.84H169.073C169.229 51.788 169.359 51.684 169.463 51.528L171.257 45.34C171.257 45.184 171.205 45.08 171.101 44.976H158.621L159.791 40.816ZM176.246 51.84H180.978L179.782 56H175.05L176.246 51.84ZM179.366 40.816H184.124L181.134 51.268H176.376L179.366 40.816Z" fill="#00FFD1"/>
</svg>
